0
SECTION
2
HEADER
9
$EXTMAX
10
410
20
430.719
9
$EXTMIN
10
9.80798
20
10
9
$LIMMAX
10
410
20
430.719
9
$LIMMIN
10
9.80798
20
10
0
ENDSEC
0
SECTION
2
TABLES
0
TABLE
2
LTYPE
70
5
0
LTYPE
2
CONTINUOUS
70
64
3
CONTINUOUS
72
65
73
0
40
0.0
0
LTYPE
2
DASH
70
64
3
DASH
72
65
73
2
40
2.0
49
1.0
49
-1.0
0
LTYPE
2
DOT
70
64
3
DOT
72
65
73
2
40
0.5
49
0.0
49
-0.5
0
LTYPE
2
DASHDOT
70
64
3
DASHDOT
72
65
73
4
40
2.0
49
1.0
49
-0.5
49
0.0
49
-0.5
0
LTYPE
2
DASHDOTDOT
70
64
3
DASHDOTDOT
72
65
73
6
40
2.0
49
1.0
49
-0.35
49
0.0
49
-0.3
49
0.0
49
-0.35
0
ENDTAB
0
TABLE
2
LAYER
70
1
0
LAYER
70
0
2
0
62
250
6
CONTINUOUS
0
ENDTAB
0
TABLE
2
STYLE
70
1
0
STYLE
2
STANDARD
70
0
40
0.0
41
1.0
50
0.0
71
0
42
6.0
3
txt
4
extfont2
0
ENDTAB
0
TABLE
2
APPID
0
APPID
2
TC_BENDDATA
70
0
0
ENDTAB
0
ENDSEC
0
SECTION
2
BLOCKS
0
ENDSEC
0
SECTION
2
ENTITIES
0
LINE
8
0
10
10.0
20
10.0
30
0.0
11
10.000000000000002
21
50.0
31
0.0
0
LINE
8
0
10
20.0
20
60.0
30
0.0
11
60.0
21
60.0
31
0.0
0
LINE
8
0
10
120.0
20
10.0
30
0.0
11
120.0
21
70.0
31
0.0
0
LINE
8
0
10
130.0
20
60.0
30
0.0
11
170.0
21
60.0
31
0.0
0
LINE
8
0
10
240.0
20
10.0
30
0.0
11
240.0
21
50.0
31
0.0
0
LINE
8
0
10
230.0
20
60.0
30
0.0
11
290.0
21
60.0
31
0.0
0
LINE
8
0
10
350.0
20
10.0
30
0.0
11
350.0
21
70.0
31
0.0
0
LINE
8
0
10
340.0
20
60.0
30
0.0
11
400.0
21
60.0
31
0.0
0
LINE
8
0
10
10.0
20
130.0
30
0.0
11
10.000000000000004
21
180.0
31
0.0
0
LINE
8
0
10
20.0
20
120.0
30
0.0
11
70.0
21
120.0
31
0.0
0
LINE
8
0
10
120.0
20
120.0
30
0.0
11
120.0
21
190.0
31
0.0
0
LINE
8
0
10
110.0
20
130.0
30
0.0
11
180.0
21
130.0
31
0.0
0
LINE
8
0
10
260.0
20
130.0
30
0.0
11
260.0
21
180.0
31
0.0
0
LINE
8
0
10
210.0
20
190.0
30
0.0
11
250.0
21
190.0
31
0.0
0
LINE
8
0
10
300.0
20
190.0
30
0.0
11
360.0
21
190.0
31
0.0
0
LINE
8
0
10
350.0
20
130.0
30
0.0
11
350.0
21
200.0
31
0.0
0
LINE
8
0
10
10.0
20
250.0
30
0.0
11
10.000000000000004
21
310.0
31
0.0
0
ARC
8
0
10
1.92307692307705
20
254.23076923076877
30
0.0
40
68.20826096526271
50
-3.556181094254739
51
74.6315366782041
0
LINE
8
0
10
130.0
20
310.0
30
0.0
11
130.0
21
250.0
31
0.0
0
ARC
8
0
10
100.00000000000219
20
319.99999999999778
30
0.0
40
80.622577482982479
50
-60.255118703058336
51
-7.125016348900427
0
LINE
8
0
10
240.0
20
250.0
30
0.0
11
240.0
21
319.99999999999778
31
0.0
0
ARC
8
0
10
243.00000000000009
20
299.99999999999886
30
0.0
40
42.05948168962513
50
-108.00416160591398
51
28.393019421381759
0
LINE
8
0
10
350.0
20
320.0
30
0.0
11
350.0
21
250.0
31
0.0
0
ARC
8
0
10
341.25000000000006
20
240.62500000000188
30
0.0
40
69.386260347418499
50
7.765166018423805
51
91.032244691565808
0
ARC
8
0
10
74.999999999999972
20
374.99999999999955
30
0.0
40
65.192024052026426
50
122.47119229084825
51
-175.60129464500488
0
ARC
8
0
10
14.99999999999836
20
385.0
30
0.0
40
57.008771254957907
50
-15.255118703057342
51
52.125016348900495
0
ARC
8
0
10
195.00000000000063
20
374.99999999999937
30
0.0
40
65.192024052027065
50
122.47119229084868
51
-175.60129464500505
0
ARC
8
0
10
155.0
20
401.66666666666606
30
0.0
40
35.039660069380517
50
-115.34617594194711
51
-2.726310993905275
0
ARC
8
0
10
301.42857142857105
20
379.28571428571581
30
0.0
40
51.433531506841575
50
80.406865737268973
51
179.20427644726243
0
ARC
8
0
10
260.0
20
512.49999999999659
30
0.0
40
124.12191587306073
50
-99.272601777200549
51
-55.669782804495796
0
ENDSEC
0
EOF
