 0
SECTION
 2
HEADER
 0
ENDSEC
 0
SECTION
 2
TABLES
 0
TABLE
 2
LAYER
 70
1
 0
LAYER
 70
0
 2
0
 62
250
 6
CONTINUOUS
 0
ENDTAB
 0
ENDSEC
 0
SECTION
 2
ENTITIES
 0
LINE
 8
0
 10
37.67949192
 20
31.33974596
 11
72.32050808
 21
51.33974596
 0
LINE
 8
0
 10
72.32050808
 20
51.33974596
 11
62.32050808
 21
68.66025404
 0
LINE
 8
0
 10
62.32050808
 20
68.66025404
 11
27.67949192
 21
48.66025404
 0
LINE
 8
0
 10
27.67949192
 20
48.66025404
 11
37.67949192
 21
31.33974596
 0
ARC
 8
0
 10
89.50961757275752
 20
38.1698678773816
 40
4.999996265558878
 50
-150.00004281046236
 51
-59.99995720188841
 0
LINE
 8
0
 10
92.00961894
 20
33.83974596
 11
117.99038106
 21
48.83974596
 0
ARC
 8
0
 10
115.49038616261839
 20
53.16987161275752
 40
4.999996265558885
 50
-60.00004281046223
 51
30.00004279811163
 0
LINE
 8
0
 10
119.82050808
 20
55.66987298
 11
114.82050808
 21
64.33012702
 0
ARC
 8
0
 10
110.49038242724248
 20
61.8301321226184
 40
4.999996265558882
 50
29.999957189537692
 51
120.00004279811161
 0
LINE
 8
0
 10
107.99038106
 20
66.16025404
 11
82.00961894
 21
51.16025404
 0
ARC
 8
0
 10
84.50961383738161
 20
46.83012838724248
 40
4.999996265558885
 50
119.99995718953778
 51
210.00004279811162
 0
LINE
 8
0
 10
80.17949192
 20
44.33012702
 11
85.17949192
 21
35.66987298
 0
LINE
 8
0
 10
135.17949192
 20
35.66987298
 11
142.00961894
 21
33.83974596
 0
LINE
 8
0
 10
142.00961894
 20
33.83974596
 11
167.99038106
 21
48.83974596
 0
LINE
 8
0
 10
167.99038106
 20
48.83974596
 11
169.82050808
 21
55.66987298
 0
LINE
 8
0
 10
169.82050808
 20
55.66987298
 11
164.82050808
 21
64.33012702
 0
LINE
 8
0
 10
164.82050808
 20
64.33012702
 11
157.99038106
 21
66.16025404
 0
LINE
 8
0
 10
157.99038106
 20
66.16025404
 11
132.00961894
 21
51.16025404
 0
LINE
 8
0
 10
132.00961894
 20
51.16025404
 11
130.17949192
 21
44.33012702
 0
LINE
 8
0
 10
130.17949192
 20
44.33012702
 11
135.17949192
 21
35.66987298
 0
ARC
 8
0
 10
37.67949328724248
 20
81.33975106261839
 40
4.999996265558887
 50
29.99995718953772
 51
120.00004279811162
 0
LINE
 8
0
 10
42.00961894
 20
83.83974596
 11
67.99038106
 21
98.83974596
 0
ARC
 8
0
 10
72.3205029773816
 20
101.33974732724248
 40
4.999996265558871
 50
-240.00004281046236
 51
-149.99995720188838
 0
LINE
 8
0
 10
69.82050808
 20
105.66987298
 11
64.82050808
 21
114.33012702
 0
ARC
 8
0
 10
62.32050671275752
 20
118.66024893738161
 40
4.999996265558884
 50
-150.00004281046228
 51
-59.99995720188845
 0
LINE
 8
0
 10
57.99038106
 20
116.16025404
 11
32.00961894
 21
101.16025404
 0
ARC
 8
0
 10
27.6794970226184
 20
98.66025267275752
 40
4.999996265558884
 50
-60.00004281046235
 51
30.000042798111558
 0
LINE
 8
0
 10
30.17949192
 20
94.33012702
 11
35.17949192
 21
85.66987298
 0
LINE
 8
0
 10
46.33974596
 20
136.33974596
 11
63.66025404
 21
146.33974596
 0
ARC
 8
0
 10
58.66025404
 20
155
 40
10.000000001866827
 50
-60.00000000617541
 51
119.9999999938246
 0
LINE
 8
0
 10
53.66025404
 20
163.66025404
 11
36.33974596
 21
153.66025404
 0
ARC
 8
0
 10
41.33974596
 20
145
 40
10.000000001866827
 50
119.9999999938246
 51
299.9999999938246
 0
LINE
 8
0
 10
110
 20
167.32050808
 11
80
 21
150
 0
ARC
 8
0
 10
100.00001244268528
 20
150.00000717947648
 40
20.000012442686565
 50
-179.99997943232773
 51
-120.00002058002296
 0
LINE
 8
0
 10
90
 20
132.67949192
 11
120
 21
150
 0
ARC
 8
0
 10
99.99998755731472
 20
149.99999282052352
 40
20.000012442686565
 50
2.056767228516775E-05
 51
59.999979419977045
 0
ARC
 8
0
 10
149.9999988877539
 20
150.00000192215558
 40
20.000001112246203
 50
-5.506569797497234E-06
 51
240.0000055189205
 0
LINE
 8
0
 10
140
 20
132.67949192
 11
170
 21
150
 0
LINE
 8
0
 10
122.32050808
 20
101.33974596
 11
106.01635869
 21
115.0205517
 0
LINE
 8
0
 10
106.01635869
 20
115.0205517
 11
83.98364131
 21
102.29995638
 0
LINE
 8
0
 10
83.98364131
 20
102.29995638
 11
87.67949192
 21
81.33974596
 0
LINE
 8
0
 10
87.67949192
 20
81.33974596
 11
122.32050808
 21
101.33974596
 0
LINE
 8
0
 10
165.47258277
 20
120.48010521
 11
130.83156662
 21
100.48010521
 0
LINE
 8
0
 10
130.83156662
 20
100.48010521
 11
134.52741723
 21
79.51989479
 0
LINE
 8
0
 10
134.52741723
 20
79.51989479
 11
169.16843338
 21
99.51989479
 0
LINE
 8
0
 10
169.16843338
 20
99.51989479
 11
165.47258277
 21
120.48010521
 0
CIRCLE
 8
0
 10
50
 20
50
 40
8
 0
ENDSEC
 0
EOF
