0
SECTION
2
HEADER
9
$EXTMAX
10
120
20
90
9
$EXTMIN
10
10
20
10
9
$LIMMAX
10
120
20
90
9
$LIMMIN
10
10
20
10
0
ENDSEC
0
SECTION
2
TABLES
0
TABLE
2
LTYPE
70
5
0
LTYPE
2
CONTINUOUS
70
64
3
CONTINUOUS
72
65
73
0
40
0.0
0
LTYPE
2
DASH
70
64
3
DASH
72
65
73
2
40
2.0
49
1.0
49
-1.0
0
LTYPE
2
DOT
70
64
3
DOT
72
65
73
2
40
0.5
49
0.0
49
-0.5
0
LTYPE
2
DASHDOT
70
64
3
DASHDOT
72
65
73
4
40
2.0
49
1.0
49
-0.5
49
0.0
49
-0.5
0
LTYPE
2
DASHDOTDOT
70
64
3
DASHDOTDOT
72
65
73
6
40
2.0
49
1.0
49
-0.35
49
0.0
49
-0.3
49
0.0
49
-0.35
0
ENDTAB
0
TABLE
2
LAYER
70
1
0
LAYER
70
0
2
0
62
250
6
CONTINUOUS
0
ENDTAB
0
TABLE
2
STYLE
70
1
0
STYLE
2
STANDARD
70
0
40
0.0
41
1.0
50
0.0
71
0
42
6.0
3
txt
4
extfont2
0
ENDTAB
0
TABLE
2
APPID
0
APPID
2
TC_BENDDATA
70
0
0
ENDTAB
0
ENDSEC
0
SECTION
2
BLOCKS
0
ENDSEC
0
SECTION
2
ENTITIES
0
POLYLINE
8
0
66
1
10
0.0
20
0.0
30
0.0
70
1
0
VERTEX
8
0
10
10.0
20
10.0
30
0.0
0
VERTEX
8
0
10
120.0
20
10.0
30
0.0
0
VERTEX
8
0
10
120.0
20
30.0
30
0.0
0
VERTEX
8
0
10
100.0
20
30.000000000000004
30
0.0
0
VERTEX
8
0
10
80.0
20
50.0
30
0.0
0
VERTEX
8
0
10
90.0
20
60.0
30
0.0
0
VERTEX
8
0
10
110.0
20
60.0
30
0.0
0
VERTEX
8
0
10
110.0
20
90.0
30
0.0
0
VERTEX
8
0
10
60.0
20
90.0
30
0.0
0
VERTEX
8
0
10
40.0
20
70.0
30
0.0
0
VERTEX
8
0
10
20.0
20
90.0
30
0.0
0
VERTEX
8
0
10
10.0
20
90.0
30
0.0
0
SEQEND
8
0
0
POLYLINE
8
0
66
1
10
0.0
20
0.0
30
0.0
70
1
0
VERTEX
8
0
10
20.0
20
20.0
30
0.0
0
VERTEX
8
0
10
70.0
20
20.0
30
0.0
0
VERTEX
8
0
10
70.0
20
40.0
30
0.0
0
VERTEX
8
0
10
60.0
20
30.0
30
0.0
0
VERTEX
8
0
10
30.0
20
30.000000000000004
30
0.0
0
VERTEX
8
0
10
19.999999999999996
20
40.0
30
0.0
0
SEQEND
8
0
0
POLYLINE
8
0
66
1
10
0.0
20
0.0
30
0.0
70
1
0
VERTEX
8
0
10
30.0
20
40.0
30
0.0
0
VERTEX
8
0
10
60.0
20
40.0
30
0.0
0
VERTEX
8
0
10
60.0
20
60.0
30
0.0
0
VERTEX
8
0
10
70.0
20
70.0
30
0.0
0
VERTEX
8
0
10
100.0
20
70.0
30
0.0
0
VERTEX
8
0
10
100.0
20
80.0
30
0.0
0
VERTEX
8
0
10
60.0
20
80.0
30
0.0
0
VERTEX
8
0
10
30.0
20
50.0
30
0.0
0
VERTEX
8
0
10
20.0
20
60.0
30
0.0
0
VERTEX
8
0
10
20.0
20
50.0
30
0.0
0
SEQEND
8
0
0
POLYLINE
8
0
66
1
10
0.0
20
0.0
30
0.0
70
1
0
VERTEX
8
0
10
90.0
20
20.0
30
0.0
0
VERTEX
8
0
10
90.0
20
30.0
30
0.0
0
VERTEX
8
0
10
80.0
20
30.0
30
0.0
0
VERTEX
8
0
10
80.0
20
20.0
30
0.0
0
SEQEND
8
0
0
ENDSEC
0
EOF
