ISO-10303-21;
HEADER;
FILE_DESCRIPTION( ( 'Unknown' ), '1' );
FILE_NAME( 'C:/Users/PC01/Documents/cella/0973903078.stp', 'Unknown', ( 'Unknown' ), ( 'Unknown' ), 'PSStep 17.0.49', 'Unknown', '  ' );
FILE_SCHEMA( ( 'AUTOMOTIVE_DESIGN { 1 0 10303 214 1 1 1 1 }' ) );
ENDSEC;
DATA;
#1 = MECHANICAL_DESIGN_GEOMETRIC_PRESENTATION_REPRESENTATION( ' ', ( #10, #11, #12, #13, #14, #15, #16, #17, #18, #19, #20, #21, #22, #23, #24, #25, #26, #27, #28 ), #6 );
#2 = PRODUCT_DEFINITION_CONTEXT( '', #29, 'design' );
#3 = APPLICATION_PROTOCOL_DEFINITION( 'international standard', 'automotive_design', 2001, #29 );
#4 = PRODUCT_CATEGORY_RELATIONSHIP( 'NONE', 'NONE', #30, #31 );
#5 = SHAPE_DEFINITION_REPRESENTATION( #32, #33 );
#6 =  ( GEOMETRIC_REPRESENTATION_CONTEXT( 3 )GLOBAL_UNCERTAINTY_ASSIGNED_CONTEXT( ( #36 ) )GLOBAL_UNIT_ASSIGNED_CONTEXT( ( #38, #39, #40 ) )REPRESENTATION_CONTEXT( 'NONE', 'WORKSPACE' ) );
#10 = STYLED_ITEM( '', ( #42 ), #43 );
#11 = STYLED_ITEM( '', ( #44 ), #45 );
#12 = STYLED_ITEM( '', ( #46 ), #47 );
#13 = STYLED_ITEM( '', ( #48 ), #49 );
#14 = STYLED_ITEM( '', ( #50 ), #51 );
#15 = STYLED_ITEM( '', ( #52 ), #53 );
#16 = STYLED_ITEM( '', ( #54 ), #55 );
#17 = STYLED_ITEM( '', ( #56 ), #57 );
#18 = STYLED_ITEM( '', ( #58 ), #59 );
#19 = STYLED_ITEM( '', ( #60 ), #61 );
#20 = STYLED_ITEM( '', ( #62 ), #63 );
#21 = STYLED_ITEM( '', ( #64 ), #65 );
#22 = STYLED_ITEM( '', ( #66 ), #67 );
#23 = STYLED_ITEM( '', ( #68 ), #69 );
#24 = STYLED_ITEM( '', ( #70 ), #71 );
#25 = STYLED_ITEM( '', ( #72 ), #73 );
#26 = STYLED_ITEM( '', ( #74 ), #75 );
#27 = STYLED_ITEM( '', ( #76 ), #77 );
#28 = STYLED_ITEM( '', ( #78 ), #79 );
#29 = APPLICATION_CONTEXT( 'core data for automotive mechanical design processes' );
#30 = PRODUCT_CATEGORY( 'part', 'NONE' );
#31 = PRODUCT_RELATED_PRODUCT_CATEGORY( 'detail', ' ', ( #80 ) );
#32 = PRODUCT_DEFINITION_SHAPE( 'NONE', 'NONE', #81 );
#33 = ADVANCED_BREP_SHAPE_REPRESENTATION( '1', ( #82, #83 ), #6 );
#36 = UNCERTAINTY_MEASURE_WITH_UNIT( LENGTH_MEASURE( 0.00100000000000000 ), #38, '', '' );
#38 =  ( CONVERSION_BASED_UNIT( 'MILLIMETRE', #86 )LENGTH_UNIT(  )NAMED_UNIT( #89 ) );
#39 =  ( NAMED_UNIT( #91 )PLANE_ANGLE_UNIT(  )SI_UNIT( $, .RADIAN. ) );
#40 =  ( NAMED_UNIT( #91 )SI_UNIT( $, .STERADIAN. )SOLID_ANGLE_UNIT(  ) );
#42 = PRESENTATION_STYLE_ASSIGNMENT( ( #97 ) );
#43 = ADVANCED_FACE( '', ( #98 ), #99, .T. );
#44 = PRESENTATION_STYLE_ASSIGNMENT( ( #100 ) );
#45 = ADVANCED_FACE( '', ( #101, #102 ), #103, .T. );
#46 = PRESENTATION_STYLE_ASSIGNMENT( ( #104 ) );
#47 = ADVANCED_FACE( '', ( #105 ), #106, .T. );
#48 = PRESENTATION_STYLE_ASSIGNMENT( ( #107 ) );
#49 = ADVANCED_FACE( '', ( #108 ), #109, .T. );
#50 = PRESENTATION_STYLE_ASSIGNMENT( ( #110 ) );
#51 = ADVANCED_FACE( '', ( #111 ), #112, .T. );
#52 = PRESENTATION_STYLE_ASSIGNMENT( ( #113 ) );
#53 = ADVANCED_FACE( '', ( #114 ), #115, .T. );
#54 = PRESENTATION_STYLE_ASSIGNMENT( ( #116 ) );
#55 = ADVANCED_FACE( '', ( #117 ), #118, .F. );
#56 = PRESENTATION_STYLE_ASSIGNMENT( ( #119 ) );
#57 = ADVANCED_FACE( '', ( #120 ), #121, .T. );
#58 = PRESENTATION_STYLE_ASSIGNMENT( ( #122 ) );
#59 = ADVANCED_FACE( '', ( #123, #124 ), #125, .F. );
#60 = PRESENTATION_STYLE_ASSIGNMENT( ( #126 ) );
#61 = ADVANCED_FACE( '', ( #127 ), #128, .F. );
#62 = PRESENTATION_STYLE_ASSIGNMENT( ( #129 ) );
#63 = ADVANCED_FACE( '', ( #130 ), #131, .F. );
#64 = PRESENTATION_STYLE_ASSIGNMENT( ( #132 ) );
#65 = ADVANCED_FACE( '', ( #133 ), #134, .T. );
#66 = PRESENTATION_STYLE_ASSIGNMENT( ( #135 ) );
#67 = ADVANCED_FACE( '', ( #136 ), #137, .F. );
#68 = PRESENTATION_STYLE_ASSIGNMENT( ( #138 ) );
#69 = ADVANCED_FACE( '', ( #139 ), #140, .T. );
#70 = PRESENTATION_STYLE_ASSIGNMENT( ( #141 ) );
#71 = ADVANCED_FACE( '', ( #142 ), #143, .T. );
#72 = PRESENTATION_STYLE_ASSIGNMENT( ( #144 ) );
#73 = ADVANCED_FACE( '', ( #145 ), #146, .T. );
#74 = PRESENTATION_STYLE_ASSIGNMENT( ( #147 ) );
#75 = ADVANCED_FACE( '', ( #148 ), #149, .F. );
#76 = PRESENTATION_STYLE_ASSIGNMENT( ( #150 ) );
#77 = ADVANCED_FACE( '', ( #151, #152 ), #153, .F. );
#78 = PRESENTATION_STYLE_ASSIGNMENT( ( #154 ) );
#79 = ADVANCED_FACE( '', ( #155 ), #156, .F. );
#80 = PRODUCT( '1', '1', 'PART-1-DESC', ( #157 ) );
#81 = PRODUCT_DEFINITION( 'NONE', 'NONE', #158, #2 );
#82 = MANIFOLD_SOLID_BREP( '1', #159 );
#83 = AXIS2_PLACEMENT_3D( '', #160, #161, #162 );
#86 = LENGTH_MEASURE_WITH_UNIT( LENGTH_MEASURE( 1.00000000000000 ), #163 );
#89 = DIMENSIONAL_EXPONENTS( 1.00000000000000, 0.000000000000000, 0.000000000000000, 0.000000000000000, 0.000000000000000, 0.000000000000000, 0.000000000000000 );
#91 = DIMENSIONAL_EXPONENTS( 0.000000000000000, 0.000000000000000, 0.000000000000000, 0.000000000000000, 0.000000000000000, 0.000000000000000, 0.000000000000000 );
#97 = SURFACE_STYLE_USAGE( .BOTH., #164 );
#98 = FACE_OUTER_BOUND( '', #165, .T. );
#99 = PLANE( '', #166 );
#100 = SURFACE_STYLE_USAGE( .BOTH., #167 );
#101 = FACE_OUTER_BOUND( '', #168, .T. );
#102 = FACE_BOUND( '', #169, .T. );
#103 = PLANE( '', #170 );
#104 = SURFACE_STYLE_USAGE( .BOTH., #171 );
#105 = FACE_OUTER_BOUND( '', #172, .T. );
#106 = PLANE( '', #173 );
#107 = SURFACE_STYLE_USAGE( .BOTH., #174 );
#108 = FACE_OUTER_BOUND( '', #175, .T. );
#109 = CYLINDRICAL_SURFACE( '', #176, 3.00000000000000 );
#110 = SURFACE_STYLE_USAGE( .BOTH., #177 );
#111 = FACE_OUTER_BOUND( '', #178, .T. );
#112 = CYLINDRICAL_SURFACE( '', #179, 2.01000000000000 );
#113 = SURFACE_STYLE_USAGE( .BOTH., #180 );
#114 = FACE_OUTER_BOUND( '', #181, .T. );
#115 = PLANE( '', #182 );
#116 = SURFACE_STYLE_USAGE( .BOTH., #183 );
#117 = FACE_OUTER_BOUND( '', #184, .T. );
#118 = PLANE( '', #185 );
#119 = SURFACE_STYLE_USAGE( .BOTH., #186 );
#120 = FACE_OUTER_BOUND( '', #187, .T. );
#121 = CYLINDRICAL_SURFACE( '', #188, 2.00000000000000 );
#122 = SURFACE_STYLE_USAGE( .BOTH., #189 );
#123 = FACE_OUTER_BOUND( '', #190, .T. );
#124 = FACE_BOUND( '', #191, .T. );
#125 = PLANE( '', #192 );
#126 = SURFACE_STYLE_USAGE( .BOTH., #193 );
#127 = FACE_OUTER_BOUND( '', #194, .T. );
#128 = PLANE( '', #195 );
#129 = SURFACE_STYLE_USAGE( .BOTH., #196 );
#130 = FACE_OUTER_BOUND( '', #197, .T. );
#131 = CYLINDRICAL_SURFACE( '', #198, 0.0100000000000000 );
#132 = SURFACE_STYLE_USAGE( .BOTH., #199 );
#133 = FACE_OUTER_BOUND( '', #200, .T. );
#134 = CYLINDRICAL_SURFACE( '', #201, 2.00000000000000 );
#135 = SURFACE_STYLE_USAGE( .BOTH., #202 );
#136 = FACE_OUTER_BOUND( '', #203, .T. );
#137 = CYLINDRICAL_SURFACE( '', #204, 2.00000000000000 );
#138 = SURFACE_STYLE_USAGE( .BOTH., #205 );
#139 = FACE_OUTER_BOUND( '', #206, .T. );
#140 = CYLINDRICAL_SURFACE( '', #207, 3.00000000000000 );
#141 = SURFACE_STYLE_USAGE( .BOTH., #208 );
#142 = FACE_OUTER_BOUND( '', #209, .T. );
#143 = CYLINDRICAL_SURFACE( '', #210, 2.00000000000000 );
#144 = SURFACE_STYLE_USAGE( .BOTH., #211 );
#145 = FACE_OUTER_BOUND( '', #212, .T. );
#146 = PLANE( '', #213 );
#147 = SURFACE_STYLE_USAGE( .BOTH., #214 );
#148 = FACE_OUTER_BOUND( '', #215, .T. );
#149 = PLANE( '', #216 );
#150 = SURFACE_STYLE_USAGE( .BOTH., #217 );
#151 = FACE_OUTER_BOUND( '', #218, .T. );
#152 = FACE_OUTER_BOUND( '', #219, .T. );
#153 = CYLINDRICAL_SURFACE( '', #220, 2.62500000000000 );
#154 = SURFACE_STYLE_USAGE( .BOTH., #221 );
#155 = FACE_OUTER_BOUND( '', #222, .T. );
#156 = PLANE( '', #223 );
#157 = PRODUCT_CONTEXT( '', #29, 'mechanical' );
#158 = PRODUCT_DEFINITION_FORMATION_WITH_SPECIFIED_SOURCE( ' ', 'NONE', #80, .NOT_KNOWN. );
#159 = CLOSED_SHELL( '', ( #65, #67, #57, #43, #45, #55, #49, #69, #71, #73, #61, #59, #63, #75, #77, #79, #47, #51, #53 ) );
#160 = CARTESIAN_POINT( '', ( 0.000000000000000, 0.000000000000000, 0.000000000000000 ) );
#161 = DIRECTION( '', ( 0.000000000000000, 0.000000000000000, 1.00000000000000 ) );
#162 = DIRECTION( '', ( 1.00000000000000, 0.000000000000000, 0.000000000000000 ) );
#163 =  ( LENGTH_UNIT(  )NAMED_UNIT( #89 )SI_UNIT( .MILLI., .METRE. ) );
#164 = SURFACE_SIDE_STYLE( '', ( #225 ) );
#165 = EDGE_LOOP( '', ( #226, #227, #228, #229 ) );
#166 = AXIS2_PLACEMENT_3D( '', #230, #231, #232 );
#167 = SURFACE_SIDE_STYLE( '', ( #233 ) );
#168 = EDGE_LOOP( '', ( #234, #235, #236, #237, #238, #239, #240, #241, #242, #243 ) );
#169 = EDGE_LOOP( '', ( #244 ) );
#170 = AXIS2_PLACEMENT_3D( '', #245, #246, #247 );
#171 = SURFACE_SIDE_STYLE( '', ( #248 ) );
#172 = EDGE_LOOP( '', ( #249, #250, #251, #252, #253, #254 ) );
#173 = AXIS2_PLACEMENT_3D( '', #255, #256, #257 );
#174 = SURFACE_SIDE_STYLE( '', ( #258 ) );
#175 = EDGE_LOOP( '', ( #259, #260, #261, #262 ) );
#176 = AXIS2_PLACEMENT_3D( '', #263, #264, #265 );
#177 = SURFACE_SIDE_STYLE( '', ( #266 ) );
#178 = EDGE_LOOP( '', ( #267, #268, #269, #270 ) );
#179 = AXIS2_PLACEMENT_3D( '', #271, #272, #273 );
#180 = SURFACE_SIDE_STYLE( '', ( #274 ) );
#181 = EDGE_LOOP( '', ( #275, #276, #277, #278 ) );
#182 = AXIS2_PLACEMENT_3D( '', #279, #280, #281 );
#183 = SURFACE_SIDE_STYLE( '', ( #282 ) );
#184 = EDGE_LOOP( '', ( #283, #284, #285, #286 ) );
#185 = AXIS2_PLACEMENT_3D( '', #287, #288, #289 );
#186 = SURFACE_SIDE_STYLE( '', ( #290 ) );
#187 = EDGE_LOOP( '', ( #291, #292, #293, #294 ) );
#188 = AXIS2_PLACEMENT_3D( '', #295, #296, #297 );
#189 = SURFACE_SIDE_STYLE( '', ( #298 ) );
#190 = EDGE_LOOP( '', ( #299, #300, #301, #302, #303, #304, #305, #306, #307, #308 ) );
#191 = EDGE_LOOP( '', ( #309 ) );
#192 = AXIS2_PLACEMENT_3D( '', #310, #311, #312 );
#193 = SURFACE_SIDE_STYLE( '', ( #313 ) );
#194 = EDGE_LOOP( '', ( #314, #315, #316, #317, #318, #319, #320, #321 ) );
#195 = AXIS2_PLACEMENT_3D( '', #322, #323, #324 );
#196 = SURFACE_SIDE_STYLE( '', ( #325 ) );
#197 = EDGE_LOOP( '', ( #326, #327, #328, #329 ) );
#198 = AXIS2_PLACEMENT_3D( '', #330, #331, #332 );
#199 = SURFACE_SIDE_STYLE( '', ( #333 ) );
#200 = EDGE_LOOP( '', ( #334, #335, #336, #337 ) );
#201 = AXIS2_PLACEMENT_3D( '', #338, #339, #340 );
#202 = SURFACE_SIDE_STYLE( '', ( #341 ) );
#203 = EDGE_LOOP( '', ( #342, #343, #344, #345 ) );
#204 = AXIS2_PLACEMENT_3D( '', #346, #347, #348 );
#205 = SURFACE_SIDE_STYLE( '', ( #349 ) );
#206 = EDGE_LOOP( '', ( #350, #351, #352, #353 ) );
#207 = AXIS2_PLACEMENT_3D( '', #354, #355, #356 );
#208 = SURFACE_SIDE_STYLE( '', ( #357 ) );
#209 = EDGE_LOOP( '', ( #358, #359, #360, #361 ) );
#210 = AXIS2_PLACEMENT_3D( '', #362, #363, #364 );
#211 = SURFACE_SIDE_STYLE( '', ( #365 ) );
#212 = EDGE_LOOP( '', ( #366, #367, #368, #369 ) );
#213 = AXIS2_PLACEMENT_3D( '', #370, #371, #372 );
#214 = SURFACE_SIDE_STYLE( '', ( #373 ) );
#215 = EDGE_LOOP( '', ( #374, #375, #376, #377, #378, #379 ) );
#216 = AXIS2_PLACEMENT_3D( '', #380, #381, #382 );
#217 = SURFACE_SIDE_STYLE( '', ( #383 ) );
#218 = EDGE_LOOP( '', ( #384 ) );
#219 = EDGE_LOOP( '', ( #385 ) );
#220 = AXIS2_PLACEMENT_3D( '', #386, #387, #388 );
#221 = SURFACE_SIDE_STYLE( '', ( #389 ) );
#222 = EDGE_LOOP( '', ( #390, #391, #392, #393, #394, #395, #396, #397 ) );
#223 = AXIS2_PLACEMENT_3D( '', #398, #399, #400 );
#225 = SURFACE_STYLE_FILL_AREA( #401 );
#226 = ORIENTED_EDGE( '', *, *, #402, .T. );
#227 = ORIENTED_EDGE( '', *, *, #403, .T. );
#228 = ORIENTED_EDGE( '', *, *, #404, .F. );
#229 = ORIENTED_EDGE( '', *, *, #405, .T. );
#230 = CARTESIAN_POINT( '', ( -5.50000000000000, 6.00000000000000, -33.2500000000000 ) );
#231 = DIRECTION( '', ( -0.000000000000000, 1.00000000000000, 0.000000000000000 ) );
#232 = DIRECTION( '', ( 1.00000000000000, 0.000000000000000, 0.000000000000000 ) );
#233 = SURFACE_STYLE_FILL_AREA( #406 );
#234 = ORIENTED_EDGE( '', *, *, #404, .T. );
#235 = ORIENTED_EDGE( '', *, *, #407, .T. );
#236 = ORIENTED_EDGE( '', *, *, #408, .T. );
#237 = ORIENTED_EDGE( '', *, *, #409, .T. );
#238 = ORIENTED_EDGE( '', *, *, #410, .F. );
#239 = ORIENTED_EDGE( '', *, *, #411, .T. );
#240 = ORIENTED_EDGE( '', *, *, #412, .F. );
#241 = ORIENTED_EDGE( '', *, *, #413, .T. );
#242 = ORIENTED_EDGE( '', *, *, #414, .F. );
#243 = ORIENTED_EDGE( '', *, *, #415, .T. );
#244 = ORIENTED_EDGE( '', *, *, #416, .T. );
#245 = CARTESIAN_POINT( '', ( -5.50000000000000, 6.00000000000000, 33.2500000000000 ) );
#246 = DIRECTION( '', ( -1.00000000000000, 0.000000000000000, 0.000000000000000 ) );
#247 = DIRECTION( '', ( 0.000000000000000, 0.000000000000000, 1.00000000000000 ) );
#248 = SURFACE_STYLE_FILL_AREA( #417 );
#249 = ORIENTED_EDGE( '', *, *, #418, .F. );
#250 = ORIENTED_EDGE( '', *, *, #419, .T. );
#251 = ORIENTED_EDGE( '', *, *, #420, .T. );
#252 = ORIENTED_EDGE( '', *, *, #421, .T. );
#253 = ORIENTED_EDGE( '', *, *, #422, .F. );
#254 = ORIENTED_EDGE( '', *, *, #423, .F. );
#255 = CARTESIAN_POINT( '', ( -5.50000000000000, 6.00000000000000, -33.2500000000000 ) );
#256 = DIRECTION( '', ( 0.000000000000000, 0.000000000000000, -1.00000000000000 ) );
#257 = DIRECTION( '', ( -1.00000000000000, 0.000000000000000, 0.000000000000000 ) );
#258 = SURFACE_STYLE_FILL_AREA( #424 );
#259 = ORIENTED_EDGE( '', *, *, #425, .F. );
#260 = ORIENTED_EDGE( '', *, *, #405, .F. );
#261 = ORIENTED_EDGE( '', *, *, #415, .F. );
#262 = ORIENTED_EDGE( '', *, *, #426, .F. );
#263 = CARTESIAN_POINT( '', ( -5.50000000000000, 3.00000000000000, 30.2500000000000 ) );
#264 = DIRECTION( '', ( -1.00000000000000, -0.000000000000000, -0.000000000000000 ) );
#265 = DIRECTION( '', ( 0.000000000000000, 0.000000000000000, -1.00000000000000 ) );
#266 = SURFACE_STYLE_FILL_AREA( #427 );
#267 = ORIENTED_EDGE( '', *, *, #428, .F. );
#268 = ORIENTED_EDGE( '', *, *, #423, .T. );
#269 = ORIENTED_EDGE( '', *, *, #429, .F. );
#270 = ORIENTED_EDGE( '', *, *, #411, .F. );
#271 = CARTESIAN_POINT( '', ( -3.49000000000000, 6.00000000000000, -31.2400000000000 ) );
#272 = DIRECTION( '', ( -0.000000000000000, 1.00000000000000, -0.000000000000000 ) );
#273 = DIRECTION( '', ( 0.000000000000000, 0.000000000000000, -1.00000000000000 ) );
#274 = SURFACE_STYLE_FILL_AREA( #430 );
#275 = ORIENTED_EDGE( '', *, *, #408, .F. );
#276 = ORIENTED_EDGE( '', *, *, #431, .T. );
#277 = ORIENTED_EDGE( '', *, *, #432, .T. );
#278 = ORIENTED_EDGE( '', *, *, #433, .T. );
#279 = CARTESIAN_POINT( '', ( -6.50000000000000, 1.71450551880629E-015, 23.2500000000000 ) );
#280 = DIRECTION( '', ( 0.000000000000000, 0.000000000000000, -1.00000000000000 ) );
#281 = DIRECTION( '', ( -1.00000000000000, 0.000000000000000, 0.000000000000000 ) );
#282 = SURFACE_STYLE_FILL_AREA( #434 );
#283 = ORIENTED_EDGE( '', *, *, #435, .F. );
#284 = ORIENTED_EDGE( '', *, *, #426, .T. );
#285 = ORIENTED_EDGE( '', *, *, #414, .T. );
#286 = ORIENTED_EDGE( '', *, *, #436, .T. );
#287 = CARTESIAN_POINT( '', ( -5.50000000000000, 6.00000000000000, 33.2500000000000 ) );
#288 = DIRECTION( '', ( 0.000000000000000, 0.000000000000000, -1.00000000000000 ) );
#289 = DIRECTION( '', ( 0.000000000000000, -1.00000000000000, 0.000000000000000 ) );
#290 = SURFACE_STYLE_FILL_AREA( #437 );
#291 = ORIENTED_EDGE( '', *, *, #438, .F. );
#292 = ORIENTED_EDGE( '', *, *, #439, .F. );
#293 = ORIENTED_EDGE( '', *, *, #421, .F. );
#294 = ORIENTED_EDGE( '', *, *, #440, .F. );
#295 = CARTESIAN_POINT( '', ( 3.50000000000000, -4.00000000000000, -33.2500000000000 ) );
#296 = DIRECTION( '', ( -0.000000000000000, -0.000000000000000, -1.00000000000000 ) );
#297 = DIRECTION( '', ( 1.00000000000000, 0.000000000000000, 0.000000000000000 ) );
#298 = SURFACE_STYLE_FILL_AREA( #441 );
#299 = ORIENTED_EDGE( '', *, *, #432, .F. );
#300 = ORIENTED_EDGE( '', *, *, #442, .T. );
#301 = ORIENTED_EDGE( '', *, *, #402, .F. );
#302 = ORIENTED_EDGE( '', *, *, #425, .T. );
#303 = ORIENTED_EDGE( '', *, *, #435, .T. );
#304 = ORIENTED_EDGE( '', *, *, #443, .T. );
#305 = ORIENTED_EDGE( '', *, *, #444, .T. );
#306 = ORIENTED_EDGE( '', *, *, #445, .F. );
#307 = ORIENTED_EDGE( '', *, *, #446, .T. );
#308 = ORIENTED_EDGE( '', *, *, #447, .T. );
#309 = ORIENTED_EDGE( '', *, *, #448, .T. );
#310 = CARTESIAN_POINT( '', ( -3.50000000000000, 6.00000000000000, 33.2500000000000 ) );
#311 = DIRECTION( '', ( -1.00000000000000, 0.000000000000000, 0.000000000000000 ) );
#312 = DIRECTION( '', ( 0.000000000000000, 0.000000000000000, 1.00000000000000 ) );
#313 = SURFACE_STYLE_FILL_AREA( #449 );
#314 = ORIENTED_EDGE( '', *, *, #422, .T. );
#315 = ORIENTED_EDGE( '', *, *, #439, .T. );
#316 = ORIENTED_EDGE( '', *, *, #450, .F. );
#317 = ORIENTED_EDGE( '', *, *, #451, .F. );
#318 = ORIENTED_EDGE( '', *, *, #444, .F. );
#319 = ORIENTED_EDGE( '', *, *, #452, .T. );
#320 = ORIENTED_EDGE( '', *, *, #412, .T. );
#321 = ORIENTED_EDGE( '', *, *, #429, .T. );
#322 = CARTESIAN_POINT( '', ( -5.50000000000000, -6.00000000000000, 33.2500000000000 ) );
#323 = DIRECTION( '', ( 0.000000000000000, 1.00000000000000, 0.000000000000000 ) );
#324 = DIRECTION( '', ( 0.000000000000000, 0.000000000000000, -1.00000000000000 ) );
#325 = SURFACE_STYLE_FILL_AREA( #453 );
#326 = ORIENTED_EDGE( '', *, *, #454, .F. );
#327 = ORIENTED_EDGE( '', *, *, #455, .T. );
#328 = ORIENTED_EDGE( '', *, *, #445, .T. );
#329 = ORIENTED_EDGE( '', *, *, #451, .T. );
#330 = CARTESIAN_POINT( '', ( -3.49000000000000, 6.00000000000000, -31.2400000000000 ) );
#331 = DIRECTION( '', ( -0.000000000000000, 1.00000000000000, -0.000000000000000 ) );
#332 = DIRECTION( '', ( 0.000000000000000, 0.000000000000000, -1.00000000000000 ) );
#333 = SURFACE_STYLE_FILL_AREA( #456 );
#334 = ORIENTED_EDGE( '', *, *, #442, .F. );
#335 = ORIENTED_EDGE( '', *, *, #431, .F. );
#336 = ORIENTED_EDGE( '', *, *, #407, .F. );
#337 = ORIENTED_EDGE( '', *, *, #403, .F. );
#338 = CARTESIAN_POINT( '', ( -5.50000000000000, 4.00000000000000, 25.2500000000000 ) );
#339 = DIRECTION( '', ( 1.00000000000000, -0.000000000000000, -0.000000000000000 ) );
#340 = DIRECTION( '', ( 0.000000000000000, 0.000000000000000, 1.00000000000000 ) );
#341 = SURFACE_STYLE_FILL_AREA( #457 );
#342 = ORIENTED_EDGE( '', *, *, #447, .F. );
#343 = ORIENTED_EDGE( '', *, *, #458, .F. );
#344 = ORIENTED_EDGE( '', *, *, #409, .F. );
#345 = ORIENTED_EDGE( '', *, *, #433, .F. );
#346 = CARTESIAN_POINT( '', ( -6.50000000000000, 2.00000000000000, 21.2500000000000 ) );
#347 = DIRECTION( '', ( 1.00000000000000, -1.22464679914735E-016, -0.000000000000000 ) );
#348 = DIRECTION( '', ( -1.22464679914735E-016, -1.00000000000000, 0.000000000000000 ) );
#349 = SURFACE_STYLE_FILL_AREA( #459 );
#350 = ORIENTED_EDGE( '', *, *, #443, .F. );
#351 = ORIENTED_EDGE( '', *, *, #436, .F. );
#352 = ORIENTED_EDGE( '', *, *, #413, .F. );
#353 = ORIENTED_EDGE( '', *, *, #452, .F. );
#354 = CARTESIAN_POINT( '', ( -5.50000000000000, -3.00000000000000, 30.2500000000000 ) );
#355 = DIRECTION( '', ( 1.00000000000000, -0.000000000000000, -0.000000000000000 ) );
#356 = DIRECTION( '', ( 0.000000000000000, 0.000000000000000, 1.00000000000000 ) );
#357 = SURFACE_STYLE_FILL_AREA( #460 );
#358 = ORIENTED_EDGE( '', *, *, #461, .F. );
#359 = ORIENTED_EDGE( '', *, *, #462, .F. );
#360 = ORIENTED_EDGE( '', *, *, #419, .F. );
#361 = ORIENTED_EDGE( '', *, *, #463, .F. );
#362 = CARTESIAN_POINT( '', ( 3.50000000000000, -2.00000000000000, 23.2500000000000 ) );
#363 = DIRECTION( '', ( -0.000000000000000, -0.000000000000000, -1.00000000000000 ) );
#364 = DIRECTION( '', ( 1.00000000000000, 0.000000000000000, 0.000000000000000 ) );
#365 = SURFACE_STYLE_FILL_AREA( #464 );
#366 = ORIENTED_EDGE( '', *, *, #420, .F. );
#367 = ORIENTED_EDGE( '', *, *, #462, .T. );
#368 = ORIENTED_EDGE( '', *, *, #465, .T. );
#369 = ORIENTED_EDGE( '', *, *, #440, .T. );
#370 = CARTESIAN_POINT( '', ( 5.50000000000000, 6.00000000000000, -33.2500000000000 ) );
#371 = DIRECTION( '', ( 1.00000000000000, 0.000000000000000, 0.000000000000000 ) );
#372 = DIRECTION( '', ( 0.000000000000000, -1.00000000000000, 0.000000000000000 ) );
#373 = SURFACE_STYLE_FILL_AREA( #466 );
#374 = ORIENTED_EDGE( '', *, *, #465, .F. );
#375 = ORIENTED_EDGE( '', *, *, #461, .T. );
#376 = ORIENTED_EDGE( '', *, *, #467, .T. );
#377 = ORIENTED_EDGE( '', *, *, #454, .T. );
#378 = ORIENTED_EDGE( '', *, *, #450, .T. );
#379 = ORIENTED_EDGE( '', *, *, #438, .T. );
#380 = CARTESIAN_POINT( '', ( -5.50000000000000, 6.00000000000000, -31.2500000000000 ) );
#381 = DIRECTION( '', ( 0.000000000000000, 0.000000000000000, -1.00000000000000 ) );
#382 = DIRECTION( '', ( -1.00000000000000, 0.000000000000000, 0.000000000000000 ) );
#383 = SURFACE_STYLE_FILL_AREA( #468 );
#384 = ORIENTED_EDGE( '', *, *, #448, .F. );
#385 = ORIENTED_EDGE( '', *, *, #416, .F. );
#386 = CARTESIAN_POINT( '', ( -71.9634939219436, 1.83697019872103E-016, 28.2500000000000 ) );
#387 = DIRECTION( '', ( -1.00000000000000, -0.000000000000000, -0.000000000000000 ) );
#388 = DIRECTION( '', ( 0.000000000000000, 0.000000000000000, -1.00000000000000 ) );
#389 = SURFACE_STYLE_FILL_AREA( #469 );
#390 = ORIENTED_EDGE( '', *, *, #467, .F. );
#391 = ORIENTED_EDGE( '', *, *, #463, .T. );
#392 = ORIENTED_EDGE( '', *, *, #418, .T. );
#393 = ORIENTED_EDGE( '', *, *, #428, .T. );
#394 = ORIENTED_EDGE( '', *, *, #410, .T. );
#395 = ORIENTED_EDGE( '', *, *, #458, .T. );
#396 = ORIENTED_EDGE( '', *, *, #446, .F. );
#397 = ORIENTED_EDGE( '', *, *, #455, .F. );
#398 = CARTESIAN_POINT( '', ( 6.50000000000000, 1.22464679914737E-016, 23.2500000000000 ) );
#399 = DIRECTION( '', ( -1.22464679914735E-016, -1.00000000000000, 0.000000000000000 ) );
#400 = DIRECTION( '', ( 1.00000000000000, -1.22464679914735E-016, 0.000000000000000 ) );
#401 = FILL_AREA_STYLE( '', ( #470 ) );
#402 = EDGE_CURVE( '', #471, #472, #473, .F. );
#403 = EDGE_CURVE( '', #472, #474, #475, .T. );
#404 = EDGE_CURVE( '', #476, #474, #477, .T. );
#405 = EDGE_CURVE( '', #476, #471, #478, .T. );
#406 = FILL_AREA_STYLE( '', ( #479 ) );
#407 = EDGE_CURVE( '', #474, #480, #481, .T. );
#408 = EDGE_CURVE( '', #480, #482, #483, .T. );
#409 = EDGE_CURVE( '', #482, #484, #485, .F. );
#410 = EDGE_CURVE( '', #486, #484, #487, .T. );
#411 = EDGE_CURVE( '', #486, #488, #489, .T. );
#412 = EDGE_CURVE( '', #490, #488, #491, .T. );
#413 = EDGE_CURVE( '', #490, #492, #493, .T. );
#414 = EDGE_CURVE( '', #494, #492, #495, .T. );
#415 = EDGE_CURVE( '', #494, #476, #496, .T. );
#416 = EDGE_CURVE( '', #497, #497, #498, .F. );
#417 = FILL_AREA_STYLE( '', ( #499 ) );
#418 = EDGE_CURVE( '', #500, #501, #502, .T. );
#419 = EDGE_CURVE( '', #500, #503, #504, .T. );
#420 = EDGE_CURVE( '', #503, #505, #506, .T. );
#421 = EDGE_CURVE( '', #505, #507, #508, .T. );
#422 = EDGE_CURVE( '', #509, #507, #510, .T. );
#423 = EDGE_CURVE( '', #501, #509, #511, .T. );
#424 = FILL_AREA_STYLE( '', ( #512 ) );
#425 = EDGE_CURVE( '', #471, #513, #514, .F. );
#426 = EDGE_CURVE( '', #513, #494, #515, .T. );
#427 = FILL_AREA_STYLE( '', ( #516 ) );
#428 = EDGE_CURVE( '', #501, #486, #517, .F. );
#429 = EDGE_CURVE( '', #488, #509, #518, .F. );
#430 = FILL_AREA_STYLE( '', ( #519 ) );
#431 = EDGE_CURVE( '', #480, #520, #521, .F. );
#432 = EDGE_CURVE( '', #520, #522, #523, .T. );
#433 = EDGE_CURVE( '', #522, #482, #524, .T. );
#434 = FILL_AREA_STYLE( '', ( #525 ) );
#435 = EDGE_CURVE( '', #513, #526, #527, .F. );
#436 = EDGE_CURVE( '', #492, #526, #528, .T. );
#437 = FILL_AREA_STYLE( '', ( #529 ) );
#438 = EDGE_CURVE( '', #530, #531, #532, .F. );
#439 = EDGE_CURVE( '', #507, #530, #533, .F. );
#440 = EDGE_CURVE( '', #531, #505, #534, .F. );
#441 = FILL_AREA_STYLE( '', ( #535 ) );
#442 = EDGE_CURVE( '', #520, #472, #536, .F. );
#443 = EDGE_CURVE( '', #526, #537, #538, .F. );
#444 = EDGE_CURVE( '', #537, #539, #540, .F. );
#445 = EDGE_CURVE( '', #541, #539, #542, .F. );
#446 = EDGE_CURVE( '', #541, #543, #544, .T. );
#447 = EDGE_CURVE( '', #543, #522, #545, .T. );
#448 = EDGE_CURVE( '', #546, #546, #547, .T. );
#449 = FILL_AREA_STYLE( '', ( #548 ) );
#450 = EDGE_CURVE( '', #549, #530, #550, .F. );
#451 = EDGE_CURVE( '', #539, #549, #551, .T. );
#452 = EDGE_CURVE( '', #537, #490, #552, .F. );
#453 = FILL_AREA_STYLE( '', ( #553 ) );
#454 = EDGE_CURVE( '', #554, #549, #555, .T. );
#455 = EDGE_CURVE( '', #554, #541, #556, .F. );
#456 = FILL_AREA_STYLE( '', ( #557 ) );
#457 = FILL_AREA_STYLE( '', ( #558 ) );
#458 = EDGE_CURVE( '', #484, #543, #559, .F. );
#459 = FILL_AREA_STYLE( '', ( #560 ) );
#460 = FILL_AREA_STYLE( '', ( #561 ) );
#461 = EDGE_CURVE( '', #562, #563, #564, .F. );
#462 = EDGE_CURVE( '', #503, #562, #565, .F. );
#463 = EDGE_CURVE( '', #563, #500, #566, .T. );
#464 = FILL_AREA_STYLE( '', ( #567 ) );
#465 = EDGE_CURVE( '', #562, #531, #568, .F. );
#466 = FILL_AREA_STYLE( '', ( #569 ) );
#467 = EDGE_CURVE( '', #563, #554, #570, .T. );
#468 = FILL_AREA_STYLE( '', ( #571 ) );
#469 = FILL_AREA_STYLE( '', ( #572 ) );
#470 = FILL_AREA_STYLE_COLOUR( '', #573 );
#471 = VERTEX_POINT( '', #574 );
#472 = VERTEX_POINT( '', #575 );
#473 = LINE( '', #576, #577 );
#474 = VERTEX_POINT( '', #578 );
#475 = LINE( '', #579, #580 );
#476 = VERTEX_POINT( '', #581 );
#477 = LINE( '', #582, #583 );
#478 = LINE( '', #584, #585 );
#479 = FILL_AREA_STYLE_COLOUR( '', #586 );
#480 = VERTEX_POINT( '', #587 );
#481 = CIRCLE( '', #588, 2.00000000000000 );
#482 = VERTEX_POINT( '', #589 );
#483 = LINE( '', #590, #591 );
#484 = VERTEX_POINT( '', #592 );
#485 = CIRCLE( '', #593, 2.00000000000000 );
#486 = VERTEX_POINT( '', #594 );
#487 = LINE( '', #595, #596 );
#488 = VERTEX_POINT( '', #597 );
#489 = LINE( '', #598, #599 );
#490 = VERTEX_POINT( '', #600 );
#491 = LINE( '', #601, #602 );
#492 = VERTEX_POINT( '', #603 );
#493 = CIRCLE( '', #604, 3.00000000000000 );
#494 = VERTEX_POINT( '', #605 );
#495 = LINE( '', #606, #607 );
#496 = CIRCLE( '', #608, 3.00000000000000 );
#497 = VERTEX_POINT( '', #609 );
#498 = CIRCLE( '', #610, 2.62500000000000 );
#499 = FILL_AREA_STYLE_COLOUR( '', #611 );
#500 = VERTEX_POINT( '', #612 );
#501 = VERTEX_POINT( '', #613 );
#502 = LINE( '', #614, #615 );
#503 = VERTEX_POINT( '', #616 );
#504 = CIRCLE( '', #617, 2.00000000000000 );
#505 = VERTEX_POINT( '', #618 );
#506 = LINE( '', #619, #620 );
#507 = VERTEX_POINT( '', #621 );
#508 = CIRCLE( '', #622, 2.00000000000000 );
#509 = VERTEX_POINT( '', #623 );
#510 = LINE( '', #624, #625 );
#511 = LINE( '', #626, #627 );
#512 = FILL_AREA_STYLE_COLOUR( '', #628 );
#513 = VERTEX_POINT( '', #629 );
#514 = CIRCLE( '', #630, 3.00000000000000 );
#515 = LINE( '', #631, #632 );
#516 = FILL_AREA_STYLE_COLOUR( '', #633 );
#517 = CIRCLE( '', #634, 2.01000000000000 );
#518 = CIRCLE( '', #635, 2.01000000000000 );
#519 = FILL_AREA_STYLE_COLOUR( '', #636 );
#520 = VERTEX_POINT( '', #637 );
#521 = LINE( '', #638, #639 );
#522 = VERTEX_POINT( '', #640 );
#523 = LINE( '', #641, #642 );
#524 = LINE( '', #643, #644 );
#525 = FILL_AREA_STYLE_COLOUR( '', #645 );
#526 = VERTEX_POINT( '', #646 );
#527 = LINE( '', #647, #648 );
#528 = LINE( '', #649, #650 );
#529 = FILL_AREA_STYLE_COLOUR( '', #651 );
#530 = VERTEX_POINT( '', #652 );
#531 = VERTEX_POINT( '', #653 );
#532 = CIRCLE( '', #654, 2.00000000000000 );
#533 = LINE( '', #655, #656 );
#534 = LINE( '', #657, #658 );
#535 = FILL_AREA_STYLE_COLOUR( '', #659 );
#536 = CIRCLE( '', #660, 2.00000000000000 );
#537 = VERTEX_POINT( '', #661 );
#538 = CIRCLE( '', #662, 3.00000000000000 );
#539 = VERTEX_POINT( '', #663 );
#540 = LINE( '', #664, #665 );
#541 = VERTEX_POINT( '', #666 );
#542 = LINE( '', #667, #668 );
#543 = VERTEX_POINT( '', #669 );
#544 = LINE( '', #670, #671 );
#545 = CIRCLE( '', #672, 2.00000000000000 );
#546 = VERTEX_POINT( '', #673 );
#547 = CIRCLE( '', #674, 2.62500000000000 );
#548 = FILL_AREA_STYLE_COLOUR( '', #675 );
#549 = VERTEX_POINT( '', #676 );
#550 = LINE( '', #677, #678 );
#551 = CIRCLE( '', #679, 0.0100000000000000 );
#552 = LINE( '', #680, #681 );
#553 = FILL_AREA_STYLE_COLOUR( '', #682 );
#554 = VERTEX_POINT( '', #683 );
#555 = LINE( '', #684, #685 );
#556 = CIRCLE( '', #686, 0.0100000000000000 );
#557 = FILL_AREA_STYLE_COLOUR( '', #687 );
#558 = FILL_AREA_STYLE_COLOUR( '', #688 );
#559 = LINE( '', #689, #690 );
#560 = FILL_AREA_STYLE_COLOUR( '', #691 );
#561 = FILL_AREA_STYLE_COLOUR( '', #692 );
#562 = VERTEX_POINT( '', #693 );
#563 = VERTEX_POINT( '', #694 );
#564 = CIRCLE( '', #695, 2.00000000000000 );
#565 = LINE( '', #696, #697 );
#566 = LINE( '', #698, #699 );
#567 = FILL_AREA_STYLE_COLOUR( '', #700 );
#568 = LINE( '', #701, #702 );
#569 = FILL_AREA_STYLE_COLOUR( '', #703 );
#570 = LINE( '', #704, #705 );
#571 = FILL_AREA_STYLE_COLOUR( '', #706 );
#572 = FILL_AREA_STYLE_COLOUR( '', #707 );
#573 = COLOUR_RGB( '', 0.686274528503418, 0.768627464771271, 0.866666674613953 );
#574 = CARTESIAN_POINT( '', ( -3.50000000000000, 6.00000000000000, 30.2500000000000 ) );
#575 = CARTESIAN_POINT( '', ( -3.50000000000000, 6.00000000000000, 25.2500000000000 ) );
#576 = CARTESIAN_POINT( '', ( -3.50000000000000, 6.00000000000000, 33.2500000000000 ) );
#577 = VECTOR( '', #708, 1000.00000000000 );
#578 = CARTESIAN_POINT( '', ( -5.50000000000000, 6.00000000000000, 25.2500000000000 ) );
#579 = CARTESIAN_POINT( '', ( -5.50000000000000, 6.00000000000000, 25.2500000000000 ) );
#580 = VECTOR( '', #709, 1000.00000000000 );
#581 = CARTESIAN_POINT( '', ( -5.50000000000000, 6.00000000000000, 30.2500000000000 ) );
#582 = CARTESIAN_POINT( '', ( -5.50000000000000, 6.00000000000000, 33.2500000000000 ) );
#583 = VECTOR( '', #710, 1000.00000000000 );
#584 = CARTESIAN_POINT( '', ( -5.50000000000000, 6.00000000000000, 30.2500000000000 ) );
#585 = VECTOR( '', #711, 1000.00000000000 );
#586 = COLOUR_RGB( '', 0.686274528503418, 0.768627464771271, 0.866666674613953 );
#587 = CARTESIAN_POINT( '', ( -5.50000000000000, 4.00000000000000, 23.2500000000000 ) );
#588 = AXIS2_PLACEMENT_3D( '', #712, #713, #714 );
#589 = CARTESIAN_POINT( '', ( -5.50000000000000, 2.00000000000000, 23.2500000000000 ) );
#590 = CARTESIAN_POINT( '', ( -5.50000000000000, 6.00000000000000, 23.2500000000000 ) );
#591 = VECTOR( '', #715, 1000.00000000000 );
#592 = CARTESIAN_POINT( '', ( -5.50000000000000, 1.73472347597680E-015, 21.2500000000000 ) );
#593 = AXIS2_PLACEMENT_3D( '', #716, #717, #718 );
#594 = CARTESIAN_POINT( '', ( -5.50000000000000, 1.11351574461702E-015, -31.2400000000000 ) );
#595 = CARTESIAN_POINT( '', ( -5.50000000000000, 1.73472347597680E-015, 33.2500000000000 ) );
#596 = VECTOR( '', #719, 1000.00000000000 );
#597 = CARTESIAN_POINT( '', ( -5.50000000000000, -6.00000000000000, -31.2400000000000 ) );
#598 = CARTESIAN_POINT( '', ( -5.50000000000000, 6.00000000000000, -31.2400000000000 ) );
#599 = VECTOR( '', #720, 1000.00000000000 );
#600 = CARTESIAN_POINT( '', ( -5.50000000000000, -6.00000000000000, 30.2500000000000 ) );
#601 = CARTESIAN_POINT( '', ( -5.50000000000000, -6.00000000000000, 33.2500000000000 ) );
#602 = VECTOR( '', #721, 1000.00000000000 );
#603 = CARTESIAN_POINT( '', ( -5.50000000000000, -3.00000000000000, 33.2500000000000 ) );
#604 = AXIS2_PLACEMENT_3D( '', #722, #723, #724 );
#605 = CARTESIAN_POINT( '', ( -5.50000000000000, 3.00000000000000, 33.2500000000000 ) );
#606 = CARTESIAN_POINT( '', ( -5.50000000000000, 6.00000000000000, 33.2500000000000 ) );
#607 = VECTOR( '', #725, 1000.00000000000 );
#608 = AXIS2_PLACEMENT_3D( '', #726, #727, #728 );
#609 = CARTESIAN_POINT( '', ( -5.50000000000000, 1.83697019872103E-016, 30.8750000000000 ) );
#610 = AXIS2_PLACEMENT_3D( '', #729, #730, #731 );
#611 = COLOUR_RGB( '', 0.686274528503418, 0.768627464771271, 0.866666674613953 );
#612 = CARTESIAN_POINT( '', ( 3.50000000000000, 4.89858719658943E-016, -33.2500000000000 ) );
#613 = CARTESIAN_POINT( '', ( -3.49000000000000, 1.34588683226294E-015, -33.2500000000000 ) );
#614 = CARTESIAN_POINT( '', ( 6.50000000000000, 1.22464679914737E-016, -33.2500000000000 ) );
#615 = VECTOR( '', #732, 1000.00000000000 );
#616 = CARTESIAN_POINT( '', ( 5.50000000000000, -2.00000000000000, -33.2500000000000 ) );
#617 = AXIS2_PLACEMENT_3D( '', #733, #734, #735 );
#618 = CARTESIAN_POINT( '', ( 5.50000000000000, -4.00000000000000, -33.2500000000000 ) );
#619 = CARTESIAN_POINT( '', ( 5.50000000000000, 6.00000000000000, -33.2500000000000 ) );
#620 = VECTOR( '', #736, 1000.00000000000 );
#621 = CARTESIAN_POINT( '', ( 3.50000000000000, -6.00000000000000, -33.2500000000000 ) );
#622 = AXIS2_PLACEMENT_3D( '', #737, #738, #739 );
#623 = CARTESIAN_POINT( '', ( -3.49000000000000, -6.00000000000000, -33.2500000000000 ) );
#624 = CARTESIAN_POINT( '', ( -5.50000000000000, -6.00000000000000, -33.2500000000000 ) );
#625 = VECTOR( '', #740, 1000.00000000000 );
#626 = CARTESIAN_POINT( '', ( -3.49000000000000, 6.00000000000000, -33.2500000000000 ) );
#627 = VECTOR( '', #741, 1000.00000000000 );
#628 = COLOUR_RGB( '', 0.686274528503418, 0.768627464771271, 0.866666674613953 );
#629 = CARTESIAN_POINT( '', ( -3.50000000000000, 3.00000000000000, 33.2500000000000 ) );
#630 = AXIS2_PLACEMENT_3D( '', #742, #743, #744 );
#631 = CARTESIAN_POINT( '', ( -5.50000000000000, 3.00000000000000, 33.2500000000000 ) );
#632 = VECTOR( '', #745, 1000.00000000000 );
#633 = COLOUR_RGB( '', 0.686274528503418, 0.768627464771271, 0.866666674613953 );
#634 = AXIS2_PLACEMENT_3D( '', #746, #747, #748 );
#635 = AXIS2_PLACEMENT_3D( '', #749, #750, #751 );
#636 = COLOUR_RGB( '', 0.686274528503418, 0.768627464771271, 0.866666674613953 );
#637 = CARTESIAN_POINT( '', ( -3.50000000000000, 4.00000000000000, 23.2500000000000 ) );
#638 = CARTESIAN_POINT( '', ( -6.50000000000000, 4.00000000000000, 23.2500000000000 ) );
#639 = VECTOR( '', #752, 1000.00000000000 );
#640 = CARTESIAN_POINT( '', ( -3.50000000000000, 2.00000000000000, 23.2500000000000 ) );
#641 = CARTESIAN_POINT( '', ( -3.50000000000000, 6.00000000000000, 23.2500000000000 ) );
#642 = VECTOR( '', #753, 1000.00000000000 );
#643 = CARTESIAN_POINT( '', ( -6.50000000000000, 2.00000000000000, 23.2500000000000 ) );
#644 = VECTOR( '', #754, 1000.00000000000 );
#645 = COLOUR_RGB( '', 0.686274528503418, 0.768627464771271, 0.866666674613953 );
#646 = CARTESIAN_POINT( '', ( -3.50000000000000, -3.00000000000000, 33.2500000000000 ) );
#647 = CARTESIAN_POINT( '', ( -3.50000000000000, 6.00000000000000, 33.2500000000000 ) );
#648 = VECTOR( '', #755, 1000.00000000000 );
#649 = CARTESIAN_POINT( '', ( -5.50000000000000, -3.00000000000000, 33.2500000000000 ) );
#650 = VECTOR( '', #756, 1000.00000000000 );
#651 = COLOUR_RGB( '', 0.686274528503418, 0.768627464771271, 0.866666674613953 );
#652 = CARTESIAN_POINT( '', ( 3.50000000000000, -6.00000000000000, -31.2500000000000 ) );
#653 = CARTESIAN_POINT( '', ( 5.50000000000000, -4.00000000000000, -31.2500000000000 ) );
#654 = AXIS2_PLACEMENT_3D( '', #757, #758, #759 );
#655 = CARTESIAN_POINT( '', ( 3.50000000000000, -6.00000000000000, 33.2500000000000 ) );
#656 = VECTOR( '', #760, 1000.00000000000 );
#657 = CARTESIAN_POINT( '', ( 5.50000000000000, -4.00000000000000, -33.2500000000000 ) );
#658 = VECTOR( '', #761, 1000.00000000000 );
#659 = COLOUR_RGB( '', 0.686274528503418, 0.768627464771271, 0.866666674613953 );
#660 = AXIS2_PLACEMENT_3D( '', #762, #763, #764 );
#661 = CARTESIAN_POINT( '', ( -3.50000000000000, -6.00000000000000, 30.2500000000000 ) );
#662 = AXIS2_PLACEMENT_3D( '', #765, #766, #767 );
#663 = CARTESIAN_POINT( '', ( -3.50000000000000, -6.00000000000000, -31.2400000000000 ) );
#664 = CARTESIAN_POINT( '', ( -3.50000000000000, -6.00000000000000, 33.2500000000000 ) );
#665 = VECTOR( '', #768, 1000.00000000000 );
#666 = CARTESIAN_POINT( '', ( -3.50000000000000, 8.68586384787551E-016, -31.2400000000000 ) );
#667 = CARTESIAN_POINT( '', ( -3.50000000000000, 6.00000000000000, -31.2400000000000 ) );
#668 = VECTOR( '', #769, 1000.00000000000 );
#669 = CARTESIAN_POINT( '', ( -3.50000000000000, 8.67361737988404E-016, 21.2500000000000 ) );
#670 = CARTESIAN_POINT( '', ( -3.50000000000000, 8.67361737988404E-016, 33.2500000000000 ) );
#671 = VECTOR( '', #770, 1000.00000000000 );
#672 = AXIS2_PLACEMENT_3D( '', #771, #772, #773 );
#673 = CARTESIAN_POINT( '', ( -3.50000000000000, 1.83697019872103E-016, 25.6250000000000 ) );
#674 = AXIS2_PLACEMENT_3D( '', #774, #775, #776 );
#675 = COLOUR_RGB( '', 0.686274528503418, 0.768627464771271, 0.866666674613953 );
#676 = CARTESIAN_POINT( '', ( -3.49000000000000, -6.00000000000000, -31.2500000000000 ) );
#677 = CARTESIAN_POINT( '', ( -5.50000000000000, -6.00000000000000, -31.2500000000000 ) );
#678 = VECTOR( '', #777, 1000.00000000000 );
#679 = AXIS2_PLACEMENT_3D( '', #778, #779, #780 );
#680 = CARTESIAN_POINT( '', ( -5.50000000000000, -6.00000000000000, 30.2500000000000 ) );
#681 = VECTOR( '', #781, 1000.00000000000 );
#682 = COLOUR_RGB( '', 0.686274528503418, 0.768627464771271, 0.866666674613953 );
#683 = CARTESIAN_POINT( '', ( -3.49000000000000, 8.67361737988404E-016, -31.2500000000000 ) );
#684 = CARTESIAN_POINT( '', ( -3.49000000000000, 6.00000000000000, -31.2500000000000 ) );
#685 = VECTOR( '', #782, 1000.00000000000 );
#686 = AXIS2_PLACEMENT_3D( '', #783, #784, #785 );
#687 = COLOUR_RGB( '', 0.686274528503418, 0.768627464771271, 0.866666674613953 );
#688 = COLOUR_RGB( '', 0.686274528503418, 0.768627464771271, 0.866666674613953 );
#689 = CARTESIAN_POINT( '', ( 6.50000000000000, 1.22464679914737E-016, 21.2500000000000 ) );
#690 = VECTOR( '', #786, 1000.00000000000 );
#691 = COLOUR_RGB( '', 0.686274528503418, 0.768627464771271, 0.866666674613953 );
#692 = COLOUR_RGB( '', 0.686274528503418, 0.768627464771271, 0.866666674613953 );
#693 = CARTESIAN_POINT( '', ( 5.50000000000000, -2.00000000000000, -31.2500000000000 ) );
#694 = CARTESIAN_POINT( '', ( 3.50000000000000, 6.32541356744189E-016, -31.2500000000000 ) );
#695 = AXIS2_PLACEMENT_3D( '', #787, #788, #789 );
#696 = CARTESIAN_POINT( '', ( 5.50000000000000, -2.00000000000000, -31.2500000000000 ) );
#697 = VECTOR( '', #790, 1000.00000000000 );
#698 = CARTESIAN_POINT( '', ( 3.50000000000000, 4.89858719658943E-016, -33.2500000000000 ) );
#699 = VECTOR( '', #791, 1000.00000000000 );
#700 = COLOUR_RGB( '', 0.686274528503418, 0.768627464771271, 0.866666674613953 );
#701 = CARTESIAN_POINT( '', ( 5.50000000000000, 6.00000000000000, -31.2500000000000 ) );
#702 = VECTOR( '', #792, 1000.00000000000 );
#703 = COLOUR_RGB( '', 0.686274528503418, 0.768627464771271, 0.866666674613953 );
#704 = CARTESIAN_POINT( '', ( -5.50000000000000, 1.73472347597680E-015, -31.2500000000000 ) );
#705 = VECTOR( '', #793, 1000.00000000000 );
#706 = COLOUR_RGB( '', 0.686274528503418, 0.768627464771271, 0.866666674613953 );
#707 = COLOUR_RGB( '', 0.686274528503418, 0.768627464771271, 0.866666674613953 );
#708 = DIRECTION( '', ( 0.000000000000000, 0.000000000000000, 1.00000000000000 ) );
#709 = DIRECTION( '', ( -1.00000000000000, 0.000000000000000, 0.000000000000000 ) );
#710 = DIRECTION( '', ( 0.000000000000000, 0.000000000000000, -1.00000000000000 ) );
#711 = DIRECTION( '', ( 1.00000000000000, 0.000000000000000, 0.000000000000000 ) );
#712 = CARTESIAN_POINT( '', ( -5.50000000000000, 4.00000000000000, 25.2500000000000 ) );
#713 = DIRECTION( '', ( -1.00000000000000, 0.000000000000000, 0.000000000000000 ) );
#714 = DIRECTION( '', ( 0.000000000000000, 0.000000000000000, 1.00000000000000 ) );
#715 = DIRECTION( '', ( 0.000000000000000, -1.00000000000000, 0.000000000000000 ) );
#716 = CARTESIAN_POINT( '', ( -5.50000000000000, 2.00000000000000, 21.2500000000000 ) );
#717 = DIRECTION( '', ( -1.00000000000000, 0.000000000000000, 0.000000000000000 ) );
#718 = DIRECTION( '', ( 0.000000000000000, 0.000000000000000, 1.00000000000000 ) );
#719 = DIRECTION( '', ( 0.000000000000000, 0.000000000000000, 1.00000000000000 ) );
#720 = DIRECTION( '', ( 0.000000000000000, -1.00000000000000, 0.000000000000000 ) );
#721 = DIRECTION( '', ( 0.000000000000000, 0.000000000000000, -1.00000000000000 ) );
#722 = CARTESIAN_POINT( '', ( -5.50000000000000, -3.00000000000000, 30.2500000000000 ) );
#723 = DIRECTION( '', ( -1.00000000000000, 0.000000000000000, 0.000000000000000 ) );
#724 = DIRECTION( '', ( 0.000000000000000, 0.000000000000000, 1.00000000000000 ) );
#725 = DIRECTION( '', ( 0.000000000000000, -1.00000000000000, 0.000000000000000 ) );
#726 = CARTESIAN_POINT( '', ( -5.50000000000000, 3.00000000000000, 30.2500000000000 ) );
#727 = DIRECTION( '', ( -1.00000000000000, 0.000000000000000, 0.000000000000000 ) );
#728 = DIRECTION( '', ( 0.000000000000000, 0.000000000000000, 1.00000000000000 ) );
#729 = CARTESIAN_POINT( '', ( -5.50000000000000, 1.83697019872103E-016, 28.2500000000000 ) );
#730 = DIRECTION( '', ( -1.00000000000000, 0.000000000000000, 0.000000000000000 ) );
#731 = DIRECTION( '', ( 0.000000000000000, 0.000000000000000, 1.00000000000000 ) );
#732 = DIRECTION( '', ( -1.00000000000000, 1.22464679914735E-016, 0.000000000000000 ) );
#733 = CARTESIAN_POINT( '', ( 3.50000000000000, -2.00000000000000, -33.2500000000000 ) );
#734 = DIRECTION( '', ( 0.000000000000000, 0.000000000000000, -1.00000000000000 ) );
#735 = DIRECTION( '', ( -1.00000000000000, 0.000000000000000, 0.000000000000000 ) );
#736 = DIRECTION( '', ( 0.000000000000000, -1.00000000000000, 0.000000000000000 ) );
#737 = CARTESIAN_POINT( '', ( 3.50000000000000, -4.00000000000000, -33.2500000000000 ) );
#738 = DIRECTION( '', ( 0.000000000000000, 0.000000000000000, -1.00000000000000 ) );
#739 = DIRECTION( '', ( -1.00000000000000, 0.000000000000000, 0.000000000000000 ) );
#740 = DIRECTION( '', ( 1.00000000000000, 0.000000000000000, 0.000000000000000 ) );
#741 = DIRECTION( '', ( 0.000000000000000, -1.00000000000000, 0.000000000000000 ) );
#742 = CARTESIAN_POINT( '', ( -3.50000000000000, 3.00000000000000, 30.2500000000000 ) );
#743 = DIRECTION( '', ( -1.00000000000000, 0.000000000000000, 0.000000000000000 ) );
#744 = DIRECTION( '', ( 0.000000000000000, 0.000000000000000, 1.00000000000000 ) );
#745 = DIRECTION( '', ( -1.00000000000000, 0.000000000000000, 0.000000000000000 ) );
#746 = CARTESIAN_POINT( '', ( -3.49000000000000, 8.67361737988404E-016, -31.2400000000000 ) );
#747 = DIRECTION( '', ( -1.22464679914735E-016, -1.00000000000000, 0.000000000000000 ) );
#748 = DIRECTION( '', ( 1.00000000000000, -1.22464679914735E-016, 0.000000000000000 ) );
#749 = CARTESIAN_POINT( '', ( -3.49000000000000, -6.00000000000000, -31.2400000000000 ) );
#750 = DIRECTION( '', ( 0.000000000000000, 1.00000000000000, 0.000000000000000 ) );
#751 = DIRECTION( '', ( 0.000000000000000, 0.000000000000000, 1.00000000000000 ) );
#752 = DIRECTION( '', ( -1.00000000000000, 0.000000000000000, 0.000000000000000 ) );
#753 = DIRECTION( '', ( 0.000000000000000, -1.00000000000000, 0.000000000000000 ) );
#754 = DIRECTION( '', ( -1.00000000000000, 1.22464679914735E-016, 0.000000000000000 ) );
#755 = DIRECTION( '', ( 0.000000000000000, 1.00000000000000, 0.000000000000000 ) );
#756 = DIRECTION( '', ( 1.00000000000000, 0.000000000000000, 0.000000000000000 ) );
#757 = CARTESIAN_POINT( '', ( 3.50000000000000, -4.00000000000000, -31.2500000000000 ) );
#758 = DIRECTION( '', ( 0.000000000000000, 0.000000000000000, -1.00000000000000 ) );
#759 = DIRECTION( '', ( -1.00000000000000, 0.000000000000000, 0.000000000000000 ) );
#760 = DIRECTION( '', ( 0.000000000000000, 0.000000000000000, -1.00000000000000 ) );
#761 = DIRECTION( '', ( 0.000000000000000, 0.000000000000000, 1.00000000000000 ) );
#762 = CARTESIAN_POINT( '', ( -3.50000000000000, 4.00000000000000, 25.2500000000000 ) );
#763 = DIRECTION( '', ( -1.00000000000000, 0.000000000000000, 0.000000000000000 ) );
#764 = DIRECTION( '', ( 0.000000000000000, 0.000000000000000, 1.00000000000000 ) );
#765 = CARTESIAN_POINT( '', ( -3.50000000000000, -3.00000000000000, 30.2500000000000 ) );
#766 = DIRECTION( '', ( -1.00000000000000, 0.000000000000000, 0.000000000000000 ) );
#767 = DIRECTION( '', ( 0.000000000000000, 0.000000000000000, 1.00000000000000 ) );
#768 = DIRECTION( '', ( 0.000000000000000, 0.000000000000000, 1.00000000000000 ) );
#769 = DIRECTION( '', ( 0.000000000000000, 1.00000000000000, 0.000000000000000 ) );
#770 = DIRECTION( '', ( 0.000000000000000, 0.000000000000000, 1.00000000000000 ) );
#771 = CARTESIAN_POINT( '', ( -3.50000000000000, 2.00000000000000, 21.2500000000000 ) );
#772 = DIRECTION( '', ( -1.00000000000000, 0.000000000000000, 0.000000000000000 ) );
#773 = DIRECTION( '', ( 0.000000000000000, 0.000000000000000, 1.00000000000000 ) );
#774 = CARTESIAN_POINT( '', ( -3.50000000000000, 1.83697019872103E-016, 28.2500000000000 ) );
#775 = DIRECTION( '', ( -1.00000000000000, 0.000000000000000, 0.000000000000000 ) );
#776 = DIRECTION( '', ( 0.000000000000000, 0.000000000000000, -1.00000000000000 ) );
#777 = DIRECTION( '', ( -1.00000000000000, 0.000000000000000, 0.000000000000000 ) );
#778 = CARTESIAN_POINT( '', ( -3.49000000000000, -6.00000000000000, -31.2400000000000 ) );
#779 = DIRECTION( '', ( 0.000000000000000, -1.00000000000000, 0.000000000000000 ) );
#780 = DIRECTION( '', ( 0.000000000000000, 0.000000000000000, -1.00000000000000 ) );
#781 = DIRECTION( '', ( 1.00000000000000, 0.000000000000000, 0.000000000000000 ) );
#782 = DIRECTION( '', ( 0.000000000000000, -1.00000000000000, 0.000000000000000 ) );
#783 = CARTESIAN_POINT( '', ( -3.49000000000000, 8.67361737988404E-016, -31.2400000000000 ) );
#784 = DIRECTION( '', ( -1.22464679914735E-016, -1.00000000000000, 0.000000000000000 ) );
#785 = DIRECTION( '', ( 1.00000000000000, -1.22464679914735E-016, 0.000000000000000 ) );
#786 = DIRECTION( '', ( -1.00000000000000, 1.22464679914735E-016, 0.000000000000000 ) );
#787 = CARTESIAN_POINT( '', ( 3.50000000000000, -2.00000000000000, -31.2500000000000 ) );
#788 = DIRECTION( '', ( 0.000000000000000, 0.000000000000000, -1.00000000000000 ) );
#789 = DIRECTION( '', ( -1.00000000000000, 0.000000000000000, 0.000000000000000 ) );
#790 = DIRECTION( '', ( 0.000000000000000, 0.000000000000000, -1.00000000000000 ) );
#791 = DIRECTION( '', ( 0.000000000000000, 0.000000000000000, -1.00000000000000 ) );
#792 = DIRECTION( '', ( 0.000000000000000, 1.00000000000000, 0.000000000000000 ) );
#793 = DIRECTION( '', ( -1.00000000000000, 1.22464679914735E-016, 0.000000000000000 ) );
ENDSEC;
END-ISO-10303-21;
