ISO-10303-21;
HEADER;
/* Generated by software containing ST-Developer
 * from STEP Tools, Inc. (www.steptools.com) 
 */

FILE_DESCRIPTION(
/* description */ ('Winkel03'),
/* implementation_level */ '2;1');

FILE_NAME(
/* name */ 
'P:\\st-gallen\\9_Technik\\_PROJEKT\\abgeschlossen\\BMW\\assg1226 - Mi
racle Tray (B3x-B4x)\\9. CAD-Daten\\9.2. Auftrags-Daten\\B4x\\Inlet B4
x\\2013 08 22 - Inlet B4x - FT02\\AIP\\Step Winkel\\ass120728_B4x_Wink
el03-04.stp',
/* time_stamp */ '2014-07-03T10:15:06+02:00',
/* author */ ('atralglae'),
/* organization */ ('BMW'),
/* preprocessor_version */ 'ST-DEVELOPER v15.2',
/* originating_system */ 'Autodesk Inventor 2014',
/* authorisation */ '');

FILE_SCHEMA (('AUTOMOTIVE_DESIGN { 1 0 10303 214 3 1 1 }'));
ENDSEC;

DATA;
#10=SHAPE_REPRESENTATION_RELATIONSHIP('SRR','None',#2129,#11);
#11=ADVANCED_BREP_SHAPE_REPRESENTATION($,(#1274),#2120);
#12=FACE_BOUND($,#140,.T.);
#13=FACE_BOUND($,#142,.T.);
#14=FACE_BOUND($,#143,.T.);
#15=FACE_BOUND($,#146,.T.);
#16=FACE_BOUND($,#147,.T.);
#17=FACE_BOUND($,#151,.T.);
#18=FACE_BOUND($,#152,.T.);
#19=FACE_BOUND($,#165,.T.);
#20=FACE_BOUND($,#167,.T.);
#21=FACE_BOUND($,#170,.T.);
#22=FACE_BOUND($,#171,.T.);
#23=FACE_BOUND($,#187,.T.);
#24=CYLINDRICAL_SURFACE($,#1283,5.);
#25=CYLINDRICAL_SURFACE($,#1289,6.2);
#26=CYLINDRICAL_SURFACE($,#1300,5.);
#27=CYLINDRICAL_SURFACE($,#1316,3.2);
#28=CYLINDRICAL_SURFACE($,#1318,3.2);
#29=CYLINDRICAL_SURFACE($,#1320,10.);
#30=CYLINDRICAL_SURFACE($,#1322,10.);
#31=CYLINDRICAL_SURFACE($,#1330,3.2);
#32=CYLINDRICAL_SURFACE($,#1331,3.2);
#33=CYLINDRICAL_SURFACE($,#1333,3.2);
#34=CYLINDRICAL_SURFACE($,#1334,5.);
#35=CYLINDRICAL_SURFACE($,#1340,2.5);
#36=CYLINDRICAL_SURFACE($,#1347,3.2);
#37=CYLINDRICAL_SURFACE($,#1354,5.);
#38=CYLINDRICAL_SURFACE($,#1360,5.);
#39=CYLINDRICAL_SURFACE($,#1363,6.2);
#40=CYLINDRICAL_SURFACE($,#1364,10.);
#41=CYLINDRICAL_SURFACE($,#1365,10.);
#42=CYLINDRICAL_SURFACE($,#1370,5.);
#43=CYLINDRICAL_SURFACE($,#1371,5.);
#44=CYLINDRICAL_SURFACE($,#1373,5.);
#45=CYLINDRICAL_SURFACE($,#1375,2.5);
#46=CYLINDRICAL_SURFACE($,#1377,2.5);
#47=CYLINDRICAL_SURFACE($,#1379,3.2);
#48=CYLINDRICAL_SURFACE($,#1381,6.2);
#49=CYLINDRICAL_SURFACE($,#1384,3.2);
#50=CYLINDRICAL_SURFACE($,#1386,6.2);
#51=CYLINDRICAL_SURFACE($,#1389,6.2);
#52=CYLINDRICAL_SURFACE($,#1390,6.2);
#53=CYLINDRICAL_SURFACE($,#1394,6.2);
#54=CYLINDRICAL_SURFACE($,#1395,6.2);
#55=CYLINDRICAL_SURFACE($,#1399,2.5);
#56=FACE_OUTER_BOUND($,#116,.T.);
#57=FACE_OUTER_BOUND($,#117,.T.);
#58=FACE_OUTER_BOUND($,#118,.T.);
#59=FACE_OUTER_BOUND($,#119,.T.);
#60=FACE_OUTER_BOUND($,#120,.T.);
#61=FACE_OUTER_BOUND($,#121,.T.);
#62=FACE_OUTER_BOUND($,#122,.T.);
#63=FACE_OUTER_BOUND($,#123,.T.);
#64=FACE_OUTER_BOUND($,#124,.T.);
#65=FACE_OUTER_BOUND($,#125,.T.);
#66=FACE_OUTER_BOUND($,#126,.T.);
#67=FACE_OUTER_BOUND($,#127,.T.);
#68=FACE_OUTER_BOUND($,#128,.T.);
#69=FACE_OUTER_BOUND($,#129,.T.);
#70=FACE_OUTER_BOUND($,#130,.T.);
#71=FACE_OUTER_BOUND($,#131,.T.);
#72=FACE_OUTER_BOUND($,#132,.T.);
#73=FACE_OUTER_BOUND($,#133,.T.);
#74=FACE_OUTER_BOUND($,#134,.T.);
#75=FACE_OUTER_BOUND($,#135,.T.);
#76=FACE_OUTER_BOUND($,#136,.T.);
#77=FACE_OUTER_BOUND($,#137,.T.);
#78=FACE_OUTER_BOUND($,#138,.T.);
#79=FACE_OUTER_BOUND($,#139,.T.);
#80=FACE_OUTER_BOUND($,#141,.T.);
#81=FACE_OUTER_BOUND($,#144,.T.);
#82=FACE_OUTER_BOUND($,#145,.T.);
#83=FACE_OUTER_BOUND($,#148,.T.);
#84=FACE_OUTER_BOUND($,#149,.T.);
#85=FACE_OUTER_BOUND($,#150,.T.);
#86=FACE_OUTER_BOUND($,#153,.T.);
#87=FACE_OUTER_BOUND($,#154,.T.);
#88=FACE_OUTER_BOUND($,#155,.T.);
#89=FACE_OUTER_BOUND($,#156,.T.);
#90=FACE_OUTER_BOUND($,#157,.T.);
#91=FACE_OUTER_BOUND($,#158,.T.);
#92=FACE_OUTER_BOUND($,#159,.T.);
#93=FACE_OUTER_BOUND($,#160,.T.);
#94=FACE_OUTER_BOUND($,#161,.T.);
#95=FACE_OUTER_BOUND($,#162,.T.);
#96=FACE_OUTER_BOUND($,#163,.T.);
#97=FACE_OUTER_BOUND($,#164,.T.);
#98=FACE_OUTER_BOUND($,#166,.T.);
#99=FACE_OUTER_BOUND($,#168,.T.);
#100=FACE_OUTER_BOUND($,#169,.T.);
#101=FACE_OUTER_BOUND($,#172,.T.);
#102=FACE_OUTER_BOUND($,#173,.T.);
#103=FACE_OUTER_BOUND($,#174,.T.);
#104=FACE_OUTER_BOUND($,#175,.T.);
#105=FACE_OUTER_BOUND($,#176,.T.);
#106=FACE_OUTER_BOUND($,#177,.T.);
#107=FACE_OUTER_BOUND($,#178,.T.);
#108=FACE_OUTER_BOUND($,#179,.T.);
#109=FACE_OUTER_BOUND($,#180,.T.);
#110=FACE_OUTER_BOUND($,#181,.T.);
#111=FACE_OUTER_BOUND($,#182,.T.);
#112=FACE_OUTER_BOUND($,#183,.T.);
#113=FACE_OUTER_BOUND($,#184,.T.);
#114=FACE_OUTER_BOUND($,#185,.T.);
#115=FACE_OUTER_BOUND($,#186,.T.);
#116=EDGE_LOOP($,(#772,#773,#774,#775,#776,#777,#778,#779,#780,#781,#782,
#783,#784,#785,#786,#787));
#117=EDGE_LOOP($,(#788,#789,#790,#791));
#118=EDGE_LOOP($,(#792,#793,#794,#795,#796,#797,#798,#799));
#119=EDGE_LOOP($,(#800,#801,#802,#803));
#120=EDGE_LOOP($,(#804,#805,#806,#807,#808,#809,#810,#811,#812,#813,#814,
#815,#816,#817));
#121=EDGE_LOOP($,(#818,#819,#820,#821,#822,#823,#824,#825,#826,#827,#828,
#829,#830,#831));
#122=EDGE_LOOP($,(#832,#833,#834,#835));
#123=EDGE_LOOP($,(#836,#837,#838,#839,#840,#841,#842,#843,#844,#845,#846,
#847,#848,#849));
#124=EDGE_LOOP($,(#850,#851,#852,#853,#854,#855,#856,#857));
#125=EDGE_LOOP($,(#858,#859,#860,#861,#862,#863,#864,#865,#866,#867,#868,
#869,#870,#871,#872,#873));
#126=EDGE_LOOP($,(#874,#875,#876,#877));
#127=EDGE_LOOP($,(#878,#879,#880,#881));
#128=EDGE_LOOP($,(#882,#883,#884,#885));
#129=EDGE_LOOP($,(#886,#887,#888,#889));
#130=EDGE_LOOP($,(#890,#891,#892,#893));
#131=EDGE_LOOP($,(#894,#895,#896,#897));
#132=EDGE_LOOP($,(#898,#899,#900,#901,#902,#903,#904,#905,#906,#907,#908,
#909,#910,#911,#912,#913));
#133=EDGE_LOOP($,(#914,#915,#916,#917));
#134=EDGE_LOOP($,(#918,#919,#920,#921));
#135=EDGE_LOOP($,(#922,#923,#924,#925));
#136=EDGE_LOOP($,(#926,#927,#928,#929));
#137=EDGE_LOOP($,(#930,#931,#932,#933));
#138=EDGE_LOOP($,(#934,#935,#936,#937,#938,#939,#940,#941,#942,#943,#944,
#945,#946,#947));
#139=EDGE_LOOP($,(#948));
#140=EDGE_LOOP($,(#949));
#141=EDGE_LOOP($,(#950,#951,#952,#953,#954,#955));
#142=EDGE_LOOP($,(#956));
#143=EDGE_LOOP($,(#957));
#144=EDGE_LOOP($,(#958,#959,#960,#961));
#145=EDGE_LOOP($,(#962,#963,#964,#965,#966,#967));
#146=EDGE_LOOP($,(#968));
#147=EDGE_LOOP($,(#969));
#148=EDGE_LOOP($,(#970,#971,#972,#973));
#149=EDGE_LOOP($,(#974,#975,#976,#977,#978,#979,#980,#981));
#150=EDGE_LOOP($,(#982,#983,#984,#985,#986,#987));
#151=EDGE_LOOP($,(#988));
#152=EDGE_LOOP($,(#989));
#153=EDGE_LOOP($,(#990,#991,#992,#993));
#154=EDGE_LOOP($,(#994,#995,#996,#997));
#155=EDGE_LOOP($,(#998,#999,#1000,#1001));
#156=EDGE_LOOP($,(#1002,#1003,#1004,#1005));
#157=EDGE_LOOP($,(#1006,#1007,#1008,#1009));
#158=EDGE_LOOP($,(#1010,#1011,#1012,#1013));
#159=EDGE_LOOP($,(#1014,#1015,#1016,#1017));
#160=EDGE_LOOP($,(#1018,#1019,#1020,#1021,#1022,#1023,#1024,#1025));
#161=EDGE_LOOP($,(#1026,#1027,#1028,#1029));
#162=EDGE_LOOP($,(#1030,#1031,#1032,#1033));
#163=EDGE_LOOP($,(#1034,#1035,#1036,#1037));
#164=EDGE_LOOP($,(#1038));
#165=EDGE_LOOP($,(#1039));
#166=EDGE_LOOP($,(#1040));
#167=EDGE_LOOP($,(#1041));
#168=EDGE_LOOP($,(#1042,#1043,#1044,#1045));
#169=EDGE_LOOP($,(#1046,#1047,#1048,#1049,#1050,#1051));
#170=EDGE_LOOP($,(#1052));
#171=EDGE_LOOP($,(#1053));
#172=EDGE_LOOP($,(#1054,#1055,#1056,#1057));
#173=EDGE_LOOP($,(#1058,#1059,#1060,#1061));
#174=EDGE_LOOP($,(#1062,#1063,#1064,#1065));
#175=EDGE_LOOP($,(#1066,#1067,#1068,#1069));
#176=EDGE_LOOP($,(#1070,#1071,#1072,#1073));
#177=EDGE_LOOP($,(#1074,#1075,#1076,#1077));
#178=EDGE_LOOP($,(#1078,#1079,#1080,#1081));
#179=EDGE_LOOP($,(#1082,#1083,#1084,#1085));
#180=EDGE_LOOP($,(#1086,#1087,#1088,#1089));
#181=EDGE_LOOP($,(#1090,#1091,#1092,#1093));
#182=EDGE_LOOP($,(#1094,#1095,#1096,#1097));
#183=EDGE_LOOP($,(#1098,#1099,#1100,#1101));
#184=EDGE_LOOP($,(#1102,#1103,#1104,#1105));
#185=EDGE_LOOP($,(#1106,#1107,#1108,#1109,#1110,#1111,#1112,#1113,#1114,
#1115,#1116,#1117,#1118,#1119,#1120,#1121));
#186=EDGE_LOOP($,(#1122));
#187=EDGE_LOOP($,(#1123));
#188=CIRCLE($,#1277,3.2);
#189=CIRCLE($,#1278,3.2);
#190=CIRCLE($,#1279,3.2);
#191=CIRCLE($,#1280,6.2);
#192=CIRCLE($,#1281,6.2);
#193=CIRCLE($,#1282,6.2);
#194=CIRCLE($,#1284,5.);
#195=CIRCLE($,#1285,5.);
#196=CIRCLE($,#1287,3.2);
#197=CIRCLE($,#1288,6.2);
#198=CIRCLE($,#1290,6.2);
#199=CIRCLE($,#1292,5.);
#200=CIRCLE($,#1293,10.);
#201=CIRCLE($,#1294,10.);
#202=CIRCLE($,#1295,5.);
#203=CIRCLE($,#1297,5.);
#204=CIRCLE($,#1298,10.);
#205=CIRCLE($,#1299,10.);
#206=CIRCLE($,#1301,5.);
#207=CIRCLE($,#1303,10.);
#208=CIRCLE($,#1304,10.);
#209=CIRCLE($,#1306,6.2);
#210=CIRCLE($,#1307,3.2);
#211=CIRCLE($,#1309,6.2);
#212=CIRCLE($,#1310,6.2);
#213=CIRCLE($,#1311,6.2);
#214=CIRCLE($,#1312,3.2);
#215=CIRCLE($,#1313,3.2);
#216=CIRCLE($,#1314,3.2);
#217=CIRCLE($,#1317,3.2);
#218=CIRCLE($,#1319,3.2);
#219=CIRCLE($,#1324,3.2);
#220=CIRCLE($,#1325,3.2);
#221=CIRCLE($,#1326,3.2);
#222=CIRCLE($,#1327,6.2);
#223=CIRCLE($,#1328,6.2);
#224=CIRCLE($,#1329,6.2);
#225=CIRCLE($,#1335,5.);
#226=CIRCLE($,#1337,5.);
#227=CIRCLE($,#1338,10.);
#228=CIRCLE($,#1339,10.);
#229=CIRCLE($,#1341,2.5);
#230=CIRCLE($,#1342,2.5);
#231=CIRCLE($,#1344,5.);
#232=CIRCLE($,#1345,5.);
#233=CIRCLE($,#1346,2.5);
#234=CIRCLE($,#1348,3.2);
#235=CIRCLE($,#1350,5.);
#236=CIRCLE($,#1351,5.);
#237=CIRCLE($,#1352,2.5);
#238=CIRCLE($,#1353,2.5);
#239=CIRCLE($,#1355,5.);
#240=CIRCLE($,#1358,5.);
#241=CIRCLE($,#1359,2.5);
#242=CIRCLE($,#1368,3.2);
#243=CIRCLE($,#1369,6.2);
#244=CIRCLE($,#1372,5.);
#245=CIRCLE($,#1374,5.);
#246=CIRCLE($,#1376,2.5);
#247=CIRCLE($,#1378,2.5);
#248=CIRCLE($,#1385,3.2);
#249=CIRCLE($,#1387,6.2);
#250=CIRCLE($,#1391,6.2);
#251=CIRCLE($,#1396,6.2);
#252=LINE($,#1766,#364);
#253=LINE($,#1768,#365);
#254=LINE($,#1770,#366);
#255=LINE($,#1774,#367);
#256=LINE($,#1778,#368);
#257=LINE($,#1782,#369);
#258=LINE($,#1784,#370);
#259=LINE($,#1786,#371);
#260=LINE($,#1790,#372);
#261=LINE($,#1794,#373);
#262=LINE($,#1801,#374);
#263=LINE($,#1804,#375);
#264=LINE($,#1808,#376);
#265=LINE($,#1810,#377);
#266=LINE($,#1812,#378);
#267=LINE($,#1816,#379);
#268=LINE($,#1818,#380);
#269=LINE($,#1820,#381);
#270=LINE($,#1824,#382);
#271=LINE($,#1826,#383);
#272=LINE($,#1831,#384);
#273=LINE($,#1833,#385);
#274=LINE($,#1837,#386);
#275=LINE($,#1841,#387);
#276=LINE($,#1843,#388);
#277=LINE($,#1845,#389);
#278=LINE($,#1848,#390);
#279=LINE($,#1852,#391);
#280=LINE($,#1855,#392);
#281=LINE($,#1857,#393);
#282=LINE($,#1861,#394);
#283=LINE($,#1865,#395);
#284=LINE($,#1867,#396);
#285=LINE($,#1868,#397);
#286=LINE($,#1870,#398);
#287=LINE($,#1871,#399);
#288=LINE($,#1874,#400);
#289=LINE($,#1878,#401);
#290=LINE($,#1880,#402);
#291=LINE($,#1881,#403);
#292=LINE($,#1883,#404);
#293=LINE($,#1885,#405);
#294=LINE($,#1887,#406);
#295=LINE($,#1891,#407);
#296=LINE($,#1895,#408);
#297=LINE($,#1896,#409);
#298=LINE($,#1900,#410);
#299=LINE($,#1902,#411);
#300=LINE($,#1904,#412);
#301=LINE($,#1911,#413);
#302=LINE($,#1915,#414);
#303=LINE($,#1919,#415);
#304=LINE($,#1920,#416);
#305=LINE($,#1924,#417);
#306=LINE($,#1928,#418);
#307=LINE($,#1932,#419);
#308=LINE($,#1934,#420);
#309=LINE($,#1935,#421);
#310=LINE($,#1939,#422);
#311=LINE($,#1942,#423);
#312=LINE($,#1945,#424);
#313=LINE($,#1946,#425);
#314=LINE($,#1948,#426);
#315=LINE($,#1950,#427);
#316=LINE($,#1954,#428);
#317=LINE($,#1955,#429);
#318=LINE($,#1959,#430);
#319=LINE($,#1963,#431);
#320=LINE($,#1968,#432);
#321=LINE($,#1972,#433);
#322=LINE($,#1975,#434);
#323=LINE($,#1977,#435);
#324=LINE($,#1978,#436);
#325=LINE($,#1980,#437);
#326=LINE($,#1986,#438);
#327=LINE($,#1988,#439);
#328=LINE($,#1991,#440);
#329=LINE($,#1993,#441);
#330=LINE($,#1997,#442);
#331=LINE($,#1999,#443);
#332=LINE($,#2008,#444);
#333=LINE($,#2012,#445);
#334=LINE($,#2013,#446);
#335=LINE($,#2022,#447);
#336=LINE($,#2026,#448);
#337=LINE($,#2027,#449);
#338=LINE($,#2035,#450);
#339=LINE($,#2038,#451);
#340=LINE($,#2040,#452);
#341=LINE($,#2041,#453);
#342=LINE($,#2044,#454);
#343=LINE($,#2049,#455);
#344=LINE($,#2054,#456);
#345=LINE($,#2055,#457);
#346=LINE($,#2056,#458);
#347=LINE($,#2058,#459);
#348=LINE($,#2060,#460);
#349=LINE($,#2061,#461);
#350=LINE($,#2063,#462);
#351=LINE($,#2067,#463);
#352=LINE($,#2069,#464);
#353=LINE($,#2084,#465);
#354=LINE($,#2088,#466);
#355=LINE($,#2095,#467);
#356=LINE($,#2098,#468);
#357=LINE($,#2099,#469);
#358=LINE($,#2101,#470);
#359=LINE($,#2105,#471);
#360=LINE($,#2107,#472);
#361=LINE($,#2110,#473);
#362=LINE($,#2111,#474);
#363=LINE($,#2113,#475);
#364=VECTOR($,#1404,85.4984949345059);
#365=VECTOR($,#1405,2.99999999999998);
#366=VECTOR($,#1406,85.4984949345058);
#367=VECTOR($,#1409,22.4420271342106);
#368=VECTOR($,#1412,22.4420271342107);
#369=VECTOR($,#1415,85.4984949345058);
#370=VECTOR($,#1416,2.99999999999989);
#371=VECTOR($,#1417,85.4984949345058);
#372=VECTOR($,#1420,22.4420271342106);
#373=VECTOR($,#1423,22.4420271342106);
#374=VECTOR($,#1430,2.99999999999998);
#375=VECTOR($,#1433,3.00000000000002);
#376=VECTOR($,#1436,13.9324093137965);
#377=VECTOR($,#1437,3.);
#378=VECTOR($,#1438,13.9324093137965);
#379=VECTOR($,#1441,0.0541065803027073);
#380=VECTOR($,#1442,2.99999999999998);
#381=VECTOR($,#1443,0.0541065803027075);
#382=VECTOR($,#1448,50.);
#383=VECTOR($,#1449,50.);
#384=VECTOR($,#1456,15.);
#385=VECTOR($,#1457,36.7230077045828);
#386=VECTOR($,#1460,10.);
#387=VECTOR($,#1463,36.7230077045828);
#388=VECTOR($,#1464,15.);
#389=VECTOR($,#1465,85.4984949345058);
#390=VECTOR($,#1468,0.0541065803027083);
#391=VECTOR($,#1471,0.0541065803026766);
#392=VECTOR($,#1474,15.);
#393=VECTOR($,#1475,36.7230077045828);
#394=VECTOR($,#1478,10.);
#395=VECTOR($,#1481,36.7230077045828);
#396=VECTOR($,#1482,15.);
#397=VECTOR($,#1483,85.4984949345059);
#398=VECTOR($,#1484,0.0541065803027163);
#399=VECTOR($,#1485,50.);
#400=VECTOR($,#1488,3.00000000000002);
#401=VECTOR($,#1493,0.0541065803027155);
#402=VECTOR($,#1494,50.);
#403=VECTOR($,#1495,0.0541065803027155);
#404=VECTOR($,#1496,85.4984949345058);
#405=VECTOR($,#1497,15.);
#406=VECTOR($,#1498,36.7230077045828);
#407=VECTOR($,#1501,10.);
#408=VECTOR($,#1504,36.7230077045828);
#409=VECTOR($,#1505,15.);
#410=VECTOR($,#1508,13.9324093137965);
#411=VECTOR($,#1509,3.);
#412=VECTOR($,#1510,13.9324093137965);
#413=VECTOR($,#1519,22.4420271342106);
#414=VECTOR($,#1522,22.4420271342106);
#415=VECTOR($,#1525,85.4984949345058);
#416=VECTOR($,#1526,2.99999999999989);
#417=VECTOR($,#1529,22.4420271342107);
#418=VECTOR($,#1532,22.4420271342106);
#419=VECTOR($,#1537,15.);
#420=VECTOR($,#1538,22.4420271342107);
#421=VECTOR($,#1539,15.);
#422=VECTOR($,#1544,15.);
#423=VECTOR($,#1547,15.);
#424=VECTOR($,#1552,2.99999999999999);
#425=VECTOR($,#1553,2.99999999999999);
#426=VECTOR($,#1556,2.99999999999999);
#427=VECTOR($,#1559,2.99999999999999);
#428=VECTOR($,#1562,36.7230077045827);
#429=VECTOR($,#1563,2.99999999999998);
#430=VECTOR($,#1566,22.4420271342107);
#431=VECTOR($,#1569,22.4420271342106);
#432=VECTOR($,#1574,22.4420271342106);
#433=VECTOR($,#1577,22.4420271342106);
#434=VECTOR($,#1582,15.);
#435=VECTOR($,#1585,15.);
#436=VECTOR($,#1586,15.);
#437=VECTOR($,#1589,15.);
#438=VECTOR($,#1598,50.);
#439=VECTOR($,#1599,0.0541065803027075);
#440=VECTOR($,#1602,15.);
#441=VECTOR($,#1603,36.7230077045828);
#442=VECTOR($,#1606,10.);
#443=VECTOR($,#1609,15.);
#444=VECTOR($,#1618,40.);
#445=VECTOR($,#1621,13.9324093137965);
#446=VECTOR($,#1622,50.);
#447=VECTOR($,#1633,40.);
#448=VECTOR($,#1636,13.9324093137965);
#449=VECTOR($,#1637,50.);
#450=VECTOR($,#1646,3.);
#451=VECTOR($,#1649,3.);
#452=VECTOR($,#1652,13.9324093137965);
#453=VECTOR($,#1653,2.99999999999998);
#454=VECTOR($,#1656,40.);
#455=VECTOR($,#1663,3.);
#456=VECTOR($,#1668,40.);
#457=VECTOR($,#1669,3.);
#458=VECTOR($,#1670,3.);
#459=VECTOR($,#1673,15.);
#460=VECTOR($,#1676,3.00000000000009);
#461=VECTOR($,#1677,2.99999999999998);
#462=VECTOR($,#1680,3.00000000000009);
#463=VECTOR($,#1685,3.);
#464=VECTOR($,#1686,13.9324093137965);
#465=VECTOR($,#1711,50.);
#466=VECTOR($,#1718,22.4420271342106);
#467=VECTOR($,#1729,15.);
#468=VECTOR($,#1732,22.4420271342106);
#469=VECTOR($,#1733,15.);
#470=VECTOR($,#1736,15.);
#471=VECTOR($,#1741,15.);
#472=VECTOR($,#1744,15.);
#473=VECTOR($,#1747,22.4420271342106);
#474=VECTOR($,#1748,15.);
#475=VECTOR($,#1751,15.);
#476=VERTEX_POINT($,#1764);
#477=VERTEX_POINT($,#1765);
#478=VERTEX_POINT($,#1767);
#479=VERTEX_POINT($,#1769);
#480=VERTEX_POINT($,#1771);
#481=VERTEX_POINT($,#1773);
#482=VERTEX_POINT($,#1775);
#483=VERTEX_POINT($,#1777);
#484=VERTEX_POINT($,#1779);
#485=VERTEX_POINT($,#1781);
#486=VERTEX_POINT($,#1783);
#487=VERTEX_POINT($,#1785);
#488=VERTEX_POINT($,#1787);
#489=VERTEX_POINT($,#1789);
#490=VERTEX_POINT($,#1791);
#491=VERTEX_POINT($,#1793);
#492=VERTEX_POINT($,#1797);
#493=VERTEX_POINT($,#1798);
#494=VERTEX_POINT($,#1800);
#495=VERTEX_POINT($,#1802);
#496=VERTEX_POINT($,#1806);
#497=VERTEX_POINT($,#1807);
#498=VERTEX_POINT($,#1809);
#499=VERTEX_POINT($,#1811);
#500=VERTEX_POINT($,#1813);
#501=VERTEX_POINT($,#1815);
#502=VERTEX_POINT($,#1817);
#503=VERTEX_POINT($,#1819);
#504=VERTEX_POINT($,#1823);
#505=VERTEX_POINT($,#1825);
#506=VERTEX_POINT($,#1830);
#507=VERTEX_POINT($,#1832);
#508=VERTEX_POINT($,#1834);
#509=VERTEX_POINT($,#1836);
#510=VERTEX_POINT($,#1838);
#511=VERTEX_POINT($,#1840);
#512=VERTEX_POINT($,#1842);
#513=VERTEX_POINT($,#1844);
#514=VERTEX_POINT($,#1846);
#515=VERTEX_POINT($,#1850);
#516=VERTEX_POINT($,#1851);
#517=VERTEX_POINT($,#1854);
#518=VERTEX_POINT($,#1856);
#519=VERTEX_POINT($,#1858);
#520=VERTEX_POINT($,#1860);
#521=VERTEX_POINT($,#1862);
#522=VERTEX_POINT($,#1864);
#523=VERTEX_POINT($,#1866);
#524=VERTEX_POINT($,#1869);
#525=VERTEX_POINT($,#1873);
#526=VERTEX_POINT($,#1877);
#527=VERTEX_POINT($,#1879);
#528=VERTEX_POINT($,#1882);
#529=VERTEX_POINT($,#1884);
#530=VERTEX_POINT($,#1886);
#531=VERTEX_POINT($,#1888);
#532=VERTEX_POINT($,#1890);
#533=VERTEX_POINT($,#1892);
#534=VERTEX_POINT($,#1894);
#535=VERTEX_POINT($,#1898);
#536=VERTEX_POINT($,#1899);
#537=VERTEX_POINT($,#1901);
#538=VERTEX_POINT($,#1903);
#539=VERTEX_POINT($,#1908);
#540=VERTEX_POINT($,#1910);
#541=VERTEX_POINT($,#1912);
#542=VERTEX_POINT($,#1914);
#543=VERTEX_POINT($,#1916);
#544=VERTEX_POINT($,#1918);
#545=VERTEX_POINT($,#1921);
#546=VERTEX_POINT($,#1923);
#547=VERTEX_POINT($,#1925);
#548=VERTEX_POINT($,#1927);
#549=VERTEX_POINT($,#1931);
#550=VERTEX_POINT($,#1933);
#551=VERTEX_POINT($,#1937);
#552=VERTEX_POINT($,#1941);
#553=VERTEX_POINT($,#1952);
#554=VERTEX_POINT($,#1953);
#555=VERTEX_POINT($,#1956);
#556=VERTEX_POINT($,#1958);
#557=VERTEX_POINT($,#1960);
#558=VERTEX_POINT($,#1962);
#559=VERTEX_POINT($,#1965);
#560=VERTEX_POINT($,#1967);
#561=VERTEX_POINT($,#1969);
#562=VERTEX_POINT($,#1971);
#563=VERTEX_POINT($,#1985);
#564=VERTEX_POINT($,#1987);
#565=VERTEX_POINT($,#1990);
#566=VERTEX_POINT($,#1992);
#567=VERTEX_POINT($,#1994);
#568=VERTEX_POINT($,#1996);
#569=VERTEX_POINT($,#2001);
#570=VERTEX_POINT($,#2003);
#571=VERTEX_POINT($,#2006);
#572=VERTEX_POINT($,#2007);
#573=VERTEX_POINT($,#2009);
#574=VERTEX_POINT($,#2011);
#575=VERTEX_POINT($,#2015);
#576=VERTEX_POINT($,#2020);
#577=VERTEX_POINT($,#2021);
#578=VERTEX_POINT($,#2023);
#579=VERTEX_POINT($,#2025);
#580=VERTEX_POINT($,#2029);
#581=VERTEX_POINT($,#2031);
#582=VERTEX_POINT($,#2034);
#583=VERTEX_POINT($,#2036);
#584=VERTEX_POINT($,#2043);
#585=VERTEX_POINT($,#2046);
#586=VERTEX_POINT($,#2052);
#587=VERTEX_POINT($,#2053);
#588=VERTEX_POINT($,#2066);
#589=VERTEX_POINT($,#2068);
#590=VERTEX_POINT($,#2078);
#591=VERTEX_POINT($,#2081);
#592=VERTEX_POINT($,#2093);
#593=VERTEX_POINT($,#2097);
#594=VERTEX_POINT($,#2103);
#595=VERTEX_POINT($,#2109);
#596=EDGE_CURVE($,#476,#477,#252,.T.);
#597=EDGE_CURVE($,#477,#478,#253,.F.);
#598=EDGE_CURVE($,#479,#478,#254,.T.);
#599=EDGE_CURVE($,#480,#479,#188,.F.);
#600=EDGE_CURVE($,#481,#480,#255,.T.);
#601=EDGE_CURVE($,#482,#481,#189,.F.);
#602=EDGE_CURVE($,#483,#482,#256,.T.);
#603=EDGE_CURVE($,#484,#483,#190,.F.);
#604=EDGE_CURVE($,#485,#484,#257,.T.);
#605=EDGE_CURVE($,#485,#486,#258,.T.);
#606=EDGE_CURVE($,#486,#487,#259,.T.);
#607=EDGE_CURVE($,#487,#488,#191,.T.);
#608=EDGE_CURVE($,#488,#489,#260,.T.);
#609=EDGE_CURVE($,#489,#490,#192,.T.);
#610=EDGE_CURVE($,#490,#491,#261,.T.);
#611=EDGE_CURVE($,#491,#476,#193,.T.);
#612=EDGE_CURVE($,#492,#493,#194,.T.);
#613=EDGE_CURVE($,#494,#492,#262,.T.);
#614=EDGE_CURVE($,#495,#494,#195,.F.);
#615=EDGE_CURVE($,#493,#495,#263,.T.);
#616=EDGE_CURVE($,#496,#497,#264,.T.);
#617=EDGE_CURVE($,#496,#498,#265,.T.);
#618=EDGE_CURVE($,#498,#499,#266,.T.);
#619=EDGE_CURVE($,#499,#500,#196,.F.);
#620=EDGE_CURVE($,#500,#501,#267,.T.);
#621=EDGE_CURVE($,#501,#502,#268,.T.);
#622=EDGE_CURVE($,#503,#502,#269,.T.);
#623=EDGE_CURVE($,#497,#503,#197,.T.);
#624=EDGE_CURVE($,#504,#497,#270,.T.);
#625=EDGE_CURVE($,#505,#503,#271,.T.);
#626=EDGE_CURVE($,#505,#504,#198,.T.);
#627=EDGE_CURVE($,#502,#485,#199,.F.);
#628=EDGE_CURVE($,#506,#484,#272,.T.);
#629=EDGE_CURVE($,#507,#506,#273,.T.);
#630=EDGE_CURVE($,#507,#508,#200,.T.);
#631=EDGE_CURVE($,#509,#508,#274,.T.);
#632=EDGE_CURVE($,#509,#510,#201,.T.);
#633=EDGE_CURVE($,#511,#510,#275,.T.);
#634=EDGE_CURVE($,#512,#511,#276,.T.);
#635=EDGE_CURVE($,#513,#512,#277,.T.);
#636=EDGE_CURVE($,#513,#514,#202,.F.);
#637=EDGE_CURVE($,#514,#505,#278,.T.);
#638=EDGE_CURVE($,#515,#516,#279,.T.);
#639=EDGE_CURVE($,#515,#477,#203,.T.);
#640=EDGE_CURVE($,#517,#476,#280,.T.);
#641=EDGE_CURVE($,#517,#518,#281,.T.);
#642=EDGE_CURVE($,#518,#519,#204,.F.);
#643=EDGE_CURVE($,#519,#520,#282,.T.);
#644=EDGE_CURVE($,#520,#521,#205,.F.);
#645=EDGE_CURVE($,#521,#522,#283,.F.);
#646=EDGE_CURVE($,#523,#522,#284,.T.);
#647=EDGE_CURVE($,#523,#492,#285,.T.);
#648=EDGE_CURVE($,#524,#493,#286,.F.);
#649=EDGE_CURVE($,#524,#516,#287,.T.);
#650=EDGE_CURVE($,#515,#525,#288,.T.);
#651=EDGE_CURVE($,#478,#525,#206,.F.);
#652=EDGE_CURVE($,#525,#526,#289,.T.);
#653=EDGE_CURVE($,#527,#526,#290,.T.);
#654=EDGE_CURVE($,#527,#495,#291,.T.);
#655=EDGE_CURVE($,#528,#494,#292,.T.);
#656=EDGE_CURVE($,#528,#529,#293,.T.);
#657=EDGE_CURVE($,#530,#529,#294,.T.);
#658=EDGE_CURVE($,#530,#531,#207,.T.);
#659=EDGE_CURVE($,#532,#531,#295,.F.);
#660=EDGE_CURVE($,#532,#533,#208,.T.);
#661=EDGE_CURVE($,#534,#533,#296,.T.);
#662=EDGE_CURVE($,#534,#479,#297,.T.);
#663=EDGE_CURVE($,#535,#536,#298,.T.);
#664=EDGE_CURVE($,#536,#537,#299,.T.);
#665=EDGE_CURVE($,#538,#537,#300,.T.);
#666=EDGE_CURVE($,#526,#538,#209,.T.);
#667=EDGE_CURVE($,#516,#535,#210,.F.);
#668=EDGE_CURVE($,#539,#523,#211,.T.);
#669=EDGE_CURVE($,#540,#539,#301,.T.);
#670=EDGE_CURVE($,#541,#540,#212,.T.);
#671=EDGE_CURVE($,#542,#541,#302,.T.);
#672=EDGE_CURVE($,#543,#542,#213,.T.);
#673=EDGE_CURVE($,#544,#543,#303,.T.);
#674=EDGE_CURVE($,#544,#513,#304,.F.);
#675=EDGE_CURVE($,#512,#545,#214,.F.);
#676=EDGE_CURVE($,#545,#546,#305,.T.);
#677=EDGE_CURVE($,#546,#547,#215,.F.);
#678=EDGE_CURVE($,#547,#548,#306,.T.);
#679=EDGE_CURVE($,#548,#528,#216,.F.);
#680=EDGE_CURVE($,#545,#549,#307,.T.);
#681=EDGE_CURVE($,#550,#549,#308,.T.);
#682=EDGE_CURVE($,#546,#550,#309,.T.);
#683=EDGE_CURVE($,#551,#550,#217,.F.);
#684=EDGE_CURVE($,#547,#551,#310,.T.);
#685=EDGE_CURVE($,#548,#552,#311,.T.);
#686=EDGE_CURVE($,#529,#552,#218,.F.);
#687=EDGE_CURVE($,#521,#530,#312,.T.);
#688=EDGE_CURVE($,#531,#520,#313,.F.);
#689=EDGE_CURVE($,#519,#532,#314,.T.);
#690=EDGE_CURVE($,#533,#518,#315,.F.);
#691=EDGE_CURVE($,#553,#554,#316,.T.);
#692=EDGE_CURVE($,#553,#507,#317,.T.);
#693=EDGE_CURVE($,#506,#555,#219,.F.);
#694=EDGE_CURVE($,#555,#556,#318,.T.);
#695=EDGE_CURVE($,#556,#557,#220,.F.);
#696=EDGE_CURVE($,#557,#558,#319,.T.);
#697=EDGE_CURVE($,#558,#534,#221,.F.);
#698=EDGE_CURVE($,#559,#517,#222,.T.);
#699=EDGE_CURVE($,#560,#559,#320,.T.);
#700=EDGE_CURVE($,#561,#560,#223,.T.);
#701=EDGE_CURVE($,#562,#561,#321,.T.);
#702=EDGE_CURVE($,#554,#562,#224,.T.);
#703=EDGE_CURVE($,#558,#480,#322,.T.);
#704=EDGE_CURVE($,#557,#481,#323,.T.);
#705=EDGE_CURVE($,#556,#482,#324,.T.);
#706=EDGE_CURVE($,#555,#483,#325,.T.);
#707=EDGE_CURVE($,#486,#501,#225,.T.);
#708=EDGE_CURVE($,#563,#500,#326,.T.);
#709=EDGE_CURVE($,#564,#563,#327,.F.);
#710=EDGE_CURVE($,#564,#544,#226,.T.);
#711=EDGE_CURVE($,#543,#565,#328,.T.);
#712=EDGE_CURVE($,#565,#566,#329,.F.);
#713=EDGE_CURVE($,#566,#567,#227,.F.);
#714=EDGE_CURVE($,#567,#568,#330,.T.);
#715=EDGE_CURVE($,#568,#553,#228,.F.);
#716=EDGE_CURVE($,#554,#487,#331,.T.);
#717=EDGE_CURVE($,#569,#569,#229,.T.);
#718=EDGE_CURVE($,#570,#570,#230,.T.);
#719=EDGE_CURVE($,#571,#572,#332,.T.);
#720=EDGE_CURVE($,#571,#573,#231,.T.);
#721=EDGE_CURVE($,#574,#573,#333,.F.);
#722=EDGE_CURVE($,#574,#499,#334,.T.);
#723=EDGE_CURVE($,#498,#572,#232,.T.);
#724=EDGE_CURVE($,#575,#575,#233,.T.);
#725=EDGE_CURVE($,#563,#574,#234,.T.);
#726=EDGE_CURVE($,#576,#577,#335,.T.);
#727=EDGE_CURVE($,#576,#578,#235,.F.);
#728=EDGE_CURVE($,#578,#579,#336,.T.);
#729=EDGE_CURVE($,#579,#538,#337,.T.);
#730=EDGE_CURVE($,#537,#577,#236,.F.);
#731=EDGE_CURVE($,#580,#580,#237,.T.);
#732=EDGE_CURVE($,#581,#581,#238,.T.);
#733=EDGE_CURVE($,#582,#571,#338,.F.);
#734=EDGE_CURVE($,#583,#582,#239,.F.);
#735=EDGE_CURVE($,#573,#583,#339,.F.);
#736=EDGE_CURVE($,#504,#583,#340,.T.);
#737=EDGE_CURVE($,#564,#514,#341,.T.);
#738=EDGE_CURVE($,#582,#584,#342,.T.);
#739=EDGE_CURVE($,#584,#496,#240,.F.);
#740=EDGE_CURVE($,#585,#585,#241,.T.);
#741=EDGE_CURVE($,#572,#584,#343,.T.);
#742=EDGE_CURVE($,#586,#587,#344,.T.);
#743=EDGE_CURVE($,#586,#576,#345,.T.);
#744=EDGE_CURVE($,#577,#587,#346,.T.);
#745=EDGE_CURVE($,#559,#491,#347,.T.);
#746=EDGE_CURVE($,#567,#509,#348,.T.);
#747=EDGE_CURVE($,#510,#566,#349,.F.);
#748=EDGE_CURVE($,#508,#568,#350,.F.);
#749=EDGE_CURVE($,#578,#588,#351,.F.);
#750=EDGE_CURVE($,#588,#589,#352,.F.);
#751=EDGE_CURVE($,#589,#524,#242,.T.);
#752=EDGE_CURVE($,#579,#527,#243,.T.);
#753=EDGE_CURVE($,#588,#586,#244,.T.);
#754=EDGE_CURVE($,#587,#536,#245,.T.);
#755=EDGE_CURVE($,#590,#590,#246,.T.);
#756=EDGE_CURVE($,#591,#591,#247,.T.);
#757=EDGE_CURVE($,#589,#535,#353,.T.);
#758=EDGE_CURVE($,#552,#551,#354,.T.);
#759=EDGE_CURVE($,#549,#511,#248,.F.);
#760=EDGE_CURVE($,#592,#565,#249,.F.);
#761=EDGE_CURVE($,#542,#592,#355,.T.);
#762=EDGE_CURVE($,#593,#592,#356,.F.);
#763=EDGE_CURVE($,#541,#593,#357,.T.);
#764=EDGE_CURVE($,#562,#488,#358,.T.);
#765=EDGE_CURVE($,#594,#593,#250,.F.);
#766=EDGE_CURVE($,#540,#594,#359,.T.);
#767=EDGE_CURVE($,#561,#489,#360,.T.);
#768=EDGE_CURVE($,#595,#594,#361,.F.);
#769=EDGE_CURVE($,#539,#595,#362,.T.);
#770=EDGE_CURVE($,#560,#490,#363,.T.);
#771=EDGE_CURVE($,#522,#595,#251,.F.);
#772=ORIENTED_EDGE($,*,*,#596,.T.);
#773=ORIENTED_EDGE($,*,*,#597,.T.);
#774=ORIENTED_EDGE($,*,*,#598,.F.);
#775=ORIENTED_EDGE($,*,*,#599,.F.);
#776=ORIENTED_EDGE($,*,*,#600,.F.);
#777=ORIENTED_EDGE($,*,*,#601,.F.);
#778=ORIENTED_EDGE($,*,*,#602,.F.);
#779=ORIENTED_EDGE($,*,*,#603,.F.);
#780=ORIENTED_EDGE($,*,*,#604,.F.);
#781=ORIENTED_EDGE($,*,*,#605,.T.);
#782=ORIENTED_EDGE($,*,*,#606,.T.);
#783=ORIENTED_EDGE($,*,*,#607,.T.);
#784=ORIENTED_EDGE($,*,*,#608,.T.);
#785=ORIENTED_EDGE($,*,*,#609,.T.);
#786=ORIENTED_EDGE($,*,*,#610,.T.);
#787=ORIENTED_EDGE($,*,*,#611,.T.);
#788=ORIENTED_EDGE($,*,*,#612,.F.);
#789=ORIENTED_EDGE($,*,*,#613,.F.);
#790=ORIENTED_EDGE($,*,*,#614,.F.);
#791=ORIENTED_EDGE($,*,*,#615,.F.);
#792=ORIENTED_EDGE($,*,*,#616,.F.);
#793=ORIENTED_EDGE($,*,*,#617,.T.);
#794=ORIENTED_EDGE($,*,*,#618,.T.);
#795=ORIENTED_EDGE($,*,*,#619,.T.);
#796=ORIENTED_EDGE($,*,*,#620,.T.);
#797=ORIENTED_EDGE($,*,*,#621,.T.);
#798=ORIENTED_EDGE($,*,*,#622,.F.);
#799=ORIENTED_EDGE($,*,*,#623,.F.);
#800=ORIENTED_EDGE($,*,*,#624,.T.);
#801=ORIENTED_EDGE($,*,*,#623,.T.);
#802=ORIENTED_EDGE($,*,*,#625,.F.);
#803=ORIENTED_EDGE($,*,*,#626,.T.);
#804=ORIENTED_EDGE($,*,*,#622,.T.);
#805=ORIENTED_EDGE($,*,*,#627,.T.);
#806=ORIENTED_EDGE($,*,*,#604,.T.);
#807=ORIENTED_EDGE($,*,*,#628,.F.);
#808=ORIENTED_EDGE($,*,*,#629,.F.);
#809=ORIENTED_EDGE($,*,*,#630,.T.);
#810=ORIENTED_EDGE($,*,*,#631,.F.);
#811=ORIENTED_EDGE($,*,*,#632,.T.);
#812=ORIENTED_EDGE($,*,*,#633,.F.);
#813=ORIENTED_EDGE($,*,*,#634,.F.);
#814=ORIENTED_EDGE($,*,*,#635,.F.);
#815=ORIENTED_EDGE($,*,*,#636,.T.);
#816=ORIENTED_EDGE($,*,*,#637,.T.);
#817=ORIENTED_EDGE($,*,*,#625,.T.);
#818=ORIENTED_EDGE($,*,*,#638,.F.);
#819=ORIENTED_EDGE($,*,*,#639,.T.);
#820=ORIENTED_EDGE($,*,*,#596,.F.);
#821=ORIENTED_EDGE($,*,*,#640,.F.);
#822=ORIENTED_EDGE($,*,*,#641,.T.);
#823=ORIENTED_EDGE($,*,*,#642,.T.);
#824=ORIENTED_EDGE($,*,*,#643,.T.);
#825=ORIENTED_EDGE($,*,*,#644,.T.);
#826=ORIENTED_EDGE($,*,*,#645,.T.);
#827=ORIENTED_EDGE($,*,*,#646,.F.);
#828=ORIENTED_EDGE($,*,*,#647,.T.);
#829=ORIENTED_EDGE($,*,*,#612,.T.);
#830=ORIENTED_EDGE($,*,*,#648,.F.);
#831=ORIENTED_EDGE($,*,*,#649,.T.);
#832=ORIENTED_EDGE($,*,*,#639,.F.);
#833=ORIENTED_EDGE($,*,*,#650,.T.);
#834=ORIENTED_EDGE($,*,*,#651,.F.);
#835=ORIENTED_EDGE($,*,*,#597,.F.);
#836=ORIENTED_EDGE($,*,*,#598,.T.);
#837=ORIENTED_EDGE($,*,*,#651,.T.);
#838=ORIENTED_EDGE($,*,*,#652,.T.);
#839=ORIENTED_EDGE($,*,*,#653,.F.);
#840=ORIENTED_EDGE($,*,*,#654,.T.);
#841=ORIENTED_EDGE($,*,*,#614,.T.);
#842=ORIENTED_EDGE($,*,*,#655,.F.);
#843=ORIENTED_EDGE($,*,*,#656,.T.);
#844=ORIENTED_EDGE($,*,*,#657,.F.);
#845=ORIENTED_EDGE($,*,*,#658,.T.);
#846=ORIENTED_EDGE($,*,*,#659,.F.);
#847=ORIENTED_EDGE($,*,*,#660,.T.);
#848=ORIENTED_EDGE($,*,*,#661,.F.);
#849=ORIENTED_EDGE($,*,*,#662,.T.);
#850=ORIENTED_EDGE($,*,*,#663,.T.);
#851=ORIENTED_EDGE($,*,*,#664,.T.);
#852=ORIENTED_EDGE($,*,*,#665,.F.);
#853=ORIENTED_EDGE($,*,*,#666,.F.);
#854=ORIENTED_EDGE($,*,*,#652,.F.);
#855=ORIENTED_EDGE($,*,*,#650,.F.);
#856=ORIENTED_EDGE($,*,*,#638,.T.);
#857=ORIENTED_EDGE($,*,*,#667,.T.);
#858=ORIENTED_EDGE($,*,*,#655,.T.);
#859=ORIENTED_EDGE($,*,*,#613,.T.);
#860=ORIENTED_EDGE($,*,*,#647,.F.);
#861=ORIENTED_EDGE($,*,*,#668,.F.);
#862=ORIENTED_EDGE($,*,*,#669,.F.);
#863=ORIENTED_EDGE($,*,*,#670,.F.);
#864=ORIENTED_EDGE($,*,*,#671,.F.);
#865=ORIENTED_EDGE($,*,*,#672,.F.);
#866=ORIENTED_EDGE($,*,*,#673,.F.);
#867=ORIENTED_EDGE($,*,*,#674,.T.);
#868=ORIENTED_EDGE($,*,*,#635,.T.);
#869=ORIENTED_EDGE($,*,*,#675,.T.);
#870=ORIENTED_EDGE($,*,*,#676,.T.);
#871=ORIENTED_EDGE($,*,*,#677,.T.);
#872=ORIENTED_EDGE($,*,*,#678,.T.);
#873=ORIENTED_EDGE($,*,*,#679,.T.);
#874=ORIENTED_EDGE($,*,*,#680,.T.);
#875=ORIENTED_EDGE($,*,*,#681,.F.);
#876=ORIENTED_EDGE($,*,*,#682,.F.);
#877=ORIENTED_EDGE($,*,*,#676,.F.);
#878=ORIENTED_EDGE($,*,*,#682,.T.);
#879=ORIENTED_EDGE($,*,*,#683,.F.);
#880=ORIENTED_EDGE($,*,*,#684,.F.);
#881=ORIENTED_EDGE($,*,*,#677,.F.);
#882=ORIENTED_EDGE($,*,*,#685,.T.);
#883=ORIENTED_EDGE($,*,*,#686,.F.);
#884=ORIENTED_EDGE($,*,*,#656,.F.);
#885=ORIENTED_EDGE($,*,*,#679,.F.);
#886=ORIENTED_EDGE($,*,*,#658,.F.);
#887=ORIENTED_EDGE($,*,*,#687,.F.);
#888=ORIENTED_EDGE($,*,*,#644,.F.);
#889=ORIENTED_EDGE($,*,*,#688,.F.);
#890=ORIENTED_EDGE($,*,*,#643,.F.);
#891=ORIENTED_EDGE($,*,*,#689,.T.);
#892=ORIENTED_EDGE($,*,*,#659,.T.);
#893=ORIENTED_EDGE($,*,*,#688,.T.);
#894=ORIENTED_EDGE($,*,*,#660,.F.);
#895=ORIENTED_EDGE($,*,*,#689,.F.);
#896=ORIENTED_EDGE($,*,*,#642,.F.);
#897=ORIENTED_EDGE($,*,*,#690,.F.);
#898=ORIENTED_EDGE($,*,*,#691,.F.);
#899=ORIENTED_EDGE($,*,*,#692,.T.);
#900=ORIENTED_EDGE($,*,*,#629,.T.);
#901=ORIENTED_EDGE($,*,*,#693,.T.);
#902=ORIENTED_EDGE($,*,*,#694,.T.);
#903=ORIENTED_EDGE($,*,*,#695,.T.);
#904=ORIENTED_EDGE($,*,*,#696,.T.);
#905=ORIENTED_EDGE($,*,*,#697,.T.);
#906=ORIENTED_EDGE($,*,*,#661,.T.);
#907=ORIENTED_EDGE($,*,*,#690,.T.);
#908=ORIENTED_EDGE($,*,*,#641,.F.);
#909=ORIENTED_EDGE($,*,*,#698,.F.);
#910=ORIENTED_EDGE($,*,*,#699,.F.);
#911=ORIENTED_EDGE($,*,*,#700,.F.);
#912=ORIENTED_EDGE($,*,*,#701,.F.);
#913=ORIENTED_EDGE($,*,*,#702,.F.);
#914=ORIENTED_EDGE($,*,*,#662,.F.);
#915=ORIENTED_EDGE($,*,*,#697,.F.);
#916=ORIENTED_EDGE($,*,*,#703,.T.);
#917=ORIENTED_EDGE($,*,*,#599,.T.);
#918=ORIENTED_EDGE($,*,*,#704,.F.);
#919=ORIENTED_EDGE($,*,*,#695,.F.);
#920=ORIENTED_EDGE($,*,*,#705,.T.);
#921=ORIENTED_EDGE($,*,*,#601,.T.);
#922=ORIENTED_EDGE($,*,*,#705,.F.);
#923=ORIENTED_EDGE($,*,*,#694,.F.);
#924=ORIENTED_EDGE($,*,*,#706,.T.);
#925=ORIENTED_EDGE($,*,*,#602,.T.);
#926=ORIENTED_EDGE($,*,*,#706,.F.);
#927=ORIENTED_EDGE($,*,*,#693,.F.);
#928=ORIENTED_EDGE($,*,*,#628,.T.);
#929=ORIENTED_EDGE($,*,*,#603,.T.);
#930=ORIENTED_EDGE($,*,*,#707,.F.);
#931=ORIENTED_EDGE($,*,*,#605,.F.);
#932=ORIENTED_EDGE($,*,*,#627,.F.);
#933=ORIENTED_EDGE($,*,*,#621,.F.);
#934=ORIENTED_EDGE($,*,*,#606,.F.);
#935=ORIENTED_EDGE($,*,*,#707,.T.);
#936=ORIENTED_EDGE($,*,*,#620,.F.);
#937=ORIENTED_EDGE($,*,*,#708,.F.);
#938=ORIENTED_EDGE($,*,*,#709,.F.);
#939=ORIENTED_EDGE($,*,*,#710,.T.);
#940=ORIENTED_EDGE($,*,*,#673,.T.);
#941=ORIENTED_EDGE($,*,*,#711,.T.);
#942=ORIENTED_EDGE($,*,*,#712,.T.);
#943=ORIENTED_EDGE($,*,*,#713,.T.);
#944=ORIENTED_EDGE($,*,*,#714,.T.);
#945=ORIENTED_EDGE($,*,*,#715,.T.);
#946=ORIENTED_EDGE($,*,*,#691,.T.);
#947=ORIENTED_EDGE($,*,*,#716,.T.);
#948=ORIENTED_EDGE($,*,*,#717,.F.);
#949=ORIENTED_EDGE($,*,*,#718,.T.);
#950=ORIENTED_EDGE($,*,*,#719,.F.);
#951=ORIENTED_EDGE($,*,*,#720,.T.);
#952=ORIENTED_EDGE($,*,*,#721,.F.);
#953=ORIENTED_EDGE($,*,*,#722,.T.);
#954=ORIENTED_EDGE($,*,*,#618,.F.);
#955=ORIENTED_EDGE($,*,*,#723,.T.);
#956=ORIENTED_EDGE($,*,*,#724,.F.);
#957=ORIENTED_EDGE($,*,*,#718,.F.);
#958=ORIENTED_EDGE($,*,*,#619,.F.);
#959=ORIENTED_EDGE($,*,*,#722,.F.);
#960=ORIENTED_EDGE($,*,*,#725,.F.);
#961=ORIENTED_EDGE($,*,*,#708,.T.);
#962=ORIENTED_EDGE($,*,*,#726,.F.);
#963=ORIENTED_EDGE($,*,*,#727,.T.);
#964=ORIENTED_EDGE($,*,*,#728,.T.);
#965=ORIENTED_EDGE($,*,*,#729,.T.);
#966=ORIENTED_EDGE($,*,*,#665,.T.);
#967=ORIENTED_EDGE($,*,*,#730,.T.);
#968=ORIENTED_EDGE($,*,*,#731,.T.);
#969=ORIENTED_EDGE($,*,*,#732,.T.);
#970=ORIENTED_EDGE($,*,*,#720,.F.);
#971=ORIENTED_EDGE($,*,*,#733,.F.);
#972=ORIENTED_EDGE($,*,*,#734,.F.);
#973=ORIENTED_EDGE($,*,*,#735,.F.);
#974=ORIENTED_EDGE($,*,*,#721,.T.);
#975=ORIENTED_EDGE($,*,*,#735,.T.);
#976=ORIENTED_EDGE($,*,*,#736,.F.);
#977=ORIENTED_EDGE($,*,*,#626,.F.);
#978=ORIENTED_EDGE($,*,*,#637,.F.);
#979=ORIENTED_EDGE($,*,*,#737,.F.);
#980=ORIENTED_EDGE($,*,*,#709,.T.);
#981=ORIENTED_EDGE($,*,*,#725,.T.);
#982=ORIENTED_EDGE($,*,*,#736,.T.);
#983=ORIENTED_EDGE($,*,*,#734,.T.);
#984=ORIENTED_EDGE($,*,*,#738,.T.);
#985=ORIENTED_EDGE($,*,*,#739,.T.);
#986=ORIENTED_EDGE($,*,*,#616,.T.);
#987=ORIENTED_EDGE($,*,*,#624,.F.);
#988=ORIENTED_EDGE($,*,*,#740,.T.);
#989=ORIENTED_EDGE($,*,*,#717,.T.);
#990=ORIENTED_EDGE($,*,*,#723,.F.);
#991=ORIENTED_EDGE($,*,*,#617,.F.);
#992=ORIENTED_EDGE($,*,*,#739,.F.);
#993=ORIENTED_EDGE($,*,*,#741,.F.);
#994=ORIENTED_EDGE($,*,*,#738,.F.);
#995=ORIENTED_EDGE($,*,*,#733,.T.);
#996=ORIENTED_EDGE($,*,*,#719,.T.);
#997=ORIENTED_EDGE($,*,*,#741,.T.);
#998=ORIENTED_EDGE($,*,*,#742,.F.);
#999=ORIENTED_EDGE($,*,*,#743,.T.);
#1000=ORIENTED_EDGE($,*,*,#726,.T.);
#1001=ORIENTED_EDGE($,*,*,#744,.T.);
#1002=ORIENTED_EDGE($,*,*,#698,.T.);
#1003=ORIENTED_EDGE($,*,*,#640,.T.);
#1004=ORIENTED_EDGE($,*,*,#611,.F.);
#1005=ORIENTED_EDGE($,*,*,#745,.F.);
#1006=ORIENTED_EDGE($,*,*,#632,.F.);
#1007=ORIENTED_EDGE($,*,*,#746,.F.);
#1008=ORIENTED_EDGE($,*,*,#713,.F.);
#1009=ORIENTED_EDGE($,*,*,#747,.F.);
#1010=ORIENTED_EDGE($,*,*,#630,.F.);
#1011=ORIENTED_EDGE($,*,*,#692,.F.);
#1012=ORIENTED_EDGE($,*,*,#715,.F.);
#1013=ORIENTED_EDGE($,*,*,#748,.F.);
#1014=ORIENTED_EDGE($,*,*,#714,.F.);
#1015=ORIENTED_EDGE($,*,*,#746,.T.);
#1016=ORIENTED_EDGE($,*,*,#631,.T.);
#1017=ORIENTED_EDGE($,*,*,#748,.T.);
#1018=ORIENTED_EDGE($,*,*,#728,.F.);
#1019=ORIENTED_EDGE($,*,*,#749,.T.);
#1020=ORIENTED_EDGE($,*,*,#750,.T.);
#1021=ORIENTED_EDGE($,*,*,#751,.T.);
#1022=ORIENTED_EDGE($,*,*,#648,.T.);
#1023=ORIENTED_EDGE($,*,*,#615,.T.);
#1024=ORIENTED_EDGE($,*,*,#654,.F.);
#1025=ORIENTED_EDGE($,*,*,#752,.F.);
#1026=ORIENTED_EDGE($,*,*,#710,.F.);
#1027=ORIENTED_EDGE($,*,*,#737,.T.);
#1028=ORIENTED_EDGE($,*,*,#636,.F.);
#1029=ORIENTED_EDGE($,*,*,#674,.F.);
#1030=ORIENTED_EDGE($,*,*,#753,.F.);
#1031=ORIENTED_EDGE($,*,*,#749,.F.);
#1032=ORIENTED_EDGE($,*,*,#727,.F.);
#1033=ORIENTED_EDGE($,*,*,#743,.F.);
#1034=ORIENTED_EDGE($,*,*,#754,.F.);
#1035=ORIENTED_EDGE($,*,*,#744,.F.);
#1036=ORIENTED_EDGE($,*,*,#730,.F.);
#1037=ORIENTED_EDGE($,*,*,#664,.F.);
#1038=ORIENTED_EDGE($,*,*,#731,.F.);
#1039=ORIENTED_EDGE($,*,*,#755,.T.);
#1040=ORIENTED_EDGE($,*,*,#732,.F.);
#1041=ORIENTED_EDGE($,*,*,#756,.T.);
#1042=ORIENTED_EDGE($,*,*,#667,.F.);
#1043=ORIENTED_EDGE($,*,*,#649,.F.);
#1044=ORIENTED_EDGE($,*,*,#751,.F.);
#1045=ORIENTED_EDGE($,*,*,#757,.T.);
#1046=ORIENTED_EDGE($,*,*,#750,.F.);
#1047=ORIENTED_EDGE($,*,*,#753,.T.);
#1048=ORIENTED_EDGE($,*,*,#742,.T.);
#1049=ORIENTED_EDGE($,*,*,#754,.T.);
#1050=ORIENTED_EDGE($,*,*,#663,.F.);
#1051=ORIENTED_EDGE($,*,*,#757,.F.);
#1052=ORIENTED_EDGE($,*,*,#755,.F.);
#1053=ORIENTED_EDGE($,*,*,#756,.F.);
#1054=ORIENTED_EDGE($,*,*,#653,.T.);
#1055=ORIENTED_EDGE($,*,*,#666,.T.);
#1056=ORIENTED_EDGE($,*,*,#729,.F.);
#1057=ORIENTED_EDGE($,*,*,#752,.T.);
#1058=ORIENTED_EDGE($,*,*,#684,.T.);
#1059=ORIENTED_EDGE($,*,*,#758,.F.);
#1060=ORIENTED_EDGE($,*,*,#685,.F.);
#1061=ORIENTED_EDGE($,*,*,#678,.F.);
#1062=ORIENTED_EDGE($,*,*,#703,.F.);
#1063=ORIENTED_EDGE($,*,*,#696,.F.);
#1064=ORIENTED_EDGE($,*,*,#704,.T.);
#1065=ORIENTED_EDGE($,*,*,#600,.T.);
#1066=ORIENTED_EDGE($,*,*,#634,.T.);
#1067=ORIENTED_EDGE($,*,*,#759,.F.);
#1068=ORIENTED_EDGE($,*,*,#680,.F.);
#1069=ORIENTED_EDGE($,*,*,#675,.F.);
#1070=ORIENTED_EDGE($,*,*,#760,.T.);
#1071=ORIENTED_EDGE($,*,*,#711,.F.);
#1072=ORIENTED_EDGE($,*,*,#672,.T.);
#1073=ORIENTED_EDGE($,*,*,#761,.T.);
#1074=ORIENTED_EDGE($,*,*,#762,.T.);
#1075=ORIENTED_EDGE($,*,*,#761,.F.);
#1076=ORIENTED_EDGE($,*,*,#671,.T.);
#1077=ORIENTED_EDGE($,*,*,#763,.T.);
#1078=ORIENTED_EDGE($,*,*,#702,.T.);
#1079=ORIENTED_EDGE($,*,*,#764,.T.);
#1080=ORIENTED_EDGE($,*,*,#607,.F.);
#1081=ORIENTED_EDGE($,*,*,#716,.F.);
#1082=ORIENTED_EDGE($,*,*,#765,.T.);
#1083=ORIENTED_EDGE($,*,*,#763,.F.);
#1084=ORIENTED_EDGE($,*,*,#670,.T.);
#1085=ORIENTED_EDGE($,*,*,#766,.T.);
#1086=ORIENTED_EDGE($,*,*,#701,.T.);
#1087=ORIENTED_EDGE($,*,*,#767,.T.);
#1088=ORIENTED_EDGE($,*,*,#608,.F.);
#1089=ORIENTED_EDGE($,*,*,#764,.F.);
#1090=ORIENTED_EDGE($,*,*,#768,.T.);
#1091=ORIENTED_EDGE($,*,*,#766,.F.);
#1092=ORIENTED_EDGE($,*,*,#669,.T.);
#1093=ORIENTED_EDGE($,*,*,#769,.T.);
#1094=ORIENTED_EDGE($,*,*,#700,.T.);
#1095=ORIENTED_EDGE($,*,*,#770,.T.);
#1096=ORIENTED_EDGE($,*,*,#609,.F.);
#1097=ORIENTED_EDGE($,*,*,#767,.F.);
#1098=ORIENTED_EDGE($,*,*,#771,.T.);
#1099=ORIENTED_EDGE($,*,*,#769,.F.);
#1100=ORIENTED_EDGE($,*,*,#668,.T.);
#1101=ORIENTED_EDGE($,*,*,#646,.T.);
#1102=ORIENTED_EDGE($,*,*,#699,.T.);
#1103=ORIENTED_EDGE($,*,*,#745,.T.);
#1104=ORIENTED_EDGE($,*,*,#610,.F.);
#1105=ORIENTED_EDGE($,*,*,#770,.F.);
#1106=ORIENTED_EDGE($,*,*,#633,.T.);
#1107=ORIENTED_EDGE($,*,*,#747,.T.);
#1108=ORIENTED_EDGE($,*,*,#712,.F.);
#1109=ORIENTED_EDGE($,*,*,#760,.F.);
#1110=ORIENTED_EDGE($,*,*,#762,.F.);
#1111=ORIENTED_EDGE($,*,*,#765,.F.);
#1112=ORIENTED_EDGE($,*,*,#768,.F.);
#1113=ORIENTED_EDGE($,*,*,#771,.F.);
#1114=ORIENTED_EDGE($,*,*,#645,.F.);
#1115=ORIENTED_EDGE($,*,*,#687,.T.);
#1116=ORIENTED_EDGE($,*,*,#657,.T.);
#1117=ORIENTED_EDGE($,*,*,#686,.T.);
#1118=ORIENTED_EDGE($,*,*,#758,.T.);
#1119=ORIENTED_EDGE($,*,*,#683,.T.);
#1120=ORIENTED_EDGE($,*,*,#681,.T.);
#1121=ORIENTED_EDGE($,*,*,#759,.T.);
#1122=ORIENTED_EDGE($,*,*,#740,.F.);
#1123=ORIENTED_EDGE($,*,*,#724,.T.);
#1124=PLANE($,#1276);
#1125=PLANE($,#1286);
#1126=PLANE($,#1291);
#1127=PLANE($,#1296);
#1128=PLANE($,#1302);
#1129=PLANE($,#1305);
#1130=PLANE($,#1308);
#1131=PLANE($,#1315);
#1132=PLANE($,#1321);
#1133=PLANE($,#1323);
#1134=PLANE($,#1332);
#1135=PLANE($,#1336);
#1136=PLANE($,#1343);
#1137=PLANE($,#1349);
#1138=PLANE($,#1356);
#1139=PLANE($,#1357);
#1140=PLANE($,#1361);
#1141=PLANE($,#1362);
#1142=PLANE($,#1366);
#1143=PLANE($,#1367);
#1144=PLANE($,#1380);
#1145=PLANE($,#1382);
#1146=PLANE($,#1383);
#1147=PLANE($,#1388);
#1148=PLANE($,#1392);
#1149=PLANE($,#1393);
#1150=PLANE($,#1397);
#1151=PLANE($,#1398);
#1152=STYLED_ITEM($,(#2137),#1213);
#1153=STYLED_ITEM($,(#2137),#1214);
#1154=STYLED_ITEM($,(#2137),#1215);
#1155=STYLED_ITEM($,(#2137),#1216);
#1156=STYLED_ITEM($,(#2137),#1217);
#1157=STYLED_ITEM($,(#2137),#1218);
#1158=STYLED_ITEM($,(#2137),#1219);
#1159=STYLED_ITEM($,(#2137),#1220);
#1160=STYLED_ITEM($,(#2137),#1221);
#1161=STYLED_ITEM($,(#2137),#1222);
#1162=STYLED_ITEM($,(#2137),#1223);
#1163=STYLED_ITEM($,(#2137),#1224);
#1164=STYLED_ITEM($,(#2137),#1225);
#1165=STYLED_ITEM($,(#2137),#1226);
#1166=STYLED_ITEM($,(#2137),#1227);
#1167=STYLED_ITEM($,(#2137),#1228);
#1168=STYLED_ITEM($,(#2137),#1229);
#1169=STYLED_ITEM($,(#2137),#1230);
#1170=STYLED_ITEM($,(#2137),#1231);
#1171=STYLED_ITEM($,(#2137),#1232);
#1172=STYLED_ITEM($,(#2137),#1233);
#1173=STYLED_ITEM($,(#2137),#1234);
#1174=STYLED_ITEM($,(#2137),#1235);
#1175=STYLED_ITEM($,(#2137),#1236);
#1176=STYLED_ITEM($,(#2137),#1237);
#1177=STYLED_ITEM($,(#2137),#1238);
#1178=STYLED_ITEM($,(#2137),#1239);
#1179=STYLED_ITEM($,(#2137),#1240);
#1180=STYLED_ITEM($,(#2137),#1241);
#1181=STYLED_ITEM($,(#2137),#1242);
#1182=STYLED_ITEM($,(#2137),#1243);
#1183=STYLED_ITEM($,(#2137),#1244);
#1184=STYLED_ITEM($,(#2137),#1245);
#1185=STYLED_ITEM($,(#2137),#1246);
#1186=STYLED_ITEM($,(#2137),#1247);
#1187=STYLED_ITEM($,(#2137),#1248);
#1188=STYLED_ITEM($,(#2137),#1249);
#1189=STYLED_ITEM($,(#2137),#1250);
#1190=STYLED_ITEM($,(#2137),#1251);
#1191=STYLED_ITEM($,(#2137),#1252);
#1192=STYLED_ITEM($,(#2137),#1253);
#1193=STYLED_ITEM($,(#2137),#1254);
#1194=STYLED_ITEM($,(#2137),#1255);
#1195=STYLED_ITEM($,(#2137),#1256);
#1196=STYLED_ITEM($,(#2137),#1257);
#1197=STYLED_ITEM($,(#2137),#1258);
#1198=STYLED_ITEM($,(#2137),#1259);
#1199=STYLED_ITEM($,(#2137),#1260);
#1200=STYLED_ITEM($,(#2137),#1261);
#1201=STYLED_ITEM($,(#2137),#1262);
#1202=STYLED_ITEM($,(#2137),#1263);
#1203=STYLED_ITEM($,(#2137),#1264);
#1204=STYLED_ITEM($,(#2137),#1265);
#1205=STYLED_ITEM($,(#2137),#1266);
#1206=STYLED_ITEM($,(#2137),#1267);
#1207=STYLED_ITEM($,(#2137),#1268);
#1208=STYLED_ITEM($,(#2137),#1269);
#1209=STYLED_ITEM($,(#2137),#1270);
#1210=STYLED_ITEM($,(#2137),#1271);
#1211=STYLED_ITEM($,(#2137),#1272);
#1212=STYLED_ITEM($,(#2137),#1274);
#1213=ADVANCED_FACE($,(#56),#1124,.F.);
#1214=ADVANCED_FACE($,(#57),#24,.T.);
#1215=ADVANCED_FACE($,(#58),#1125,.F.);
#1216=ADVANCED_FACE($,(#59),#25,.T.);
#1217=ADVANCED_FACE($,(#60),#1126,.F.);
#1218=ADVANCED_FACE($,(#61),#1127,.T.);
#1219=ADVANCED_FACE($,(#62),#26,.T.);
#1220=ADVANCED_FACE($,(#63),#1128,.F.);
#1221=ADVANCED_FACE($,(#64),#1129,.T.);
#1222=ADVANCED_FACE($,(#65),#1130,.T.);
#1223=ADVANCED_FACE($,(#66),#1131,.F.);
#1224=ADVANCED_FACE($,(#67),#27,.F.);
#1225=ADVANCED_FACE($,(#68),#28,.F.);
#1226=ADVANCED_FACE($,(#69),#29,.F.);
#1227=ADVANCED_FACE($,(#70),#1132,.T.);
#1228=ADVANCED_FACE($,(#71),#30,.F.);
#1229=ADVANCED_FACE($,(#72),#1133,.T.);
#1230=ADVANCED_FACE($,(#73),#31,.F.);
#1231=ADVANCED_FACE($,(#74),#32,.F.);
#1232=ADVANCED_FACE($,(#75),#1134,.F.);
#1233=ADVANCED_FACE($,(#76),#33,.F.);
#1234=ADVANCED_FACE($,(#77),#34,.T.);
#1235=ADVANCED_FACE($,(#78),#1135,.T.);
#1236=ADVANCED_FACE($,(#79,#12),#35,.F.);
#1237=ADVANCED_FACE($,(#80,#13,#14),#1136,.T.);
#1238=ADVANCED_FACE($,(#81),#36,.F.);
#1239=ADVANCED_FACE($,(#82,#15,#16),#1137,.F.);
#1240=ADVANCED_FACE($,(#83),#37,.T.);
#1241=ADVANCED_FACE($,(#84),#1138,.F.);
#1242=ADVANCED_FACE($,(#85,#17,#18),#1139,.F.);
#1243=ADVANCED_FACE($,(#86),#38,.T.);
#1244=ADVANCED_FACE($,(#87),#1140,.F.);
#1245=ADVANCED_FACE($,(#88),#1141,.T.);
#1246=ADVANCED_FACE($,(#89),#39,.T.);
#1247=ADVANCED_FACE($,(#90),#40,.F.);
#1248=ADVANCED_FACE($,(#91),#41,.F.);
#1249=ADVANCED_FACE($,(#92),#1142,.T.);
#1250=ADVANCED_FACE($,(#93),#1143,.F.);
#1251=ADVANCED_FACE($,(#94),#42,.T.);
#1252=ADVANCED_FACE($,(#95),#43,.T.);
#1253=ADVANCED_FACE($,(#96),#44,.T.);
#1254=ADVANCED_FACE($,(#97,#19),#45,.F.);
#1255=ADVANCED_FACE($,(#98,#20),#46,.F.);
#1256=ADVANCED_FACE($,(#99),#47,.F.);
#1257=ADVANCED_FACE($,(#100,#21,#22),#1144,.T.);
#1258=ADVANCED_FACE($,(#101),#48,.T.);
#1259=ADVANCED_FACE($,(#102),#1145,.F.);
#1260=ADVANCED_FACE($,(#103),#1146,.F.);
#1261=ADVANCED_FACE($,(#104),#49,.F.);
#1262=ADVANCED_FACE($,(#105),#50,.T.);
#1263=ADVANCED_FACE($,(#106),#1147,.T.);
#1264=ADVANCED_FACE($,(#107),#51,.T.);
#1265=ADVANCED_FACE($,(#108),#52,.T.);
#1266=ADVANCED_FACE($,(#109),#1148,.T.);
#1267=ADVANCED_FACE($,(#110),#1149,.T.);
#1268=ADVANCED_FACE($,(#111),#53,.T.);
#1269=ADVANCED_FACE($,(#112),#54,.T.);
#1270=ADVANCED_FACE($,(#113),#1150,.T.);
#1271=ADVANCED_FACE($,(#114),#1151,.T.);
#1272=ADVANCED_FACE($,(#115,#23),#55,.F.);
#1273=CLOSED_SHELL($,(#1213,#1214,#1215,#1216,#1217,#1218,#1219,#1220,#1221,
#1222,#1223,#1224,#1225,#1226,#1227,#1228,#1229,#1230,#1231,#1232,#1233,
#1234,#1235,#1236,#1237,#1238,#1239,#1240,#1241,#1242,#1243,#1244,#1245,
#1246,#1247,#1248,#1249,#1250,#1251,#1252,#1253,#1254,#1255,#1256,#1257,
#1258,#1259,#1260,#1261,#1262,#1263,#1264,#1265,#1266,#1267,#1268,#1269,
#1270,#1271,#1272));
#1274=MANIFOLD_SOLID_BREP('ass120728_B4x_Winkel03-04',#1273);
#1275=AXIS2_PLACEMENT_3D('placement',#1762,#1400,#1401);
#1276=AXIS2_PLACEMENT_3D($,#1763,#1402,#1403);
#1277=AXIS2_PLACEMENT_3D($,#1772,#1407,#1408);
#1278=AXIS2_PLACEMENT_3D($,#1776,#1410,#1411);
#1279=AXIS2_PLACEMENT_3D($,#1780,#1413,#1414);
#1280=AXIS2_PLACEMENT_3D($,#1788,#1418,#1419);
#1281=AXIS2_PLACEMENT_3D($,#1792,#1421,#1422);
#1282=AXIS2_PLACEMENT_3D($,#1795,#1424,#1425);
#1283=AXIS2_PLACEMENT_3D($,#1796,#1426,#1427);
#1284=AXIS2_PLACEMENT_3D($,#1799,#1428,#1429);
#1285=AXIS2_PLACEMENT_3D($,#1803,#1431,#1432);
#1286=AXIS2_PLACEMENT_3D($,#1805,#1434,#1435);
#1287=AXIS2_PLACEMENT_3D($,#1814,#1439,#1440);
#1288=AXIS2_PLACEMENT_3D($,#1821,#1444,#1445);
#1289=AXIS2_PLACEMENT_3D($,#1822,#1446,#1447);
#1290=AXIS2_PLACEMENT_3D($,#1827,#1450,#1451);
#1291=AXIS2_PLACEMENT_3D($,#1828,#1452,#1453);
#1292=AXIS2_PLACEMENT_3D($,#1829,#1454,#1455);
#1293=AXIS2_PLACEMENT_3D($,#1835,#1458,#1459);
#1294=AXIS2_PLACEMENT_3D($,#1839,#1461,#1462);
#1295=AXIS2_PLACEMENT_3D($,#1847,#1466,#1467);
#1296=AXIS2_PLACEMENT_3D($,#1849,#1469,#1470);
#1297=AXIS2_PLACEMENT_3D($,#1853,#1472,#1473);
#1298=AXIS2_PLACEMENT_3D($,#1859,#1476,#1477);
#1299=AXIS2_PLACEMENT_3D($,#1863,#1479,#1480);
#1300=AXIS2_PLACEMENT_3D($,#1872,#1486,#1487);
#1301=AXIS2_PLACEMENT_3D($,#1875,#1489,#1490);
#1302=AXIS2_PLACEMENT_3D($,#1876,#1491,#1492);
#1303=AXIS2_PLACEMENT_3D($,#1889,#1499,#1500);
#1304=AXIS2_PLACEMENT_3D($,#1893,#1502,#1503);
#1305=AXIS2_PLACEMENT_3D($,#1897,#1506,#1507);
#1306=AXIS2_PLACEMENT_3D($,#1905,#1511,#1512);
#1307=AXIS2_PLACEMENT_3D($,#1906,#1513,#1514);
#1308=AXIS2_PLACEMENT_3D($,#1907,#1515,#1516);
#1309=AXIS2_PLACEMENT_3D($,#1909,#1517,#1518);
#1310=AXIS2_PLACEMENT_3D($,#1913,#1520,#1521);
#1311=AXIS2_PLACEMENT_3D($,#1917,#1523,#1524);
#1312=AXIS2_PLACEMENT_3D($,#1922,#1527,#1528);
#1313=AXIS2_PLACEMENT_3D($,#1926,#1530,#1531);
#1314=AXIS2_PLACEMENT_3D($,#1929,#1533,#1534);
#1315=AXIS2_PLACEMENT_3D($,#1930,#1535,#1536);
#1316=AXIS2_PLACEMENT_3D($,#1936,#1540,#1541);
#1317=AXIS2_PLACEMENT_3D($,#1938,#1542,#1543);
#1318=AXIS2_PLACEMENT_3D($,#1940,#1545,#1546);
#1319=AXIS2_PLACEMENT_3D($,#1943,#1548,#1549);
#1320=AXIS2_PLACEMENT_3D($,#1944,#1550,#1551);
#1321=AXIS2_PLACEMENT_3D($,#1947,#1554,#1555);
#1322=AXIS2_PLACEMENT_3D($,#1949,#1557,#1558);
#1323=AXIS2_PLACEMENT_3D($,#1951,#1560,#1561);
#1324=AXIS2_PLACEMENT_3D($,#1957,#1564,#1565);
#1325=AXIS2_PLACEMENT_3D($,#1961,#1567,#1568);
#1326=AXIS2_PLACEMENT_3D($,#1964,#1570,#1571);
#1327=AXIS2_PLACEMENT_3D($,#1966,#1572,#1573);
#1328=AXIS2_PLACEMENT_3D($,#1970,#1575,#1576);
#1329=AXIS2_PLACEMENT_3D($,#1973,#1578,#1579);
#1330=AXIS2_PLACEMENT_3D($,#1974,#1580,#1581);
#1331=AXIS2_PLACEMENT_3D($,#1976,#1583,#1584);
#1332=AXIS2_PLACEMENT_3D($,#1979,#1587,#1588);
#1333=AXIS2_PLACEMENT_3D($,#1981,#1590,#1591);
#1334=AXIS2_PLACEMENT_3D($,#1982,#1592,#1593);
#1335=AXIS2_PLACEMENT_3D($,#1983,#1594,#1595);
#1336=AXIS2_PLACEMENT_3D($,#1984,#1596,#1597);
#1337=AXIS2_PLACEMENT_3D($,#1989,#1600,#1601);
#1338=AXIS2_PLACEMENT_3D($,#1995,#1604,#1605);
#1339=AXIS2_PLACEMENT_3D($,#1998,#1607,#1608);
#1340=AXIS2_PLACEMENT_3D($,#2000,#1610,#1611);
#1341=AXIS2_PLACEMENT_3D($,#2002,#1612,#1613);
#1342=AXIS2_PLACEMENT_3D($,#2004,#1614,#1615);
#1343=AXIS2_PLACEMENT_3D($,#2005,#1616,#1617);
#1344=AXIS2_PLACEMENT_3D($,#2010,#1619,#1620);
#1345=AXIS2_PLACEMENT_3D($,#2014,#1623,#1624);
#1346=AXIS2_PLACEMENT_3D($,#2016,#1625,#1626);
#1347=AXIS2_PLACEMENT_3D($,#2017,#1627,#1628);
#1348=AXIS2_PLACEMENT_3D($,#2018,#1629,#1630);
#1349=AXIS2_PLACEMENT_3D($,#2019,#1631,#1632);
#1350=AXIS2_PLACEMENT_3D($,#2024,#1634,#1635);
#1351=AXIS2_PLACEMENT_3D($,#2028,#1638,#1639);
#1352=AXIS2_PLACEMENT_3D($,#2030,#1640,#1641);
#1353=AXIS2_PLACEMENT_3D($,#2032,#1642,#1643);
#1354=AXIS2_PLACEMENT_3D($,#2033,#1644,#1645);
#1355=AXIS2_PLACEMENT_3D($,#2037,#1647,#1648);
#1356=AXIS2_PLACEMENT_3D($,#2039,#1650,#1651);
#1357=AXIS2_PLACEMENT_3D($,#2042,#1654,#1655);
#1358=AXIS2_PLACEMENT_3D($,#2045,#1657,#1658);
#1359=AXIS2_PLACEMENT_3D($,#2047,#1659,#1660);
#1360=AXIS2_PLACEMENT_3D($,#2048,#1661,#1662);
#1361=AXIS2_PLACEMENT_3D($,#2050,#1664,#1665);
#1362=AXIS2_PLACEMENT_3D($,#2051,#1666,#1667);
#1363=AXIS2_PLACEMENT_3D($,#2057,#1671,#1672);
#1364=AXIS2_PLACEMENT_3D($,#2059,#1674,#1675);
#1365=AXIS2_PLACEMENT_3D($,#2062,#1678,#1679);
#1366=AXIS2_PLACEMENT_3D($,#2064,#1681,#1682);
#1367=AXIS2_PLACEMENT_3D($,#2065,#1683,#1684);
#1368=AXIS2_PLACEMENT_3D($,#2070,#1687,#1688);
#1369=AXIS2_PLACEMENT_3D($,#2071,#1689,#1690);
#1370=AXIS2_PLACEMENT_3D($,#2072,#1691,#1692);
#1371=AXIS2_PLACEMENT_3D($,#2073,#1693,#1694);
#1372=AXIS2_PLACEMENT_3D($,#2074,#1695,#1696);
#1373=AXIS2_PLACEMENT_3D($,#2075,#1697,#1698);
#1374=AXIS2_PLACEMENT_3D($,#2076,#1699,#1700);
#1375=AXIS2_PLACEMENT_3D($,#2077,#1701,#1702);
#1376=AXIS2_PLACEMENT_3D($,#2079,#1703,#1704);
#1377=AXIS2_PLACEMENT_3D($,#2080,#1705,#1706);
#1378=AXIS2_PLACEMENT_3D($,#2082,#1707,#1708);
#1379=AXIS2_PLACEMENT_3D($,#2083,#1709,#1710);
#1380=AXIS2_PLACEMENT_3D($,#2085,#1712,#1713);
#1381=AXIS2_PLACEMENT_3D($,#2086,#1714,#1715);
#1382=AXIS2_PLACEMENT_3D($,#2087,#1716,#1717);
#1383=AXIS2_PLACEMENT_3D($,#2089,#1719,#1720);
#1384=AXIS2_PLACEMENT_3D($,#2090,#1721,#1722);
#1385=AXIS2_PLACEMENT_3D($,#2091,#1723,#1724);
#1386=AXIS2_PLACEMENT_3D($,#2092,#1725,#1726);
#1387=AXIS2_PLACEMENT_3D($,#2094,#1727,#1728);
#1388=AXIS2_PLACEMENT_3D($,#2096,#1730,#1731);
#1389=AXIS2_PLACEMENT_3D($,#2100,#1734,#1735);
#1390=AXIS2_PLACEMENT_3D($,#2102,#1737,#1738);
#1391=AXIS2_PLACEMENT_3D($,#2104,#1739,#1740);
#1392=AXIS2_PLACEMENT_3D($,#2106,#1742,#1743);
#1393=AXIS2_PLACEMENT_3D($,#2108,#1745,#1746);
#1394=AXIS2_PLACEMENT_3D($,#2112,#1749,#1750);
#1395=AXIS2_PLACEMENT_3D($,#2114,#1752,#1753);
#1396=AXIS2_PLACEMENT_3D($,#2115,#1754,#1755);
#1397=AXIS2_PLACEMENT_3D($,#2116,#1756,#1757);
#1398=AXIS2_PLACEMENT_3D($,#2117,#1758,#1759);
#1399=AXIS2_PLACEMENT_3D($,#2118,#1760,#1761);
#1400=DIRECTION('axis',(0.,0.,1.));
#1401=DIRECTION('refdir',(1.,0.,0.));
#1402=DIRECTION('center_axis',(0.,-1.,0.));
#1403=DIRECTION('ref_axis',(0.,0.,-1.));
#1404=DIRECTION($,(0.00872653549837438,0.,-0.999961923064171));
#1405=DIRECTION($,(0.999961923064171,0.,0.00872653549837421));
#1406=DIRECTION($,(0.00872653549837439,0.,-0.999961923064171));
#1407=DIRECTION('center_axis',(0.,-1.,0.));
#1408=DIRECTION('ref_axis',(0.,0.,-1.));
#1409=DIRECTION($,(0.774339056533827,0.,-0.632770910777592));
#1410=DIRECTION('center_axis',(0.,-1.,0.));
#1411=DIRECTION('ref_axis',(0.,0.,-1.));
#1412=DIRECTION($,(0.774339056533827,0.,0.632770910777591));
#1413=DIRECTION('center_axis',(0.,-1.,0.));
#1414=DIRECTION('ref_axis',(0.,0.,-1.));
#1415=DIRECTION($,(0.00872653549837408,0.,0.999961923064171));
#1416=DIRECTION($,(-0.999961923064171,0.,0.00872653549837448));
#1417=DIRECTION($,(0.00872653549837408,0.,0.999961923064171));
#1418=DIRECTION('center_axis',(0.,1.,0.));
#1419=DIRECTION('ref_axis',(0.,0.,1.));
#1420=DIRECTION($,(0.774339056533828,0.,0.632770910777591));
#1421=DIRECTION('center_axis',(0.,1.,0.));
#1422=DIRECTION('ref_axis',(0.,0.,1.));
#1423=DIRECTION($,(0.774339056533827,0.,-0.632770910777591));
#1424=DIRECTION('center_axis',(0.,1.,0.));
#1425=DIRECTION('ref_axis',(0.,0.,1.));
#1426=DIRECTION('center_axis',(0.999961923064171,0.,0.00872653549837439));
#1427=DIRECTION('ref_axis',(-0.0087265354983744,0.,0.999961923064171));
#1428=DIRECTION('center_axis',(0.999961923064171,0.,0.00872653549837439));
#1429=DIRECTION('ref_axis',(0.0087265354983744,0.,-0.999961923064171));
#1430=DIRECTION($,(0.999961923064171,0.,0.00872653549837495));
#1431=DIRECTION('center_axis',(0.999961923064171,0.,0.00872653549837439));
#1432=DIRECTION('ref_axis',(0.0087265354983744,0.,-0.999961923064171));
#1433=DIRECTION($,(-0.999961923064171,0.,-0.00872653549837411));
#1434=DIRECTION('center_axis',(0.,-1.,0.));
#1435=DIRECTION('ref_axis',(0.,0.,-1.));
#1436=DIRECTION($,(1.,0.,0.));
#1437=DIRECTION($,(0.,0.,1.));
#1438=DIRECTION($,(1.,0.,0.));
#1439=DIRECTION('center_axis',(0.,1.,0.));
#1440=DIRECTION('ref_axis',(0.,0.,1.));
#1441=DIRECTION($,(0.00872653549830059,0.,0.999961923064172));
#1442=DIRECTION($,(0.999961923064171,0.,-0.00872653549837422));
#1443=DIRECTION($,(0.00872653549830059,0.,0.999961923064172));
#1444=DIRECTION('center_axis',(0.,-1.,0.));
#1445=DIRECTION('ref_axis',(1.,0.,0.));
#1446=DIRECTION('center_axis',(0.,-1.,0.));
#1447=DIRECTION('ref_axis',(0.,0.,1.));
#1448=DIRECTION($,(0.,1.,0.));
#1449=DIRECTION($,(0.,1.,0.));
#1450=DIRECTION('center_axis',(0.,1.,0.));
#1451=DIRECTION('ref_axis',(0.,0.,1.));
#1452=DIRECTION('center_axis',(-0.999961923064171,0.,0.00872653549837411));
#1453=DIRECTION('ref_axis',(0.00872653549837423,0.,0.999961923064171));
#1454=DIRECTION('center_axis',(-0.999961923064171,0.,0.00872653549837411));
#1455=DIRECTION('ref_axis',(0.00872653549837411,0.,0.999961923064171));
#1456=DIRECTION($,(0.,1.,0.));
#1457=DIRECTION($,(0.00872653549837413,0.,0.999961923064171));
#1458=DIRECTION('center_axis',(-0.999961923064171,0.,0.00872653549837411));
#1459=DIRECTION('ref_axis',(0.00872653549837411,0.,0.999961923064171));
#1460=DIRECTION($,(0.,1.,0.));
#1461=DIRECTION('center_axis',(-0.999961923064171,0.,0.00872653549837411));
#1462=DIRECTION('ref_axis',(0.00872653549837411,0.,0.999961923064171));
#1463=DIRECTION($,(-0.00872653549837413,0.,-0.999961923064171));
#1464=DIRECTION($,(0.,1.,0.));
#1465=DIRECTION($,(0.00872653549837408,0.,0.999961923064171));
#1466=DIRECTION('center_axis',(-0.999961923064171,0.,0.00872653549837411));
#1467=DIRECTION('ref_axis',(0.00872653549837411,0.,0.999961923064171));
#1468=DIRECTION($,(-0.00872653549830041,0.,-0.999961923064172));
#1469=DIRECTION('center_axis',(0.999961923064171,0.,0.00872653549837439));
#1470=DIRECTION('ref_axis',(0.00872653549837423,0.,-0.999961923064171));
#1471=DIRECTION($,(0.00872653549838696,0.,-0.999961923064171));
#1472=DIRECTION('center_axis',(0.999961923064171,0.,0.00872653549837439));
#1473=DIRECTION('ref_axis',(0.0087265354983744,0.,-0.999961923064171));
#1474=DIRECTION($,(0.,1.,0.));
#1475=DIRECTION($,(0.00872653549837437,0.,-0.999961923064171));
#1476=DIRECTION('center_axis',(0.999961923064171,0.,0.00872653549837439));
#1477=DIRECTION('ref_axis',(0.0087265354983744,0.,-0.999961923064171));
#1478=DIRECTION($,(0.,-1.,0.));
#1479=DIRECTION('center_axis',(0.999961923064171,0.,0.00872653549837439));
#1480=DIRECTION('ref_axis',(0.0087265354983744,0.,-0.999961923064171));
#1481=DIRECTION($,(0.00872653549837437,0.,-0.999961923064171));
#1482=DIRECTION($,(0.,1.,0.));
#1483=DIRECTION($,(0.00872653549837438,0.,-0.999961923064171));
#1484=DIRECTION($,(0.00872653549838051,0.,-0.999961923064171));
#1485=DIRECTION($,(0.,1.,0.));
#1486=DIRECTION('center_axis',(-0.999961923064171,0.,-0.00872653549837439));
#1487=DIRECTION('ref_axis',(0.0087265354983744,0.,-0.999961923064171));
#1488=DIRECTION($,(-0.999961923064171,0.,-0.00872653549837411));
#1489=DIRECTION('center_axis',(0.999961923064171,0.,0.00872653549837439));
#1490=DIRECTION('ref_axis',(0.0087265354983744,0.,-0.999961923064171));
#1491=DIRECTION('center_axis',(0.999961923064171,0.,0.00872653549837439));
#1492=DIRECTION('ref_axis',(0.00872653549837423,0.,-0.999961923064171));
#1493=DIRECTION($,(0.00872653549838105,0.,-0.999961923064171));
#1494=DIRECTION($,(0.,1.,0.));
#1495=DIRECTION($,(-0.00872653549821422,0.,0.999961923064173));
#1496=DIRECTION($,(0.00872653549837439,0.,-0.999961923064171));
#1497=DIRECTION($,(0.,1.,0.));
#1498=DIRECTION($,(-0.00872653549837461,0.,0.999961923064171));
#1499=DIRECTION('center_axis',(0.999961923064171,0.,0.00872653549837439));
#1500=DIRECTION('ref_axis',(0.0087265354983744,0.,-0.999961923064171));
#1501=DIRECTION($,(0.,1.,0.));
#1502=DIRECTION('center_axis',(0.999961923064171,0.,0.00872653549837439));
#1503=DIRECTION('ref_axis',(0.0087265354983744,0.,-0.999961923064171));
#1504=DIRECTION($,(0.00872653549837461,0.,-0.999961923064171));
#1505=DIRECTION($,(0.,1.,0.));
#1506=DIRECTION('center_axis',(0.,1.,0.));
#1507=DIRECTION('ref_axis',(0.,0.,1.));
#1508=DIRECTION($,(1.,0.,0.));
#1509=DIRECTION($,(0.,0.,-1.));
#1510=DIRECTION($,(1.,0.,0.));
#1511=DIRECTION('center_axis',(0.,-1.,0.));
#1512=DIRECTION('ref_axis',(1.,0.,0.));
#1513=DIRECTION('center_axis',(0.,1.,0.));
#1514=DIRECTION('ref_axis',(0.,0.,1.));
#1515=DIRECTION('center_axis',(0.,-1.,0.));
#1516=DIRECTION('ref_axis',(0.,0.,-1.));
#1517=DIRECTION('center_axis',(0.,1.,0.));
#1518=DIRECTION('ref_axis',(0.,0.,1.));
#1519=DIRECTION($,(0.774339056533827,0.,-0.632770910777591));
#1520=DIRECTION('center_axis',(0.,1.,0.));
#1521=DIRECTION('ref_axis',(0.,0.,1.));
#1522=DIRECTION($,(0.774339056533828,0.,0.632770910777591));
#1523=DIRECTION('center_axis',(0.,1.,0.));
#1524=DIRECTION('ref_axis',(0.,0.,1.));
#1525=DIRECTION($,(0.00872653549837408,0.,0.999961923064171));
#1526=DIRECTION($,(-0.999961923064171,0.,0.00872653549837374));
#1527=DIRECTION('center_axis',(0.,-1.,0.));
#1528=DIRECTION('ref_axis',(0.,0.,-1.));
#1529=DIRECTION($,(0.774339056533827,0.,0.632770910777591));
#1530=DIRECTION('center_axis',(0.,-1.,0.));
#1531=DIRECTION('ref_axis',(0.,0.,-1.));
#1532=DIRECTION($,(0.774339056533827,0.,-0.632770910777592));
#1533=DIRECTION('center_axis',(0.,-1.,0.));
#1534=DIRECTION('ref_axis',(0.,0.,-1.));
#1535=DIRECTION('center_axis',(-0.632770910777591,0.,0.774339056533828));
#1536=DIRECTION('ref_axis',(0.774339056533828,0.,0.63277091077759));
#1537=DIRECTION($,(0.,1.,0.));
#1538=DIRECTION($,(-0.774339056533827,0.,-0.632770910777591));
#1539=DIRECTION($,(0.,1.,0.));
#1540=DIRECTION('center_axis',(0.,-1.,0.));
#1541=DIRECTION('ref_axis',(0.,0.,1.));
#1542=DIRECTION('center_axis',(0.,1.,0.));
#1543=DIRECTION('ref_axis',(0.,0.,1.));
#1544=DIRECTION($,(0.,1.,0.));
#1545=DIRECTION('center_axis',(0.,-1.,0.));
#1546=DIRECTION('ref_axis',(0.,0.,1.));
#1547=DIRECTION($,(0.,1.,0.));
#1548=DIRECTION('center_axis',(0.,1.,0.));
#1549=DIRECTION('ref_axis',(0.,0.,1.));
#1550=DIRECTION('center_axis',(0.999961923064171,0.,0.00872653549837439));
#1551=DIRECTION('ref_axis',(-0.0087265354983744,0.,0.999961923064171));
#1552=DIRECTION($,(-0.999961923064171,0.,-0.00872653549837273));
#1553=DIRECTION($,(-0.999961923064171,0.,-0.00872653549837273));
#1554=DIRECTION('center_axis',(-0.00872653549837439,0.,0.999961923064171));
#1555=DIRECTION('ref_axis',(0.999961923064171,0.,0.00872653549837423));
#1556=DIRECTION($,(-0.999961923064171,0.,-0.00872653549837273));
#1557=DIRECTION('center_axis',(0.999961923064171,0.,0.00872653549837439));
#1558=DIRECTION('ref_axis',(-0.0087265354983744,0.,0.999961923064171));
#1559=DIRECTION($,(-0.999961923064171,0.,-0.00872653549837273));
#1560=DIRECTION('center_axis',(0.,-1.,0.));
#1561=DIRECTION('ref_axis',(0.,0.,-1.));
#1562=DIRECTION($,(0.00872653549837415,0.,0.999961923064171));
#1563=DIRECTION($,(0.999961923064171,0.,-0.00872653549837274));
#1564=DIRECTION('center_axis',(0.,-1.,0.));
#1565=DIRECTION('ref_axis',(0.,0.,-1.));
#1566=DIRECTION($,(0.774339056533827,0.,0.632770910777591));
#1567=DIRECTION('center_axis',(0.,-1.,0.));
#1568=DIRECTION('ref_axis',(0.,0.,-1.));
#1569=DIRECTION($,(0.774339056533827,0.,-0.632770910777592));
#1570=DIRECTION('center_axis',(0.,-1.,0.));
#1571=DIRECTION('ref_axis',(0.,0.,-1.));
#1572=DIRECTION('center_axis',(0.,1.,0.));
#1573=DIRECTION('ref_axis',(0.,0.,1.));
#1574=DIRECTION($,(0.774339056533827,0.,-0.632770910777591));
#1575=DIRECTION('center_axis',(0.,1.,0.));
#1576=DIRECTION('ref_axis',(0.,0.,1.));
#1577=DIRECTION($,(0.774339056533828,0.,0.632770910777591));
#1578=DIRECTION('center_axis',(0.,1.,0.));
#1579=DIRECTION('ref_axis',(0.,0.,1.));
#1580=DIRECTION('center_axis',(0.,-1.,0.));
#1581=DIRECTION('ref_axis',(0.,0.,1.));
#1582=DIRECTION($,(0.,1.,0.));
#1583=DIRECTION('center_axis',(0.,-1.,0.));
#1584=DIRECTION('ref_axis',(0.,0.,1.));
#1585=DIRECTION($,(0.,1.,0.));
#1586=DIRECTION($,(0.,1.,0.));
#1587=DIRECTION('center_axis',(-0.632770910777591,0.,0.774339056533828));
#1588=DIRECTION('ref_axis',(0.774339056533828,0.,0.63277091077759));
#1589=DIRECTION($,(0.,1.,0.));
#1590=DIRECTION('center_axis',(0.,-1.,0.));
#1591=DIRECTION('ref_axis',(0.,0.,1.));
#1592=DIRECTION('center_axis',(0.999961923064171,0.,-0.00872653549837411));
#1593=DIRECTION('ref_axis',(0.00872653549837411,0.,0.999961923064171));
#1594=DIRECTION('center_axis',(-0.999961923064171,0.,0.00872653549837411));
#1595=DIRECTION('ref_axis',(0.00872653549837411,0.,0.999961923064171));
#1596=DIRECTION('center_axis',(-0.999961923064171,0.,0.00872653549837411));
#1597=DIRECTION('ref_axis',(0.00872653549837423,0.,0.999961923064171));
#1598=DIRECTION($,(0.,1.,0.));
#1599=DIRECTION($,(0.00872653549830059,0.,0.999961923064172));
#1600=DIRECTION('center_axis',(-0.999961923064171,0.,0.00872653549837411));
#1601=DIRECTION('ref_axis',(0.00872653549837411,0.,0.999961923064171));
#1602=DIRECTION($,(0.,1.,0.));
#1603=DIRECTION($,(0.00872653549837412,0.,0.999961923064171));
#1604=DIRECTION('center_axis',(-0.999961923064171,0.,0.00872653549837411));
#1605=DIRECTION('ref_axis',(0.00872653549837411,0.,0.999961923064171));
#1606=DIRECTION($,(0.,1.,0.));
#1607=DIRECTION('center_axis',(-0.999961923064171,0.,0.00872653549837411));
#1608=DIRECTION('ref_axis',(0.00872653549837411,0.,0.999961923064171));
#1609=DIRECTION($,(0.,1.,0.));
#1610=DIRECTION('center_axis',(0.,0.,-1.));
#1611=DIRECTION('ref_axis',(1.,0.,0.));
#1612=DIRECTION('center_axis',(0.,0.,1.));
#1613=DIRECTION('ref_axis',(1.,0.,0.));
#1614=DIRECTION('center_axis',(0.,0.,1.));
#1615=DIRECTION('ref_axis',(1.,0.,0.));
#1616=DIRECTION('center_axis',(0.,0.,1.));
#1617=DIRECTION('ref_axis',(1.,0.,0.));
#1618=DIRECTION($,(0.,1.,0.));
#1619=DIRECTION('center_axis',(0.,0.,1.));
#1620=DIRECTION('ref_axis',(1.,0.,0.));
#1621=DIRECTION($,(1.,0.,0.));
#1622=DIRECTION($,(0.,1.,0.));
#1623=DIRECTION('center_axis',(0.,0.,1.));
#1624=DIRECTION('ref_axis',(1.,0.,0.));
#1625=DIRECTION('center_axis',(0.,0.,1.));
#1626=DIRECTION('ref_axis',(1.,0.,0.));
#1627=DIRECTION('center_axis',(0.,-1.,0.));
#1628=DIRECTION('ref_axis',(0.,0.,1.));
#1629=DIRECTION('center_axis',(0.,1.,0.));
#1630=DIRECTION('ref_axis',(0.,0.,1.));
#1631=DIRECTION('center_axis',(0.,0.,1.));
#1632=DIRECTION('ref_axis',(1.,0.,0.));
#1633=DIRECTION($,(0.,1.,0.));
#1634=DIRECTION('center_axis',(0.,0.,1.));
#1635=DIRECTION('ref_axis',(1.,0.,0.));
#1636=DIRECTION($,(-1.,0.,0.));
#1637=DIRECTION($,(0.,1.,0.));
#1638=DIRECTION('center_axis',(0.,0.,1.));
#1639=DIRECTION('ref_axis',(1.,0.,0.));
#1640=DIRECTION('center_axis',(0.,0.,1.));
#1641=DIRECTION('ref_axis',(1.,0.,0.));
#1642=DIRECTION('center_axis',(0.,0.,1.));
#1643=DIRECTION('ref_axis',(1.,0.,0.));
#1644=DIRECTION('center_axis',(0.,0.,1.));
#1645=DIRECTION('ref_axis',(-1.,0.,0.));
#1646=DIRECTION($,(0.,0.,-1.));
#1647=DIRECTION('center_axis',(0.,0.,1.));
#1648=DIRECTION('ref_axis',(1.,0.,0.));
#1649=DIRECTION($,(0.,0.,1.));
#1650=DIRECTION('center_axis',(0.,1.,0.));
#1651=DIRECTION('ref_axis',(0.,0.,1.));
#1652=DIRECTION($,(-1.,0.,0.));
#1653=DIRECTION($,(0.999961923064171,0.,-0.00872653549837422));
#1654=DIRECTION('center_axis',(0.,0.,1.));
#1655=DIRECTION('ref_axis',(1.,0.,0.));
#1656=DIRECTION($,(0.,1.,0.));
#1657=DIRECTION('center_axis',(0.,0.,1.));
#1658=DIRECTION('ref_axis',(1.,0.,0.));
#1659=DIRECTION('center_axis',(0.,0.,1.));
#1660=DIRECTION('ref_axis',(1.,0.,0.));
#1661=DIRECTION('center_axis',(0.,0.,1.));
#1662=DIRECTION('ref_axis',(0.,1.,0.));
#1663=DIRECTION($,(0.,0.,-1.));
#1664=DIRECTION('center_axis',(1.,0.,0.));
#1665=DIRECTION('ref_axis',(0.,0.,-1.));
#1666=DIRECTION('center_axis',(1.,0.,0.));
#1667=DIRECTION('ref_axis',(0.,0.,-1.));
#1668=DIRECTION($,(0.,1.,0.));
#1669=DIRECTION($,(0.,0.,-1.));
#1670=DIRECTION($,(0.,0.,1.));
#1671=DIRECTION('center_axis',(0.,-1.,0.));
#1672=DIRECTION('ref_axis',(0.,0.,1.));
#1673=DIRECTION($,(0.,1.,0.));
#1674=DIRECTION('center_axis',(-0.999961923064171,0.,0.00872653549837411));
#1675=DIRECTION('ref_axis',(-0.00872653549837411,0.,-0.999961923064171));
#1676=DIRECTION($,(0.999961923064171,0.,-0.00872653549837243));
#1677=DIRECTION($,(0.999961923064171,0.,-0.00872653549837274));
#1678=DIRECTION('center_axis',(-0.999961923064171,0.,0.00872653549837411));
#1679=DIRECTION('ref_axis',(-0.00872653549837411,0.,-0.999961923064171));
#1680=DIRECTION($,(0.999961923064171,0.,-0.00872653549837243));
#1681=DIRECTION('center_axis',(0.00872653549837412,0.,0.999961923064171));
#1682=DIRECTION('ref_axis',(0.999961923064171,0.,-0.00872653549837423));
#1683=DIRECTION('center_axis',(0.,1.,0.));
#1684=DIRECTION('ref_axis',(0.,0.,1.));
#1685=DIRECTION($,(0.,0.,-1.));
#1686=DIRECTION($,(1.,0.,0.));
#1687=DIRECTION('center_axis',(0.,1.,0.));
#1688=DIRECTION('ref_axis',(0.,0.,1.));
#1689=DIRECTION('center_axis',(0.,1.,0.));
#1690=DIRECTION('ref_axis',(0.,0.,1.));
#1691=DIRECTION('center_axis',(-0.999961923064171,0.,0.00872653549837411));
#1692=DIRECTION('ref_axis',(-0.00872653549837411,0.,-0.999961923064171));
#1693=DIRECTION('center_axis',(0.,0.,-1.));
#1694=DIRECTION('ref_axis',(1.,0.,0.));
#1695=DIRECTION('center_axis',(0.,0.,1.));
#1696=DIRECTION('ref_axis',(1.,0.,0.));
#1697=DIRECTION('center_axis',(0.,0.,1.));
#1698=DIRECTION('ref_axis',(-1.,0.,0.));
#1699=DIRECTION('center_axis',(0.,0.,1.));
#1700=DIRECTION('ref_axis',(1.,0.,0.));
#1701=DIRECTION('center_axis',(0.,0.,-1.));
#1702=DIRECTION('ref_axis',(1.,0.,0.));
#1703=DIRECTION('center_axis',(0.,0.,1.));
#1704=DIRECTION('ref_axis',(1.,0.,0.));
#1705=DIRECTION('center_axis',(0.,0.,-1.));
#1706=DIRECTION('ref_axis',(1.,0.,0.));
#1707=DIRECTION('center_axis',(0.,0.,1.));
#1708=DIRECTION('ref_axis',(1.,0.,0.));
#1709=DIRECTION('center_axis',(0.,-1.,0.));
#1710=DIRECTION('ref_axis',(0.,0.,1.));
#1711=DIRECTION($,(0.,1.,0.));
#1712=DIRECTION('center_axis',(0.,0.,1.));
#1713=DIRECTION('ref_axis',(1.,0.,0.));
#1714=DIRECTION('center_axis',(0.,-1.,0.));
#1715=DIRECTION('ref_axis',(0.,0.,1.));
#1716=DIRECTION('center_axis',(0.632770910777591,0.,0.774339056533827));
#1717=DIRECTION('ref_axis',(0.774339056533827,0.,-0.632770910777591));
#1718=DIRECTION($,(-0.774339056533827,0.,0.632770910777591));
#1719=DIRECTION('center_axis',(0.632770910777591,0.,0.774339056533827));
#1720=DIRECTION('ref_axis',(0.774339056533827,0.,-0.632770910777591));
#1721=DIRECTION('center_axis',(0.,-1.,0.));
#1722=DIRECTION('ref_axis',(0.,0.,1.));
#1723=DIRECTION('center_axis',(0.,1.,0.));
#1724=DIRECTION('ref_axis',(0.,0.,1.));
#1725=DIRECTION('center_axis',(0.,-1.,0.));
#1726=DIRECTION('ref_axis',(0.,0.,1.));
#1727=DIRECTION('center_axis',(0.,1.,0.));
#1728=DIRECTION('ref_axis',(0.,0.,1.));
#1729=DIRECTION($,(0.,1.,0.));
#1730=DIRECTION('center_axis',(-0.632770910777591,0.,0.774339056533828));
#1731=DIRECTION('ref_axis',(0.774339056533828,0.,0.632770910777591));
#1732=DIRECTION($,(0.774339056533828,0.,0.632770910777591));
#1733=DIRECTION($,(0.,1.,0.));
#1734=DIRECTION('center_axis',(0.,-1.,0.));
#1735=DIRECTION('ref_axis',(0.,0.,1.));
#1736=DIRECTION($,(0.,1.,0.));
#1737=DIRECTION('center_axis',(0.,-1.,0.));
#1738=DIRECTION('ref_axis',(0.,0.,1.));
#1739=DIRECTION('center_axis',(0.,1.,0.));
#1740=DIRECTION('ref_axis',(0.,0.,1.));
#1741=DIRECTION($,(0.,1.,0.));
#1742=DIRECTION('center_axis',(-0.632770910777591,0.,0.774339056533828));
#1743=DIRECTION('ref_axis',(0.774339056533828,0.,0.632770910777591));
#1744=DIRECTION($,(0.,1.,0.));
#1745=DIRECTION('center_axis',(0.632770910777591,0.,0.774339056533827));
#1746=DIRECTION('ref_axis',(0.774339056533827,0.,-0.632770910777591));
#1747=DIRECTION($,(0.774339056533827,0.,-0.632770910777591));
#1748=DIRECTION($,(0.,1.,0.));
#1749=DIRECTION('center_axis',(0.,-1.,0.));
#1750=DIRECTION('ref_axis',(0.,0.,1.));
#1751=DIRECTION($,(0.,1.,0.));
#1752=DIRECTION('center_axis',(0.,-1.,0.));
#1753=DIRECTION('ref_axis',(0.,0.,1.));
#1754=DIRECTION('center_axis',(0.,1.,0.));
#1755=DIRECTION('ref_axis',(0.,0.,1.));
#1756=DIRECTION('center_axis',(0.632770910777591,0.,0.774339056533827));
#1757=DIRECTION('ref_axis',(0.774339056533827,0.,-0.632770910777591));
#1758=DIRECTION('center_axis',(0.,1.,0.));
#1759=DIRECTION('ref_axis',(0.,0.,1.));
#1760=DIRECTION('center_axis',(0.,0.,-1.));
#1761=DIRECTION('ref_axis',(1.,0.,0.));
#1762=CARTESIAN_POINT('',(0.,0.,0.));
#1763=CARTESIAN_POINT('Origin',(18.9324093137965,60.,6.2));
#1764=CARTESIAN_POINT('',(70.077502040809,60.,96.7212286356167));
#1765=CARTESIAN_POINT('',(70.8236076919126,60.,11.2259892218159));
#1766=CARTESIAN_POINT($,(70.077502040809,60.,96.7212286356167));
#1767=CARTESIAN_POINT('',(67.8237219227201,60.,11.1998096153209));
#1768=CARTESIAN_POINT($,(67.8237219227201,60.,11.1998096153209));
#1769=CARTESIAN_POINT('',(67.0776162716165,60.,96.6950490291216));
#1770=CARTESIAN_POINT($,(67.0776162716165,60.,96.6950490291216));
#1771=CARTESIAN_POINT('',(65.9026050322994,60.,99.145009096435));
#1772=CARTESIAN_POINT('Origin',(63.8777381178112,60.,96.6671241155268));
#1773=CARTESIAN_POINT('',(48.5248669144883,60.,113.345671045845));
#1774=CARTESIAN_POINT($,(48.524866914488,60.,113.345671045845));
#1775=CARTESIAN_POINT('',(44.4751330855117,60.,113.345671045845));
#1776=CARTESIAN_POINT('Origin',(46.5,60.,110.867786064937));
#1777=CARTESIAN_POINT('',(27.0973949677005,60.,99.145009096435));
#1778=CARTESIAN_POINT($,(27.0973949677005,60.,99.1450090964349));
#1779=CARTESIAN_POINT('',(25.9223837283834,60.,96.6950490291216));
#1780=CARTESIAN_POINT('Origin',(29.1222618821888,60.,96.6671241155268));
#1781=CARTESIAN_POINT('',(25.1762780772799,60.,11.1998096153209));
#1782=CARTESIAN_POINT($,(25.17627807728,60.,11.1998096153209));
#1783=CARTESIAN_POINT('',(22.1763923080875,60.,11.225989221816));
#1784=CARTESIAN_POINT($,(25.1762780772799,60.,11.1998096153209));
#1785=CARTESIAN_POINT('',(22.922497959191,60.,96.7212286356167));
#1786=CARTESIAN_POINT($,(22.1763923080875,60.,11.225989221816));
#1787=CARTESIAN_POINT('',(25.1990822353678,60.,101.468026266036));
#1788=CARTESIAN_POINT('Origin',(29.1222618821888,60.,96.6671241155268));
#1789=CARTESIAN_POINT('',(42.5768203531789,60.,115.668688215446));
#1790=CARTESIAN_POINT($,(25.1990822353675,60.,101.468026266036));
#1791=CARTESIAN_POINT('',(50.4231796468211,60.,115.668688215446));
#1792=CARTESIAN_POINT('Origin',(46.5,60.,110.867786064937));
#1793=CARTESIAN_POINT('',(67.8009177646322,60.,101.468026266036));
#1794=CARTESIAN_POINT($,(50.4231796468213,60.,115.668688215446));
#1795=CARTESIAN_POINT('Origin',(63.8777381178112,60.,96.6671241155268));
#1796=CARTESIAN_POINT('Origin',(67.8237219227201,5.,11.1998096153209));
#1797=CARTESIAN_POINT('',(70.8236076919126,0.,11.2259892218159));
#1798=CARTESIAN_POINT('',(70.8672403694044,5.,6.22617960649509));
#1799=CARTESIAN_POINT('Origin',(70.8236076919126,5.,11.225989221816));
#1800=CARTESIAN_POINT('',(67.8237219227201,0.,11.1998096153209));
#1801=CARTESIAN_POINT($,(67.8237219227201,0.,11.1998096153209));
#1802=CARTESIAN_POINT('',(67.8673546002119,5.,6.2));
#1803=CARTESIAN_POINT('Origin',(67.8237219227201,5.,11.1998096153209));
#1804=CARTESIAN_POINT($,(70.8672403694044,5.,6.22617960649512));
#1805=CARTESIAN_POINT('Origin',(25.0785388194854,55.,5.38715663430923E-017));
#1806=CARTESIAN_POINT('',(5.,55.,0.));
#1807=CARTESIAN_POINT('',(18.9324093137965,55.,0.));
#1808=CARTESIAN_POINT($,(5.,55.,0.));
#1809=CARTESIAN_POINT('',(5.,55.,3.));
#1810=CARTESIAN_POINT($,(5.,55.,0.));
#1811=CARTESIAN_POINT('',(18.9324093137965,55.,3.));
#1812=CARTESIAN_POINT($,(5.,55.,3.));
#1813=CARTESIAN_POINT('',(22.1322874676018,55.,6.17207508640521));
#1814=CARTESIAN_POINT('Origin',(18.9324093137965,55.,6.2));
#1815=CARTESIAN_POINT('',(22.1327596305956,55.,6.22617960649513));
#1816=CARTESIAN_POINT($,(22.1322874676019,55.,6.17207508640521));
#1817=CARTESIAN_POINT('',(25.1326453997881,55.,6.2));
#1818=CARTESIAN_POINT($,(22.1327596305956,55.,6.22617960649512));
#1819=CARTESIAN_POINT('',(25.1321732367943,55.,6.14589547991008));
#1820=CARTESIAN_POINT($,(25.1321732367944,55.,6.14589547991008));
#1821=CARTESIAN_POINT('Origin',(18.9324093137965,55.,6.2));
#1822=CARTESIAN_POINT('Origin',(18.9324093137965,0.,6.2));
#1823=CARTESIAN_POINT('',(18.9324093137965,5.,0.));
#1824=CARTESIAN_POINT($,(18.9324093137965,5.,0.));
#1825=CARTESIAN_POINT('',(25.1321732367943,5.,6.14589547991008));
#1826=CARTESIAN_POINT($,(25.1321732367943,5.,6.14589547991008));
#1827=CARTESIAN_POINT('Origin',(18.9324093137965,5.,6.2));
#1828=CARTESIAN_POINT('Origin',(25.0785388194854,0.,0.));
#1829=CARTESIAN_POINT('Origin',(25.1762780772799,55.,11.1998096153209));
#1830=CARTESIAN_POINT('',(25.9223837283834,45.,96.6950490291216));
#1831=CARTESIAN_POINT($,(25.9223837283834,45.,96.6950490291216));
#1832=CARTESIAN_POINT('',(25.6019190980423,45.,59.9734396241466));
#1833=CARTESIAN_POINT($,(25.6019190980424,45.,59.9734396241466));
#1834=CARTESIAN_POINT('',(25.5146537430587,35.,49.9738203935049));
#1835=CARTESIAN_POINT('Origin',(25.6019190980423,35.,59.9734396241466));
#1836=CARTESIAN_POINT('',(25.5146537430587,25.,49.9738203935049));
#1837=CARTESIAN_POINT($,(25.5146537430587,25.,49.9738203935049));
#1838=CARTESIAN_POINT('',(25.6019190980423,15.,59.9734396241466));
#1839=CARTESIAN_POINT('Origin',(25.6019190980423,25.,59.9734396241466));
#1840=CARTESIAN_POINT('',(25.9223837283834,15.,96.6950490291216));
#1841=CARTESIAN_POINT($,(25.9223837283835,15.,96.6950490291216));
#1842=CARTESIAN_POINT('',(25.9223837283834,0.,96.6950490291216));
#1843=CARTESIAN_POINT($,(25.9223837283834,0.,96.6950490291216));
#1844=CARTESIAN_POINT('',(25.1762780772799,0.,11.1998096153209));
#1845=CARTESIAN_POINT($,(25.17627807728,0.,11.1998096153209));
#1846=CARTESIAN_POINT('',(25.1326453997881,5.,6.2));
#1847=CARTESIAN_POINT('Origin',(25.1762780772799,5.,11.1998096153209));
#1848=CARTESIAN_POINT($,(25.1326453997881,5.,6.2));
#1849=CARTESIAN_POINT('Origin',(70.0644076367192,0.,98.2216987245147));
#1850=CARTESIAN_POINT('',(70.8672403694044,55.,6.22617960649509));
#1851=CARTESIAN_POINT('',(70.8677125323982,55.,6.1720750864052));
#1852=CARTESIAN_POINT($,(70.8672403694044,55.,6.22617960649509));
#1853=CARTESIAN_POINT('Origin',(70.8236076919126,55.,11.225989221816));
#1854=CARTESIAN_POINT('',(70.077502040809,45.,96.7212286356167));
#1855=CARTESIAN_POINT($,(70.077502040809,45.,96.7212286356167));
#1856=CARTESIAN_POINT('',(70.3979666711501,45.,59.9996192306417));
#1857=CARTESIAN_POINT($,(70.077502040809,45.,96.7212286356167));
#1858=CARTESIAN_POINT('',(70.4852320261339,35.,50.));
#1859=CARTESIAN_POINT('Origin',(70.3979666711501,35.,59.9996192306417));
#1860=CARTESIAN_POINT('',(70.4852320261339,25.,50.));
#1861=CARTESIAN_POINT($,(70.4852320261339,35.,50.));
#1862=CARTESIAN_POINT('',(70.3979666711501,15.,59.9996192306417));
#1863=CARTESIAN_POINT('Origin',(70.3979666711501,25.,59.9996192306417));
#1864=CARTESIAN_POINT('',(70.077502040809,15.,96.7212286356167));
#1865=CARTESIAN_POINT($,(70.077502040809,15.,96.7212286356167));
#1866=CARTESIAN_POINT('',(70.077502040809,0.,96.7212286356167));
#1867=CARTESIAN_POINT($,(70.077502040809,0.,96.7212286356167));
#1868=CARTESIAN_POINT($,(70.077502040809,0.,96.7212286356167));
#1869=CARTESIAN_POINT('',(70.8677125323981,5.,6.17207508640516));
#1870=CARTESIAN_POINT($,(70.8672403694044,5.,6.22617960649509));
#1871=CARTESIAN_POINT($,(70.8677125323982,5.,6.1720750864052));
#1872=CARTESIAN_POINT('Origin',(18.8925031508991,55.,10.7727933382585));
#1873=CARTESIAN_POINT('',(67.8673546002119,55.,6.2));
#1874=CARTESIAN_POINT($,(70.8672403694044,55.,6.22617960649512));
#1875=CARTESIAN_POINT('Origin',(67.82372192272,55.,11.1998096153208));
#1876=CARTESIAN_POINT('Origin',(67.0645218675267,0.,98.1955191180195));
#1877=CARTESIAN_POINT('',(67.8678267632056,55.,6.14589547991007));
#1878=CARTESIAN_POINT($,(67.8673546002119,55.,6.2));
#1879=CARTESIAN_POINT('',(67.8678267632056,5.,6.14589547991007));
#1880=CARTESIAN_POINT($,(67.8678267632056,5.,6.14589547991007));
#1881=CARTESIAN_POINT($,(67.8678267632056,5.,6.14589547991005));
#1882=CARTESIAN_POINT('',(67.0776162716165,0.,96.6950490291216));
#1883=CARTESIAN_POINT($,(67.0776162716165,0.,96.6950490291216));
#1884=CARTESIAN_POINT('',(67.0776162716165,15.,96.6950490291216));
#1885=CARTESIAN_POINT($,(67.0776162716165,0.,96.6950490291216));
#1886=CARTESIAN_POINT('',(67.3980809019576,15.,59.9734396241466));
#1887=CARTESIAN_POINT($,(67.3980809019576,15.,59.9734396241466));
#1888=CARTESIAN_POINT('',(67.4853462569414,25.,49.9738203935049));
#1889=CARTESIAN_POINT('Origin',(67.3980809019576,25.,59.9734396241466));
#1890=CARTESIAN_POINT('',(67.4853462569414,35.,49.9738203935049));
#1891=CARTESIAN_POINT($,(67.4853462569414,25.,49.9738203935049));
#1892=CARTESIAN_POINT('',(67.3980809019576,45.,59.9734396241466));
#1893=CARTESIAN_POINT('Origin',(67.3980809019576,35.,59.9734396241466));
#1894=CARTESIAN_POINT('',(67.0776162716165,45.,96.6950490291216));
#1895=CARTESIAN_POINT($,(67.0776162716165,45.,96.6950490291216));
#1896=CARTESIAN_POINT($,(67.0776162716165,45.,96.6950490291216));
#1897=CARTESIAN_POINT('Origin',(74.0675906862035,55.,6.2));
#1898=CARTESIAN_POINT('',(74.0675906862035,55.,3.));
#1899=CARTESIAN_POINT('',(88.,55.,3.));
#1900=CARTESIAN_POINT($,(74.0675906862035,55.,3.));
#1901=CARTESIAN_POINT('',(88.,55.,0.));
#1902=CARTESIAN_POINT($,(88.,55.,3.));
#1903=CARTESIAN_POINT('',(74.0675906862035,55.,0.));
#1904=CARTESIAN_POINT($,(74.0675906862035,55.,0.));
#1905=CARTESIAN_POINT('Origin',(74.0675906862035,55.,6.2));
#1906=CARTESIAN_POINT('Origin',(74.0675906862035,55.,6.2));
#1907=CARTESIAN_POINT('Origin',(25.0785388194854,0.,0.));
#1908=CARTESIAN_POINT('',(67.8009177646322,0.,101.468026266036));
#1909=CARTESIAN_POINT('Origin',(63.8777381178112,0.,96.6671241155268));
#1910=CARTESIAN_POINT('',(50.4231796468211,0.,115.668688215446));
#1911=CARTESIAN_POINT($,(50.4231796468213,0.,115.668688215446));
#1912=CARTESIAN_POINT('',(42.5768203531789,0.,115.668688215446));
#1913=CARTESIAN_POINT('Origin',(46.5,0.,110.867786064937));
#1914=CARTESIAN_POINT('',(25.1990822353678,0.,101.468026266036));
#1915=CARTESIAN_POINT($,(25.1990822353675,0.,101.468026266036));
#1916=CARTESIAN_POINT('',(22.922497959191,0.,96.7212286356167));
#1917=CARTESIAN_POINT('Origin',(29.1222618821888,0.,96.6671241155268));
#1918=CARTESIAN_POINT('',(22.1763923080875,0.,11.225989221816));
#1919=CARTESIAN_POINT($,(22.1763923080875,0.,11.225989221816));
#1920=CARTESIAN_POINT($,(25.1762780772799,0.,11.1998096153209));
#1921=CARTESIAN_POINT('',(27.0973949677005,0.,99.145009096435));
#1922=CARTESIAN_POINT('Origin',(29.1222618821888,0.,96.6671241155268));
#1923=CARTESIAN_POINT('',(44.4751330855117,0.,113.345671045845));
#1924=CARTESIAN_POINT($,(27.0973949677005,0.,99.1450090964349));
#1925=CARTESIAN_POINT('',(48.5248669144883,0.,113.345671045845));
#1926=CARTESIAN_POINT('Origin',(46.5,0.,110.867786064937));
#1927=CARTESIAN_POINT('',(65.9026050322994,0.,99.145009096435));
#1928=CARTESIAN_POINT($,(48.524866914488,0.,113.345671045845));
#1929=CARTESIAN_POINT('Origin',(63.8777381178112,0.,96.6671241155268));
#1930=CARTESIAN_POINT('Origin',(25.9354781324733,0.,98.1955191180195));
#1931=CARTESIAN_POINT('',(27.0973949677005,15.,99.145009096435));
#1932=CARTESIAN_POINT($,(27.0973949677005,0.,99.145009096435));
#1933=CARTESIAN_POINT('',(44.4751330855117,15.,113.345671045845));
#1934=CARTESIAN_POINT($,(44.4751330855118,15.,113.345671045845));
#1935=CARTESIAN_POINT($,(44.4751330855117,0.,113.345671045845));
#1936=CARTESIAN_POINT('Origin',(46.5,0.,110.867786064937));
#1937=CARTESIAN_POINT('',(48.5248669144883,15.,113.345671045845));
#1938=CARTESIAN_POINT('Origin',(46.5,15.,110.867786064937));
#1939=CARTESIAN_POINT($,(48.5248669144883,0.,113.345671045845));
#1940=CARTESIAN_POINT('Origin',(63.8777381178112,0.,96.6671241155268));
#1941=CARTESIAN_POINT('',(65.9026050322994,15.,99.145009096435));
#1942=CARTESIAN_POINT($,(65.9026050322994,0.,99.145009096435));
#1943=CARTESIAN_POINT('Origin',(63.8777381178112,15.,96.6671241155268));
#1944=CARTESIAN_POINT('Origin',(70.3979666711501,25.,59.9996192306417));
#1945=CARTESIAN_POINT($,(70.3979666711501,15.,59.9996192306417));
#1946=CARTESIAN_POINT($,(70.4852320261339,25.,50.));
#1947=CARTESIAN_POINT('Origin',(70.4852320261339,0.,50.));
#1948=CARTESIAN_POINT($,(70.4852320261339,35.,50.));
#1949=CARTESIAN_POINT('Origin',(67.3980809019576,35.,59.9734396241466));
#1950=CARTESIAN_POINT($,(70.3979666711501,45.,59.9996192306417));
#1951=CARTESIAN_POINT('Origin',(67.0645218675267,45.,98.1955191180195));
#1952=CARTESIAN_POINT('',(22.6020333288498,45.,59.9996192306418));
#1953=CARTESIAN_POINT('',(22.922497959191,45.,96.7212286356167));
#1954=CARTESIAN_POINT($,(22.6020333288499,45.,59.9996192306418));
#1955=CARTESIAN_POINT($,(22.6020333288498,45.,59.9996192306417));
#1956=CARTESIAN_POINT('',(27.0973949677005,45.,99.145009096435));
#1957=CARTESIAN_POINT('Origin',(29.1222618821888,45.,96.6671241155268));
#1958=CARTESIAN_POINT('',(44.4751330855117,45.,113.345671045845));
#1959=CARTESIAN_POINT($,(27.0973949677005,45.,99.1450090964349));
#1960=CARTESIAN_POINT('',(48.5248669144883,45.,113.345671045845));
#1961=CARTESIAN_POINT('Origin',(46.5,45.,110.867786064937));
#1962=CARTESIAN_POINT('',(65.9026050322994,45.,99.145009096435));
#1963=CARTESIAN_POINT($,(48.524866914488,45.,113.345671045845));
#1964=CARTESIAN_POINT('Origin',(63.8777381178112,45.,96.6671241155268));
#1965=CARTESIAN_POINT('',(67.8009177646322,45.,101.468026266036));
#1966=CARTESIAN_POINT('Origin',(63.8777381178112,45.,96.6671241155268));
#1967=CARTESIAN_POINT('',(50.4231796468211,45.,115.668688215446));
#1968=CARTESIAN_POINT($,(50.4231796468213,45.,115.668688215446));
#1969=CARTESIAN_POINT('',(42.5768203531789,45.,115.668688215446));
#1970=CARTESIAN_POINT('Origin',(46.5,45.,110.867786064937));
#1971=CARTESIAN_POINT('',(25.1990822353678,45.,101.468026266036));
#1972=CARTESIAN_POINT($,(25.1990822353675,45.,101.468026266036));
#1973=CARTESIAN_POINT('Origin',(29.1222618821888,45.,96.6671241155268));
#1974=CARTESIAN_POINT('Origin',(63.8777381178112,0.,96.6671241155268));
#1975=CARTESIAN_POINT($,(65.9026050322994,45.,99.145009096435));
#1976=CARTESIAN_POINT('Origin',(46.5,0.,110.867786064937));
#1977=CARTESIAN_POINT($,(48.5248669144883,45.,113.345671045845));
#1978=CARTESIAN_POINT($,(44.4751330855117,45.,113.345671045845));
#1979=CARTESIAN_POINT('Origin',(25.9354781324733,0.,98.1955191180195));
#1980=CARTESIAN_POINT($,(27.0973949677005,45.,99.145009096435));
#1981=CARTESIAN_POINT('Origin',(29.1222618821888,0.,96.6671241155268));
#1982=CARTESIAN_POINT('Origin',(25.1762780772799,55.,11.1998096153209));
#1983=CARTESIAN_POINT('Origin',(22.1763923080875,55.,11.225989221816));
#1984=CARTESIAN_POINT('Origin',(22.0786530502929,0.,0.0261796064951223));
#1985=CARTESIAN_POINT('',(22.1322874676018,5.,6.1720750864052));
#1986=CARTESIAN_POINT($,(22.1322874676018,5.,6.17207508640521));
#1987=CARTESIAN_POINT('',(22.1327596305956,5.,6.22617960649512));
#1988=CARTESIAN_POINT($,(22.1322874676019,5.,6.1720750864052));
#1989=CARTESIAN_POINT('Origin',(22.1763923080875,5.,11.225989221816));
#1990=CARTESIAN_POINT('',(22.922497959191,15.,96.7212286356167));
#1991=CARTESIAN_POINT($,(22.922497959191,0.,96.7212286356167));
#1992=CARTESIAN_POINT('',(22.6020333288498,15.,59.9996192306417));
#1993=CARTESIAN_POINT($,(22.6020333288499,15.,59.9996192306417));
#1994=CARTESIAN_POINT('',(22.5147679738661,25.,50.));
#1995=CARTESIAN_POINT('Origin',(22.6020333288498,25.,59.9996192306417));
#1996=CARTESIAN_POINT('',(22.5147679738661,35.,50.));
#1997=CARTESIAN_POINT($,(22.5147679738661,25.,50.));
#1998=CARTESIAN_POINT('Origin',(22.6020333288498,35.,59.9996192306417));
#1999=CARTESIAN_POINT($,(22.922497959191,45.,96.7212286356167));
#2000=CARTESIAN_POINT('Origin',(8.5,14.,-158.102037647405));
#2001=CARTESIAN_POINT('',(11.,14.,0.));
#2002=CARTESIAN_POINT('Origin',(8.5,14.,0.));
#2003=CARTESIAN_POINT('',(11.,14.,3.));
#2004=CARTESIAN_POINT('Origin',(8.5,14.,3.));
#2005=CARTESIAN_POINT('Origin',(25.0785388194854,0.,3.));
#2006=CARTESIAN_POINT('',(0.,10.,3.));
#2007=CARTESIAN_POINT('',(0.,50.,3.));
#2008=CARTESIAN_POINT($,(0.,10.,3.));
#2009=CARTESIAN_POINT('',(5.,5.,3.));
#2010=CARTESIAN_POINT('Origin',(5.,10.,3.));
#2011=CARTESIAN_POINT('',(18.9324093137965,5.,3.));
#2012=CARTESIAN_POINT($,(5.,5.,3.));
#2013=CARTESIAN_POINT($,(18.9324093137965,5.,3.));
#2014=CARTESIAN_POINT('Origin',(5.,50.,3.));
#2015=CARTESIAN_POINT('',(11.,46.,3.));
#2016=CARTESIAN_POINT('Origin',(8.5,46.,3.));
#2017=CARTESIAN_POINT('Origin',(18.9324093137965,0.,6.2));
#2018=CARTESIAN_POINT('Origin',(18.9324093137965,5.,6.2));
#2019=CARTESIAN_POINT('Origin',(67.9214611805147,0.,0.));
#2020=CARTESIAN_POINT('',(93.,10.,0.));
#2021=CARTESIAN_POINT('',(93.,50.,0.));
#2022=CARTESIAN_POINT($,(93.,10.,0.));
#2023=CARTESIAN_POINT('',(88.,5.,0.));
#2024=CARTESIAN_POINT('Origin',(88.,10.,0.));
#2025=CARTESIAN_POINT('',(74.0675906862035,5.,0.));
#2026=CARTESIAN_POINT($,(88.,5.,0.));
#2027=CARTESIAN_POINT($,(74.0675906862035,5.,0.));
#2028=CARTESIAN_POINT('Origin',(88.,50.,0.));
#2029=CARTESIAN_POINT('',(87.,46.,0.));
#2030=CARTESIAN_POINT('Origin',(84.5,46.,0.));
#2031=CARTESIAN_POINT('',(87.,14.,0.));
#2032=CARTESIAN_POINT('Origin',(84.5,14.,0.));
#2033=CARTESIAN_POINT('Origin',(5.,10.,0.));
#2034=CARTESIAN_POINT('',(0.,10.,0.));
#2035=CARTESIAN_POINT($,(0.,10.,3.));
#2036=CARTESIAN_POINT('',(5.,5.,0.));
#2037=CARTESIAN_POINT('Origin',(5.,10.,0.));
#2038=CARTESIAN_POINT($,(5.,5.,0.));
#2039=CARTESIAN_POINT('Origin',(25.0785388194854,5.,0.));
#2040=CARTESIAN_POINT($,(18.9324093137965,5.,0.));
#2041=CARTESIAN_POINT($,(22.1327596305956,5.,6.22617960649512));
#2042=CARTESIAN_POINT('Origin',(25.0785388194854,0.,0.));
#2043=CARTESIAN_POINT('',(0.,50.,0.));
#2044=CARTESIAN_POINT($,(0.,10.,0.));
#2045=CARTESIAN_POINT('Origin',(5.,50.,0.));
#2046=CARTESIAN_POINT('',(11.,46.,0.));
#2047=CARTESIAN_POINT('Origin',(8.5,46.,0.));
#2048=CARTESIAN_POINT('Origin',(5.,50.,4.8974151220993E-017));
#2049=CARTESIAN_POINT($,(0.,50.,3.));
#2050=CARTESIAN_POINT('Origin',(0.,0.,0.));
#2051=CARTESIAN_POINT('Origin',(93.,0.,0.));
#2052=CARTESIAN_POINT('',(93.,10.,3.));
#2053=CARTESIAN_POINT('',(93.,50.,3.));
#2054=CARTESIAN_POINT($,(93.,10.,3.));
#2055=CARTESIAN_POINT($,(93.,10.,3.));
#2056=CARTESIAN_POINT($,(93.,50.,0.));
#2057=CARTESIAN_POINT('Origin',(63.8777381178112,0.,96.6671241155268));
#2058=CARTESIAN_POINT($,(67.8009177646322,45.,101.468026266036));
#2059=CARTESIAN_POINT('Origin',(25.6019190980423,25.,59.9734396241466));
#2060=CARTESIAN_POINT($,(22.5147679738661,25.,50.));
#2061=CARTESIAN_POINT($,(22.6020333288498,15.,59.9996192306417));
#2062=CARTESIAN_POINT('Origin',(22.6020333288498,35.,59.9996192306417));
#2063=CARTESIAN_POINT($,(22.5147679738661,35.,50.));
#2064=CARTESIAN_POINT('Origin',(22.5147679738661,0.,50.));
#2065=CARTESIAN_POINT('Origin',(67.9214611805147,5.,0.));
#2066=CARTESIAN_POINT('',(88.,5.,3.));
#2067=CARTESIAN_POINT($,(88.,5.,3.));
#2068=CARTESIAN_POINT('',(74.0675906862035,5.,3.));
#2069=CARTESIAN_POINT($,(74.0675906862035,5.,3.));
#2070=CARTESIAN_POINT('Origin',(74.0675906862035,5.,6.2));
#2071=CARTESIAN_POINT('Origin',(74.0675906862035,5.,6.2));
#2072=CARTESIAN_POINT('Origin',(25.1762780772799,5.,11.1998096153209));
#2073=CARTESIAN_POINT('Origin',(88.,10.,0.));
#2074=CARTESIAN_POINT('Origin',(88.,10.,3.));
#2075=CARTESIAN_POINT('Origin',(88.,50.,6.2));
#2076=CARTESIAN_POINT('Origin',(88.,50.,3.));
#2077=CARTESIAN_POINT('Origin',(84.5,46.,-158.102037647405));
#2078=CARTESIAN_POINT('',(87.,46.,3.));
#2079=CARTESIAN_POINT('Origin',(84.5,46.,3.));
#2080=CARTESIAN_POINT('Origin',(84.5,14.,-158.102037647405));
#2081=CARTESIAN_POINT('',(87.,14.,3.));
#2082=CARTESIAN_POINT('Origin',(84.5,14.,3.));
#2083=CARTESIAN_POINT('Origin',(74.0675906862035,0.,6.2));
#2084=CARTESIAN_POINT($,(74.0675906862035,5.,3.));
#2085=CARTESIAN_POINT('Origin',(67.9214611805147,0.,3.));
#2086=CARTESIAN_POINT('Origin',(74.0675906862035,0.,6.2));
#2087=CARTESIAN_POINT('Origin',(46.5,0.,115.000342692422));
#2088=CARTESIAN_POINT($,(65.9026050322992,15.,99.1450090964348));
#2089=CARTESIAN_POINT('Origin',(46.5,0.,115.000342692422));
#2090=CARTESIAN_POINT('Origin',(29.1222618821888,0.,96.6671241155268));
#2091=CARTESIAN_POINT('Origin',(29.1222618821888,15.,96.6671241155268));
#2092=CARTESIAN_POINT('Origin',(29.1222618821888,0.,96.6671241155268));
#2093=CARTESIAN_POINT('',(25.1990822353678,15.,101.468026266036));
#2094=CARTESIAN_POINT('Origin',(29.1222618821888,15.,96.6671241155268));
#2095=CARTESIAN_POINT($,(25.1990822353678,0.,101.468026266036));
#2096=CARTESIAN_POINT('Origin',(24.0371654001405,0.,100.518536287621));
#2097=CARTESIAN_POINT('',(42.5768203531789,15.,115.668688215446));
#2098=CARTESIAN_POINT($,(25.1990822353675,15.,101.468026266036));
#2099=CARTESIAN_POINT($,(42.5768203531789,0.,115.668688215446));
#2100=CARTESIAN_POINT('Origin',(29.1222618821888,0.,96.6671241155268));
#2101=CARTESIAN_POINT($,(25.1990822353678,45.,101.468026266036));
#2102=CARTESIAN_POINT('Origin',(46.5,0.,110.867786064937));
#2103=CARTESIAN_POINT('',(50.4231796468211,15.,115.668688215446));
#2104=CARTESIAN_POINT('Origin',(46.5,15.,110.867786064937));
#2105=CARTESIAN_POINT($,(50.4231796468211,0.,115.668688215446));
#2106=CARTESIAN_POINT('Origin',(24.0371654001405,0.,100.518536287621));
#2107=CARTESIAN_POINT($,(42.5768203531789,45.,115.668688215446));
#2108=CARTESIAN_POINT('Origin',(48.3983127323328,0.,117.323359862024));
#2109=CARTESIAN_POINT('',(67.8009177646322,15.,101.468026266036));
#2110=CARTESIAN_POINT($,(50.4231796468213,15.,115.668688215446));
#2111=CARTESIAN_POINT($,(67.8009177646322,0.,101.468026266036));
#2112=CARTESIAN_POINT('Origin',(46.5,0.,110.867786064937));
#2113=CARTESIAN_POINT($,(50.4231796468211,45.,115.668688215446));
#2114=CARTESIAN_POINT('Origin',(63.8777381178112,0.,96.6671241155268));
#2115=CARTESIAN_POINT('Origin',(63.8777381178112,15.,96.6671241155268));
#2116=CARTESIAN_POINT('Origin',(48.3983127323328,0.,117.323359862024));
#2117=CARTESIAN_POINT('Origin',(25.0785388194854,15.,0.));
#2118=CARTESIAN_POINT('Origin',(8.5,46.,-158.102037647405));
#2119=UNCERTAINTY_MEASURE_WITH_UNIT(LENGTH_MEASURE(0.01),#2121,
'DISTANCE_ACCURACY_VALUE',
'Maximum model space distance between geometric entities at asserted c
onnectivities');
#2120=(
GEOMETRIC_REPRESENTATION_CONTEXT(3)
GLOBAL_UNCERTAINTY_ASSIGNED_CONTEXT((#2119))
GLOBAL_UNIT_ASSIGNED_CONTEXT((#2121,#2124,#2122))
REPRESENTATION_CONTEXT('','3D')
);
#2121=(
LENGTH_UNIT()
NAMED_UNIT(*)
SI_UNIT(.MILLI.,.METRE.)
);
#2122=(
NAMED_UNIT(*)
SI_UNIT($,.STERADIAN.)
SOLID_ANGLE_UNIT()
);
#2123=DIMENSIONAL_EXPONENTS(0.,0.,0.,0.,0.,0.,0.);
#2124=(
CONVERSION_BASED_UNIT('degree',#2126)
NAMED_UNIT(#2123)
PLANE_ANGLE_UNIT()
);
#2125=(
NAMED_UNIT(*)
PLANE_ANGLE_UNIT()
SI_UNIT($,.RADIAN.)
);
#2126=PLANE_ANGLE_MEASURE_WITH_UNIT(PLANE_ANGLE_MEASURE(0.01745329252),
#2125);
#2127=SHAPE_DEFINITION_REPRESENTATION(#2128,#2129);
#2128=PRODUCT_DEFINITION_SHAPE('',$,#2131);
#2129=SHAPE_REPRESENTATION('',(#1275),#2120);
#2130=PRODUCT_DEFINITION_CONTEXT('3D Mechanical Parts',#2134,'design');
#2131=PRODUCT_DEFINITION('ass120728_B4x_Winkel03-04',
'ass120728_B4x_Winkel03-04',#2132,#2130);
#2132=PRODUCT_DEFINITION_FORMATION('',$,#2136);
#2133=APPLICATION_PROTOCOL_DEFINITION('international standard',
'automotive_design',2009,#2134);
#2134=APPLICATION_CONTEXT(
'Core Data for Automotive Mechanical Design Process');
#2135=PRODUCT_CONTEXT('3D Mechanical Parts',#2134,'mechanical');
#2136=PRODUCT('ass120728_B4x_Winkel03-04','ass120728_B4x_Winkel03-04',$,
(#2135));
#2137=PRESENTATION_STYLE_ASSIGNMENT((#2138));
#2138=SURFACE_STYLE_USAGE(.BOTH.,#2139);
#2139=SURFACE_SIDE_STYLE($,(#2140));
#2140=SURFACE_STYLE_FILL_AREA(#2141);
#2141=FILL_AREA_STYLE($,(#2142));
#2142=FILL_AREA_STYLE_COLOUR($,#2143);
#2143=COLOUR_RGB('',0.647058823529412,0.67843137254902,0.698039215686274);
ENDSEC;
END-ISO-10303-21;
