ISO-10303-21;
HEADER;
FILE_DESCRIPTION((''),'2;1');
FILE_NAME('CQ17517','2018-04-07T14:57:02',('at72582'),('Deere & Company'),
'CREO PARAMETRIC BY PTC INC, 2017380','CREO PARAMETRIC BY PTC INC, 2017380','');
FILE_SCHEMA(('CONFIG_CONTROL_DESIGN'));
ENDSEC;
DATA;
#1=DIRECTION('',(0.E0,-1.E0,0.E0));
#2=VECTOR('',#1,4.35E0);
#3=CARTESIAN_POINT('',(0.E0,1.9E1,1.603387475E1));
#4=LINE('',#3,#2);
#5=DIRECTION('',(0.E0,0.E0,1.E0));
#6=VECTOR('',#5,4.26387475E0);
#7=CARTESIAN_POINT('',(0.E0,1.465E1,1.177E1));
#8=LINE('',#7,#6);
#9=DIRECTION('',(0.E0,1.E0,0.E0));
#10=VECTOR('',#9,1.03E1);
#11=CARTESIAN_POINT('',(0.E0,4.35E0,1.177E1));
#12=LINE('',#11,#10);
#13=DIRECTION('',(0.E0,0.E0,-1.E0));
#14=VECTOR('',#13,4.26387475E0);
#15=CARTESIAN_POINT('',(0.E0,4.35E0,1.603387475E1));
#16=LINE('',#15,#14);
#17=DIRECTION('',(0.E0,-1.E0,0.E0));
#18=VECTOR('',#17,4.35E0);
#19=CARTESIAN_POINT('',(0.E0,4.35E0,1.603387475E1));
#20=LINE('',#19,#18);
#21=DIRECTION('',(0.E0,0.E0,1.E0));
#22=VECTOR('',#21,1.603387475E1);
#23=CARTESIAN_POINT('',(0.E0,0.E0,0.E0));
#24=LINE('',#23,#22);
#25=DIRECTION('',(0.E0,-1.E0,0.E0));
#26=VECTOR('',#25,1.9E1);
#27=CARTESIAN_POINT('',(0.E0,1.9E1,0.E0));
#28=LINE('',#27,#26);
#29=DIRECTION('',(0.E0,0.E0,-1.E0));
#30=VECTOR('',#29,1.603387475E1);
#31=CARTESIAN_POINT('',(0.E0,1.9E1,1.603387475E1));
#32=LINE('',#31,#30);
#33=DIRECTION('',(0.E0,-1.E0,0.E0));
#34=VECTOR('',#33,4.35E0);
#35=CARTESIAN_POINT('',(5.15E0,1.9E1,2.118387475E1));
#36=LINE('',#35,#34);
#37=CARTESIAN_POINT('',(5.15E0,1.465E1,1.603387475E1));
#38=DIRECTION('',(0.E0,1.E0,0.E0));
#39=DIRECTION('',(-1.E0,0.E0,0.E0));
#40=AXIS2_PLACEMENT_3D('',#37,#38,#39);
#42=CARTESIAN_POINT('',(5.15E0,1.9E1,1.603387475E1));
#43=DIRECTION('',(0.E0,-1.E0,0.E0));
#44=DIRECTION('',(0.E0,0.E0,1.E0));
#45=AXIS2_PLACEMENT_3D('',#42,#43,#44);
#47=DIRECTION('',(0.E0,-1.E0,0.E0));
#48=VECTOR('',#47,4.35E0);
#49=CARTESIAN_POINT('',(5.15E0,4.35E0,2.118387475E1));
#50=LINE('',#49,#48);
#51=CARTESIAN_POINT('',(5.15E0,0.E0,1.603387475E1));
#52=DIRECTION('',(0.E0,1.E0,0.E0));
#53=DIRECTION('',(-1.E0,0.E0,0.E0));
#54=AXIS2_PLACEMENT_3D('',#51,#52,#53);
#56=CARTESIAN_POINT('',(5.15E0,4.35E0,1.603387475E1));
#57=DIRECTION('',(0.E0,-1.E0,0.E0));
#58=DIRECTION('',(0.E0,0.E0,1.E0));
#59=AXIS2_PLACEMENT_3D('',#56,#57,#58);
#61=DIRECTION('',(-1.E0,0.E0,0.E0));
#62=VECTOR('',#61,1.8E1);
#63=CARTESIAN_POINT('',(2.315E1,1.9E1,2.118387475E1));
#64=LINE('',#63,#62);
#65=DIRECTION('',(0.E0,1.E0,0.E0));
#66=VECTOR('',#65,1.9E1);
#67=CARTESIAN_POINT('',(2.315E1,0.E0,2.118387475E1));
#68=LINE('',#67,#66);
#69=DIRECTION('',(1.E0,0.E0,0.E0));
#70=VECTOR('',#69,1.8E1);
#71=CARTESIAN_POINT('',(5.15E0,0.E0,2.118387475E1));
#72=LINE('',#71,#70);
#73=DIRECTION('',(-1.E0,0.E0,0.E0));
#74=VECTOR('',#73,9.27E0);
#75=CARTESIAN_POINT('',(1.442E1,4.35E0,2.118387475E1));
#76=LINE('',#75,#74);
#77=DIRECTION('',(0.E0,-1.E0,0.E0));
#78=VECTOR('',#77,1.03E1);
#79=CARTESIAN_POINT('',(1.442E1,1.465E1,2.118387475E1));
#80=LINE('',#79,#78);
#81=DIRECTION('',(1.E0,0.E0,0.E0));
#82=VECTOR('',#81,9.27E0);
#83=CARTESIAN_POINT('',(5.15E0,1.465E1,2.118387475E1));
#84=LINE('',#83,#82);
#85=DIRECTION('',(0.E0,0.E0,1.E0));
#86=VECTOR('',#85,2.65E0);
#87=CARTESIAN_POINT('',(5.15E0,1.9E1,1.853387475E1));
#88=LINE('',#87,#86);
#89=DIRECTION('',(-1.E0,0.E0,0.E0));
#90=VECTOR('',#89,2.65E0);
#91=CARTESIAN_POINT('',(2.65E0,1.9E1,1.603387475E1));
#92=LINE('',#91,#90);
#93=DIRECTION('',(1.E0,0.E0,0.E0));
#94=VECTOR('',#93,2.65E0);
#95=CARTESIAN_POINT('',(0.E0,1.9E1,0.E0));
#96=LINE('',#95,#94);
#97=DIRECTION('',(1.E0,0.E0,0.E0));
#98=VECTOR('',#97,2.65E0);
#99=CARTESIAN_POINT('',(0.E0,0.E0,0.E0));
#100=LINE('',#99,#98);
#101=DIRECTION('',(-1.E0,0.E0,0.E0));
#102=VECTOR('',#101,2.65E0);
#103=CARTESIAN_POINT('',(2.65E0,0.E0,1.603387475E1));
#104=LINE('',#103,#102);
#105=DIRECTION('',(0.E0,0.E0,1.E0));
#106=VECTOR('',#105,2.65E0);
#107=CARTESIAN_POINT('',(5.15E0,0.E0,1.853387475E1));
#108=LINE('',#107,#106);
#109=DIRECTION('',(0.E0,0.E0,-1.E0));
#110=VECTOR('',#109,2.65E0);
#111=CARTESIAN_POINT('',(2.315E1,0.E0,2.118387475E1));
#112=LINE('',#111,#110);
#113=DIRECTION('',(0.E0,0.E0,-1.E0));
#114=VECTOR('',#113,2.65E0);
#115=CARTESIAN_POINT('',(2.315E1,1.9E1,2.118387475E1));
#116=LINE('',#115,#114);
#117=DIRECTION('',(1.E0,0.E0,0.E0));
#118=VECTOR('',#117,9.27E0);
#119=CARTESIAN_POINT('',(5.15E0,1.465E1,1.853387475E1));
#120=LINE('',#119,#118);
#121=DIRECTION('',(0.E0,-1.E0,0.E0));
#122=VECTOR('',#121,1.03E1);
#123=CARTESIAN_POINT('',(1.442E1,1.465E1,1.853387475E1));
#124=LINE('',#123,#122);
#125=DIRECTION('',(-1.E0,0.E0,0.E0));
#126=VECTOR('',#125,9.27E0);
#127=CARTESIAN_POINT('',(1.442E1,4.35E0,1.853387475E1));
#128=LINE('',#127,#126);
#129=DIRECTION('',(1.E0,0.E0,0.E0));
#130=VECTOR('',#129,1.8E1);
#131=CARTESIAN_POINT('',(5.15E0,0.E0,1.853387475E1));
#132=LINE('',#131,#130);
#133=DIRECTION('',(0.E0,1.E0,0.E0));
#134=VECTOR('',#133,1.9E1);
#135=CARTESIAN_POINT('',(2.315E1,0.E0,1.853387475E1));
#136=LINE('',#135,#134);
#137=DIRECTION('',(-1.E0,0.E0,0.E0));
#138=VECTOR('',#137,1.8E1);
#139=CARTESIAN_POINT('',(2.315E1,1.9E1,1.853387475E1));
#140=LINE('',#139,#138);
#141=DIRECTION('',(0.E0,-1.E0,0.E0));
#142=VECTOR('',#141,4.35E0);
#143=CARTESIAN_POINT('',(5.15E0,1.9E1,1.853387475E1));
#144=LINE('',#143,#142);
#145=CARTESIAN_POINT('',(5.15E0,1.9E1,1.603387475E1));
#146=DIRECTION('',(0.E0,-1.E0,0.E0));
#147=DIRECTION('',(0.E0,0.E0,1.E0));
#148=AXIS2_PLACEMENT_3D('',#145,#146,#147);
#150=CARTESIAN_POINT('',(5.15E0,1.465E1,1.603387475E1));
#151=DIRECTION('',(0.E0,1.E0,0.E0));
#152=DIRECTION('',(-1.E0,0.E0,0.E0));
#153=AXIS2_PLACEMENT_3D('',#150,#151,#152);
#155=DIRECTION('',(0.E0,-1.E0,0.E0));
#156=VECTOR('',#155,4.35E0);
#157=CARTESIAN_POINT('',(5.15E0,4.35E0,1.853387475E1));
#158=LINE('',#157,#156);
#159=CARTESIAN_POINT('',(5.15E0,4.35E0,1.603387475E1));
#160=DIRECTION('',(0.E0,-1.E0,0.E0));
#161=DIRECTION('',(0.E0,0.E0,1.E0));
#162=AXIS2_PLACEMENT_3D('',#159,#160,#161);
#164=CARTESIAN_POINT('',(5.15E0,0.E0,1.603387475E1));
#165=DIRECTION('',(0.E0,1.E0,0.E0));
#166=DIRECTION('',(-1.E0,0.E0,0.E0));
#167=AXIS2_PLACEMENT_3D('',#164,#165,#166);
#169=DIRECTION('',(0.E0,-1.E0,0.E0));
#170=VECTOR('',#169,4.35E0);
#171=CARTESIAN_POINT('',(2.65E0,1.9E1,1.603387475E1));
#172=LINE('',#171,#170);
#173=DIRECTION('',(0.E0,0.E0,-1.E0));
#174=VECTOR('',#173,1.603387475E1);
#175=CARTESIAN_POINT('',(2.65E0,1.9E1,1.603387475E1));
#176=LINE('',#175,#174);
#177=DIRECTION('',(0.E0,-1.E0,0.E0));
#178=VECTOR('',#177,1.9E1);
#179=CARTESIAN_POINT('',(2.65E0,1.9E1,0.E0));
#180=LINE('',#179,#178);
#181=DIRECTION('',(0.E0,0.E0,1.E0));
#182=VECTOR('',#181,1.603387475E1);
#183=CARTESIAN_POINT('',(2.65E0,0.E0,0.E0));
#184=LINE('',#183,#182);
#185=DIRECTION('',(0.E0,-1.E0,0.E0));
#186=VECTOR('',#185,4.35E0);
#187=CARTESIAN_POINT('',(2.65E0,4.35E0,1.603387475E1));
#188=LINE('',#187,#186);
#189=DIRECTION('',(0.E0,0.E0,-1.E0));
#190=VECTOR('',#189,4.26387475E0);
#191=CARTESIAN_POINT('',(2.65E0,4.35E0,1.603387475E1));
#192=LINE('',#191,#190);
#193=DIRECTION('',(0.E0,1.E0,0.E0));
#194=VECTOR('',#193,1.03E1);
#195=CARTESIAN_POINT('',(2.65E0,4.35E0,1.177E1));
#196=LINE('',#195,#194);
#197=DIRECTION('',(0.E0,0.E0,1.E0));
#198=VECTOR('',#197,4.26387475E0);
#199=CARTESIAN_POINT('',(2.65E0,1.465E1,1.177E1));
#200=LINE('',#199,#198);
#201=DIRECTION('',(-1.E0,0.E0,0.E0));
#202=VECTOR('',#201,2.65E0);
#203=CARTESIAN_POINT('',(2.65E0,4.35E0,1.603387475E1));
#204=LINE('',#203,#202);
#205=DIRECTION('',(1.E0,0.E0,0.E0));
#206=VECTOR('',#205,2.65E0);
#207=CARTESIAN_POINT('',(0.E0,4.35E0,1.177E1));
#208=LINE('',#207,#206);
#209=DIRECTION('',(0.E0,0.E0,1.E0));
#210=VECTOR('',#209,2.65E0);
#211=CARTESIAN_POINT('',(5.15E0,4.35E0,1.853387475E1));
#212=LINE('',#211,#210);
#213=DIRECTION('',(0.E0,0.E0,-1.E0));
#214=VECTOR('',#213,2.65E0);
#215=CARTESIAN_POINT('',(1.442E1,4.35E0,2.118387475E1));
#216=LINE('',#215,#214);
#217=DIRECTION('',(0.E0,0.E0,-1.E0));
#218=VECTOR('',#217,2.65E0);
#219=CARTESIAN_POINT('',(1.442E1,1.465E1,2.118387475E1));
#220=LINE('',#219,#218);
#221=DIRECTION('',(0.E0,0.E0,1.E0));
#222=VECTOR('',#221,2.65E0);
#223=CARTESIAN_POINT('',(5.15E0,1.465E1,1.853387475E1));
#224=LINE('',#223,#222);
#225=DIRECTION('',(-1.E0,0.E0,0.E0));
#226=VECTOR('',#225,2.65E0);
#227=CARTESIAN_POINT('',(2.65E0,1.465E1,1.603387475E1));
#228=LINE('',#227,#226);
#229=DIRECTION('',(1.E0,0.E0,0.E0));
#230=VECTOR('',#229,2.65E0);
#231=CARTESIAN_POINT('',(0.E0,1.465E1,1.177E1));
#232=LINE('',#231,#230);
#233=CARTESIAN_POINT('',(0.E0,1.9E1,0.E0));
#234=CARTESIAN_POINT('',(0.E0,0.E0,0.E0));
#235=VERTEX_POINT('',#233);
#236=VERTEX_POINT('',#234);
#237=CARTESIAN_POINT('',(2.315E1,0.E0,2.118387475E1));
#238=CARTESIAN_POINT('',(2.315E1,1.9E1,2.118387475E1));
#239=VERTEX_POINT('',#237);
#240=VERTEX_POINT('',#238);
#241=CARTESIAN_POINT('',(1.442E1,1.465E1,2.118387475E1));
#242=CARTESIAN_POINT('',(1.442E1,4.35E0,2.118387475E1));
#243=VERTEX_POINT('',#241);
#244=VERTEX_POINT('',#242);
#245=CARTESIAN_POINT('',(0.E0,4.35E0,1.177E1));
#246=CARTESIAN_POINT('',(0.E0,1.465E1,1.177E1));
#247=VERTEX_POINT('',#245);
#248=VERTEX_POINT('',#246);
#249=CARTESIAN_POINT('',(2.65E0,1.9E1,0.E0));
#250=CARTESIAN_POINT('',(2.65E0,0.E0,0.E0));
#251=VERTEX_POINT('',#249);
#252=VERTEX_POINT('',#250);
#253=CARTESIAN_POINT('',(2.315E1,0.E0,1.853387475E1));
#254=CARTESIAN_POINT('',(2.315E1,1.9E1,1.853387475E1));
#255=VERTEX_POINT('',#253);
#256=VERTEX_POINT('',#254);
#257=CARTESIAN_POINT('',(1.442E1,1.465E1,1.853387475E1));
#258=CARTESIAN_POINT('',(1.442E1,4.35E0,1.853387475E1));
#259=VERTEX_POINT('',#257);
#260=VERTEX_POINT('',#258);
#261=CARTESIAN_POINT('',(2.65E0,4.35E0,1.177E1));
#262=CARTESIAN_POINT('',(2.65E0,1.465E1,1.177E1));
#263=VERTEX_POINT('',#261);
#264=VERTEX_POINT('',#262);
#265=CARTESIAN_POINT('',(0.E0,1.9E1,1.603387475E1));
#266=VERTEX_POINT('',#265);
#267=CARTESIAN_POINT('',(0.E0,0.E0,1.603387475E1));
#268=VERTEX_POINT('',#267);
#269=CARTESIAN_POINT('',(0.E0,1.465E1,1.603387475E1));
#270=VERTEX_POINT('',#269);
#271=CARTESIAN_POINT('',(0.E0,4.35E0,1.603387475E1));
#272=VERTEX_POINT('',#271);
#273=CARTESIAN_POINT('',(2.65E0,1.9E1,1.603387475E1));
#274=VERTEX_POINT('',#273);
#275=CARTESIAN_POINT('',(2.65E0,0.E0,1.603387475E1));
#276=VERTEX_POINT('',#275);
#277=CARTESIAN_POINT('',(2.65E0,1.465E1,1.603387475E1));
#278=VERTEX_POINT('',#277);
#279=CARTESIAN_POINT('',(2.65E0,4.35E0,1.603387475E1));
#280=VERTEX_POINT('',#279);
#281=CARTESIAN_POINT('',(5.15E0,1.9E1,2.118387475E1));
#282=VERTEX_POINT('',#281);
#283=CARTESIAN_POINT('',(5.15E0,0.E0,2.118387475E1));
#284=VERTEX_POINT('',#283);
#285=CARTESIAN_POINT('',(5.15E0,1.465E1,2.118387475E1));
#286=VERTEX_POINT('',#285);
#287=CARTESIAN_POINT('',(5.15E0,4.35E0,2.118387475E1));
#288=VERTEX_POINT('',#287);
#289=CARTESIAN_POINT('',(5.15E0,1.9E1,1.853387475E1));
#290=VERTEX_POINT('',#289);
#291=CARTESIAN_POINT('',(5.15E0,0.E0,1.853387475E1));
#292=VERTEX_POINT('',#291);
#293=CARTESIAN_POINT('',(5.15E0,1.465E1,1.853387475E1));
#294=VERTEX_POINT('',#293);
#295=CARTESIAN_POINT('',(5.15E0,4.35E0,1.853387475E1));
#296=VERTEX_POINT('',#295);
#297=CARTESIAN_POINT('',(0.E0,0.E0,0.E0));
#298=DIRECTION('',(-1.E0,0.E0,0.E0));
#299=DIRECTION('',(0.E0,-1.E0,0.E0));
#300=AXIS2_PLACEMENT_3D('',#297,#298,#299);
#301=PLANE('',#300);
#303=ORIENTED_EDGE('',*,*,#302,.T.);
#305=ORIENTED_EDGE('',*,*,#304,.F.);
#307=ORIENTED_EDGE('',*,*,#306,.F.);
#309=ORIENTED_EDGE('',*,*,#308,.F.);
#311=ORIENTED_EDGE('',*,*,#310,.T.);
#313=ORIENTED_EDGE('',*,*,#312,.F.);
#315=ORIENTED_EDGE('',*,*,#314,.F.);
#317=ORIENTED_EDGE('',*,*,#316,.F.);
#318=EDGE_LOOP('',(#303,#305,#307,#309,#311,#313,#315,#317));
#319=FACE_OUTER_BOUND('',#318,.F.);
#320=ADVANCED_FACE('',(#319),#301,.T.);
#321=CARTESIAN_POINT('',(5.15E0,-1.197810114591E1,1.603387475E1));
#322=DIRECTION('',(0.E0,1.E0,0.E0));
#323=DIRECTION('',(-1.E0,0.E0,0.E0));
#324=AXIS2_PLACEMENT_3D('',#321,#322,#323);
#325=CYLINDRICAL_SURFACE('',#324,5.15E0);
#327=ORIENTED_EDGE('',*,*,#326,.T.);
#329=ORIENTED_EDGE('',*,*,#328,.F.);
#330=ORIENTED_EDGE('',*,*,#302,.F.);
#332=ORIENTED_EDGE('',*,*,#331,.F.);
#333=EDGE_LOOP('',(#327,#329,#330,#332));
#334=FACE_OUTER_BOUND('',#333,.F.);
#335=ADVANCED_FACE('',(#334),#325,.T.);
#336=CARTESIAN_POINT('',(5.15E0,-1.197810114591E1,1.603387475E1));
#337=DIRECTION('',(0.E0,1.E0,0.E0));
#338=DIRECTION('',(-1.E0,0.E0,0.E0));
#339=AXIS2_PLACEMENT_3D('',#336,#337,#338);
#340=CYLINDRICAL_SURFACE('',#339,5.15E0);
#342=ORIENTED_EDGE('',*,*,#341,.T.);
#344=ORIENTED_EDGE('',*,*,#343,.F.);
#345=ORIENTED_EDGE('',*,*,#310,.F.);
#347=ORIENTED_EDGE('',*,*,#346,.F.);
#348=EDGE_LOOP('',(#342,#344,#345,#347));
#349=FACE_OUTER_BOUND('',#348,.F.);
#350=ADVANCED_FACE('',(#349),#340,.T.);
#351=CARTESIAN_POINT('',(-1.635E1,0.E0,2.118387475E1));
#352=DIRECTION('',(0.E0,0.E0,1.E0));
#353=DIRECTION('',(0.E0,-1.E0,0.E0));
#354=AXIS2_PLACEMENT_3D('',#351,#352,#353);
#355=PLANE('',#354);
#356=ORIENTED_EDGE('',*,*,#326,.F.);
#358=ORIENTED_EDGE('',*,*,#357,.F.);
#360=ORIENTED_EDGE('',*,*,#359,.F.);
#362=ORIENTED_EDGE('',*,*,#361,.F.);
#363=ORIENTED_EDGE('',*,*,#341,.F.);
#365=ORIENTED_EDGE('',*,*,#364,.F.);
#367=ORIENTED_EDGE('',*,*,#366,.F.);
#369=ORIENTED_EDGE('',*,*,#368,.F.);
#370=EDGE_LOOP('',(#356,#358,#360,#362,#363,#365,#367,#369));
#371=FACE_OUTER_BOUND('',#370,.F.);
#372=ADVANCED_FACE('',(#371),#355,.T.);
#373=CARTESIAN_POINT('',(3.4E0,1.9E1,1.985887475E1));
#374=DIRECTION('',(0.E0,1.E0,0.E0));
#375=DIRECTION('',(-1.E0,0.E0,0.E0));
#376=AXIS2_PLACEMENT_3D('',#373,#374,#375);
#377=PLANE('',#376);
#379=ORIENTED_EDGE('',*,*,#378,.F.);
#381=ORIENTED_EDGE('',*,*,#380,.F.);
#383=ORIENTED_EDGE('',*,*,#382,.F.);
#384=ORIENTED_EDGE('',*,*,#357,.T.);
#385=EDGE_LOOP('',(#379,#381,#383,#384));
#386=FACE_OUTER_BOUND('',#385,.F.);
#387=ADVANCED_FACE('',(#386),#377,.T.);
#388=CARTESIAN_POINT('',(1.325E0,1.9E1,1.975E1));
#389=DIRECTION('',(0.E0,1.E0,0.E0));
#390=DIRECTION('',(0.E0,0.E0,-1.E0));
#391=AXIS2_PLACEMENT_3D('',#388,#389,#390);
#392=PLANE('',#391);
#393=ORIENTED_EDGE('',*,*,#378,.T.);
#394=ORIENTED_EDGE('',*,*,#331,.T.);
#396=ORIENTED_EDGE('',*,*,#395,.F.);
#398=ORIENTED_EDGE('',*,*,#397,.F.);
#399=EDGE_LOOP('',(#393,#394,#396,#398));
#400=FACE_OUTER_BOUND('',#399,.F.);
#401=ADVANCED_FACE('',(#400),#392,.T.);
#402=CARTESIAN_POINT('',(1.325E0,1.9E1,1.975E1));
#403=DIRECTION('',(0.E0,1.E0,0.E0));
#404=DIRECTION('',(0.E0,0.E0,-1.E0));
#405=AXIS2_PLACEMENT_3D('',#402,#403,#404);
#406=PLANE('',#405);
#407=ORIENTED_EDGE('',*,*,#395,.T.);
#408=ORIENTED_EDGE('',*,*,#316,.T.);
#410=ORIENTED_EDGE('',*,*,#409,.T.);
#412=ORIENTED_EDGE('',*,*,#411,.F.);
#413=EDGE_LOOP('',(#407,#408,#410,#412));
#414=FACE_OUTER_BOUND('',#413,.F.);
#415=ADVANCED_FACE('',(#414),#406,.T.);
#416=CARTESIAN_POINT('',(1.325E0,9.5E0,0.E0));
#417=DIRECTION('',(0.E0,0.E0,-1.E0));
#418=DIRECTION('',(0.E0,-1.E0,0.E0));
#419=AXIS2_PLACEMENT_3D('',#416,#417,#418);
#420=PLANE('',#419);
#421=ORIENTED_EDGE('',*,*,#314,.T.);
#423=ORIENTED_EDGE('',*,*,#422,.T.);
#425=ORIENTED_EDGE('',*,*,#424,.F.);
#426=ORIENTED_EDGE('',*,*,#409,.F.);
#427=EDGE_LOOP('',(#421,#423,#425,#426));
#428=FACE_OUTER_BOUND('',#427,.F.);
#429=ADVANCED_FACE('',(#428),#420,.T.);
#430=CARTESIAN_POINT('',(1.325E0,0.E0,1.975E1));
#431=DIRECTION('',(0.E0,-1.E0,0.E0));
#432=DIRECTION('',(0.E0,0.E0,1.E0));
#433=AXIS2_PLACEMENT_3D('',#430,#431,#432);
#434=PLANE('',#433);
#436=ORIENTED_EDGE('',*,*,#435,.F.);
#438=ORIENTED_EDGE('',*,*,#437,.F.);
#439=ORIENTED_EDGE('',*,*,#422,.F.);
#440=ORIENTED_EDGE('',*,*,#312,.T.);
#441=EDGE_LOOP('',(#436,#438,#439,#440));
#442=FACE_OUTER_BOUND('',#441,.F.);
#443=ADVANCED_FACE('',(#442),#434,.T.);
#444=CARTESIAN_POINT('',(1.325E0,0.E0,1.975E1));
#445=DIRECTION('',(0.E0,-1.E0,0.E0));
#446=DIRECTION('',(0.E0,0.E0,1.E0));
#447=AXIS2_PLACEMENT_3D('',#444,#445,#446);
#448=PLANE('',#447);
#450=ORIENTED_EDGE('',*,*,#449,.F.);
#452=ORIENTED_EDGE('',*,*,#451,.F.);
#453=ORIENTED_EDGE('',*,*,#435,.T.);
#454=ORIENTED_EDGE('',*,*,#343,.T.);
#455=EDGE_LOOP('',(#450,#452,#453,#454));
#456=FACE_OUTER_BOUND('',#455,.F.);
#457=ADVANCED_FACE('',(#456),#448,.T.);
#458=CARTESIAN_POINT('',(3.4E0,0.E0,1.985887475E1));
#459=DIRECTION('',(0.E0,-1.E0,0.E0));
#460=DIRECTION('',(1.E0,0.E0,0.E0));
#461=AXIS2_PLACEMENT_3D('',#458,#459,#460);
#462=PLANE('',#461);
#463=ORIENTED_EDGE('',*,*,#449,.T.);
#464=ORIENTED_EDGE('',*,*,#361,.T.);
#466=ORIENTED_EDGE('',*,*,#465,.T.);
#468=ORIENTED_EDGE('',*,*,#467,.F.);
#469=EDGE_LOOP('',(#463,#464,#466,#468));
#470=FACE_OUTER_BOUND('',#469,.F.);
#471=ADVANCED_FACE('',(#470),#462,.T.);
#472=CARTESIAN_POINT('',(2.315E1,9.5E0,1.985887475E1));
#473=DIRECTION('',(1.E0,0.E0,0.E0));
#474=DIRECTION('',(0.E0,1.E0,0.E0));
#475=AXIS2_PLACEMENT_3D('',#472,#473,#474);
#476=PLANE('',#475);
#477=ORIENTED_EDGE('',*,*,#359,.T.);
#478=ORIENTED_EDGE('',*,*,#382,.T.);
#480=ORIENTED_EDGE('',*,*,#479,.F.);
#481=ORIENTED_EDGE('',*,*,#465,.F.);
#482=EDGE_LOOP('',(#477,#478,#480,#481));
#483=FACE_OUTER_BOUND('',#482,.F.);
#484=ADVANCED_FACE('',(#483),#476,.T.);
#485=CARTESIAN_POINT('',(-1.635E1,0.E0,1.853387475E1));
#486=DIRECTION('',(0.E0,0.E0,1.E0));
#487=DIRECTION('',(0.E0,-1.E0,0.E0));
#488=AXIS2_PLACEMENT_3D('',#485,#486,#487);
#489=PLANE('',#488);
#491=ORIENTED_EDGE('',*,*,#490,.T.);
#493=ORIENTED_EDGE('',*,*,#492,.T.);
#495=ORIENTED_EDGE('',*,*,#494,.T.);
#497=ORIENTED_EDGE('',*,*,#496,.T.);
#499=ORIENTED_EDGE('',*,*,#498,.T.);
#500=ORIENTED_EDGE('',*,*,#467,.T.);
#501=ORIENTED_EDGE('',*,*,#479,.T.);
#502=ORIENTED_EDGE('',*,*,#380,.T.);
#503=EDGE_LOOP('',(#491,#493,#495,#497,#499,#500,#501,#502));
#504=FACE_OUTER_BOUND('',#503,.F.);
#505=ADVANCED_FACE('',(#504),#489,.F.);
#506=CARTESIAN_POINT('',(5.15E0,-1.197810114591E1,1.603387475E1));
#507=DIRECTION('',(0.E0,1.E0,0.E0));
#508=DIRECTION('',(-1.E0,0.E0,0.E0));
#509=AXIS2_PLACEMENT_3D('',#506,#507,#508);
#510=CYLINDRICAL_SURFACE('',#509,2.5E0);
#511=ORIENTED_EDGE('',*,*,#490,.F.);
#512=ORIENTED_EDGE('',*,*,#397,.T.);
#514=ORIENTED_EDGE('',*,*,#513,.T.);
#516=ORIENTED_EDGE('',*,*,#515,.T.);
#517=EDGE_LOOP('',(#511,#512,#514,#516));
#518=FACE_OUTER_BOUND('',#517,.F.);
#519=ADVANCED_FACE('',(#518),#510,.F.);
#520=CARTESIAN_POINT('',(5.15E0,-1.197810114591E1,1.603387475E1));
#521=DIRECTION('',(0.E0,1.E0,0.E0));
#522=DIRECTION('',(-1.E0,0.E0,0.E0));
#523=AXIS2_PLACEMENT_3D('',#520,#521,#522);
#524=CYLINDRICAL_SURFACE('',#523,2.5E0);
#525=ORIENTED_EDGE('',*,*,#498,.F.);
#527=ORIENTED_EDGE('',*,*,#526,.T.);
#529=ORIENTED_EDGE('',*,*,#528,.T.);
#530=ORIENTED_EDGE('',*,*,#451,.T.);
#531=EDGE_LOOP('',(#525,#527,#529,#530));
#532=FACE_OUTER_BOUND('',#531,.F.);
#533=ADVANCED_FACE('',(#532),#524,.F.);
#534=CARTESIAN_POINT('',(2.65E0,0.E0,0.E0));
#535=DIRECTION('',(-1.E0,0.E0,0.E0));
#536=DIRECTION('',(0.E0,-1.E0,0.E0));
#537=AXIS2_PLACEMENT_3D('',#534,#535,#536);
#538=PLANE('',#537);
#539=ORIENTED_EDGE('',*,*,#513,.F.);
#540=ORIENTED_EDGE('',*,*,#411,.T.);
#541=ORIENTED_EDGE('',*,*,#424,.T.);
#542=ORIENTED_EDGE('',*,*,#437,.T.);
#543=ORIENTED_EDGE('',*,*,#528,.F.);
#545=ORIENTED_EDGE('',*,*,#544,.T.);
#547=ORIENTED_EDGE('',*,*,#546,.T.);
#549=ORIENTED_EDGE('',*,*,#548,.T.);
#550=EDGE_LOOP('',(#539,#540,#541,#542,#543,#545,#547,#549));
#551=FACE_OUTER_BOUND('',#550,.F.);
#552=ADVANCED_FACE('',(#551),#538,.F.);
#553=CARTESIAN_POINT('',(1.325E0,4.35E0,2.127E1));
#554=DIRECTION('',(0.E0,1.E0,0.E0));
#555=DIRECTION('',(0.E0,0.E0,-1.E0));
#556=AXIS2_PLACEMENT_3D('',#553,#554,#555);
#557=PLANE('',#556);
#559=ORIENTED_EDGE('',*,*,#558,.T.);
#560=ORIENTED_EDGE('',*,*,#308,.T.);
#562=ORIENTED_EDGE('',*,*,#561,.T.);
#563=ORIENTED_EDGE('',*,*,#544,.F.);
#564=EDGE_LOOP('',(#559,#560,#562,#563));
#565=FACE_OUTER_BOUND('',#564,.F.);
#566=ADVANCED_FACE('',(#565),#557,.T.);
#567=CARTESIAN_POINT('',(1.325E0,4.35E0,2.127E1));
#568=DIRECTION('',(0.E0,1.E0,0.E0));
#569=DIRECTION('',(0.E0,0.E0,-1.E0));
#570=AXIS2_PLACEMENT_3D('',#567,#568,#569);
#571=PLANE('',#570);
#573=ORIENTED_EDGE('',*,*,#572,.T.);
#574=ORIENTED_EDGE('',*,*,#346,.T.);
#575=ORIENTED_EDGE('',*,*,#558,.F.);
#576=ORIENTED_EDGE('',*,*,#526,.F.);
#577=EDGE_LOOP('',(#573,#574,#575,#576));
#578=FACE_OUTER_BOUND('',#577,.F.);
#579=ADVANCED_FACE('',(#578),#571,.T.);
#580=CARTESIAN_POINT('',(4.92E0,4.35E0,1.985887475E1));
#581=DIRECTION('',(0.E0,1.E0,0.E0));
#582=DIRECTION('',(-1.E0,0.E0,0.E0));
#583=AXIS2_PLACEMENT_3D('',#580,#581,#582);
#584=PLANE('',#583);
#585=ORIENTED_EDGE('',*,*,#572,.F.);
#586=ORIENTED_EDGE('',*,*,#496,.F.);
#588=ORIENTED_EDGE('',*,*,#587,.F.);
#589=ORIENTED_EDGE('',*,*,#364,.T.);
#590=EDGE_LOOP('',(#585,#586,#588,#589));
#591=FACE_OUTER_BOUND('',#590,.F.);
#592=ADVANCED_FACE('',(#591),#584,.T.);
#593=CARTESIAN_POINT('',(1.442E1,9.5E0,1.985887475E1));
#594=DIRECTION('',(-1.E0,0.E0,0.E0));
#595=DIRECTION('',(0.E0,-1.E0,0.E0));
#596=AXIS2_PLACEMENT_3D('',#593,#594,#595);
#597=PLANE('',#596);
#598=ORIENTED_EDGE('',*,*,#366,.T.);
#599=ORIENTED_EDGE('',*,*,#587,.T.);
#600=ORIENTED_EDGE('',*,*,#494,.F.);
#602=ORIENTED_EDGE('',*,*,#601,.F.);
#603=EDGE_LOOP('',(#598,#599,#600,#602));
#604=FACE_OUTER_BOUND('',#603,.F.);
#605=ADVANCED_FACE('',(#604),#597,.T.);
#606=CARTESIAN_POINT('',(4.92E0,1.465E1,1.985887475E1));
#607=DIRECTION('',(0.E0,-1.E0,0.E0));
#608=DIRECTION('',(1.E0,0.E0,0.E0));
#609=AXIS2_PLACEMENT_3D('',#606,#607,#608);
#610=PLANE('',#609);
#612=ORIENTED_EDGE('',*,*,#611,.T.);
#613=ORIENTED_EDGE('',*,*,#368,.T.);
#614=ORIENTED_EDGE('',*,*,#601,.T.);
#615=ORIENTED_EDGE('',*,*,#492,.F.);
#616=EDGE_LOOP('',(#612,#613,#614,#615));
#617=FACE_OUTER_BOUND('',#616,.F.);
#618=ADVANCED_FACE('',(#617),#610,.T.);
#619=CARTESIAN_POINT('',(1.325E0,1.465E1,2.127E1));
#620=DIRECTION('',(0.E0,-1.E0,0.E0));
#621=DIRECTION('',(0.E0,0.E0,1.E0));
#622=AXIS2_PLACEMENT_3D('',#619,#620,#621);
#623=PLANE('',#622);
#624=ORIENTED_EDGE('',*,*,#611,.F.);
#625=ORIENTED_EDGE('',*,*,#515,.F.);
#627=ORIENTED_EDGE('',*,*,#626,.T.);
#628=ORIENTED_EDGE('',*,*,#328,.T.);
#629=EDGE_LOOP('',(#624,#625,#627,#628));
#630=FACE_OUTER_BOUND('',#629,.F.);
#631=ADVANCED_FACE('',(#630),#623,.T.);
#632=CARTESIAN_POINT('',(1.325E0,1.465E1,2.127E1));
#633=DIRECTION('',(0.E0,-1.E0,0.E0));
#634=DIRECTION('',(0.E0,0.E0,1.E0));
#635=AXIS2_PLACEMENT_3D('',#632,#633,#634);
#636=PLANE('',#635);
#637=ORIENTED_EDGE('',*,*,#626,.F.);
#638=ORIENTED_EDGE('',*,*,#548,.F.);
#640=ORIENTED_EDGE('',*,*,#639,.F.);
#641=ORIENTED_EDGE('',*,*,#304,.T.);
#642=EDGE_LOOP('',(#637,#638,#640,#641));
#643=FACE_OUTER_BOUND('',#642,.F.);
#644=ADVANCED_FACE('',(#643),#636,.T.);
#645=CARTESIAN_POINT('',(1.325E0,9.5E0,1.177E1));
#646=DIRECTION('',(0.E0,0.E0,1.E0));
#647=DIRECTION('',(0.E0,1.E0,0.E0));
#648=AXIS2_PLACEMENT_3D('',#645,#646,#647);
#649=PLANE('',#648);
#650=ORIENTED_EDGE('',*,*,#306,.T.);
#651=ORIENTED_EDGE('',*,*,#639,.T.);
#652=ORIENTED_EDGE('',*,*,#546,.F.);
#653=ORIENTED_EDGE('',*,*,#561,.F.);
#654=EDGE_LOOP('',(#650,#651,#652,#653));
#655=FACE_OUTER_BOUND('',#654,.F.);
#656=ADVANCED_FACE('',(#655),#649,.T.);
#657=CLOSED_SHELL('',(#320,#335,#350,#372,#387,#401,#415,#429,#443,#457,#471,
#484,#505,#519,#533,#552,#566,#579,#592,#605,#618,#631,#644,#656));
#658=MANIFOLD_SOLID_BREP('',#657);
#660=DIMENSIONAL_EXPONENTS(0.E0,0.E0,0.E0,0.E0,0.E0,0.E0,0.E0);
#662=PLANE_ANGLE_MEASURE_WITH_UNIT(PLANE_ANGLE_MEASURE(1.745329251994E-2),#661);
#663=(CONVERSION_BASED_UNIT('DEGREE',#662)NAMED_UNIT(*)PLANE_ANGLE_UNIT());
#665=UNCERTAINTY_MEASURE_WITH_UNIT(LENGTH_MEASURE(4.391034321530E-3),#659,
'closure',
'Maximum model space distance between geometric entities at asserted connectivities');
#666=(GEOMETRIC_REPRESENTATION_CONTEXT(3)GLOBAL_UNCERTAINTY_ASSIGNED_CONTEXT((
#665))GLOBAL_UNIT_ASSIGNED_CONTEXT((#659,#663,#664))REPRESENTATION_CONTEXT
('ID1','3'));
#668=APPLICATION_CONTEXT(
'CONFIGURATION CONTROLLED 3D DESIGNS OF MECHANICAL PARTS AND ASSEMBLIES');
#669=APPLICATION_PROTOCOL_DEFINITION('international standard',
'config_control_design',1994,#668);
#670=DESIGN_CONTEXT('',#668,'design');
#671=MECHANICAL_CONTEXT('',#668,'mechanical');
#672=PRODUCT('CQ17517','CQ17517','NOT SPECIFIED',(#671));
#673=PRODUCT_DEFINITION_FORMATION_WITH_SPECIFIED_SOURCE('1','LAST_VERSION',#672,
.MADE.);
#677=PRODUCT_CATEGORY('part','');
#678=PRODUCT_RELATED_PRODUCT_CATEGORY('detail','',(#672));
#679=PRODUCT_CATEGORY_RELATIONSHIP('','',#677,#678);
#680=SECURITY_CLASSIFICATION_LEVEL('unclassified');
#681=SECURITY_CLASSIFICATION('','',#680);
#682=CC_DESIGN_SECURITY_CLASSIFICATION(#681,(#673));
#683=APPROVAL_STATUS('approved');
#684=APPROVAL(#683,'');
#685=CC_DESIGN_APPROVAL(#684,(#681,#673,#674));
#686=CALENDAR_DATE(118,7,4);
#687=COORDINATED_UNIVERSAL_TIME_OFFSET(3,0,.BEHIND.);
#688=LOCAL_TIME(14,57,2.E0,#687);
#689=DATE_AND_TIME(#686,#688);
#690=APPROVAL_DATE_TIME(#689,#684);
#691=DATE_TIME_ROLE('creation_date');
#692=CC_DESIGN_DATE_AND_TIME_ASSIGNMENT(#689,#691,(#674));
#693=DATE_TIME_ROLE('classification_date');
#694=CC_DESIGN_DATE_AND_TIME_ASSIGNMENT(#689,#693,(#681));
#695=PERSON('UNSPECIFIED','UNSPECIFIED',$,$,$,$);
#696=ORGANIZATION('UNSPECIFIED','UNSPECIFIED','UNSPECIFIED');
#697=PERSON_AND_ORGANIZATION(#695,#696);
#698=APPROVAL_ROLE('approver');
#699=APPROVAL_PERSON_ORGANIZATION(#697,#684,#698);
#700=PERSON_AND_ORGANIZATION_ROLE('creator');
#701=CC_DESIGN_PERSON_AND_ORGANIZATION_ASSIGNMENT(#697,#700,(#673,#674));
#702=PERSON_AND_ORGANIZATION_ROLE('design_supplier');
#703=CC_DESIGN_PERSON_AND_ORGANIZATION_ASSIGNMENT(#697,#702,(#673));
#704=PERSON_AND_ORGANIZATION_ROLE('classification_officer');
#705=CC_DESIGN_PERSON_AND_ORGANIZATION_ASSIGNMENT(#697,#704,(#681));
#706=PERSON_AND_ORGANIZATION_ROLE('design_owner');
#707=CC_DESIGN_PERSON_AND_ORGANIZATION_ASSIGNMENT(#697,#706,(#672));
#41=CIRCLE('',#40,5.15E0);
#46=CIRCLE('',#45,5.15E0);
#55=CIRCLE('',#54,5.15E0);
#60=CIRCLE('',#59,5.15E0);
#149=CIRCLE('',#148,2.5E0);
#154=CIRCLE('',#153,2.5E0);
#163=CIRCLE('',#162,2.5E0);
#168=CIRCLE('',#167,2.5E0);
#302=EDGE_CURVE('',#266,#270,#4,.T.);
#304=EDGE_CURVE('',#248,#270,#8,.T.);
#306=EDGE_CURVE('',#247,#248,#12,.T.);
#308=EDGE_CURVE('',#272,#247,#16,.T.);
#310=EDGE_CURVE('',#272,#268,#20,.T.);
#312=EDGE_CURVE('',#236,#268,#24,.T.);
#314=EDGE_CURVE('',#235,#236,#28,.T.);
#316=EDGE_CURVE('',#266,#235,#32,.T.);
#326=EDGE_CURVE('',#282,#286,#36,.T.);
#328=EDGE_CURVE('',#270,#286,#41,.T.);
#331=EDGE_CURVE('',#282,#266,#46,.T.);
#341=EDGE_CURVE('',#288,#284,#50,.T.);
#343=EDGE_CURVE('',#268,#284,#55,.T.);
#346=EDGE_CURVE('',#288,#272,#60,.T.);
#357=EDGE_CURVE('',#240,#282,#64,.T.);
#359=EDGE_CURVE('',#239,#240,#68,.T.);
#361=EDGE_CURVE('',#284,#239,#72,.T.);
#364=EDGE_CURVE('',#244,#288,#76,.T.);
#366=EDGE_CURVE('',#243,#244,#80,.T.);
#368=EDGE_CURVE('',#286,#243,#84,.T.);
#378=EDGE_CURVE('',#290,#282,#88,.T.);
#380=EDGE_CURVE('',#256,#290,#140,.T.);
#382=EDGE_CURVE('',#240,#256,#116,.T.);
#395=EDGE_CURVE('',#274,#266,#92,.T.);
#397=EDGE_CURVE('',#290,#274,#149,.T.);
#409=EDGE_CURVE('',#235,#251,#96,.T.);
#411=EDGE_CURVE('',#274,#251,#176,.T.);
#422=EDGE_CURVE('',#236,#252,#100,.T.);
#424=EDGE_CURVE('',#251,#252,#180,.T.);
#435=EDGE_CURVE('',#276,#268,#104,.T.);
#437=EDGE_CURVE('',#252,#276,#184,.T.);
#449=EDGE_CURVE('',#292,#284,#108,.T.);
#451=EDGE_CURVE('',#276,#292,#168,.T.);
#465=EDGE_CURVE('',#239,#255,#112,.T.);
#467=EDGE_CURVE('',#292,#255,#132,.T.);
#479=EDGE_CURVE('',#255,#256,#136,.T.);
#490=EDGE_CURVE('',#290,#294,#144,.T.);
#492=EDGE_CURVE('',#294,#259,#120,.T.);
#494=EDGE_CURVE('',#259,#260,#124,.T.);
#496=EDGE_CURVE('',#260,#296,#128,.T.);
#498=EDGE_CURVE('',#296,#292,#158,.T.);
#513=EDGE_CURVE('',#274,#278,#172,.T.);
#515=EDGE_CURVE('',#278,#294,#154,.T.);
#526=EDGE_CURVE('',#296,#280,#163,.T.);
#528=EDGE_CURVE('',#280,#276,#188,.T.);
#544=EDGE_CURVE('',#280,#263,#192,.T.);
#546=EDGE_CURVE('',#263,#264,#196,.T.);
#548=EDGE_CURVE('',#264,#278,#200,.T.);
#558=EDGE_CURVE('',#280,#272,#204,.T.);
#561=EDGE_CURVE('',#247,#263,#208,.T.);
#572=EDGE_CURVE('',#296,#288,#212,.T.);
#587=EDGE_CURVE('',#244,#260,#216,.T.);
#601=EDGE_CURVE('',#243,#259,#220,.T.);
#611=EDGE_CURVE('',#294,#286,#224,.T.);
#626=EDGE_CURVE('',#278,#270,#228,.T.);
#639=EDGE_CURVE('',#248,#264,#232,.T.);
#659=(LENGTH_UNIT()NAMED_UNIT(*)SI_UNIT(.MILLI.,.METRE.));
#661=(NAMED_UNIT(*)PLANE_ANGLE_UNIT()SI_UNIT($,.RADIAN.));
#664=(NAMED_UNIT(*)SI_UNIT($,.STERADIAN.)SOLID_ANGLE_UNIT());
#667=ADVANCED_BREP_SHAPE_REPRESENTATION('',(#658),#666);
#674=PRODUCT_DEFINITION('design','',#673,#670);
#675=PRODUCT_DEFINITION_SHAPE('','SHAPE FOR CQ17517.',#674);
#676=SHAPE_DEFINITION_REPRESENTATION(#675,#667);
ENDSEC;
END-ISO-10303-21;
