 0
SECTION
 2
HEADER
 0
ENDSEC
 0
SECTION
 2
TABLES
 0
TABLE
 2
LAYER
 70
1
 0
LAYER
 70
1
 2
0
 62
0
 6
CONTINUOUS
 0
ENDTAB
 0
ENDSEC
 0
SECTION
 2
ENTITIES
 0
ARC
 8
0
 10
45
 20
6
 40
6
 50
-150.07933
 51
-90
 0
ARC
 8
0
 10
-46.872295
 20
-46.872303
 40
100
 50
29.920313
 51
60.079697
 0
ARC
 8
0
 10
6
 20
45
 40
5.999996
 50
180
 51
240.079346
 0
LINE
 8
0
 10
0
 20
45
 11
37
 21
45
 0
LINE
 8
0
 10
37
 20
45
 11
40.775501
 21
41.224499
 0
LINE
 8
0
 10
40.775501
 20
41.224499
 11
43.621601
 21
49.220699
 0
ARC
 8
0
 10
37.639202
 20
51.349998
 40
6.35004
 50
-19.592041
 51
19.592064
 0
LINE
 8
0
 10
43.621601
 20
53.479301
 11
40.775501
 21
61.475498
 0
LINE
 8
0
 10
40.775501
 20
61.475498
 11
37
 21
57.700001
 0
LINE
 8
0
 10
37
 20
57.700001
 11
0
 21
57.700001
 0
ARC
 8
0
 10
6
 20
57.700001
 40
6
 50
119.920662
 51
180
 0
ARC
 8
0
 10
-46.872303
 20
149.572296
 40
100
 50
-60.079681
 51
-29.920288
 0
ARC
 8
0
 10
45
 20
96.700005
 40
5.999995
 50
90
 51
150.079361
 0
LINE
 8
0
 10
45
 20
102.699997
 11
45
 21
65.699997
 0
LINE
 8
0
 10
45
 20
65.699997
 11
41.224499
 21
61.9245
 0
LINE
 8
0
 10
41.224499
 20
61.9245
 11
52.060398
 21
58.067699
 0
ARC
 8
0
 10
54.189697
 20
64.050102
 40
6.350044
 50
-109.59201
 51
-90
 0
LINE
 8
0
 10
54.189701
 20
57.7001
 11
73.910301
 21
57.700001
 0
ARC
 8
0
 10
73.910301
 20
64.050003
 40
6.350002
 50
-90
 51
-70.407684
 0
LINE
 8
0
 10
76.039597
 20
58.067699
 11
86.875504
 21
61.9245
 0
LINE
 8
0
 10
86.875504
 20
61.9245
 11
83.099998
 21
65.699997
 0
LINE
 8
0
 10
83.099998
 20
65.699997
 11
83.099998
 21
102.699997
 0
ARC
 8
0
 10
83.099998
 20
96.699997
 40
6
 50
29.920689
 51
90
 0
ARC
 8
0
 10
174.97229
 20
149.572296
 40
99.999992
 50
-150.079681
 51
-119.920303
 0
ARC
 8
0
 10
122.099998
 20
57.699997
 40
5.999999
 50
0
 51
60.079376
 0
LINE
 8
0
 10
128.100006
 20
57.700001
 11
91.099998
 21
57.700001
 0
LINE
 8
0
 10
91.099998
 20
57.700001
 11
87.324501
 21
61.475498
 0
LINE
 8
0
 10
87.324501
 20
61.475498
 11
84.478401
 21
53.479301
 0
ARC
 8
0
 10
90.4608
 20
51.350002
 40
6.35004
 50
160.407974
 51
199.592072
 0
LINE
 8
0
 10
84.478401
 20
49.220699
 11
87.324501
 21
41.224499
 0
LINE
 8
0
 10
87.324501
 20
41.224499
 11
91.099998
 21
45
 0
LINE
 8
0
 10
91.099998
 20
45
 11
128.100006
 21
45
 0
ARC
 8
0
 10
122.100006
 20
45
 40
6
 50
-60.079407
 51
0
 0
ARC
 8
0
 10
174.97229
 20
-46.872295
 40
99.999992
 50
119.920311
 51
150.079697
 0
ARC
 8
0
 10
83.099998
 20
6
 40
6
 50
-90
 51
-29.920654
 0
LINE
 8
0
 10
83.099998
 20
0
 11
83.099998
 21
37
 0
LINE
 8
0
 10
83.099998
 20
37
 11
86.875504
 21
40.775501
 0
LINE
 8
0
 10
86.875504
 20
40.775501
 11
76.039597
 21
44.632401
 0
ARC
 8
0
 10
73.910294
 20
38.650002
 40
6.350041
 50
70.407936
 51
90
 0
LINE
 8
0
 10
73.910301
 20
45
 11
54.1898
 21
45
 0
ARC
 8
0
 10
54.1898
 20
38.650002
 40
6.349998
 50
90
 51
109.592911
 0
LINE
 8
0
 10
52.060398
 20
44.632401
 11
41.224499
 21
40.775501
 0
LINE
 8
0
 10
41.224499
 20
40.775501
 11
45
 21
37
 0
LINE
 8
0
 10
45
 20
37
 11
45
 21
0
 0
ENDSEC
 0
EOF
