 0
SECTION
 2
HEADER
 0
ENDSEC
 0
SECTION
 2
TABLES
 0
TABLE
 2
LAYER
 70
2
 0
LAYER
 70
0
 2
0
 62
7
 6
CONTINUOUS
 0
LAYER
 70
0
 2
1FRAME
 62
7
 6
CONTINUOUS
 0
ENDTAB
 0
ENDSEC
 0
SECTION
 2
ENTITIES
 0
LINE
 8
1FRAME
 10
349.667988
 20
241.168371
 11
349.667988
 21
220.168371
 0
LINE
 8
1FRAME
 10
339.667988
 20
220.168371
 11
339.667988
 21
241.168371
 0
LINE
 8
0
 10
149.667988
 20
241.168371
 11
164.667988
 21
241.168371
 0
ARC
 8
0
 10
344.667988
 20
220.168371
 40
5
 50
180
 51
360
 0
LINE
 8
1FRAME
 10
424.667988
 20
241.168371
 11
424.667988
 21
220.168371
 0
LINE
 8
1FRAME
 10
414.667988
 20
220.168371
 11
414.667988
 21
241.168371
 0
ARC
 8
0
 10
419.667988
 20
220.168371
 40
5
 50
180
 51
360
 0
LINE
 8
1FRAME
 10
274.667988
 20
241.168371
 11
274.667988
 21
220.168371
 0
LINE
 8
1FRAME
 10
264.667988
 20
220.168371
 11
264.667988
 21
241.168371
 0
ARC
 8
0
 10
269.667988
 20
220.168371
 40
5
 50
180
 51
360
 0
LINE
 8
0
 10
544.667988
 20
181.068371
 11
544.667988
 21
236.168371
 0
LINE
 8
0
 10
144.667988
 20
181.068371
 11
144.667988
 21
236.168371
 0
LINE
 8
1FRAME
 10
174.667988
 20
241.168371
 11
174.667988
 21
220.168371
 0
LINE
 8
1FRAME
 10
164.667988
 20
220.168371
 11
164.667988
 21
241.168371
 0
ARC
 8
0
 10
169.667988
 20
220.168371
 40
5
 50
180
 51
360
 0
LINE
 8
1FRAME
 10
199.667988
 20
241.168371
 11
199.667988
 21
220.168371
 0
LINE
 8
1FRAME
 10
189.667988
 20
220.168371
 11
189.667988
 21
241.168371
 0
ARC
 8
0
 10
194.667988
 20
220.168371
 40
5
 50
180
 51
360
 0
LINE
 8
1FRAME
 10
514.667988
 20
241.168371
 11
514.667988
 21
220.168371
 0
LINE
 8
1FRAME
 10
524.667988
 20
220.168371
 11
524.667988
 21
241.168371
 0
ARC
 8
0
 10
519.667988
 20
220.168371
 40
5
 50
180
 51
360
 0
LINE
 8
1FRAME
 10
489.667988
 20
241.168371
 11
489.667988
 21
220.168371
 0
LINE
 8
1FRAME
 10
499.667988
 20
220.168371
 11
499.667988
 21
241.168371
 0
ARC
 8
0
 10
494.667988
 20
220.168371
 40
5
 50
180
 51
360
 0
LINE
 8
0
 10
524.667988
 20
241.168371
 11
539.667988
 21
241.168371
 0
LINE
 8
0
 10
499.667988
 20
241.168371
 11
514.667988
 21
241.168371
 0
LINE
 8
0
 10
424.667988
 20
241.168371
 11
489.667988
 21
241.168371
 0
LINE
 8
0
 10
349.667988
 20
241.168371
 11
414.667988
 21
241.168371
 0
LINE
 8
0
 10
274.667988
 20
241.168371
 11
339.667988
 21
241.168371
 0
LINE
 8
0
 10
199.667988
 20
241.168371
 11
264.667988
 21
241.168371
 0
LINE
 8
0
 10
174.667988
 20
241.168371
 11
189.667988
 21
241.168371
 0
LINE
 8
0
 10
224.667988
 20
160.568371
 11
464.667988
 21
160.568371
 0
LINE
 8
0
 10
144.667988
 20
236.168371
 11
149.667988
 21
241.168371
 0
LINE
 8
0
 10
539.667988
 20
241.168371
 11
544.667988
 21
236.168371
 0
LINE
 8
0
 10
469.667988
 20
165.568371
 11
469.667988
 21
181.068371
 0
LINE
 8
0
 10
219.667988
 20
165.568371
 11
219.667988
 21
181.068371
 0
CIRCLE
 8
0
 10
464.667988
 20
169.068371
 40
2.25
 0
CIRCLE
 8
0
 10
404.667988
 20
169.068371
 40
2.25
 0
CIRCLE
 8
0
 10
344.667988
 20
169.068371
 40
2.25
 0
CIRCLE
 8
0
 10
284.667988
 20
169.068371
 40
2.25
 0
CIRCLE
 8
0
 10
224.667988
 20
169.068371
 40
2.25
 0
LINE
 8
0
 10
144.667988
 20
181.068371
 11
219.667988
 21
181.068371
 0
LINE
 8
0
 10
469.667988
 20
181.068371
 11
544.667988
 21
181.068371
 0
LINE
 8
0
 10
469.667988
 20
165.568371
 11
464.667988
 21
160.568371
 0
LINE
 8
0
 10
224.667988
 20
160.568371
 11
219.667988
 21
165.568371
 0
LINE
 8
0
 10
364.667988
 20
180.368371
 11
324.667988
 21
180.368371
 0
LINE
 8
0
 10
364.667988
 20
200.368371
 11
324.667988
 21
200.368371
 0
ARC
 8
0
 10
364.667988
 20
190.368371
 40
10
 50
-90
 51
90
 0
ARC
 8
0
 10
324.667988
 20
190.368371
 40
10
 50
90
 51
270
 0
LINE
 8
0
 10
274.667988
 20
180.368371
 11
234.667988
 21
180.368371
 0
LINE
 8
0
 10
274.667988
 20
200.368371
 11
234.667988
 21
200.368371
 0
ARC
 8
0
 10
274.667988
 20
190.368371
 40
10
 50
-90
 51
90
 0
ARC
 8
0
 10
234.667988
 20
190.368371
 40
10
 50
90
 51
270
 0
LINE
 8
0
 10
454.667988
 20
180.368371
 11
414.667988
 21
180.368371
 0
LINE
 8
0
 10
454.667988
 20
200.368371
 11
414.667988
 21
200.368371
 0
ARC
 8
0
 10
454.667988
 20
190.368371
 40
10
 50
-90
 51
90
 0
ARC
 8
0
 10
414.667988
 20
190.368371
 40
10
 50
90
 51
270
 0
ENDSEC
 0
EOF
