 0
SECTION
 2
HEADER
 0
ENDSEC
 0
SECTION
 2
TABLES
 0
TABLE
 2
LAYER
 70
3
 0
LAYER
 70
0
 2
0
 62
7
 6
CONTINUOUS
 0
LAYER
 70
1
 2
MBEND
 62
3
 6
DASHDOTDOT
 0
LAYER
 70
1
 2
BEND
 62
3
 6
DOT
 0
ENDTAB
 0
TABLE
 2
STYLE
 70
5
 0
STYLE
 2
Standard
 70
0
 40
0
 41
1
 50
0
 71
0
 42
1
 3
txt
 4

 0
STYLE
 2
SLDTEXTSTYLE0
 70
0
 40
0
 41
0.75
 50
0
 71
0
 42
1
 3
TXT
 4

 0
STYLE
 2
SLDTEXTSTYLE1
 70
0
 40
0
 41
0.6864493306
 50
0
 71
0
 42
1
 3
TXT
 4

 0
STYLE
 2
SLDTEXTSTYLE2
 70
0
 40
0
 41
0.6875
 50
0
 71
0
 42
1
 3
TXT
 4

 0
STYLE
 2
SLDTEXTSTYLE3
 70
0
 40
0
 41
0.65625
 50
0
 71
0
 42
1
 3
TXT
 4

 0
ENDTAB
 0
TABLE
 2
BLOCKS
 70
6
 0
BLOCK
 70
65
 2
SW_NOTE_0
 10
0
 20
0
 0
TEXT
 8
0
 62
0
 10
0
 20
1.933602
 40
1.5
 1
UNLESS OTHERWISE SPECIFIED:
 11
0
 21
1.933602
 7
SLDTEXTSTYLE0
 41
0.75
 73
3
 0
TEXT
 8
0
 62
0
 10
0
 20
-0.566398
 40
1.5
 1
DIMENSIONS ARE IN MILLIMETERS
 11
0
 21
-0.566398
 7
SLDTEXTSTYLE0
 41
0.75
 73
3
 0
TEXT
 8
0
 62
0
 10
0
 20
-3.066398
 40
1.5
 1
SURFACE FINISH:
 11
0
 21
-3.066398
 7
SLDTEXTSTYLE0
 41
0.75
 73
3
 0
TEXT
 8
0
 62
0
 10
0
 20
-5.566398
 40
1.5
 1
TOLERANCES:
 11
0
 21
-5.566398
 7
SLDTEXTSTYLE0
 41
0.75
 73
3
 0
TEXT
 8
0
 62
0
 10
1.6875
 20
-8.066398
 40
1.5
 1
LINEAR:
 11
1.6875
 21
-8.066398
 7
SLDTEXTSTYLE0
 41
0.75
 73
3
 0
TEXT
 8
0
 62
0
 10
1.6875
 20
-10.566398
 40
1.5
 1
ANGULAR:
 11
1.6875
 21
-10.566398
 7
SLDTEXTSTYLE0
 41
0.75
 73
3
 0
ENDBLK
 0
BLOCK
 70
65
 2
SW_NOTE_1
 10
0
 20
0
 0
TEXT
 8
0
 62
0
 10
0
 20
1.933602
 40
1.5
 1
DEBURR AND
 11
0
 21
1.933602
 7
SLDTEXTSTYLE0
 41
0.75
 73
3
 0
TEXT
 8
0
 62
0
 10
0
 20
-0.566398
 40
1.5
 1
BREAK SHARP
 11
0
 21
-0.566398
 7
SLDTEXTSTYLE0
 41
0.75
 73
3
 0
TEXT
 8
0
 62
0
 10
0
 20
-3.066398
 40
1.5
 1
EDGES
 11
0
 21
-3.066398
 7
SLDTEXTSTYLE0
 41
0.75
 73
3
 0
ENDBLK
 0
BLOCK
 70
65
 2
SW_CENTERMARKSYMBOL_0
 10
0
 20
0
 0
LINE
 8
0
 62
0
 10
0
 20
0
 11
0
 21
5
 0
LINE
 8
0
 62
0
 10
0
 20
0
 11
-5
 21
0
 0
LINE
 8
0
 62
0
 10
0
 20
0
 11
0
 21
-5
 0
LINE
 8
0
 62
0
 10
0
 20
0
 11
5
 21
0
 0
LINE
 8
0
 62
0
 10
0
 20
10
 11
0
 21
13.5
 0
LINE
 8
0
 62
0
 10
-10
 20
0
 11
-13.5
 21
0
 0
LINE
 8
0
 62
0
 10
0
 20
-10
 11
0
 21
-13.5
 0
LINE
 8
0
 62
0
 10
10
 20
0
 11
13.5
 21
0
 0
ENDBLK
 0
BLOCK
 70
65
 2
SW_CENTERMARKSYMBOL_1
 10
0
 20
0
 0
LINE
 8
0
 62
0
 10
0
 20
0
 11
0
 21
5
 0
LINE
 8
0
 62
0
 10
0
 20
0
 11
-5
 21
0
 0
LINE
 8
0
 62
0
 10
0
 20
0
 11
0
 21
-5
 0
LINE
 8
0
 62
0
 10
0
 20
0
 11
5
 21
0
 0
LINE
 8
0
 62
0
 10
0
 20
10
 11
0
 21
13.5
 0
LINE
 8
0
 62
0
 10
-10
 20
0
 11
-13.5
 21
0
 0
LINE
 8
0
 62
0
 10
0
 20
-10
 11
0
 21
-13.5
 0
LINE
 8
0
 62
0
 10
10
 20
0
 11
13.5
 21
0
 0
ENDBLK
 0
BLOCK
 70
65
 2
SW_CENTERMARKSYMBOL_2
 10
0
 20
0
 0
LINE
 8
0
 62
0
 10
0
 20
0
 11
0
 21
5
 0
LINE
 8
0
 62
0
 10
0
 20
0
 11
-5
 21
0
 0
LINE
 8
0
 62
0
 10
0
 20
0
 11
0
 21
-5
 0
LINE
 8
0
 62
0
 10
0
 20
0
 11
5
 21
0
 0
LINE
 8
0
 62
0
 10
0
 20
10
 11
0
 21
13.5
 0
LINE
 8
0
 62
0
 10
-10
 20
0
 11
-13.5
 21
0
 0
LINE
 8
0
 62
0
 10
0
 20
-10
 11
0
 21
-13.5
 0
LINE
 8
0
 62
0
 10
10
 20
0
 11
13.5
 21
0
 0
ENDBLK
 0
BLOCK
 70
65
 2
SW_CENTERMARKSYMBOL_3
 10
0
 20
0
 0
LINE
 8
0
 62
0
 10
0
 20
0
 11
0
 21
5
 0
LINE
 8
0
 62
0
 10
0
 20
0
 11
-5
 21
0
 0
LINE
 8
0
 62
0
 10
0
 20
0
 11
0
 21
-5
 0
LINE
 8
0
 62
0
 10
0
 20
0
 11
5
 21
0
 0
LINE
 8
0
 62
0
 10
0
 20
10
 11
0
 21
13.5
 0
LINE
 8
0
 62
0
 10
-10
 20
0
 11
-13.5
 21
0
 0
LINE
 8
0
 62
0
 10
0
 20
-10
 11
0
 21
-13.5
 0
LINE
 8
0
 62
0
 10
10
 20
0
 11
13.5
 21
0
 0
ENDBLK
 0
ENDTAB
 0
ENDSEC
 0
SECTION
 2
ENTITIES
 0
LINE
 8
0
 62
7
 10
999
 20
14.25
 11
1179
 21
14.25
 0
LINE
 8
0
 62
7
 10
1179
 20
48.25
 11
999
 21
48.25
 0
LINE
 8
0
 62
7
 10
999
 20
65.25
 11
1179
 21
65.25
 0
LINE
 8
0
 62
7
 10
1025.990952
 20
48.25
 11
1025.990952
 21
10
 0
LINE
 8
0
 62
7
 10
1097.8
 20
31.25
 11
999
 21
31.25
 0
LINE
 8
0
 62
7
 10
1097.8
 20
35.5
 11
999
 21
35.5
 0
LINE
 8
0
 62
7
 10
1097.8
 20
39.75
 11
999
 21
39.75
 0
LINE
 8
0
 62
7
 10
1097.8
 20
44
 11
999
 21
44
 0
LINE
 8
0
 62
7
 10
1053.6
 20
10
 11
1053.6
 21
48.25
 0
LINE
 8
0
 62
7
 10
999
 20
65.25
 11
999
 21
10
 0
LINE
 8
0
 62
7
 10
1006.8
 20
48.25
 11
1006.8
 21
10
 0
LINE
 8
0
 62
7
 10
1032.8
 20
48.25
 11
1032.8
 21
65.25
 0
LINE
 8
0
 62
7
 10
1043.398926
 20
48.25
 11
1043.398926
 21
10
 0
LINE
 8
0
 62
7
 10
1064
 20
31.25
 11
1064
 21
48.25
 0
LINE
 8
0
 62
7
 10
1053.6
 20
18.5
 11
999
 21
18.5
 0
LINE
 8
0
 62
7
 10
1079.6
 20
65.25
 11
1079.6
 21
27
 0
LINE
 8
0
 62
7
 10
1053.6
 20
22.749928
 11
999
 21
22.749928
 0
LINE
 8
0
 62
7
 10
1053.6
 20
27
 11
999
 21
27
 0
LINE
 8
0
 62
7
 10
1053.6
 20
27
 11
1179
 21
27
 0
LINE
 8
0
 62
7
 10
1097.8
 20
65.25
 11
1097.8
 21
10
 0
LINE
 8
0
 62
7
 10
1142
 20
10
 11
1142
 21
14.25
 0
LINE
 8
0
 62
7
 10
1149.8
 20
58.875
 11
1149.8
 21
65.25
 0
LINE
 8
0
 62
7
 10
1166
 20
14.25
 11
1166
 21
27
 0
LINE
 8
0
 62
7
 10
1179
 20
58.875
 11
1097.8
 21
58.875
 0
LINE
 8
0
 62
7
 10
1179
 20
18.5
 11
1166
 21
18.5
 0
LINE
 8
0
 62
7
 10
20
 20
10
 11
20
 21
831
 0
LINE
 8
0
 62
7
 10
20
 20
831
 11
1179
 21
831
 0
LINE
 8
0
 62
7
 10
1179
 20
831
 11
1179
 21
10
 0
LINE
 8
0
 62
7
 10
1179
 20
10
 11
20
 21
10
 0
LINE
 8
0
 62
7
 10
15
 20
5
 11
15
 21
836
 0
LINE
 8
0
 62
7
 10
15
 20
836
 11
1184
 21
836
 0
LINE
 8
0
 62
7
 10
1184
 20
836
 11
1184
 21
5
 0
LINE
 8
0
 62
7
 10
1184
 20
5
 11
15
 21
5
 0
LINE
 8
0
 62
7
 10
15
 20
420.5
 11
25
 21
420.5
 0
LINE
 8
0
 62
7
 10
599.5
 20
836
 11
599.5
 21
826
 0
LINE
 8
0
 62
7
 10
1184
 20
420.5
 11
1174
 21
420.5
 0
LINE
 8
0
 62
7
 10
599.5
 20
5
 11
599.5
 21
15
 0
LINE
 8
0
 62
7
 10
20
 20
70.5
 11
15
 21
70.5
 0
LINE
 8
0
 62
7
 10
1179
 20
70.5
 11
1184
 21
70.5
 0
LINE
 8
0
 62
7
 10
20
 20
120.5
 11
15
 21
120.5
 0
LINE
 8
0
 62
7
 10
1179
 20
120.5
 11
1184
 21
120.5
 0
LINE
 8
0
 62
7
 10
20
 20
170.5
 11
15
 21
170.5
 0
LINE
 8
0
 62
7
 10
1179
 20
170.5
 11
1184
 21
170.5
 0
LINE
 8
0
 62
7
 10
20
 20
220.5
 11
15
 21
220.5
 0
LINE
 8
0
 62
7
 10
1179
 20
220.5
 11
1184
 21
220.5
 0
LINE
 8
0
 62
7
 10
20
 20
270.5
 11
15
 21
270.5
 0
LINE
 8
0
 62
7
 10
1179
 20
270.5
 11
1184
 21
270.5
 0
LINE
 8
0
 62
7
 10
20
 20
320.5
 11
15
 21
320.5
 0
LINE
 8
0
 62
7
 10
1179
 20
320.5
 11
1184
 21
320.5
 0
LINE
 8
0
 62
7
 10
20
 20
370.5
 11
15
 21
370.5
 0
LINE
 8
0
 62
7
 10
1179
 20
370.5
 11
1184
 21
370.5
 0
LINE
 8
0
 62
7
 10
20
 20
420.5
 11
15
 21
420.5
 0
LINE
 8
0
 62
7
 10
1179
 20
420.5
 11
1184
 21
420.5
 0
LINE
 8
0
 62
7
 10
20
 20
470.5
 11
15
 21
470.5
 0
LINE
 8
0
 62
7
 10
1179
 20
470.5
 11
1184
 21
470.5
 0
LINE
 8
0
 62
7
 10
20
 20
520.5
 11
15
 21
520.5
 0
LINE
 8
0
 62
7
 10
1179
 20
520.5
 11
1184
 21
520.5
 0
LINE
 8
0
 62
7
 10
20
 20
570.5
 11
15
 21
570.5
 0
LINE
 8
0
 62
7
 10
1179
 20
570.5
 11
1184
 21
570.5
 0
LINE
 8
0
 62
7
 10
20
 20
620.5
 11
15
 21
620.5
 0
LINE
 8
0
 62
7
 10
1179
 20
620.5
 11
1184
 21
620.5
 0
LINE
 8
0
 62
7
 10
20
 20
670.5
 11
15
 21
670.5
 0
LINE
 8
0
 62
7
 10
1179
 20
670.5
 11
1184
 21
670.5
 0
LINE
 8
0
 62
7
 10
20
 20
720.5
 11
15
 21
720.5
 0
LINE
 8
0
 62
7
 10
1179
 20
720.5
 11
1184
 21
720.5
 0
LINE
 8
0
 62
7
 10
20
 20
770.5
 11
15
 21
770.5
 0
LINE
 8
0
 62
7
 10
1179
 20
770.5
 11
1184
 21
770.5
 0
LINE
 8
0
 62
7
 10
49.5
 20
831
 11
49.5
 21
836
 0
LINE
 8
0
 62
7
 10
49.5
 20
10
 11
49.5
 21
5
 0
LINE
 8
0
 62
7
 10
99.5
 20
831
 11
99.5
 21
836
 0
LINE
 8
0
 62
7
 10
99.5
 20
10
 11
99.5
 21
5
 0
LINE
 8
0
 62
7
 10
149.5
 20
831
 11
149.5
 21
836
 0
LINE
 8
0
 62
7
 10
149.5
 20
10
 11
149.5
 21
5
 0
LINE
 8
0
 62
7
 10
199.5
 20
831
 11
199.5
 21
836
 0
LINE
 8
0
 62
7
 10
199.5
 20
10
 11
199.5
 21
5
 0
LINE
 8
0
 62
7
 10
249.5
 20
831
 11
249.5
 21
836
 0
LINE
 8
0
 62
7
 10
249.5
 20
10
 11
249.5
 21
5
 0
LINE
 8
0
 62
7
 10
299.5
 20
831
 11
299.5
 21
836
 0
LINE
 8
0
 62
7
 10
299.5
 20
10
 11
299.5
 21
5
 0
LINE
 8
0
 62
7
 10
349.5
 20
831
 11
349.5
 21
836
 0
LINE
 8
0
 62
7
 10
349.5
 20
10
 11
349.5
 21
5
 0
LINE
 8
0
 62
7
 10
399.5
 20
831
 11
399.5
 21
836
 0
LINE
 8
0
 62
7
 10
399.5
 20
10
 11
399.5
 21
5
 0
LINE
 8
0
 62
7
 10
449.5
 20
831
 11
449.5
 21
836
 0
LINE
 8
0
 62
7
 10
449.5
 20
10
 11
449.5
 21
5
 0
LINE
 8
0
 62
7
 10
499.5
 20
831
 11
499.5
 21
836
 0
LINE
 8
0
 62
7
 10
499.5
 20
10
 11
499.5
 21
5
 0
LINE
 8
0
 62
7
 10
549.5
 20
831
 11
549.5
 21
836
 0
LINE
 8
0
 62
7
 10
549.5
 20
10
 11
549.5
 21
5
 0
LINE
 8
0
 62
7
 10
599.5
 20
831
 11
599.5
 21
836
 0
LINE
 8
0
 62
7
 10
599.5
 20
10
 11
599.5
 21
5
 0
LINE
 8
0
 62
7
 10
649.5
 20
831
 11
649.5
 21
836
 0
LINE
 8
0
 62
7
 10
649.5
 20
10
 11
649.5
 21
5
 0
LINE
 8
0
 62
7
 10
699.5
 20
831
 11
699.5
 21
836
 0
LINE
 8
0
 62
7
 10
699.5
 20
10
 11
699.5
 21
5
 0
LINE
 8
0
 62
7
 10
749.5
 20
831
 11
749.5
 21
836
 0
LINE
 8
0
 62
7
 10
749.5
 20
10
 11
749.5
 21
5
 0
LINE
 8
0
 62
7
 10
799.5
 20
831
 11
799.5
 21
836
 0
LINE
 8
0
 62
7
 10
799.5
 20
10
 11
799.5
 21
5
 0
LINE
 8
0
 62
7
 10
849.5
 20
831
 11
849.5
 21
836
 0
LINE
 8
0
 62
7
 10
849.5
 20
10
 11
849.5
 21
5
 0
LINE
 8
0
 62
7
 10
899.5
 20
831
 11
899.5
 21
836
 0
LINE
 8
0
 62
7
 10
899.5
 20
10
 11
899.5
 21
5
 0
LINE
 8
0
 62
7
 10
949.5
 20
831
 11
949.5
 21
836
 0
LINE
 8
0
 62
7
 10
949.5
 20
10
 11
949.5
 21
5
 0
LINE
 8
0
 62
7
 10
999.5
 20
831
 11
999.5
 21
836
 0
LINE
 8
0
 62
7
 10
999.5
 20
10
 11
999.5
 21
5
 0
LINE
 8
0
 62
7
 10
1049.5
 20
831
 11
1049.5
 21
836
 0
LINE
 8
0
 62
7
 10
1049.5
 20
10
 11
1049.5
 21
5
 0
LINE
 8
0
 62
7
 10
1099.5
 20
831
 11
1099.5
 21
836
 0
LINE
 8
0
 62
7
 10
1099.5
 20
10
 11
1099.5
 21
5
 0
LINE
 8
0
 62
7
 10
1149.5
 20
831
 11
1149.5
 21
836
 0
LINE
 8
0
 62
7
 10
1149.5
 20
10
 11
1149.5
 21
5
 0
TEXT
 8
0
 62
7
 10
17.339688
 20
42.754152
 40
3.96875
 1
A
 11
17.339688
 21
42.754152
 7
SLDTEXTSTYLE0
 41
0.75
 72
1
 73
3
 0
TEXT
 8
0
 62
7
 10
1181.339688
 20
42.754152
 40
3.96875
 1
A
 11
1181.339688
 21
42.754152
 7
SLDTEXTSTYLE0
 41
0.75
 72
1
 73
3
 0
TEXT
 8
0
 62
7
 10
17.470602
 20
97.93363
 40
3.96875
 1
B
 11
17.470602
 21
97.93363
 7
SLDTEXTSTYLE0
 41
0.75
 72
1
 73
3
 0
TEXT
 8
0
 62
7
 10
1181.470602
 20
97.93363
 40
3.96875
 1
B
 11
1181.470602
 21
97.93363
 7
SLDTEXTSTYLE0
 41
0.75
 72
1
 73
3
 0
TEXT
 8
0
 62
7
 10
17.458659
 20
148.004152
 40
3.96875
 1
C
 11
17.458659
 21
148.004152
 7
SLDTEXTSTYLE0
 41
0.75
 72
1
 73
3
 0
TEXT
 8
0
 62
7
 10
1181.458659
 20
148.004152
 40
3.96875
 1
C
 11
1181.458659
 21
148.004152
 7
SLDTEXTSTYLE0
 41
0.75
 72
1
 73
3
 0
TEXT
 8
0
 62
7
 10
17.452687
 20
197.93363
 40
3.96875
 1
D
 11
17.452687
 21
197.93363
 7
SLDTEXTSTYLE0
 41
0.75
 72
1
 73
3
 0
TEXT
 8
0
 62
7
 10
1181.452687
 20
197.93363
 40
3.96875
 1
D
 11
1181.452687
 21
197.93363
 7
SLDTEXTSTYLE0
 41
0.75
 72
1
 73
3
 0
TEXT
 8
0
 62
7
 10
17.507809
 20
248.004152
 40
3.96875
 1
E
 11
17.507809
 21
248.004152
 7
SLDTEXTSTYLE0
 41
0.75
 72
1
 73
3
 0
TEXT
 8
0
 62
7
 10
1181.507809
 20
248.004152
 40
3.96875
 1
E
 11
1181.507809
 21
248.004152
 7
SLDTEXTSTYLE0
 41
0.75
 72
1
 73
3
 0
TEXT
 8
0
 62
7
 10
17.45774
 20
297.93363
 40
3.96875
 1
F
 11
17.45774
 21
297.93363
 7
SLDTEXTSTYLE0
 41
0.75
 72
1
 73
3
 0
TEXT
 8
0
 62
7
 10
1181.45774
 20
297.93363
 40
3.96875
 1
F
 11
1181.45774
 21
297.93363
 7
SLDTEXTSTYLE0
 41
0.75
 72
1
 73
3
 0
TEXT
 8
0
 62
7
 10
17.486679
 20
348.004152
 40
3.96875
 1
G
 11
17.486679
 21
348.004152
 7
SLDTEXTSTYLE0
 41
0.75
 72
1
 73
3
 0
TEXT
 8
0
 62
7
 10
1181.486679
 20
348.004152
 40
3.96875
 1
G
 11
1181.486679
 21
348.004152
 7
SLDTEXTSTYLE0
 41
0.75
 72
1
 73
3
 0
TEXT
 8
0
 62
7
 10
17.490354
 20
397.93363
 40
3.96875
 1
H
 11
17.490354
 21
397.93363
 7
SLDTEXTSTYLE0
 41
0.75
 72
1
 73
3
 0
TEXT
 8
0
 62
7
 10
1181.490354
 20
397.93363
 40
3.96875
 1
H
 11
1181.490354
 21
397.93363
 7
SLDTEXTSTYLE0
 41
0.75
 72
1
 73
3
 0
TEXT
 8
0
 62
7
 10
17.46509
 20
448.004152
 40
3.96875
 1
J
 11
17.46509
 21
448.004152
 7
SLDTEXTSTYLE0
 41
0.75
 72
1
 73
3
 0
TEXT
 8
0
 62
7
 10
1181.46509
 20
448.004152
 40
3.96875
 1
J
 11
1181.46509
 21
448.004152
 7
SLDTEXTSTYLE0
 41
0.75
 72
1
 73
3
 0
TEXT
 8
0
 62
7
 10
17.488516
 20
497.93363
 40
3.96875
 1
K
 11
17.488516
 21
497.93363
 7
SLDTEXTSTYLE0
 41
0.75
 72
1
 73
3
 0
TEXT
 8
0
 62
7
 10
1181.488516
 20
497.93363
 40
3.96875
 1
K
 11
1181.488516
 21
497.93363
 7
SLDTEXTSTYLE0
 41
0.75
 72
1
 73
3
 0
TEXT
 8
0
 62
7
 10
17.454525
 20
548.004152
 40
3.96875
 1
L
 11
17.454525
 21
548.004152
 7
SLDTEXTSTYLE0
 41
0.75
 72
1
 73
3
 0
TEXT
 8
0
 62
7
 10
1181.454525
 20
548.004152
 40
3.96875
 1
L
 11
1181.454525
 21
548.004152
 7
SLDTEXTSTYLE0
 41
0.75
 72
1
 73
3
 0
TEXT
 8
0
 62
7
 10
17.361737
 20
597.93363
 40
3.96875
 1
M
 11
17.361737
 21
597.93363
 7
SLDTEXTSTYLE0
 41
0.75
 72
1
 73
3
 0
TEXT
 8
0
 62
7
 10
1181.361737
 20
597.93363
 40
3.96875
 1
M
 11
1181.361737
 21
597.93363
 7
SLDTEXTSTYLE0
 41
0.75
 72
1
 73
3
 0
TEXT
 8
0
 62
7
 10
17.463712
 20
648.004152
 40
3.96875
 1
N
 11
17.463712
 21
648.004152
 7
SLDTEXTSTYLE0
 41
0.75
 72
1
 73
3
 0
TEXT
 8
0
 62
7
 10
1181.463712
 20
648.004152
 40
3.96875
 1
N
 11
1181.463712
 21
648.004152
 7
SLDTEXTSTYLE0
 41
0.75
 72
1
 73
3
 0
TEXT
 8
0
 62
7
 10
17.484842
 20
697.93363
 40
3.96875
 1
P
 11
17.484842
 21
697.93363
 7
SLDTEXTSTYLE0
 41
0.75
 72
1
 73
3
 0
TEXT
 8
0
 62
7
 10
1181.484842
 20
697.93363
 40
3.96875
 1
P
 11
1181.484842
 21
697.93363
 7
SLDTEXTSTYLE0
 41
0.75
 72
1
 73
3
 0
TEXT
 8
0
 62
7
 10
17.444419
 20
748.004152
 40
3.96875
 1
R
 11
17.444419
 21
748.004152
 7
SLDTEXTSTYLE0
 41
0.75
 72
1
 73
3
 0
TEXT
 8
0
 62
7
 10
1181.444419
 20
748.004152
 40
3.96875
 1
R
 11
1181.444419
 21
748.004152
 7
SLDTEXTSTYLE0
 41
0.75
 72
1
 73
3
 0
TEXT
 8
0
 62
7
 10
17.488057
 20
803.254152
 40
3.96875
 1
T
 11
17.488057
 21
803.254152
 7
SLDTEXTSTYLE0
 41
0.75
 72
1
 73
3
 0
TEXT
 8
0
 62
7
 10
1181.488057
 20
803.254152
 40
3.96875
 1
T
 11
1181.488057
 21
803.254152
 7
SLDTEXTSTYLE0
 41
0.75
 72
1
 73
3
 0
TEXT
 8
0
 62
7
 10
34.670074
 20
9.93363
 40
3.96875
 1
24
 11
34.670074
 21
9.93363
 7
SLDTEXTSTYLE0
 41
0.75
 72
1
 73
3
 0
TEXT
 8
0
 62
7
 10
34.670074
 20
836.004152
 40
3.96875
 1
24
 11
34.670074
 21
836.004152
 7
SLDTEXTSTYLE0
 41
0.75
 72
1
 73
3
 0
TEXT
 8
0
 62
7
 10
74.420074
 20
9.93363
 40
3.96875
 1
23
 11
74.420074
 21
9.93363
 7
SLDTEXTSTYLE0
 41
0.75
 72
1
 73
3
 0
TEXT
 8
0
 62
7
 10
74.420074
 20
836.004152
 40
3.96875
 1
23
 11
74.420074
 21
836.004152
 7
SLDTEXTSTYLE0
 41
0.75
 72
1
 73
3
 0
TEXT
 8
0
 62
7
 10
124.420074
 20
9.93363
 40
3.96875
 1
22
 11
124.420074
 21
9.93363
 7
SLDTEXTSTYLE0
 41
0.75
 72
1
 73
3
 0
TEXT
 8
0
 62
7
 10
124.420074
 20
836.004152
 40
3.96875
 1
22
 11
124.420074
 21
836.004152
 7
SLDTEXTSTYLE0
 41
0.75
 72
1
 73
3
 0
TEXT
 8
0
 62
7
 10
174.420074
 20
9.93363
 40
3.96875
 1
21
 11
174.420074
 21
9.93363
 7
SLDTEXTSTYLE0
 41
0.75
 72
1
 73
3
 0
TEXT
 8
0
 62
7
 10
174.420074
 20
836.004152
 40
3.96875
 1
21
 11
174.420074
 21
836.004152
 7
SLDTEXTSTYLE0
 41
0.75
 72
1
 73
3
 0
TEXT
 8
0
 62
7
 10
224.420074
 20
9.93363
 40
3.96875
 1
20
 11
224.420074
 21
9.93363
 7
SLDTEXTSTYLE0
 41
0.75
 72
1
 73
3
 0
TEXT
 8
0
 62
7
 10
224.420074
 20
836.004152
 40
3.96875
 1
20
 11
224.420074
 21
836.004152
 7
SLDTEXTSTYLE0
 41
0.75
 72
1
 73
3
 0
TEXT
 8
0
 62
7
 10
274.420074
 20
9.93363
 40
3.96875
 1
19
 11
274.420074
 21
9.93363
 7
SLDTEXTSTYLE0
 41
0.75
 72
1
 73
3
 0
TEXT
 8
0
 62
7
 10
274.420074
 20
836.004152
 40
3.96875
 1
19
 11
274.420074
 21
836.004152
 7
SLDTEXTSTYLE0
 41
0.75
 72
1
 73
3
 0
TEXT
 8
0
 62
7
 10
324.420074
 20
9.93363
 40
3.96875
 1
18
 11
324.420074
 21
9.93363
 7
SLDTEXTSTYLE0
 41
0.75
 72
1
 73
3
 0
TEXT
 8
0
 62
7
 10
324.420074
 20
836.004152
 40
3.96875
 1
18
 11
324.420074
 21
836.004152
 7
SLDTEXTSTYLE0
 41
0.75
 72
1
 73
3
 0
TEXT
 8
0
 62
7
 10
374.420074
 20
9.93363
 40
3.96875
 1
17
 11
374.420074
 21
9.93363
 7
SLDTEXTSTYLE0
 41
0.75
 72
1
 73
3
 0
TEXT
 8
0
 62
7
 10
374.420074
 20
836.004152
 40
3.96875
 1
17
 11
374.420074
 21
836.004152
 7
SLDTEXTSTYLE0
 41
0.75
 72
1
 73
3
 0
TEXT
 8
0
 62
7
 10
424.420074
 20
9.93363
 40
3.96875
 1
16
 11
424.420074
 21
9.93363
 7
SLDTEXTSTYLE0
 41
0.75
 72
1
 73
3
 0
TEXT
 8
0
 62
7
 10
424.420074
 20
836.004152
 40
3.96875
 1
16
 11
424.420074
 21
836.004152
 7
SLDTEXTSTYLE0
 41
0.75
 72
1
 73
3
 0
TEXT
 8
0
 62
7
 10
474.420074
 20
9.93363
 40
3.96875
 1
15
 11
474.420074
 21
9.93363
 7
SLDTEXTSTYLE0
 41
0.75
 72
1
 73
3
 0
TEXT
 8
0
 62
7
 10
474.420074
 20
836.004152
 40
3.96875
 1
15
 11
474.420074
 21
836.004152
 7
SLDTEXTSTYLE0
 41
0.75
 72
1
 73
3
 0
TEXT
 8
0
 62
7
 10
524.420074
 20
9.93363
 40
3.96875
 1
14
 11
524.420074
 21
9.93363
 7
SLDTEXTSTYLE0
 41
0.75
 72
1
 73
3
 0
TEXT
 8
0
 62
7
 10
524.420074
 20
836.004152
 40
3.96875
 1
14
 11
524.420074
 21
836.004152
 7
SLDTEXTSTYLE0
 41
0.75
 72
1
 73
3
 0
TEXT
 8
0
 62
7
 10
574.420074
 20
9.93363
 40
3.96875
 1
13
 11
574.420074
 21
9.93363
 7
SLDTEXTSTYLE0
 41
0.75
 72
1
 73
3
 0
TEXT
 8
0
 62
7
 10
574.420074
 20
836.004152
 40
3.96875
 1
13
 11
574.420074
 21
836.004152
 7
SLDTEXTSTYLE0
 41
0.75
 72
1
 73
3
 0
TEXT
 8
0
 62
7
 10
624.420074
 20
9.93363
 40
3.96875
 1
12
 11
624.420074
 21
9.93363
 7
SLDTEXTSTYLE0
 41
0.75
 72
1
 73
3
 0
TEXT
 8
0
 62
7
 10
624.420074
 20
836.004152
 40
3.96875
 1
12
 11
624.420074
 21
836.004152
 7
SLDTEXTSTYLE0
 41
0.75
 72
1
 73
3
 0
TEXT
 8
0
 62
7
 10
674.420074
 20
9.93363
 40
3.96875
 1
11
 11
674.420074
 21
9.93363
 7
SLDTEXTSTYLE0
 41
0.75
 72
1
 73
3
 0
TEXT
 8
0
 62
7
 10
674.420074
 20
836.004152
 40
3.96875
 1
11
 11
674.420074
 21
836.004152
 7
SLDTEXTSTYLE0
 41
0.75
 72
1
 73
3
 0
TEXT
 8
0
 62
7
 10
724.420074
 20
9.93363
 40
3.96875
 1
10
 11
724.420074
 21
9.93363
 7
SLDTEXTSTYLE0
 41
0.75
 72
1
 73
3
 0
TEXT
 8
0
 62
7
 10
724.420074
 20
836.004152
 40
3.96875
 1
10
 11
724.420074
 21
836.004152
 7
SLDTEXTSTYLE0
 41
0.75
 72
1
 73
3
 0
TEXT
 8
0
 62
7
 10
774.460037
 20
9.93363
 40
3.96875
 1
9
 11
774.460037
 21
9.93363
 7
SLDTEXTSTYLE0
 41
0.75
 72
1
 73
3
 0
TEXT
 8
0
 62
7
 10
774.460037
 20
836.004152
 40
3.96875
 1
9
 11
774.460037
 21
836.004152
 7
SLDTEXTSTYLE0
 41
0.75
 72
1
 73
3
 0
TEXT
 8
0
 62
7
 10
824.460037
 20
9.93363
 40
3.96875
 1
8
 11
824.460037
 21
9.93363
 7
SLDTEXTSTYLE0
 41
0.75
 72
1
 73
3
 0
TEXT
 8
0
 62
7
 10
824.460037
 20
836.004152
 40
3.96875
 1
8
 11
824.460037
 21
836.004152
 7
SLDTEXTSTYLE0
 41
0.75
 72
1
 73
3
 0
TEXT
 8
0
 62
7
 10
874.460037
 20
9.93363
 40
3.96875
 1
7
 11
874.460037
 21
9.93363
 7
SLDTEXTSTYLE0
 41
0.75
 72
1
 73
3
 0
TEXT
 8
0
 62
7
 10
874.460037
 20
836.004152
 40
3.96875
 1
7
 11
874.460037
 21
836.004152
 7
SLDTEXTSTYLE0
 41
0.75
 72
1
 73
3
 0
TEXT
 8
0
 62
7
 10
924.460037
 20
9.93363
 40
3.96875
 1
6
 11
924.460037
 21
9.93363
 7
SLDTEXTSTYLE0
 41
0.75
 72
1
 73
3
 0
TEXT
 8
0
 62
7
 10
924.460037
 20
836.004152
 40
3.96875
 1
6
 11
924.460037
 21
836.004152
 7
SLDTEXTSTYLE0
 41
0.75
 72
1
 73
3
 0
TEXT
 8
0
 62
7
 10
974.460037
 20
9.93363
 40
3.96875
 1
5
 11
974.460037
 21
9.93363
 7
SLDTEXTSTYLE0
 41
0.75
 72
1
 73
3
 0
TEXT
 8
0
 62
7
 10
974.460037
 20
836.004152
 40
3.96875
 1
5
 11
974.460037
 21
836.004152
 7
SLDTEXTSTYLE0
 41
0.75
 72
1
 73
3
 0
TEXT
 8
0
 62
7
 10
1024.460037
 20
9.93363
 40
3.96875
 1
4
 11
1024.460037
 21
9.93363
 7
SLDTEXTSTYLE0
 41
0.75
 72
1
 73
3
 0
TEXT
 8
0
 62
7
 10
1024.460037
 20
836.004152
 40
3.96875
 1
4
 11
1024.460037
 21
836.004152
 7
SLDTEXTSTYLE0
 41
0.75
 72
1
 73
3
 0
TEXT
 8
0
 62
7
 10
1074.460037
 20
9.93363
 40
3.96875
 1
3
 11
1074.460037
 21
9.93363
 7
SLDTEXTSTYLE0
 41
0.75
 72
1
 73
3
 0
TEXT
 8
0
 62
7
 10
1074.460037
 20
836.004152
 40
3.96875
 1
3
 11
1074.460037
 21
836.004152
 7
SLDTEXTSTYLE0
 41
0.75
 72
1
 73
3
 0
TEXT
 8
0
 62
7
 10
1124.460037
 20
9.93363
 40
3.96875
 1
2
 11
1124.460037
 21
9.93363
 7
SLDTEXTSTYLE0
 41
0.75
 72
1
 73
3
 0
TEXT
 8
0
 62
7
 10
1124.460037
 20
836.004152
 40
3.96875
 1
2
 11
1124.460037
 21
836.004152
 7
SLDTEXTSTYLE0
 41
0.75
 72
1
 73
3
 0
TEXT
 8
0
 62
7
 10
1164.210037
 20
9.93363
 40
3.96875
 1
1
 11
1164.210037
 21
9.93363
 7
SLDTEXTSTYLE0
 41
0.75
 72
1
 73
3
 0
TEXT
 8
0
 62
7
 10
1164.210037
 20
836.004152
 40
3.96875
 1
1
 11
1164.210037
 21
836.004152
 7
SLDTEXTSTYLE0
 41
0.75
 72
1
 73
3
 0
TEXT
 8
0
 62
7
 10
999.643363
 20
42.384781
 40
1.5
 1
DRAWN
 11
999.643363
 21
42.384781
 7
SLDTEXTSTYLE1
 41
0.686449
 73
3
 0
TEXT
 8
0
 62
7
 10
999.939222
 20
38.161853
 40
1.5
 1
CHK'D
 11
999.939222
 21
38.161853
 7
SLDTEXTSTYLE0
 41
0.75
 73
3
 0
TEXT
 8
0
 62
7
 10
999.401722
 20
34.065867
 40
1.5
 1
APPV'D
 11
999.401722
 21
34.065867
 7
SLDTEXTSTYLE0
 41
0.75
 73
3
 0
TEXT
 8
0
 62
7
 10
1000.124011
 20
29.715784
 40
1.5
 1
MFG
 11
1000.124011
 21
29.715784
 7
SLDTEXTSTYLE0
 41
0.75
 73
3
 0
TEXT
 8
0
 62
7
 10
1000.509037
 20
25.504662
 40
1.5
 1
Q.A
 11
1000.509037
 21
25.504662
 7
SLDTEXTSTYLE0
 41
0.75
 73
3
 0
INSERT
 8
0
 2
SW_NOTE_0
 10
999.5936687461799
 20
61.98736987312
 41
1
 42
1
 50
0
 0
TEXT
 8
0
 62
7
 10
1033.371292
 20
63.919272
 40
1.5
 1
FINISH:
 11
1033.371292
 21
63.919272
 7
SLDTEXTSTYLE0
 41
0.75
 73
3
 0
INSERT
 8
0
 2
SW_NOTE_1
 10
1080.3092156866198
 20
62.06948964283999
 41
1
 42
1
 50
0
 0
TEXT
 8
0
 62
7
 10
1013.322239
 20
46.501483
 40
1.5
 1
NAME
 11
1013.322239
 21
46.501483
 7
SLDTEXTSTYLE0
 41
0.75
 73
3
 0
TEXT
 8
0
 62
7
 10
1029.033588
 20
46.561756
 40
1.5
 1
SIGNATURE
 11
1029.033588
 21
46.561756
 7
SLDTEXTSTYLE0
 41
0.75
 73
3
 0
TEXT
 8
0
 62
7
 10
1046.214702
 20
46.576179
 40
1.5
 1
DATE
 11
1046.214702
 21
46.576179
 7
SLDTEXTSTYLE0
 41
0.75
 73
3
 0
TEXT
 8
0
 62
7
 10
1054.645862
 20
25.986056
 40
1.5
 1
MATERIAL:
 11
1054.645862
 21
25.986056
 7
SLDTEXTSTYLE0
 41
0.75
 73
3
 0
TEXT
 8
0
 62
7
 10
1111.614641
 20
62.532994
 40
1.5
 1
DO NOT SCALE DRAWING
 11
1111.614641
 21
62.532994
 7
SLDTEXTSTYLE0
 41
0.75
 73
3
 0
TEXT
 8
0
 62
7
 10
1152.327582
 20
62.334909
 40
1.5
 1
REVISION
 11
1152.327582
 21
62.334909
 7
SLDTEXTSTYLE0
 41
0.75
 73
3
 0
TEXT
 8
0
 62
7
 10
1099.090161
 20
46.576179
 40
1.5
 1
TITLE:
 11
1099.090161
 21
46.576179
 7
SLDTEXTSTYLE0
 41
0.75
 73
3
 0
TEXT
 8
0
 62
7
 10
1098.953002
 20
25.986056
 40
1.5
 1
DWG NO.
 11
1098.953002
 21
25.986056
 7
SLDTEXTSTYLE0
 41
0.75
 73
3
 0
TEXT
 8
0
 62
7
 10
1099.073966
 20
12.900087
 40
1.5
 1
SCALE:2:1
 11
1099.073966
 21
12.900087
 7
SLDTEXTSTYLE0
 41
0.75
 73
3
 0
TEXT
 8
0
 62
7
 10
1143.478294
 20
12.900087
 40
1.5
 1
SHEET 1 OF 1
 11
1143.478294
 21
12.900087
 7
SLDTEXTSTYLE2
 41
0.6875
 73
3
 0
TEXT
 8
0
 62
7
 10
1169.871156
 20
24.406389
 40
2.910417
 1
A0
 11
1169.871156
 21
24.406389
 7
SLDTEXTSTYLE0
 41
0.75
 73
3
 0
TEXT
 8
0
 62
7
 10
1075.806094
 20
21.485566
 40
2.38125
 1
3.3535/EN AW-5754 (AlMg3)
 11
1075.806094
 21
21.485566
 7
SLDTEXTSTYLE0
 41
0.75
 72
1
 73
3
 0
TEXT
 8
0
 62
7
 10
1054.617811
 20
12.949312
 40
1.4986
 1
WEIGHT:
 11
1054.617811
 21
12.949312
 7
SLDTEXTSTYLE0
 41
0.75
 73
3
 0
TEXT
 8
0
 62
7
 10
1133.869204
 20
23.606911
 40
6.35
 1
Bend-10
 11
1133.869204
 21
23.606911
 7
SLDTEXTSTYLE0
 41
0.75
 72
1
 73
3
 0
LINE
 8
0
 62
7
 10
483.999834
 20
732.695595
 11
457.716299
 21
704.404726
 0
ARC
 8
0
 62
7
 10
461.678836
 20
700.723345
 40
5.408722
 50
137.106481
 51
317.106481
 0
LINE
 8
0
 62
7
 10
465.641374
 20
697.041963
 11
491.924908
 21
725.332832
 0
ARC
 8
0
 62
7
 10
487.962371
 20
729.014214
 40
5.408722
 50
-42.893519
 51
137.106481
 0
ARC
 8
0
 62
7
 10
442.266636
 20
600.643345
 40
5.408722
 50
-137.106481
 51
42.893519
 0
LINE
 8
0
 62
7
 10
446.229174
 20
604.324726
 11
419.945639
 21
632.615595
 0
ARC
 8
0
 62
7
 10
415.983101
 20
628.934214
 40
5.408722
 50
42.893519
 51
222.893519
 0
LINE
 8
0
 62
7
 10
320.990639
 20
599.330359
 11
386.641654
 21
599.330359
 0
LINE
 8
0
 62
7
 10
386.641654
 20
599.330359
 11
386.641654
 21
634.005191
 0
LINE
 8
0
 62
7
 10
386.641654
 20
634.005191
 11
320.990639
 21
634.005191
 0
LINE
 8
0
 62
7
 10
320.990639
 20
634.005191
 11
320.990639
 21
599.330359
 0
CIRCLE
 8
0
 62
7
 10
416.924341
 20
228.822849
 40
8.5
 0
CIRCLE
 8
0
 62
7
 10
538.055086
 20
228.822849
 40
8.5
 0
CIRCLE
 8
0
 62
7
 10
354.278478
 20
273.572012
 40
8.5
 0
CIRCLE
 8
0
 62
7
 10
354.278478
 20
368.812216
 40
8.5
 0
LINE
 8
0
 62
7
 10
542.221751
 20
715.522849
 11
536.912017
 21
724.719577
 0
LINE
 8
0
 62
7
 10
536.912017
 20
724.719577
 11
526.292551
 21
724.719577
 0
LINE
 8
0
 62
7
 10
526.292551
 20
724.719577
 11
520.982817
 21
715.522849
 0
LINE
 8
0
 62
7
 10
520.982817
 20
715.522849
 11
526.292551
 21
706.326121
 0
LINE
 8
0
 62
7
 10
526.292551
 20
706.326121
 11
536.912017
 21
706.326121
 0
LINE
 8
0
 62
7
 10
536.912017
 20
706.326121
 11
542.221751
 21
715.522849
 0
LINE
 8
0
 62
7
 10
610.10694
 20
715.699752
 11
604.797207
 21
724.89648
 0
LINE
 8
0
 62
7
 10
604.797207
 20
724.89648
 11
594.17774
 21
724.89648
 0
LINE
 8
0
 62
7
 10
594.17774
 20
724.89648
 11
588.868007
 21
715.699752
 0
LINE
 8
0
 62
7
 10
588.868007
 20
715.699752
 11
594.17774
 21
706.503024
 0
LINE
 8
0
 62
7
 10
594.17774
 20
706.503024
 11
604.797207
 21
706.503024
 0
LINE
 8
0
 62
7
 10
604.797207
 20
706.503024
 11
610.10694
 21
715.699752
 0
LINE
 8
0
 62
7
 10
401.418736
 20
396.926849
 11
409.526736
 21
396.926849
 0
LINE
 8
0
 62
7
 10
401.418736
 20
390.812849
 11
401.418736
 21
396.926849
 0
LINE
 8
0
 62
7
 10
401.468244
 20
388.818849
 11
401.418736
 21
390.812849
 0
ARC
 8
0
 62
7
 10
401.422736
 20
385.819194
 40
3
 50
0
 51
89.130827
 0
LINE
 8
0
 62
7
 10
404.422736
 20
261.822849
 11
404.422736
 21
385.819194
 0
LINE
 8
0
 62
7
 10
558.422736
 20
261.822849
 11
404.422736
 21
261.822849
 0
LINE
 8
0
 62
7
 10
568.422736
 20
251.822849
 11
558.422736
 21
261.822849
 0
LINE
 8
0
 62
7
 10
568.422736
 20
205.822849
 11
568.422736
 21
251.822849
 0
LINE
 8
0
 62
7
 10
558.422736
 20
195.822849
 11
568.422736
 21
205.822849
 0
LINE
 8
0
 62
7
 10
388.422736
 20
195.822849
 11
558.422736
 21
195.822849
 0
ARC
 8
0
 62
7
 10
388.422736
 20
275.822849
 40
80
 50
180
 51
270
 0
LINE
 8
0
 62
7
 10
308.422736
 20
634.022849
 11
308.422736
 21
275.822849
 0
LINE
 8
0
 62
7
 10
318.422736
 20
644.022849
 11
308.422736
 21
634.022849
 0
LINE
 8
0
 62
7
 10
418.522736
 20
644.022849
 11
318.422736
 21
644.022849
 0
ARC
 8
0
 62
7
 10
418.522736
 20
604.022849
 40
40
 50
0
 51
90
 0
LINE
 8
0
 62
7
 10
458.522736
 20
590.022849
 11
458.522736
 21
604.022849
 0
LINE
 8
0
 62
7
 10
397.419736
 20
590.022849
 11
458.522736
 21
590.022849
 0
LINE
 8
0
 62
7
 10
397.419736
 20
580.922849
 11
397.419736
 21
590.022849
 0
LINE
 8
0
 62
7
 10
410.322736
 20
580.922849
 11
397.419736
 21
580.922849
 0
LINE
 8
0
 62
7
 10
410.322736
 20
583.922849
 11
410.322736
 21
580.922849
 0
LINE
 8
0
 62
7
 10
498.518736
 20
583.922849
 11
410.322736
 21
583.922849
 0
LINE
 8
0
 62
7
 10
498.518736
 20
576.919849
 11
498.518736
 21
583.922849
 0
LINE
 8
0
 62
7
 10
506.626736
 20
576.919849
 11
498.518736
 21
576.919849
 0
LINE
 8
0
 62
7
 10
506.626736
 20
591.026849
 11
506.626736
 21
576.919849
 0
LINE
 8
0
 62
7
 10
503.622736
 20
591.026849
 11
506.626736
 21
591.026849
 0
LINE
 8
0
 62
7
 10
503.622736
 20
684.022849
 11
503.622736
 21
591.026849
 0
LINE
 8
0
 62
7
 10
506.625736
 20
684.022849
 11
503.622736
 21
684.022849
 0
LINE
 8
0
 62
7
 10
506.625736
 20
688.022849
 11
506.625736
 21
684.022849
 0
LINE
 8
0
 62
7
 10
445.522736
 20
688.022849
 11
506.625736
 21
688.022849
 0
LINE
 8
0
 62
7
 10
445.522736
 20
704.022849
 11
445.522736
 21
688.022849
 0
LINE
 8
0
 62
7
 10
629.622736
 20
744.022849
 11
485.522736
 21
744.022849
 0
LINE
 8
0
 62
7
 10
639.622736
 20
734.022849
 11
629.622736
 21
744.022849
 0
LINE
 8
0
 62
7
 10
639.622736
 20
697.022849
 11
639.622736
 21
734.022849
 0
LINE
 8
0
 62
7
 10
629.622736
 20
687.022849
 11
639.622736
 21
697.022849
 0
LINE
 8
0
 62
7
 10
589.622736
 20
687.022849
 11
629.622736
 21
687.022849
 0
LINE
 8
0
 62
7
 10
579.622736
 20
677.022849
 11
589.622736
 21
687.022849
 0
LINE
 8
0
 62
7
 10
579.622736
 20
513.922849
 11
579.622736
 21
677.022849
 0
LINE
 8
0
 62
7
 10
498.519736
 20
513.922849
 11
579.622736
 21
513.922849
 0
LINE
 8
0
 62
7
 10
498.519736
 20
509.922849
 11
498.519736
 21
513.922849
 0
LINE
 8
0
 62
7
 10
692.622736
 20
499.922849
 11
682.622736
 21
509.922849
 0
LINE
 8
0
 62
7
 10
692.622736
 20
399.922849
 11
692.622736
 21
499.922849
 0
LINE
 8
0
 62
7
 10
682.622736
 20
389.922849
 11
692.622736
 21
399.922849
 0
LINE
 8
0
 62
7
 10
415.526736
 20
389.922849
 11
682.622736
 21
389.922849
 0
ARC
 8
0
 62
7
 10
415.526736
 20
395.922849
 40
6
 50
180
 51
270
 0
LINE
 8
0
 62
7
 10
409.526736
 20
396.926849
 11
409.526736
 21
395.922849
 0
LINE
 8
0
 62
7
 10
682.622736
 20
509.922849
 11
498.519736
 21
509.922849
 0
LINE
 8
0
 62
7
 10
412.020564
 20
625.252832
 11
438.304099
 21
596.961963
 0
ARC
 8
0
 62
7
 10
485.522736
 20
704.022849
 40
40
 50
90
 51
180
 0
INSERT
 8
0
 2
SW_CENTERMARKSYMBOL_0
 10
416.92434056926
 20
228.8228490844
 41
1
 42
1
 50
0
 0
INSERT
 8
0
 2
SW_CENTERMARKSYMBOL_1
 10
538.0550861178
 20
228.8228490844
 41
1
 42
1
 50
0
 0
INSERT
 8
0
 2
SW_CENTERMARKSYMBOL_2
 10
354.2784778907
 20
273.57201196842
 41
1
 42
1
 50
0
 0
INSERT
 8
0
 2
SW_CENTERMARKSYMBOL_3
 10
354.2784778907
 20
368.81221648381995
 41
1
 42
1
 50
0
 0
LINE
 8
MBEND
 10
308.422736
 20
392.872849
 11
401.418736
 21
392.872849
 1000
BEND_ANGLE:-90
 1000
BEND_RADIUS:0.04
 1000
K_FACTOR:0.12 
 0
LINE
 8
BEND
 10
506.626736
 20
587.072849
 11
579.622736
 21
587.072849
 1000
BEND_ANGLE:90
 1000
BEND_RADIUS:0.04
 1000
K_FACTOR:0.12 
 0
LINE
 8
BEND
 10
532.572736
 20
509.922849
 11
532.572736
 21
389.922849
 1000
BEND_ANGLE:90
 1000
BEND_RADIUS:0.04
 1000
K_FACTOR:0.12 
 0
LINE
 8
BEND
 10
502.572736
 20
576.919849
 11
502.572736
 21
513.922849
 1000
BEND_ANGLE:90
 1000
BEND_RADIUS:0.04
 1000
K_FACTOR:0.12 
 0
LINE
 8
BEND
 10
401.472736
 20
644.022849
 11
401.472736
 21
590.022849
 1000
BEND_ANGLE:90
 1000
BEND_RADIUS:0.04
 1000
K_FACTOR:0.12 
 0
LINE
 8
MBEND
 10
405.472736
 20
580.922849
 11
405.472736
 21
396.926849
 1000
BEND_ANGLE:-90
 1000
BEND_RADIUS:0.04
 1000
K_FACTOR:0.12 
 0
LINE
 8
BEND
 10
308.422736
 20
586.972849
 11
397.419736
 21
586.972849
 1000
BEND_ANGLE:90
 1000
BEND_RADIUS:0.04
 1000
K_FACTOR:0.12 
 0
LINE
 8
BEND
 10
502.572736
 20
688.022849
 11
502.572736
 21
744.022849
 1000
BEND_ANGLE:90
 1000
BEND_RADIUS:0.04
 1000
K_FACTOR:0.12 
 0
ENDSEC
 0
EOF
