 0
SECTION
 2
HEADER
 0
ENDSEC
 0
SECTION
 2
TABLES
 0
TABLE
 2
LAYER
 70
3
 0
LAYER
 70
0
 2
0
 62
7
 6
CONTINUOUS
 0
LAYER
 70
1
 2
MBEND
 62
3
 6
DASHDOTDOT
 0
LAYER
 70
1
 2
BEND
 62
3
 6
DOT
 0
ENDTAB
 0
TABLE
 2
STYLE
 70
5
 0
STYLE
 2
Standard
 70
0
 40
0
 41
1
 50
0
 71
0
 42
1
 3
txt
 4

 0
STYLE
 2
SLDTEXTSTYLE0
 70
0
 40
0
 41
0.75
 50
0
 71
0
 42
1
 3
TXT
 4

 0
STYLE
 2
SLDTEXTSTYLE1
 70
0
 40
0
 41
0.6864493306
 50
0
 71
0
 42
1
 3
TXT
 4

 0
STYLE
 2
SLDTEXTSTYLE2
 70
0
 40
0
 41
0.6875
 50
0
 71
0
 42
1
 3
TXT
 4

 0
STYLE
 2
SLDTEXTSTYLE3
 70
0
 40
0
 41
0.65625
 50
0
 71
0
 42
1
 3
TXT
 4

 0
ENDTAB
 0
TABLE
 2
BLOCKS
 70
6
 0
BLOCK
 70
65
 2
SW_NOTE_0
 10
0
 20
0
 0
TEXT
 8
0
 62
0
 10
0
 20
0.076126
 40
0.059055
 1
UNLESS OTHERWISE SPECIFIED:
 11
0
 21
0.076126
 7
SLDTEXTSTYLE0
 41
0.75
 73
3
 0
TEXT
 8
0
 62
0
 10
0
 20
-0.022299
 40
0.059055
 1
DIMENSIONS ARE IN MILLIMETERS
 11
0
 21
-0.022299
 7
SLDTEXTSTYLE0
 41
0.75
 73
3
 0
TEXT
 8
0
 62
0
 10
0
 20
-0.120724
 40
0.059055
 1
SURFACE FINISH:
 11
0
 21
-0.120724
 7
SLDTEXTSTYLE0
 41
0.75
 73
3
 0
TEXT
 8
0
 62
0
 10
0
 20
-0.21915
 40
0.059055
 1
TOLERANCES:
 11
0
 21
-0.21915
 7
SLDTEXTSTYLE0
 41
0.75
 73
3
 0
TEXT
 8
0
 62
0
 10
0.066437
 20
-0.317575
 40
0.059055
 1
LINEAR:
 11
0.066437
 21
-0.317575
 7
SLDTEXTSTYLE0
 41
0.75
 73
3
 0
TEXT
 8
0
 62
0
 10
0.066437
 20
-0.416
 40
0.059055
 1
ANGULAR:
 11
0.066437
 21
-0.416
 7
SLDTEXTSTYLE0
 41
0.75
 73
3
 0
ENDBLK
 0
BLOCK
 70
65
 2
SW_NOTE_1
 10
0
 20
0
 0
TEXT
 8
0
 62
0
 10
0
 20
0.076126
 40
0.059055
 1
DEBURR AND
 11
0
 21
0.076126
 7
SLDTEXTSTYLE0
 41
0.75
 73
3
 0
TEXT
 8
0
 62
0
 10
0
 20
-0.022299
 40
0.059055
 1
BREAK SHARP
 11
0
 21
-0.022299
 7
SLDTEXTSTYLE0
 41
0.75
 73
3
 0
TEXT
 8
0
 62
0
 10
0
 20
-0.120724
 40
0.059055
 1
EDGES
 11
0
 21
-0.120724
 7
SLDTEXTSTYLE0
 41
0.75
 73
3
 0
ENDBLK
 0
BLOCK
 70
65
 2
SW_CENTERMARKSYMBOL_0
 10
0
 20
0
 0
LINE
 8
0
 62
0
 10
0
 20
0
 11
0
 21
0.19685
 0
LINE
 8
0
 62
0
 10
0
 20
0
 11
-0.19685
 21
0
 0
LINE
 8
0
 62
0
 10
0
 20
0
 11
0
 21
-0.19685
 0
LINE
 8
0
 62
0
 10
0
 20
0
 11
0.19685
 21
0
 0
LINE
 8
0
 62
0
 10
0
 20
0.393701
 11
0
 21
0.531496
 0
LINE
 8
0
 62
0
 10
-0.393701
 20
0
 11
-0.531496
 21
0
 0
LINE
 8
0
 62
0
 10
0
 20
-0.393701
 11
0
 21
-0.531496
 0
LINE
 8
0
 62
0
 10
0.393701
 20
0
 11
0.531496
 21
0
 0
ENDBLK
 0
BLOCK
 70
65
 2
SW_CENTERMARKSYMBOL_1
 10
0
 20
0
 0
LINE
 8
0
 62
0
 10
0
 20
0
 11
0
 21
0.19685
 0
LINE
 8
0
 62
0
 10
0
 20
0
 11
-0.19685
 21
0
 0
LINE
 8
0
 62
0
 10
0
 20
0
 11
0
 21
-0.19685
 0
LINE
 8
0
 62
0
 10
0
 20
0
 11
0.19685
 21
0
 0
LINE
 8
0
 62
0
 10
0
 20
0.393701
 11
0
 21
0.531496
 0
LINE
 8
0
 62
0
 10
-0.393701
 20
0
 11
-0.531496
 21
0
 0
LINE
 8
0
 62
0
 10
0
 20
-0.393701
 11
0
 21
-0.531496
 0
LINE
 8
0
 62
0
 10
0.393701
 20
0
 11
0.531496
 21
0
 0
ENDBLK
 0
BLOCK
 70
65
 2
SW_CENTERMARKSYMBOL_2
 10
0
 20
0
 0
LINE
 8
0
 62
0
 10
0
 20
0
 11
0
 21
0.19685
 0
LINE
 8
0
 62
0
 10
0
 20
0
 11
-0.19685
 21
0
 0
LINE
 8
0
 62
0
 10
0
 20
0
 11
0
 21
-0.19685
 0
LINE
 8
0
 62
0
 10
0
 20
0
 11
0.19685
 21
0
 0
LINE
 8
0
 62
0
 10
0
 20
0.393701
 11
0
 21
0.531496
 0
LINE
 8
0
 62
0
 10
-0.393701
 20
0
 11
-0.531496
 21
0
 0
LINE
 8
0
 62
0
 10
0
 20
-0.393701
 11
0
 21
-0.531496
 0
LINE
 8
0
 62
0
 10
0.393701
 20
0
 11
0.531496
 21
0
 0
ENDBLK
 0
BLOCK
 70
65
 2
SW_CENTERMARKSYMBOL_3
 10
0
 20
0
 0
LINE
 8
0
 62
0
 10
0
 20
0
 11
0
 21
0.19685
 0
LINE
 8
0
 62
0
 10
0
 20
0
 11
-0.19685
 21
0
 0
LINE
 8
0
 62
0
 10
0
 20
0
 11
0
 21
-0.19685
 0
LINE
 8
0
 62
0
 10
0
 20
0
 11
0.19685
 21
0
 0
LINE
 8
0
 62
0
 10
0
 20
0.393701
 11
0
 21
0.531496
 0
LINE
 8
0
 62
0
 10
-0.393701
 20
0
 11
-0.531496
 21
0
 0
LINE
 8
0
 62
0
 10
0
 20
-0.393701
 11
0
 21
-0.531496
 0
LINE
 8
0
 62
0
 10
0.393701
 20
0
 11
0.531496
 21
0
 0
ENDBLK
 0
ENDTAB
 0
ENDSEC
 0
SECTION
 2
ENTITIES
 0
LINE
 8
0
 62
7
 10
39.330709
 20
0.561024
 11
46.417323
 21
0.561024
 0
LINE
 8
0
 62
7
 10
46.417323
 20
1.899606
 11
39.330709
 21
1.899606
 0
LINE
 8
0
 62
7
 10
39.330709
 20
2.568898
 11
46.417323
 21
2.568898
 0
LINE
 8
0
 62
7
 10
40.393345
 20
1.899606
 11
40.393345
 21
0.393701
 0
LINE
 8
0
 62
7
 10
43.220472
 20
1.230315
 11
39.330709
 21
1.230315
 0
LINE
 8
0
 62
7
 10
43.220472
 20
1.397638
 11
39.330709
 21
1.397638
 0
LINE
 8
0
 62
7
 10
43.220472
 20
1.564961
 11
39.330709
 21
1.564961
 0
LINE
 8
0
 62
7
 10
43.220472
 20
1.732283
 11
39.330709
 21
1.732283
 0
LINE
 8
0
 62
7
 10
41.480315
 20
0.393701
 11
41.480315
 21
1.899606
 0
LINE
 8
0
 62
7
 10
39.330709
 20
2.568898
 11
39.330709
 21
0.393701
 0
LINE
 8
0
 62
7
 10
39.637795
 20
1.899606
 11
39.637795
 21
0.393701
 0
LINE
 8
0
 62
7
 10
40.661417
 20
1.899606
 11
40.661417
 21
2.568898
 0
LINE
 8
0
 62
7
 10
41.078698
 20
1.899606
 11
41.078698
 21
0.393701
 0
LINE
 8
0
 62
7
 10
41.889764
 20
1.230315
 11
41.889764
 21
1.899606
 0
LINE
 8
0
 62
7
 10
41.480315
 20
0.728346
 11
39.330709
 21
0.728346
 0
LINE
 8
0
 62
7
 10
42.503937
 20
2.568898
 11
42.503937
 21
1.062992
 0
LINE
 8
0
 62
7
 10
41.480315
 20
0.895666
 11
39.330709
 21
0.895666
 0
LINE
 8
0
 62
7
 10
41.480315
 20
1.062992
 11
39.330709
 21
1.062992
 0
LINE
 8
0
 62
7
 10
41.480315
 20
1.062992
 11
46.417323
 21
1.062992
 0
LINE
 8
0
 62
7
 10
43.220472
 20
2.568898
 11
43.220472
 21
0.393701
 0
LINE
 8
0
 62
7
 10
44.96063
 20
0.393701
 11
44.96063
 21
0.561024
 0
LINE
 8
0
 62
7
 10
45.267717
 20
2.317913
 11
45.267717
 21
2.568898
 0
LINE
 8
0
 62
7
 10
45.905512
 20
0.561024
 11
45.905512
 21
1.062992
 0
LINE
 8
0
 62
7
 10
46.417323
 20
2.317913
 11
43.220472
 21
2.317913
 0
LINE
 8
0
 62
7
 10
46.417323
 20
0.728346
 11
45.905512
 21
0.728346
 0
LINE
 8
0
 62
7
 10
0.787402
 20
0.393701
 11
0.787402
 21
32.716535
 0
LINE
 8
0
 62
7
 10
0.787402
 20
32.716535
 11
46.417323
 21
32.716535
 0
LINE
 8
0
 62
7
 10
46.417323
 20
32.716535
 11
46.417323
 21
0.393701
 0
LINE
 8
0
 62
7
 10
46.417323
 20
0.393701
 11
0.787402
 21
0.393701
 0
LINE
 8
0
 62
7
 10
0.590551
 20
0.19685
 11
0.590551
 21
32.913386
 0
LINE
 8
0
 62
7
 10
0.590551
 20
32.913386
 11
46.614173
 21
32.913386
 0
LINE
 8
0
 62
7
 10
46.614173
 20
32.913386
 11
46.614173
 21
0.19685
 0
LINE
 8
0
 62
7
 10
46.614173
 20
0.19685
 11
0.590551
 21
0.19685
 0
LINE
 8
0
 62
7
 10
0.590551
 20
16.555118
 11
0.984252
 21
16.555118
 0
LINE
 8
0
 62
7
 10
23.602362
 20
32.913386
 11
23.602362
 21
32.519685
 0
LINE
 8
0
 62
7
 10
46.614173
 20
16.555118
 11
46.220472
 21
16.555118
 0
LINE
 8
0
 62
7
 10
23.602362
 20
0.19685
 11
23.602362
 21
0.590551
 0
LINE
 8
0
 62
7
 10
0.787402
 20
2.775591
 11
0.590551
 21
2.775591
 0
LINE
 8
0
 62
7
 10
46.417323
 20
2.775591
 11
46.614173
 21
2.775591
 0
LINE
 8
0
 62
7
 10
0.787402
 20
4.744094
 11
0.590551
 21
4.744094
 0
LINE
 8
0
 62
7
 10
46.417323
 20
4.744094
 11
46.614173
 21
4.744094
 0
LINE
 8
0
 62
7
 10
0.787402
 20
6.712598
 11
0.590551
 21
6.712598
 0
LINE
 8
0
 62
7
 10
46.417323
 20
6.712598
 11
46.614173
 21
6.712598
 0
LINE
 8
0
 62
7
 10
0.787402
 20
8.681102
 11
0.590551
 21
8.681102
 0
LINE
 8
0
 62
7
 10
46.417323
 20
8.681102
 11
46.614173
 21
8.681102
 0
LINE
 8
0
 62
7
 10
0.787402
 20
10.649606
 11
0.590551
 21
10.649606
 0
LINE
 8
0
 62
7
 10
46.417323
 20
10.649606
 11
46.614173
 21
10.649606
 0
LINE
 8
0
 62
7
 10
0.787402
 20
12.61811
 11
0.590551
 21
12.61811
 0
LINE
 8
0
 62
7
 10
46.417323
 20
12.61811
 11
46.614173
 21
12.61811
 0
LINE
 8
0
 62
7
 10
0.787402
 20
14.586614
 11
0.590551
 21
14.586614
 0
LINE
 8
0
 62
7
 10
46.417323
 20
14.586614
 11
46.614173
 21
14.586614
 0
LINE
 8
0
 62
7
 10
0.787402
 20
16.555118
 11
0.590551
 21
16.555118
 0
LINE
 8
0
 62
7
 10
46.417323
 20
16.555118
 11
46.614173
 21
16.555118
 0
LINE
 8
0
 62
7
 10
0.787402
 20
18.523622
 11
0.590551
 21
18.523622
 0
LINE
 8
0
 62
7
 10
46.417323
 20
18.523622
 11
46.614173
 21
18.523622
 0
LINE
 8
0
 62
7
 10
0.787402
 20
20.492126
 11
0.590551
 21
20.492126
 0
LINE
 8
0
 62
7
 10
46.417323
 20
20.492126
 11
46.614173
 21
20.492126
 0
LINE
 8
0
 62
7
 10
0.787402
 20
22.46063
 11
0.590551
 21
22.46063
 0
LINE
 8
0
 62
7
 10
46.417323
 20
22.46063
 11
46.614173
 21
22.46063
 0
LINE
 8
0
 62
7
 10
0.787402
 20
24.429134
 11
0.590551
 21
24.429134
 0
LINE
 8
0
 62
7
 10
46.417323
 20
24.429134
 11
46.614173
 21
24.429134
 0
LINE
 8
0
 62
7
 10
0.787402
 20
26.397638
 11
0.590551
 21
26.397638
 0
LINE
 8
0
 62
7
 10
46.417323
 20
26.397638
 11
46.614173
 21
26.397638
 0
LINE
 8
0
 62
7
 10
0.787402
 20
28.366142
 11
0.590551
 21
28.366142
 0
LINE
 8
0
 62
7
 10
46.417323
 20
28.366142
 11
46.614173
 21
28.366142
 0
LINE
 8
0
 62
7
 10
0.787402
 20
30.334646
 11
0.590551
 21
30.334646
 0
LINE
 8
0
 62
7
 10
46.417323
 20
30.334646
 11
46.614173
 21
30.334646
 0
LINE
 8
0
 62
7
 10
1.948819
 20
32.716535
 11
1.948819
 21
32.913386
 0
LINE
 8
0
 62
7
 10
1.948819
 20
0.393701
 11
1.948819
 21
0.19685
 0
LINE
 8
0
 62
7
 10
3.917323
 20
32.716535
 11
3.917323
 21
32.913386
 0
LINE
 8
0
 62
7
 10
3.917323
 20
0.393701
 11
3.917323
 21
0.19685
 0
LINE
 8
0
 62
7
 10
5.885827
 20
32.716535
 11
5.885827
 21
32.913386
 0
LINE
 8
0
 62
7
 10
5.885827
 20
0.393701
 11
5.885827
 21
0.19685
 0
LINE
 8
0
 62
7
 10
7.854331
 20
32.716535
 11
7.854331
 21
32.913386
 0
LINE
 8
0
 62
7
 10
7.854331
 20
0.393701
 11
7.854331
 21
0.19685
 0
LINE
 8
0
 62
7
 10
9.822835
 20
32.716535
 11
9.822835
 21
32.913386
 0
LINE
 8
0
 62
7
 10
9.822835
 20
0.393701
 11
9.822835
 21
0.19685
 0
LINE
 8
0
 62
7
 10
11.791339
 20
32.716535
 11
11.791339
 21
32.913386
 0
LINE
 8
0
 62
7
 10
11.791339
 20
0.393701
 11
11.791339
 21
0.19685
 0
LINE
 8
0
 62
7
 10
13.759843
 20
32.716535
 11
13.759843
 21
32.913386
 0
LINE
 8
0
 62
7
 10
13.759843
 20
0.393701
 11
13.759843
 21
0.19685
 0
LINE
 8
0
 62
7
 10
15.728346
 20
32.716535
 11
15.728346
 21
32.913386
 0
LINE
 8
0
 62
7
 10
15.728346
 20
0.393701
 11
15.728346
 21
0.19685
 0
LINE
 8
0
 62
7
 10
17.69685
 20
32.716535
 11
17.69685
 21
32.913386
 0
LINE
 8
0
 62
7
 10
17.69685
 20
0.393701
 11
17.69685
 21
0.19685
 0
LINE
 8
0
 62
7
 10
19.665354
 20
32.716535
 11
19.665354
 21
32.913386
 0
LINE
 8
0
 62
7
 10
19.665354
 20
0.393701
 11
19.665354
 21
0.19685
 0
LINE
 8
0
 62
7
 10
21.633858
 20
32.716535
 11
21.633858
 21
32.913386
 0
LINE
 8
0
 62
7
 10
21.633858
 20
0.393701
 11
21.633858
 21
0.19685
 0
LINE
 8
0
 62
7
 10
23.602362
 20
32.716535
 11
23.602362
 21
32.913386
 0
LINE
 8
0
 62
7
 10
23.602362
 20
0.393701
 11
23.602362
 21
0.19685
 0
LINE
 8
0
 62
7
 10
25.570866
 20
32.716535
 11
25.570866
 21
32.913386
 0
LINE
 8
0
 62
7
 10
25.570866
 20
0.393701
 11
25.570866
 21
0.19685
 0
LINE
 8
0
 62
7
 10
27.53937
 20
32.716535
 11
27.53937
 21
32.913386
 0
LINE
 8
0
 62
7
 10
27.53937
 20
0.393701
 11
27.53937
 21
0.19685
 0
LINE
 8
0
 62
7
 10
29.507874
 20
32.716535
 11
29.507874
 21
32.913386
 0
LINE
 8
0
 62
7
 10
29.507874
 20
0.393701
 11
29.507874
 21
0.19685
 0
LINE
 8
0
 62
7
 10
31.476378
 20
32.716535
 11
31.476378
 21
32.913386
 0
LINE
 8
0
 62
7
 10
31.476378
 20
0.393701
 11
31.476378
 21
0.19685
 0
LINE
 8
0
 62
7
 10
33.444882
 20
32.716535
 11
33.444882
 21
32.913386
 0
LINE
 8
0
 62
7
 10
33.444882
 20
0.393701
 11
33.444882
 21
0.19685
 0
LINE
 8
0
 62
7
 10
35.413386
 20
32.716535
 11
35.413386
 21
32.913386
 0
LINE
 8
0
 62
7
 10
35.413386
 20
0.393701
 11
35.413386
 21
0.19685
 0
LINE
 8
0
 62
7
 10
37.38189
 20
32.716535
 11
37.38189
 21
32.913386
 0
LINE
 8
0
 62
7
 10
37.38189
 20
0.393701
 11
37.38189
 21
0.19685
 0
LINE
 8
0
 62
7
 10
39.350394
 20
32.716535
 11
39.350394
 21
32.913386
 0
LINE
 8
0
 62
7
 10
39.350394
 20
0.393701
 11
39.350394
 21
0.19685
 0
LINE
 8
0
 62
7
 10
41.318898
 20
32.716535
 11
41.318898
 21
32.913386
 0
LINE
 8
0
 62
7
 10
41.318898
 20
0.393701
 11
41.318898
 21
0.19685
 0
LINE
 8
0
 62
7
 10
43.287402
 20
32.716535
 11
43.287402
 21
32.913386
 0
LINE
 8
0
 62
7
 10
43.287402
 20
0.393701
 11
43.287402
 21
0.19685
 0
LINE
 8
0
 62
7
 10
45.255906
 20
32.716535
 11
45.255906
 21
32.913386
 0
LINE
 8
0
 62
7
 10
45.255906
 20
0.393701
 11
45.255906
 21
0.19685
 0
TEXT
 8
0
 62
7
 10
0.682665
 20
1.683234
 40
0.15625
 1
A
 11
0.682665
 21
1.683234
 7
SLDTEXTSTYLE0
 41
0.75
 72
1
 73
3
 0
TEXT
 8
0
 62
7
 10
46.509437
 20
1.683234
 40
0.15625
 1
A
 11
46.509437
 21
1.683234
 7
SLDTEXTSTYLE0
 41
0.75
 72
1
 73
3
 0
TEXT
 8
0
 62
7
 10
0.687819
 20
3.855655
 40
0.15625
 1
B
 11
0.687819
 21
3.855655
 7
SLDTEXTSTYLE0
 41
0.75
 72
1
 73
3
 0
TEXT
 8
0
 62
7
 10
46.514591
 20
3.855655
 40
0.15625
 1
B
 11
46.514591
 21
3.855655
 7
SLDTEXTSTYLE0
 41
0.75
 72
1
 73
3
 0
TEXT
 8
0
 62
7
 10
0.687349
 20
5.826935
 40
0.15625
 1
C
 11
0.687349
 21
5.826935
 7
SLDTEXTSTYLE0
 41
0.75
 72
1
 73
3
 0
TEXT
 8
0
 62
7
 10
46.51412
 20
5.826935
 40
0.15625
 1
C
 11
46.51412
 21
5.826935
 7
SLDTEXTSTYLE0
 41
0.75
 72
1
 73
3
 0
TEXT
 8
0
 62
7
 10
0.687114
 20
7.792663
 40
0.15625
 1
D
 11
0.687114
 21
7.792663
 7
SLDTEXTSTYLE0
 41
0.75
 72
1
 73
3
 0
TEXT
 8
0
 62
7
 10
46.513885
 20
7.792663
 40
0.15625
 1
D
 11
46.513885
 21
7.792663
 7
SLDTEXTSTYLE0
 41
0.75
 72
1
 73
3
 0
TEXT
 8
0
 62
7
 10
0.689284
 20
9.763943
 40
0.15625
 1
E
 11
0.689284
 21
9.763943
 7
SLDTEXTSTYLE0
 41
0.75
 72
1
 73
3
 0
TEXT
 8
0
 62
7
 10
46.516055
 20
9.763943
 40
0.15625
 1
E
 11
46.516055
 21
9.763943
 7
SLDTEXTSTYLE0
 41
0.75
 72
1
 73
3
 0
TEXT
 8
0
 62
7
 10
0.687313
 20
11.72967
 40
0.15625
 1
F
 11
0.687313
 21
11.72967
 7
SLDTEXTSTYLE0
 41
0.75
 72
1
 73
3
 0
TEXT
 8
0
 62
7
 10
46.514084
 20
11.72967
 40
0.15625
 1
F
 11
46.514084
 21
11.72967
 7
SLDTEXTSTYLE0
 41
0.75
 72
1
 73
3
 0
TEXT
 8
0
 62
7
 10
0.688452
 20
13.700951
 40
0.15625
 1
G
 11
0.688452
 21
13.700951
 7
SLDTEXTSTYLE0
 41
0.75
 72
1
 73
3
 0
TEXT
 8
0
 62
7
 10
46.515224
 20
13.700951
 40
0.15625
 1
G
 11
46.515224
 21
13.700951
 7
SLDTEXTSTYLE0
 41
0.75
 72
1
 73
3
 0
TEXT
 8
0
 62
7
 10
0.688597
 20
15.666678
 40
0.15625
 1
H
 11
0.688597
 21
15.666678
 7
SLDTEXTSTYLE0
 41
0.75
 72
1
 73
3
 0
TEXT
 8
0
 62
7
 10
46.515368
 20
15.666678
 40
0.15625
 1
H
 11
46.515368
 21
15.666678
 7
SLDTEXTSTYLE0
 41
0.75
 72
1
 73
3
 0
TEXT
 8
0
 62
7
 10
0.687602
 20
17.637959
 40
0.15625
 1
J
 11
0.687602
 21
17.637959
 7
SLDTEXTSTYLE0
 41
0.75
 72
1
 73
3
 0
TEXT
 8
0
 62
7
 10
46.514374
 20
17.637959
 40
0.15625
 1
J
 11
46.514374
 21
17.637959
 7
SLDTEXTSTYLE0
 41
0.75
 72
1
 73
3
 0
TEXT
 8
0
 62
7
 10
0.688524
 20
19.603686
 40
0.15625
 1
K
 11
0.688524
 21
19.603686
 7
SLDTEXTSTYLE0
 41
0.75
 72
1
 73
3
 0
TEXT
 8
0
 62
7
 10
46.515296
 20
19.603686
 40
0.15625
 1
K
 11
46.515296
 21
19.603686
 7
SLDTEXTSTYLE0
 41
0.75
 72
1
 73
3
 0
TEXT
 8
0
 62
7
 10
0.687186
 20
21.574967
 40
0.15625
 1
L
 11
0.687186
 21
21.574967
 7
SLDTEXTSTYLE0
 41
0.75
 72
1
 73
3
 0
TEXT
 8
0
 62
7
 10
46.513958
 20
21.574967
 40
0.15625
 1
L
 11
46.513958
 21
21.574967
 7
SLDTEXTSTYLE0
 41
0.75
 72
1
 73
3
 0
TEXT
 8
0
 62
7
 10
0.683533
 20
23.540694
 40
0.15625
 1
M
 11
0.683533
 21
23.540694
 7
SLDTEXTSTYLE0
 41
0.75
 72
1
 73
3
 0
TEXT
 8
0
 62
7
 10
46.510305
 20
23.540694
 40
0.15625
 1
M
 11
46.510305
 21
23.540694
 7
SLDTEXTSTYLE0
 41
0.75
 72
1
 73
3
 0
TEXT
 8
0
 62
7
 10
0.687548
 20
25.511974
 40
0.15625
 1
N
 11
0.687548
 21
25.511974
 7
SLDTEXTSTYLE0
 41
0.75
 72
1
 73
3
 0
TEXT
 8
0
 62
7
 10
46.514319
 20
25.511974
 40
0.15625
 1
N
 11
46.514319
 21
25.511974
 7
SLDTEXTSTYLE0
 41
0.75
 72
1
 73
3
 0
TEXT
 8
0
 62
7
 10
0.68838
 20
27.477702
 40
0.15625
 1
P
 11
0.68838
 21
27.477702
 7
SLDTEXTSTYLE0
 41
0.75
 72
1
 73
3
 0
TEXT
 8
0
 62
7
 10
46.515151
 20
27.477702
 40
0.15625
 1
P
 11
46.515151
 21
27.477702
 7
SLDTEXTSTYLE0
 41
0.75
 72
1
 73
3
 0
TEXT
 8
0
 62
7
 10
0.686788
 20
29.448982
 40
0.15625
 1
R
 11
0.686788
 21
29.448982
 7
SLDTEXTSTYLE0
 41
0.75
 72
1
 73
3
 0
TEXT
 8
0
 62
7
 10
46.51356
 20
29.448982
 40
0.15625
 1
R
 11
46.51356
 21
29.448982
 7
SLDTEXTSTYLE0
 41
0.75
 72
1
 73
3
 0
TEXT
 8
0
 62
7
 10
0.688506
 20
31.624179
 40
0.15625
 1
T
 11
0.688506
 21
31.624179
 7
SLDTEXTSTYLE0
 41
0.75
 72
1
 73
3
 0
TEXT
 8
0
 62
7
 10
46.515278
 20
31.624179
 40
0.15625
 1
T
 11
46.515278
 21
31.624179
 7
SLDTEXTSTYLE0
 41
0.75
 72
1
 73
3
 0
TEXT
 8
0
 62
7
 10
1.364964
 20
0.391088
 40
0.15625
 1
24
 11
1.364964
 21
0.391088
 7
SLDTEXTSTYLE0
 41
0.75
 72
1
 73
3
 0
TEXT
 8
0
 62
7
 10
1.364964
 20
32.913549
 40
0.15625
 1
24
 11
1.364964
 21
32.913549
 7
SLDTEXTSTYLE0
 41
0.75
 72
1
 73
3
 0
TEXT
 8
0
 62
7
 10
2.929924
 20
0.391088
 40
0.15625
 1
23
 11
2.929924
 21
0.391088
 7
SLDTEXTSTYLE0
 41
0.75
 72
1
 73
3
 0
TEXT
 8
0
 62
7
 10
2.929924
 20
32.913549
 40
0.15625
 1
23
 11
2.929924
 21
32.913549
 7
SLDTEXTSTYLE0
 41
0.75
 72
1
 73
3
 0
TEXT
 8
0
 62
7
 10
4.898428
 20
0.391088
 40
0.15625
 1
22
 11
4.898428
 21
0.391088
 7
SLDTEXTSTYLE0
 41
0.75
 72
1
 73
3
 0
TEXT
 8
0
 62
7
 10
4.898428
 20
32.913549
 40
0.15625
 1
22
 11
4.898428
 21
32.913549
 7
SLDTEXTSTYLE0
 41
0.75
 72
1
 73
3
 0
TEXT
 8
0
 62
7
 10
6.866932
 20
0.391088
 40
0.15625
 1
21
 11
6.866932
 21
0.391088
 7
SLDTEXTSTYLE0
 41
0.75
 72
1
 73
3
 0
TEXT
 8
0
 62
7
 10
6.866932
 20
32.913549
 40
0.15625
 1
21
 11
6.866932
 21
32.913549
 7
SLDTEXTSTYLE0
 41
0.75
 72
1
 73
3
 0
TEXT
 8
0
 62
7
 10
8.835436
 20
0.391088
 40
0.15625
 1
20
 11
8.835436
 21
0.391088
 7
SLDTEXTSTYLE0
 41
0.75
 72
1
 73
3
 0
TEXT
 8
0
 62
7
 10
8.835436
 20
32.913549
 40
0.15625
 1
20
 11
8.835436
 21
32.913549
 7
SLDTEXTSTYLE0
 41
0.75
 72
1
 73
3
 0
TEXT
 8
0
 62
7
 10
10.80394
 20
0.391088
 40
0.15625
 1
19
 11
10.80394
 21
0.391088
 7
SLDTEXTSTYLE0
 41
0.75
 72
1
 73
3
 0
TEXT
 8
0
 62
7
 10
10.80394
 20
32.913549
 40
0.15625
 1
19
 11
10.80394
 21
32.913549
 7
SLDTEXTSTYLE0
 41
0.75
 72
1
 73
3
 0
TEXT
 8
0
 62
7
 10
12.772444
 20
0.391088
 40
0.15625
 1
18
 11
12.772444
 21
0.391088
 7
SLDTEXTSTYLE0
 41
0.75
 72
1
 73
3
 0
TEXT
 8
0
 62
7
 10
12.772444
 20
32.913549
 40
0.15625
 1
18
 11
12.772444
 21
32.913549
 7
SLDTEXTSTYLE0
 41
0.75
 72
1
 73
3
 0
TEXT
 8
0
 62
7
 10
14.740948
 20
0.391088
 40
0.15625
 1
17
 11
14.740948
 21
0.391088
 7
SLDTEXTSTYLE0
 41
0.75
 72
1
 73
3
 0
TEXT
 8
0
 62
7
 10
14.740948
 20
32.913549
 40
0.15625
 1
17
 11
14.740948
 21
32.913549
 7
SLDTEXTSTYLE0
 41
0.75
 72
1
 73
3
 0
TEXT
 8
0
 62
7
 10
16.709452
 20
0.391088
 40
0.15625
 1
16
 11
16.709452
 21
0.391088
 7
SLDTEXTSTYLE0
 41
0.75
 72
1
 73
3
 0
TEXT
 8
0
 62
7
 10
16.709452
 20
32.913549
 40
0.15625
 1
16
 11
16.709452
 21
32.913549
 7
SLDTEXTSTYLE0
 41
0.75
 72
1
 73
3
 0
TEXT
 8
0
 62
7
 10
18.677956
 20
0.391088
 40
0.15625
 1
15
 11
18.677956
 21
0.391088
 7
SLDTEXTSTYLE0
 41
0.75
 72
1
 73
3
 0
TEXT
 8
0
 62
7
 10
18.677956
 20
32.913549
 40
0.15625
 1
15
 11
18.677956
 21
32.913549
 7
SLDTEXTSTYLE0
 41
0.75
 72
1
 73
3
 0
TEXT
 8
0
 62
7
 10
20.64646
 20
0.391088
 40
0.15625
 1
14
 11
20.64646
 21
0.391088
 7
SLDTEXTSTYLE0
 41
0.75
 72
1
 73
3
 0
TEXT
 8
0
 62
7
 10
20.64646
 20
32.913549
 40
0.15625
 1
14
 11
20.64646
 21
32.913549
 7
SLDTEXTSTYLE0
 41
0.75
 72
1
 73
3
 0
TEXT
 8
0
 62
7
 10
22.614964
 20
0.391088
 40
0.15625
 1
13
 11
22.614964
 21
0.391088
 7
SLDTEXTSTYLE0
 41
0.75
 72
1
 73
3
 0
TEXT
 8
0
 62
7
 10
22.614964
 20
32.913549
 40
0.15625
 1
13
 11
22.614964
 21
32.913549
 7
SLDTEXTSTYLE0
 41
0.75
 72
1
 73
3
 0
TEXT
 8
0
 62
7
 10
24.583467
 20
0.391088
 40
0.15625
 1
12
 11
24.583467
 21
0.391088
 7
SLDTEXTSTYLE0
 41
0.75
 72
1
 73
3
 0
TEXT
 8
0
 62
7
 10
24.583467
 20
32.913549
 40
0.15625
 1
12
 11
24.583467
 21
32.913549
 7
SLDTEXTSTYLE0
 41
0.75
 72
1
 73
3
 0
TEXT
 8
0
 62
7
 10
26.551971
 20
0.391088
 40
0.15625
 1
11
 11
26.551971
 21
0.391088
 7
SLDTEXTSTYLE0
 41
0.75
 72
1
 73
3
 0
TEXT
 8
0
 62
7
 10
26.551971
 20
32.913549
 40
0.15625
 1
11
 11
26.551971
 21
32.913549
 7
SLDTEXTSTYLE0
 41
0.75
 72
1
 73
3
 0
TEXT
 8
0
 62
7
 10
28.520475
 20
0.391088
 40
0.15625
 1
10
 11
28.520475
 21
0.391088
 7
SLDTEXTSTYLE0
 41
0.75
 72
1
 73
3
 0
TEXT
 8
0
 62
7
 10
28.520475
 20
32.913549
 40
0.15625
 1
10
 11
28.520475
 21
32.913549
 7
SLDTEXTSTYLE0
 41
0.75
 72
1
 73
3
 0
TEXT
 8
0
 62
7
 10
30.490553
 20
0.391088
 40
0.15625
 1
9
 11
30.490553
 21
0.391088
 7
SLDTEXTSTYLE0
 41
0.75
 72
1
 73
3
 0
TEXT
 8
0
 62
7
 10
30.490553
 20
32.913549
 40
0.15625
 1
9
 11
30.490553
 21
32.913549
 7
SLDTEXTSTYLE0
 41
0.75
 72
1
 73
3
 0
TEXT
 8
0
 62
7
 10
32.459057
 20
0.391088
 40
0.15625
 1
8
 11
32.459057
 21
0.391088
 7
SLDTEXTSTYLE0
 41
0.75
 72
1
 73
3
 0
TEXT
 8
0
 62
7
 10
32.459057
 20
32.913549
 40
0.15625
 1
8
 11
32.459057
 21
32.913549
 7
SLDTEXTSTYLE0
 41
0.75
 72
1
 73
3
 0
TEXT
 8
0
 62
7
 10
34.427561
 20
0.391088
 40
0.15625
 1
7
 11
34.427561
 21
0.391088
 7
SLDTEXTSTYLE0
 41
0.75
 72
1
 73
3
 0
TEXT
 8
0
 62
7
 10
34.427561
 20
32.913549
 40
0.15625
 1
7
 11
34.427561
 21
32.913549
 7
SLDTEXTSTYLE0
 41
0.75
 72
1
 73
3
 0
TEXT
 8
0
 62
7
 10
36.396064
 20
0.391088
 40
0.15625
 1
6
 11
36.396064
 21
0.391088
 7
SLDTEXTSTYLE0
 41
0.75
 72
1
 73
3
 0
TEXT
 8
0
 62
7
 10
36.396064
 20
32.913549
 40
0.15625
 1
6
 11
36.396064
 21
32.913549
 7
SLDTEXTSTYLE0
 41
0.75
 72
1
 73
3
 0
TEXT
 8
0
 62
7
 10
38.364568
 20
0.391088
 40
0.15625
 1
5
 11
38.364568
 21
0.391088
 7
SLDTEXTSTYLE0
 41
0.75
 72
1
 73
3
 0
TEXT
 8
0
 62
7
 10
38.364568
 20
32.913549
 40
0.15625
 1
5
 11
38.364568
 21
32.913549
 7
SLDTEXTSTYLE0
 41
0.75
 72
1
 73
3
 0
TEXT
 8
0
 62
7
 10
40.333072
 20
0.391088
 40
0.15625
 1
4
 11
40.333072
 21
0.391088
 7
SLDTEXTSTYLE0
 41
0.75
 72
1
 73
3
 0
TEXT
 8
0
 62
7
 10
40.333072
 20
32.913549
 40
0.15625
 1
4
 11
40.333072
 21
32.913549
 7
SLDTEXTSTYLE0
 41
0.75
 72
1
 73
3
 0
TEXT
 8
0
 62
7
 10
42.301576
 20
0.391088
 40
0.15625
 1
3
 11
42.301576
 21
0.391088
 7
SLDTEXTSTYLE0
 41
0.75
 72
1
 73
3
 0
TEXT
 8
0
 62
7
 10
42.301576
 20
32.913549
 40
0.15625
 1
3
 11
42.301576
 21
32.913549
 7
SLDTEXTSTYLE0
 41
0.75
 72
1
 73
3
 0
TEXT
 8
0
 62
7
 10
44.27008
 20
0.391088
 40
0.15625
 1
2
 11
44.27008
 21
0.391088
 7
SLDTEXTSTYLE0
 41
0.75
 72
1
 73
3
 0
TEXT
 8
0
 62
7
 10
44.27008
 20
32.913549
 40
0.15625
 1
2
 11
44.27008
 21
32.913549
 7
SLDTEXTSTYLE0
 41
0.75
 72
1
 73
3
 0
TEXT
 8
0
 62
7
 10
45.835041
 20
0.391088
 40
0.15625
 1
1
 11
45.835041
 21
0.391088
 7
SLDTEXTSTYLE0
 41
0.75
 72
1
 73
3
 0
TEXT
 8
0
 62
7
 10
45.835041
 20
32.913549
 40
0.15625
 1
1
 11
45.835041
 21
32.913549
 7
SLDTEXTSTYLE0
 41
0.75
 72
1
 73
3
 0
TEXT
 8
0
 62
7
 10
39.356038
 20
1.668692
 40
0.059055
 1
DRAWN
 11
39.356038
 21
1.668692
 7
SLDTEXTSTYLE1
 41
0.686449
 73
3
 0
TEXT
 8
0
 62
7
 10
39.367686
 20
1.502435
 40
0.059055
 1
CHK'D
 11
39.367686
 21
1.502435
 7
SLDTEXTSTYLE0
 41
0.75
 73
3
 0
TEXT
 8
0
 62
7
 10
39.346525
 20
1.341176
 40
0.059055
 1
APPV'D
 11
39.346525
 21
1.341176
 7
SLDTEXTSTYLE0
 41
0.75
 73
3
 0
TEXT
 8
0
 62
7
 10
39.374961
 20
1.169913
 40
0.059055
 1
MFG
 11
39.374961
 21
1.169913
 7
SLDTEXTSTYLE0
 41
0.75
 73
3
 0
TEXT
 8
0
 62
7
 10
39.39012
 20
1.004121
 40
0.059055
 1
Q.A
 11
39.39012
 21
1.004121
 7
SLDTEXTSTYLE0
 41
0.75
 73
3
 0
INSERT
 8
0
 2
SW_NOTE_0
 10
39.3540814467
 20
2.4404476328
 41
1
 42
1
 50
0
 0
TEXT
 8
0
 62
7
 10
40.683909
 20
2.516507
 40
0.059055
 1
FINISH:
 11
40.683909
 21
2.516507
 7
SLDTEXTSTYLE0
 41
0.75
 73
3
 0
INSERT
 8
0
 2
SW_NOTE_1
 10
42.5318588853
 20
2.4436806946
 41
1
 42
1
 50
0
 0
TEXT
 8
0
 62
7
 10
39.894576
 20
1.830767
 40
0.059055
 1
NAME
 11
39.894576
 21
1.830767
 7
SLDTEXTSTYLE0
 41
0.75
 73
3
 0
TEXT
 8
0
 62
7
 10
40.513133
 20
1.83314
 40
0.059055
 1
SIGNATURE
 11
40.513133
 21
1.83314
 7
SLDTEXTSTYLE0
 41
0.75
 73
3
 0
TEXT
 8
0
 62
7
 10
41.189555
 20
1.833708
 40
0.059055
 1
DATE
 11
41.189555
 21
1.833708
 7
SLDTEXTSTYLE0
 41
0.75
 73
3
 0
TEXT
 8
0
 62
7
 10
41.521491
 20
1.023073
 40
0.059055
 1
MATERIAL:
 11
41.521491
 21
1.023073
 7
SLDTEXTSTYLE0
 41
0.75
 73
3
 0
TEXT
 8
0
 62
7
 10
43.764356
 20
2.461929
 40
0.059055
 1
DO NOT SCALE DRAWING
 11
43.764356
 21
2.461929
 7
SLDTEXTSTYLE0
 41
0.75
 73
3
 0
TEXT
 8
0
 62
7
 10
45.367228
 20
2.45413
 40
0.059055
 1
REVISION
 11
45.367228
 21
2.45413
 7
SLDTEXTSTYLE0
 41
0.75
 73
3
 0
TEXT
 8
0
 62
7
 10
43.271266
 20
1.833708
 40
0.059055
 1
TITLE:
 11
43.271266
 21
1.833708
 7
SLDTEXTSTYLE0
 41
0.75
 73
3
 0
TEXT
 8
0
 62
7
 10
43.265866
 20
1.023073
 40
0.059055
 1
DWG NO.
 11
43.265866
 21
1.023073
 7
SLDTEXTSTYLE0
 41
0.75
 73
3
 0
TEXT
 8
0
 62
7
 10
43.270629
 20
0.507877
 40
0.059055
 1
SCALE:2:1
 11
43.270629
 21
0.507877
 7
SLDTEXTSTYLE0
 41
0.75
 73
3
 0
TEXT
 8
0
 62
7
 10
45.01883
 20
0.507877
 40
0.059055
 1
SHEET 1 OF 1
 11
45.01883
 21
0.507877
 7
SLDTEXTSTYLE2
 41
0.6875
 73
3
 0
TEXT
 8
0
 62
7
 10
46.05792
 20
0.960881
 40
0.114583
 1
A0
 11
46.05792
 21
0.960881
 7
SLDTEXTSTYLE0
 41
0.75
 73
3
 0
TEXT
 8
0
 62
7
 10
42.354571
 20
0.845888
 40
0.09375
 1
3.3535/EN AW-5754 (AlMg3)
 11
42.354571
 21
0.845888
 7
SLDTEXTSTYLE0
 41
0.75
 72
1
 73
3
 0
TEXT
 8
0
 62
7
 10
41.520386
 20
0.509815
 40
0.059
 1
WEIGHT:
 11
41.520386
 21
0.509815
 7
SLDTEXTSTYLE0
 41
0.75
 73
3
 0
TEXT
 8
0
 62
7
 10
44.64052
 20
0.929406
 40
0.25
 1
Bend-10
 11
44.64052
 21
0.929406
 7
SLDTEXTSTYLE0
 41
0.75
 72
1
 73
3
 0
LINE
 8
0
 62
7
 10
19.055112
 20
28.846283
 11
18.020327
 21
27.73247
 0
ARC
 8
0
 62
7
 10
18.176332
 20
27.587533
 40
0.212942
 50
137.106481
 51
317.106481
 0
LINE
 8
0
 62
7
 10
18.332338
 20
27.442597
 11
19.367122
 21
28.556411
 0
ARC
 8
0
 62
7
 10
19.211117
 20
28.701347
 40
0.212942
 50
-42.893519
 51
137.106481
 0
ARC
 8
0
 62
7
 10
17.412072
 20
23.647376
 40
0.212942
 50
-137.106481
 51
42.893519
 0
LINE
 8
0
 62
7
 10
17.568078
 20
23.792312
 11
16.533293
 21
24.906126
 0
ARC
 8
0
 62
7
 10
16.377287
 20
24.76119
 40
0.212942
 50
42.893519
 51
222.893519
 0
LINE
 8
0
 62
7
 10
12.637427
 20
23.595683
 11
15.222112
 21
23.595683
 0
LINE
 8
0
 62
7
 10
15.222112
 20
23.595683
 11
15.222112
 21
24.960834
 0
LINE
 8
0
 62
7
 10
15.222112
 20
24.960834
 11
12.637427
 21
24.960834
 0
LINE
 8
0
 62
7
 10
12.637427
 20
24.960834
 11
12.637427
 21
23.595683
 0
CIRCLE
 8
0
 62
7
 10
16.414344
 20
9.008774
 40
0.334646
 0
CIRCLE
 8
0
 62
7
 10
21.183271
 20
9.008774
 40
0.334646
 0
CIRCLE
 8
0
 62
7
 10
13.947972
 20
10.770552
 40
0.334646
 0
CIRCLE
 8
0
 62
7
 10
13.947972
 20
14.520166
 40
0.334646
 0
LINE
 8
0
 62
7
 10
21.347313
 20
28.170191
 11
21.138268
 21
28.532267
 0
LINE
 8
0
 62
7
 10
21.138268
 20
28.532267
 11
20.720179
 21
28.532267
 0
LINE
 8
0
 62
7
 10
20.720179
 20
28.532267
 11
20.511135
 21
28.170191
 0
LINE
 8
0
 62
7
 10
20.511135
 20
28.170191
 11
20.720179
 21
27.808115
 0
LINE
 8
0
 62
7
 10
20.720179
 20
27.808115
 11
21.138268
 21
27.808115
 0
LINE
 8
0
 62
7
 10
21.138268
 20
27.808115
 11
21.347313
 21
28.170191
 0
LINE
 8
0
 62
7
 10
24.019958
 20
28.177156
 11
23.810914
 21
28.539231
 0
LINE
 8
0
 62
7
 10
23.810914
 20
28.539231
 11
23.392824
 21
28.539231
 0
LINE
 8
0
 62
7
 10
23.392824
 20
28.539231
 11
23.18378
 21
28.177156
 0
LINE
 8
0
 62
7
 10
23.18378
 20
28.177156
 11
23.392824
 21
27.81508
 0
LINE
 8
0
 62
7
 10
23.392824
 20
27.81508
 11
23.810914
 21
27.81508
 0
LINE
 8
0
 62
7
 10
23.810914
 20
27.81508
 11
24.019958
 21
28.177156
 0
LINE
 8
0
 62
7
 10
15.803887
 20
15.627041
 11
16.1231
 21
15.627041
 0
LINE
 8
0
 62
7
 10
15.803887
 20
15.386333
 11
15.803887
 21
15.627041
 0
LINE
 8
0
 62
7
 10
15.805836
 20
15.307829
 11
15.803887
 21
15.386333
 0
ARC
 8
0
 62
7
 10
15.804045
 20
15.189732
 40
0.11811
 50
0
 51
89.130827
 0
LINE
 8
0
 62
7
 10
15.922155
 20
10.307986
 11
15.922155
 21
15.189732
 0
LINE
 8
0
 62
7
 10
21.985147
 20
10.307986
 11
15.922155
 21
10.307986
 0
LINE
 8
0
 62
7
 10
22.378848
 20
9.914285
 11
21.985147
 21
10.307986
 0
LINE
 8
0
 62
7
 10
22.378848
 20
8.103262
 11
22.378848
 21
9.914285
 0
LINE
 8
0
 62
7
 10
21.985147
 20
7.709561
 11
22.378848
 21
8.103262
 0
LINE
 8
0
 62
7
 10
15.292234
 20
7.709561
 11
21.985147
 21
7.709561
 0
ARC
 8
0
 62
7
 10
15.292234
 20
10.859167
 40
3.149606
 50
180
 51
270
 0
LINE
 8
0
 62
7
 10
12.142627
 20
24.961529
 11
12.142627
 21
10.859167
 0
LINE
 8
0
 62
7
 10
12.536328
 20
25.35523
 11
12.142627
 21
24.961529
 0
LINE
 8
0
 62
7
 10
16.477273
 20
25.35523
 11
12.536328
 21
25.35523
 0
ARC
 8
0
 62
7
 10
16.477273
 20
23.780427
 40
1.574803
 50
0
 51
90
 0
LINE
 8
0
 62
7
 10
18.052076
 20
23.229246
 11
18.052076
 21
23.780427
 0
LINE
 8
0
 62
7
 10
15.646446
 20
23.229246
 11
18.052076
 21
23.229246
 0
LINE
 8
0
 62
7
 10
15.646446
 20
22.870978
 11
15.646446
 21
23.229246
 0
LINE
 8
0
 62
7
 10
16.154438
 20
22.870978
 11
15.646446
 21
22.870978
 0
LINE
 8
0
 62
7
 10
16.154438
 20
22.989089
 11
16.154438
 21
22.870978
 0
LINE
 8
0
 62
7
 10
19.626722
 20
22.989089
 11
16.154438
 21
22.989089
 0
LINE
 8
0
 62
7
 10
19.626722
 20
22.71338
 11
19.626722
 21
22.989089
 0
LINE
 8
0
 62
7
 10
19.945934
 20
22.71338
 11
19.626722
 21
22.71338
 0
LINE
 8
0
 62
7
 10
19.945934
 20
23.268774
 11
19.945934
 21
22.71338
 0
LINE
 8
0
 62
7
 10
19.827667
 20
23.268774
 11
19.945934
 21
23.268774
 0
LINE
 8
0
 62
7
 10
19.827667
 20
26.930033
 11
19.827667
 21
23.268774
 0
LINE
 8
0
 62
7
 10
19.945895
 20
26.930033
 11
19.827667
 21
26.930033
 0
LINE
 8
0
 62
7
 10
19.945895
 20
27.087514
 11
19.945895
 21
26.930033
 0
LINE
 8
0
 62
7
 10
17.540265
 20
27.087514
 11
19.945895
 21
27.087514
 0
LINE
 8
0
 62
7
 10
17.540265
 20
27.717435
 11
17.540265
 21
27.087514
 0
LINE
 8
0
 62
7
 10
24.788297
 20
29.292238
 11
19.115068
 21
29.292238
 0
LINE
 8
0
 62
7
 10
25.181997
 20
28.898537
 11
24.788297
 21
29.292238
 0
LINE
 8
0
 62
7
 10
25.181997
 20
27.441844
 11
25.181997
 21
28.898537
 0
LINE
 8
0
 62
7
 10
24.788297
 20
27.048144
 11
25.181997
 21
27.441844
 0
LINE
 8
0
 62
7
 10
23.213494
 20
27.048144
 11
24.788297
 21
27.048144
 0
LINE
 8
0
 62
7
 10
22.819793
 20
26.654443
 11
23.213494
 21
27.048144
 0
LINE
 8
0
 62
7
 10
22.819793
 20
20.233183
 11
22.819793
 21
26.654443
 0
LINE
 8
0
 62
7
 10
19.626761
 20
20.233183
 11
22.819793
 21
20.233183
 0
LINE
 8
0
 62
7
 10
19.626761
 20
20.075703
 11
19.626761
 21
20.233183
 0
LINE
 8
0
 62
7
 10
27.268612
 20
19.682002
 11
26.874911
 21
20.075703
 0
LINE
 8
0
 62
7
 10
27.268612
 20
15.744994
 11
27.268612
 21
19.682002
 0
LINE
 8
0
 62
7
 10
26.874911
 20
15.351293
 11
27.268612
 21
15.744994
 0
LINE
 8
0
 62
7
 10
16.35932
 20
15.351293
 11
26.874911
 21
15.351293
 0
ARC
 8
0
 62
7
 10
16.35932
 20
15.587514
 40
0.23622
 50
180
 51
270
 0
LINE
 8
0
 62
7
 10
16.1231
 20
15.627041
 11
16.1231
 21
15.587514
 0
LINE
 8
0
 62
7
 10
26.874911
 20
20.075703
 11
19.626761
 21
20.075703
 0
LINE
 8
0
 62
7
 10
16.221282
 20
24.616253
 11
17.256067
 21
23.502439
 0
ARC
 8
0
 62
7
 10
19.115068
 20
27.717435
 40
1.574803
 50
90
 51
180
 0
INSERT
 8
0
 2
SW_CENTERMARKSYMBOL_0
 10
16.4143441169
 20
9.008773586
 41
1
 42
1
 50
0
 0
INSERT
 8
0
 2
SW_CENTERMARKSYMBOL_1
 10
21.183271107
 20
9.008773586
 41
1
 42
1
 50
0
 0
INSERT
 8
0
 2
SW_CENTERMARKSYMBOL_2
 10
13.9479715705
 20
10.7705516523
 41
1
 42
1
 50
0
 0
INSERT
 8
0
 2
SW_CENTERMARKSYMBOL_3
 10
13.9479715705
 20
14.5201660033
 41
1
 42
1
 50
0
 0
LINE
 8
MBEND
 10
12.142627
 20
15.467435
 11
15.803887
 21
15.467435
 1000
BEND_ANGLE:-90
 1000
BEND_RADIUS:0.04
 1000
K_FACTOR:0.12 
 0
LINE
 8
BEND
 10
19.945934
 20
23.113104
 11
22.819793
 21
23.113104
 1000
BEND_ANGLE:90
 1000
BEND_RADIUS:0.04
 1000
K_FACTOR:0.12 
 0
LINE
 8
BEND
 10
20.967431
 20
20.075703
 11
20.967431
 21
15.351293
 1000
BEND_ANGLE:90
 1000
BEND_RADIUS:0.04
 1000
K_FACTOR:0.12 
 0
LINE
 8
BEND
 10
19.786328
 20
22.71338
 11
19.786328
 21
20.233183
 1000
BEND_ANGLE:90
 1000
BEND_RADIUS:0.04
 1000
K_FACTOR:0.12 
 0
LINE
 8
BEND
 10
15.806013
 20
25.35523
 11
15.806013
 21
23.229246
 1000
BEND_ANGLE:90
 1000
BEND_RADIUS:0.04
 1000
K_FACTOR:0.12 
 0
LINE
 8
MBEND
 10
15.963494
 20
22.870978
 11
15.963494
 21
15.627041
 1000
BEND_ANGLE:-90
 1000
BEND_RADIUS:0.04
 1000
K_FACTOR:0.12 
 0
LINE
 8
BEND
 10
12.142627
 20
23.109167
 11
15.646446
 21
23.109167
 1000
BEND_ANGLE:90
 1000
BEND_RADIUS:0.04
 1000
K_FACTOR:0.12 
 0
LINE
 8
BEND
 10
19.786328
 20
27.087514
 11
19.786328
 21
29.292238
 1000
BEND_ANGLE:90
 1000
BEND_RADIUS:0.04
 1000
K_FACTOR:0.12 
 0
ENDSEC
 0
EOF
