 0
SECTION
 2
HEADER
 9
$ACADVER
 1
AC1009
 9
$EXTMIN
 10
0
 20
0
 30
0
 9
$EXTMAX
 10
5080
 20
3048
 30
0
 9
$VIEWCTR
 10
2540
 20
1524
 9
$VIEWSIZE
 40
3352.8
 9
$CLAYER
 8
0
 9
$DIMSTYLE
 2
STANDARD
 0
ENDSEC
 0
SECTION
 2
TABLES
 0
TABLE
 2
LAYER
 70
1
 0
LAYER
 2
0
 70
0
 62
250
 6
CONTINUOUS
 0
ENDTAB
 0
TABLE
 2
STYLE
 70
1
 0
STYLE
 2
STANDARD
 70
0
 40
0
 41
1
 50
0
 71
0
 42
1
 3
SIMPLEX
 4

 0
ENDTAB
 0
TABLE
 2
DIMSTYLE
 70
1
 0
DIMSTYLE
 2
STANDARD
 70
0
 3

 4

 5

 6

 7

 40
1
 41
2.5
 42
0.625
 43
3.75
 44
1.25
 45
0
 46
0
 47
0
 48
0
 140
2.5
 141
2.5
 142
0
 143
25.4
 144
1
 145
0
 146
1
 147
0.625
 71
0
 72
0
 73
0
 74
0
 75
0
 76
0
 77
0
 78
0
 170
0
 171
2
 172
1
 173
0
 174
0
 175
0
 176
0
 177
0
 178
0
 0
ENDTAB
 0
ENDSEC
 0
SECTION
 2
BLOCKS
 0
BLOCK
 2
Blimp
 70
0
 10
0
 20
0
 0
CIRCLE
 8
0
 10
0
 20
0
 40
10
 0
POLYLINE
 8
0
 66
1
 10
0
 20
0
 70
1
 0
VERTEX
 8
0
 10
-5
 20
-5
 0
VERTEX
 8
0
 10
-5
 20
5
 0
VERTEX
 8
0
 10
35
 20
5
 42
-0.414214
 0
VERTEX
 8
0
 10
40
 20
0
 0
VERTEX
 8
0
 10
40
 20
-5
 0
SEQEND
 8
0
 0
TEXT
 8
0
 10
12
 20
-2.5
 40
5
 1
Blimp
 0
ENDBLK
 0
BLOCK
 2
Cross
 70
0
 10
0
 20
0
 0
POLYLINE
 8
0
 66
1
 10
0
 20
0
 70
1
 0
VERTEX
 8
0
 10
3
 20
-3
 0
VERTEX
 8
0
 10
10
 20
-3
 0
VERTEX
 8
0
 10
10
 20
3
 0
VERTEX
 8
0
 10
3
 20
3
 0
VERTEX
 8
0
 10
3
 20
10
 0
VERTEX
 8
0
 10
-3
 20
10
 0
VERTEX
 8
0
 10
-3
 20
8
 42
-0.414214
 0
VERTEX
 8
0
 10
-8
 20
3
 0
VERTEX
 8
0
 10
-10
 20
3
 0
VERTEX
 8
0
 10
-10
 20
-3
 0
VERTEX
 8
0
 10
-3
 20
-3
 0
VERTEX
 8
0
 10
-3
 20
-10
 0
VERTEX
 8
0
 10
3
 20
-10
 0
SEQEND
 8
0
 0
LINE
 8
0
 10
0
 20
0
 11
-10
 21
10
 0
ENDBLK
 0
ENDSEC
 0
SECTION
 2
ENTITIES
 0
POLYLINE
 8
0
 66
1
 10
0
 20
0
 70
1
 0
VERTEX
 8
0
 10
0
 20
0
 0
VERTEX
 8
0
 10
0
 20
3048
 0
VERTEX
 8
0
 10
5080
 20
3048
 0
VERTEX
 8
0
 10
5080
 20
0
 0
SEQEND
 8
0
 0
INSERT
 8
0
 2
Blimp
 10
508
 20
508
 41
20
 42
40
 50
0
 0
INSERT
 8
0
 2
Blimp
 10
2540
 20
1524
 41
50.8
 42
50.8
 50
30
 0
INSERT
 8
0
 2
Cross
 10
1016
 20
2032
 41
63.5
 42
63.5
 50
0
 0
ENDSEC
 0
EOF
