 0
SECTION
 2
HEADER
 0
ENDSEC
 0
SECTION
 2
TABLES
 0
TABLE
 2
LAYER
 70
1
 0
LAYER
 70
0
 2
0
 62
250
 6
CONTINUOUS
 0
ENDTAB
 0
TABLE
 2
STYLE
 70
1
 0
STYLE
 2
STANDARD
 70
0
 40
0
 41
1
 50
0
 71
0
 42
1
 3
SIMPLEX
 4

 0
ENDTAB
 0
TABLE
 2
BLOCKS
 70
2
 0
BLOCK
 70
65
 2
Blimp
 10
0
 20
0
 0
CIRCLE
 8
0
 62
0
 10
0
 20
0
 40
0.393701
 0
POLYLINE
 8
0
 62
0
 66
1
 10
0
 20
0
 70
1
 0
VERTEX
 8
0
 10
-0.19685
 20
-0.19685
 0
VERTEX
 8
0
 10
-0.19685
 20
0.19685
 0
VERTEX
 8
0
 10
1.377953
 20
0.19685
 42
-0.414214
 0
VERTEX
 8
0
 10
1.574803
 20
0
 0
VERTEX
 8
0
 10
1.574803
 20
-0.19685
 0
SEQEND
 8
0
 0
TEXT
 8
0
 62
0
 10
0.472441
 20
-0.098425
 40
0.19685
 1
Blimp
 0
ENDBLK
 0
BLOCK
 70
65
 2
Cross
 10
0
 20
0
 0
POLYLINE
 8
0
 62
0
 66
1
 10
0
 20
0
 70
1
 0
VERTEX
 8
0
 10
0.11811
 20
-0.11811
 0
VERTEX
 8
0
 10
0.393701
 20
-0.11811
 0
VERTEX
 8
0
 10
0.393701
 20
0.11811
 0
VERTEX
 8
0
 10
0.11811
 20
0.11811
 0
VERTEX
 8
0
 10
0.11811
 20
0.393701
 0
VERTEX
 8
0
 10
-0.11811
 20
0.393701
 0
VERTEX
 8
0
 10
-0.11811
 20
0.314961
 42
-0.414214
 0
VERTEX
 8
0
 10
-0.314961
 20
0.11811
 0
VERTEX
 8
0
 10
-0.393701
 20
0.11811
 0
VERTEX
 8
0
 10
-0.393701
 20
-0.11811
 0
VERTEX
 8
0
 10
-0.11811
 20
-0.11811
 0
VERTEX
 8
0
 10
-0.11811
 20
-0.393701
 0
VERTEX
 8
0
 10
0.11811
 20
-0.393701
 0
SEQEND
 8
0
 0
LINE
 8
0
 62
0
 10
0
 20
0
 11
-0.393701
 21
0.393701
 0
ENDBLK
 0
ENDTAB
 0
ENDSEC
 0
SECTION
 2
ENTITIES
 0
POLYLINE
 8
0
 66
1
 10
0
 20
0
 70
1
 0
VERTEX
 8
0
 10
0
 20
0
 0
VERTEX
 8
0
 10
0
 20
120
 0
VERTEX
 8
0
 10
200
 20
120
 0
VERTEX
 8
0
 10
200
 20
0
 0
SEQEND
 8
0
 0
INSERT
 8
0
 2
Blimp
 10
20
 20
20
 41
20
 42
40
 50
0
 0
INSERT
 8
0
 2
Blimp
 10
100
 20
60
 41
50.8
 42
50.8
 50
30
 0
INSERT
 8
0
 2
Cross
 10
40
 20
80
 41
63.5
 42
63.5
 50
0
 0
ENDSEC
 0
EOF
