 0
SECTION
 2
HEADER
 0
ENDSEC
 0
SECTION
 2
TABLES
 0
TABLE
 2
LAYER
 70
3
 0
LAYER
 70
0
 2
0
 62
250
 6
CONTINUOUS
 0
LAYER
 70
0
 2
Form
 62
32
 6
CONTINUOUS
 0
LAYER
 70
0
 2
Mark
 62
234
 6
CONTINUOUS
 0
ENDTAB
 0
ENDSEC
 0
SECTION
 2
ENTITIES
 0
POLYLINE
 8
0
 66
1
 10
0
 20
0
 70
1
 0
VERTEX
 8
0
 10
-63.5
 20
-187.256442
 0
VERTEX
 8
0
 10
63.5
 20
-187.256442
 0
VERTEX
 8
0
 10
63.5
 20
-63.5
 0
VERTEX
 8
0
 10
187.256442
 20
-63.5
 0
VERTEX
 8
0
 10
187.256442
 20
63.5
 0
VERTEX
 8
0
 10
63.5
 20
63.5
 0
VERTEX
 8
0
 10
63.5
 20
187.256442
 0
VERTEX
 8
0
 10
-63.5
 20
187.256442
 0
VERTEX
 8
0
 10
-63.5
 20
63.5
 0
VERTEX
 8
0
 10
-187.256442
 20
63.5
 0
VERTEX
 8
0
 10
-187.256442
 20
-63.5
 0
VERTEX
 8
0
 10
-63.5
 20
-63.5
 0
SEQEND
 8
0
 0
POLYLINE
 8
0
 66
1
 10
0
 20
0
 70
1
 0
VERTEX
 8
0
 10
-25.4
 20
-66.675
 0
VERTEX
 8
0
 10
-25.4
 20
-98.425
 0
VERTEX
 8
0
 10
25.4
 20
-98.425
 0
VERTEX
 8
0
 10
25.4
 20
-66.675
 0
SEQEND
 8
0
 0
POLYLINE
 8
0
 66
1
 10
0
 20
0
 70
1
 0
VERTEX
 8
0
 10
-25.4
 20
98.425
 0
VERTEX
 8
0
 10
-25.4
 20
66.675
 0
VERTEX
 8
0
 10
25.4
 20
66.675
 0
VERTEX
 8
0
 10
25.4
 20
98.425
 0
SEQEND
 8
0
 0
CIRCLE
 8
0
 10
0
 20
0
 40
9.525
 0
CIRCLE
 8
Mark
 10
0
 20
0
 40
31.75
 0
POLYLINE
 8
0
 66
1
 10
0
 20
0
 70
1
 0
VERTEX
 8
0
 10
25.4
 20
152.331442
 0
VERTEX
 8
0
 10
25.4
 20
184.081442
 0
VERTEX
 8
0
 10
-25.4
 20
184.081442
 0
VERTEX
 8
0
 10
-25.4
 20
152.331442
 0
SEQEND
 8
0
 0
POLYLINE
 8
0
 66
1
 10
0
 20
0
 70
1
 0
VERTEX
 8
0
 10
-25.4
 20
-184.081442
 0
VERTEX
 8
0
 10
25.4
 20
-184.081442
 0
VERTEX
 8
0
 10
25.4
 20
-152.331442
 0
VERTEX
 8
0
 10
-25.4
 20
-152.331442
 0
SEQEND
 8
0
 0
POINT
 8
Form
 10
0
 20
-82.55
 0
POINT
 8
Form
 10
0
 20
82.55
 0
POINT
 8
0
 10
0
 20
0
 0
POINT
 8
Form
 10
0
 20
168.20644224
 0
POINT
 8
Form
 10
0
 20
-168.20644224
 0
ENDSEC
 0
EOF
