 0
SECTION
 2
HEADER
 0
ENDSEC
 0
SECTION
 2
TABLES
 0
TABLE
 2
LAYER
 70
5
 0
LAYER
 70
0
 2
0
 62
7
 6
CONTINUOUS
 0
LAYER
 70
0
 2
KADER
 62
7
 6
CONTINUOUS
 0
LAYER
 70
0
 2
DIM
 62
8
 6
CONTINUOUS
 0
LAYER
 70
0
 2
TEKST
 62
7
 6
CONTINUOUS
 0
LAYER
 70
0
 2
ONDERHOEK
 62
7
 6
CONTINUOUS
 0
ENDTAB
 0
TABLE
 2
STYLE
 70
4
 0
STYLE
 2
SLDTEXTSTYLE0
 70
0
 40
0
 41
0.605
 50
0
 71
0
 42
1
 3
TXT
 4

 0
STYLE
 2
SLDTEXTSTYLE1
 70
0
 40
0
 41
0.75
 50
0
 71
0
 42
1
 3
TXT
 4

 0
STYLE
 2
SLDTEXTSTYLE2
 70
0
 40
0
 41
0.7
 50
0
 71
0
 42
1
 3
TXT
 4

 0
STYLE
 2
SLDTEXTSTYLE3
 70
0
 40
0
 41
0.6818181818
 50
0
 71
0
 42
1
 3
TXT
 4

 0
ENDTAB
 0
TABLE
 2
BLOCKS
 70
11
 0
BLOCK
 70
65
 2
COPYRIGHT_REGEL_1_1
 10
0
 20
0
 0
INSERT
 8
TEKST
 2
SW_NOTE_0
 10
-3.8085954167
 20
-0.0166128778
 41
1
 42
1
 50
0
 0
ENDBLK
 0
BLOCK
 70
65
 2
SW_NOTE_0
 10
0
 20
0
 0
TEXT
 8
TEKST
 62
0
 10
-1.933602
 20
0
 40
1.5
 1
Deze tekening is eigendom van Ulamo Metaal BV welke daarop auteursrechten heeft.
 11
-1.933602
 21
0
 50
90
 7
SLDTEXTSTYLE0
 41
0.605
 73
3
 0
TEXT
 8
TEKST
 62
0
 10
0.566398
 20
0
 40
1.5
 1
Zij mag noch gekopieerd, noch aan derden ter kopiëring of namaken getoond worden, zonder toestemming.
 11
0.566398
 21
0
 50
90
 7
SLDTEXTSTYLE0
 41
0.605
 73
3
 0
ENDBLK
 0
BLOCK
 70
65
 2
SW_NOTE_1
 10
0
 20
0
 0
TEXT
 8
TEKST
 62
0
 10
-1.933602
 20
0
 40
1.5
 1
Deze tekening is eigendom van Ulamo Metaal BV welke daarop auteursrechten heeft.
 11
-1.933602
 21
0
 50
90
 7
SLDTEXTSTYLE0
 41
0.605
 73
3
 0
TEXT
 8
TEKST
 62
0
 10
0.566398
 20
0
 40
1.5
 1
Zij mag noch gekopieerd, noch aan derden ter kopiëring of namaken getoond worden, zonder toestemming.
 11
0.566398
 21
0
 50
90
 7
SLDTEXTSTYLE0
 41
0.605
 73
3
 0
ENDBLK
 0
BLOCK
 70
65
 2
SW_NOTE_2
 10
0
 20
0
 0
CIRCLE
 8
DIM
 62
0
 10
3.010196
 20
3.060723
 40
4.004628
 0
TEXT
 8
DIM
 62
0
 10
3
 20
5.156271
 40
4
 1
01
 11
3
 21
5.156271
 7
SLDTEXTSTYLE0
 41
0.605
 72
1
 73
3
 0
ENDBLK
 0
BLOCK
 70
65
 2
SW_TABLEANNOTATION_0
 10
0
 20
0
 0
LINE
 8
DIM
 62
0
 10
0
 20
0
 11
0
 21
-35.038007
 0
LINE
 8
DIM
 62
0
 10
0
 20
-35.038007
 11
48.976046
 21
-35.038007
 0
LINE
 8
DIM
 62
0
 10
48.976046
 20
-35.038007
 11
48.976046
 21
0
 0
LINE
 8
DIM
 62
0
 10
48.976046
 20
0
 11
0
 21
0
 0
LINE
 8
DIM
 62
0
 10
24.488023
 20
0
 11
24.488023
 21
-35.038007
 0
LINE
 8
DIM
 62
0
 10
0
 20
-7.007601
 11
48.976046
 21
-7.007601
 0
LINE
 8
DIM
 62
0
 10
0
 20
-14.015203
 11
48.976046
 21
-14.015203
 0
LINE
 8
DIM
 62
0
 10
0
 20
-21.022804
 11
48.976046
 21
-21.022804
 0
LINE
 8
DIM
 62
0
 10
0
 20
-28.030406
 11
48.976046
 21
-28.030406
 0
TEXT
 8
DIM
 62
0
 10
9.310331
 20
-1.693531
 40
3.5
 1
BH
 11
9.310331
 21
-1.693531
 7
SLDTEXTSTYLE1
 41
0.75
 73
3
 0
TEXT
 8
DIM
 62
0
 10
35.13759
 20
-1.693531
 40
3.5
 1
H
 11
35.13759
 21
-1.693531
 7
SLDTEXTSTYLE1
 41
0.75
 73
3
 0
TEXT
 8
DIM
 62
0
 10
7.071789
 20
-8.701132
 40
3.5
 1
1600
 11
7.071789
 21
-8.701132
 7
SLDTEXTSTYLE1
 41
0.75
 73
3
 0
TEXT
 8
DIM
 62
0
 10
31.559812
 20
-8.701132
 40
3.5
 1
1620
 11
31.559812
 21
-8.701132
 7
SLDTEXTSTYLE1
 41
0.75
 73
3
 0
TEXT
 8
DIM
 62
0
 10
7.071789
 20
-15.708733
 40
3.5
 1
1800
 11
7.071789
 21
-15.708733
 7
SLDTEXTSTYLE1
 41
0.75
 73
3
 0
TEXT
 8
DIM
 62
0
 10
31.559812
 20
-15.708733
 40
3.5
 1
1820
 11
31.559812
 21
-15.708733
 7
SLDTEXTSTYLE1
 41
0.75
 73
3
 0
TEXT
 8
DIM
 62
0
 10
7.071789
 20
-22.716335
 40
3.5
 1
2000
 11
7.071789
 21
-22.716335
 7
SLDTEXTSTYLE1
 41
0.75
 73
3
 0
TEXT
 8
DIM
 62
0
 10
31.559812
 20
-22.716335
 40
3.5
 1
2020
 11
31.559812
 21
-22.716335
 7
SLDTEXTSTYLE1
 41
0.75
 73
3
 0
TEXT
 8
DIM
 62
0
 10
7.071789
 20
-29.723936
 40
3.5
 1
2200
 11
7.071789
 21
-29.723936
 7
SLDTEXTSTYLE1
 41
0.75
 73
3
 0
TEXT
 8
DIM
 62
0
 10
31.559812
 20
-29.723936
 40
3.5
 1
2220
 11
31.559812
 21
-29.723936
 7
SLDTEXTSTYLE1
 41
0.75
 73
3
 0
ENDBLK
 0
BLOCK
 70
65
 2
SW_TABLEANNOTATION_1
 10
0
 20
0
 0
LINE
 8
DIM
 62
0
 10
0
 20
0
 11
0
 21
-47.91569
 0
LINE
 8
DIM
 62
0
 10
0
 20
-47.91569
 11
61.081231
 21
-47.91569
 0
LINE
 8
DIM
 62
0
 10
61.081231
 20
-47.91569
 11
61.081231
 21
0
 0
LINE
 8
DIM
 62
0
 10
61.081231
 20
0
 11
0
 21
0
 0
LINE
 8
DIM
 62
0
 10
15.270308
 20
0
 11
15.270308
 21
-47.91569
 0
LINE
 8
DIM
 62
0
 10
30.540616
 20
0
 11
30.540616
 21
-47.91569
 0
LINE
 8
DIM
 62
0
 10
45.810924
 20
0
 11
45.810924
 21
-47.91569
 0
LINE
 8
DIM
 62
0
 10
0
 20
-7.985948
 11
61.081231
 21
-7.985948
 0
LINE
 8
DIM
 62
0
 10
0
 20
-15.971897
 11
61.081231
 21
-15.971897
 0
LINE
 8
DIM
 62
0
 10
0
 20
-23.957845
 11
61.081231
 21
-23.957845
 0
LINE
 8
DIM
 62
0
 10
0
 20
-31.943793
 11
61.081231
 21
-31.943793
 0
LINE
 8
DIM
 62
0
 10
0
 20
-39.929742
 11
61.081231
 21
-39.929742
 0
TEXT
 8
DIM
 62
0
 10
5.219182
 20
-2.182704
 40
3.5
 1
BL
 11
5.219182
 21
-2.182704
 7
SLDTEXTSTYLE1
 41
0.75
 73
3
 0
TEXT
 8
DIM
 62
0
 10
21.179767
 20
-2.182704
 40
3.5
 1
A
 11
21.179767
 21
-2.182704
 7
SLDTEXTSTYLE1
 41
0.75
 73
3
 0
TEXT
 8
DIM
 62
0
 10
36.836533
 20
-2.182704
 40
3.5
 1
B
 11
36.836533
 21
-2.182704
 7
SLDTEXTSTYLE1
 41
0.75
 73
3
 0
TEXT
 8
DIM
 62
0
 10
51.550244
 20
-2.182704
 40
3.5
 1
C
 11
51.550244
 21
-2.182704
 7
SLDTEXTSTYLE1
 41
0.75
 73
3
 0
TEXT
 8
DIM
 62
0
 10
3.755987
 20
-10.168652
 40
3.5
 1
300
 11
3.755987
 21
-10.168652
 7
SLDTEXTSTYLE1
 41
0.75
 73
3
 0
TEXT
 8
DIM
 62
0
 10
19.026295
 20
-10.168652
 40
3.5
 1
427
 11
19.026295
 21
-10.168652
 7
SLDTEXTSTYLE1
 41
0.75
 73
3
 0
TEXT
 8
DIM
 62
0
 10
34.296603
 20
-10.168652
 40
3.5
 1
305
 11
34.296603
 21
-10.168652
 7
SLDTEXTSTYLE1
 41
0.75
 73
3
 0
TEXT
 8
DIM
 62
0
 10
49.566911
 20
-10.168652
 40
3.5
 1
309
 11
49.566911
 21
-10.168652
 7
SLDTEXTSTYLE1
 41
0.75
 73
3
 0
TEXT
 8
DIM
 62
0
 10
3.755987
 20
-18.154601
 40
3.5
 1
400
 11
3.755987
 21
-18.154601
 7
SLDTEXTSTYLE1
 41
0.75
 73
3
 0
TEXT
 8
DIM
 62
0
 10
19.026295
 20
-18.154601
 40
3.5
 1
527
 11
19.026295
 21
-18.154601
 7
SLDTEXTSTYLE1
 41
0.75
 73
3
 0
TEXT
 8
DIM
 62
0
 10
34.296603
 20
-18.154601
 40
3.5
 1
405
 11
34.296603
 21
-18.154601
 7
SLDTEXTSTYLE1
 41
0.75
 73
3
 0
TEXT
 8
DIM
 62
0
 10
49.566911
 20
-18.154601
 40
3.5
 1
409
 11
49.566911
 21
-18.154601
 7
SLDTEXTSTYLE1
 41
0.75
 73
3
 0
TEXT
 8
DIM
 62
0
 10
3.755987
 20
-26.140549
 40
3.5
 1
500
 11
3.755987
 21
-26.140549
 7
SLDTEXTSTYLE1
 41
0.75
 73
3
 0
TEXT
 8
DIM
 62
0
 10
19.026295
 20
-26.140549
 40
3.5
 1
627
 11
19.026295
 21
-26.140549
 7
SLDTEXTSTYLE1
 41
0.75
 73
3
 0
TEXT
 8
DIM
 62
0
 10
34.296603
 20
-26.140549
 40
3.5
 1
505
 11
34.296603
 21
-26.140549
 7
SLDTEXTSTYLE1
 41
0.75
 73
3
 0
TEXT
 8
DIM
 62
0
 10
49.566911
 20
-26.140549
 40
3.5
 1
509
 11
49.566911
 21
-26.140549
 7
SLDTEXTSTYLE1
 41
0.75
 73
3
 0
TEXT
 8
DIM
 62
0
 10
3.755987
 20
-34.126497
 40
3.5
 1
600
 11
3.755987
 21
-34.126497
 7
SLDTEXTSTYLE1
 41
0.75
 73
3
 0
TEXT
 8
DIM
 62
0
 10
19.026295
 20
-34.126497
 40
3.5
 1
727
 11
19.026295
 21
-34.126497
 7
SLDTEXTSTYLE1
 41
0.75
 73
3
 0
TEXT
 8
DIM
 62
0
 10
34.296603
 20
-34.126497
 40
3.5
 1
605
 11
34.296603
 21
-34.126497
 7
SLDTEXTSTYLE1
 41
0.75
 73
3
 0
TEXT
 8
DIM
 62
0
 10
49.566911
 20
-34.126497
 40
3.5
 1
609
 11
49.566911
 21
-34.126497
 7
SLDTEXTSTYLE1
 41
0.75
 73
3
 0
TEXT
 8
DIM
 62
0
 10
3.755987
 20
-42.112446
 40
3.5
 1
700
 11
3.755987
 21
-42.112446
 7
SLDTEXTSTYLE1
 41
0.75
 73
3
 0
TEXT
 8
DIM
 62
0
 10
19.026295
 20
-42.112446
 40
3.5
 1
827
 11
19.026295
 21
-42.112446
 7
SLDTEXTSTYLE1
 41
0.75
 73
3
 0
TEXT
 8
DIM
 62
0
 10
34.296603
 20
-42.112446
 40
3.5
 1
705
 11
34.296603
 21
-42.112446
 7
SLDTEXTSTYLE1
 41
0.75
 73
3
 0
TEXT
 8
DIM
 62
0
 10
49.566911
 20
-42.112446
 40
3.5
 1
709
 11
49.566911
 21
-42.112446
 7
SLDTEXTSTYLE1
 41
0.75
 73
3
 0
ENDBLK
 0
BLOCK
 70
65
 2
SW_TABLEANNOTATION_2
 10
0
 20
0
 0
LINE
 8
DIM
 62
0
 10
0
 20
0
 11
0
 21
-10.472017
 0
LINE
 8
DIM
 62
0
 10
0
 20
-10.472017
 11
188.822283
 21
-10.472017
 0
LINE
 8
DIM
 62
0
 10
188.822283
 20
-10.472017
 11
188.822283
 21
0
 0
LINE
 8
DIM
 62
0
 10
188.822283
 20
0
 11
0
 21
0
 0
LINE
 8
DIM
 62
0
 10
9.513473
 20
0
 11
9.513473
 21
-5.18155
 0
LINE
 8
DIM
 62
0
 10
150.366511
 20
0
 11
150.366511
 21
-5.18155
 0
LINE
 8
DIM
 62
0
 10
171.051925
 20
0
 11
171.051925
 21
-5.18155
 0
LINE
 8
DIM
 62
0
 10
9.513473
 20
-5.18155
 11
9.513473
 21
-10.472017
 0
LINE
 8
DIM
 62
0
 10
150.366511
 20
-5.18155
 11
150.366511
 21
-10.472017
 0
LINE
 8
DIM
 62
0
 10
171.051925
 20
-5.18155
 11
171.051925
 21
-10.472017
 0
LINE
 8
DIM
 62
0
 10
0
 20
-5.18155
 11
188.822283
 21
-5.18155
 0
TEXT
 8
DIM
 62
0
 10
0.53
 20
-0.341885
 40
3.5
 1
Rev
 11
0.53
 21
-0.341885
 7
SLDTEXTSTYLE1
 41
0.75
 73
3
 0
TEXT
 8
DIM
 62
0
 10
65.492767
 20
-0.341885
 40
3.5
 1
Omschrijving
 11
65.492767
 21
-0.341885
 7
SLDTEXTSTYLE1
 41
0.75
 73
3
 0
TEXT
 8
DIM
 62
0
 10
156.589426
 20
-0.341885
 40
3.5
 1
Dat
 11
156.589426
 21
-0.341885
 7
SLDTEXTSTYLE1
 41
0.75
 73
3
 0
TEXT
 8
DIM
 62
0
 10
175.596131
 20
-0.341885
 40
3.5
 1
Get
 11
175.596131
 21
-0.341885
 7
SLDTEXTSTYLE1
 41
0.75
 73
3
 0
TEXT
 8
DIM
 62
0
 10
3.192755
 20
-6.509368
 40
2.116667
 1
01
 11
3.192755
 21
-6.509368
 7
SLDTEXTSTYLE1
 41
0.75
 73
3
 0
TEXT
 8
DIM
 62
0
 10
60.023727
 20
-6.509368
 40
2.116667
 1
Positionering gaten gewijzigd
 11
60.023727
 21
-6.509368
 7
SLDTEXTSTYLE1
 41
0.75
 73
3
 0
TEXT
 8
DIM
 62
0
 10
153.516472
 20
-6.509368
 40
2.116667
 1
04-07-2012
 11
153.516472
 21
-6.509368
 7
SLDTEXTSTYLE1
 41
0.75
 73
3
 0
TEXT
 8
DIM
 62
0
 10
177.444141
 20
-6.509368
 40
2.116667
 1
DtH
 11
177.444141
 21
-6.509368
 7
SLDTEXTSTYLE1
 41
0.75
 73
3
 0
ENDBLK
 0
BLOCK
 70
65
 2
SW_BROKEN_VIEW_0
 10
0
 20
0
 0
ENDBLK
 0
BLOCK
 70
65
 2
SW_NOTE_8
 10
0
 20
0
 0
CIRCLE
 8
DIM
 62
0
 10
3.019273
 20
2.976623
 40
3.973389
 0
TEXT
 8
DIM
 62
0
 10
3
 20
5.156271
 40
4
 1
01
 11
3
 21
5.156271
 7
SLDTEXTSTYLE0
 41
0.605
 72
1
 73
3
 0
ENDBLK
 0
BLOCK
 70
65
 2
SW_NOTE_9
 10
0
 20
0
 0
CIRCLE
 8
DIM
 62
0
 10
3.019273
 20
2.981977
 40
4.004628
 0
TEXT
 8
DIM
 62
0
 10
3
 20
5.156271
 40
4
 1
01
 11
3
 21
5.156271
 7
SLDTEXTSTYLE0
 41
0.605
 72
1
 73
3
 0
ENDBLK
 0
BLOCK
 70
65
 2
SW_NOTE_10
 10
0
 20
0
 0
TEXT
 8
DIM
 62
0
 10
8.0625
 20
3.867203
 40
3
 1
DETAIL A
 11
8.0625
 21
3.867203
 7
SLDTEXTSTYLE1
 41
0.75
 72
1
 73
3
 0
TEXT
 8
DIM
 62
0
 10
8.590625
 20
-0.132797
 40
3
 1
SCALE 1 : 2
 11
8.590625
 21
-0.132797
 7
SLDTEXTSTYLE3
 41
0.681818
 72
1
 73
3
 0
ENDBLK
 0
ENDTAB
 0
ENDSEC
 0
SECTION
 2
ENTITIES
 0
LINE
 8
KADER
 62
7
 10
415
 20
284.010649
 11
13.004662
 21
284.010649
 0
LINE
 8
KADER
 62
7
 10
13.004662
 20
284.010649
 11
13.004662
 21
5
 0
LINE
 8
KADER
 62
7
 10
13.004662
 20
5
 11
415
 21
5
 0
LINE
 8
KADER
 62
7
 10
415
 20
5
 11
415
 21
284.010649
 0
INSERT
 8
TEKST
 2
COPYRIGHT_REGEL_1_1
 10
13.0046620528
 20
5
 41
1
 42
1
 50
0
 0
INSERT
 8
DIM
 2
SW_NOTE_2
 10
22.3276419278
 20
26.7071925005
 41
1
 42
1
 50
0
 0
INSERT
 8
DIM
 2
SW_TABLEANNOTATION_0
 10
171.9450305604
 20
169.6328185775
 41
1
 42
1
 50
0
 0
INSERT
 8
DIM
 2
SW_TABLEANNOTATION_1
 10
171.7670850418
 20
120.6234134881
 41
1
 42
1
 50
0
 0
INSERT
 8
DIM
 2
SW_TABLEANNOTATION_2
 10
226.1777173793
 20
284.0106492839
 41
1
 42
1
 50
0
 0
INSERT
 8
0
 2
SW_BROKEN_VIEW_0
 10
0
 20
0
 41
1
 42
1
 50
0
 0
LINE
 8
0
 62
7
 10
137.479323
 20
165.139777
 11
137.479323
 21
204.336361
 0
LINE
 8
0
 62
7
 10
32.041553
 20
204.336361
 11
32.041553
 21
164.650315
 0
ARC
 8
0
 62
7
 10
125.685812
 20
203.938209
 40
0.398157
 50
90.269832
 51
180.266799
 0
LINE
 8
0
 62
7
 10
125.683937
 20
204.336361
 11
127.269048
 21
204.336361
 0
LINE
 8
0
 62
7
 10
125.287659
 20
166.079515
 11
125.287659
 21
203.936355
 0
CIRCLE
 8
0
 62
7
 10
126.672024
 20
199.03382
 40
0.418104
 0
CIRCLE
 8
0
 62
7
 10
126.672035
 20
191.433835
 40
0.418102
 0
ARC
 8
0
 62
7
 10
125.658597
 20
203.938203
 40
0.398163
 50
90.270677
 51
180.265953
 0
LINE
 8
0
 62
7
 10
125.656716
 20
204.336361
 11
125.683937
 21
204.336361
 0
LINE
 8
0
 62
7
 10
125.260438
 20
166.081616
 11
125.260438
 21
203.936355
 0
LINE
 8
0
 62
7
 10
43.86416
 20
204.336361
 11
43.836939
 21
204.336361
 0
ARC
 8
0
 62
7
 10
43.862279
 20
203.938203
 40
0.398163
 50
-0.265953
 51
89.729323
 0
ARC
 8
0
 62
7
 10
43.835064
 20
203.938209
 40
0.398157
 50
-0.266799
 51
89.730168
 0
LINE
 8
0
 62
7
 10
42.251828
 20
204.336361
 11
43.836939
 21
204.336361
 0
LINE
 8
0
 62
7
 10
44.233217
 20
163.710577
 11
44.233217
 21
203.936355
 0
CIRCLE
 8
0
 62
7
 10
42.843638
 20
199.03382
 40
0.418104
 0
CIRCLE
 8
0
 62
7
 10
42.843649
 20
191.433835
 40
0.418102
 0
LINE
 8
0
 62
7
 10
44.260438
 20
163.708479
 11
44.260438
 21
203.936355
 0
ARC
 8
0
 62
7
 10
126.644121
 20
199.036361
 40
0.420117
 50
-87.655978
 51
87.655978
 0
ARC
 8
0
 62
7
 10
126.644123
 20
191.436367
 40
0.420116
 50
-87.659713
 51
87.659204
 0
ARC
 8
0
 62
7
 10
42.875552
 20
191.438255
 40
0.418182
 50
92.18692
 51
180.259799
 0
ARC
 8
0
 62
7
 10
42.87552
 20
191.434447
 40
0.418149
 50
179.737968
 51
267.817876
 0
ARC
 8
0
 62
7
 10
42.875538
 20
199.038265
 40
0.418167
 50
92.188028
 51
180.261872
 0
ARC
 8
0
 62
7
 10
42.875528
 20
199.034448
 40
0.418158
 50
179.738966
 51
267.813166
 0
LINE
 8
0
 62
7
 10
127.269048
 20
204.336361
 11
137.479323
 21
204.336361
 0
LINE
 8
0
 62
7
 10
32.041553
 20
204.336361
 11
42.251828
 21
204.336361
 0
LINE
 8
0
 62
7
 10
43.86416
 20
204.336361
 11
125.656716
 21
204.336361
 0
ARC
 8
0
 62
7
 10
126.64873
 20
199.038894
 40
0.417422
 50
88.273865
 51
180.348728
 0
ARC
 8
0
 62
7
 10
126.64893
 20
199.034032
 40
0.41762
 50
179.681519
 51
271.697922
 0
ARC
 8
0
 62
7
 10
126.648736
 20
191.438893
 40
0.417427
 50
88.277714
 51
180.347856
 0
ARC
 8
0
 62
7
 10
126.648914
 20
191.434023
 40
0.417605
 50
179.679459
 51
271.696508
 0
ARC
 8
0
 62
7
 10
42.871284
 20
191.436366
 40
0.419928
 50
-91.594647
 51
91.595156
 0
ARC
 8
0
 62
7
 10
42.871294
 20
199.036361
 40
0.419929
 50
-91.599538
 51
91.599538
 0
LINE
 8
0
 62
7
 10
126.674629
 20
199.45635
 11
126.647412
 21
199.45635
 0
LINE
 8
0
 62
7
 10
126.647412
 20
198.616357
 11
126.674629
 21
198.616357
 0
LINE
 8
0
 62
7
 10
126.674629
 20
191.856356
 11
126.647412
 21
191.856356
 0
LINE
 8
0
 62
7
 10
126.647412
 20
191.016362
 11
126.674629
 21
191.016362
 0
LINE
 8
0
 62
7
 10
42.846247
 20
191.016362
 11
42.873464
 21
191.016362
 0
LINE
 8
0
 62
7
 10
42.873464
 20
191.856356
 11
42.846247
 21
191.856356
 0
LINE
 8
0
 62
7
 10
42.846247
 20
198.616357
 11
42.873464
 21
198.616357
 0
LINE
 8
0
 62
7
 10
42.873464
 20
199.45635
 11
42.846247
 21
199.45635
 0
LINE
 8
0
 62
7
 10
32.241552
 20
204.336361
 11
32.241552
 21
164.634903
 0
LINE
 8
0
 62
7
 10
137.279324
 20
165.155203
 11
137.279324
 21
204.336361
 0
LINE
 8
0
 62
7
 10
137.479323
 20
72.262001
 11
137.479323
 21
160.139782
 0
LINE
 8
0
 62
7
 10
32.041553
 20
159.650323
 11
32.041553
 21
71.772543
 0
LINE
 8
0
 62
7
 10
125.287659
 20
73.201739
 11
125.287659
 21
161.07952
 0
CIRCLE
 8
0
 62
7
 10
126.672033
 20
118.657207
 40
0.418104
 0
CIRCLE
 8
0
 62
7
 10
126.672033
 20
111.057206
 40
0.418104
 0
LINE
 8
0
 62
7
 10
125.260438
 20
73.203837
 11
125.260438
 21
161.081617
 0
LINE
 8
0
 62
7
 10
44.233217
 20
70.832801
 11
44.233217
 21
158.710582
 0
CIRCLE
 8
0
 62
7
 10
42.843647
 20
118.657207
 40
0.418104
 0
CIRCLE
 8
0
 62
7
 10
42.843647
 20
111.057206
 40
0.418104
 0
LINE
 8
0
 62
7
 10
44.260438
 20
70.830704
 11
44.260438
 21
158.708484
 0
ARC
 8
0
 62
7
 10
126.644122
 20
118.659727
 40
0.420115
 50
-87.694689
 51
87.694689
 0
ARC
 8
0
 62
7
 10
126.644122
 20
111.059727
 40
0.420115
 50
-87.694681
 51
87.694681
 0
ARC
 8
0
 62
7
 10
42.875536
 20
118.661631
 40
0.418165
 50
92.149021
 51
180.26085
 0
ARC
 8
0
 62
7
 10
42.875536
 20
118.657824
 40
0.418166
 50
179.739124
 51
267.850941
 0
ARC
 8
0
 62
7
 10
42.875536
 20
111.061631
 40
0.418166
 50
92.149055
 51
180.260865
 0
ARC
 8
0
 62
7
 10
42.875536
 20
111.057823
 40
0.418166
 50
179.739118
 51
267.850947
 0
ARC
 8
0
 62
7
 10
126.648628
 20
118.662366
 40
0.417321
 50
88.29836
 51
180.362215
 0
ARC
 8
0
 62
7
 10
126.648976
 20
118.657445
 40
0.417666
 50
179.686839
 51
271.652523
 0
ARC
 8
0
 62
7
 10
126.648631
 20
111.062363
 40
0.417323
 50
88.298711
 51
180.361911
 0
ARC
 8
0
 62
7
 10
126.648981
 20
111.057449
 40
0.417671
 50
179.687493
 51
271.651869
 0
ARC
 8
0
 62
7
 10
42.871285
 20
118.659727
 40
0.419931
 50
-91.559596
 51
91.559596
 0
ARC
 8
0
 62
7
 10
42.871284
 20
111.059727
 40
0.419931
 50
-91.559572
 51
91.559572
 0
LINE
 8
0
 62
7
 10
126.674629
 20
119.079727
 11
126.647412
 21
119.079727
 0
LINE
 8
0
 62
7
 10
126.647412
 20
118.239727
 11
126.674629
 21
118.239727
 0
LINE
 8
0
 62
7
 10
126.674629
 20
111.479727
 11
126.647412
 21
111.479727
 0
LINE
 8
0
 62
7
 10
126.647412
 20
110.639727
 11
126.674629
 21
110.639727
 0
LINE
 8
0
 62
7
 10
42.846247
 20
118.239727
 11
42.873464
 21
118.239727
 0
LINE
 8
0
 62
7
 10
42.873464
 20
119.079727
 11
42.846247
 21
119.079727
 0
LINE
 8
0
 62
7
 10
42.846247
 20
110.639727
 11
42.873464
 21
110.639727
 0
LINE
 8
0
 62
7
 10
42.873464
 20
111.479727
 11
42.846247
 21
111.479727
 0
LINE
 8
0
 62
7
 10
32.241552
 20
159.634904
 11
32.241552
 21
71.757124
 0
LINE
 8
0
 62
7
 10
137.279324
 20
72.277417
 11
137.279324
 21
160.155197
 0
LINE
 8
0
 62
7
 10
137.479323
 20
21.646069
 11
137.479323
 21
67.262003
 0
LINE
 8
0
 62
7
 10
32.041553
 20
66.77254
 11
32.041553
 21
21.646069
 0
LINE
 8
0
 62
7
 10
125.683937
 20
21.646069
 11
127.269048
 21
21.646069
 0
ARC
 8
0
 62
7
 10
125.685812
 20
22.044221
 40
0.398157
 50
179.733201
 51
269.730168
 0
LINE
 8
0
 62
7
 10
125.287659
 20
22.046075
 11
125.287659
 21
68.201741
 0
CIRCLE
 8
0
 62
7
 10
126.672033
 20
33.343558
 40
0.418105
 0
CIRCLE
 8
0
 62
7
 10
126.672028
 20
25.743544
 40
0.418105
 0
LINE
 8
0
 62
7
 10
125.656716
 20
21.646069
 11
125.683937
 21
21.646069
 0
ARC
 8
0
 62
7
 10
125.658597
 20
22.044227
 40
0.398163
 50
179.734047
 51
269.729323
 0
LINE
 8
0
 62
7
 10
125.260438
 20
22.046075
 11
125.260438
 21
68.203838
 0
ARC
 8
0
 62
7
 10
43.862279
 20
22.044227
 40
0.398163
 50
-89.729323
 51
0.265953
 0
LINE
 8
0
 62
7
 10
43.86416
 20
21.646069
 11
43.836939
 21
21.646069
 0
ARC
 8
0
 62
7
 10
43.835064
 20
22.044221
 40
0.398157
 50
-89.730168
 51
0.266799
 0
LINE
 8
0
 62
7
 10
44.233217
 20
22.046075
 11
44.233217
 21
65.832802
 0
LINE
 8
0
 62
7
 10
42.251828
 20
21.646069
 11
43.836939
 21
21.646069
 0
CIRCLE
 8
0
 62
7
 10
42.843647
 20
33.343558
 40
0.418105
 0
CIRCLE
 8
0
 62
7
 10
42.843642
 20
25.743544
 40
0.418105
 0
LINE
 8
0
 62
7
 10
44.260438
 20
22.046075
 11
44.260438
 21
65.830701
 0
ARC
 8
0
 62
7
 10
126.644119
 20
25.746071
 40
0.420117
 50
-87.656169
 51
87.656677
 0
ARC
 8
0
 62
7
 10
126.644242
 20
33.346073
 40
0.420016
 50
-89.567508
 51
89.567508
 0
ARC
 8
0
 62
7
 10
42.875537
 20
25.747975
 40
0.418166
 50
92.186927
 51
180.261913
 0
ARC
 8
0
 62
7
 10
42.875533
 20
25.744163
 40
0.418162
 50
179.73954
 51
267.813123
 0
ARC
 8
0
 62
7
 10
42.875543
 20
33.34797
 40
0.418173
 50
92.184719
 51
180.259924
 0
ARC
 8
0
 62
7
 10
42.875535
 20
33.344168
 40
0.418164
 50
179.738979
 51
267.816379
 0
LINE
 8
0
 62
7
 10
137.479323
 20
21.646069
 11
127.269048
 21
21.646069
 0
LINE
 8
0
 62
7
 10
42.251828
 20
21.646069
 11
32.041553
 21
21.646069
 0
LINE
 8
0
 62
7
 10
43.86416
 20
21.646069
 11
125.656716
 21
21.646069
 0
ARC
 8
0
 62
7
 10
126.648581
 20
25.748757
 40
0.417274
 50
88.253797
 51
180.369788
 0
ARC
 8
0
 62
7
 10
126.648932
 20
25.743745
 40
0.417623
 50
179.681913
 51
271.697032
 0
ARC
 8
0
 62
7
 10
126.649392
 20
33.348002
 40
0.41808
 50
90.271283
 51
180.2643
 0
ARC
 8
0
 62
7
 10
126.649384
 20
33.344137
 40
0.418073
 50
179.734678
 51
269.729739
 0
ARC
 8
0
 62
7
 10
42.871294
 20
25.746071
 40
0.419929
 50
-91.599072
 51
91.598564
 0
ARC
 8
0
 62
7
 10
42.87129
 20
33.346073
 40
0.419928
 50
-91.594941
 51
91.594941
 0
LINE
 8
0
 62
7
 10
126.674629
 20
26.166075
 11
126.647412
 21
26.166075
 0
LINE
 8
0
 62
7
 10
126.647412
 20
25.326067
 11
126.674629
 21
25.326067
 0
LINE
 8
0
 62
7
 10
126.674629
 20
33.766077
 11
126.647412
 21
33.766077
 0
LINE
 8
0
 62
7
 10
126.647412
 20
32.926069
 11
126.674629
 21
32.926069
 0
LINE
 8
0
 62
7
 10
42.846247
 20
25.326067
 11
42.873464
 21
25.326067
 0
LINE
 8
0
 62
7
 10
42.873464
 20
26.166075
 11
42.846247
 21
26.166075
 0
LINE
 8
0
 62
7
 10
42.846247
 20
32.926069
 11
42.873464
 21
32.926069
 0
LINE
 8
0
 62
7
 10
42.873464
 20
33.766077
 11
42.846247
 21
33.766077
 0
LINE
 8
0
 62
7
 10
32.241552
 20
66.757125
 11
32.241552
 21
21.646069
 0
LINE
 8
0
 62
7
 10
137.279324
 20
21.646069
 11
137.279324
 21
67.277414
 0
INSERT
 8
DIM
 2
SW_NOTE_8
 10
21.4498384921
 20
191.8974700542
 41
1
 42
1
 50
0
 0
INSERT
 8
DIM
 2
SW_NOTE_9
 10
21.4498384921
 20
111.8245483566
 41
1
 42
1
 50
0
 0
LINE
 8
0
 62
7
 10
140.654324
 20
67.017271
 11
114.707381
 21
69.017271
 0
LINE
 8
0
 62
7
 10
114.707381
 20
69.017271
 11
110.707381
 21
65.017271
 0
LINE
 8
0
 62
7
 10
110.707381
 20
65.017271
 11
58.813495
 21
69.017271
 0
LINE
 8
0
 62
7
 10
58.813495
 20
69.017271
 11
54.813495
 21
65.017271
 0
LINE
 8
0
 62
7
 10
54.813495
 20
65.017271
 11
28.866552
 21
67.017271
 0
LINE
 8
0
 62
7
 10
140.654324
 20
72.017271
 11
114.707381
 21
74.017271
 0
LINE
 8
0
 62
7
 10
114.707381
 20
74.017271
 11
110.707381
 21
70.017271
 0
LINE
 8
0
 62
7
 10
110.707381
 20
70.017271
 11
58.813495
 21
74.017271
 0
LINE
 8
0
 62
7
 10
58.813495
 20
74.017271
 11
54.813495
 21
70.017271
 0
LINE
 8
0
 62
7
 10
54.813495
 20
70.017271
 11
28.866552
 21
72.017271
 0
LINE
 8
0
 62
7
 10
140.654324
 20
159.895051
 11
114.707381
 21
161.895051
 0
LINE
 8
0
 62
7
 10
114.707381
 20
161.895051
 11
110.707381
 21
157.895051
 0
LINE
 8
0
 62
7
 10
110.707381
 20
157.895051
 11
58.813495
 21
161.895051
 0
LINE
 8
0
 62
7
 10
58.813495
 20
161.895051
 11
54.813495
 21
157.895051
 0
LINE
 8
0
 62
7
 10
54.813495
 20
157.895051
 11
28.866552
 21
159.895051
 0
LINE
 8
0
 62
7
 10
140.654324
 20
164.895051
 11
114.707381
 21
166.895051
 0
LINE
 8
0
 62
7
 10
114.707381
 20
166.895051
 11
110.707381
 21
162.895051
 0
LINE
 8
0
 62
7
 10
110.707381
 20
162.895051
 11
58.813495
 21
166.895051
 0
LINE
 8
0
 62
7
 10
58.813495
 20
166.895051
 11
54.813495
 21
162.895051
 0
LINE
 8
0
 62
7
 10
54.813495
 20
162.895051
 11
28.866552
 21
164.895051
 0
LINE
 8
0
 62
7
 10
43.860437
 20
257.453481
 11
125.660439
 21
257.453481
 0
LINE
 8
0
 62
7
 10
125.660439
 20
257.653481
 11
43.860437
 21
257.653481
 0
ARC
 8
0
 62
7
 10
125.660438
 20
245.834595
 40
11.618886
 50
-82.177477
 51
90
 0
ARC
 8
0
 62
7
 10
125.660438
 20
245.834595
 40
11.818886
 50
-82.177477
 51
90
 0
ARC
 8
0
 62
7
 10
43.860438
 20
245.834595
 40
11.618886
 50
90
 51
262.177477
 0
ARC
 8
0
 62
7
 10
43.860438
 20
245.834595
 40
11.818886
 50
90
 51
262.177477
 0
LINE
 8
0
 62
7
 10
125.260438
 20
234.05162
 11
125.28766
 21
233.85348
 0
POLYLINE
 8
0
 62
7
 66
1
 10
0
 20
0
 70
0
 0
VERTEX
 8
0
 10
125.260438
 20
234.05162
 0
VERTEX
 8
0
 10
125.268053
 20
234.052666
 0
VERTEX
 8
0
 10
125.290604
 20
234.055764
 0
VERTEX
 8
0
 10
125.327222
 20
234.060794
 0
VERTEX
 8
0
 10
125.376506
 20
234.067565
 0
VERTEX
 8
0
 10
125.436555
 20
234.075816
 0
VERTEX
 8
0
 10
125.505068
 20
234.085228
 0
VERTEX
 8
0
 10
125.579406
 20
234.095441
 0
VERTEX
 8
0
 10
125.656717
 20
234.106062 
 0
SEQEND
 8
0
 0
POLYLINE
 8
0
 62
7
 66
1
 10
0
 20
0
 70
0
 0
VERTEX
 8
0
 10
125.683938
 20
233.907923
 0
VERTEX
 8
0
 10
125.606628
 20
233.897302
 0
VERTEX
 8
0
 10
125.532289
 20
233.887088
 0
VERTEX
 8
0
 10
125.463776
 20
233.877677
 0
VERTEX
 8
0
 10
125.403725
 20
233.869426
 0
VERTEX
 8
0
 10
125.354444
 20
233.862656
 0
VERTEX
 8
0
 10
125.317823
 20
233.857624
 0
VERTEX
 8
0
 10
125.295274
 20
233.854526
 0
VERTEX
 8
0
 10
125.28766
 20
233.85348 
 0
SEQEND
 8
0
 0
LINE
 8
0
 62
7
 10
127.241828
 20
234.32383
 11
125.656717
 21
234.106062
 0
LINE
 8
0
 62
7
 10
125.683938
 20
233.907923
 11
127.269049
 21
234.12569
 0
POLYLINE
 8
0
 62
7
 66
1
 10
0
 20
0
 70
0
 0
VERTEX
 8
0
 10
43.864159
 20
234.106062
 0
VERTEX
 8
0
 10
43.94147
 20
234.095441
 0
VERTEX
 8
0
 10
44.015809
 20
234.085228
 0
VERTEX
 8
0
 10
44.084321
 20
234.075816
 0
VERTEX
 8
0
 10
44.14437
 20
234.067565
 0
VERTEX
 8
0
 10
44.193654
 20
234.060794
 0
VERTEX
 8
0
 10
44.230272
 20
234.055764
 0
VERTEX
 8
0
 10
44.252823
 20
234.052666
 0
VERTEX
 8
0
 10
44.260438
 20
234.05162 
 0
SEQEND
 8
0
 0
LINE
 8
0
 62
7
 10
44.260438
 20
234.05162
 11
44.233217
 21
233.85348
 0
POLYLINE
 8
0
 62
7
 66
1
 10
0
 20
0
 70
0
 0
VERTEX
 8
0
 10
44.233217
 20
233.85348
 0
VERTEX
 8
0
 10
44.225602
 20
233.854526
 0
VERTEX
 8
0
 10
44.203054
 20
233.857624
 0
VERTEX
 8
0
 10
44.166432
 20
233.862656
 0
VERTEX
 8
0
 10
44.117151
 20
233.869426
 0
VERTEX
 8
0
 10
44.0571
 20
233.877677
 0
VERTEX
 8
0
 10
43.988587
 20
233.887088
 0
VERTEX
 8
0
 10
43.914248
 20
233.897302
 0
VERTEX
 8
0
 10
43.836938
 20
233.907923 
 0
SEQEND
 8
0
 0
LINE
 8
0
 62
7
 10
42.251827
 20
234.12569
 11
43.836938
 21
233.907923
 0
LINE
 8
0
 62
7
 10
43.864159
 20
234.106062
 11
42.279048
 21
234.32383
 0
LINE
 8
0
 62
7
 10
43.860437
 20
257.453481
 11
43.860437
 21
257.653481
 0
LINE
 8
0
 62
7
 10
125.660439
 20
257.453481
 11
125.660439
 21
257.653481
 0
LINE
 8
0
 62
7
 10
127.241828
 20
234.32383
 11
127.269049
 21
234.12569
 0
LINE
 8
0
 62
7
 10
42.279048
 20
234.32383
 11
42.251827
 21
234.12569
 0
LINE
 8
0
 62
7
 10
125.656717
 20
234.106062
 11
125.683938
 21
233.907923
 0
LINE
 8
0
 62
7
 10
43.864159
 20
234.106062
 11
43.836938
 21
233.907923
 0
LINE
 8
0
 62
7
 10
127.090724
 20
234.101193
 11
127.063503
 21
234.299331
 0
LINE
 8
0
 62
7
 10
126.231317
 20
234.185003
 11
126.258539
 21
233.986864
 0
LINE
 8
0
 62
7
 10
43.262337
 20
233.986864
 11
43.289559
 21
234.185003
 0
LINE
 8
0
 62
7
 10
42.457374
 20
234.299331
 11
42.430152
 21
234.101193
 0
LINE
 8
0
 62
7
 10
43.864159
 20
234.106062
 11
43.836938
 21
233.907923
 0
LINE
 8
0
 62
7
 10
125.656717
 20
234.106062
 11
125.683938
 21
233.907923
 0
LINE
 8
0
 62
7
 10
43.860437
 20
257.453481
 11
43.860437
 21
257.653481
 0
LINE
 8
0
 62
7
 10
42.279048
 20
234.32383
 11
42.251827
 21
234.12569
 0
LINE
 8
0
 62
7
 10
125.660439
 20
257.453481
 11
125.660439
 21
257.653481
 0
LINE
 8
0
 62
7
 10
127.241828
 20
234.32383
 11
127.269049
 21
234.12569
 0
LINE
 8
0
 62
7
 10
120.3993
 20
231.123138
 11
139.066092
 21
231.123138
 0
LINE
 8
0
 62
7
 10
139.066092
 20
260.540585
 11
139.066092
 21
231.123138
 0
LINE
 8
0
 62
7
 10
120.3993
 20
260.540585
 11
139.066092
 21
260.540585
 0
LINE
 8
0
 62
7
 10
120.3993
 20
260.540585
 11
120.3993
 21
231.123138
 0
POLYLINE
 8
0
 62
7
 66
1
 10
0
 20
0
 70
0
 0
VERTEX
 8
0
 10
220.036174
 20
264.709059
 0
VERTEX
 8
0
 10
173.369194
 20
264.709059
 0
VERTEX
 8
0
 10
173.369194
 20
257.4913
 0
VERTEX
 8
0
 10
173.369194
 20
256.991301
 0
VERTEX
 8
0
 10
173.369194
 20
191.165442
 0
VERTEX
 8
0
 10
220.036174
 20
191.165442
 0
VERTEX
 8
0
 10
220.036174
 20
264.709059 
 0
SEQEND
 8
0
 0
LINE
 8
0
 62
7
 10
173.369194
 20
256.991301
 11
186.522039
 21
256.991301
 0
LINE
 8
0
 62
7
 10
186.522039
 20
257.4913
 11
173.369194
 21
257.4913
 0
ARC
 8
0
 62
7
 10
186.522041
 20
227.944086
 40
29.047215
 50
-82.17748
 51
90.000002
 0
ARC
 8
0
 62
7
 10
186.522044
 20
227.944087
 40
29.547213
 50
-82.177483
 51
90.000008
 0
LINE
 8
0
 62
7
 10
185.522037
 20
198.486647
 11
185.590091
 21
197.991299
 0
POLYLINE
 8
0
 62
7
 66
1
 10
0
 20
0
 70
0
 0
VERTEX
 8
0
 10
185.522037
 20
198.486647
 0
VERTEX
 8
0
 10
185.541074
 20
198.489262
 0
VERTEX
 8
0
 10
185.597452
 20
198.497007
 0
VERTEX
 8
0
 10
185.688998
 20
198.509587
 0
VERTEX
 8
0
 10
185.812208
 20
198.526511
 0
VERTEX
 8
0
 10
185.96233
 20
198.547138
 0
VERTEX
 8
0
 10
186.133611
 20
198.570667
 0
VERTEX
 8
0
 10
186.319458
 20
198.5962
 0
VERTEX
 8
0
 10
186.512734
 20
198.622754 
 0
SEQEND
 8
0
 0
POLYLINE
 8
0
 62
7
 66
1
 10
0
 20
0
 70
0
 0
VERTEX
 8
0
 10
186.580787
 20
198.127406
 0
VERTEX
 8
0
 10
186.387512
 20
198.100852
 0
VERTEX
 8
0
 10
186.201665
 20
198.075319
 0
VERTEX
 8
0
 10
186.030383
 20
198.05179
 0
VERTEX
 8
0
 10
185.880254
 20
198.031163
 0
VERTEX
 8
0
 10
185.757051
 20
198.014239
 0
VERTEX
 8
0
 10
185.665498
 20
198.001663
 0
VERTEX
 8
0
 10
185.609127
 20
197.993914
 0
VERTEX
 8
0
 10
185.590091
 20
197.991299 
 0
SEQEND
 8
0
 0
LINE
 8
0
 62
7
 10
190.475511
 20
199.167172
 11
186.512734
 21
198.622754
 0
LINE
 8
0
 62
7
 10
186.580787
 20
198.127406
 11
190.543565
 21
198.671827
 0
LINE
 8
0
 62
7
 10
186.522039
 20
256.991301
 11
186.522039
 21
257.4913
 0
LINE
 8
0
 62
7
 10
190.475511
 20
199.167172
 11
190.543565
 21
198.671827
 0
LINE
 8
0
 62
7
 10
186.512734
 20
198.622754
 11
186.580787
 21
198.127406
 0
LINE
 8
0
 62
7
 10
190.097752
 20
198.61058
 11
190.029698
 21
199.105924
 0
LINE
 8
0
 62
7
 10
187.949235
 20
198.820105
 11
188.017289
 21
198.324757
 0
LINE
 8
0
 62
7
 10
186.512734
 20
198.622754
 11
186.580787
 21
198.127406
 0
LINE
 8
0
 62
7
 10
186.522039
 20
256.991301
 11
186.522039
 21
257.4913
 0
LINE
 8
0
 62
7
 10
190.475511
 20
199.167172
 11
190.543565
 21
198.671827
 0
LINE
 8
DIM
 10
186.522037
 20
256.9913
 11
186.522037
 21
227.944086
 0
LINE
 8
DIM
 10
186.522037
 20
227.944086
 11
190.475509
 21
199.167173
 0
INSERT
 8
DIM
 2
SW_NOTE_10
 10
203.6617762947
 20
185.1121339755
 41
1
 42
1
 50
0
 0
LINE
 8
0
 62
7
 10
312.859104
 20
72.129477
 11
312.859104
 21
220.739904
 0
LINE
 8
0
 62
7
 10
311.094471
 20
223.189267
 11
311.014794
 21
223.154382
 0
LINE
 8
0
 62
7
 10
272.119552
 20
237.435449
 11
272.119552
 21
88.825022
 0
POLYLINE
 8
0
 62
7
 66
1
 10
0
 20
0
 70
0
 0
VERTEX
 8
0
 10
302.771055
 20
218.327645
 0
VERTEX
 8
0
 10
303.105109
 20
218.149114
 0
VERTEX
 8
0
 10
303.461976
 20
217.985959
 0
VERTEX
 8
0
 10
303.839542
 20
217.839145
 0
VERTEX
 8
0
 10
304.235562
 20
217.709545
 0
VERTEX
 8
0
 10
304.64769
 20
217.597928
 0
VERTEX
 8
0
 10
305.073477
 20
217.504957
 0
VERTEX
 8
0
 10
305.510398
 20
217.431182
 0
VERTEX
 8
0
 10
305.95586
 20
217.377041
 0
VERTEX
 8
0
 10
306.40722
 20
217.342857
 0
VERTEX
 8
0
 10
306.861797
 20
217.328832
 0
VERTEX
 8
0
 10
307.316897
 20
217.335048
 0
VERTEX
 8
0
 10
307.769818
 20
217.36147
 0
VERTEX
 8
0
 10
308.217871
 20
217.40794
 0
VERTEX
 8
0
 10
308.6584
 20
217.474182
 0
VERTEX
 8
0
 10
309.088787
 20
217.559805
 0
VERTEX
 8
0
 10
309.506481
 20
217.664298
 0
VERTEX
 8
0
 10
309.909002
 20
217.787043
 0
VERTEX
 8
0
 10
310.293961
 20
217.927311
 0
VERTEX
 8
0
 10
310.659074
 20
218.084269
 0
VERTEX
 8
0
 10
311.002177
 20
218.256986
 0
VERTEX
 8
0
 10
311.321229
 20
218.444438
 0
VERTEX
 8
0
 10
311.61434
 20
218.645511
 0
VERTEX
 8
0
 10
311.87977
 20
218.859013
 0
VERTEX
 8
0
 10
312.115944
 20
219.083677
 0
VERTEX
 8
0
 10
312.32146
 20
219.318168
 0
VERTEX
 8
0
 10
312.495098
 20
219.561097
 0
VERTEX
 8
0
 10
312.635829
 20
219.811021
 0
VERTEX
 8
0
 10
312.742816
 20
220.066457
 0
VERTEX
 8
0
 10
312.815424
 20
220.325891
 0
VERTEX
 8
0
 10
312.853226
 20
220.58778
 0
VERTEX
 8
0
 10
312.855994
 20
220.850572
 0
VERTEX
 8
0
 10
312.823713
 20
221.112707
 0
VERTEX
 8
0
 10
312.756574
 20
221.37263
 0
VERTEX
 8
0
 10
312.654975
 20
221.628799
 0
VERTEX
 8
0
 10
312.519519
 20
221.879693
 0
VERTEX
 8
0
 10
312.351011
 20
222.123822
 0
VERTEX
 8
0
 10
312.15045
 20
222.35974
 0
VERTEX
 8
0
 10
311.919026
 20
222.586045
 0
VERTEX
 8
0
 10
311.658115
 20
222.801394 
 0
SEQEND
 8
0
 0
POLYLINE
 8
0
 62
7
 66
1
 10
0
 20
0
 70
0
 0
VERTEX
 8
0
 10
312.859104
 20
72.129477
 0
VERTEX
 8
0
 10
312.853226
 20
71.977353
 0
VERTEX
 8
0
 10
312.815424
 20
71.715463
 0
VERTEX
 8
0
 10
312.742816
 20
71.45603
 0
VERTEX
 8
0
 10
312.635829
 20
71.200594
 0
VERTEX
 8
0
 10
312.495098
 20
70.95067
 0
VERTEX
 8
0
 10
312.32146
 20
70.707741
 0
VERTEX
 8
0
 10
312.115944
 20
70.47325
 0
VERTEX
 8
0
 10
311.87977
 20
70.248586
 0
VERTEX
 8
0
 10
311.61434
 20
70.035084
 0
VERTEX
 8
0
 10
311.321229
 20
69.834011
 0
VERTEX
 8
0
 10
311.002177
 20
69.646559
 0
VERTEX
 8
0
 10
310.659074
 20
69.473842
 0
VERTEX
 8
0
 10
310.293961
 20
69.316884
 0
VERTEX
 8
0
 10
309.909002
 20
69.176616
 0
VERTEX
 8
0
 10
309.506481
 20
69.053871
 0
VERTEX
 8
0
 10
309.088787
 20
68.949378
 0
VERTEX
 8
0
 10
308.6584
 20
68.863755
 0
VERTEX
 8
0
 10
308.217871
 20
68.797513
 0
VERTEX
 8
0
 10
307.769818
 20
68.751043
 0
VERTEX
 8
0
 10
307.316897
 20
68.724621
 0
VERTEX
 8
0
 10
306.861797
 20
68.718405
 0
VERTEX
 8
0
 10
306.40722
 20
68.73243
 0
VERTEX
 8
0
 10
305.95586
 20
68.766614
 0
VERTEX
 8
0
 10
305.510398
 20
68.820754
 0
VERTEX
 8
0
 10
305.073477
 20
68.894529
 0
VERTEX
 8
0
 10
304.64769
 20
68.987501
 0
VERTEX
 8
0
 10
304.235562
 20
69.099118
 0
VERTEX
 8
0
 10
303.839542
 20
69.228718
 0
VERTEX
 8
0
 10
303.461976
 20
69.375532
 0
VERTEX
 8
0
 10
303.105109
 20
69.538687
 0
VERTEX
 8
0
 10
302.771055
 20
69.717217 
 0
SEQEND
 8
0
 0
POLYLINE
 8
0
 62
7
 66
1
 10
0
 20
0
 70
0
 0
VERTEX
 8
0
 10
302.841766
 20
218.368465
 0
VERTEX
 8
0
 10
303.17912
 20
218.188537
 0
VERTEX
 8
0
 10
303.540043
 20
218.024556
 0
VERTEX
 8
0
 10
303.922277
 20
217.877548
 0
VERTEX
 8
0
 10
304.323433
 20
217.748431
 0
VERTEX
 8
0
 10
304.741005
 20
217.638011
 0
VERTEX
 8
0
 10
305.172383
 20
217.54698
 0
VERTEX
 8
0
 10
305.614869
 20
217.475906
 0
VERTEX
 8
0
 10
306.065698
 20
217.425234
 0
VERTEX
 8
0
 10
306.522052
 20
217.395281
 0
VERTEX
 8
0
 10
306.98108
 20
217.386232
 0
VERTEX
 8
0
 10
307.43991
 20
217.398146
 0
VERTEX
 8
0
 10
307.895676
 20
217.430948
 0
VERTEX
 8
0
 10
308.34553
 20
217.484432
 0
VERTEX
 8
0
 10
308.78666
 20
217.558264
 0
VERTEX
 8
0
 10
309.216305
 20
217.651984
 0
VERTEX
 8
0
 10
309.631784
 20
217.765003
 0
VERTEX
 8
0
 10
310.030498
 20
217.896619
 0
VERTEX
 8
0
 10
310.409957
 20
218.046004
 0
VERTEX
 8
0
 10
310.767786
 20
218.212229
 0
VERTEX
 8
0
 10
311.101749
 20
218.394253
 0
VERTEX
 8
0
 10
311.409761
 20
218.590938
 0
VERTEX
 8
0
 10
311.689893
 20
218.801057
 0
VERTEX
 8
0
 10
311.940398
 20
219.023293
 0
VERTEX
 8
0
 10
312.15971
 20
219.256258
 0
VERTEX
 8
0
 10
312.346453
 20
219.498498
 0
VERTEX
 8
0
 10
312.499466
 20
219.748497
 0
VERTEX
 8
0
 10
312.61779
 20
220.004692
 0
VERTEX
 8
0
 10
312.700683
 20
220.265484
 0
VERTEX
 8
0
 10
312.747632
 20
220.52924
 0
VERTEX
 8
0
 10
312.75834
 20
220.794313
 0
VERTEX
 8
0
 10
312.732741
 20
221.059046
 0
VERTEX
 8
0
 10
312.670995
 20
221.321784
 0
VERTEX
 8
0
 10
312.573488
 20
221.580885
 0
VERTEX
 8
0
 10
312.440828
 20
221.83473
 0
VERTEX
 8
0
 10
312.273847
 20
222.081731
 0
VERTEX
 8
0
 10
312.073587
 20
222.320346
 0
VERTEX
 8
0
 10
311.8413
 20
222.549082
 0
VERTEX
 8
0
 10
311.578438
 20
222.766509 
 0
SEQEND
 8
0
 0
LINE
 8
0
 62
7
 10
273.850387
 20
86.412764
 11
302.771055
 21
69.717217
 0
LINE
 8
0
 62
7
 10
273.850387
 20
235.023191
 11
302.771055
 21
218.327645
 0
LINE
 8
0
 62
7
 10
302.841766
 20
218.368465
 11
273.921098
 21
235.064011
 0
LINE
 8
0
 62
7
 10
311.095009
 20
223.13448
 11
311.578438
 21
222.766509
 0
LINE
 8
0
 62
7
 10
311.658115
 20
222.801394
 11
311.174686
 21
223.169365
 0
POLYLINE
 8
0
 62
7
 66
1
 10
0
 20
0
 70
0
 0
VERTEX
 8
0
 10
311.095009
 20
223.13448
 0
VERTEX
 8
0
 10
311.071431
 20
223.149288
 0
VERTEX
 8
0
 10
311.048759
 20
223.157254
 0
VERTEX
 8
0
 10
311.027863
 20
223.158066
 0
VERTEX
 8
0
 10
311.00955
 20
223.151697
 0
VERTEX
 8
0
 10
310.994519
 20
223.138389
 0
VERTEX
 8
0
 10
310.983352
 20
223.118656
 0
VERTEX
 8
0
 10
310.976474
 20
223.093259
 0
VERTEX
 8
0
 10
310.974151
 20
223.063167 
 0
SEQEND
 8
0
 0
LINE
 8
0
 62
7
 10
310.974151
 20
218.321276
 11
310.974151
 21
223.063167
 0
POLYLINE
 8
0
 62
7
 66
1
 10
0
 20
0
 70
0
 0
VERTEX
 8
0
 10
311.524052
 20
220.644074
 0
VERTEX
 8
0
 10
311.514392
 20
220.717048
 0
VERTEX
 8
0
 10
311.486884
 20
220.793616
 0
VERTEX
 8
0
 10
311.445714
 20
220.862121
 0
VERTEX
 8
0
 10
311.397152
 20
220.912139
 0
VERTEX
 8
0
 10
311.348588
 20
220.93605
 0
VERTEX
 8
0
 10
311.307419
 20
220.930218
 0
VERTEX
 8
0
 10
311.279911
 20
220.895528
 0
VERTEX
 8
0
 10
311.270251
 20
220.837259
 0
VERTEX
 8
0
 10
311.279911
 20
220.764285
 0
VERTEX
 8
0
 10
311.307419
 20
220.687717
 0
VERTEX
 8
0
 10
311.348588
 20
220.619211
 0
VERTEX
 8
0
 10
311.397152
 20
220.569193
 0
VERTEX
 8
0
 10
311.445714
 20
220.545282
 0
VERTEX
 8
0
 10
311.486884
 20
220.551115
 0
VERTEX
 8
0
 10
311.514392
 20
220.585805
 0
VERTEX
 8
0
 10
311.524052
 20
220.644074 
 0
SEQEND
 8
0
 0
ARC
 8
0
 62
7
 10
311.117837
 20
223.111838
 40
0.080877
 50
45.339482
 51
106.792317
 0
POLYLINE
 8
0
 62
7
 66
1
 10
0
 20
0
 70
0
 0
VERTEX
 8
0
 10
311.349928
 20
220.872144
 0
VERTEX
 8
0
 10
311.359588
 20
220.930412
 0
VERTEX
 8
0
 10
311.360542
 20
220.932713 
 0
SEQEND
 8
0
 0
ARC
 8
0
 62
7
 10
311.679549
 20
220.868235
 40
0.329644
 50
179.320611
 51
239.740854
 0
POLYLINE
 8
0
 62
7
 66
1
 10
0
 20
0
 70
0
 0
VERTEX
 8
0
 10
281.539559
 20
240.107585
 0
VERTEX
 8
0
 10
281.162923
 20
240.259332
 0
VERTEX
 8
0
 10
280.766697
 20
240.393428
 0
VERTEX
 8
0
 10
280.353361
 20
240.509036
 0
VERTEX
 8
0
 10
279.925495
 20
240.605432
 0
VERTEX
 8
0
 10
279.485776
 20
240.682015
 0
VERTEX
 8
0
 10
279.03695
 20
240.738305
 0
VERTEX
 8
0
 10
278.581826
 20
240.77395
 0
VERTEX
 8
0
 10
278.123244
 20
240.788728
 0
VERTEX
 8
0
 10
277.664075
 20
240.782546
 0
VERTEX
 8
0
 10
277.207187
 20
240.755443
 0
VERTEX
 8
0
 10
276.755433
 20
240.70759
 0
VERTEX
 8
0
 10
276.311642
 20
240.639283
 0
VERTEX
 8
0
 10
275.878585
 20
240.550951
 0
VERTEX
 8
0
 10
275.458967
 20
240.443146
 0
VERTEX
 8
0
 10
275.055415
 20
240.31654
 0
VERTEX
 8
0
 10
274.670449
 20
240.171927
 0
VERTEX
 8
0
 10
274.306474
 20
240.01021
 0
VERTEX
 8
0
 10
273.965769
 20
239.832398
 0
VERTEX
 8
0
 10
273.65046
 20
239.639605
 0
VERTEX
 8
0
 10
273.362519
 20
239.433035
 0
VERTEX
 8
0
 10
273.103747
 20
239.213978
 0
VERTEX
 8
0
 10
272.875758
 20
238.983806
 0
VERTEX
 8
0
 10
272.679981
 20
238.743954
 0
VERTEX
 8
0
 10
272.517636
 20
238.495926
 0
VERTEX
 8
0
 10
272.389742
 20
238.241267
 0
VERTEX
 8
0
 10
272.297095
 20
237.981572
 0
VERTEX
 8
0
 10
272.240274
 20
237.718464
 0
VERTEX
 8
0
 10
272.219636
 20
237.453587
 0
VERTEX
 8
0
 10
272.235311
 20
237.188596
 0
VERTEX
 8
0
 10
272.287197
 20
236.925148
 0
VERTEX
 8
0
 10
272.374973
 20
236.66489
 0
VERTEX
 8
0
 10
272.498089
 20
236.409448
 0
VERTEX
 8
0
 10
272.655777
 20
236.160419
 0
VERTEX
 8
0
 10
272.84705
 20
235.91936
 0
VERTEX
 8
0
 10
273.070712
 20
235.687777
 0
VERTEX
 8
0
 10
273.325365
 20
235.467118
 0
VERTEX
 8
0
 10
273.60942
 20
235.258762
 0
VERTEX
 8
0
 10
273.921098
 20
235.064011 
 0
SEQEND
 8
0
 0
POLYLINE
 8
0
 62
7
 66
1
 10
0
 20
0
 70
0
 0
VERTEX
 8
0
 10
281.599988
 20
240.153581
 0
VERTEX
 8
0
 10
281.226952
 20
240.304202
 0
VERTEX
 8
0
 10
280.834937
 20
240.437801
 0
VERTEX
 8
0
 10
280.426272
 20
240.553582
 0
VERTEX
 8
0
 10
280.003381
 20
240.650859
 0
VERTEX
 8
0
 10
279.568773
 20
240.729056
 0
VERTEX
 8
0
 10
279.125028
 20
240.787708
 0
VERTEX
 8
0
 10
278.674779
 20
240.826467
 0
VERTEX
 8
0
 10
278.220698
 20
240.845103
 0
VERTEX
 8
0
 10
277.76548
 20
240.843505
 0
VERTEX
 8
0
 10
277.311825
 20
240.821682
 0
VERTEX
 8
0
 10
276.862425
 20
240.779766
 0
VERTEX
 8
0
 10
276.419948
 20
240.718004
 0
VERTEX
 8
0
 10
275.987021
 20
240.636761
 0
VERTEX
 8
0
 10
275.566209
 20
240.536523
 0
VERTEX
 8
0
 10
275.160015
 20
240.41788
 0
VERTEX
 8
0
 10
274.770844
 20
240.28154
 0
VERTEX
 8
0
 10
274.401008
 20
240.128311
 0
VERTEX
 8
0
 10
274.052701
 20
239.959101
 0
VERTEX
 8
0
 10
273.727989
 20
239.774917
 0
VERTEX
 8
0
 10
273.428803
 20
239.576848
 0
VERTEX
 8
0
 10
273.156914
 20
239.366072
 0
VERTEX
 8
0
 10
272.913936
 20
239.14384
 0
VERTEX
 8
0
 10
272.701312
 20
238.91147
 0
VERTEX
 8
0
 10
272.520305
 20
238.67034
 0
VERTEX
 8
0
 10
272.371987
 20
238.421883
 0
VERTEX
 8
0
 10
272.25724
 20
238.167571
 0
VERTEX
 8
0
 10
272.176742
 20
237.908916
 0
VERTEX
 8
0
 10
272.130974
 20
237.64745
 0
VERTEX
 8
0
 10
272.120205
 20
237.384726
 0
VERTEX
 8
0
 10
272.1445
 20
237.122304
 0
VERTEX
 8
0
 10
272.203715
 20
236.86174
 0
VERTEX
 8
0
 10
272.297499
 20
236.60458
 0
VERTEX
 8
0
 10
272.425295
 20
236.352351
 0
VERTEX
 8
0
 10
272.586344
 20
236.106549
 0
VERTEX
 8
0
 10
272.779692
 20
235.868633
 0
VERTEX
 8
0
 10
273.004189
 20
235.640015
 0
VERTEX
 8
0
 10
273.258506
 20
235.422051
 0
VERTEX
 8
0
 10
273.54113
 20
235.216036
 0
VERTEX
 8
0
 10
273.850387
 20
235.023191 
 0
SEQEND
 8
0
 0
POLYLINE
 8
0
 62
7
 66
1
 10
0
 20
0
 70
0
 0
VERTEX
 8
0
 10
273.850387
 20
86.412764
 0
VERTEX
 8
0
 10
273.54113
 20
86.605609
 0
VERTEX
 8
0
 10
273.258506
 20
86.811624
 0
VERTEX
 8
0
 10
273.004189
 20
87.029588
 0
VERTEX
 8
0
 10
272.779692
 20
87.258206
 0
VERTEX
 8
0
 10
272.586344
 20
87.496122
 0
VERTEX
 8
0
 10
272.425295
 20
87.741924
 0
VERTEX
 8
0
 10
272.297499
 20
87.994153
 0
VERTEX
 8
0
 10
272.203715
 20
88.251313
 0
VERTEX
 8
0
 10
272.1445
 20
88.511877
 0
VERTEX
 8
0
 10
272.120205
 20
88.774299
 0
VERTEX
 8
0
 10
272.119552
 20
88.825022 
 0
SEQEND
 8
0
 0
LINE
 8
0
 62
7
 10
281.539559
 20
240.107585
 11
282.176973
 21
239.828507
 0
ARC
 8
0
 62
7
 10
282.060679
 20
239.577984
 40
0.276199
 50
3.621797
 51
65.099176
 0
LINE
 8
0
 62
7
 10
282.336327
 20
230.206005
 11
282.336327
 21
239.595432
 0
POLYLINE
 8
0
 62
7
 66
1
 10
0
 20
0
 70
0
 0
VERTEX
 8
0
 10
281.945911
 20
237.76584
 0
VERTEX
 8
0
 10
281.933174
 20
237.837038
 0
VERTEX
 8
0
 10
281.896904
 20
237.908548
 0
VERTEX
 8
0
 10
281.842621
 20
237.969483
 0
VERTEX
 8
0
 10
281.778589
 20
238.010571
 0
VERTEX
 8
0
 10
281.714558
 20
238.025553
 0
VERTEX
 8
0
 10
281.660275
 20
238.01215
 0
VERTEX
 8
0
 10
281.624005
 20
237.972401
 0
VERTEX
 8
0
 10
281.611268
 20
237.912356
 0
VERTEX
 8
0
 10
281.624005
 20
237.841159
 0
VERTEX
 8
0
 10
281.660275
 20
237.769649
 0
VERTEX
 8
0
 10
281.714558
 20
237.708713
 0
VERTEX
 8
0
 10
281.778589
 20
237.667626
 0
VERTEX
 8
0
 10
281.842621
 20
237.652644
 0
VERTEX
 8
0
 10
281.896904
 20
237.666046
 0
VERTEX
 8
0
 10
281.933174
 20
237.705796
 0
VERTEX
 8
0
 10
281.945911
 20
237.76584 
 0
SEQEND
 8
0
 0
POLYLINE
 8
0
 62
7
 66
1
 10
0
 20
0
 70
0
 0
VERTEX
 8
0
 10
281.945911
 20
234.662986
 0
VERTEX
 8
0
 10
281.933174
 20
234.734179
 0
VERTEX
 8
0
 10
281.896904
 20
234.805694
 0
VERTEX
 8
0
 10
281.842621
 20
234.866629
 0
VERTEX
 8
0
 10
281.778589
 20
234.907717
 0
VERTEX
 8
0
 10
281.714558
 20
234.922699
 0
VERTEX
 8
0
 10
281.660275
 20
234.909296
 0
VERTEX
 8
0
 10
281.624005
 20
234.869542
 0
VERTEX
 8
0
 10
281.611268
 20
234.809502
 0
VERTEX
 8
0
 10
281.624005
 20
234.738304
 0
VERTEX
 8
0
 10
281.660275
 20
234.666795
 0
VERTEX
 8
0
 10
281.714558
 20
234.605854
 0
VERTEX
 8
0
 10
281.778589
 20
234.564767
 0
VERTEX
 8
0
 10
281.842621
 20
234.549785
 0
VERTEX
 8
0
 10
281.896904
 20
234.563192
 0
VERTEX
 8
0
 10
281.933174
 20
234.602942
 0
VERTEX
 8
0
 10
281.945911
 20
234.662986 
 0
SEQEND
 8
0
 0
ARC
 8
0
 62
7
 10
282.121111
 20
239.623983
 40
0.276196
 50
3.62138
 51
65.099593
 0
LINE
 8
0
 62
7
 10
282.237401
 20
239.874504
 11
281.599988
 21
240.153581
 0
LINE
 8
0
 62
7
 10
282.396755
 20
230.171117
 11
282.396755
 21
239.641428
 0
POLYLINE
 8
0
 62
7
 66
1
 10
0
 20
0
 70
0
 0
VERTEX
 8
0
 10
281.671696
 20
237.958353
 0
VERTEX
 8
0
 10
281.684433
 20
238.018398
 0
VERTEX
 8
0
 10
281.686624
 20
238.022612 
 0
SEQEND
 8
0
 0
ARC
 8
0
 62
7
 10
281.922008
 20
237.951816
 40
0.250397
 50
178.504127
 51
272.054466
 0
POLYLINE
 8
0
 62
7
 66
1
 10
0
 20
0
 70
0
 0
VERTEX
 8
0
 10
281.671696
 20
234.855499
 0
VERTEX
 8
0
 10
281.684433
 20
234.915539
 0
VERTEX
 8
0
 10
281.686623
 20
234.919758 
 0
SEQEND
 8
0
 0
ARC
 8
0
 62
7
 10
281.92199
 20
234.848945
 40
0.25038
 50
178.500094
 51
272.058402
 0
LINE
 8
0
 62
7
 10
302.771055
 20
69.717217
 11
302.771055
 21
218.327645
 0
LINE
 8
0
 62
7
 10
302.841766
 20
218.368465
 11
302.771055
 21
218.327645
 0
LINE
 8
0
 62
7
 10
311.578438
 20
222.766509
 11
311.658115
 21
222.801394
 0
LINE
 8
0
 62
7
 10
311.578438
 20
218.713298
 11
311.578438
 21
222.766509
 0
LINE
 8
0
 62
7
 10
273.850387
 20
86.412764
 11
273.850387
 21
235.023191
 0
LINE
 8
0
 62
7
 10
273.921098
 20
235.064011
 11
273.850387
 21
235.023191
 0
LINE
 8
0
 62
7
 10
311.095009
 20
223.13448
 11
311.174686
 21
223.169365
 0
LINE
 8
0
 62
7
 10
281.539559
 20
240.107585
 11
281.599988
 21
240.153581
 0
LINE
 8
0
 62
7
 10
281.539559
 20
230.665969
 11
281.539559
 21
240.107585
 0
LINE
 8
0
 62
7
 10
282.336327
 20
239.595432
 11
282.396755
 21
239.641428
 0
LINE
 8
0
 62
7
 10
282.176973
 20
239.828507
 11
282.237401
 21
239.874504
 0
LINE
 8
0
 62
7
 10
385.624118
 20
88.505415
 11
385.624118
 21
237.115842
 0
LINE
 8
0
 62
7
 10
375.445563
 20
234.718619
 11
375.385134
 21
234.672623
 0
LINE
 8
0
 62
7
 10
344.884566
 20
253.811388
 11
344.884566
 21
105.20096
 0
LINE
 8
0
 62
7
 10
346.649199
 20
102.751598
 11
346.728876
 21
102.786482
 0
POLYLINE
 8
0
 62
7
 66
1
 10
0
 20
0
 70
0
 0
VERTEX
 8
0
 10
376.204111
 20
234.443707
 0
VERTEX
 8
0
 10
376.580748
 20
234.29196
 0
VERTEX
 8
0
 10
376.976973
 20
234.157863
 0
VERTEX
 8
0
 10
377.39031
 20
234.042255
 0
VERTEX
 8
0
 10
377.818175
 20
233.945859
 0
VERTEX
 8
0
 10
378.257895
 20
233.869276
 0
VERTEX
 8
0
 10
378.70672
 20
233.812987
 0
VERTEX
 8
0
 10
379.161844
 20
233.777342
 0
VERTEX
 8
0
 10
379.620426
 20
233.762563
 0
VERTEX
 8
0
 10
380.079595
 20
233.768745
 0
VERTEX
 8
0
 10
380.536483
 20
233.795848
 0
VERTEX
 8
0
 10
380.988238
 20
233.843701
 0
VERTEX
 8
0
 10
381.432028
 20
233.912008
 0
VERTEX
 8
0
 10
381.865085
 20
234.000341
 0
VERTEX
 8
0
 10
382.284703
 20
234.108146
 0
VERTEX
 8
0
 10
382.688255
 20
234.234751
 0
VERTEX
 8
0
 10
383.073221
 20
234.379365
 0
VERTEX
 8
0
 10
383.437196
 20
234.541082
 0
VERTEX
 8
0
 10
383.777901
 20
234.718893
 0
VERTEX
 8
0
 10
384.093211
 20
234.911686
 0
VERTEX
 8
0
 10
384.381152
 20
235.118256
 0
VERTEX
 8
0
 10
384.639923
 20
235.337313
 0
VERTEX
 8
0
 10
384.867912
 20
235.567486
 0
VERTEX
 8
0
 10
385.063689
 20
235.807337
 0
VERTEX
 8
0
 10
385.226034
 20
236.055366
 0
VERTEX
 8
0
 10
385.353929
 20
236.310025
 0
VERTEX
 8
0
 10
385.446575
 20
236.56972
 0
VERTEX
 8
0
 10
385.503396
 20
236.832828
 0
VERTEX
 8
0
 10
385.524034
 20
237.097705
 0
VERTEX
 8
0
 10
385.50836
 20
237.362696
 0
VERTEX
 8
0
 10
385.456473
 20
237.626143
 0
VERTEX
 8
0
 10
385.368697
 20
237.886402
 0
VERTEX
 8
0
 10
385.245581
 20
238.141843
 0
VERTEX
 8
0
 10
385.087893
 20
238.390872
 0
VERTEX
 8
0
 10
384.89662
 20
238.631932
 0
VERTEX
 8
0
 10
384.672958
 20
238.863514
 0
VERTEX
 8
0
 10
384.418305
 20
239.084173
 0
VERTEX
 8
0
 10
384.13425
 20
239.29253
 0
VERTEX
 8
0
 10
383.822573
 20
239.48728 
 0
SEQEND
 8
0
 0
POLYLINE
 8
0
 62
7
 66
1
 10
0
 20
0
 70
0
 0
VERTEX
 8
0
 10
376.143683
 20
234.39771
 0
VERTEX
 8
0
 10
376.516719
 20
234.247089
 0
VERTEX
 8
0
 10
376.908733
 20
234.113491
 0
VERTEX
 8
0
 10
377.317398
 20
233.997709
 0
VERTEX
 8
0
 10
377.740289
 20
233.900432
 0
VERTEX
 8
0
 10
378.174897
 20
233.822235
 0
VERTEX
 8
0
 10
378.618642
 20
233.763583
 0
VERTEX
 8
0
 10
379.068891
 20
233.724824
 0
VERTEX
 8
0
 10
379.522972
 20
233.706189
 0
VERTEX
 8
0
 10
379.97819
 20
233.707787
 0
VERTEX
 8
0
 10
380.431845
 20
233.729609
 0
VERTEX
 8
0
 10
380.881246
 20
233.771525
 0
VERTEX
 8
0
 10
381.323722
 20
233.833288
 0
VERTEX
 8
0
 10
381.756649
 20
233.91453
 0
VERTEX
 8
0
 10
382.177461
 20
234.014769
 0
VERTEX
 8
0
 10
382.583655
 20
234.133411
 0
VERTEX
 8
0
 10
382.972826
 20
234.269751
 0
VERTEX
 8
0
 10
383.342662
 20
234.42298
 0
VERTEX
 8
0
 10
383.690969
 20
234.59219
 0
VERTEX
 8
0
 10
384.015681
 20
234.776375
 0
VERTEX
 8
0
 10
384.314867
 20
234.974444
 0
VERTEX
 8
0
 10
384.586756
 20
235.18522
 0
VERTEX
 8
0
 10
384.829735
 20
235.407451
 0
VERTEX
 8
0
 10
385.042358
 20
235.639822
 0
VERTEX
 8
0
 10
385.223365
 20
235.880952
 0
VERTEX
 8
0
 10
385.371684
 20
236.129409
 0
VERTEX
 8
0
 10
385.48643
 20
236.383721
 0
VERTEX
 8
0
 10
385.566929
 20
236.642376
 0
VERTEX
 8
0
 10
385.612697
 20
236.903842
 0
VERTEX
 8
0
 10
385.623465
 20
237.166565
 0
VERTEX
 8
0
 10
385.599171
 20
237.428987
 0
VERTEX
 8
0
 10
385.539955
 20
237.689552
 0
VERTEX
 8
0
 10
385.446171
 20
237.946711
 0
VERTEX
 8
0
 10
385.318375
 20
238.198941
 0
VERTEX
 8
0
 10
385.157326
 20
238.444742
 0
VERTEX
 8
0
 10
384.963979
 20
238.682658
 0
VERTEX
 8
0
 10
384.739481
 20
238.911276
 0
VERTEX
 8
0
 10
384.485165
 20
239.12924
 0
VERTEX
 8
0
 10
384.20254
 20
239.335255
 0
VERTEX
 8
0
 10
383.893283
 20
239.528101 
 0
SEQEND
 8
0
 0
POLYLINE
 8
0
 62
7
 66
1
 10
0
 20
0
 70
0
 0
VERTEX
 8
0
 10
385.624118
 20
88.505415
 0
VERTEX
 8
0
 10
385.612697
 20
88.293415
 0
VERTEX
 8
0
 10
385.566929
 20
88.031949
 0
VERTEX
 8
0
 10
385.48643
 20
87.773293
 0
VERTEX
 8
0
 10
385.371684
 20
87.518981
 0
VERTEX
 8
0
 10
385.223365
 20
87.270524
 0
VERTEX
 8
0
 10
385.042358
 20
87.029394
 0
VERTEX
 8
0
 10
384.829735
 20
86.797024
 0
VERTEX
 8
0
 10
384.586756
 20
86.574792
 0
VERTEX
 8
0
 10
384.314867
 20
86.364017
 0
VERTEX
 8
0
 10
384.015681
 20
86.165948
 0
VERTEX
 8
0
 10
383.690969
 20
85.981763
 0
VERTEX
 8
0
 10
383.342662
 20
85.812553
 0
VERTEX
 8
0
 10
382.972826
 20
85.659324
 0
VERTEX
 8
0
 10
382.583655
 20
85.522984
 0
VERTEX
 8
0
 10
382.177461
 20
85.404342
 0
VERTEX
 8
0
 10
381.756649
 20
85.304103
 0
VERTEX
 8
0
 10
381.323722
 20
85.222861
 0
VERTEX
 8
0
 10
380.881246
 20
85.161098
 0
VERTEX
 8
0
 10
380.431845
 20
85.119182
 0
VERTEX
 8
0
 10
379.97819
 20
85.09736
 0
VERTEX
 8
0
 10
379.522972
 20
85.095762
 0
VERTEX
 8
0
 10
379.068891
 20
85.114397
 0
VERTEX
 8
0
 10
378.618642
 20
85.153156
 0
VERTEX
 8
0
 10
378.174897
 20
85.211808
 0
VERTEX
 8
0
 10
377.740289
 20
85.290005
 0
VERTEX
 8
0
 10
377.317398
 20
85.387282
 0
VERTEX
 8
0
 10
376.908733
 20
85.503064
 0
VERTEX
 8
0
 10
376.516719
 20
85.636662
 0
VERTEX
 8
0
 10
376.143683
 20
85.787283 
 0
SEQEND
 8
0
 0
ARC
 8
0
 62
7
 10
375.45026
 20
234.589697
 40
0.103546
 50
57.25438
 51
183.569283
 0
LINE
 8
0
 62
7
 10
375.506269
 20
234.676788
 11
376.143683
 21
234.39771
 0
LINE
 8
0
 62
7
 10
375.506269
 20
86.066361
 11
376.143683
 21
85.787283
 0
ARC
 8
0
 62
7
 10
375.622559
 20
86.316881
 40
0.276196
 50
-176.37862
 51
-114.900407
 0
LINE
 8
0
 62
7
 10
375.346915
 20
86.299436
 11
375.346915
 21
234.583251
 0
POLYLINE
 8
0
 62
7
 66
1
 10
0
 20
0
 70
0
 0
VERTEX
 8
0
 10
376.071974
 20
232.265275
 0
VERTEX
 8
0
 10
376.059237
 20
232.336472
 0
VERTEX
 8
0
 10
376.022966
 20
232.407982
 0
VERTEX
 8
0
 10
375.968684
 20
232.468917
 0
VERTEX
 8
0
 10
375.904652
 20
232.510006
 0
VERTEX
 8
0
 10
375.840621
 20
232.524987
 0
VERTEX
 8
0
 10
375.786338
 20
232.511584
 0
VERTEX
 8
0
 10
375.750068
 20
232.471835
 0
VERTEX
 8
0
 10
375.737331
 20
232.41179
 0
VERTEX
 8
0
 10
375.750068
 20
232.340593
 0
VERTEX
 8
0
 10
375.786338
 20
232.269083
 0
VERTEX
 8
0
 10
375.840621
 20
232.208148
 0
VERTEX
 8
0
 10
375.904652
 20
232.16706
 0
VERTEX
 8
0
 10
375.968684
 20
232.152078
 0
VERTEX
 8
0
 10
376.022966
 20
232.16548
 0
VERTEX
 8
0
 10
376.059237
 20
232.20523
 0
VERTEX
 8
0
 10
376.071974
 20
232.265275 
 0
SEQEND
 8
0
 0
POLYLINE
 8
0
 62
7
 66
1
 10
0
 20
0
 70
0
 0
VERTEX
 8
0
 10
376.071974
 20
229.162421
 0
VERTEX
 8
0
 10
376.059237
 20
229.233613
 0
VERTEX
 8
0
 10
376.022966
 20
229.305128
 0
VERTEX
 8
0
 10
375.968684
 20
229.366063
 0
VERTEX
 8
0
 10
375.904652
 20
229.407151
 0
VERTEX
 8
0
 10
375.840621
 20
229.422133
 0
VERTEX
 8
0
 10
375.786338
 20
229.40873
 0
VERTEX
 8
0
 10
375.750068
 20
229.368976
 0
VERTEX
 8
0
 10
375.737331
 20
229.308936
 0
VERTEX
 8
0
 10
375.750068
 20
229.237739
 0
VERTEX
 8
0
 10
375.786338
 20
229.166229
 0
VERTEX
 8
0
 10
375.840621
 20
229.105289
 0
VERTEX
 8
0
 10
375.904652
 20
229.064201
 0
VERTEX
 8
0
 10
375.968684
 20
229.049219
 0
VERTEX
 8
0
 10
376.022966
 20
229.062626
 0
VERTEX
 8
0
 10
376.059237
 20
229.102376
 0
VERTEX
 8
0
 10
376.071974
 20
229.162421 
 0
SEQEND
 8
0
 0
POLYLINE
 8
0
 62
7
 66
1
 10
0
 20
0
 70
0
 0
VERTEX
 8
0
 10
376.071974
 20
161.430358
 0
VERTEX
 8
0
 10
376.059237
 20
161.501555
 0
VERTEX
 8
0
 10
376.022966
 20
161.573065
 0
VERTEX
 8
0
 10
375.968684
 20
161.634002
 0
VERTEX
 8
0
 10
375.904652
 20
161.67509
 0
VERTEX
 8
0
 10
375.840621
 20
161.690072
 0
VERTEX
 8
0
 10
375.786338
 20
161.676668
 0
VERTEX
 8
0
 10
375.750068
 20
161.636918
 0
VERTEX
 8
0
 10
375.737331
 20
161.576874
 0
VERTEX
 8
0
 10
375.750068
 20
161.505678
 0
VERTEX
 8
0
 10
375.786338
 20
161.434167
 0
VERTEX
 8
0
 10
375.840621
 20
161.37323
 0
VERTEX
 8
0
 10
375.904652
 20
161.332143
 0
VERTEX
 8
0
 10
375.968684
 20
161.317161
 0
VERTEX
 8
0
 10
376.022966
 20
161.330565
 0
VERTEX
 8
0
 10
376.059237
 20
161.370315
 0
VERTEX
 8
0
 10
376.071974
 20
161.430358 
 0
SEQEND
 8
0
 0
POLYLINE
 8
0
 62
7
 66
1
 10
0
 20
0
 70
0
 0
VERTEX
 8
0
 10
376.071974
 20
158.327503
 0
VERTEX
 8
0
 10
376.059237
 20
158.3987
 0
VERTEX
 8
0
 10
376.022966
 20
158.47021
 0
VERTEX
 8
0
 10
375.968684
 20
158.531147
 0
VERTEX
 8
0
 10
375.904652
 20
158.572235
 0
VERTEX
 8
0
 10
375.840621
 20
158.587217
 0
VERTEX
 8
0
 10
375.786338
 20
158.573813
 0
VERTEX
 8
0
 10
375.750068
 20
158.534063
 0
VERTEX
 8
0
 10
375.737331
 20
158.474019
 0
VERTEX
 8
0
 10
375.750068
 20
158.402823
 0
VERTEX
 8
0
 10
375.786338
 20
158.331312
 0
VERTEX
 8
0
 10
375.840621
 20
158.270375
 0
VERTEX
 8
0
 10
375.904652
 20
158.229288
 0
VERTEX
 8
0
 10
375.968684
 20
158.214306
 0
VERTEX
 8
0
 10
376.022966
 20
158.22771
 0
VERTEX
 8
0
 10
376.059237
 20
158.26746
 0
VERTEX
 8
0
 10
376.071974
 20
158.327503 
 0
SEQEND
 8
0
 0
POLYLINE
 8
0
 62
7
 66
1
 10
0
 20
0
 70
0
 0
VERTEX
 8
0
 10
376.071974
 20
90.595443
 0
VERTEX
 8
0
 10
376.059237
 20
90.66664
 0
VERTEX
 8
0
 10
376.022966
 20
90.73815
 0
VERTEX
 8
0
 10
375.968684
 20
90.799085
 0
VERTEX
 8
0
 10
375.904652
 20
90.840174
 0
VERTEX
 8
0
 10
375.840621
 20
90.855155
 0
VERTEX
 8
0
 10
375.786338
 20
90.841752
 0
VERTEX
 8
0
 10
375.750068
 20
90.802003
 0
VERTEX
 8
0
 10
375.737331
 20
90.741958
 0
VERTEX
 8
0
 10
375.750068
 20
90.670761
 0
VERTEX
 8
0
 10
375.786338
 20
90.599251
 0
VERTEX
 8
0
 10
375.840621
 20
90.538316
 0
VERTEX
 8
0
 10
375.904652
 20
90.497228
 0
VERTEX
 8
0
 10
375.968684
 20
90.482246
 0
VERTEX
 8
0
 10
376.022966
 20
90.495648
 0
VERTEX
 8
0
 10
376.059237
 20
90.535398
 0
VERTEX
 8
0
 10
376.071974
 20
90.595443 
 0
SEQEND
 8
0
 0
POLYLINE
 8
0
 62
7
 66
1
 10
0
 20
0
 70
0
 0
VERTEX
 8
0
 10
376.071974
 20
87.492589
 0
VERTEX
 8
0
 10
376.059237
 20
87.563786
 0
VERTEX
 8
0
 10
376.022966
 20
87.635296
 0
VERTEX
 8
0
 10
375.968684
 20
87.696231
 0
VERTEX
 8
0
 10
375.904652
 20
87.737319
 0
VERTEX
 8
0
 10
375.840621
 20
87.752301
 0
VERTEX
 8
0
 10
375.786338
 20
87.738898
 0
VERTEX
 8
0
 10
375.750068
 20
87.699149
 0
VERTEX
 8
0
 10
375.737331
 20
87.639104
 0
VERTEX
 8
0
 10
375.750068
 20
87.567906
 0
VERTEX
 8
0
 10
375.786338
 20
87.496397
 0
VERTEX
 8
0
 10
375.840621
 20
87.435462
 0
VERTEX
 8
0
 10
375.904652
 20
87.394374
 0
VERTEX
 8
0
 10
375.968684
 20
87.379392
 0
VERTEX
 8
0
 10
376.022966
 20
87.392794
 0
VERTEX
 8
0
 10
376.059237
 20
87.432544
 0
VERTEX
 8
0
 10
376.071974
 20
87.492589 
 0
SEQEND
 8
0
 0
LINE
 8
0
 62
7
 10
376.204111
 20
234.443707
 11
375.566698
 21
234.722784
 0
ARC
 8
0
 62
7
 10
375.509643
 20
234.618542
 40
0.118835
 50
61.306974
 51
122.631791
 0
POLYLINE
 8
0
 62
7
 66
1
 10
0
 20
0
 70
0
 0
VERTEX
 8
0
 10
375.797759
 20
232.457787
 0
VERTEX
 8
0
 10
375.810496
 20
232.517832
 0
VERTEX
 8
0
 10
375.812686
 20
232.522047 
 0
SEQEND
 8
0
 0
ARC
 8
0
 62
7
 10
376.048069
 20
232.451248
 40
0.250395
 50
178.503595
 51
272.054716
 0
POLYLINE
 8
0
 62
7
 66
1
 10
0
 20
0
 70
0
 0
VERTEX
 8
0
 10
375.797759
 20
229.354933
 0
VERTEX
 8
0
 10
375.810496
 20
229.414973
 0
VERTEX
 8
0
 10
375.812686
 20
229.419193 
 0
SEQEND
 8
0
 0
ARC
 8
0
 62
7
 10
376.048054
 20
229.348379
 40
0.25038
 50
178.500022
 51
272.05829
 0
LINE
 8
0
 62
7
 10
354.901905
 20
256.182826
 11
383.822573
 21
239.48728
 0
LINE
 8
0
 62
7
 10
383.893283
 20
239.528101
 11
354.972615
 21
256.223647
 0
LINE
 8
0
 62
7
 10
354.901905
 20
107.572399
 11
375.346915
 21
95.769746
 0
ARC
 8
0
 62
7
 10
346.417803
 20
251.151268
 40
0.351865
 50
1.66831
 51
48.996888
 0
ARC
 8
0
 62
7
 10
346.338133
 20
251.116387
 40
0.351858
 50
1.667805
 51
48.997393
 0
LINE
 8
0
 62
7
 10
346.085556
 20
251.749898
 11
346.568985
 21
251.381927
 0
LINE
 8
0
 62
7
 10
346.689842
 20
102.842812
 11
346.689842
 21
251.126627
 0
POLYLINE
 8
0
 62
7
 66
1
 10
0
 20
0
 70
0
 0
VERTEX
 8
0
 10
346.568985
 20
102.771499
 0
VERTEX
 8
0
 10
346.592563
 20
102.756691
 0
VERTEX
 8
0
 10
346.615235
 20
102.748725
 0
VERTEX
 8
0
 10
346.63613
 20
102.747913
 0
VERTEX
 8
0
 10
346.654444
 20
102.754282
 0
VERTEX
 8
0
 10
346.669474
 20
102.767591
 0
VERTEX
 8
0
 10
346.680643
 20
102.787323
 0
VERTEX
 8
0
 10
346.68752
 20
102.812721
 0
VERTEX
 8
0
 10
346.689842
 20
102.842812 
 0
SEQEND
 8
0
 0
LINE
 8
0
 62
7
 10
346.085556
 20
103.13947
 11
346.568985
 21
102.771499
 0
POLYLINE
 8
0
 62
7
 66
1
 10
0
 20
0
 70
0
 0
VERTEX
 8
0
 10
346.393742
 20
249.351484
 0
VERTEX
 8
0
 10
346.384082
 20
249.424458
 0
VERTEX
 8
0
 10
346.356574
 20
249.501025
 0
VERTEX
 8
0
 10
346.315405
 20
249.569531
 0
VERTEX
 8
0
 10
346.266842
 20
249.619549
 0
VERTEX
 8
0
 10
346.218279
 20
249.64346
 0
VERTEX
 8
0
 10
346.17711
 20
249.637628
 0
VERTEX
 8
0
 10
346.149601
 20
249.602937
 0
VERTEX
 8
0
 10
346.139942
 20
249.544669
 0
VERTEX
 8
0
 10
346.149601
 20
249.471695
 0
VERTEX
 8
0
 10
346.17711
 20
249.395127
 0
VERTEX
 8
0
 10
346.218279
 20
249.326621
 0
VERTEX
 8
0
 10
346.266842
 20
249.276603
 0
VERTEX
 8
0
 10
346.315405
 20
249.252692
 0
VERTEX
 8
0
 10
346.356574
 20
249.258524
 0
VERTEX
 8
0
 10
346.384082
 20
249.293215
 0
VERTEX
 8
0
 10
346.393742
 20
249.351484 
 0
SEQEND
 8
0
 0
POLYLINE
 8
0
 62
7
 66
1
 10
0
 20
0
 70
0
 0
VERTEX
 8
0
 10
346.393742
 20
246.248629
 0
VERTEX
 8
0
 10
346.384082
 20
246.321599
 0
VERTEX
 8
0
 10
346.356574
 20
246.398171
 0
VERTEX
 8
0
 10
346.315405
 20
246.466677
 0
VERTEX
 8
0
 10
346.266842
 20
246.516695
 0
VERTEX
 8
0
 10
346.218279
 20
246.540606
 0
VERTEX
 8
0
 10
346.17711
 20
246.534774
 0
VERTEX
 8
0
 10
346.149601
 20
246.500078
 0
VERTEX
 8
0
 10
346.139942
 20
246.441815
 0
VERTEX
 8
0
 10
346.149601
 20
246.368841
 0
VERTEX
 8
0
 10
346.17711
 20
246.292273
 0
VERTEX
 8
0
 10
346.218279
 20
246.223762
 0
VERTEX
 8
0
 10
346.266842
 20
246.173744
 0
VERTEX
 8
0
 10
346.315405
 20
246.149833
 0
VERTEX
 8
0
 10
346.356574
 20
246.15567
 0
VERTEX
 8
0
 10
346.384082
 20
246.190361
 0
VERTEX
 8
0
 10
346.393742
 20
246.248629 
 0
SEQEND
 8
0
 0
POLYLINE
 8
0
 62
7
 66
1
 10
0
 20
0
 70
0
 0
VERTEX
 8
0
 10
346.393742
 20
178.516567
 0
VERTEX
 8
0
 10
346.384082
 20
178.58954
 0
VERTEX
 8
0
 10
346.356574
 20
178.666109
 0
VERTEX
 8
0
 10
346.315405
 20
178.734616
 0
VERTEX
 8
0
 10
346.266842
 20
178.784633
 0
VERTEX
 8
0
 10
346.218279
 20
178.808545
 0
VERTEX
 8
0
 10
346.17711
 20
178.802711
 0
VERTEX
 8
0
 10
346.149601
 20
178.76802
 0
VERTEX
 8
0
 10
346.139942
 20
178.709753
 0
VERTEX
 8
0
 10
346.149601
 20
178.63678
 0
VERTEX
 8
0
 10
346.17711
 20
178.560211
 0
VERTEX
 8
0
 10
346.218279
 20
178.491704
 0
VERTEX
 8
0
 10
346.266842
 20
178.441686
 0
VERTEX
 8
0
 10
346.315405
 20
178.417775
 0
VERTEX
 8
0
 10
346.356574
 20
178.423608
 0
VERTEX
 8
0
 10
346.384082
 20
178.4583
 0
VERTEX
 8
0
 10
346.393742
 20
178.516567 
 0
SEQEND
 8
0
 0
POLYLINE
 8
0
 62
7
 66
1
 10
0
 20
0
 70
0
 0
VERTEX
 8
0
 10
346.393742
 20
175.413712
 0
VERTEX
 8
0
 10
346.384082
 20
175.486685
 0
VERTEX
 8
0
 10
346.356574
 20
175.563254
 0
VERTEX
 8
0
 10
346.315405
 20
175.631761
 0
VERTEX
 8
0
 10
346.266842
 20
175.681778
 0
VERTEX
 8
0
 10
346.218279
 20
175.70569
 0
VERTEX
 8
0
 10
346.17711
 20
175.699856
 0
VERTEX
 8
0
 10
346.149601
 20
175.665165
 0
VERTEX
 8
0
 10
346.139942
 20
175.606898
 0
VERTEX
 8
0
 10
346.149601
 20
175.533925
 0
VERTEX
 8
0
 10
346.17711
 20
175.457356
 0
VERTEX
 8
0
 10
346.218279
 20
175.388849
 0
VERTEX
 8
0
 10
346.266842
 20
175.338831
 0
VERTEX
 8
0
 10
346.315405
 20
175.31492
 0
VERTEX
 8
0
 10
346.356574
 20
175.320754
 0
VERTEX
 8
0
 10
346.384082
 20
175.355445
 0
VERTEX
 8
0
 10
346.393742
 20
175.413712 
 0
SEQEND
 8
0
 0
POLYLINE
 8
0
 62
7
 66
1
 10
0
 20
0
 70
0
 0
VERTEX
 8
0
 10
346.393742
 20
107.681652
 0
VERTEX
 8
0
 10
346.384082
 20
107.754626
 0
VERTEX
 8
0
 10
346.356574
 20
107.831193
 0
VERTEX
 8
0
 10
346.315405
 20
107.899699
 0
VERTEX
 8
0
 10
346.266842
 20
107.949717
 0
VERTEX
 8
0
 10
346.218279
 20
107.973628
 0
VERTEX
 8
0
 10
346.17711
 20
107.967796
 0
VERTEX
 8
0
 10
346.149601
 20
107.933105
 0
VERTEX
 8
0
 10
346.139942
 20
107.874837
 0
VERTEX
 8
0
 10
346.149601
 20
107.801863
 0
VERTEX
 8
0
 10
346.17711
 20
107.725295
 0
VERTEX
 8
0
 10
346.218279
 20
107.656789
 0
VERTEX
 8
0
 10
346.266842
 20
107.606771
 0
VERTEX
 8
0
 10
346.315405
 20
107.58286
 0
VERTEX
 8
0
 10
346.356574
 20
107.588692
 0
VERTEX
 8
0
 10
346.384082
 20
107.623383
 0
VERTEX
 8
0
 10
346.393742
 20
107.681652 
 0
SEQEND
 8
0
 0
POLYLINE
 8
0
 62
7
 66
1
 10
0
 20
0
 70
0
 0
VERTEX
 8
0
 10
346.393742
 20
104.578797
 0
VERTEX
 8
0
 10
346.384082
 20
104.651771
 0
VERTEX
 8
0
 10
346.356574
 20
104.728339
 0
VERTEX
 8
0
 10
346.315405
 20
104.796845
 0
VERTEX
 8
0
 10
346.266842
 20
104.846863
 0
VERTEX
 8
0
 10
346.218279
 20
104.870774
 0
VERTEX
 8
0
 10
346.17711
 20
104.864942
 0
VERTEX
 8
0
 10
346.149601
 20
104.830251
 0
VERTEX
 8
0
 10
346.139942
 20
104.771983
 0
VERTEX
 8
0
 10
346.149601
 20
104.699009
 0
VERTEX
 8
0
 10
346.17711
 20
104.622441
 0
VERTEX
 8
0
 10
346.218279
 20
104.553935
 0
VERTEX
 8
0
 10
346.266842
 20
104.503917
 0
VERTEX
 8
0
 10
346.315405
 20
104.480006
 0
VERTEX
 8
0
 10
346.356574
 20
104.485838
 0
VERTEX
 8
0
 10
346.384082
 20
104.520529
 0
VERTEX
 8
0
 10
346.393742
 20
104.578797 
 0
SEQEND
 8
0
 0
LINE
 8
0
 62
7
 10
346.769519
 20
102.877697
 11
346.769519
 21
251.161512
 0
LINE
 8
0
 62
7
 10
346.648662
 20
251.416811
 11
346.165233
 21
251.784782
 0
POLYLINE
 8
0
 62
7
 66
1
 10
0
 20
0
 70
0
 0
VERTEX
 8
0
 10
354.972615
 20
256.223647
 0
VERTEX
 8
0
 10
354.638562
 20
256.402177
 0
VERTEX
 8
0
 10
354.281694
 20
256.565333
 0
VERTEX
 8
0
 10
353.904128
 20
256.712147
 0
VERTEX
 8
0
 10
353.508108
 20
256.841746
 0
VERTEX
 8
0
 10
353.09598
 20
256.953363
 0
VERTEX
 8
0
 10
352.670193
 20
257.046335
 0
VERTEX
 8
0
 10
352.233272
 20
257.12011
 0
VERTEX
 8
0
 10
351.78781
 20
257.17425
 0
VERTEX
 8
0
 10
351.336451
 20
257.208434
 0
VERTEX
 8
0
 10
350.881873
 20
257.22246
 0
VERTEX
 8
0
 10
350.426773
 20
257.216243
 0
VERTEX
 8
0
 10
349.973852
 20
257.189822
 0
VERTEX
 8
0
 10
349.525799
 20
257.143351
 0
VERTEX
 8
0
 10
349.08527
 20
257.077109
 0
VERTEX
 8
0
 10
348.654884
 20
256.991487
 0
VERTEX
 8
0
 10
348.237189
 20
256.886994
 0
VERTEX
 8
0
 10
347.834668
 20
256.764249
 0
VERTEX
 8
0
 10
347.44971
 20
256.62398
 0
VERTEX
 8
0
 10
347.084596
 20
256.467022
 0
VERTEX
 8
0
 10
346.741493
 20
256.294306
 0
VERTEX
 8
0
 10
346.422441
 20
256.106853
 0
VERTEX
 8
0
 10
346.12933
 20
255.90578
 0
VERTEX
 8
0
 10
345.8639
 20
255.692278
 0
VERTEX
 8
0
 10
345.627727
 20
255.467615
 0
VERTEX
 8
0
 10
345.42221
 20
255.233124
 0
VERTEX
 8
0
 10
345.248572
 20
254.990194
 0
VERTEX
 8
0
 10
345.107841
 20
254.740271
 0
VERTEX
 8
0
 10
345.000854
 20
254.484834
 0
VERTEX
 8
0
 10
344.928246
 20
254.225401
 0
VERTEX
 8
0
 10
344.890444
 20
253.963512
 0
VERTEX
 8
0
 10
344.887676
 20
253.70072
 0
VERTEX
 8
0
 10
344.919957
 20
253.438584
 0
VERTEX
 8
0
 10
344.987097
 20
253.178661
 0
VERTEX
 8
0
 10
345.088696
 20
252.922493
 0
VERTEX
 8
0
 10
345.224151
 20
252.671599
 0
VERTEX
 8
0
 10
345.392659
 20
252.427469
 0
VERTEX
 8
0
 10
345.59322
 20
252.191552
 0
VERTEX
 8
0
 10
345.824644
 20
251.965247
 0
VERTEX
 8
0
 10
346.085556
 20
251.749898 
 0
SEQEND
 8
0
 0
POLYLINE
 8
0
 62
7
 66
1
 10
0
 20
0
 70
0
 0
VERTEX
 8
0
 10
346.085556
 20
103.13947
 0
VERTEX
 8
0
 10
345.824644
 20
103.35482
 0
VERTEX
 8
0
 10
345.59322
 20
103.581124
 0
VERTEX
 8
0
 10
345.392659
 20
103.817042
 0
VERTEX
 8
0
 10
345.224151
 20
104.061172
 0
VERTEX
 8
0
 10
345.088696
 20
104.312065
 0
VERTEX
 8
0
 10
344.987097
 20
104.568234
 0
VERTEX
 8
0
 10
344.919957
 20
104.828157
 0
VERTEX
 8
0
 10
344.887676
 20
105.090292
 0
VERTEX
 8
0
 10
344.884566
 20
105.20096 
 0
SEQEND
 8
0
 0
POLYLINE
 8
0
 62
7
 66
1
 10
0
 20
0
 70
0
 0
VERTEX
 8
0
 10
354.901905
 20
256.182826
 0
VERTEX
 8
0
 10
354.56455
 20
256.362754
 0
VERTEX
 8
0
 10
354.203627
 20
256.526735
 0
VERTEX
 8
0
 10
353.821394
 20
256.673744
 0
VERTEX
 8
0
 10
353.420237
 20
256.802861
 0
VERTEX
 8
0
 10
353.002665
 20
256.91328
 0
VERTEX
 8
0
 10
352.571287
 20
257.004312
 0
VERTEX
 8
0
 10
352.128801
 20
257.075385
 0
VERTEX
 8
0
 10
351.677972
 20
257.126057
 0
VERTEX
 8
0
 10
351.221618
 20
257.15601
 0
VERTEX
 8
0
 10
350.76259
 20
257.165059
 0
VERTEX
 8
0
 10
350.30376
 20
257.153145
 0
VERTEX
 8
0
 10
349.847994
 20
257.120343
 0
VERTEX
 8
0
 10
349.39814
 20
257.066859
 0
VERTEX
 8
0
 10
348.957011
 20
256.993028
 0
VERTEX
 8
0
 10
348.527366
 20
256.899308
 0
VERTEX
 8
0
 10
348.111886
 20
256.786288
 0
VERTEX
 8
0
 10
347.713173
 20
256.654673
 0
VERTEX
 8
0
 10
347.333713
 20
256.505287
 0
VERTEX
 8
0
 10
346.975885
 20
256.339062
 0
VERTEX
 8
0
 10
346.641921
 20
256.157038
 0
VERTEX
 8
0
 10
346.333909
 20
255.960353
 0
VERTEX
 8
0
 10
346.053777
 20
255.750235
 0
VERTEX
 8
0
 10
345.803272
 20
255.527999
 0
VERTEX
 8
0
 10
345.583961
 20
255.295033
 0
VERTEX
 8
0
 10
345.397217
 20
255.052793
 0
VERTEX
 8
0
 10
345.244204
 20
254.802794
 0
VERTEX
 8
0
 10
345.12588
 20
254.5466
 0
VERTEX
 8
0
 10
345.042987
 20
254.285807
 0
VERTEX
 8
0
 10
344.996038
 20
254.022051
 0
VERTEX
 8
0
 10
344.98533
 20
253.756979
 0
VERTEX
 8
0
 10
345.01093
 20
253.492245
 0
VERTEX
 8
0
 10
345.072675
 20
253.229508
 0
VERTEX
 8
0
 10
345.170182
 20
252.970406
 0
VERTEX
 8
0
 10
345.302842
 20
252.716561
 0
VERTEX
 8
0
 10
345.469823
 20
252.46956
 0
VERTEX
 8
0
 10
345.670083
 20
252.230946
 0
VERTEX
 8
0
 10
345.902371
 20
252.00221
 0
VERTEX
 8
0
 10
346.165233
 20
251.784782 
 0
SEQEND
 8
0
 0
POLYLINE
 8
0
 62
7
 66
1
 10
0
 20
0
 70
0
 0
VERTEX
 8
0
 10
346.769519
 20
107.61959
 0
VERTEX
 8
0
 10
346.975885
 20
107.728635
 0
VERTEX
 8
0
 10
347.333713
 20
107.89486
 0
VERTEX
 8
0
 10
347.713173
 20
108.044246
 0
VERTEX
 8
0
 10
348.111886
 20
108.175861
 0
VERTEX
 8
0
 10
348.527366
 20
108.28888
 0
VERTEX
 8
0
 10
348.957011
 20
108.3826
 0
VERTEX
 8
0
 10
349.39814
 20
108.456432
 0
VERTEX
 8
0
 10
349.847994
 20
108.509916
 0
VERTEX
 8
0
 10
350.30376
 20
108.542718
 0
VERTEX
 8
0
 10
350.76259
 20
108.554632
 0
VERTEX
 8
0
 10
351.221618
 20
108.545583
 0
VERTEX
 8
0
 10
351.677972
 20
108.51563
 0
VERTEX
 8
0
 10
352.128801
 20
108.464958
 0
VERTEX
 8
0
 10
352.571287
 20
108.393884
 0
VERTEX
 8
0
 10
353.002665
 20
108.302853
 0
VERTEX
 8
0
 10
353.420237
 20
108.192434
 0
VERTEX
 8
0
 10
353.821394
 20
108.063316
 0
VERTEX
 8
0
 10
354.203627
 20
107.916308
 0
VERTEX
 8
0
 10
354.56455
 20
107.752327
 0
VERTEX
 8
0
 10
354.901905
 20
107.572399 
 0
SEQEND
 8
0
 0
POLYLINE
 8
0
 62
7
 66
1
 10
0
 20
0
 70
0
 0
VERTEX
 8
0
 10
346.219618
 20
249.579553
 0
VERTEX
 8
0
 10
346.229278
 20
249.637822
 0
VERTEX
 8
0
 10
346.230233
 20
249.640123 
 0
SEQEND
 8
0
 0
ARC
 8
0
 62
7
 10
346.549239
 20
249.575645
 40
0.329644
 50
179.320638
 51
239.74104
 0
POLYLINE
 8
0
 62
7
 66
1
 10
0
 20
0
 70
0
 0
VERTEX
 8
0
 10
346.219618
 20
246.476699
 0
VERTEX
 8
0
 10
346.229278
 20
246.534963
 0
VERTEX
 8
0
 10
346.230233
 20
246.537269 
 0
SEQEND
 8
0
 0
ARC
 8
0
 62
7
 10
346.549249
 20
246.472791
 40
0.329653
 50
179.320732
 51
239.740117
 0
POLYLINE
 8
0
 62
7
 66
1
 10
0
 20
0
 70
0
 0
VERTEX
 8
0
 10
375.797759
 20
161.622871
 0
VERTEX
 8
0
 10
375.810496
 20
161.682914
 0
VERTEX
 8
0
 10
375.812686
 20
161.687131 
 0
SEQEND
 8
0
 0
ARC
 8
0
 62
7
 10
376.048068
 20
161.616331
 40
0.250394
 50
178.503276
 51
272.055099
 0
POLYLINE
 8
0
 62
7
 66
1
 10
0
 20
0
 70
0
 0
VERTEX
 8
0
 10
375.797759
 20
158.520016
 0
VERTEX
 8
0
 10
375.810496
 20
158.580059
 0
VERTEX
 8
0
 10
375.812686
 20
158.584276 
 0
SEQEND
 8
0
 0
ARC
 8
0
 62
7
 10
376.048068
 20
158.513476
 40
0.250395
 50
178.50337
 51
272.054988
 0
POLYLINE
 8
0
 62
7
 66
1
 10
0
 20
0
 70
0
 0
VERTEX
 8
0
 10
346.219618
 20
178.744637
 0
VERTEX
 8
0
 10
346.229278
 20
178.802904
 0
VERTEX
 8
0
 10
346.230233
 20
178.805209 
 0
SEQEND
 8
0
 0
ARC
 8
0
 62
7
 10
346.549243
 20
178.74073
 40
0.329648
 50
179.320834
 51
239.740475
 0
POLYLINE
 8
0
 62
7
 66
1
 10
0
 20
0
 70
0
 0
VERTEX
 8
0
 10
346.219618
 20
175.641782
 0
VERTEX
 8
0
 10
346.229278
 20
175.700049
 0
VERTEX
 8
0
 10
346.230233
 20
175.702354 
 0
SEQEND
 8
0
 0
ARC
 8
0
 62
7
 10
346.549243
 20
175.637875
 40
0.329648
 50
179.320838
 51
239.740459
 0
POLYLINE
 8
0
 62
7
 66
1
 10
0
 20
0
 70
0
 0
VERTEX
 8
0
 10
375.797759
 20
90.787955
 0
VERTEX
 8
0
 10
375.810496
 20
90.848
 0
VERTEX
 8
0
 10
375.812687
 20
90.852214 
 0
SEQEND
 8
0
 0
ARC
 8
0
 62
7
 10
376.048071
 20
90.781418
 40
0.250397
 50
178.504055
 51
272.054354
 0
POLYLINE
 8
0
 62
7
 66
1
 10
0
 20
0
 70
0
 0
VERTEX
 8
0
 10
375.797759
 20
87.685101
 0
VERTEX
 8
0
 10
375.810496
 20
87.745146
 0
VERTEX
 8
0
 10
375.812687
 20
87.74936 
 0
SEQEND
 8
0
 0
ARC
 8
0
 62
7
 10
376.048071
 20
87.678564
 40
0.250397
 50
178.504055
 51
272.054354
 0
POLYLINE
 8
0
 62
7
 66
1
 10
0
 20
0
 70
0
 0
VERTEX
 8
0
 10
346.219618
 20
107.909721
 0
VERTEX
 8
0
 10
346.229278
 20
107.96799
 0
VERTEX
 8
0
 10
346.230233
 20
107.970296 
 0
SEQEND
 8
0
 0
ARC
 8
0
 62
7
 10
346.549239
 20
107.905813
 40
0.329644
 50
179.320638
 51
239.74104
 0
POLYLINE
 8
0
 62
7
 66
1
 10
0
 20
0
 70
0
 0
VERTEX
 8
0
 10
346.219618
 20
104.806867
 0
VERTEX
 8
0
 10
346.229278
 20
104.865136
 0
VERTEX
 8
0
 10
346.230233
 20
104.867442 
 0
SEQEND
 8
0
 0
ARC
 8
0
 62
7
 10
346.549239
 20
104.802959
 40
0.329644
 50
179.320638
 51
239.74104
 0
ARC
 8
0
 62
7
 10
346.682291
 20
102.861901
 40
0.088647
 50
-58.296899
 51
10.264027
 0
LINE
 8
0
 62
7
 10
383.822573
 20
239.48728
 11
383.893283
 21
239.528101
 0
LINE
 8
0
 62
7
 10
376.204111
 20
234.443707
 11
376.143683
 21
234.39771
 0
LINE
 8
0
 62
7
 10
376.143683
 20
85.787283
 11
376.143683
 21
234.39771
 0
LINE
 8
0
 62
7
 10
383.822573
 20
234.744406
 11
383.822573
 21
239.48728
 0
LINE
 8
0
 62
7
 10
375.566698
 20
234.722784
 11
375.506269
 21
234.676788
 0
LINE
 8
0
 62
7
 10
354.901905
 20
256.182826
 11
354.972615
 21
256.223647
 0
LINE
 8
0
 62
7
 10
354.901905
 20
107.572399
 11
354.901905
 21
256.182826
 0
LINE
 8
0
 62
7
 10
346.648662
 20
251.416811
 11
346.568985
 21
251.381927
 0
LINE
 8
0
 62
7
 10
346.769519
 20
251.161512
 11
346.689842
 21
251.126627
 0
LINE
 8
0
 62
7
 10
346.085556
 20
103.13947
 11
346.085556
 21
251.749898
 0
LINE
 8
0
 62
7
 10
346.769519
 20
102.877697
 11
346.689842
 21
102.842812
 0
LINE
 8
0
 62
7
 10
346.165233
 20
251.784782
 11
346.085556
 21
251.749898
 0
ENDSEC
 0
EOF
