 0
SECTION
 2
HEADER
 9
$ACADVER
 1
AC1009
 9
$EXTMIN
 10
1996.7682
 20
1711.5989
 30
0
 9
$EXTMAX
 10
2641.9282
 20
2034.179
 30
0
 9
$VIEWCTR
 10
2319.34814453125
 20
1872.888916015625
 9
$VIEWSIZE
 40
425.806
 0
ENDSEC
 0
SECTION
 2
TABLES
 0
TABLE
 2
LAYER
 70
6
 0
LAYER
 2
0
 70
0
 62
7
 6
CONTINUOUS
 0
LAYER
 2
DEFAULT
 70
0
 62
7
 6
CONTINUOUS
 0
LAYER
 2
AUTO_-_HIDE
 70
0
 62
0
 6
CONTINUOUS
 0
LAYER
 2
MARK
 70
0
 62
7
 6
CONTINUOUS
 0
LAYER
 2
DV1_MARK
 70
0
 62
7
 6
CONTINUOUS
 0
LAYER
 2
DV1_DEFAULT
 70
0
 62
7
 6
CONTINUOUS
 0
ENDTAB
 0
TABLE
 2
STYLE
 70
1
 0
STYLE
 2
Standard
 70
0
 40
0
 41
1
 50
0
 71
0
 42
1
 3
txt
 4

 0
ENDTAB
 0
TABLE
 2
DIMSTYLE
 70
1
 0
DIMSTYLE
 2
Standard
 70
0
 3

 4

 5

 6

 7

 40
1
 41
0.18
 42
0.0625
 43
0.375
 44
0.18
 45
0
 46
0
 47
0
 48
0
 140
0.18
 141
0.09
 142
0
 143
25.4
 144
1
 145
0
 146
1
 147
0.09
 71
0
 72
0
 73
1
 74
1
 75
0
 76
0
 77
0
 78
0
 170
0
 171
2
 172
0
 173
0
 174
0
 175
0
 176
0
 177
0
 178
0
 0
ENDTAB
 0
ENDSEC
 0
SECTION
 2
BLOCKS
 0
BLOCK
 2
SE0
 70
0
 10
0
 20
0
 0
ENDBLK
 0
BLOCK
 2
SE1
 70
0
 10
0
 20
0
 0
LINE
 8
DV1_MARK
 10
2275.271786
 20
1851.009421
 11
2292.449152
 21
1851.009421
 0
LINE
 8
DV1_MARK
 10
2292.449152
 20
1851.009421
 11
2292.449152
 21
1846.871132
 0
LINE
 8
DV1_MARK
 10
2292.449152
 20
1846.871132
 11
2269.33022
 21
1846.871132
 0
LINE
 8
DV1_MARK
 10
2274.53198
 20
1871.16913
 11
2270.185621
 21
1871.654627
 0
LINE
 8
DV1_MARK
 10
2319.521422
 20
1851.009421
 11
2319.521422
 21
1846.871132
 0
LINE
 8
DV1_MARK
 10
2302.344055
 20
1851.009421
 11
2319.521422
 21
1851.009421
 0
LINE
 8
DV1_MARK
 10
2319.521422
 20
1846.871132
 11
2296.425608
 21
1846.871132
 0
LINE
 8
DV1_MARK
 10
2301.604249
 20
1871.16913
 11
2297.281009
 21
1871.654627
 0
LINE
 8
DV1_MARK
 10
2328.21414
 20
1864.742067
 11
2328.329735
 21
1864.742067
 0
LINE
 8
DV1_MARK
 10
2346.362502
 20
1873.064882
 11
2342.06238
 21
1872.694979
 0
LINE
 8
DV1_MARK
 10
2367.192659
 20
1881.803838
 11
2367.192659
 21
1846.871132
 0
LINE
 8
DV1_MARK
 10
2354.361652
 20
1868.903474
 11
2354.361652
 21
1873.064882
 0
LINE
 8
DV1_MARK
 10
2367.192659
 20
1846.871132
 11
2362.915657
 21
1846.871132
 0
LINE
 8
DV1_MARK
 10
2362.915657
 20
1846.871132
 11
2362.915657
 21
1874.035877
 0
ARC
 8
DV1_MARK
 10
2345.181792
 20
1893.89778
 40
26.626775
 50
-69.832824
 51
-48.239663
 0
LINE
 8
DV1_MARK
 10
2385.225426
 20
1851.749227
 11
2385.225426
 21
1846.871132
 0
LINE
 8
DV1_MARK
 10
2380.324213
 20
1851.749227
 11
2385.225426
 21
1851.749227
 0
LINE
 8
DV1_MARK
 10
2385.225426
 20
1846.871132
 11
2380.324213
 21
1846.871132
 0
LINE
 8
DV1_MARK
 10
2380.324213
 20
1846.871132
 11
2380.324213
 21
1851.749227
 0
LINE
 8
DV1_MARK
 10
2395.767659
 20
1864.742067
 11
2395.860135
 21
1864.742067
 0
LINE
 8
DV1_MARK
 10
2413.892902
 20
1873.064882
 11
2409.6159
 21
1872.694979
 0
ARC
 8
DV1_MARK
 10
2195.172802
 20
1788.516293
 40
15.8523
 50
49.463475
 51
76.278272
 0
ARC
 8
DV1_MARK
 10
2224.612359
 20
1818.630755
 40
25.736758
 50
-127.050722
 51
-112.09566
 0
LINE
 8
DV1_MARK
 10
2214.931373
 20
1794.784178
 11
2213.567356
 21
1791.593766
 0
ARC
 8
DV1_MARK
 10
2223.174057
 20
1817.138924
 40
27.291826
 50
-128.727178
 51
-110.609643
 0
LINE
 8
DV1_MARK
 10
2197.823363
 20
1800.563911
 11
2198.933072
 21
1803.916156
 0
ARC
 8
DV1_MARK
 10
2194.634134
 20
1787.484764
 40
13.462365
 50
55.126022
 51
76.296374
 0
LINE
 8
DV1_MARK
 10
2231.207101
 20
1809.048559
 11
2231.207101
 21
1804.771557
 0
LINE
 8
DV1_MARK
 10
2218.191142
 20
1804.771557
 11
2218.191142
 21
1809.048559
 0
LINE
 8
DV1_MARK
 10
2218.191142
 20
1809.048559
 11
2231.207101
 21
1809.048559
 0
LINE
 8
DV1_MARK
 10
2231.207101
 20
1804.771557
 11
2218.191142
 21
1804.771557
 0
LINE
 8
DV1_MARK
 10
2264.706434
 20
1806.551715
 11
2275.641689
 21
1806.551715
 0
LINE
 8
DV1_MARK
 10
2275.641689
 20
1806.551715
 11
2275.641689
 21
1822.180113
 0
LINE
 8
DV1_MARK
 10
2284.611834
 20
1802.644615
 11
2279.918691
 21
1802.644615
 0
LINE
 8
DV1_MARK
 10
2284.611834
 20
1806.551715
 11
2284.611834
 21
1802.644615
 0
LINE
 8
DV1_MARK
 10
2279.918691
 20
1806.551715
 11
2284.611834
 21
1806.551715
 0
LINE
 8
DV1_MARK
 10
2279.918691
 20
1802.644615
 11
2279.918691
 21
1794.344919
 0
LINE
 8
DV1_MARK
 10
2279.918691
 20
1794.344919
 11
2275.641689
 21
1794.344919
 0
LINE
 8
DV1_MARK
 10
2275.641689
 20
1794.344919
 11
2275.641689
 21
1802.644615
 0
LINE
 8
DV1_MARK
 10
2275.641689
 20
1802.644615
 11
2260.545026
 21
1802.644615
 0
LINE
 8
DV1_MARK
 10
2275.549213
 20
1822.180113
 11
2264.706434
 21
1806.551715
 0
LINE
 8
DV1_MARK
 10
2276.404613
 20
1829.092673
 11
2279.918691
 21
1829.092673
 0
LINE
 8
DV1_MARK
 10
2279.918691
 20
1829.092673
 11
2279.918691
 21
1806.551715
 0
LINE
 8
DV1_MARK
 10
2260.545026
 20
1802.644615
 11
2260.545026
 21
1806.551715
 0
LINE
 8
DV1_MARK
 10
2260.545026
 20
1806.551715
 11
2276.404613
 21
1829.092673
 0
LINE
 8
DV1_MARK
 10
2275.641689
 20
1822.180113
 11
2275.549213
 21
1822.180113
 0
LINE
 8
DV1_MARK
 10
2305.095208
 20
1829.277625
 11
2305.095208
 21
1794.344919
 0
LINE
 8
DV1_MARK
 10
2292.264201
 20
1816.377261
 11
2292.264201
 21
1820.538669
 0
LINE
 8
DV1_MARK
 10
2305.095208
 20
1794.344919
 11
2300.818206
 21
1794.344919
 0
LINE
 8
DV1_MARK
 10
2300.818206
 20
1794.344919
 11
2300.818206
 21
1821.509664
 0
ARC
 8
DV1_MARK
 10
2283.08434
 20
1841.371567
 40
26.626775
 50
-69.832824
 51
-48.239663
 0
LINE
 8
DV1_MARK
 10
2319.267113
 20
1816.377261
 11
2319.267113
 21
1820.538669
 0
LINE
 8
DV1_MARK
 10
2332.12124
 20
1829.277625
 11
2332.12124
 21
1794.344919
 0
LINE
 8
DV1_MARK
 10
2332.12124
 20
1794.344919
 11
2327.821118
 21
1794.344919
 0
LINE
 8
DV1_MARK
 10
2327.821118
 20
1794.344919
 11
2327.821118
 21
1821.509664
 0
ARC
 8
DV1_MARK
 10
2310.205824
 20
1841.173948
 40
26.40043
 50
-69.926515
 51
-48.145972
 0
LINE
 8
DV1_MARK
 10
2355.517599
 20
1809.048559
 11
2355.517599
 21
1804.771557
 0
LINE
 8
DV1_MARK
 10
2342.50164
 20
1804.771557
 11
2342.50164
 21
1809.048559
 0
LINE
 8
DV1_MARK
 10
2342.50164
 20
1809.048559
 11
2355.517599
 21
1809.048559
 0
LINE
 8
DV1_MARK
 10
2355.517599
 20
1804.771557
 11
2342.50164
 21
1804.771557
 0
LINE
 8
DV1_MARK
 10
2390.958922
 20
1819.382722
 11
2386.681919
 21
1820.168766
 0
LINE
 8
DV1_MARK
 10
2416.042963
 20
1806.551715
 11
2426.978218
 21
1806.551715
 0
LINE
 8
DV1_MARK
 10
2426.978218
 20
1806.551715
 11
2426.978218
 21
1822.180113
 0
LINE
 8
DV1_MARK
 10
2431.25522
 20
1794.344919
 11
2426.978218
 21
1794.344919
 0
LINE
 8
DV1_MARK
 10
2435.948363
 20
1806.551715
 11
2435.948363
 21
1802.644615
 0
LINE
 8
DV1_MARK
 10
2435.948363
 20
1802.644615
 11
2431.25522
 21
1802.644615
 0
LINE
 8
DV1_MARK
 10
2431.25522
 20
1802.644615
 11
2431.25522
 21
1794.344919
 0
LINE
 8
DV1_MARK
 10
2431.25522
 20
1806.551715
 11
2435.948363
 21
1806.551715
 0
LINE
 8
DV1_MARK
 10
2426.978218
 20
1802.644615
 11
2411.881555
 21
1802.644615
 0
LINE
 8
DV1_MARK
 10
2411.881555
 20
1802.644615
 11
2411.881555
 21
1806.551715
 0
LINE
 8
DV1_MARK
 10
2426.978218
 20
1794.344919
 11
2426.978218
 21
1802.644615
 0
LINE
 8
DV1_MARK
 10
2411.881555
 20
1806.551715
 11
2427.741142
 21
1829.092673
 0
LINE
 8
DV1_MARK
 10
2427.741142
 20
1829.092673
 11
2431.25522
 21
1829.092673
 0
LINE
 8
DV1_MARK
 10
2426.978218
 20
1822.180113
 11
2426.862623
 21
1822.180113
 0
LINE
 8
DV1_MARK
 10
2426.862623
 20
1822.180113
 11
2416.042963
 21
1806.551715
 0
LINE
 8
DV1_MARK
 10
2431.25522
 20
1829.092673
 11
2431.25522
 21
1806.551715
 0
LINE
 8
DV1_MARK
 10
2447.7159
 20
1824.445768
 11
2445.912623
 21
1815.221314
 0
LINE
 8
DV1_MARK
 10
2461.633497
 20
1824.445768
 11
2447.7159
 21
1824.445768
 0
LINE
 8
DV1_MARK
 10
2461.633497
 20
1828.607176
 11
2461.633497
 21
1824.445768
 0
LINE
 8
DV1_MARK
 10
2440.965172
 20
1810.690003
 11
2444.363655
 21
1828.607176
 0
LINE
 8
DV1_MARK
 10
2444.363655
 20
1828.607176
 11
2461.633497
 21
1828.607176
 0
LINE
 8
DV1_MARK
 10
2490.046664
 20
1828.607176
 11
2490.046664
 21
1825.27805
 0
LINE
 8
DV1_MARK
 10
2467.551943
 20
1824.445768
 11
2467.551943
 21
1828.607176
 0
LINE
 8
DV1_MARK
 10
2467.551943
 20
1828.607176
 11
2490.046664
 21
1828.607176
 0
ARC
 8
DV1_MARK
 10
2524.365657
 20
1790.940506
 40
52.024011
 50
139.90667
 51
176.247926
 0
LINE
 8
DV1_MARK
 10
2484.567477
 20
1824.445768
 11
2467.551943
 21
1824.445768
 0
LINE
 8
DV1_MARK
 10
2183.720815
 20
1751.898559
 11
2194.65607
 21
1751.898559
 0
LINE
 8
DV1_MARK
 10
2194.65607
 20
1751.898559
 11
2194.65607
 21
1767.526957
 0
LINE
 8
DV1_MARK
 10
2203.626215
 20
1751.898559
 11
2203.626215
 21
1747.99146
 0
LINE
 8
DV1_MARK
 10
2198.933072
 20
1751.898559
 11
2203.626215
 21
1751.898559
 0
LINE
 8
DV1_MARK
 10
2198.933072
 20
1747.99146
 11
2198.933072
 21
1739.668644
 0
LINE
 8
DV1_MARK
 10
2203.626215
 20
1747.99146
 11
2198.933072
 21
1747.99146
 0
LINE
 8
DV1_MARK
 10
2198.933072
 20
1739.668644
 11
2194.65607
 21
1739.668644
 0
LINE
 8
DV1_MARK
 10
2195.418994
 20
1774.439518
 11
2198.933072
 21
1774.439518
 0
LINE
 8
DV1_MARK
 10
2194.65607
 20
1739.668644
 11
2194.65607
 21
1747.99146
 0
LINE
 8
DV1_MARK
 10
2198.933072
 20
1774.439518
 11
2198.933072
 21
1751.898559
 0
LINE
 8
DV1_MARK
 10
2194.65607
 20
1747.99146
 11
2179.559407
 21
1747.99146
 0
LINE
 8
DV1_MARK
 10
2179.559407
 20
1751.898559
 11
2195.418994
 21
1774.439518
 0
LINE
 8
DV1_MARK
 10
2179.559407
 20
1747.99146
 11
2179.559407
 21
1751.898559
 0
LINE
 8
DV1_MARK
 10
2194.563594
 20
1767.526957
 11
2183.720815
 21
1751.898559
 0
LINE
 8
DV1_MARK
 10
2194.65607
 20
1767.526957
 11
2194.563594
 21
1767.526957
 0
LINE
 8
DV1_DEFAULT
 10
2480.638243
 20
1711.598914
 11
2037.154243
 21
1711.598914
 0
ARC
 8
DV1_DEFAULT
 10
2480.638243
 20
1872.888914
 40
161.29
 50
-90
 51
90
 0
LINE
 8
DV1_MARK
 10
2224.040232
 20
1774.601351
 11
2224.040232
 21
1739.668644
 0
LINE
 8
DV1_MARK
 10
2211.209225
 20
1761.724105
 11
2211.209225
 21
1765.885513
 0
LINE
 8
DV1_MARK
 10
2224.040232
 20
1739.668644
 11
2219.76323
 21
1739.668644
 0
LINE
 8
DV1_MARK
 10
2219.76323
 20
1739.668644
 11
2219.76323
 21
1766.856508
 0
ARC
 8
DV1_MARK
 10
2202.361568
 20
1786.164739
 40
25.992799
 50
-70.099438
 51
-47.973049
 0
LINE
 8
DV1_MARK
 10
2261.516021
 20
1754.395404
 11
2274.53198
 21
1754.395404
 0
LINE
 8
DV1_MARK
 10
2261.516021
 20
1750.118402
 11
2261.516021
 21
1754.395404
 0
LINE
 8
DV1_MARK
 10
2274.53198
 20
1754.395404
 11
2274.53198
 21
1750.118402
 0
LINE
 8
DV1_MARK
 10
2274.53198
 20
1750.118402
 11
2261.516021
 21
1750.118402
 0
LINE
 8
DV1_MARK
 10
2308.054431
 20
1751.898559
 11
2318.966567
 21
1751.898559
 0
LINE
 8
DV1_MARK
 10
2318.966567
 20
1751.898559
 11
2318.966567
 21
1767.526957
 0
LINE
 8
DV1_MARK
 10
2323.24357
 20
1739.668644
 11
2318.966567
 21
1739.668644
 0
LINE
 8
DV1_MARK
 10
2323.24357
 20
1747.99146
 11
2323.24357
 21
1739.668644
 0
LINE
 8
DV1_MARK
 10
2323.24357
 20
1751.898559
 11
2327.959832
 21
1751.898559
 0
LINE
 8
DV1_MARK
 10
2327.959832
 20
1747.99146
 11
2323.24357
 21
1747.99146
 0
LINE
 8
DV1_MARK
 10
2327.959832
 20
1751.898559
 11
2327.959832
 21
1747.99146
 0
LINE
 8
DV1_MARK
 10
2318.966567
 20
1739.668644
 11
2318.966567
 21
1747.99146
 0
LINE
 8
DV1_MARK
 10
2318.966567
 20
1747.99146
 11
2303.869905
 21
1747.99146
 0
LINE
 8
DV1_MARK
 10
2303.869905
 20
1751.898559
 11
2319.729492
 21
1774.439518
 0
LINE
 8
DV1_MARK
 10
2319.729492
 20
1774.439518
 11
2323.24357
 21
1774.439518
 0
LINE
 8
DV1_MARK
 10
2303.869905
 20
1747.99146
 11
2303.869905
 21
1751.898559
 0
LINE
 8
DV1_MARK
 10
2318.874091
 20
1767.526957
 11
2308.054431
 21
1751.898559
 0
LINE
 8
DV1_MARK
 10
2318.966567
 20
1767.526957
 11
2318.874091
 21
1767.526957
 0
LINE
 8
DV1_MARK
 10
2323.24357
 20
1774.439518
 11
2323.24357
 21
1751.898559
 0
LINE
 8
DV1_MARK
 10
2339.658011
 20
1769.792613
 11
2337.854735
 21
1760.54504
 0
LINE
 8
DV1_MARK
 10
2353.55249
 20
1769.792613
 11
2339.658011
 21
1769.792613
 0
LINE
 8
DV1_MARK
 10
2353.55249
 20
1773.930902
 11
2353.55249
 21
1769.792613
 0
LINE
 8
DV1_MARK
 10
2336.305766
 20
1773.930902
 11
2353.55249
 21
1773.930902
 0
LINE
 8
DV1_MARK
 10
2332.907283
 20
1756.036848
 11
2336.305766
 21
1773.930902
 0
ARC
 8
DV1_MARK
 10
2368.57601
 20
1623.096895
 40
396.610744
 50
81.247684
 51
97.598826
 0
POLYLINE
 8
DV1_MARK
 66
1
 10
0
 20
0
 70
0
 0
VERTEX
 8
0
 10
2479.578891
 20
1892.473692
 0
VERTEX
 8
0
 10
2492.323225
 20
1893.542452
 0
VERTEX
 8
0
 10
2504.347668
 20
1895.071288
 0
VERTEX
 8
0
 10
2515.561182
 20
1897.048624
 0
VERTEX
 8
0
 10
2525.87887
 20
1899.459491
 0
VERTEX
 8
0
 10
2535.222619
 20
1902.285636
 0
VERTEX
 8
0
 10
2543.521686
 20
1905.505662
 0
VERTEX
 8
0
 10
2550.713239
 20
1909.095191
 0
VERTEX
 8
0
 10
2556.742833
 20
1913.027046
 0
VERTEX
 8
0
 10
2561.564816
 20
1917.271459
 0
VERTEX
 8
0
 10
2565.142681
 20
1921.796297
 0
VERTEX
 8
0
 10
2567.449342
 20
1926.567301
 0
VERTEX
 8
0
 10
2568.467334
 20
1931.548351
 0
VERTEX
 8
0
 10
2568.18895
 20
1936.701735
 0
VERTEX
 8
0
 10
2566.616297
 20
1941.988437
 0
VERTEX
 8
0
 10
2563.761283
 20
1947.368433
 0
VERTEX
 8
0
 10
2559.645522
 20
1952.800989
 0
VERTEX
 8
0
 10
2554.300175
 20
1958.244976
 0
VERTEX
 8
0
 10
2547.765711
 20
1963.659179
 0
VERTEX
 8
0
 10
2540.091602
 20
1969.002606
 0
VERTEX
 8
0
 10
2531.335948
 20
1974.234803
 0
VERTEX
 8
0
 10
2521.56504
 20
1979.316156
 0
VERTEX
 8
0
 10
2510.85285
 20
1984.208195
 0
VERTEX
 8
0
 10
2499.280482
 20
1988.873883
 0
VERTEX
 8
0
 10
2486.935549
 20
1993.277895
 0
VERTEX
 8
0
 10
2473.911515
 20
1997.38689
 0
VERTEX
 8
0
 10
2460.306983
 20
2001.169758
 0
VERTEX
 8
0
 10
2446.224953
 20
2004.597859
 0
VERTEX
 8
0
 10
2431.77204
 20
2007.645239
 0
VERTEX
 8
0
 10
2417.057666
 20
2010.288826
 0
VERTEX
 8
0
 10
2402.193233
 20
2012.508607
 0
VERTEX
 8
0
 10
2387.29128
 20
2014.287774
 0
VERTEX
 8
0
 10
2372.464627
 20
2015.612859
 0
VERTEX
 8
0
 10
2357.825529
 20
2016.473829
 0
VERTEX
 8
0
 10
2343.484816
 20
2016.864165
 0
VERTEX
 8
0
 10
2329.551061
 20
2016.780913
 0
VERTEX
 8
0
 10
2316.129757
 20
2016.224702 
 0
SEQEND
 8
0
 0
LINE
 8
DV1_MARK
 10
2358.754249
 20
1754.395404
 11
2371.770208
 21
1754.395404
 0
LINE
 8
DV1_MARK
 10
2371.770208
 20
1754.395404
 11
2371.770208
 21
1750.118402
 0
LINE
 8
DV1_MARK
 10
2358.754249
 20
1750.118402
 11
2358.754249
 21
1754.395404
 0
LINE
 8
DV1_MARK
 10
2371.770208
 20
1750.118402
 11
2358.754249
 21
1750.118402
 0
LINE
 8
DV1_MARK
 10
2394.056858
 20
1756.013729
 11
2393.964383
 21
1756.013729
 0
LINE
 8
DV1_MARK
 10
2376.04721
 20
1747.714033
 11
2380.16238
 21
1748.037698
 0
LINE
 8
DV1_MARK
 10
2425.267417
 20
1773.930902
 11
2425.267417
 21
1770.624894
 0
LINE
 8
DV1_MARK
 10
2402.772696
 20
1773.930902
 11
2425.267417
 21
1773.930902
 0
LINE
 8
DV1_MARK
 10
2402.772696
 20
1769.792613
 11
2402.772696
 21
1773.930902
 0
ARC
 8
DV1_MARK
 10
2459.953094
 20
1736.133195
 40
52.421659
 50
140.052166
 51
176.132893
 0
LINE
 8
DV1_MARK
 10
2419.765111
 20
1769.792613
 11
2402.772696
 21
1769.792613
 0
LINE
 8
DV1_MARK
 10
2452.03914
 20
1743.830052
 11
2452.03914
 21
1739.668644
 0
LINE
 8
DV1_MARK
 10
2434.861773
 20
1743.830052
 11
2452.03914
 21
1743.830052
 0
LINE
 8
DV1_MARK
 10
2434.121968
 20
1763.989761
 11
2429.775608
 21
1764.475258
 0
LINE
 8
DV1_MARK
 10
2452.03914
 20
1739.668644
 11
2428.920208
 21
1739.668644
 0
CIRCLE
 8
DV1_DEFAULT
 10
2077.540243
 20
1872.888914
 40
40.386
 0
LINE
 8
DV1_DEFAULT
 10
2037.154243
 20
2034.178914
 11
2480.638243
 21
2034.178914
 0
ARC
 8
DV1_DEFAULT
 10
2037.154243
 20
1993.792914
 40
40.386
 50
90
 51
180
 0
LINE
 8
DV1_DEFAULT
 10
1996.768243
 20
1751.984914
 11
1996.768243
 21
1993.792914
 0
ARC
 8
DV1_DEFAULT
 10
2037.154243
 20
1751.984914
 40
40.386
 50
180
 51
270
 0
LINE
 8
DV1_MARK
 10
2339.317575
 20
1957.40237
 11
2346.954593
 21
1957.40237
 0
LINE
 8
DV1_MARK
 10
2318.044543
 20
1957.40237
 11
2325.766653
 21
1957.40237
 0
LINE
 8
DV1_MARK
 10
2366.398144
 20
1949.637713
 11
2361.675531
 21
1938.065184
 0
LINE
 8
DV1_MARK
 10
2370.674024
 20
1938.065184
 11
2366.398144
 21
1949.637713
 0
LINE
 8
DV1_MARK
 10
2361.675531
 20
1938.065184
 11
2370.674024
 21
1938.065184
 0
LINE
 8
DV1_MARK
 10
2357.016737
 20
1926.875569
 11
2348.869166
 21
1926.875569
 0
LINE
 8
DV1_MARK
 10
2348.869166
 20
1926.875569
 11
2362.186084
 21
1957.40237
 0
LINE
 8
DV1_MARK
 10
2362.186084
 20
1957.40237
 11
2371.014392
 21
1957.40237
 0
LINE
 8
DV1_MARK
 10
2359.463136
 20
1932.832018
 11
2357.016737
 21
1926.875569
 0
LINE
 8
DV1_MARK
 10
2371.014392
 20
1957.40237
 11
2382.906017
 21
1926.875569
 0
LINE
 8
DV1_MARK
 10
2382.906017
 20
1926.875569
 11
2374.800992
 21
1926.875569
 0
LINE
 8
DV1_MARK
 10
2374.800992
 20
1926.875569
 11
2372.631143
 21
1932.832018
 0
LINE
 8
DV1_MARK
 10
2372.631143
 20
1932.832018
 11
2359.463136
 21
1932.832018
 0
LINE
 8
DV1_MARK
 10
2405.795799
 20
1932.789472
 11
2405.795799
 21
1926.875569
 0
LINE
 8
DV1_MARK
 10
2405.795799
 20
1926.875569
 11
2384.990774
 21
1926.875569
 0
LINE
 8
DV1_MARK
 10
2392.627792
 20
1932.789472
 11
2405.795799
 21
1932.789472
 0
LINE
 8
DV1_MARK
 10
2384.990774
 20
1926.875569
 11
2384.990774
 21
1957.40237
 0
LINE
 8
DV1_MARK
 10
2384.990774
 20
1957.40237
 11
2392.627792
 21
1957.40237
 0
LINE
 8
DV1_MARK
 10
2392.627792
 20
1957.40237
 11
2392.627792
 21
1932.789472
 0
LINE
 8
DV1_MARK
 10
2424.686251
 20
1926.875569
 11
2416.645045
 21
1926.875569
 0
LINE
 8
DV1_MARK
 10
2424.686251
 20
1951.72247
 11
2424.686251
 21
1926.875569
 0
LINE
 8
DV1_MARK
 10
2434.812215
 20
1951.72247
 11
2424.686251
 21
1951.72247
 0
LINE
 8
DV1_MARK
 10
2416.645045
 20
1926.875569
 11
2416.645045
 21
1951.72247
 0
LINE
 8
DV1_MARK
 10
2416.645045
 20
1951.72247
 11
2406.519082
 21
1951.72247
 0
LINE
 8
DV1_MARK
 10
2406.519082
 20
1951.72247
 11
2406.519082
 21
1957.40237
 0
LINE
 8
DV1_MARK
 10
2406.519082
 20
1957.40237
 11
2434.812215
 21
1957.40237
 0
LINE
 8
DV1_MARK
 10
2434.812215
 20
1957.40237
 11
2434.812215
 21
1951.72247
 0
LINE
 8
DV1_MARK
 10
2458.935833
 20
1932.619288
 11
2458.935833
 21
1926.875569
 0
LINE
 8
DV1_MARK
 10
2458.935833
 20
1926.875569
 11
2438.130808
 21
1926.875569
 0
LINE
 8
DV1_MARK
 10
2445.767826
 20
1932.619288
 11
2458.935833
 21
1932.619288
 0
LINE
 8
DV1_MARK
 10
2438.130808
 20
1926.875569
 11
2438.130808
 21
1957.40237
 0
LINE
 8
DV1_MARK
 10
2438.130808
 20
1957.40237
 11
2458.552918
 21
1957.40237
 0
LINE
 8
DV1_MARK
 10
2458.552918
 20
1957.40237
 11
2458.552918
 21
1951.765016
 0
LINE
 8
DV1_MARK
 10
2458.552918
 20
1951.765016
 11
2445.767826
 21
1951.765016
 0
LINE
 8
DV1_MARK
 10
2445.767826
 20
1951.765016
 11
2445.767826
 21
1945.532018
 0
LINE
 8
DV1_MARK
 10
2445.767826
 20
1945.532018
 11
2457.978546
 21
1945.532018
 0
LINE
 8
DV1_MARK
 10
2457.978546
 20
1945.532018
 11
2457.978546
 21
1939.852118
 0
LINE
 8
DV1_MARK
 10
2457.978546
 20
1939.852118
 11
2445.767826
 21
1939.852118
 0
LINE
 8
DV1_MARK
 10
2445.767826
 20
1939.852118
 11
2445.767826
 21
1932.619288
 0
LINE
 8
DV1_MARK
 10
2490.483739
 20
1936.533525
 11
2490.483739
 21
1929.428333
 0
LINE
 8
DV1_MARK
 10
2502.694459
 20
1926.875569
 11
2495.036168
 21
1926.875569
 0
LINE
 8
DV1_MARK
 10
2502.694459
 20
1939.2352
 11
2502.694459
 21
1926.875569
 0
LINE
 8
DV1_MARK
 10
2516.3092
 20
1939.2352
 11
2502.694459
 21
1939.2352
 0
LINE
 8
DV1_MARK
 10
2495.036168
 20
1926.875569
 11
2495.036168
 21
1957.40237
 0
LINE
 8
DV1_MARK
 10
2495.036168
 20
1957.40237
 11
2502.694459
 21
1957.40237
 0
LINE
 8
DV1_MARK
 10
2502.694459
 20
1957.40237
 11
2502.694459
 21
1945.149103
 0
LINE
 8
DV1_MARK
 10
2502.694459
 20
1945.149103
 11
2516.3092
 21
1945.149103
 0
LINE
 8
DV1_MARK
 10
2516.3092
 20
1945.149103
 11
2516.3092
 21
1957.40237
 0
LINE
 8
DV1_MARK
 10
2516.3092
 20
1957.40237
 11
2523.946218
 21
1957.40237
 0
LINE
 8
DV1_MARK
 10
2523.946218
 20
1957.40237
 11
2523.946218
 21
1926.875569
 0
LINE
 8
DV1_MARK
 10
2523.946218
 20
1926.875569
 11
2516.3092
 21
1926.875569
 0
LINE
 8
DV1_MARK
 10
2516.3092
 20
1926.875569
 11
2516.3092
 21
1939.2352
 0
LINE
 8
DV1_MARK
 10
2247.760257
 20
1881.618887
 11
2247.760257
 21
1846.871132
 0
LINE
 8
DV1_MARK
 10
2243.182708
 20
1867.331387
 11
2243.182708
 21
1881.618887
 0
LINE
 8
DV1_MARK
 10
2243.182708
 20
1881.618887
 11
2247.760257
 21
1881.618887
 0
LINE
 8
DV1_MARK
 10
2247.760257
 20
1846.871132
 11
2243.182708
 21
1846.871132
 0
LINE
 8
DV1_MARK
 10
2243.182708
 20
1846.871132
 11
2243.182708
 21
1863.169979
 0
LINE
 8
DV1_MARK
 10
2243.182708
 20
1863.169979
 11
2225.080584
 21
1863.169979
 0
LINE
 8
DV1_MARK
 10
2225.080584
 20
1863.169979
 11
2225.080584
 21
1846.871132
 0
LINE
 8
DV1_MARK
 10
2225.080584
 20
1846.871132
 11
2220.503036
 21
1846.871132
 0
LINE
 8
DV1_MARK
 10
2220.503036
 20
1846.871132
 11
2220.503036
 21
1881.618887
 0
LINE
 8
DV1_MARK
 10
2220.503036
 20
1881.618887
 11
2225.080584
 21
1881.618887
 0
LINE
 8
DV1_MARK
 10
2225.080584
 20
1881.618887
 11
2225.080584
 21
1867.331387
 0
LINE
 8
DV1_MARK
 10
2225.080584
 20
1867.331387
 11
2243.182708
 21
1867.331387
 0
LINE
 8
DV1_MARK
 10
2253.262562
 20
1857.29777
 11
2253.262562
 21
1861.574773
 0
LINE
 8
DV1_MARK
 10
2266.278521
 20
1861.574773
 11
2266.278521
 21
1857.29777
 0
LINE
 8
DV1_MARK
 10
2253.262562
 20
1861.574773
 11
2266.278521
 21
1861.574773
 0
LINE
 8
DV1_MARK
 10
2266.278521
 20
1857.29777
 11
2253.262562
 21
1857.29777
 0
ENDBLK
 0
ENDSEC
 0
SECTION
 2
ENTITIES
 0
INSERT
 8
0
 2
SE1
 10
0
 20
0
 41
1
 42
1
 50
0
 0
INSERT
 8
0
 2
SE0
 10
0
 20
0
 41
1
 42
1
 50
0
 0
ENDSEC
 0
EOF
