 0
SECTION
 2
HEADER
 0
ENDSEC
 0
SECTION
 2
TABLES
 0
TABLE
 2
LAYER
 70
6
 0
LAYER
 70
0
 2
0
 62
7
 6
CONTINUOUS
 0
LAYER
 70
0
 2
DEFAULT
 62
7
 6
CONTINUOUS
 0
LAYER
 70
0
 2
AUTO_-_HIDE
 62
0
 6
CONTINUOUS
 0
LAYER
 70
0
 2
MARK
 62
7
 6
CONTINUOUS
 0
LAYER
 70
0
 2
DV1_MARK
 62
7
 6
CONTINUOUS
 0
LAYER
 70
0
 2
DV1_DEFAULT
 62
7
 6
CONTINUOUS
 0
ENDTAB
 0
TABLE
 2
STYLE
 70
1
 0
STYLE
 2
Standard
 70
0
 40
0
 41
1
 50
0
 71
0
 42
1
 3
txt
 4

 0
ENDTAB
 0
TABLE
 2
BLOCKS
 70
2
 0
BLOCK
 70
65
 2
SE0
 10
0
 20
0
 0
ENDBLK
 0
BLOCK
 70
65
 2
SE1
 10
0
 20
0
 0
LINE
 8
DV1_MARK
 62
7
 10
2275.271786
 20
1851.009421
 11
2292.449152
 21
1851.009421
 0
LINE
 8
DV1_MARK
 62
7
 10
2292.449152
 20
1851.009421
 11
2292.449152
 21
1846.871132
 0
SPLINE
 8
DV1_MARK
 70
8
 71
3
 72
24
 73
20
 40
0
 40
0
 40
0
 40
0
 40
0.0001714314820893
 40
0.0001714314820893
 40
0.0001714314820893
 40
0.2394698841598492
 40
0.2394698841598492
 40
0.4998829061915326
 40
0.4998829061915326
 40
0.4998829061915326
 40
0.7709528099254307
 40
0.7709528099254307
 40
0.9995943809009759
 40
0.9995943809009759
 40
0.9995943809009759
 40
0.999856767329696
 40
0.999856767329696
 40
0.999856767329696
 40
1
 40
1
 40
1
 40
1
 10
2270.185621
 20
1871.654627
 30
0
 10
2270.463048
 20
1874.914397
 30
0
 10
2271.618994
 20
1877.411241
 30
0
 10
2273.676579
 20
1879.145161
 30
0
 10
2275.722772
 20
1880.869481
 30
0
 10
2278.323485
 20
1881.734482
 30
0
 10
2284.889261
 20
1881.734482
 30
0
 10
2287.547939
 20
1880.786605
 30
0
 10
2289.46681
 20
1878.913972
 30
0
 10
2291.385396
 20
1877.041617
 30
0
 10
2292.310439
 20
1874.752564
 30
0
 10
2292.310439
 20
1869.851351
 30
0
 10
2291.524395
 20
1867.608814
 30
0
 10
2289.90607
 20
1865.32004
 30
0
 10
2288.306348
 20
1863.057577
 30
0
 10
2285.097332
 20
1860.002685
 30
0
 10
2280.311713
 20
1856.164943
 30
0
 10
2277.796383
 20
1854.147818
 30
0
 10
2276.127186
 20
1852.442795
 30
0
 10
2275.271786
 20
1851.009421
 30
0
 0
LINE
 8
DV1_MARK
 62
7
 10
2292.449152
 20
1846.871132
 11
2269.33022
 21
1846.871132
 0
SPLINE
 8
DV1_MARK
 70
8
 71
3
 72
26
 73
22
 40
0
 40
0
 40
0
 40
0
 40
0.000127460310462
 40
0.000127460310462
 40
0.000127460310462
 40
0.0003408182338882
 40
0.0003408182338882
 40
0.0003408182338882
 40
0.1748638753899227
 40
0.1748638753899227
 40
0.3493869325459623
 40
0.3493869325459623
 40
0.5001113909989067
 40
0.5001113909989067
 40
0.5001113909989067
 40
0.7469860112804191
 40
0.7469860112804191
 40
0.9998819637639251
 40
0.9998819637639251
 40
0.9998819637639251
 40
1
 40
1
 40
1
 40
1
 10
2269.33022
 20
1846.871132
 30
0
 10
2269.33022
 20
1848.813122
 30
0
 10
2270.023788
 20
1850.801351
 30
0
 10
2271.387805
 20
1852.812698
 30
0
 10
2272.759105
 20
1854.834784
 30
0
 10
2275.318023
 20
1857.344008
 30
0
 10
2279.086409
 20
1860.349469
 30
0
 10
2281.375668
 20
1862.175258
 30
0
 10
2283.432769
 20
1864.094736
 30
0
 10
2287.08556
 20
1868.117431
 30
0
 10
2287.987198
 20
1870.151897
 30
0
 10
2287.987198
 20
1873.943402
 30
0
 10
2287.362987
 20
1875.376775
 30
0
 10
2286.114565
 20
1876.532722
 30
0
 10
2284.877668
 20
1877.677997
 30
0
 10
2283.270936
 20
1878.243523
 30
0
 10
2279.433193
 20
1878.243523
 30
0
 10
2277.814868
 20
1877.66555
 30
0
 10
2276.520208
 20
1876.463365
 30
0
 10
2275.224661
 20
1875.260357
 30
0
 10
2274.555099
 20
1873.527261
 30
0
 10
2274.53198
 20
1871.16913
 30
0
 0
LINE
 8
DV1_MARK
 62
7
 10
2274.53198
 20
1871.16913
 11
2270.185621
 21
1871.654627
 0
LINE
 8
DV1_MARK
 62
7
 10
2319.521422
 20
1851.009421
 11
2319.521422
 21
1846.871132
 0
LINE
 8
DV1_MARK
 62
7
 10
2302.344055
 20
1851.009421
 11
2319.521422
 21
1851.009421
 0
SPLINE
 8
DV1_MARK
 70
8
 71
3
 72
24
 73
20
 40
0
 40
0
 40
0
 40
0
 40
0.0001713945149988
 40
0.0001713945149988
 40
0.0001713945149988
 40
0.2394698560404473
 40
0.2394698560404473
 40
0.499882887700489
 40
0.499882887700489
 40
0.499882887700489
 40
0.7709528014567663
 40
0.7709528014567663
 40
0.9995943808859787
 40
0.9995943808859787
 40
0.9995943808859787
 40
0.9998567673243998
 40
0.9998567673243998
 40
0.9998567673243998
 40
1
 40
1
 40
1
 40
1
 10
2297.281009
 20
1871.654627
 30
0
 10
2297.535317
 20
1874.914397
 30
0
 10
2298.691264
 20
1877.411241
 30
0
 10
2300.748849
 20
1879.145161
 30
0
 10
2302.795041
 20
1880.869481
 30
0
 10
2305.395754
 20
1881.734482
 30
0
 10
2311.961531
 20
1881.734482
 30
0
 10
2314.620208
 20
1880.786605
 30
0
 10
2316.539079
 20
1878.913972
 30
0
 10
2318.457665
 20
1877.041617
 30
0
 10
2319.405827
 20
1874.752564
 30
0
 10
2319.405827
 20
1869.851351
 30
0
 10
2318.596664
 20
1867.608814
 30
0
 10
2316.978339
 20
1865.32004
 30
0
 10
2315.378618
 20
1863.057577
 30
0
 10
2312.169601
 20
1860.002685
 30
0
 10
2307.383982
 20
1856.164943
 30
0
 10
2304.868652
 20
1854.147818
 30
0
 10
2303.199456
 20
1852.442795
 30
0
 10
2302.344055
 20
1851.009421
 30
0
 0
LINE
 8
DV1_MARK
 62
7
 10
2319.521422
 20
1846.871132
 11
2296.425608
 21
1846.871132
 0
SPLINE
 8
DV1_MARK
 70
8
 71
3
 72
27
 73
23
 40
0
 40
0
 40
0
 40
0
 40
0.000127291570955
 40
0.000127291570955
 40
0.000127291570955
 40
0.000340582698171
 40
0.000340582698171
 40
0.000340582698171
 40
0.0005070362257875
 40
0.0005070362257875
 40
0.0005070362257875
 40
0.2686320697787754
 40
0.2686320697787754
 40
0.5001945987563496
 40
0.5001945987563496
 40
0.5001945987563496
 40
0.7470282139822887
 40
0.7470282139822887
 40
0.999882161286912
 40
0.999882161286912
 40
0.999882161286912
 40
1
 40
1
 40
1
 40
1
 10
2296.425608
 20
1846.871132
 30
0
 10
2296.425608
 20
1848.813122
 30
0
 10
2297.096057
 20
1850.801351
 30
0
 10
2298.460074
 20
1852.812698
 30
0
 10
2299.831374
 20
1854.834784
 30
0
 10
2302.413412
 20
1857.344008
 30
0
 10
2306.158679
 20
1860.349469
 30
0
 10
2308.4565
 20
1862.1934
 30
0
 10
2310.528157
 20
1864.094736
 30
0
 10
2312.331434
 20
1866.106084
 30
0
 10
2314.145013
 20
1868.128922
 30
0
 10
2315.059468
 20
1870.151897
 30
0
 10
2315.059468
 20
1873.943402
 30
0
 10
2314.435257
 20
1875.376775
 30
0
 10
2313.186834
 20
1876.532722
 30
0
 10
2311.949937
 20
1877.677997
 30
0
 10
2310.343206
 20
1878.243523
 30
0
 10
2306.505463
 20
1878.243523
 30
0
 10
2304.910257
 20
1877.66555
 30
0
 10
2303.592477
 20
1876.463365
 30
0
 10
2302.298827
 20
1875.283193
 30
0
 10
2301.627368
 20
1873.527261
 30
0
 10
2301.604249
 20
1871.16913
 30
0
 0
LINE
 8
DV1_MARK
 62
7
 10
2301.604249
 20
1871.16913
 11
2297.281009
 21
1871.654627
 0
SPLINE
 8
DV1_MARK
 70
8
 71
3
 72
24
 73
20
 40
0
 40
0
 40
0
 40
0
 40
0.1249852188678273
 40
0.1249852188678273
 40
0.2499704377356565
 40
0.2499704377356565
 40
0.3749556566034832
 40
0.3749556566034832
 40
0.4999408754713097
 40
0.4999408754713097
 40
0.4999408754713097
 40
0.6660229290177155
 40
0.6660229290177155
 40
0.8321049825641149
 40
0.8321049825641149
 40
0.9998817509426193
 40
0.9998817509426193
 40
0.9998817509426193
 40
1
 40
1
 40
1
 40
1
 10
2336.00522
 20
1849.73788
 30
0
 10
2337.970329
 20
1849.73788
 30
0
 10
2339.565536
 20
1850.523923
 30
0
 10
2342.016142
 20
1853.668098
 30
0
 10
2342.617235
 20
1855.586969
 30
0
 10
2342.617235
 20
1860.072042
 30
0
 10
2342.016142
 20
1861.921557
 30
0
 10
2339.565536
 20
1864.88078
 30
0
 10
2337.924091
 20
1865.597467
 30
0
 10
2335.866507
 20
1865.620586
 30
0
 10
2333.971253
 20
1865.641881
 30
0
 10
2332.352429
 20
1864.927018
 30
0
 10
2329.624395
 20
1862.152746
 30
0
 10
2328.930827
 20
1860.326351
 30
0
 10
2328.930827
 20
1855.771921
 30
0
 10
2329.601276
 20
1853.806812
 30
0
 10
2330.942174
 20
1852.165368
 30
0
 10
2332.271745
 20
1850.537789
 30
0
 10
2333.970754
 20
1849.73788
 30
0
 10
2336.00522
 20
1849.73788
 30
0
 0
LINE
 8
DV1_MARK
 62
7
 10
2328.21414
 20
1864.742067
 11
2328.329735
 21
1864.742067
 0
SPLINE
 8
DV1_MARK
 70
8
 71
3
 72
13
 73
9
 40
0
 40
0
 40
0
 40
0
 40
0.5910515697558313
 40
0.5910515697558313
 40
0.9995725076752845
 40
0.9995725076752845
 40
0.9995725076752845
 40
1
 40
1
 40
1
 40
1
 10
2342.06238
 20
1872.694979
 30
0
 10
2341.299456
 20
1876.394008
 30
0
 10
2339.334346
 20
1878.243523
 30
0
 10
2334.016992
 20
1878.243523
 30
0
 10
2332.144358
 20
1877.156933
 30
0
 10
2330.572271
 20
1875.006872
 30
0
 10
2328.989169
 20
1872.841747
 30
0
 10
2328.21414
 20
1869.412091
 30
0
 10
2328.21414
 20
1864.742067
 30
0
 0
SPLINE
 8
DV1_MARK
 70
8
 71
3
 72
30
 73
26
 40
0
 40
0
 40
0
 40
0
 40
0.1869047619047607
 40
0.1869047619047607
 40
0.3333333333333334
 40
0.3333333333333334
 40
0.3333333333333334
 40
0.4155011655011648
 40
0.4155011655011648
 40
0.4988344988344974
 40
0.4988344988344974
 40
0.5821678321678306
 40
0.5821678321678306
 40
0.6666666666666667
 40
0.6666666666666667
 40
0.6666666666666667
 40
0.7455369595536961
 40
0.7455369595536961
 40
0.8226738394102417
 40
0.8226738394102417
 40
0.899810719266787
 40
0.899810719266787
 40
0.9499053596333936
 40
0.9499053596333936
 40
1
 40
1
 40
1
 40
1
 10
2328.329735
 20
1864.742067
 30
0
 10
2330.294844
 20
1867.793766
 30
0
 10
2333.069116
 20
1869.342734
 30
0
 10
2339.542417
 20
1869.342734
 30
0
 10
2341.969905
 20
1868.279263
 30
0
 10
2343.981252
 20
1866.17544
 30
0
 10
2345.970011
 20
1864.095244
 30
0
 10
2346.963594
 20
1861.389821
 30
0
 10
2346.963594
 20
1854.824045
 30
0
 10
2345.96948
 20
1852.026654
 30
0
 10
2341.993023
 20
1847.402868
 30
0
 10
2339.357465
 20
1846.246921
 30
0
 10
2332.699213
 20
1846.246921
 30
0
 10
2329.855584
 20
1847.472224
 30
0
 10
2327.520572
 20
1849.94595
 30
0
 10
2325.186207
 20
1852.41899
 30
0
 10
2323.983375
 20
1856.789154
 30
0
 10
2323.983375
 20
1869.273377
 30
0
 10
2325.046846
 20
1873.920283
 30
0
 10
2329.30073
 20
1880.162394
 30
0
 10
2332.398667
 20
1881.734482
 30
0
 10
2339.0338
 20
1881.734482
 30
0
 10
2341.253218
 20
1880.994676
 30
0
 10
2344.859771
 20
1878.08169
 30
0
 10
2345.946361
 20
1875.93163
 30
0
 10
2346.362502
 20
1873.064882
 30
0
 0
LINE
 8
DV1_MARK
 62
7
 10
2346.362502
 20
1873.064882
 11
2342.06238
 21
1872.694979
 0
LINE
 8
DV1_MARK
 62
7
 10
2367.192659
 20
1881.803838
 11
2367.192659
 21
1846.871132
 0
SPLINE
 8
DV1_MARK
 70
8
 71
3
 72
11
 73
7
 40
0
 40
0
 40
0
 40
0
 40
0.0005440767901484
 40
0.0005440767901484
 40
0.0005440767901484
 40
1
 40
1
 40
1
 40
1
 10
2354.361652
 20
1873.064882
 30
0
 10
2359.285985
 20
1875.399894
 30
0
 10
2362.661349
 20
1878.31288
 30
0
 10
2364.441507
 20
1881.803838
 30
0
 10
2364.630758
 20
1882.174968
 30
0
 10
2366.275608
 20
1881.803838
 30
0
 10
2367.192659
 20
1881.803838
 30
0
 0
LINE
 8
DV1_MARK
 62
7
 10
2354.361652
 20
1868.903474
 11
2354.361652
 21
1873.064882
 0
LINE
 8
DV1_MARK
 62
7
 10
2367.192659
 20
1846.871132
 11
2362.915657
 21
1846.871132
 0
LINE
 8
DV1_MARK
 62
7
 10
2362.915657
 20
1846.871132
 11
2362.915657
 21
1874.035877
 0
ARC
 8
DV1_MARK
 62
7
 10
2345.181792
 20
1893.89778
 40
26.626775
 50
-69.832824
 51
-48.239663
 0
LINE
 8
DV1_MARK
 62
7
 10
2385.225426
 20
1851.749227
 11
2385.225426
 21
1846.871132
 0
LINE
 8
DV1_MARK
 62
7
 10
2380.324213
 20
1851.749227
 11
2385.225426
 21
1851.749227
 0
LINE
 8
DV1_MARK
 62
7
 10
2385.225426
 20
1846.871132
 11
2380.324213
 21
1846.871132
 0
LINE
 8
DV1_MARK
 62
7
 10
2380.324213
 20
1846.871132
 11
2380.324213
 21
1851.749227
 0
SPLINE
 8
DV1_MARK
 70
8
 71
3
 72
24
 73
20
 40
0
 40
0
 40
0
 40
0
 40
0.1249852188678216
 40
0.1249852188678216
 40
0.24997043773565
 40
0.24997043773565
 40
0.3749556566034833
 40
0.3749556566034833
 40
0.4999408754713097
 40
0.4999408754713097
 40
0.4999408754713097
 40
0.6660229290177107
 40
0.6660229290177107
 40
0.8321049825641116
 40
0.8321049825641116
 40
0.9998817509426193
 40
0.9998817509426193
 40
0.9998817509426193
 40
1
 40
1
 40
1
 40
1
 10
2403.535621
 20
1849.73788
 30
0
 10
2405.523849
 20
1849.73788
 30
0
 10
2407.095936
 20
1850.523923
 30
0
 10
2409.546543
 20
1853.668098
 30
0
 10
2410.170754
 20
1855.586969
 30
0
 10
2410.170754
 20
1860.072042
 30
0
 10
2409.546543
 20
1861.921557
 30
0
 10
2407.095936
 20
1864.88078
 30
0
 10
2405.454492
 20
1865.597467
 30
0
 10
2403.396907
 20
1865.620586
 30
0
 10
2401.501654
 20
1865.641881
 30
0
 10
2399.882829
 20
1864.927018
 30
0
 10
2397.154795
 20
1862.152746
 30
0
 10
2396.461227
 20
1860.326351
 30
0
 10
2396.461227
 20
1855.771921
 30
0
 10
2397.131676
 20
1853.806812
 30
0
 10
2398.472574
 20
1852.165368
 30
0
 10
2399.802145
 20
1850.537789
 30
0
 10
2401.501155
 20
1849.73788
 30
0
 10
2403.535621
 20
1849.73788
 30
0
 0
LINE
 8
DV1_MARK
 62
7
 10
2395.767659
 20
1864.742067
 11
2395.860135
 21
1864.742067
 0
SPLINE
 8
DV1_MARK
 70
8
 71
3
 72
13
 73
9
 40
0
 40
0
 40
0
 40
0
 40
0.5910518834079787
 40
0.5910518834079787
 40
0.9995730381164389
 40
0.9995730381164389
 40
0.9995730381164389
 40
1
 40
1
 40
1
 40
1
 10
2409.6159
 20
1872.694979
 30
0
 10
2408.829856
 20
1876.394008
 30
0
 10
2406.864747
 20
1878.243523
 30
0
 10
2401.547392
 20
1878.243523
 30
0
 10
2399.674759
 20
1877.156933
 30
0
 10
2398.102672
 20
1875.006872
 30
0
 10
2396.527623
 20
1872.852762
 30
0
 10
2395.767659
 20
1869.412091
 30
0
 10
2395.767659
 20
1864.742067
 30
0
 0
SPLINE
 8
DV1_MARK
 70
8
 71
3
 72
31
 73
27
 40
0
 40
0
 40
0
 40
0
 40
0.1392857142857118
 40
0.1392857142857118
 40
0.25
 40
0.25
 40
0.25
 40
0.3117338003502616
 40
0.3117338003502616
 40
0.3743432574430804
 40
0.3743432574430804
 40
0.4369527145359
 40
0.4369527145359
 40
0.5
 40
0.5
 40
0.5
 40
0.6263888888888887
 40
0.6263888888888887
 40
0.75
 40
0.75
 40
0.75
 40
0.8587499999999999
 40
0.8587499999999999
 40
0.9293749999999994
 40
0.9293749999999994
 40
1
 40
1
 40
1
 40
1
 10
2395.860135
 20
1864.742067
 30
0
 10
2397.825244
 20
1867.793766
 30
0
 10
2400.622635
 20
1869.342734
 30
0
 10
2407.095936
 20
1869.342734
 30
0
 10
2409.523424
 20
1868.279263
 30
0
 10
2411.511652
 20
1866.17544
 30
0
 10
2413.488339
 20
1864.08383
 30
0
 10
2414.493994
 20
1861.389821
 30
0
 10
2414.493994
 20
1854.824045
 30
0
 10
2413.49988
 20
1852.026654
 30
0
 10
2409.523424
 20
1847.402868
 30
0
 10
2406.887866
 20
1846.246921
 30
0
 10
2400.252732
 20
1846.246921
 30
0
 10
2397.409104
 20
1847.472224
 30
0
 10
2395.050973
 20
1849.94595
 30
0
 10
2392.704388
 20
1852.407564
 30
0
 10
2391.513776
 20
1856.789154
 30
0
 10
2391.513776
 20
1869.273377
 30
0
 10
2392.577247
 20
1873.920283
 30
0
 10
2394.704189
 20
1877.041338
 30
0
 10
2396.838462
 20
1880.173153
 30
0
 10
2399.929067
 20
1881.734482
 30
0
 10
2406.564201
 20
1881.734482
 30
0
 10
2408.783618
 20
1880.994676
 30
0
 10
2412.390172
 20
1878.08169
 30
0
 10
2413.49988
 20
1875.93163
 30
0
 10
2413.892902
 20
1873.064882
 30
0
 0
LINE
 8
DV1_MARK
 62
7
 10
2413.892902
 20
1873.064882
 11
2409.6159
 21
1872.694979
 0
ARC
 8
DV1_MARK
 62
7
 10
2195.172802
 20
1788.516293
 40
15.8523
 50
49.463475
 51
76.278272
 0
SPLINE
 8
DV1_MARK
 70
8
 71
3
 72
24
 73
20
 40
0
 40
0
 40
0
 40
0
 40
0.0908218740006418
 40
0.0908218740006418
 40
0.1718366911843109
 40
0.1718366911843109
 40
0.2528515083679788
 40
0.2528515083679788
 40
0.3333333333333334
 40
0.3333333333333334
 40
0.3333333333333334
 40
0.501692047377326
 40
0.501692047377326
 40
0.6666666666666667
 40
0.6666666666666667
 40
0.6666666666666667
 40
0.8893805309734519
 40
0.8893805309734519
 40
1
 40
1
 40
1
 40
1
 10
2205.47573
 20
1800.563911
 30
0
 10
2208.203764
 20
1803.083875
 30
0
 10
2209.567781
 20
1806.782904
 30
0
 10
2209.567781
 20
1816.099834
 30
0
 10
2208.481191
 20
1819.544554
 30
0
 10
2204.088594
 20
1824.538244
 30
0
 10
2201.244965
 20
1825.786666
 30
0
 10
2194.239929
 20
1825.786666
 30
0
 10
2191.373181
 20
1824.584482
 30
0
 10
2189.153764
 20
1822.203232
 30
0
 10
2186.933563
 20
1819.821141
 30
0
 10
2185.847757
 20
1816.307904
 30
0
 10
2185.847757
 20
1807.199045
 30
0
 10
2186.957465
 20
1803.731205
 30
0
 10
2189.153764
 20
1801.303717
 30
0
 10
2191.371971
 20
1798.852015
 30
0
 10
2194.239929
 20
1797.627807
 30
0
 10
2199.464807
 20
1797.627807
 30
0
 10
2200.990657
 20
1797.928353
 30
0
 10
2202.331555
 20
1798.529445
 30
0
 0
ARC
 8
DV1_MARK
 62
7
 10
2224.612359
 20
1818.630755
 40
25.736758
 50
-127.050722
 51
-112.09566
 0
LINE
 8
DV1_MARK
 62
7
 10
2214.931373
 20
1794.784178
 11
2213.567356
 21
1791.593766
 0
ARC
 8
DV1_MARK
 62
7
 10
2223.174057
 20
1817.138924
 40
27.291826
 50
-128.727178
 51
-110.609643
 0
SPLINE
 8
DV1_MARK
 70
8
 71
3
 72
25
 73
21
 40
0
 40
0
 40
0
 40
0
 40
0.0972222222222219
 40
0.0972222222222219
 40
0.25
 40
0.25
 40
0.25
 40
0.3755506607929517
 40
0.3755506607929517
 40
0.5000000000000001
 40
0.5000000000000001
 40
0.5000000000000001
 40
0.6279069767441862
 40
0.6279069767441862
 40
0.75
 40
0.75
 40
0.75
 40
0.8705636743215028
 40
0.8705636743215028
 40
1
 40
1
 40
1
 40
1
 10
2206.099941
 20
1795.847649
 30
0
 10
2203.53374
 20
1794.437394
 30
0
 10
2200.71323
 20
1793.720707
 30
0
 10
2192.806555
 20
1793.720707
 30
0
 10
2188.830099
 20
1795.408389
 30
0
 10
2185.732162
 20
1798.760635
 30
0
 10
2182.622701
 20
1802.125349
 30
0
 10
2181.085257
 20
1806.43612
 30
0
 10
2181.085257
 20
1816.932115
 30
0
 10
2182.587987
 20
1821.232236
 30
0
 10
2185.593448
 20
1824.630719
 30
0
 10
2188.587437
 20
1828.016229
 30
0
 10
2192.644723
 20
1829.693766
 30
0
 10
2202.585863
 20
1829.693766
 30
0
 10
2206.56232
 20
1828.052321
 30
0
 10
2209.683375
 20
1824.746314
 30
0
 10
2212.805077
 20
1821.439623
 30
0
 10
2214.330281
 20
1817.093948
 30
0
 10
2214.330281
 20
1806.019979
 30
0
 10
2212.596361
 20
1801.46555
 30
0
 10
2209.105402
 20
1798.090185
 30
0
 0
LINE
 8
DV1_MARK
 62
7
 10
2197.823363
 20
1800.563911
 11
2198.933072
 21
1803.916156
 0
ARC
 8
DV1_MARK
 62
7
 10
2194.634134
 20
1787.484764
 40
13.462365
 50
55.126022
 51
76.296374
 0
LINE
 8
DV1_MARK
 62
7
 10
2231.207101
 20
1809.048559
 11
2231.207101
 21
1804.771557
 0
LINE
 8
DV1_MARK
 62
7
 10
2218.191142
 20
1804.771557
 11
2218.191142
 21
1809.048559
 0
LINE
 8
DV1_MARK
 62
7
 10
2218.191142
 20
1809.048559
 11
2231.207101
 21
1809.048559
 0
LINE
 8
DV1_MARK
 62
7
 10
2231.207101
 20
1804.771557
 11
2218.191142
 21
1804.771557
 0
SPLINE
 8
DV1_MARK
 70
8
 71
3
 72
29
 73
25
 40
0
 40
0
 40
0
 40
0
 40
0.0929478494964823
 40
0.0929478494964823
 40
0.1858956989929632
 40
0.1858956989929632
 40
0.2499830290110841
 40
0.2499830290110841
 40
0.2499830290110841
 40
0.3749745435166262
 40
0.4999660580221683
 40
0.4999660580221683
 40
0.4999660580221683
 40
0.5000339419778318
 40
0.5000339419778318
 40
0.5000339419778318
 40
0.6475649099187989
 40
0.6475649099187989
 40
0.750016970988916
 40
0.750016970988916
 40
0.750016970988916
 40
0.8750084854944596
 40
0.8750084854944596
 40
1
 40
1
 40
1
 40
1
 10
2246.303764
 20
1797.211666
 30
0
 10
2248.592538
 20
1797.211666
 30
0
 10
2250.326458
 20
1798.321375
 30
0
 10
2252.684589
 20
1802.76021
 30
0
 10
2253.262562
 20
1806.389882
 30
0
 10
2253.262562
 20
1814.943887
 30
0
 10
2253.008254
 20
1817.718159
 30
0
 10
2252.499638
 20
1819.729506
 30
0
 10
2251.989632
 20
1821.746348
 30
0
 10
2250.442053
 20
1824.746314
 30
0
 10
2247.806494
 20
1825.717309
 30
0
 10
2246.257526
 20
1825.740428
 30
0
 10
2243.946493
 20
1825.774921
 30
0
 10
2242.234832
 20
1824.584482
 30
0
 10
2241.055766
 20
1822.341945
 30
0
 10
2239.872185
 20
1820.09082
 30
0
 10
2239.321846
 20
1816.446618
 30
0
 10
2239.321846
 20
1807.985088
 30
0
 10
2239.599273
 20
1805.233935
 30
0
 10
2240.10789
 20
1803.199469
 30
0
 10
2240.612427
 20
1801.181323
 30
0
 10
2241.40255
 20
1799.685392
 30
0
 10
2243.483254
 20
1797.697164
 30
0
 10
2244.754795
 20
1797.211666
 30
0
 10
2246.303764
 20
1797.211666
 30
0
 0
SPLINE
 8
DV1_MARK
 70
8
 71
3
 72
19
 73
15
 40
0
 40
0
 40
0
 40
0
 40
0.3320363164721142
 40
0.3320363164721142
 40
0.5
 40
0.5
 40
0.5
 40
0.597388984181436
 40
0.597388984181436
 40
0.7977144263267968
 40
0.7977144263267968
 40
0.8988572131633981
 40
0.8988572131633981
 40
1
 40
1
 40
1
 40
1
 10
2246.280645
 20
1829.208268
 30
0
 10
2253.840536
 20
1829.208268
 30
0
 10
2257.608922
 20
1823.289821
 30
0
 10
2257.608922
 20
1805.465125
 30
0
 10
2256.637926
 20
1801.003171
 30
0
 10
2254.672817
 20
1798.090185
 30
0
 10
2252.714939
 20
1795.187918
 30
0
 10
2249.933436
 20
1793.720707
 30
0
 10
2238.766992
 20
1793.720707
 30
0
 10
2234.998606
 20
1799.639154
 30
0
 10
2234.998606
 20
1817.417613
 30
0
 10
2235.969601
 20
1821.879567
 30
0
 10
2239.853582
 20
1827.751775
 30
0
 10
2242.650973
 20
1829.208268
 30
0
 10
2246.280645
 20
1829.208268
 30
0
 0
LINE
 8
DV1_MARK
 62
7
 10
2264.706434
 20
1806.551715
 11
2275.641689
 21
1806.551715
 0
LINE
 8
DV1_MARK
 62
7
 10
2275.641689
 20
1806.551715
 11
2275.641689
 21
1822.180113
 0
LINE
 8
DV1_MARK
 62
7
 10
2284.611834
 20
1802.644615
 11
2279.918691
 21
1802.644615
 0
LINE
 8
DV1_MARK
 62
7
 10
2284.611834
 20
1806.551715
 11
2284.611834
 21
1802.644615
 0
LINE
 8
DV1_MARK
 62
7
 10
2279.918691
 20
1806.551715
 11
2284.611834
 21
1806.551715
 0
LINE
 8
DV1_MARK
 62
7
 10
2279.918691
 20
1802.644615
 11
2279.918691
 21
1794.344919
 0
LINE
 8
DV1_MARK
 62
7
 10
2279.918691
 20
1794.344919
 11
2275.641689
 21
1794.344919
 0
LINE
 8
DV1_MARK
 62
7
 10
2275.641689
 20
1794.344919
 11
2275.641689
 21
1802.644615
 0
LINE
 8
DV1_MARK
 62
7
 10
2275.641689
 20
1802.644615
 11
2260.545026
 21
1802.644615
 0
LINE
 8
DV1_MARK
 62
7
 10
2275.549213
 20
1822.180113
 11
2264.706434
 21
1806.551715
 0
LINE
 8
DV1_MARK
 62
7
 10
2276.404613
 20
1829.092673
 11
2279.918691
 21
1829.092673
 0
LINE
 8
DV1_MARK
 62
7
 10
2279.918691
 20
1829.092673
 11
2279.918691
 21
1806.551715
 0
LINE
 8
DV1_MARK
 62
7
 10
2260.545026
 20
1802.644615
 11
2260.545026
 21
1806.551715
 0
LINE
 8
DV1_MARK
 62
7
 10
2260.545026
 20
1806.551715
 11
2276.404613
 21
1829.092673
 0
LINE
 8
DV1_MARK
 62
7
 10
2275.641689
 20
1822.180113
 11
2275.549213
 21
1822.180113
 0
SPLINE
 8
DV1_MARK
 70
8
 71
3
 72
11
 73
7
 40
0
 40
0
 40
0
 40
0
 40
0.0005436584944788
 40
0.0005436584944788
 40
0.0005436584944788
 40
1
 40
1
 40
1
 40
1
 10
2292.264201
 20
1820.538669
 30
0
 10
2297.188533
 20
1822.8968
 30
0
 10
2300.563897
 20
1825.809785
 30
0
 10
2302.344055
 20
1829.277625
 30
0
 10
2302.53531
 20
1829.6502
 30
0
 10
2304.178157
 20
1829.277625
 30
0
 10
2305.095208
 20
1829.277625
 30
0
 0
LINE
 8
DV1_MARK
 62
7
 10
2305.095208
 20
1829.277625
 11
2305.095208
 21
1794.344919
 0
LINE
 8
DV1_MARK
 62
7
 10
2292.264201
 20
1816.377261
 11
2292.264201
 21
1820.538669
 0
LINE
 8
DV1_MARK
 62
7
 10
2305.095208
 20
1794.344919
 11
2300.818206
 21
1794.344919
 0
LINE
 8
DV1_MARK
 62
7
 10
2300.818206
 20
1794.344919
 11
2300.818206
 21
1821.509664
 0
ARC
 8
DV1_MARK
 62
7
 10
2283.08434
 20
1841.371567
 40
26.626775
 50
-69.832824
 51
-48.239663
 0
LINE
 8
DV1_MARK
 62
7
 10
2319.267113
 20
1816.377261
 11
2319.267113
 21
1820.538669
 0
LINE
 8
DV1_MARK
 62
7
 10
2332.12124
 20
1829.277625
 11
2332.12124
 21
1794.344919
 0
SPLINE
 8
DV1_MARK
 70
8
 71
3
 72
11
 73
7
 40
0
 40
0
 40
0
 40
0
 40
0.0005442089139883
 40
0.0005442089139883
 40
0.0005442089139883
 40
1
 40
1
 40
1
 40
1
 10
2319.267113
 20
1820.538669
 30
0
 10
2324.214565
 20
1822.8968
 30
0
 10
2327.56681
 20
1825.809785
 30
0
 10
2329.370087
 20
1829.277625
 30
0
 10
2329.565278
 20
1829.652992
 30
0
 10
2331.204189
 20
1829.277625
 30
0
 10
2332.12124
 20
1829.277625
 30
0
 0
LINE
 8
DV1_MARK
 62
7
 10
2332.12124
 20
1794.344919
 11
2327.821118
 21
1794.344919
 0
LINE
 8
DV1_MARK
 62
7
 10
2327.821118
 20
1794.344919
 11
2327.821118
 21
1821.509664
 0
ARC
 8
DV1_MARK
 62
7
 10
2310.205824
 20
1841.173948
 40
26.40043
 50
-69.926515
 51
-48.145972
 0
LINE
 8
DV1_MARK
 62
7
 10
2355.517599
 20
1809.048559
 11
2355.517599
 21
1804.771557
 0
LINE
 8
DV1_MARK
 62
7
 10
2342.50164
 20
1804.771557
 11
2342.50164
 21
1809.048559
 0
LINE
 8
DV1_MARK
 62
7
 10
2342.50164
 20
1809.048559
 11
2355.517599
 21
1809.048559
 0
LINE
 8
DV1_MARK
 62
7
 10
2355.517599
 20
1804.771557
 11
2342.50164
 21
1804.771557
 0
SPLINE
 8
DV1_MARK
 70
8
 71
3
 72
30
 73
26
 40
0
 40
0
 40
0
 40
0
 40
0.0001352317064194
 40
0.0001352317064194
 40
0.0001352317064194
 40
0.1630069691259249
 40
0.1630069691259249
 40
0.2753066602233933
 40
0.2753066602233933
 40
0.38760635132086
 40
0.4999060424183269
 40
0.4999060424183269
 40
0.4999060424183269
 40
0.5000414724357795
 40
0.5000414724357795
 40
0.5000414724357795
 40
0.7949881803969054
 40
0.7949881803969054
 40
0.9998122831476869
 40
0.9998122831476869
 40
0.9998122831476869
 40
0.9999144584525316
 40
0.9999144584525316
 40
0.9999144584525316
 40
1
 40
1
 40
1
 40
1
 10
2370.614261
 20
1797.211666
 30
0
 10
2372.926155
 20
1797.211666
 30
0
 10
2374.660074
 20
1798.321375
 30
0
 10
2375.816021
 20
1800.540792
 30
0
 10
2376.976901
 20
1802.769682
 30
0
 10
2377.57306
 20
1806.389882
 30
0
 10
2377.57306
 20
1814.943887
 30
0
 10
2377.318752
 20
1817.718159
 30
0
 10
2376.301519
 20
1821.740853
 30
0
 10
2374.729431
 20
1824.746314
 30
0
 10
2372.140111
 20
1825.717309
 30
0
 10
2370.568023
 20
1825.740428
 30
0
 10
2368.280084
 20
1825.774074
 30
0
 10
2366.545329
 20
1824.584482
 30
0
 10
2365.389383
 20
1822.341945
 30
0
 10
2364.224021
 20
1820.081143
 30
0
 10
2363.655463
 20
1816.446618
 30
0
 10
2363.655463
 20
1807.985088
 30
0
 10
2363.909771
 20
1805.233935
 30
0
 10
2364.441507
 20
1803.199469
 30
0
 10
2364.966108
 20
1801.1923
 30
0
 10
2365.736167
 20
1799.685392
 30
0
 10
2366.7534
 20
1798.691278
 30
0
 10
2367.782458
 20
1797.685607
 30
0
 10
2369.088412
 20
1797.211666
 30
0
 10
2370.614261
 20
1797.211666
 30
0
 0
SPLINE
 8
DV1_MARK
 70
8
 71
3
 72
20
 73
16
 40
0
 40
0
 40
0
 40
0
 40
0.3319689832684933
 40
0.3319689832684933
 40
0.4998986056640792
 40
0.4998986056640792
 40
0.4998986056640792
 40
0.6210917769545439
 40
0.6210917769545439
 40
0.8727412918634084
 40
0.8727412918634084
 40
0.9997972113281585
 40
0.9997972113281585
 40
0.9997972113281585
 40
1
 40
1
 40
1
 40
1
 10
2370.614261
 20
1829.208268
 30
0
 10
2378.151033
 20
1829.208268
 30
0
 10
2381.919419
 20
1823.289821
 30
0
 10
2381.919419
 20
1805.465125
 30
0
 10
2380.948424
 20
1801.003171
 30
0
 10
2379.006434
 20
1798.090185
 30
0
 10
2377.05733
 20
1795.16653
 30
0
 10
2374.243934
 20
1793.720707
 30
0
 10
2363.07749
 20
1793.720707
 30
0
 10
2359.309104
 20
1799.639154
 30
0
 10
2359.309104
 20
1817.417613
 30
0
 10
2360.280099
 20
1821.879567
 30
0
 10
2362.245208
 20
1824.815671
 30
0
 10
2364.203165
 20
1827.741089
 30
0
 10
2366.984589
 20
1829.208268
 30
0
 10
2370.614261
 20
1829.208268
 30
0
 0
LINE
 8
DV1_MARK
 62
7
 10
2390.958922
 20
1819.382722
 11
2386.681919
 21
1820.168766
 0
SPLINE
 8
DV1_MARK
 70
8
 71
3
 72
20
 73
16
 40
0
 40
0
 40
0
 40
0
 40
0.1076487252124648
 40
0.1076487252124648
 40
0.2152974504249305
 40
0.2152974504249305
 40
0.3333333333333335
 40
0.3333333333333335
 40
0.3333333333333335
 40
0.4786666666666679
 40
0.4786666666666679
 40
0.6666666666666671
 40
0.6666666666666671
 40
0.6666666666666671
 40
1
 40
1
 40
1
 40
1
 10
2386.681919
 20
1820.168766
 30
0
 10
2387.236773
 20
1823.174227
 30
0
 10
2388.462077
 20
1825.439882
 30
0
 10
2392.253582
 20
1828.445343
 30
0
 10
2394.496118
 20
1829.208268
 30
0
 10
2400.021543
 20
1829.208268
 30
0
 10
2402.449031
 20
1828.329749
 30
0
 10
2404.391021
 20
1826.595829
 30
0
 10
2406.344497
 20
1824.851654
 30
0
 10
2407.280888
 20
1822.711848
 30
0
 10
2407.280888
 20
1816.932115
 30
0
 10
2405.7088
 20
1814.597103
 30
0
 10
2402.518388
 20
1813.186848
 30
0
 10
2402.506989
 20
1813.18181
 30
0
 10
2402.518388
 20
1813.125198
 30
0
 10
2402.518388
 20
1813.094372
 30
0
 0
SPLINE
 8
DV1_MARK
 70
8
 71
3
 72
30
 73
26
 40
0
 40
0
 40
0
 40
0
 40
0.4998225586290599
 40
0.4998225586290599
 40
0.4998225586290599
 40
0.4998760378058287
 40
0.4998760378058287
 40
0.4998760378058287
 40
0.4999232145350352
 40
0.4999232145350352
 40
0.4999232145350352
 40
0.4999787590483827
 40
0.4999787590483827
 40
0.4999787590483827
 40
0.6267994082527751
 40
0.6267994082527751
 40
0.8133003629651099
 40
0.8133003629651099
 40
0.9998013176774426
 40
0.9998013176774426
 40
0.9998013176774426
 40
0.9998956611064924
 40
0.9998956611064924
 40
0.9998956611064924
 40
1
 40
1
 40
1
 40
1
 10
2394.634832
 20
1810.75936
 30
0
 10
2394.804371
 20
1812.007783
 30
0
 10
2394.973909
 20
1813.256205
 30
0
 10
2395.143448
 20
1814.504627
 30
0
 10
2395.160879
 20
1814.632982
 30
0
 10
2397.177914
 20
1814.550865
 30
0
 10
2397.848363
 20
1814.66646
 30
0
 10
2398.514941
 20
1814.781387
 30
0
 10
2399.258618
 20
1815.036363
 30
0
 10
2400.0909
 20
1815.452503
 30
0
 10
2400.932429
 20
1815.873268
 30
0
 10
2401.59363
 20
1816.492855
 30
0
 10
2402.148485
 20
1817.302018
 30
0
 10
2402.695945
 20
1818.100398
 30
0
 10
2402.957647
 20
1819.105295
 30
0
 10
2402.957647
 20
1822.01828
 30
0
 10
2402.379674
 20
1823.359178
 30
0
 10
2400.067781
 20
1825.254931
 30
0
 10
2398.750002
 20
1825.717309
 30
0
 10
2397.247271
 20
1825.740428
 30
0
 10
2395.514117
 20
1825.767092
 30
0
 10
2394.103096
 20
1825.185574
 30
0
 10
2393.016507
 20
1824.075865
 30
0
 10
2391.941474
 20
1822.977959
 30
0
 10
2391.259468
 20
1821.417188
 30
0
 10
2390.958922
 20
1819.382722
 30
0
 0
SPLINE
 8
DV1_MARK
 70
8
 71
3
 72
42
 73
38
 40
0
 40
0
 40
0
 40
0
 40
4.01597024403E-05
 40
4.01597024403E-05
 40
4.01597024403E-05
 40
0.0641341964932521
 40
0.0641341964932521
 40
0.1666846553585508
 40
0.1666846553585508
 40
0.1666846553585508
 40
0.2518448939475186
 40
0.2518448939475186
 40
0.3333291510146613
 40
0.3333291510146613
 40
0.3333291510146613
 40
0.3333836348423776
 40
0.3333836348423776
 40
0.3333836348423776
 40
0.500028130498488
 40
0.500028130498488
 40
0.500028130498488
 40
0.5000665130316685
 40
0.5000665130316685
 40
0.5000665130316685
 40
0.5803771133478669
 40
0.5803771133478669
 40
0.6667110086877789
 40
0.6667110086877789
 40
0.6667110086877789
 40
0.7524695795517434
 40
0.7524695795517434
 40
0.8333555043438894
 40
0.8333555043438894
 40
0.8333555043438894
 40
0.9512260012713825
 40
0.9512260012713825
 40
1
 40
1
 40
1
 40
1
 10
2402.518388
 20
1813.094372
 30
0
 10
2404.668448
 20
1812.678232
 30
0
 10
2406.309892
 20
1811.63788
 30
0
 10
2407.396482
 20
1809.973317
 30
0
 10
2408.48998
 20
1808.298171
 30
0
 10
2409.061045
 20
1806.505477
 30
0
 10
2409.061045
 20
1801.396193
 30
0
 10
2407.905099
 20
1798.783753
 30
0
 10
2405.616324
 20
1796.772406
 30
0
 10
2403.303042
 20
1794.739522
 30
0
 10
2400.553278
 20
1793.720707
 30
0
 10
2394.264929
 20
1793.720707
 30
0
 10
2391.744965
 20
1794.622346
 30
0
 10
2389.756737
 20
1796.402503
 30
0
 10
2387.744188
 20
1798.204437
 30
0
 10
2386.589443
 20
1800.563911
 30
0
 10
2386.265778
 20
1803.523135
 30
0
 10
2386.261809
 20
1803.559426
 30
0
 10
2389.117113
 20
1803.90845
 30
0
 10
2390.542781
 20
1804.101108
 30
0
 10
2390.644643
 20
1804.114873
 30
0
 10
2391.744965
 20
1800.078414
 30
0
 10
2392.877793
 20
1798.922467
 30
0
 10
2393.999063
 20
1797.778313
 30
0
 10
2395.490232
 20
1797.211666
 30
0
 10
2399.327975
 20
1797.211666
 30
0
 10
2401.015657
 20
1797.905234
 30
0
 10
2402.402793
 20
1799.315489
 30
0
 10
2403.778371
 20
1800.713993
 30
0
 10
2404.483497
 20
1802.413426
 30
0
 10
2404.483497
 20
1806.366763
 30
0
 10
2403.836167
 20
1807.985088
 30
0
 10
2402.587744
 20
1809.279749
 30
0
 10
2401.339735
 20
1810.573981
 30
0
 10
2399.674759
 20
1811.19862
 30
0
 10
2396.83113
 20
1811.19862
 30
0
 10
2395.813897
 20
1811.059906
 30
0
 10
2394.634832
 20
1810.75936
 30
0
 0
LINE
 8
DV1_MARK
 62
7
 10
2416.042963
 20
1806.551715
 11
2426.978218
 21
1806.551715
 0
LINE
 8
DV1_MARK
 62
7
 10
2426.978218
 20
1806.551715
 11
2426.978218
 21
1822.180113
 0
LINE
 8
DV1_MARK
 62
7
 10
2431.25522
 20
1794.344919
 11
2426.978218
 21
1794.344919
 0
LINE
 8
DV1_MARK
 62
7
 10
2435.948363
 20
1806.551715
 11
2435.948363
 21
1802.644615
 0
LINE
 8
DV1_MARK
 62
7
 10
2435.948363
 20
1802.644615
 11
2431.25522
 21
1802.644615
 0
LINE
 8
DV1_MARK
 62
7
 10
2431.25522
 20
1802.644615
 11
2431.25522
 21
1794.344919
 0
LINE
 8
DV1_MARK
 62
7
 10
2431.25522
 20
1806.551715
 11
2435.948363
 21
1806.551715
 0
LINE
 8
DV1_MARK
 62
7
 10
2426.978218
 20
1802.644615
 11
2411.881555
 21
1802.644615
 0
LINE
 8
DV1_MARK
 62
7
 10
2411.881555
 20
1802.644615
 11
2411.881555
 21
1806.551715
 0
LINE
 8
DV1_MARK
 62
7
 10
2426.978218
 20
1794.344919
 11
2426.978218
 21
1802.644615
 0
LINE
 8
DV1_MARK
 62
7
 10
2411.881555
 20
1806.551715
 11
2427.741142
 21
1829.092673
 0
LINE
 8
DV1_MARK
 62
7
 10
2427.741142
 20
1829.092673
 11
2431.25522
 21
1829.092673
 0
LINE
 8
DV1_MARK
 62
7
 10
2426.978218
 20
1822.180113
 11
2426.862623
 21
1822.180113
 0
LINE
 8
DV1_MARK
 62
7
 10
2426.862623
 20
1822.180113
 11
2416.042963
 21
1806.551715
 0
LINE
 8
DV1_MARK
 62
7
 10
2431.25522
 20
1829.092673
 11
2431.25522
 21
1806.551715
 0
LINE
 8
DV1_MARK
 62
7
 10
2447.7159
 20
1824.445768
 11
2445.912623
 21
1815.221314
 0
LINE
 8
DV1_MARK
 62
7
 10
2461.633497
 20
1824.445768
 11
2447.7159
 21
1824.445768
 0
LINE
 8
DV1_MARK
 62
7
 10
2461.633497
 20
1828.607176
 11
2461.633497
 21
1824.445768
 0
SPLINE
 8
DV1_MARK
 70
8
 71
3
 72
29
 73
25
 40
0
 40
0
 40
0
 40
0
 40
0.199991065955277
 40
0.199991065955277
 40
0.199991065955277
 40
0.2000357361788921
 40
0.2000357361788921
 40
0.2000357361788921
 40
0.2899725469043424
 40
0.2899725469043424
 40
0.4000268021341691
 40
0.4000268021341691
 40
0.4000268021341691
 40
0.4990608396024077
 40
0.4990608396024077
 40
0.6000178680894461
 40
0.6000178680894461
 40
0.6000178680894461
 40
0.6886931520507491
 40
0.6886931520507491
 40
0.8000089340447232
 40
0.8000089340447232
 40
0.8000089340447232
 40
1
 40
1
 40
1
 40
1
 10
2440.225366
 20
1803.476897
 30
0
 10
2441.712684
 20
1803.584785
 30
0
 10
2443.200002
 20
1803.692673
 30
0
 10
2444.68732
 20
1803.800562
 30
0
 10
2444.895135
 20
1803.815636
 30
0
 10
2445.843266
 20
1799.9397
 30
0
 10
2447.022332
 20
1798.85311
 30
0
 10
2448.212918
 20
1797.755903
 30
0
 10
2449.65789
 20
1797.211666
 30
0
 10
2453.56499
 20
1797.211666
 30
0
 10
2455.322028
 20
1798.020829
 30
0
 10
2456.662926
 20
1799.662273
 30
0
 10
2458.013078
 20
1801.315044
 30
0
 10
2458.697392
 20
1803.315064
 30
0
 10
2458.697392
 20
1808.123802
 30
0
 10
2458.003824
 20
1810.042673
 30
0
 10
2456.639807
 20
1811.452928
 30
0
 10
2455.264616
 20
1812.874736
 30
0
 10
2453.495633
 20
1813.57987
 30
0
 10
2448.594419
 20
1813.57987
 30
0
 10
2446.490596
 20
1812.447042
 30
0
 10
2445.034104
 20
1810.204506
 30
0
 10
2444.705636
 20
1809.69877
 30
0
 10
2442.321482
 20
1810.528171
 30
0
 10
2440.965172
 20
1810.690003
 30
0
 0
SPLINE
 8
DV1_MARK
 70
8
 71
3
 72
24
 73
20
 40
0
 40
0
 40
0
 40
0
 40
0.0001402486952707
 40
0.0001402486952707
 40
0.0001402486952707
 40
0.0003088200431344
 40
0.0003088200431344
 40
0.0003088200431344
 40
0.2485007333463635
 40
0.2485007333463635
 40
0.5000694073748081
 40
0.5000694073748081
 40
0.5000694073748081
 40
0.7751175004026687
 40
0.7751175004026687
 40
0.9998299947064816
 40
0.9998299947064816
 40
0.9998299947064816
 40
1
 40
1
 40
1
 40
1
 10
2445.912623
 20
1815.221314
 30
0
 10
2448.039565
 20
1816.631569
 30
0
 10
2450.235863
 20
1817.348256
 30
0
 10
2452.501519
 20
1817.371375
 30
0
 10
2455.390848
 20
1817.400858
 30
0
 10
2457.911349
 20
1816.331023
 30
0
 10
2460.061409
 20
1814.296557
 30
0
 10
2462.223012
 20
1812.25117
 30
0
 10
2463.274941
 20
1809.510938
 30
0
 10
2463.274941
 20
1802.667734
 30
0
 10
2462.188351
 20
1799.73163
 30
0
 10
2459.992053
 20
1797.327261
 30
0
 10
2457.80627
 20
1794.934404
 30
0
 10
2454.952125
 20
1793.720707
 30
0
 10
2448.525062
 20
1793.720707
 30
0
 10
2446.005099
 20
1794.552989
 30
0
 10
2443.878157
 20
1796.171314
 30
0
 10
2441.754717
 20
1797.786975
 30
0
 10
2440.549031
 20
1800.240246
 30
0
 10
2440.225366
 20
1803.476897
 30
0
 0
LINE
 8
DV1_MARK
 62
7
 10
2440.965172
 20
1810.690003
 11
2444.363655
 21
1828.607176
 0
LINE
 8
DV1_MARK
 62
7
 10
2444.363655
 20
1828.607176
 11
2461.633497
 21
1828.607176
 0
LINE
 8
DV1_MARK
 62
7
 10
2490.046664
 20
1828.607176
 11
2490.046664
 21
1825.27805
 0
LINE
 8
DV1_MARK
 62
7
 10
2467.551943
 20
1824.445768
 11
2467.551943
 21
1828.607176
 0
LINE
 8
DV1_MARK
 62
7
 10
2467.551943
 20
1828.607176
 11
2490.046664
 21
1828.607176
 0
ARC
 8
DV1_MARK
 62
7
 10
2524.365657
 20
1790.940506
 40
52.024011
 50
139.90667
 51
176.247926
 0
SPLINE
 8
DV1_MARK
 70
8
 71
3
 72
14
 73
10
 40
0
 40
0
 40
0
 40
0
 40
0.0006511934310828
 40
0.0006511934310828
 40
0.0006511934310828
 40
0.0013522260227161
 40
0.0013522260227161
 40
0.0013522260227161
 40
1
 40
1
 40
1
 40
1
 10
2490.046664
 20
1825.27805
 30
0
 10
2486.648181
 20
1821.555902
 30
0
 10
2483.688958
 20
1816.932115
 30
0
 10
2481.215232
 20
1811.429809
 30
0
 10
2478.728973
 20
1805.899625
 30
0
 10
2477.238776
 20
1800.217127
 30
0
 10
2476.776397
 20
1794.344919
 30
0
 10
2476.767518
 20
1794.232147
 30
0
 10
2473.894237
 20
1794.344919
 30
0
 10
2472.453157
 20
1794.344919
 30
0
 0
LINE
 8
DV1_MARK
 62
7
 10
2484.567477
 20
1824.445768
 11
2467.551943
 21
1824.445768
 0
LINE
 8
DV1_MARK
 62
7
 10
2183.720815
 20
1751.898559
 11
2194.65607
 21
1751.898559
 0
LINE
 8
DV1_MARK
 62
7
 10
2194.65607
 20
1751.898559
 11
2194.65607
 21
1767.526957
 0
LINE
 8
DV1_MARK
 62
7
 10
2203.626215
 20
1751.898559
 11
2203.626215
 21
1747.99146
 0
LINE
 8
DV1_MARK
 62
7
 10
2198.933072
 20
1751.898559
 11
2203.626215
 21
1751.898559
 0
LINE
 8
DV1_MARK
 62
7
 10
2198.933072
 20
1747.99146
 11
2198.933072
 21
1739.668644
 0
LINE
 8
DV1_MARK
 62
7
 10
2203.626215
 20
1747.99146
 11
2198.933072
 21
1747.99146
 0
LINE
 8
DV1_MARK
 62
7
 10
2198.933072
 20
1739.668644
 11
2194.65607
 21
1739.668644
 0
LINE
 8
DV1_MARK
 62
7
 10
2195.418994
 20
1774.439518
 11
2198.933072
 21
1774.439518
 0
LINE
 8
DV1_MARK
 62
7
 10
2194.65607
 20
1739.668644
 11
2194.65607
 21
1747.99146
 0
LINE
 8
DV1_MARK
 62
7
 10
2198.933072
 20
1774.439518
 11
2198.933072
 21
1751.898559
 0
LINE
 8
DV1_MARK
 62
7
 10
2194.65607
 20
1747.99146
 11
2179.559407
 21
1747.99146
 0
LINE
 8
DV1_MARK
 62
7
 10
2179.559407
 20
1751.898559
 11
2195.418994
 21
1774.439518
 0
LINE
 8
DV1_MARK
 62
7
 10
2179.559407
 20
1747.99146
 11
2179.559407
 21
1751.898559
 0
LINE
 8
DV1_MARK
 62
7
 10
2194.563594
 20
1767.526957
 11
2183.720815
 21
1751.898559
 0
LINE
 8
DV1_MARK
 62
7
 10
2194.65607
 20
1767.526957
 11
2194.563594
 21
1767.526957
 0
LINE
 8
DV1_DEFAULT
 62
7
 10
2480.638243
 20
1711.598914
 11
2037.154243
 21
1711.598914
 0
ARC
 8
DV1_DEFAULT
 62
7
 10
2480.638243
 20
1872.888914
 40
161.29
 50
-90
 51
90
 0
LINE
 8
DV1_MARK
 62
7
 10
2224.040232
 20
1774.601351
 11
2224.040232
 21
1739.668644
 0
SPLINE
 8
DV1_MARK
 70
8
 71
3
 72
11
 73
7
 40
0
 40
0
 40
0
 40
0
 40
0.0005434019425244
 40
0.0005434019425244
 40
0.0005434019425244
 40
1
 40
1
 40
1
 40
1
 10
2211.209225
 20
1765.885513
 30
0
 10
2216.156676
 20
1768.220525
 30
0
 10
2219.508922
 20
1771.133511
 30
0
 10
2221.289079
 20
1774.601351
 30
0
 10
2221.480335
 20
1774.973926
 30
0
 10
2223.123181
 20
1774.601351
 30
0
 10
2224.040232
 20
1774.601351
 30
0
 0
LINE
 8
DV1_MARK
 62
7
 10
2211.209225
 20
1761.724105
 11
2211.209225
 21
1765.885513
 0
LINE
 8
DV1_MARK
 62
7
 10
2224.040232
 20
1739.668644
 11
2219.76323
 21
1739.668644
 0
LINE
 8
DV1_MARK
 62
7
 10
2219.76323
 20
1739.668644
 11
2219.76323
 21
1766.856508
 0
ARC
 8
DV1_MARK
 62
7
 10
2202.361568
 20
1786.164739
 40
25.992799
 50
-70.099438
 51
-47.973049
 0
SPLINE
 8
DV1_MARK
 70
8
 71
3
 72
25
 73
21
 40
0
 40
0
 40
0
 40
0
 40
7.49250592501E-05
 40
7.49250592501E-05
 40
7.49250592501E-05
 40
0.1676601331498781
 40
0.1676601331498781
 40
0.3333832833728334
 40
0.3333832833728334
 40
0.3333832833728334
 40
0.4972128154252715
 40
0.4972128154252715
 40
0.6666916416864167
 40
0.6666916416864167
 40
0.6666916416864167
 40
0.7743359753052018
 40
0.7743359753052018
 40
0.8871679876526025
 40
0.8871679876526025
 40
1
 40
1
 40
1
 40
1
 10
2246.373121
 20
1742.558511
 30
0
 10
2248.40707
 20
1742.581364
 30
0
 10
2250.07215
 20
1743.205841
 30
0
 10
2251.436167
 20
1744.500501
 30
0
 10
2252.788022
 20
1745.783617
 30
0
 10
2253.447514
 20
1747.482843
 30
0
 10
2253.447514
 20
1751.621132
 30
0
 10
2252.753946
 20
1753.331933
 30
0
 10
2251.36681
 20
1754.649712
 30
0
 10
2249.96813
 20
1755.978458
 30
0
 10
2248.291992
 20
1756.661059
 30
0
 10
2244.199941
 20
1756.661059
 30
0
 10
2242.512259
 20
1755.967491
 30
0
 10
2241.217599
 20
1754.603474
 30
0
 10
2239.911395
 20
1753.227295
 30
0
 10
2239.275608
 20
1751.574894
 30
0
 10
2239.275608
 20
1747.644676
 30
0
 10
2239.946057
 20
1745.956994
 30
0
 10
2242.627854
 20
1743.22896
 30
0
 10
2244.315536
 20
1742.535392
 30
0
 10
2246.373121
 20
1742.558511
 30
0
 0
SPLINE
 8
DV1_MARK
 70
8
 71
3
 72
25
 73
21
 40
0
 40
0
 40
0
 40
0
 40
0.2010098690076924
 40
0.2010098690076924
 40
0.3333071807525499
 40
0.3333071807525499
 40
0.3333071807525499
 40
0.4224636142098511
 40
0.4224636142098511
 40
0.5122349196220314
 40
0.5122349196220314
 40
0.6020062250342126
 40
0.6020062250342126
 40
0.6666143615050998
 40
0.6666143615050998
 40
0.6666143615050998
 40
0.6666928192474502
 40
0.6666928192474502
 40
0.6666928192474502
 40
1
 40
1
 40
1
 40
1
 10
2251.274334
 20
1758.464336
 30
0
 10
2255.620693
 20
1757.054081
 30
0
 10
2257.793873
 20
1754.094858
 30
0
 10
2257.793873
 20
1746.581205
 30
0
 10
2256.730402
 20
1744.08436
 30
0
 10
2254.580341
 20
1742.073013
 30
0
 10
2252.44261
 20
1740.0732
 30
0
 10
2249.725366
 20
1739.067552
 30
0
 10
2242.997757
 20
1739.067552
 30
0
 10
2240.246604
 20
1740.084785
 30
0
 10
2235.99272
 20
1744.107479
 30
0
 10
2234.929249
 20
1746.650562
 30
0
 10
2234.929249
 20
1751.898559
 30
0
 10
2235.530341
 20
1753.817431
 30
0
 10
2236.709407
 20
1755.458875
 30
0
 10
2237.896341
 20
1757.111273
 30
0
 10
2239.529917
 20
1758.094433
 30
0
 10
2241.541264
 20
1758.464336
 30
0
 10
2241.546747
 20
1758.465344
 30
0
 10
2241.541264
 20
1758.525986
 30
0
 10
2241.541264
 20
1758.556812
 30
0
 0
SPLINE
 8
DV1_MARK
 70
8
 71
3
 72
23
 73
19
 40
0
 40
0
 40
0
 40
0
 40
0.147003745318353
 40
0.147003745318353
 40
0.2499999999999999
 40
0.2499999999999999
 40
0.2499999999999999
 40
0.3735521235521252
 40
0.3735521235521252
 40
0.4999999999999999
 40
0.4999999999999999
 40
0.4999999999999999
 40
0.6054687500000006
 40
0.6054687500000006
 40
0.7499999999999999
 40
0.7499999999999999
 40
0.7499999999999999
 40
1
 40
1
 40
1
 40
1
 10
2241.541264
 20
1758.556812
 30
0
 10
2238.073424
 20
1759.620283
 30
0
 10
2236.339504
 20
1761.955295
 30
0
 10
2236.339504
 20
1768.12805
 30
0
 10
2237.241142
 20
1770.254991
 30
0
 10
2239.090657
 20
1771.988911
 30
0
 10
2240.916332
 20
1773.700481
 30
0
 10
2243.321422
 20
1774.555113
 30
0
 10
2249.309225
 20
1774.555113
 30
0
 10
2251.736713
 20
1773.653474
 30
0
 10
2253.586227
 20
1771.896435
 30
0
 10
2255.459438
 20
1770.116885
 30
0
 10
2256.383618
 20
1767.989336
 30
0
 10
2256.383618
 20
1762.070889
 30
0
 10
2254.695936
 20
1759.758996
 30
0
 10
2251.274334
 20
1758.556812
 30
0
 10
2251.264694
 20
1758.553425
 30
0
 10
2251.274334
 20
1758.495161
 30
0
 10
2251.274334
 20
1758.464336
 30
0
 0
SPLINE
 8
DV1_MARK
 70
8
 71
3
 72
25
 73
21
 40
0
 40
0
 40
0
 40
0
 40
0.1099934679804063
 40
0.1099934679804063
 40
0.2199869359608138
 40
0.2199869359608138
 40
0.3333135393345676
 40
0.3333135393345676
 40
0.3333135393345676
 40
0.4975894980066059
 40
0.4975894980066059
 40
0.6666270786691353
 40
0.6666270786691353
 40
0.6666270786691353
 40
0.8199026478521854
 40
0.8199026478521854
 40
0.9999406180037029
 40
0.9999406180037029
 40
0.9999406180037029
 40
1
 40
1
 40
1
 40
1
 10
2246.373121
 20
1760.128899
 30
0
 10
2247.968327
 20
1760.128899
 30
0
 10
2249.332344
 20
1760.637516
 30
0
 10
2251.505523
 20
1762.671982
 30
0
 10
2252.037259
 20
1763.966642
 30
0
 10
2252.037259
 20
1767.064579
 30
0
 10
2251.482405
 20
1768.382358
 30
0
 10
2250.395815
 20
1769.445829
 30
0
 10
2249.28586
 20
1770.532167
 30
0
 10
2247.922089
 20
1771.064154
 30
0
 10
2244.685439
 20
1771.064154
 30
0
 10
2243.34454
 20
1770.532419
 30
0
 10
2242.28107
 20
1769.468948
 30
0
 10
2241.229158
 20
1768.417036
 30
0
 10
2240.662744
 20
1767.180173
 30
0
 10
2240.662744
 20
1764.01288
 30
0
 10
2241.217599
 20
1762.648863
 30
0
 10
2242.327307
 20
1761.63163
 30
0
 10
2243.412938
 20
1760.636469
 30
0
 10
2244.754795
 20
1760.128899
 30
0
 10
2246.373121
 20
1760.128899
 30
0
 0
LINE
 8
DV1_MARK
 62
7
 10
2261.516021
 20
1754.395404
 11
2274.53198
 21
1754.395404
 0
LINE
 8
DV1_MARK
 62
7
 10
2261.516021
 20
1750.118402
 11
2261.516021
 21
1754.395404
 0
LINE
 8
DV1_MARK
 62
7
 10
2274.53198
 20
1754.395404
 11
2274.53198
 21
1750.118402
 0
LINE
 8
DV1_MARK
 62
7
 10
2274.53198
 20
1750.118402
 11
2261.516021
 21
1750.118402
 0
SPLINE
 8
DV1_MARK
 70
8
 71
3
 72
26
 73
22
 40
0
 40
0
 40
0
 40
0
 40
5.92811566744E-05
 40
5.92811566744E-05
 40
5.92811566744E-05
 40
0.1642188672812488
 40
0.1642188672812488
 40
0.3333529863186827
 40
0.3333529863186827
 40
0.3333529863186827
 40
0.499999838899688
 40
0.499999838899688
 40
0.666646691480691
 40
0.666646691480691
 40
0.666646691480691
 40
0.8199131398398639
 40
0.8199131398398639
 40
0.9999403966426993
 40
0.9999403966426993
 40
0.9999403966426993
 40
1
 40
1
 40
1
 40
1
 10
2289.651761
 20
1760.128899
 30
0
 10
2291.246968
 20
1760.128899
 30
0
 10
2292.587866
 20
1760.637516
 30
0
 10
2293.674456
 20
1761.654749
 30
0
 10
2294.773366
 20
1762.683516
 30
0
 10
2295.3159
 20
1763.966642
 30
0
 10
2295.3159
 20
1767.064579
 30
0
 10
2294.761045
 20
1768.382358
 30
0
 10
2293.651337
 20
1769.445829
 30
0
 10
2292.54213
 20
1770.508818
 30
0
 10
2291.20073
 20
1771.064154
 30
0
 10
2287.964079
 20
1771.064154
 30
0
 10
2286.600062
 20
1770.532419
 30
0
 10
2285.536591
 20
1769.468948
 30
0
 10
2284.48468
 20
1768.417036
 30
0
 10
2283.941385
 20
1767.180173
 30
0
 10
2283.941385
 20
1764.01288
 30
0
 10
2284.49624
 20
1762.648863
 30
0
 10
2285.582829
 20
1761.63163
 30
0
 10
2286.670206
 20
1760.61366
 30
0
 10
2288.033436
 20
1760.128899
 30
0
 10
2289.651761
 20
1760.128899
 30
0
 0
SPLINE
 8
DV1_MARK
 70
8
 71
3
 72
26
 73
22
 40
0
 40
0
 40
0
 40
0
 40
7.4678549575E-05
 40
7.4678549575E-05
 40
7.4678549575E-05
 40
0.1676471368280199
 40
0.1676471368280199
 40
0.3333576789033719
 40
0.3333576789033719
 40
0.3333576789033719
 40
0.497174746873882
 40
0.497174746873882
 40
0.6666406792571689
 40
0.6666406792571689
 40
0.6666406792571689
 40
0.8293612029593169
 40
0.8293612029593169
 40
0.9999236796109658
 40
0.9999236796109658
 40
0.9999236796109658
 40
1
 40
1
 40
1
 40
1
 10
2289.651761
 20
1742.558511
 30
0
 10
2291.662595
 20
1742.581104
 30
0
 10
2293.35079
 20
1743.205841
 30
0
 10
2294.691689
 20
1744.500501
 30
0
 10
2296.044552
 20
1745.806714
 30
0
 10
2296.726155
 20
1747.482843
 30
0
 10
2296.726155
 20
1751.621132
 30
0
 10
2296.032587
 20
1753.331933
 30
0
 10
2294.645451
 20
1754.649712
 30
0
 10
2293.24677
 20
1755.978458
 30
0
 10
2291.570633
 20
1756.661059
 30
0
 10
2287.478582
 20
1756.661059
 30
0
 10
2285.7909
 20
1755.967491
 30
0
 10
2284.49624
 20
1754.603474
 30
0
 10
2283.190036
 20
1753.227295
 30
0
 10
2282.53113
 20
1751.574894
 30
0
 10
2282.53113
 20
1747.644676
 30
0
 10
2283.224698
 20
1745.956994
 30
0
 10
2284.542477
 20
1744.592977
 30
0
 10
2285.871417
 20
1743.217407
 30
0
 10
2287.594176
 20
1742.535392
 30
0
 10
2289.651761
 20
1742.558511
 30
0
 0
SPLINE
 8
DV1_MARK
 70
8
 71
3
 72
23
 73
19
 40
0
 40
0
 40
0
 40
0
 40
0.1470037453183519
 40
0.1470037453183519
 40
0.2500000000000001
 40
0.2500000000000001
 40
0.2500000000000001
 40
0.373552123552122
 40
0.373552123552122
 40
0.5000000000000001
 40
0.5000000000000001
 40
0.5000000000000001
 40
0.6054687500000003
 40
0.6054687500000003
 40
0.7500000000000001
 40
0.7500000000000001
 40
0.7500000000000001
 40
1
 40
1
 40
1
 40
1
 10
2284.819905
 20
1758.556812
 30
0
 10
2281.352065
 20
1759.620283
 30
0
 10
2279.618145
 20
1761.955295
 30
0
 10
2279.618145
 20
1768.12805
 30
0
 10
2280.519783
 20
1770.254991
 30
0
 10
2282.369298
 20
1771.988911
 30
0
 10
2284.194972
 20
1773.700481
 30
0
 10
2286.600062
 20
1774.555113
 30
0
 10
2292.587866
 20
1774.555113
 30
0
 10
2295.015354
 20
1773.653474
 30
0
 10
2296.864868
 20
1771.896435
 30
0
 10
2298.738079
 20
1770.116885
 30
0
 10
2299.662259
 20
1767.989336
 30
0
 10
2299.662259
 20
1762.070889
 30
0
 10
2297.951458
 20
1759.758996
 30
0
 10
2294.552975
 20
1758.556812
 30
0
 10
2294.543284
 20
1758.553383
 30
0
 10
2294.552975
 20
1758.495161
 30
0
 10
2294.552975
 20
1758.464336
 30
0
 0
SPLINE
 8
DV1_MARK
 70
8
 71
3
 72
25
 73
21
 40
0
 40
0
 40
0
 40
0
 40
0.1117119283830679
 40
0.1117119283830679
 40
0.1852366159413111
 40
0.1852366159413111
 40
0.2587613034995553
 40
0.2587613034995553
 40
0.3333071672738872
 40
0.3333071672738872
 40
0.3333071672738872
 40
0.5271245508868972
 40
0.5271245508868972
 40
0.6666143345477744
 40
0.6666143345477744
 40
0.6666143345477744
 40
0.6666928327261129
 40
0.6666928327261129
 40
0.6666928327261129
 40
1
 40
1
 40
1
 40
1
 10
2294.552975
 20
1758.464336
 30
0
 10
2298.899334
 20
1757.054081
 30
0
 10
2301.072514
 20
1754.094858
 30
0
 10
2301.072514
 20
1746.581205
 30
0
 10
2299.985924
 20
1744.08436
 30
0
 10
2295.73204
 20
1740.061666
 30
0
 10
2292.980888
 20
1739.067552
 30
0
 10
2286.276397
 20
1739.067552
 30
0
 10
2283.502125
 20
1740.084785
 30
0
 10
2281.398303
 20
1742.096132
 30
0
 10
2279.282401
 20
1744.119027
 30
0
 10
2278.20789
 20
1746.650562
 30
0
 10
2278.20789
 20
1751.898559
 30
0
 10
2278.808982
 20
1753.817431
 30
0
 10
2279.988048
 20
1755.458875
 30
0
 10
2281.174982
 20
1757.111273
 30
0
 10
2282.785439
 20
1758.094433
 30
0
 10
2284.819905
 20
1758.464336
 30
0
 10
2284.82533
 20
1758.465322
 30
0
 10
2284.819905
 20
1758.525986
 30
0
 10
2284.819905
 20
1758.556812
 30
0
 0
LINE
 8
DV1_MARK
 62
7
 10
2308.054431
 20
1751.898559
 11
2318.966567
 21
1751.898559
 0
LINE
 8
DV1_MARK
 62
7
 10
2318.966567
 20
1751.898559
 11
2318.966567
 21
1767.526957
 0
LINE
 8
DV1_MARK
 62
7
 10
2323.24357
 20
1739.668644
 11
2318.966567
 21
1739.668644
 0
LINE
 8
DV1_MARK
 62
7
 10
2323.24357
 20
1747.99146
 11
2323.24357
 21
1739.668644
 0
LINE
 8
DV1_MARK
 62
7
 10
2323.24357
 20
1751.898559
 11
2327.959832
 21
1751.898559
 0
LINE
 8
DV1_MARK
 62
7
 10
2327.959832
 20
1747.99146
 11
2323.24357
 21
1747.99146
 0
LINE
 8
DV1_MARK
 62
7
 10
2327.959832
 20
1751.898559
 11
2327.959832
 21
1747.99146
 0
LINE
 8
DV1_MARK
 62
7
 10
2318.966567
 20
1739.668644
 11
2318.966567
 21
1747.99146
 0
LINE
 8
DV1_MARK
 62
7
 10
2318.966567
 20
1747.99146
 11
2303.869905
 21
1747.99146
 0
LINE
 8
DV1_MARK
 62
7
 10
2303.869905
 20
1751.898559
 11
2319.729492
 21
1774.439518
 0
LINE
 8
DV1_MARK
 62
7
 10
2319.729492
 20
1774.439518
 11
2323.24357
 21
1774.439518
 0
LINE
 8
DV1_MARK
 62
7
 10
2303.869905
 20
1747.99146
 11
2303.869905
 21
1751.898559
 0
LINE
 8
DV1_MARK
 62
7
 10
2318.874091
 20
1767.526957
 11
2308.054431
 21
1751.898559
 0
LINE
 8
DV1_MARK
 62
7
 10
2318.966567
 20
1767.526957
 11
2318.874091
 21
1767.526957
 0
LINE
 8
DV1_MARK
 62
7
 10
2323.24357
 20
1774.439518
 11
2323.24357
 21
1751.898559
 0
LINE
 8
DV1_MARK
 62
7
 10
2339.658011
 20
1769.792613
 11
2337.854735
 21
1760.54504
 0
LINE
 8
DV1_MARK
 62
7
 10
2353.55249
 20
1769.792613
 11
2339.658011
 21
1769.792613
 0
LINE
 8
DV1_MARK
 62
7
 10
2353.55249
 20
1773.930902
 11
2353.55249
 21
1769.792613
 0
SPLINE
 8
DV1_MARK
 70
8
 71
3
 72
23
 73
19
 40
0
 40
0
 40
0
 40
0
 40
0.1473047699817464
 40
0.1473047699817464
 40
0.3332956411708112
 40
0.3332956411708112
 40
0.3332956411708112
 40
0.4988174629684777
 40
0.4988174629684777
 40
0.6665912823416225
 40
0.6665912823416225
 40
0.6665912823416225
 40
0.849366311370777
 40
0.849366311370777
 40
0.9998869235124337
 40
0.9998869235124337
 40
0.9998869235124337
 40
1
 40
1
 40
1
 40
1
 10
2337.854735
 20
1760.54504
 30
0
 10
2339.958557
 20
1761.978414
 30
0
 10
2342.154856
 20
1762.695101
 30
0
 10
2347.333497
 20
1762.695101
 30
0
 10
2349.85346
 20
1761.677868
 30
0
 10
2352.003521
 20
1759.643402
 30
0
 10
2354.152926
 20
1757.609556
 30
0
 10
2355.217053
 20
1754.857783
 30
0
 10
2355.217053
 20
1748.014579
 30
0
 10
2354.130463
 20
1745.078474
 30
0
 10
2351.934164
 20
1742.674105
 30
0
 10
2349.748382
 20
1740.281249
 30
0
 10
2346.894237
 20
1739.067552
 30
0
 10
2340.444055
 20
1739.067552
 30
0
 10
2337.94721
 20
1739.876715
 30
0
 10
2335.820269
 20
1741.518159
 30
0
 10
2333.707816
 20
1743.148421
 30
0
 10
2332.491142
 20
1745.587091
 30
0
 10
2332.167477
 20
1748.800622
 30
0
 0
SPLINE
 8
DV1_MARK
 70
8
 71
3
 72
31
 73
27
 40
0
 40
0
 40
0
 40
0
 40
0.3331992851249289
 40
0.3331992851249289
 40
0.3331992851249289
 40
0.3332740788422229
 40
0.3332740788422229
 40
0.3332740788422229
 40
0.3333383058688946
 40
0.3333383058688946
 40
0.3333383058688946
 40
0.3334201234659673
 40
0.3334201234659673
 40
0.3334201234659673
 40
0.4992226385520559
 40
0.4992226385520559
 40
0.6666194085908962
 40
0.6666194085908962
 40
0.6666194085908962
 40
0.6666986470265591
 40
0.6666986470265591
 40
0.6666986470265591
 40
0.6668007148750709
 40
0.6668007148750709
 40
0.6668007148750709
 40
1
 40
1
 40
1
 40
1
 10
2332.167477
 20
1748.800622
 30
0
 10
2333.654795
 20
1748.916217
 30
0
 10
2335.142113
 20
1749.031812
 30
0
 10
2336.629431
 20
1749.147406
 30
0
 10
2336.825655
 20
1749.162657
 30
0
 10
2337.762259
 20
1745.263426
 30
0
 10
2338.964443
 20
1744.176836
 30
0
 10
2340.153904
 20
1743.101747
 30
0
 10
2341.600002
 20
1742.535392
 30
0
 10
2343.333922
 20
1742.558511
 30
0
 10
2345.506407
 20
1742.587477
 30
0
 10
2347.26414
 20
1743.367673
 30
0
 10
2348.605038
 20
1745.009118
 30
0
 10
2349.943862
 20
1746.648023
 30
0
 10
2350.639504
 20
1748.63879
 30
0
 10
2350.639504
 20
1753.470647
 30
0
 10
2349.945936
 20
1755.389518
 30
0
 10
2348.581919
 20
1756.799773
 30
0
 10
2347.206728
 20
1758.221581
 30
0
 10
2345.437744
 20
1758.903596
 30
0
 10
2343.264565
 20
1758.926715
 30
0
 10
2340.537085
 20
1758.95573
 30
0
 10
2338.432708
 20
1757.793887
 30
0
 10
2336.976215
 20
1755.551351
 30
0
 10
2336.647748
 20
1755.045615
 30
0
 10
2334.263594
 20
1755.875016
 30
0
 10
2332.907283
 20
1756.036848
 30
0
 0
LINE
 8
DV1_MARK
 62
7
 10
2336.305766
 20
1773.930902
 11
2353.55249
 21
1773.930902
 0
LINE
 8
DV1_MARK
 62
7
 10
2332.907283
 20
1756.036848
 11
2336.305766
 21
1773.930902
 0
SPLINE
 8
DV1_MARK
 70
8
 71
3
 72
8
 73
4
 40
0
 40
0
 40
0
 40
0
 40
1
 40
1
 40
1
 40
1
 10
2589.557712
 20
1932.313668
 30
0
 10
2586.134553
 20
1907.985977
 30
0
 10
2541.039432
 20
1893.029057
 30
0
 10
2479.578891
 20
1892.473692
 30
0
 0
SPLINE
 8
DV1_MARK
 70
8
 71
3
 72
8
 73
4
 40
0
 40
0
 40
0
 40
0
 40
1
 40
1
 40
1
 40
1
 10
2428.925624
 20
2015.08925
 30
0
 10
2522.225494
 20
2001.959293
 30
0
 10
2594.142914
 20
1964.898799
 30
0
 10
2589.557712
 20
1932.313668
 30
0
 0
ARC
 8
DV1_MARK
 62
7
 10
2368.57601
 20
1623.096895
 40
396.610744
 50
81.247684
 51
97.598826
 0
POLYLINE
 8
DV1_MARK
 62
7
 66
1
 10
0
 20
0
 70
0
 0
VERTEX
 8
0
 10
2479.578891
 20
1892.473692
 0
VERTEX
 8
0
 10
2492.323225
 20
1893.542452
 0
VERTEX
 8
0
 10
2504.347668
 20
1895.071288
 0
VERTEX
 8
0
 10
2515.561182
 20
1897.048624
 0
VERTEX
 8
0
 10
2525.87887
 20
1899.459491
 0
VERTEX
 8
0
 10
2535.222619
 20
1902.285636
 0
VERTEX
 8
0
 10
2543.521686
 20
1905.505662
 0
VERTEX
 8
0
 10
2550.713239
 20
1909.095191
 0
VERTEX
 8
0
 10
2556.742833
 20
1913.027046
 0
VERTEX
 8
0
 10
2561.564816
 20
1917.271459
 0
VERTEX
 8
0
 10
2565.142681
 20
1921.796297
 0
VERTEX
 8
0
 10
2567.449342
 20
1926.567301
 0
VERTEX
 8
0
 10
2568.467334
 20
1931.548351
 0
VERTEX
 8
0
 10
2568.18895
 20
1936.701735
 0
VERTEX
 8
0
 10
2566.616297
 20
1941.988437
 0
VERTEX
 8
0
 10
2563.761283
 20
1947.368433
 0
VERTEX
 8
0
 10
2559.645522
 20
1952.800989
 0
VERTEX
 8
0
 10
2554.300175
 20
1958.244976
 0
VERTEX
 8
0
 10
2547.765711
 20
1963.659179
 0
VERTEX
 8
0
 10
2540.091602
 20
1969.002606
 0
VERTEX
 8
0
 10
2531.335948
 20
1974.234803
 0
VERTEX
 8
0
 10
2521.56504
 20
1979.316156
 0
VERTEX
 8
0
 10
2510.85285
 20
1984.208195
 0
VERTEX
 8
0
 10
2499.280482
 20
1988.873883
 0
VERTEX
 8
0
 10
2486.935549
 20
1993.277895
 0
VERTEX
 8
0
 10
2473.911515
 20
1997.38689
 0
VERTEX
 8
0
 10
2460.306983
 20
2001.169758
 0
VERTEX
 8
0
 10
2446.224953
 20
2004.597859
 0
VERTEX
 8
0
 10
2431.77204
 20
2007.645239
 0
VERTEX
 8
0
 10
2417.057666
 20
2010.288826
 0
VERTEX
 8
0
 10
2402.193233
 20
2012.508607
 0
VERTEX
 8
0
 10
2387.29128
 20
2014.287774
 0
VERTEX
 8
0
 10
2372.464627
 20
2015.612859
 0
VERTEX
 8
0
 10
2357.825529
 20
2016.473829
 0
VERTEX
 8
0
 10
2343.484816
 20
2016.864165
 0
VERTEX
 8
0
 10
2329.551061
 20
2016.780913
 0
VERTEX
 8
0
 10
2316.129757
 20
2016.224702 
 0
SEQEND
 8
0
 0
LINE
 8
DV1_MARK
 62
7
 10
2358.754249
 20
1754.395404
 11
2371.770208
 21
1754.395404
 0
LINE
 8
DV1_MARK
 62
7
 10
2371.770208
 20
1754.395404
 11
2371.770208
 21
1750.118402
 0
LINE
 8
DV1_MARK
 62
7
 10
2358.754249
 20
1750.118402
 11
2358.754249
 21
1754.395404
 0
LINE
 8
DV1_MARK
 62
7
 10
2371.770208
 20
1750.118402
 11
2358.754249
 21
1750.118402
 0
SPLINE
 8
DV1_MARK
 70
8
 71
3
 72
24
 73
20
 40
0
 40
0
 40
0
 40
0
 40
0.0001150749807651
 40
0.0001150749807651
 40
0.0001150749807651
 40
0.2488174167368191
 40
0.2488174167368191
 40
0.5000575374903826
 40
0.5000575374903826
 40
0.5000575374903826
 40
0.6034356317949674
 40
0.6034356317949674
 40
0.7056116552355516
 40
0.7056116552355516
 40
0.8077876786761343
 40
0.8077876786761343
 40
0.903893839338069
 40
0.903893839338069
 40
1
 40
1
 40
1
 40
1
 10
2386.751276
 20
1755.181448
 30
0
 10
2388.855099
 20
1755.181448
 30
0
 10
2390.519662
 20
1755.921253
 30
0
 10
2391.744965
 20
1757.400865
 30
0
 10
2392.979674
 20
1758.891834
 30
0
 10
2393.59448
 20
1760.75311
 30
0
 10
2393.59448
 20
1765.30754
 30
0
 10
2392.970269
 20
1767.226411
 30
0
 10
2391.698727
 20
1768.752261
 30
0
 10
2390.425291
 20
1770.280384
 30
0
 10
2388.83198
 20
1771.064154
 30
0
 10
2384.878642
 20
1771.064154
 30
0
 10
2383.19096
 20
1770.254991
 30
0
 10
2380.462926
 20
1766.972103
 30
0
 10
2379.792477
 20
1765.006994
 30
0
 10
2379.792477
 20
1760.475683
 30
0
 10
2380.462926
 20
1758.695525
 30
0
 10
2383.144723
 20
1755.875016
 30
0
 10
2384.786167
 20
1755.181448
 30
0
 10
2386.751276
 20
1755.181448
 30
0
 0
SPLINE
 8
DV1_MARK
 70
8
 71
3
 72
14
 73
10
 40
0
 40
0
 40
0
 40
0
 40
0.3459756944910511
 40
0.3459756944910511
 40
0.3459756944910511
 40
0.6268829147617714
 40
0.6268829147617714
 40
0.6268829147617714
 40
1
 40
1
 40
1
 40
1
 10
2380.16238
 20
1748.037698
 30
0
 10
2380.80971
 20
1744.384906
 30
0
 10
2382.728582
 20
1742.535392
 30
0
 10
2385.918994
 20
1742.558511
 30
0
 10
2388.554247
 20
1742.577607
 30
0
 10
2390.5659
 20
1743.737576
 30
0
 10
2391.976155
 20
1746.141945
 30
0
 10
2393.380492
 20
1748.536225
 30
0
 10
2394.056858
 20
1751.829202
 30
0
 10
2394.056858
 20
1756.013729
 30
0
 0
LINE
 8
DV1_MARK
 62
7
 10
2394.056858
 20
1756.013729
 11
2393.964383
 21
1756.013729
 0
LINE
 8
DV1_MARK
 62
7
 10
2376.04721
 20
1747.714033
 11
2380.16238
 21
1748.037698
 0
SPLINE
 8
DV1_MARK
 70
8
 71
3
 72
36
 73
32
 40
0
 40
0
 40
0
 40
0
 40
3.85623989127E-05
 40
3.85623989127E-05
 40
3.85623989127E-05
 40
0.0747786751139413
 40
0.0747786751139413
 40
0.2000188639877706
 40
0.2000188639877706
 40
0.2000188639877706
 40
0.2993288096747545
 40
0.2993288096747545
 40
0.3999991655766286
 40
0.3999991655766286
 40
0.3999991655766286
 40
0.4996309287338007
 40
0.4996309287338007
 40
0.5999794671654866
 40
0.5999794671654866
 40
0.5999794671654866
 40
0.6992261967644177
 40
0.6992261967644177
 40
0.7999597687543445
 40
0.7999597687543445
 40
0.7999597687543445
 40
0.9209268742608931
 40
0.9209268742608931
 40
0.9999400703432024
 40
0.9999400703432024
 40
0.9999400703432024
 40
1
 40
1
 40
1
 40
1
 10
2393.964383
 20
1756.013729
 30
0
 10
2393.132101
 20
1754.649712
 30
0
 10
2391.976155
 20
1753.540003
 30
0
 10
2390.496543
 20
1752.707722
 30
0
 10
2389.034493
 20
1751.885319
 30
0
 10
2387.467963
 20
1751.4593
 30
0
 10
2382.890414
 20
1751.4593
 30
0
 10
2380.439807
 20
1752.499652
 30
0
 10
2378.451579
 20
1754.603474
 30
0
 10
2376.463985
 20
1756.706626
 30
0
 10
2375.446118
 20
1759.435331
 30
0
 10
2375.446118
 20
1766.232297
 30
0
 10
2376.463351
 20
1769.052807
 30
0
 10
2378.497817
 20
1771.249105
 30
0
 10
2380.54296
 20
1773.45693
 30
0
 10
2383.167841
 20
1774.555113
 30
0
 10
2389.618023
 20
1774.555113
 30
0
 10
2392.415414
 20
1773.283571
 30
0
 10
2394.773545
 20
1770.786727
 30
0
 10
2397.143217
 20
1768.277663
 30
0
 10
2398.310742
 20
1763.920404
 30
0
 10
2398.310742
 20
1751.482419
 30
0
 10
2397.224152
 20
1746.789275
 30
0
 10
2395.074091
 20
1743.714457
 30
0
 10
2392.913174
 20
1740.624112
 30
0
 10
2389.826094
 20
1739.067552
 30
0
 10
2383.214079
 20
1739.067552
 30
0
 10
2381.017781
 20
1739.784239
 30
0
 10
2379.260742
 20
1741.217613
 30
0
 10
2377.515027
 20
1742.641749
 30
0
 10
2376.440232
 20
1744.801047
 30
0
 10
2376.04721
 20
1747.714033
 30
0
 0
LINE
 8
DV1_MARK
 62
7
 10
2425.267417
 20
1773.930902
 11
2425.267417
 21
1770.624894
 0
LINE
 8
DV1_MARK
 62
7
 10
2402.772696
 20
1773.930902
 11
2425.267417
 21
1773.930902
 0
LINE
 8
DV1_MARK
 62
7
 10
2402.772696
 20
1769.792613
 11
2402.772696
 21
1773.930902
 0
SPLINE
 8
DV1_MARK
 70
8
 71
3
 72
14
 73
10
 40
0
 40
0
 40
0
 40
0
 40
0.0006525203626061
 40
0.0006525203626061
 40
0.0006525203626061
 40
0.001353229856126
 40
0.001353229856126
 40
0.001353229856126
 40
1
 40
1
 40
1
 40
1
 10
2425.267417
 20
1770.624894
 30
0
 10
2421.845815
 20
1766.902746
 30
0
 10
2418.90971
 20
1762.27896
 30
0
 10
2416.412866
 20
1756.753535
 30
0
 10
2413.928617
 20
1751.255984
 30
0
 10
2412.459528
 20
1745.540853
 30
0
 10
2411.99715
 20
1739.668644
 30
0
 10
2411.988223
 20
1739.555269
 30
0
 10
2409.099577
 20
1739.668644
 30
0
 10
2407.65079
 20
1739.668644
 30
0
 0
ARC
 8
DV1_MARK
 62
7
 10
2459.953094
 20
1736.133195
 40
52.421659
 50
140.052166
 51
176.132893
 0
LINE
 8
DV1_MARK
 62
7
 10
2419.765111
 20
1769.792613
 11
2402.772696
 21
1769.792613
 0
LINE
 8
DV1_MARK
 62
7
 10
2452.03914
 20
1743.830052
 11
2452.03914
 21
1739.668644
 0
LINE
 8
DV1_MARK
 62
7
 10
2434.861773
 20
1743.830052
 11
2452.03914
 21
1743.830052
 0
SPLINE
 8
DV1_MARK
 70
8
 71
3
 72
24
 73
20
 40
0
 40
0
 40
0
 40
0
 40
0.0001714314784168
 40
0.0001714314784168
 40
0.0001714314784168
 40
0.2394698790298797
 40
0.2394698790298797
 40
0.4998828954829375
 40
0.4998828954829375
 40
0.4998828954829375
 40
0.7733099229571079
 40
0.7733099229571079
 40
0.9995943594874583
 40
0.9995943594874583
 40
0.9995943594874583
 40
0.9998566797720219
 40
0.9998566797720219
 40
0.9998566797720219
 40
1
 40
1
 40
1
 40
1
 10
2429.775608
 20
1764.475258
 30
0
 10
2430.053036
 20
1767.735028
 30
0
 10
2431.208982
 20
1770.231872
 30
0
 10
2433.266567
 20
1771.965792
 30
0
 10
2435.299241
 20
1773.67872
 30
0
 10
2437.913473
 20
1774.555113
 30
0
 10
2444.479249
 20
1774.555113
 30
0
 10
2447.137926
 20
1773.607236
 30
0
 10
2449.056798
 20
1771.734603
 30
0
 10
2450.975384
 20
1769.862248
 30
0
 10
2451.900426
 20
1767.573195
 30
0
 10
2451.900426
 20
1762.671982
 30
0
 10
2451.114383
 20
1760.429445
 30
0
 10
2449.496057
 20
1758.140671
 30
0
 10
2447.88863
 20
1755.86731
 30
0
 10
2444.68732
 20
1752.823317
 30
0
 10
2439.901701
 20
1748.985574
 30
0
 10
2437.38637
 20
1746.968449
 30
0
 10
2435.694055
 20
1745.263426
 30
0
 10
2434.861773
 20
1743.830052
 30
0
 0
LINE
 8
DV1_MARK
 62
7
 10
2434.121968
 20
1763.989761
 11
2429.775608
 21
1764.475258
 0
LINE
 8
DV1_MARK
 62
7
 10
2452.03914
 20
1739.668644
 11
2428.920208
 21
1739.668644
 0
SPLINE
 8
DV1_MARK
 70
8
 71
3
 72
26
 73
22
 40
0
 40
0
 40
0
 40
0
 40
0.1666350508337375
 40
0.1666350508337375
 40
0.3332701016674733
 40
0.3332701016674733
 40
0.3332701016674733
 40
0.3333810846508997
 40
0.3333810846508997
 40
0.3333810846508997
 40
0.5122089440822268
 40
0.5122089440822268
 40
0.6666511863183731
 40
0.6666511863183731
 40
0.6666511863183731
 40
0.8332862371521155
 40
0.8332862371521155
 40
0.9999212879858466
 40
0.9999212879858466
 40
0.9999212879858466
 40
1
 40
1
 40
1
 40
1
 10
2428.920208
 20
1739.668644
 30
0
 10
2428.920208
 20
1741.633753
 30
0
 10
2429.613776
 20
1743.621982
 30
0
 10
2432.34181
 20
1747.644676
 30
0
 10
2434.908011
 20
1750.164639
 30
0
 10
2438.676397
 20
1753.170101
 30
0
 10
2440.965656
 20
1754.995889
 30
0
 10
2443.022757
 20
1756.915368
 30
0
 10
2444.849152
 20
1758.926715
 30
0
 10
2446.6651
 20
1760.926556
 30
0
 10
2447.577186
 20
1762.972528
 30
0
 10
2447.577186
 20
1766.764033
 30
0
 10
2446.952975
 20
1768.197406
 30
0
 10
2445.681434
 20
1769.353353
 30
0
 10
2444.434057
 20
1770.487331
 30
0
 10
2442.860924
 20
1771.064154
 30
0
 10
2439.023181
 20
1771.064154
 30
0
 10
2437.404856
 20
1770.486181
 30
0
 10
2436.110196
 20
1769.283996
 30
0
 10
2434.814649
 20
1768.080988
 30
0
 10
2434.145087
 20
1766.347892
 30
0
 10
2434.121968
 20
1763.989761
 30
0
 0
SPLINE
 8
DV1_MARK
 70
8
 71
3
 72
29
 73
25
 40
0
 40
0
 40
0
 40
0
 40
0.000135411294065
 40
0.000135411294065
 40
0.000135411294065
 40
0.2946346138190069
 40
0.2946346138190069
 40
0.4999735073226356
 40
0.4999735073226356
 40
0.4999735073226356
 40
0.5843657867265865
 40
0.6687580661305392
 40
0.6687580661305392
 40
0.7916232964392407
 40
0.7916232964392407
 40
0.9144885267479416
 40
0.9144885267479416
 40
0.9998116033512061
 40
0.9998116033512061
 40
0.9998116033512061
 40
0.9999141526924699
 40
0.9999141526924699
 40
0.9999141526924699
 40
1
 40
1
 40
1
 40
1
 10
2467.991203
 20
1742.558511
 30
0
 10
2470.279123
 20
1742.592659
 30
0
 10
2472.013897
 20
1743.645101
 30
0
 10
2473.192963
 20
1745.887637
 30
0
 10
2474.362506
 20
1748.112061
 30
0
 10
2474.950002
 20
1751.736727
 30
0
 10
2474.950002
 20
1760.290732
 30
0
 10
2474.695693
 20
1763.065003
 30
0
 10
2474.187077
 20
1765.076351
 30
0
 10
2473.677071
 20
1767.093192
 30
0
 10
2472.129492
 20
1770.093159
 30
0
 10
2469.493934
 20
1771.064154
 30
0
 10
2465.633072
 20
1771.064154
 30
0
 10
2463.899152
 20
1769.931326
 30
0
 10
2461.587259
 20
1765.400016
 30
0
 10
2461.009286
 20
1761.770343
 30
0
 10
2461.009286
 20
1753.308814
 30
0
 10
2461.286713
 20
1750.58078
 30
0
 10
2461.795329
 20
1748.546314
 30
0
 10
2462.305306
 20
1746.506408
 30
0
 10
2463.08999
 20
1745.009118
 30
0
 10
2464.130341
 20
1744.038122
 30
0
 10
2465.16987
 20
1743.067896
 30
0
 10
2466.442235
 20
1742.535392
 30
0
 10
2467.991203
 20
1742.558511
 30
0
 0
SPLINE
 8
DV1_MARK
 70
8
 71
3
 72
20
 73
16
 40
0
 40
0
 40
0
 40
0
 40
0.3319690389102618
 40
0.3319690389102618
 40
0.4998986894527577
 40
0.4998986894527577
 40
0.4998986894527577
 40
0.6215561035589359
 40
0.6215561035589359
 40
0.8725707681071208
 40
0.8725707681071208
 40
0.9997973789055155
 40
0.9997973789055155
 40
0.9997973789055155
 40
1
 40
1
 40
1
 40
1
 10
2467.968084
 20
1774.555113
 30
0
 10
2475.527975
 20
1774.555113
 30
0
 10
2479.296361
 20
1768.613547
 30
0
 10
2479.296361
 20
1750.788851
 30
0
 10
2478.325366
 20
1746.350016
 30
0
 10
2476.360257
 20
1743.43703
 30
0
 10
2474.402378
 20
1740.534763
 30
0
 10
2471.620875
 20
1739.067552
 30
0
 10
2460.431312
 20
1739.067552
 30
0
 10
2456.662926
 20
1744.96288
 30
0
 10
2456.662926
 20
1762.764457
 30
0
 10
2457.65704
 20
1767.226411
 30
0
 10
2459.599031
 20
1770.162516
 30
0
 10
2461.530383
 20
1773.082537
 30
0
 10
2464.338412
 20
1774.555113
 30
0
 10
2467.968084
 20
1774.555113
 30
0
 0
CIRCLE
 8
DV1_DEFAULT
 62
7
 10
2077.540243
 20
1872.888914
 40
40.386
 0
LINE
 8
DV1_DEFAULT
 62
7
 10
2037.154243
 20
2034.178914
 11
2480.638243
 21
2034.178914
 0
ARC
 8
DV1_DEFAULT
 62
7
 10
2037.154243
 20
1993.792914
 40
40.386
 50
90
 51
180
 0
LINE
 8
DV1_DEFAULT
 62
7
 10
1996.768243
 20
1751.984914
 11
1996.768243
 21
1993.792914
 0
ARC
 8
DV1_DEFAULT
 62
7
 10
2037.154243
 20
1751.984914
 40
40.386
 50
180
 51
270
 0
SPLINE
 8
DV1_MARK
 70
8
 71
3
 72
25
 73
21
 40
0
 40
0
 40
0
 40
0
 40
0.0002946789749548
 40
0.0002946789749548
 40
0.0002946789749548
 40
0.0005778950227712
 40
0.0005778950227712
 40
0.0005778950227712
 40
0.0008619478403281
 40
0.0008619478403281
 40
0.0008619478403281
 40
0.2001135964754267
 40
0.2001135964754267
 40
0.4009218986154869
 40
0.4009218986154869
 40
0.601730200755546
 40
0.601730200755546
 40
0.8008651003777724
 40
0.8008651003777724
 40
1
 40
1
 40
1
 40
1
 10
2288.475029
 20
1942.10706
 30
0
 10
2288.475029
 20
1939.384112
 30
0
 10
2289.283404
 20
1937.150443
 30
0
 10
2290.921427
 20
1935.406055
 30
0
 10
2292.570066
 20
1933.650361
 30
0
 10
2294.644208
 20
1932.768199
 30
0
 10
2297.175699
 20
1932.789472
 30
0
 10
2299.728104
 20
1932.810921
 30
0
 10
2301.81322
 20
1933.640393
 30
0
 10
2303.451243
 20
1935.406055
 30
0
 10
2305.07866
 20
1937.160283
 30
0
 10
2305.897642
 20
1939.384112
 30
0
 10
2305.897642
 20
1944.851281
 30
0
 10
2305.089267
 20
1947.084949
 30
0
 10
2301.81322
 20
1950.616272
 30
0
 10
2299.728463
 20
1951.488467
 30
0
 10
2294.644208
 20
1951.488467
 30
0
 10
2292.559451
 20
1950.616272
 30
0
 10
2289.283404
 20
1947.084949
 30
0
 10
2288.475029
 20
1944.851281
 30
0
 10
2288.475029
 20
1942.10706
 30
0
 0
SPLINE
 8
DV1_MARK
 70
8
 71
3
 72
31
 73
27
 40
0
 40
0
 40
0
 40
0
 40
4.09711151377E-05
 40
4.09711151377E-05
 40
4.09711151377E-05
 40
0.1762832108280147
 40
0.1762832108280147
 40
0.2499845110715814
 40
0.2499845110715814
 40
0.2499845110715814
 40
0.2499990424519169
 40
0.2499990424519169
 40
0.2499990424519169
 40
0.4999425824083606
 40
0.4999425824083606
 40
0.4999425824083606
 40
0.7498861223648042
 40
0.7498861223648042
 40
0.7498861223648042
 40
0.9998296623212478
 40
0.9998296623212478
 40
0.9998296623212478
 40
0.999910704853223
 40
0.999910704853223
 40
0.999910704853223
 40
1
 40
1
 40
1
 40
1
 10
2303.174694
 20
1927.279757
 30
0
 10
2304.40853
 20
1926.577746
 30
0
 10
2305.684911
 20
1926.024648
 30
0
 10
2306.982566
 20
1925.641733
 30
0
 10
2308.294016
 20
1925.254748
 30
0
 10
2309.53533
 20
1925.088634
 30
0
 10
2311.194627
 20
1925.088634
 30
0
 10
2311.683906
 20
1925.13118
 30
0
 10
2312.13064
 20
1925.216272
 30
0
 10
2312.601812
 20
1925.30602
 30
0
 10
2313.066653
 20
1925.471549
 30
0
 10
2313.53466
 20
1925.663006
 30
0
 10
2313.60424
 20
1925.691471
 30
0
 10
2313.917575
 20
1925.124089
 30
0
 10
2314.109032
 20
1924.854631
 30
0
 10
2314.28974
 20
1924.600301
 30
0
 10
2310.435889
 20
1921.47931
 30
0
 10
2308.599317
 20
1919.791649
 30
0
 10
2308.522425
 20
1919.720992
 30
0
 10
2308.315676
 20
1919.791649
 30
0
 10
2308.173856
 20
1919.791649
 30
0
 10
2305.578546
 20
1919.791649
 30
0
 10
2302.94069
 20
1920.408567
 30
0
 10
2300.281561
 20
1921.642403
 30
0
 10
2297.61431
 20
1922.880008
 30
0
 10
2295.197307
 20
1924.620628
 30
0
 10
2292.984911
 20
1926.875569
 30
0
 0
SPLINE
 8
DV1_MARK
 70
8
 71
3
 72
37
 73
33
 40
0
 40
0
 40
0
 40
0
 40
0.1284201453233358
 40
0.1284201453233358
 40
0.2568402906466724
 40
0.2568402906466724
 40
0.3331789325888778
 40
0.3331789325888778
 40
0.3331789325888778
 40
0.3332627477647143
 40
0.3332627477647143
 40
0.3332627477647143
 40
0.3333449356899851
 40
0.3333449356899851
 40
0.3333449356899851
 40
0.4984730908765785
 40
0.4984730908765785
 40
0.6665238682788629
 40
0.6665238682788629
 40
0.6665238682788629
 40
0.6666059111628477
 40
0.6666059111628477
 40
0.6666059111628477
 40
0.6666882229068122
 40
0.6666882229068122
 40
0.6666882229068122
 40
0.7870703919808958
 40
0.7870703919808958
 40
0.99986715549569
 40
0.99986715549569
 40
0.99986715549569
 40
1
 40
1
 40
1
 40
1
 10
2292.984911
 20
1926.875569
 30
0
 10
2289.028127
 20
1927.896674
 30
0
 10
2285.964811
 20
1929.726155
 30
0
 10
2281.667658
 20
1935.044413
 30
0
 10
2280.604007
 20
1938.277914
 30
0
 10
2280.604007
 20
1944.383274
 30
0
 10
2281.008195
 20
1946.489304
 30
0
 10
2281.795297
 20
1948.403877
 30
0
 10
2282.592956
 20
1950.344129
 30
0
 10
2283.794962
 20
1952.062839
 30
0
 10
2285.390439
 20
1953.573224
 30
0
 10
2286.920398
 20
1955.021585
 30
0
 10
2288.687759
 20
1956.104715
 30
0
 10
2290.644878
 20
1956.827998
 30
0
 10
2292.59508
 20
1957.548725
 30
0
 10
2294.771846
 20
1957.891649
 30
0
 10
2299.622097
 20
1957.891649
 30
0
 10
2301.81322
 20
1957.530008
 30
0
 10
2303.791612
 20
1956.806725
 30
0
 10
2305.751239
 20
1956.090302
 30
0
 10
2307.514392
 20
1955.01979
 30
0
 10
2309.04605
 20
1953.573224
 30
0
 10
2310.599572
 20
1952.106009
 30
0
 10
2311.790272
 20
1950.424815
 30
0
 10
2312.598647
 20
1948.510242
 30
0
 10
2313.410241
 20
1946.588046
 30
0
 10
2313.832483
 20
1944.596004
 30
0
 10
2313.832483
 20
1938.767194
 30
0
 10
2312.939015
 20
1935.618785
 30
0
 10
2311.109535
 20
1933.044748
 30
0
 10
2309.277148
 20
1930.466623
 30
0
 10
2306.642198
 20
1928.534865
 30
0
 10
2303.174694
 20
1927.279757
 30
0
 0
SPLINE
 8
DV1_MARK
 70
8
 71
3
 72
21
 73
17
 40
0
 40
0
 40
0
 40
0
 40
0.3333065825060393
 40
0.3333065825060393
 40
0.3333065825060393
 40
0.3333868349879214
 40
0.3333868349879214
 40
0.3333868349879214
 40
0.4452058175060771
 40
0.4452058175060771
 40
0.5559496175000189
 40
0.5559496175000189
 40
0.6666934174939607
 40
0.6666934174939607
 40
0.6666934174939607
 40
1
 40
1
 40
1
 40
1
 10
2325.766653
 20
1957.40237
 30
0
 10
2325.766653
 20
1951.679924
 30
0
 10
2325.766653
 20
1945.957478
 30
0
 10
2325.766653
 20
1940.235033
 30
0
 10
2325.766653
 20
1937.788634
 30
0
 10
2326.341025
 20
1935.93788
 30
0
 10
2327.511042
 20
1934.661499
 30
0
 10
2328.681942
 20
1933.384153
 30
0
 10
2330.361628
 20
1932.725653
 30
0
 10
2334.765146
 20
1932.725653
 30
0
 10
2336.445715
 20
1933.363844
 30
0
 10
2338.743203
 20
1935.916607
 30
0
 10
2339.317575
 20
1937.788634
 30
0
 10
2339.317575
 20
1940.235033
 30
0
 10
2339.317575
 20
1945.957478
 30
0
 10
2339.317575
 20
1951.679924
 30
0
 10
2339.317575
 20
1957.40237
 30
0
 0
LINE
 8
DV1_MARK
 62
7
 10
2339.317575
 20
1957.40237
 11
2346.954593
 21
1957.40237
 0
LINE
 8
DV1_MARK
 62
7
 10
2318.044543
 20
1957.40237
 11
2325.766653
 21
1957.40237
 0
SPLINE
 8
DV1_MARK
 70
8
 71
3
 72
22
 73
18
 40
0
 40
0
 40
0
 40
0
 40
0.3332340278417981
 40
0.3332340278417981
 40
0.3332340278417981
 40
0.3333829366265679
 40
0.3333829366265679
 40
0.3333829366265679
 40
0.5007785347246674
 40
0.5007785347246674
 40
0.666616964468366
 40
0.666616964468366
 40
0.666616964468366
 40
0.666765972158202
 40
0.666765972158202
 40
0.666765972158202
 40
1
 40
1
 40
1
 40
1
 10
2346.954593
 20
1957.40237
 30
0
 10
2346.954593
 20
1951.573559
 30
0
 10
2346.954593
 20
1945.744748
 30
0
 10
2346.954593
 20
1939.915937
 30
0
 10
2346.954593
 20
1935.640058
 30
0
 10
2345.699484
 20
1932.300192
 30
0
 10
2343.14672
 20
1929.896339
 30
0
 10
2340.615849
 20
1927.513102
 30
0
 10
2337.062633
 20
1926.32247
 30
0
 10
2327.957776
 20
1926.32247
 30
0
 10
2324.405179
 20
1927.51376
 30
0
 10
2321.873689
 20
1929.896339
 30
0
 10
2319.3203
 20
1932.299528
 30
0
 10
2318.044543
 20
1935.640058
 30
0
 10
2318.044543
 20
1939.915937
 30
0
 10
2318.044543
 20
1945.744748
 30
0
 10
2318.044543
 20
1951.573559
 30
0
 10
2318.044543
 20
1957.40237
 30
0
 0
LINE
 8
DV1_MARK
 62
7
 10
2366.398144
 20
1949.637713
 11
2361.675531
 21
1938.065184
 0
LINE
 8
DV1_MARK
 62
7
 10
2370.674024
 20
1938.065184
 11
2366.398144
 21
1949.637713
 0
LINE
 8
DV1_MARK
 62
7
 10
2361.675531
 20
1938.065184
 11
2370.674024
 21
1938.065184
 0
LINE
 8
DV1_MARK
 62
7
 10
2357.016737
 20
1926.875569
 11
2348.869166
 21
1926.875569
 0
LINE
 8
DV1_MARK
 62
7
 10
2348.869166
 20
1926.875569
 11
2362.186084
 21
1957.40237
 0
LINE
 8
DV1_MARK
 62
7
 10
2362.186084
 20
1957.40237
 11
2371.014392
 21
1957.40237
 0
LINE
 8
DV1_MARK
 62
7
 10
2359.463136
 20
1932.832018
 11
2357.016737
 21
1926.875569
 0
LINE
 8
DV1_MARK
 62
7
 10
2371.014392
 20
1957.40237
 11
2382.906017
 21
1926.875569
 0
LINE
 8
DV1_MARK
 62
7
 10
2382.906017
 20
1926.875569
 11
2374.800992
 21
1926.875569
 0
LINE
 8
DV1_MARK
 62
7
 10
2374.800992
 20
1926.875569
 11
2372.631143
 21
1932.832018
 0
LINE
 8
DV1_MARK
 62
7
 10
2372.631143
 20
1932.832018
 11
2359.463136
 21
1932.832018
 0
LINE
 8
DV1_MARK
 62
7
 10
2405.795799
 20
1932.789472
 11
2405.795799
 21
1926.875569
 0
LINE
 8
DV1_MARK
 62
7
 10
2405.795799
 20
1926.875569
 11
2384.990774
 21
1926.875569
 0
LINE
 8
DV1_MARK
 62
7
 10
2392.627792
 20
1932.789472
 11
2405.795799
 21
1932.789472
 0
LINE
 8
DV1_MARK
 62
7
 10
2384.990774
 20
1926.875569
 11
2384.990774
 21
1957.40237
 0
LINE
 8
DV1_MARK
 62
7
 10
2384.990774
 20
1957.40237
 11
2392.627792
 21
1957.40237
 0
LINE
 8
DV1_MARK
 62
7
 10
2392.627792
 20
1957.40237
 11
2392.627792
 21
1932.789472
 0
LINE
 8
DV1_MARK
 62
7
 10
2424.686251
 20
1926.875569
 11
2416.645045
 21
1926.875569
 0
LINE
 8
DV1_MARK
 62
7
 10
2424.686251
 20
1951.72247
 11
2424.686251
 21
1926.875569
 0
LINE
 8
DV1_MARK
 62
7
 10
2434.812215
 20
1951.72247
 11
2424.686251
 21
1951.72247
 0
LINE
 8
DV1_MARK
 62
7
 10
2416.645045
 20
1926.875569
 11
2416.645045
 21
1951.72247
 0
LINE
 8
DV1_MARK
 62
7
 10
2416.645045
 20
1951.72247
 11
2406.519082
 21
1951.72247
 0
LINE
 8
DV1_MARK
 62
7
 10
2406.519082
 20
1951.72247
 11
2406.519082
 21
1957.40237
 0
LINE
 8
DV1_MARK
 62
7
 10
2406.519082
 20
1957.40237
 11
2434.812215
 21
1957.40237
 0
LINE
 8
DV1_MARK
 62
7
 10
2434.812215
 20
1957.40237
 11
2434.812215
 21
1951.72247
 0
LINE
 8
DV1_MARK
 62
7
 10
2458.935833
 20
1932.619288
 11
2458.935833
 21
1926.875569
 0
LINE
 8
DV1_MARK
 62
7
 10
2458.935833
 20
1926.875569
 11
2438.130808
 21
1926.875569
 0
LINE
 8
DV1_MARK
 62
7
 10
2445.767826
 20
1932.619288
 11
2458.935833
 21
1932.619288
 0
LINE
 8
DV1_MARK
 62
7
 10
2438.130808
 20
1926.875569
 11
2438.130808
 21
1957.40237
 0
LINE
 8
DV1_MARK
 62
7
 10
2438.130808
 20
1957.40237
 11
2458.552918
 21
1957.40237
 0
LINE
 8
DV1_MARK
 62
7
 10
2458.552918
 20
1957.40237
 11
2458.552918
 21
1951.765016
 0
LINE
 8
DV1_MARK
 62
7
 10
2458.552918
 20
1951.765016
 11
2445.767826
 21
1951.765016
 0
LINE
 8
DV1_MARK
 62
7
 10
2445.767826
 20
1951.765016
 11
2445.767826
 21
1945.532018
 0
LINE
 8
DV1_MARK
 62
7
 10
2445.767826
 20
1945.532018
 11
2457.978546
 21
1945.532018
 0
LINE
 8
DV1_MARK
 62
7
 10
2457.978546
 20
1945.532018
 11
2457.978546
 21
1939.852118
 0
LINE
 8
DV1_MARK
 62
7
 10
2457.978546
 20
1939.852118
 11
2445.767826
 21
1939.852118
 0
LINE
 8
DV1_MARK
 62
7
 10
2445.767826
 20
1939.852118
 11
2445.767826
 21
1932.619288
 0
SPLINE
 8
DV1_MARK
 70
8
 71
3
 72
24
 73
20
 40
0
 40
0
 40
0
 40
0
 40
0.0001117325657571
 40
0.0001117325657571
 40
0.0001117325657571
 40
0.177869646776292
 40
0.177869646776292
 40
0.5000558662828783
 40
0.5000558662828783
 40
0.5000558662828783
 40
0.619419690595962
 40
0.619419690595962
 40
0.7353236939144652
 40
0.7353236939144652
 40
0.851227697232967
 40
0.851227697232967
 40
0.9256138486164829
 40
0.9256138486164829
 40
1
 40
1
 40
1
 40
1
 10
2490.207189
 20
1948.233693
 30
0
 10
2488.52662
 20
1949.318618
 30
0
 10
2486.824777
 20
1950.148266
 30
0
 10
2485.122935
 20
1950.680092
 30
0
 10
2483.440473
 20
1951.205861
 30
0
 10
2481.740523
 20
1951.488467
 30
0
 10
2476.954091
 20
1951.488467
 30
0
 10
2474.550238
 20
1950.658819
 30
0
 10
2472.784576
 20
1948.978249
 30
0
 10
2471.029538
 20
1947.307791
 30
0
 10
2470.125447
 20
1945.021465
 30
0
 10
2470.125447
 20
1939.2352
 30
0
 10
2470.976369
 20
1936.958986
 30
0
 10
2474.337508
 20
1933.555301
 30
0
 10
2476.613722
 20
1932.725653
 30
0
 10
2481.293789
 20
1932.725653
 30
0
 10
2483.12327
 20
1933.044748
 30
0
 10
2486.824777
 20
1934.32113
 30
0
 10
2488.654258
 20
1935.278416
 30
0
 10
2490.483739
 20
1936.533525
 30
0
 0
LINE
 8
DV1_MARK
 62
7
 10
2490.483739
 20
1936.533525
 11
2490.483739
 21
1929.428333
 0
SPLINE
 8
DV1_MARK
 70
8
 71
3
 72
34
 73
30
 40
0
 40
0
 40
0
 40
0
 40
6.02558430302E-05
 40
6.02558430302E-05
 40
6.02558430302E-05
 40
0.0772070297002774
 40
0.0772070297002774
 40
0.1636114164203943
 40
0.1636114164203943
 40
0.2500158031405104
 40
0.2500158031405104
 40
0.2500158031405104
 40
0.2500782159871083
 40
0.2500782159871083
 40
0.2500782159871083
 40
0.3306110063017981
 40
0.3306110063017981
 40
0.5000337632845885
 40
0.5000337632845885
 40
0.5000337632845885
 40
0.6842910247365066
 40
0.6842910247365066
 40
0.7499893105820687
 40
0.7499893105820687
 40
0.7499893105820687
 40
0.75004445270252
 40
0.75004445270252
 40
0.75004445270252
 40
1
 40
1
 40
1
 40
1
 10
2490.483739
 20
1929.428333
 30
0
 10
2488.654258
 20
1928.364681
 30
0
 10
2486.782231
 20
1927.577579
 30
0
 10
2484.867658
 20
1927.088299
 30
0
 10
2482.928014
 20
1926.592612
 30
0
 10
2480.932148
 20
1926.32247
 30
0
 10
2476.422265
 20
1926.32247
 30
0
 10
2474.231143
 20
1926.684112
 30
0
 10
2470.231813
 20
1928.130678
 30
0
 10
2468.487424
 20
1929.194329
 30
0
 10
2466.998312
 20
1930.619623
 30
0
 10
2465.465267
 20
1932.086966
 30
0
 10
2464.275364
 20
1933.789304
 30
0
 10
2463.466988
 20
1935.767696
 30
0
 10
2462.666062
 20
1937.727859
 30
0
 10
2462.254426
 20
1939.830845
 30
0
 10
2462.254426
 20
1946.829673
 30
0
 10
2463.82863
 20
1950.637545
 30
0
 10
2466.998312
 20
1953.551951
 30
0
 10
2470.157394
 20
1956.456611
 30
0
 10
2474.337508
 20
1957.891649
 30
0
 10
2481.378881
 20
1957.891649
 30
0
 10
2483.208362
 20
1957.700192
 30
0
 10
2484.952751
 20
1957.274731
 30
0
 10
2486.712321
 20
1956.845568
 30
0
 10
2488.484074
 20
1956.253626
 30
0
 10
2490.207189
 20
1955.402705
 30
0
 10
2491.155913
 20
1954.934199
 30
0
 10
2490.207189
 20
1950.623363
 30
0
 10
2490.207189
 20
1948.233693
 30
0
 0
LINE
 8
DV1_MARK
 62
7
 10
2502.694459
 20
1926.875569
 11
2495.036168
 21
1926.875569
 0
LINE
 8
DV1_MARK
 62
7
 10
2502.694459
 20
1939.2352
 11
2502.694459
 21
1926.875569
 0
LINE
 8
DV1_MARK
 62
7
 10
2516.3092
 20
1939.2352
 11
2502.694459
 21
1939.2352
 0
LINE
 8
DV1_MARK
 62
7
 10
2495.036168
 20
1926.875569
 11
2495.036168
 21
1957.40237
 0
LINE
 8
DV1_MARK
 62
7
 10
2495.036168
 20
1957.40237
 11
2502.694459
 21
1957.40237
 0
LINE
 8
DV1_MARK
 62
7
 10
2502.694459
 20
1957.40237
 11
2502.694459
 21
1945.149103
 0
LINE
 8
DV1_MARK
 62
7
 10
2502.694459
 20
1945.149103
 11
2516.3092
 21
1945.149103
 0
LINE
 8
DV1_MARK
 62
7
 10
2516.3092
 20
1945.149103
 11
2516.3092
 21
1957.40237
 0
LINE
 8
DV1_MARK
 62
7
 10
2516.3092
 20
1957.40237
 11
2523.946218
 21
1957.40237
 0
LINE
 8
DV1_MARK
 62
7
 10
2523.946218
 20
1957.40237
 11
2523.946218
 21
1926.875569
 0
LINE
 8
DV1_MARK
 62
7
 10
2523.946218
 20
1926.875569
 11
2516.3092
 21
1926.875569
 0
LINE
 8
DV1_MARK
 62
7
 10
2516.3092
 20
1926.875569
 11
2516.3092
 21
1939.2352
 0
SPLINE
 8
DV1_MARK
 70
8
 71
3
 72
27
 73
23
 40
0
 40
0
 40
0
 40
0
 40
0.000195717873463
 40
0.000195717873463
 40
0.000195717873463
 40
0.0004181729565459
 40
0.0004181729565459
 40
0.0004181729565459
 40
0.0006446796481868
 40
0.0006446796481868
 40
0.0006446796481868
 40
0.2479114875921938
 40
0.2479114875921938
 40
0.5002245569228142
 40
0.5002245569228142
 40
0.5002245569228142
 40
0.7744784586225455
 40
0.7744784586225455
 40
0.9998044341974416
 40
0.9998044341974416
 40
0.9998044341974416
 40
1
 40
1
 40
1
 40
1
 10
2197.68465
 20
1850.15402
 30
0
 10
2201.221846
 20
1850.15402
 30
0
 10
2204.065475
 20
1851.402443
 30
0
 10
2206.261773
 20
1853.876169
 30
0
 10
2208.436403
 20
1856.325488
 30
0
 10
2209.544662
 20
1859.771496
 30
0
 10
2209.567781
 20
1864.187212
 30
0
 10
2209.591504
 20
1868.718399
 30
0
 10
2208.458072
 20
1872.209482
 30
0
 10
2206.215536
 20
1874.660088
 30
0
 10
2203.984513
 20
1877.098113
 30
0
 10
2201.175608
 20
1878.31288
 30
0
 10
2194.309286
 20
1878.31288
 30
0
 10
2191.465657
 20
1877.110695
 30
0
 10
2189.223121
 20
1874.729445
 30
0
 10
2186.969045
 20
1872.335943
 30
0
 10
2185.847757
 20
1868.649166
 30
0
 10
2185.847757
 20
1859.67902
 30
0
 10
2186.957465
 20
1856.396132
 30
0
 10
2189.130645
 20
1853.899287
 30
0
 10
2191.313789
 20
1851.390994
 30
0
 10
2194.193691
 20
1850.15402
 30
0
 10
2197.68465
 20
1850.15402
 30
0
 0
SPLINE
 8
DV1_MARK
 70
8
 71
3
 72
24
 73
20
 40
0
 40
0
 40
0
 40
0
 40
0.0996613999302803
 40
0.0996613999302803
 40
0.1993227998605603
 40
0.1993227998605603
 40
0.298558296372337
 40
0.298558296372337
 40
0.3977937928841141
 40
0.3977937928841141
 40
0.4998645892962277
 40
0.4998645892962277
 40
0.4998645892962277
 40
0.7318278954402283
 40
0.7318278954402283
 40
0.9997291785924555
 40
0.9997291785924555
 40
0.9997291785924555
 40
1
 40
1
 40
1
 40
1
 10
2197.730888
 20
1882.219979
 30
0
 10
2202.608982
 20
1882.219979
 30
0
 10
2206.585439
 20
1880.555416
 30
0
 10
2212.781312
 20
1873.943402
 30
0
 10
2214.330281
 20
1869.597042
 30
0
 10
2214.330281
 20
1858.800501
 30
0
 10
2212.781312
 20
1854.454142
 30
0
 10
2206.539201
 20
1847.888365
 30
0
 10
2202.585863
 20
1846.246921
 30
0
 10
2192.737198
 20
1846.246921
 30
0
 10
2188.691385
 20
1847.934603
 30
0
 10
2185.662805
 20
1851.356205
 30
0
 10
2182.635543
 20
1854.776318
 30
0
 10
2181.085257
 20
1858.892977
 30
0
 10
2181.085257
 20
1869.504567
 30
0
 10
2182.634225
 20
1874.012758
 30
0
 10
2185.709043
 20
1877.295647
 30
0
 10
2188.794665
 20
1880.59007
 30
0
 10
2192.806555
 20
1882.219979
 30
0
 10
2197.730888
 20
1882.219979
 30
0
 0
LINE
 8
DV1_MARK
 62
7
 10
2247.760257
 20
1881.618887
 11
2247.760257
 21
1846.871132
 0
LINE
 8
DV1_MARK
 62
7
 10
2243.182708
 20
1867.331387
 11
2243.182708
 21
1881.618887
 0
LINE
 8
DV1_MARK
 62
7
 10
2243.182708
 20
1881.618887
 11
2247.760257
 21
1881.618887
 0
LINE
 8
DV1_MARK
 62
7
 10
2247.760257
 20
1846.871132
 11
2243.182708
 21
1846.871132
 0
LINE
 8
DV1_MARK
 62
7
 10
2243.182708
 20
1846.871132
 11
2243.182708
 21
1863.169979
 0
LINE
 8
DV1_MARK
 62
7
 10
2243.182708
 20
1863.169979
 11
2225.080584
 21
1863.169979
 0
LINE
 8
DV1_MARK
 62
7
 10
2225.080584
 20
1863.169979
 11
2225.080584
 21
1846.871132
 0
LINE
 8
DV1_MARK
 62
7
 10
2225.080584
 20
1846.871132
 11
2220.503036
 21
1846.871132
 0
LINE
 8
DV1_MARK
 62
7
 10
2220.503036
 20
1846.871132
 11
2220.503036
 21
1881.618887
 0
LINE
 8
DV1_MARK
 62
7
 10
2220.503036
 20
1881.618887
 11
2225.080584
 21
1881.618887
 0
LINE
 8
DV1_MARK
 62
7
 10
2225.080584
 20
1881.618887
 11
2225.080584
 21
1867.331387
 0
LINE
 8
DV1_MARK
 62
7
 10
2225.080584
 20
1867.331387
 11
2243.182708
 21
1867.331387
 0
LINE
 8
DV1_MARK
 62
7
 10
2253.262562
 20
1857.29777
 11
2253.262562
 21
1861.574773
 0
LINE
 8
DV1_MARK
 62
7
 10
2266.278521
 20
1861.574773
 11
2266.278521
 21
1857.29777
 0
LINE
 8
DV1_MARK
 62
7
 10
2253.262562
 20
1861.574773
 11
2266.278521
 21
1861.574773
 0
LINE
 8
DV1_MARK
 62
7
 10
2266.278521
 20
1857.29777
 11
2253.262562
 21
1857.29777
 0
ENDBLK
 0
ENDTAB
 0
ENDSEC
 0
SECTION
 2
ENTITIES
 0
INSERT
 8
0
 2
SE1
 10
0
 20
0
 41
1
 42
1
 50
0
 0
INSERT
 8
0
 2
SE0
 10
0
 20
0
 41
1
 42
1
 50
0
 0
ENDSEC
 0
EOF
