 0
SECTION
 2
HEADER
 0
ENDSEC
 0
SECTION
 2
TABLES
 0
TABLE
 2
LAYER
 70
1
 0
LAYER
 70
0
 2
EllipseLayer
 62
0
 6
CONTINUOUS
 0
ENDTAB
 0
ENDSEC
 0
SECTION
 2
ENTITIES
 0
POLYLINE
 8
EllipseLayer
 66
1
 10
0
 20
0
 70
1
 0
VERTEX
 8
0
 10
150
 20
200
 0
VERTEX
 8
0
 10
149.809735
 20
202.614672
 0
VERTEX
 8
0
 10
149.240388
 20
205.209445
 0
VERTEX
 8
0
 10
148.296291
 20
207.764571
 0
VERTEX
 8
0
 10
146.984631
 20
210.260604
 0
VERTEX
 8
0
 10
145.315389
 20
212.678548
 0
VERTEX
 8
0
 10
143.30127
 20
215
 0
VERTEX
 8
0
 10
140.957602
 20
217.207293
 0
VERTEX
 8
0
 10
138.302222
 20
219.283628
 0
VERTEX
 8
0
 10
135.355339
 20
221.213203
 0
VERTEX
 8
0
 10
132.13938
 20
222.981333
 0
VERTEX
 8
0
 10
128.678822
 20
224.574561
 0
VERTEX
 8
0
 10
125
 20
225.980762
 0
VERTEX
 8
0
 10
121.130913
 20
227.189234
 0
VERTEX
 8
0
 10
117.101007
 20
228.190779
 0
VERTEX
 8
0
 10
112.940952
 20
228.977775
 0
VERTEX
 8
0
 10
108.682409
 20
229.544233
 0
VERTEX
 8
0
 10
104.357787
 20
229.885841
 0
VERTEX
 8
0
 10
100
 20
230
 0
VERTEX
 8
0
 10
95.642213
 20
229.885841
 0
VERTEX
 8
0
 10
91.317591
 20
229.544233
 0
VERTEX
 8
0
 10
87.059048
 20
228.977775
 0
VERTEX
 8
0
 10
82.898993
 20
228.190779
 0
VERTEX
 8
0
 10
78.869087
 20
227.189234
 0
VERTEX
 8
0
 10
75
 20
225.980762
 0
VERTEX
 8
0
 10
71.321178
 20
224.574561
 0
VERTEX
 8
0
 10
67.86062
 20
222.981333
 0
VERTEX
 8
0
 10
64.644661
 20
221.213203
 0
VERTEX
 8
0
 10
61.697778
 20
219.283628
 0
VERTEX
 8
0
 10
59.042398
 20
217.207293
 0
VERTEX
 8
0
 10
56.69873
 20
215
 0
VERTEX
 8
0
 10
54.684611
 20
212.678548
 0
VERTEX
 8
0
 10
53.015369
 20
210.260604
 0
VERTEX
 8
0
 10
51.703709
 20
207.764571
 0
VERTEX
 8
0
 10
50.759612
 20
205.209445
 0
VERTEX
 8
0
 10
50.190265
 20
202.614672
 0
VERTEX
 8
0
 10
50
 20
200
 0
VERTEX
 8
0
 10
50.190265
 20
197.385328
 0
VERTEX
 8
0
 10
50.759612
 20
194.790555
 0
VERTEX
 8
0
 10
51.703709
 20
192.235429
 0
VERTEX
 8
0
 10
53.015369
 20
189.739396
 0
VERTEX
 8
0
 10
54.684611
 20
187.321452
 0
VERTEX
 8
0
 10
56.69873
 20
185
 0
VERTEX
 8
0
 10
59.042398
 20
182.792707
 0
VERTEX
 8
0
 10
61.697778
 20
180.716372
 0
VERTEX
 8
0
 10
64.644661
 20
178.786797
 0
VERTEX
 8
0
 10
67.86062
 20
177.018667
 0
VERTEX
 8
0
 10
71.321178
 20
175.425439
 0
VERTEX
 8
0
 10
75
 20
174.019238
 0
VERTEX
 8
0
 10
78.869087
 20
172.810766
 0
VERTEX
 8
0
 10
82.898993
 20
171.809221
 0
VERTEX
 8
0
 10
87.059048
 20
171.022225
 0
VERTEX
 8
0
 10
91.317591
 20
170.455767
 0
VERTEX
 8
0
 10
95.642213
 20
170.114159
 0
VERTEX
 8
0
 10
100
 20
170
 0
VERTEX
 8
0
 10
104.357787
 20
170.114159
 0
VERTEX
 8
0
 10
108.682409
 20
170.455767
 0
VERTEX
 8
0
 10
112.940952
 20
171.022225
 0
VERTEX
 8
0
 10
117.101007
 20
171.809221
 0
VERTEX
 8
0
 10
121.130913
 20
172.810766
 0
VERTEX
 8
0
 10
125
 20
174.019238
 0
VERTEX
 8
0
 10
128.678822
 20
175.425439
 0
VERTEX
 8
0
 10
132.13938
 20
177.018667
 0
VERTEX
 8
0
 10
135.355339
 20
178.786797
 0
VERTEX
 8
0
 10
138.302222
 20
180.716372
 0
VERTEX
 8
0
 10
140.957602
 20
182.792707
 0
VERTEX
 8
0
 10
143.30127
 20
185
 0
VERTEX
 8
0
 10
145.315389
 20
187.321452
 0
VERTEX
 8
0
 10
146.984631
 20
189.739396
 0
VERTEX
 8
0
 10
148.296291
 20
192.235429
 0
VERTEX
 8
0
 10
149.240388
 20
194.790555
 0
VERTEX
 8
0
 10
149.809735
 20
197.385328
 0
SEQEND
 8
0
 0
POLYLINE
 8
EllipseLayer
 66
1
 10
0
 20
0
 70
0
 0
VERTEX
 8
0
 10
-25.020575
 20
134.244355
 0
VERTEX
 8
0
 10
-27.39249
 20
130.165308
 0
VERTEX
 8
0
 10
-29.217259
 20
125.75965
 0
VERTEX
 8
0
 10
-30.480995
 20
121.060909
 0
VERTEX
 8
0
 10
-31.174081
 20
116.104848
 0
VERTEX
 8
0
 10
-31.291241
 20
110.929183
 0
VERTEX
 8
0
 10
-30.831584
 20
105.573306
 0
VERTEX
 8
0
 10
-29.798609
 20
100.077977
 0
VERTEX
 8
0
 10
-28.200176
 20
94.485019
 0
VERTEX
 8
0
 10
-26.04845
 20
88.836999
 0
VERTEX
 8
0
 10
-23.359809
 20
83.176901
 0
VERTEX
 8
0
 10
-20.154713
 20
77.547801
 0
VERTEX
 8
0
 10
-16.457556
 20
71.992541
 0
VERTEX
 8
0
 10
-12.296475
 20
66.553399
 0
VERTEX
 8
0
 10
-7.703139
 20
61.271771
 0
VERTEX
 8
0
 10
-2.712505
 20
56.187853
 0
VERTEX
 8
0
 10
2.637444
 20
51.340337
 0
VERTEX
 8
0
 10
8.305993
 20
46.766115
 0
VERTEX
 8
0
 10
14.25
 20
42.5 
 0
SEQEND
 8
0
 0
POLYLINE
 8
EllipseLayer
 66
1
 10
0
 20
0
 70
1
 0
VERTEX
 8
0
 10
262
 20
117.75
 0
VERTEX
 8
0
 10
262.719459
 20
117.550741
 0
VERTEX
 8
0
 10
263.435345
 20
116.947734
 0
VERTEX
 8
0
 10
264.14221
 20
115.945568
 0
VERTEX
 8
0
 10
264.834674
 20
114.55187
 0
VERTEX
 8
0
 10
265.507467
 20
112.777247
 0
VERTEX
 8
0
 10
266.155469
 20
110.635205
 0
VERTEX
 8
0
 10
266.773747
 20
108.142046
 0
VERTEX
 8
0
 10
267.357598
 20
105.316745
 0
VERTEX
 8
0
 10
267.902576
 20
102.180804
 0
VERTEX
 8
0
 10
268.404535
 20
98.758089
 0
VERTEX
 8
0
 10
268.859654
 20
95.07465
 0
VERTEX
 8
0
 10
269.26447
 20
91.158519
 0
VERTEX
 8
0
 10
269.615901
 20
87.0395
 0
VERTEX
 8
0
 10
269.911274
 20
82.748942
 0
VERTEX
 8
0
 10
270.148339
 20
78.319499
 0
VERTEX
 8
0
 10
270.325294
 20
73.784881
 0
VERTEX
 8
0
 10
270.44079
 20
69.1796
 0
VERTEX
 8
0
 10
270.49395
 20
64.538704
 0
VERTEX
 8
0
 10
270.484368
 20
59.897513
 0
VERTEX
 8
0
 10
270.412118
 20
55.291351
 0
VERTEX
 8
0
 10
270.277749
 20
50.755271
 0
VERTEX
 8
0
 10
270.082284
 20
46.323797
 0
VERTEX
 8
0
 10
269.82721
 20
42.030655
 0
VERTEX
 8
0
 10
269.51447
 20
37.908519
 0
VERTEX
 8
0
 10
269.146442
 20
33.988759
 0
VERTEX
 8
0
 10
268.725929
 20
30.301209
 0
VERTEX
 8
0
 10
268.256129
 20
26.873932
 0
VERTEX
 8
0
 10
267.74062
 20
23.733012
 0
VERTEX
 8
0
 10
267.183323
 20
20.902353
 0
VERTEX
 8
0
 10
266.588481
 20
18.403499
 0
VERTEX
 8
0
 10
265.960621
 20
16.255467
 0
VERTEX
 8
0
 10
265.30452
 20
14.474605
 0
VERTEX
 8
0
 10
264.625173
 20
13.074467
 0
VERTEX
 8
0
 10
263.927749
 20
12.065708
 0
VERTEX
 8
0
 10
263.217556
 20
11.456006
 0
VERTEX
 8
0
 10
262.5
 20
11.25
 0
VERTEX
 8
0
 10
261.780541
 20
11.449259
 0
VERTEX
 8
0
 10
261.064655
 20
12.052266
 0
VERTEX
 8
0
 10
260.35779
 20
13.054432
 0
VERTEX
 8
0
 10
259.665326
 20
14.44813
 0
VERTEX
 8
0
 10
258.992533
 20
16.222753
 0
VERTEX
 8
0
 10
258.344531
 20
18.364795
 0
VERTEX
 8
0
 10
257.726253
 20
20.857954
 0
VERTEX
 8
0
 10
257.142402
 20
23.683255
 0
VERTEX
 8
0
 10
256.597424
 20
26.819196
 0
VERTEX
 8
0
 10
256.095465
 20
30.241911
 0
VERTEX
 8
0
 10
255.640346
 20
33.92535
 0
VERTEX
 8
0
 10
255.23553
 20
37.841481
 0
VERTEX
 8
0
 10
254.884099
 20
41.9605
 0
VERTEX
 8
0
 10
254.588726
 20
46.251058
 0
VERTEX
 8
0
 10
254.351661
 20
50.680501
 0
VERTEX
 8
0
 10
254.174706
 20
55.215119
 0
VERTEX
 8
0
 10
254.05921
 20
59.8204
 0
VERTEX
 8
0
 10
254.00605
 20
64.461296
 0
VERTEX
 8
0
 10
254.015632
 20
69.102487
 0
VERTEX
 8
0
 10
254.087882
 20
73.708649
 0
VERTEX
 8
0
 10
254.222251
 20
78.244729
 0
VERTEX
 8
0
 10
254.417716
 20
82.676203
 0
VERTEX
 8
0
 10
254.67279
 20
86.969345
 0
VERTEX
 8
0
 10
254.98553
 20
91.091481
 0
VERTEX
 8
0
 10
255.353558
 20
95.011241
 0
VERTEX
 8
0
 10
255.774071
 20
98.698791
 0
VERTEX
 8
0
 10
256.243871
 20
102.126068
 0
VERTEX
 8
0
 10
256.75938
 20
105.266988
 0
VERTEX
 8
0
 10
257.316677
 20
108.097647
 0
VERTEX
 8
0
 10
257.911519
 20
110.596501
 0
VERTEX
 8
0
 10
258.539379
 20
112.744533
 0
VERTEX
 8
0
 10
259.19548
 20
114.525395
 0
VERTEX
 8
0
 10
259.874827
 20
115.925533
 0
VERTEX
 8
0
 10
260.572251
 20
116.934292
 0
VERTEX
 8
0
 10
261.282444
 20
117.543994
 0
SEQEND
 8
0
 0
POLYLINE
 8
EllipseLayer
 66
1
 10
0
 20
0
 70
1
 0
VERTEX
 8
0
 10
142.431081
 20
122.793874
 0
VERTEX
 8
0
 10
141.082621
 20
123.742006
 0
VERTEX
 8
0
 10
139.344097
 20
124.282594
 0
VERTEX
 8
0
 10
137.228738
 20
124.411525
 0
VERTEX
 8
0
 10
134.752645
 20
124.127816
 0
VERTEX
 8
0
 10
131.934662
 20
123.433628
 0
VERTEX
 8
0
 10
128.796235
 20
122.334243
 0
VERTEX
 8
0
 10
125.36125
 20
120.838029
 0
VERTEX
 8
0
 10
121.655848
 20
118.956372
 0
VERTEX
 8
0
 10
117.708232
 20
116.703593
 0
VERTEX
 8
0
 10
113.548443
 20
114.096837
 0
VERTEX
 8
0
 10
109.208141
 20
111.155944
 0
VERTEX
 8
0
 10
104.720358
 20
107.903294
 0
VERTEX
 8
0
 10
100.119249
 20
104.363643
 0
VERTEX
 8
0
 10
95.43983
 20
100.563929
 0
VERTEX
 8
0
 10
90.717716
 20
96.533071
 0
VERTEX
 8
0
 10
85.988844
 20
92.301746
 0
VERTEX
 8
0
 10
81.289204
 20
87.902157
 0
VERTEX
 8
0
 10
76.654562
 20
83.367787
 0
VERTEX
 8
0
 10
72.120192
 20
78.733145
 0
VERTEX
 8
0
 10
67.720603
 20
74.033505
 0
VERTEX
 8
0
 10
63.489278
 20
69.304633
 0
VERTEX
 8
0
 10
59.45842
 20
64.582519
 0
VERTEX
 8
0
 10
55.658706
 20
59.9031
 0
VERTEX
 8
0
 10
52.119055
 20
55.301991
 0
VERTEX
 8
0
 10
48.866405
 20
50.814208
 0
VERTEX
 8
0
 10
45.925512
 20
46.473906
 0
VERTEX
 8
0
 10
43.318756
 20
42.314117
 0
VERTEX
 8
0
 10
41.065977
 20
38.366501
 0
VERTEX
 8
0
 10
39.18432
 20
34.6611
 0
VERTEX
 8
0
 10
37.688106
 20
31.226114
 0
VERTEX
 8
0
 10
36.588721
 20
28.087687
 0
VERTEX
 8
0
 10
35.894533
 20
25.269704
 0
VERTEX
 8
0
 10
35.610825
 20
22.793611
 0
VERTEX
 8
0
 10
35.739755
 20
20.678252
 0
VERTEX
 8
0
 10
36.280343
 20
18.939728
 0
VERTEX
 8
0
 10
37.228475
 20
17.591268
 0
VERTEX
 8
0
 10
38.576935
 20
16.643136
 0
VERTEX
 8
0
 10
40.31546
 20
16.102548
 0
VERTEX
 8
0
 10
42.430818
 20
15.973617
 0
VERTEX
 8
0
 10
44.906911
 20
16.257326
 0
VERTEX
 8
0
 10
47.724895
 20
16.951514
 0
VERTEX
 8
0
 10
50.863322
 20
18.050898
 0
VERTEX
 8
0
 10
54.298307
 20
19.547113
 0
VERTEX
 8
0
 10
58.003708
 20
21.42877
 0
VERTEX
 8
0
 10
61.951325
 20
23.681548
 0
VERTEX
 8
0
 10
66.111113
 20
26.288304
 0
VERTEX
 8
0
 10
70.451415
 20
29.229198
 0
VERTEX
 8
0
 10
74.939198
 20
32.481848
 0
VERTEX
 8
0
 10
79.540308
 20
36.021499
 0
VERTEX
 8
0
 10
84.219726
 20
39.821213
 0
VERTEX
 8
0
 10
88.941841
 20
43.852071
 0
VERTEX
 8
0
 10
93.670713
 20
48.083396
 0
VERTEX
 8
0
 10
98.370353
 20
52.482985
 0
VERTEX
 8
0
 10
103.004994
 20
57.017355
 0
VERTEX
 8
0
 10
107.539364
 20
61.651996
 0
VERTEX
 8
0
 10
111.938953
 20
66.351636
 0
VERTEX
 8
0
 10
116.170278
 20
71.080509
 0
VERTEX
 8
0
 10
120.201136
 20
75.802623
 0
VERTEX
 8
0
 10
124.00085
 20
80.482041
 0
VERTEX
 8
0
 10
127.540501
 20
85.083151
 0
VERTEX
 8
0
 10
130.793151
 20
89.570934
 0
VERTEX
 8
0
 10
133.734045
 20
93.911236
 0
VERTEX
 8
0
 10
136.340801
 20
98.071024
 0
VERTEX
 8
0
 10
138.593579
 20
102.018641
 0
VERTEX
 8
0
 10
140.475236
 20
105.724042
 0
VERTEX
 8
0
 10
141.971451
 20
109.159027
 0
VERTEX
 8
0
 10
143.070835
 20
112.297454
 0
VERTEX
 8
0
 10
143.765024
 20
115.115438
 0
VERTEX
 8
0
 10
144.048732
 20
117.591531
 0
VERTEX
 8
0
 10
143.919801
 20
119.706889
 0
VERTEX
 8
0
 10
143.379213
 20
121.445414
 0
SEQEND
 8
0
 0
ENDSEC
 0
EOF
