 0
SECTION
 2
HEADER
 0
ENDSEC
 0
SECTION
 2
TABLES
 0
TABLE
 2
LAYER
 70
1
 0
LAYER
 70
1
 2
0
 62
0
 6
CONTINUOUS
 0
ENDTAB
 0
ENDSEC
 0
SECTION
 2
ENTITIES
 0
POLYLINE
 8
0
 66
1
 10
0
 20
0
 70
1
 0
VERTEX
 8
0
 10
50
 20
86.6
 0
VERTEX
 8
0
 10
0
 20
0
 0
VERTEX
 8
0
 10
100
 20
0
 0
SEQEND
 8
0
 0
CIRCLE
 8
0
 10
50
 20
28.86582
 40
57.73418
 0
POLYLINE
 8
0
 66
1
 10
0
 20
0
 70
1
 0
VERTEX
 8
0
 10
300
 20
0
 0
VERTEX
 8
0
 10
200
 20
0
 0
VERTEX
 8
0
 10
250
 20
80
 0
SEQEND
 8
0
 0
CIRCLE
 8
0
 10
250
 20
24.375
 40
55.625
 0
POLYLINE
 8
0
 66
1
 10
0
 20
0
 70
1
 0
VERTEX
 8
0
 10
430
 20
90
 0
VERTEX
 8
0
 10
400
 20
0
 0
VERTEX
 8
0
 10
470
 20
60
 0
SEQEND
 8
0
 0
CIRCLE
 8
0
 10
425
 20
41.666667
 40
48.591266
 0
POLYLINE
 8
0
 66
1
 10
0
 20
0
 70
1
 0
VERTEX
 8
0
 10
80
 20
200
 0
VERTEX
 8
0
 10
0
 20
200
 0
VERTEX
 8
0
 10
0
 20
300
 0
SEQEND
 8
0
 0
CIRCLE
 8
0
 10
40
 20
250
 40
64.031242
 0
POLYLINE
 8
0
 66
1
 10
0
 20
0
 70
1
 0
VERTEX
 8
0
 10
150
 20
236.6
 0
VERTEX
 8
0
 10
300
 20
150
 0
VERTEX
 8
0
 10
200
 20
150
 0
SEQEND
 8
0
 0
CIRCLE
 8
0
 10
250
 20
236.60254
 40
100
 0
POLYLINE
 8
0
 66
1
 10
0
 20
0
 70
1
 0
VERTEX
 8
0
 10
430
 20
270
 0
VERTEX
 8
0
 10
400
 20
200
 0
VERTEX
 8
0
 10
460
 20
220
 0
SEQEND
 8
0
 0
CIRCLE
 8
0
 10
422.777778
 20
231.666667
 40
39.007755
 0
ENDSEC
 0
EOF
