 0
SECTION
 2
HEADER
 9
$ACADVER
 1
AC1009
 9
$EXTMIN
 10
-30
 20
-40
 30
0
 9
$EXTMAX
 10
180
 20
70
 30
0
 9
$VIEWCTR
 10
75
 20
15
 9
$VIEWSIZE
 40
138.6
 9
$CLAYER
 8
0
 9
$DIMSTYLE
 2
STANDARD
 0
ENDSEC
 0
SECTION
 2
TABLES
 0
TABLE
 2
LAYER
 70
1
 0
LAYER
 2
0
 70
0
 62
250
 6
CONTINUOUS
 0
ENDTAB
 0
TABLE
 2
STYLE
 70
1
 0
STYLE
 2
STANDARD
 70
0
 40
0
 41
1
 50
0
 71
0
 42
1
 3
SIMPLEX
 4

 0
ENDTAB
 0
TABLE
 2
DIMSTYLE
 70
1
 0
DIMSTYLE
 2
STANDARD
 70
0
 3

 4

 5

 6

 7

 40
1
 41
2.5
 42
0.625
 43
3.75
 44
1.25
 45
0
 46
0
 47
0
 48
0
 140
2.5
 141
2.5
 142
0
 143
25.4
 144
1
 145
0
 146
1
 147
0.625
 71
0
 72
0
 73
0
 74
0
 75
0
 76
0
 77
0
 78
0
 170
0
 171
2
 172
1
 173
0
 174
0
 175
0
 176
0
 177
0
 178
0
 0
ENDTAB
 0
ENDSEC
 0
SECTION
 2
ENTITIES
 0
CIRCLE
 8
0
 10
0
 20
-30
 40
0.5
 0
TEXT
 8
0
 10
0
 20
-30
 40
10
 1
BL{y}
 11
0
 21
-30
 73
1
 0
CIRCLE
 8
0
 10
80
 20
-30
 40
0.5
 0
TEXT
 8
0
 10
80
 20
-30
 40
10
 1
BC{y}
 11
80
 21
-30
 72
1
 73
1
 0
CIRCLE
 8
0
 10
160
 20
-30
 40
0.5
 0
TEXT
 8
0
 10
160
 20
-30
 40
10
 1
BR{y}
 11
160
 21
-30
 72
2
 73
1
 0
LINE
 8
0
 10
-5
 20
0
 11
-20
 21
0
 0
LINE
 8
0
 10
-5
 20
10
 11
-20
 21
10
 0
CIRCLE
 8
0
 10
0
 20
0
 40
0.5
 0
TEXT
 8
0
 10
0
 20
0
 40
10
 1
AL{y}
 0
CIRCLE
 8
0
 10
80
 20
0
 40
0.5
 0
TEXT
 8
0
 10
80
 20
0
 40
10
 1
AC{y}
 11
80
 21
0
 72
1
 0
CIRCLE
 8
0
 10
160
 20
0
 40
0.5
 0
TEXT
 8
0
 10
160
 20
0
 40
10
 1
AR{y}
 11
160
 21
0
 72
2
 0
CIRCLE
 8
0
 10
0
 20
30
 40
0.5
 0
TEXT
 8
0
 10
0
 20
30
 40
10
 1
ML{y}
 11
0
 21
30
 73
2
 0
CIRCLE
 8
0
 10
80
 20
30
 40
0.5
 0
TEXT
 8
0
 10
80
 20
30
 40
10
 1
MC{y}
 11
80
 21
30
 72
1
 73
2
 0
CIRCLE
 8
0
 10
160
 20
30
 40
0.5
 0
TEXT
 8
0
 10
160
 20
30
 40
10
 1
MR{y}
 11
160
 21
30
 72
2
 73
2
 0
CIRCLE
 8
0
 10
0
 20
60
 40
0.5
 0
TEXT
 8
0
 10
0
 20
60
 40
10
 1
TL{y}
 11
0
 21
60
 73
3
 0
CIRCLE
 8
0
 10
80
 20
60
 40
0.5
 0
TEXT
 8
0
 10
80
 20
60
 40
10
 1
TC{y}
 11
80
 21
60
 72
1
 73
3
 0
CIRCLE
 8
0
 10
160
 20
60
 40
0.5
 0
TEXT
 8
0
 10
160
 20
60
 40
10
 1
TR{y}
 11
160
 21
60
 72
2
 73
3
 0
POLYLINE
 8
0
 66
1
 10
0
 20
0
 70
1
 0
VERTEX
 8
0
 10
-30
 20
-40
 0
VERTEX
 8
0
 10
180
 20
-40
 0
VERTEX
 8
0
 10
180
 20
70
 0
VERTEX
 8
0
 10
-30
 20
70
 0
SEQEND
 8
0
 0
ENDSEC
 0
EOF
