 0
SECTION
 2
HEADER
 9
$ACADVER
 1
AC1009
 9
$EXTMIN
 10
10
 20
5
 30
0
 9
$EXTMAX
 10
280
 20
170
 30
0
 9
$VIEWCTR
 10
145
 20
87.5
 9
$VIEWSIZE
 40
181.5
 9
$CLAYER
 8
0
 9
$DIMSTYLE
 2
STANDARD
 0
ENDSEC
 0
SECTION
 2
TABLES
 0
TABLE
 2
LAYER
 70
1
 0
LAYER
 2
0
 70
0
 62
7
 6
CONTINUOUS
 0
ENDTAB
 0
TABLE
 2
STYLE
 70
1
 0
STYLE
 2
STANDARD
 70
0
 40
0
 41
1
 50
0
 71
0
 42
1
 3
SIMPLEX
 4

 0
ENDTAB
 0
TABLE
 2
DIMSTYLE
 70
5
 0
DIMSTYLE
 2
STANDARD
 70
0
 3

 4

 5

 6

 7

 40
1
 41
2.5
 42
0.625
 43
3.75
 44
1.25
 45
0
 46
0
 47
0
 48
0
 140
2.5
 141
2.5
 142
0
 143
25.4
 144
1
 145
0
 146
1
 147
0.625
 71
0
 72
0
 73
0
 74
0
 75
0
 76
0
 77
0
 78
0
 170
0
 171
2
 172
1
 173
0
 174
0
 175
0
 176
0
 177
0
 178
0
 0
DIMSTYLE
 2
BELOW
 70
0
 3

 4

 5

 6

 7

 40
1
 41
2.5
 42
0.625
 43
3.75
 44
1.25
 45
0
 46
0
 47
0
 48
0
 140
2.5
 141
2.5
 142
0
 143
25.4
 144
1
 145
0
 146
1
 147
0.625
 71
0
 72
0
 73
0
 74
0
 75
0
 76
0
 77
4
 78
0
 170
0
 171
2
 172
1
 173
0
 174
0
 175
0
 176
0
 177
0
 178
0
 0
DIMSTYLE
 2
ABOVE
 70
0
 3

 4

 5

 6

 7

 40
1
 41
2.5
 42
0.625
 43
3.75
 44
1.25
 45
0
 46
0
 47
0
 48
0
 140
2.5
 141
2.5
 142
0
 143
25.4
 144
1
 145
0
 146
1
 147
0.625
 71
0
 72
0
 73
0
 74
0
 75
0
 76
0
 77
1
 78
0
 170
0
 171
2
 172
1
 173
0
 174
0
 175
0
 176
0
 177
0
 178
0
 0
DIMSTYLE
 2
HORZ
 70
0
 3

 4

 5

 6

 7

 40
1
 41
2.5
 42
0.625
 43
3.75
 44
1.25
 45
0
 46
0
 47
0
 48
0
 140
2.5
 141
2.5
 142
0
 143
25.4
 144
1
 145
0
 146
1
 147
0.625
 71
0
 72
0
 73
1
 74
1
 75
0
 76
0
 77
0
 78
0
 170
0
 171
2
 172
1
 173
0
 174
0
 175
0
 176
0
 177
0
 178
0
 0
DIMSTYLE
 2
MIXED
 70
0
 3

 4

 5

 6

 7

 40
1
 41
2.5
 42
0.625
 43
3.75
 44
1.25
 45
0
 46
0
 47
0
 48
0
 140
2.5
 141
2.5
 142
0
 143
25.4
 144
1
 145
0
 146
1
 147
0.625
 71
0
 72
0
 73
0
 74
1
 75
0
 76
0
 77
1
 78
0
 170
0
 171
2
 172
1
 173
0
 174
0
 175
0
 176
0
 177
0
 178
0
 0
ENDTAB
 0
ENDSEC
 0
SECTION
 2
BLOCKS
 0
BLOCK
 2
*D1
 70
1
 10
0
 20
0
 0
LINE
 8
0
 10
40.625
 20
20
 11
44.573808
 21
20
 0
LINE
 8
0
 10
34.441942
 20
34.441942
 11
37.376306
 21
37.376306
 0
SOLID
 8
0
 10
43.605957
 20
22.51873
 11
42.77382
 21
22.474091
 12
43.323808
 22
20
 13
43.323808
 23
20
 0
SOLID
 8
0
 10
37.852969
 20
34.354076
 11
38.472944
 21
34.910921
 12
36.492423
 22
36.492423
 13
36.492423
 23
36.492423
 0
ARC
 8
0
 10
20
 20
20
 40
23.323808
 50
0
 51
14.521201
 0
ARC
 8
0
 10
20
 20
20
 40
23.323808
 50
30.478799
 51
45
 0
TEXT
 8
0
 10
41.548388
 20
28.925635
 40
2.5
 1
45%%d
 11
41.548388
 21
28.925635
 50
292.5
 72
1
 73
2
 0
POINT
 8
0
 10
20
 20
20
 0
POINT
 8
0
 10
40
 20
20
 0
POINT
 8
0
 10
34
 20
34
 0
ENDBLK
 0
BLOCK
 2
*D2
 70
1
 10
0
 20
0
 0
LINE
 8
0
 10
79.375
 20
20
 11
71.11068
 21
20
 0
LINE
 8
0
 10
69.558058
 20
39.558058
 11
64.927505
 21
34.927505
 0
SOLID
 8
0
 10
72.637014
 20
22.519375
 11
71.804983
 21
22.472815
 12
72.36068
 22
20
 13
72.36068
 23
20
 0
SOLID
 8
0
 10
67.166995
 20
33.669907
 11
67.788253
 21
34.225319
 12
65.811388
 22
35.811388
 13
65.811388
 23
35.811388
 0
ARC
 8
0
 10
50
 20
20
 40
22.36068
 50
0
 51
14.175148
 0
ARC
 8
0
 10
50
 20
20
 40
22.36068
 50
30.824852
 51
45
 0
TEXT
 8
0
 10
70.658574
 20
28.557062
 40
2.5
 1
45%%d
 11
70.658574
 21
28.557062
 50
292.5
 72
1
 73
2
 0
POINT
 8
0
 10
50
 20
20
 0
POINT
 8
0
 10
80
 20
20
 0
POINT
 8
0
 10
70
 20
40
 0
ENDBLK
 0
BLOCK
 2
*D3
 70
1
 10
0
 20
0
 0
LINE
 8
0
 10
104.375
 20
20
 11
97.538294
 21
20
 0
LINE
 8
0
 10
99.558058
 20
39.558058
 11
92.401447
 21
32.401447
 0
SOLID
 8
0
 10
98.371628
 20
17.5
 11
99.204961
 21
17.5
 12
98.788294
 22
20
 13
98.788294
 23
20
 0
SOLID
 8
0
 10
91.812191
 20
35.347725
 11
91.222935
 21
34.758469
 12
93.28533
 22
33.28533
 13
93.28533
 23
33.28533
 0
LINE
 8
0
 10
98.788294
 20
20
 11
98.788294
 21
16.25
 0
LINE
 8
0
 10
93.28533
 20
33.28533
 11
90.63368
 21
35.936981
 0
ARC
 8
0
 10
80
 20
20
 40
18.788294
 50
0
 51
12.57757
 0
ARC
 8
0
 10
80
 20
20
 40
18.788294
 50
32.42243
 51
45
 0
TEXT
 8
0
 10
97.35812
 20
27.189969
 40
2.5
 1
45%%d
 11
97.35812
 21
27.189969
 50
292.5
 72
1
 73
2
 0
POINT
 8
0
 10
80
 20
20
 0
POINT
 8
0
 10
105
 20
20
 0
POINT
 8
0
 10
100
 20
40
 0
ENDBLK
 0
BLOCK
 2
*D4
 70
1
 10
0
 20
0
 0
LINE
 8
0
 10
129.375
 20
20
 11
119.93034
 21
20
 0
LINE
 8
0
 10
124.558058
 20
34.558058
 11
117.021811
 21
27.021811
 0
SOLID
 8
0
 10
121.315479
 20
22.530879
 11
120.487348
 21
22.437904
 12
121.18034
 22
20
 13
121.18034
 23
20
 0
SOLID
 8
0
 10
119.139533
 20
25.691817
 11
119.790853
 21
26.21165
 12
117.905694
 22
27.905694
 13
117.905694
 23
27.905694
 0
ARC
 8
0
 10
110
 20
20
 40
11.18034
 50
0
 51
45
 0
TEXT
 8
0
 10
121.18034
 20
16.7625
 40
2.5
 1
45%%d
 11
121.18034
 21
16.7625
 50
90
 72
1
 73
2
 0
POINT
 8
0
 10
110
 20
20
 0
POINT
 8
0
 10
130
 20
20
 0
POINT
 8
0
 10
125
 20
35
 0
ENDBLK
 0
BLOCK
 2
*D5
 70
1
 10
0
 20
0
 0
LINE
 8
0
 10
159.375
 20
20
 11
149.04563
 21
20
 0
LINE
 8
0
 10
154.558058
 20
34.558058
 11
146.396226
 21
26.396226
 0
SOLID
 8
0
 10
150.406448
 20
22.532061
 11
149.579249
 21
22.431133
 12
150.29563
 22
20
 13
150.29563
 23
20
 0
SOLID
 8
0
 10
148.492623
 20
25.054481
 11
149.148907
 21
25.568033
 12
147.28011
 22
27.28011
 13
147.28011
 23
27.28011
 0
ARC
 8
0
 10
140
 20
20
 40
10.29563
 50
0
 51
45
 0
TEXT
 8
0
 10
144.990852
 20
29.569368
 40
2.5
 1
45%%d
 11
144.990852
 21
29.569368
 50
315
 72
1
 73
2
 0
POINT
 8
0
 10
140
 20
20
 0
POINT
 8
0
 10
160
 20
20
 0
POINT
 8
0
 10
155
 20
35
 0
ENDBLK
 0
BLOCK
 2
*D6
 70
1
 10
0
 20
0
 0
LINE
 8
0
 10
184.375
 20
20
 11
176.812258
 21
20
 0
LINE
 8
0
 10
179.558058
 20
29.558058
 11
174.816994
 21
24.816994
 0
SOLID
 8
0
 10
177.645591
 20
17.5
 11
178.478924
 21
17.5
 12
178.062258
 22
20
 13
178.062258
 23
20
 0
SOLID
 8
0
 10
174.227738
 20
27.763272
 11
173.638482
 21
27.174016
 12
175.700877
 22
25.700877
 13
175.700877
 23
25.700877
 0
LINE
 8
0
 10
178.062258
 20
20
 11
178.062258
 21
16.25
 0
LINE
 8
0
 10
175.700877
 20
25.700877
 11
173.049227
 21
28.352528
 0
ARC
 8
0
 10
170
 20
20
 40
8.062258
 50
0
 51
45
 0
TEXT
 8
0
 10
170.759969
 20
30.641786
 40
2.5
 1
45%%d
 11
170.759969
 21
30.641786
 50
315
 72
1
 73
2
 0
POINT
 8
0
 10
170
 20
20
 0
POINT
 8
0
 10
185
 20
20
 0
POINT
 8
0
 10
180
 20
30
 0
ENDBLK
 0
BLOCK
 2
*D7
 70
1
 10
0
 20
0
 0
LINE
 8
0
 10
214.375
 20
20
 11
204.832763
 21
20
 0
LINE
 8
0
 10
209.558058
 20
29.558058
 11
203.417279
 21
23.417279
 0
SOLID
 8
0
 10
205.666096
 20
17.5
 11
206.499429
 21
17.5
 12
206.082763
 22
20
 13
206.082763
 23
20
 0
SOLID
 8
0
 10
202.828024
 20
26.363557
 11
202.238768
 21
25.774302
 12
204.301163
 22
24.301163
 13
204.301163
 23
24.301163
 0
LINE
 8
0
 10
206.082763
 20
20
 11
206.082763
 21
16.25
 0
LINE
 8
0
 10
204.301163
 20
24.301163
 11
201.649512
 21
26.952813
 0
ARC
 8
0
 10
200
 20
20
 40
6.082763
 50
0
 51
45
 0
TEXT
 8
0
 10
206.082763
 20
13.0125
 40
2.5
 1
45%%d
 11
206.082763
 21
13.0125
 50
90
 72
1
 73
2
 0
POINT
 8
0
 10
200
 20
20
 0
POINT
 8
0
 10
215
 20
20
 0
POINT
 8
0
 10
210
 20
30
 0
ENDBLK
 0
BLOCK
 2
*D8
 70
1
 10
0
 20
0
 0
LINE
 8
0
 10
40.625
 20
50
 11
44.573808
 21
50
 0
LINE
 8
0
 10
34.441942
 20
64.441942
 11
37.376306
 21
67.376306
 0
SOLID
 8
0
 10
43.605957
 20
52.51873
 11
42.77382
 21
52.474091
 12
43.323808
 22
50
 13
43.323808
 23
50
 0
SOLID
 8
0
 10
37.852969
 20
64.354076
 11
38.472944
 21
64.910921
 12
36.492423
 22
66.492423
 13
36.492423
 23
66.492423
 0
ARC
 8
0
 10
20
 20
50
 40
23.323808
 50
0
 51
45
 0
TEXT
 8
0
 10
39.816114
 20
58.208103
 40
2.5
 1
45%%d
 11
39.816114
 21
58.208103
 50
292.5
 72
1
 73
2
 0
POINT
 8
0
 10
20
 20
50
 0
POINT
 8
0
 10
40
 20
50
 0
POINT
 8
0
 10
34
 20
64
 0
ENDBLK
 0
BLOCK
 2
*D9
 70
1
 10
0
 20
0
 0
LINE
 8
0
 10
79.375
 20
50
 11
71.11068
 21
50
 0
LINE
 8
0
 10
69.558058
 20
69.558058
 11
64.927505
 21
64.927505
 0
SOLID
 8
0
 10
72.637014
 20
52.519375
 11
71.804983
 21
52.472815
 12
72.36068
 22
50
 13
72.36068
 23
50
 0
SOLID
 8
0
 10
67.166995
 20
63.669907
 11
67.788253
 21
64.225319
 12
65.811388
 22
65.811388
 13
65.811388
 23
65.811388
 0
ARC
 8
0
 10
50
 20
50
 40
22.36068
 50
0
 51
45
 0
TEXT
 8
0
 10
68.9263
 20
57.83953
 40
2.5
 1
45%%d
 11
68.9263
 21
57.83953
 50
292.5
 72
1
 73
2
 0
POINT
 8
0
 10
50
 20
50
 0
POINT
 8
0
 10
80
 20
50
 0
POINT
 8
0
 10
70
 20
70
 0
ENDBLK
 0
BLOCK
 2
*D10
 70
1
 10
0
 20
0
 0
LINE
 8
0
 10
104.375
 20
50
 11
97.538294
 21
50
 0
LINE
 8
0
 10
99.558058
 20
69.558058
 11
92.401447
 21
62.401447
 0
SOLID
 8
0
 10
98.371628
 20
47.5
 11
99.204961
 21
47.5
 12
98.788294
 22
50
 13
98.788294
 23
50
 0
SOLID
 8
0
 10
91.812191
 20
65.347725
 11
91.222935
 21
64.758469
 12
93.28533
 22
63.28533
 13
93.28533
 23
63.28533
 0
LINE
 8
0
 10
98.788294
 20
50
 11
98.788294
 21
46.25
 0
LINE
 8
0
 10
93.28533
 20
63.28533
 11
90.63368
 21
65.936981
 0
ARC
 8
0
 10
80
 20
50
 40
18.788294
 50
0
 51
45
 0
TEXT
 8
0
 10
95.625846
 20
56.472437
 40
2.5
 1
45%%d
 11
95.625846
 21
56.472437
 50
292.5
 72
1
 73
2
 0
POINT
 8
0
 10
80
 20
50
 0
POINT
 8
0
 10
105
 20
50
 0
POINT
 8
0
 10
100
 20
70
 0
ENDBLK
 0
BLOCK
 2
*D11
 70
1
 10
0
 20
0
 0
LINE
 8
0
 10
129.375
 20
50
 11
119.93034
 21
50
 0
LINE
 8
0
 10
124.558058
 20
64.558058
 11
117.021811
 21
57.021811
 0
SOLID
 8
0
 10
121.315479
 20
52.530879
 11
120.487348
 21
52.437904
 12
121.18034
 22
50
 13
121.18034
 23
50
 0
SOLID
 8
0
 10
119.139533
 20
55.691817
 11
119.790853
 21
56.21165
 12
117.905694
 22
57.905694
 13
117.905694
 23
57.905694
 0
LINE
 8
0
 10
121.18034
 20
50
 11
121.18034
 21
43.525
 0
ARC
 8
0
 10
110
 20
50
 40
11.18034
 50
0
 51
45
 0
TEXT
 8
0
 10
119.30534
 20
46.7625
 40
2.5
 1
45%%d
 11
119.30534
 21
46.7625
 50
90
 72
1
 73
2
 0
POINT
 8
0
 10
110
 20
50
 0
POINT
 8
0
 10
130
 20
50
 0
POINT
 8
0
 10
125
 20
65
 0
ENDBLK
 0
BLOCK
 2
*D12
 70
1
 10
0
 20
0
 0
LINE
 8
0
 10
159.375
 20
50
 11
149.04563
 21
50
 0
LINE
 8
0
 10
154.558058
 20
64.558058
 11
146.396226
 21
56.396226
 0
SOLID
 8
0
 10
150.406448
 20
52.532061
 11
149.579249
 21
52.431133
 12
150.29563
 22
50
 13
150.29563
 23
50
 0
SOLID
 8
0
 10
148.492623
 20
55.054481
 11
149.148907
 21
55.568033
 12
147.28011
 22
57.28011
 13
147.28011
 23
57.28011
 0
LINE
 8
0
 10
147.28011
 20
57.28011
 11
142.701594
 21
61.858626
 0
ARC
 8
0
 10
140
 20
50
 40
10.29563
 50
0
 51
45
 0
TEXT
 8
0
 10
143.665027
 20
58.243543
 40
2.5
 1
45%%d
 11
143.665027
 21
58.243543
 50
315
 72
1
 73
2
 0
POINT
 8
0
 10
140
 20
50
 0
POINT
 8
0
 10
160
 20
50
 0
POINT
 8
0
 10
155
 20
65
 0
ENDBLK
 0
BLOCK
 2
*D13
 70
1
 10
0
 20
0
 0
LINE
 8
0
 10
184.375
 20
50
 11
176.812258
 21
50
 0
LINE
 8
0
 10
179.558058
 20
59.558058
 11
174.816994
 21
54.816994
 0
SOLID
 8
0
 10
177.645591
 20
47.5
 11
178.478924
 21
47.5
 12
178.062258
 22
50
 13
178.062258
 23
50
 0
SOLID
 8
0
 10
174.227738
 20
57.763272
 11
173.638482
 21
57.174016
 12
175.700877
 22
55.700877
 13
175.700877
 23
55.700877
 0
LINE
 8
0
 10
178.062258
 20
50
 11
178.062258
 21
46.25
 0
LINE
 8
0
 10
175.700877
 20
55.700877
 11
169.354594
 21
62.04716
 0
ARC
 8
0
 10
170
 20
50
 40
8.062258
 50
0
 51
45
 0
TEXT
 8
0
 10
170.318027
 20
58.432077
 40
2.5
 1
45%%d
 11
170.318027
 21
58.432077
 50
315
 72
1
 73
2
 0
POINT
 8
0
 10
170
 20
50
 0
POINT
 8
0
 10
185
 20
50
 0
POINT
 8
0
 10
180
 20
60
 0
ENDBLK
 0
BLOCK
 2
*D14
 70
1
 10
0
 20
0
 0
LINE
 8
0
 10
214.375
 20
50
 11
204.832763
 21
50
 0
LINE
 8
0
 10
209.558058
 20
59.558058
 11
203.417279
 21
53.417279
 0
SOLID
 8
0
 10
205.666096
 20
47.5
 11
206.499429
 21
47.5
 12
206.082763
 22
50
 13
206.082763
 23
50
 0
SOLID
 8
0
 10
202.828024
 20
56.363557
 11
202.238768
 21
55.774302
 12
204.301163
 22
54.301163
 13
204.301163
 23
54.301163
 0
LINE
 8
0
 10
206.082763
 20
50
 11
206.082763
 21
41.025
 0
LINE
 8
0
 10
204.301163
 20
54.301163
 11
201.649512
 21
56.952813
 0
ARC
 8
0
 10
200
 20
50
 40
6.082763
 50
0
 51
45
 0
TEXT
 8
0
 10
204.207763
 20
44.2625
 40
2.5
 1
45%%d
 11
204.207763
 21
44.2625
 50
90
 72
1
 73
2
 0
POINT
 8
0
 10
200
 20
50
 0
POINT
 8
0
 10
215
 20
50
 0
POINT
 8
0
 10
210
 20
60
 0
ENDBLK
 0
BLOCK
 2
*D15
 70
1
 10
0
 20
0
 0
LINE
 8
0
 10
40.625
 20
80
 11
44.573808
 21
80
 0
LINE
 8
0
 10
34.441942
 20
94.441942
 11
37.376306
 21
97.376306
 0
SOLID
 8
0
 10
43.605957
 20
82.51873
 11
42.77382
 21
82.474091
 12
43.323808
 22
80
 13
43.323808
 23
80
 0
SOLID
 8
0
 10
37.852969
 20
94.354076
 11
38.472944
 21
94.910921
 12
36.492423
 22
96.492423
 13
36.492423
 23
96.492423
 0
ARC
 8
0
 10
20
 20
80
 40
23.323808
 50
0
 51
45
 0
TEXT
 8
0
 10
43.280663
 20
89.643166
 40
2.5
 1
45%%d
 11
43.280663
 21
89.643166
 50
292.5
 72
1
 73
2
 0
POINT
 8
0
 10
20
 20
80
 0
POINT
 8
0
 10
40
 20
80
 0
POINT
 8
0
 10
34
 20
94
 0
ENDBLK
 0
BLOCK
 2
*D16
 70
1
 10
0
 20
0
 0
LINE
 8
0
 10
79.375
 20
80
 11
71.11068
 21
80
 0
LINE
 8
0
 10
69.558058
 20
99.558058
 11
64.927505
 21
94.927505
 0
SOLID
 8
0
 10
72.637014
 20
82.519375
 11
71.804983
 21
82.472815
 12
72.36068
 22
80
 13
72.36068
 23
80
 0
SOLID
 8
0
 10
67.166995
 20
93.669907
 11
67.788253
 21
94.225319
 12
65.811388
 22
95.811388
 13
65.811388
 23
95.811388
 0
ARC
 8
0
 10
50
 20
80
 40
22.36068
 50
0
 51
45
 0
TEXT
 8
0
 10
72.390849
 20
89.274593
 40
2.5
 1
45%%d
 11
72.390849
 21
89.274593
 50
292.5
 72
1
 73
2
 0
POINT
 8
0
 10
50
 20
80
 0
POINT
 8
0
 10
80
 20
80
 0
POINT
 8
0
 10
70
 20
100
 0
ENDBLK
 0
BLOCK
 2
*D17
 70
1
 10
0
 20
0
 0
LINE
 8
0
 10
104.375
 20
80
 11
97.538294
 21
80
 0
LINE
 8
0
 10
99.558058
 20
99.558058
 11
92.401447
 21
92.401447
 0
SOLID
 8
0
 10
98.371628
 20
77.5
 11
99.204961
 21
77.5
 12
98.788294
 22
80
 13
98.788294
 23
80
 0
SOLID
 8
0
 10
91.812191
 20
95.347725
 11
91.222935
 21
94.758469
 12
93.28533
 22
93.28533
 13
93.28533
 23
93.28533
 0
LINE
 8
0
 10
98.788294
 20
80
 11
98.788294
 21
76.25
 0
LINE
 8
0
 10
93.28533
 20
93.28533
 11
90.63368
 21
95.936981
 0
ARC
 8
0
 10
80
 20
80
 40
18.788294
 50
0
 51
45
 0
TEXT
 8
0
 10
99.090395
 20
87.9075
 40
2.5
 1
45%%d
 11
99.090395
 21
87.9075
 50
292.5
 72
1
 73
2
 0
POINT
 8
0
 10
80
 20
80
 0
POINT
 8
0
 10
105
 20
80
 0
POINT
 8
0
 10
100
 20
100
 0
ENDBLK
 0
BLOCK
 2
*D18
 70
1
 10
0
 20
0
 0
LINE
 8
0
 10
129.375
 20
80
 11
119.93034
 21
80
 0
LINE
 8
0
 10
124.558058
 20
94.558058
 11
117.021811
 21
87.021811
 0
SOLID
 8
0
 10
121.315479
 20
82.530879
 11
120.487348
 21
82.437904
 12
121.18034
 22
80
 13
121.18034
 23
80
 0
SOLID
 8
0
 10
119.139533
 20
85.691817
 11
119.790853
 21
86.21165
 12
117.905694
 22
87.905694
 13
117.905694
 23
87.905694
 0
LINE
 8
0
 10
121.18034
 20
80
 11
121.18034
 21
73.525
 0
ARC
 8
0
 10
110
 20
80
 40
11.18034
 50
0
 51
45
 0
TEXT
 8
0
 10
123.05534
 20
76.7625
 40
2.5
 1
45%%d
 11
123.05534
 21
76.7625
 50
90
 72
1
 73
2
 0
POINT
 8
0
 10
110
 20
80
 0
POINT
 8
0
 10
130
 20
80
 0
POINT
 8
0
 10
125
 20
95
 0
ENDBLK
 0
BLOCK
 2
*D19
 70
1
 10
0
 20
0
 0
LINE
 8
0
 10
159.375
 20
80
 11
149.04563
 21
80
 0
LINE
 8
0
 10
154.558058
 20
94.558058
 11
146.396226
 21
86.396226
 0
SOLID
 8
0
 10
150.406448
 20
82.532061
 11
149.579249
 21
82.431133
 12
150.29563
 22
80
 13
150.29563
 23
80
 0
SOLID
 8
0
 10
148.492623
 20
85.054481
 11
149.148907
 21
85.568033
 12
147.28011
 22
87.28011
 13
147.28011
 23
87.28011
 0
LINE
 8
0
 10
147.28011
 20
87.28011
 11
142.701594
 21
91.858626
 0
ARC
 8
0
 10
140
 20
80
 40
10.29563
 50
0
 51
45
 0
TEXT
 8
0
 10
146.316677
 20
90.895193
 40
2.5
 1
45%%d
 11
146.316677
 21
90.895193
 50
315
 72
1
 73
2
 0
POINT
 8
0
 10
140
 20
80
 0
POINT
 8
0
 10
160
 20
80
 0
POINT
 8
0
 10
155
 20
95
 0
ENDBLK
 0
BLOCK
 2
*D20
 70
1
 10
0
 20
0
 0
LINE
 8
0
 10
184.375
 20
80
 11
176.812258
 21
80
 0
LINE
 8
0
 10
179.558058
 20
89.558058
 11
174.816994
 21
84.816994
 0
SOLID
 8
0
 10
177.645591
 20
77.5
 11
178.478924
 21
77.5
 12
178.062258
 22
80
 13
178.062258
 23
80
 0
SOLID
 8
0
 10
174.227738
 20
87.763272
 11
173.638482
 21
87.174016
 12
175.700877
 22
85.700877
 13
175.700877
 23
85.700877
 0
LINE
 8
0
 10
178.062258
 20
80
 11
178.062258
 21
76.25
 0
LINE
 8
0
 10
175.700877
 20
85.700877
 11
169.354594
 21
92.04716
 0
ARC
 8
0
 10
170
 20
80
 40
8.062258
 50
0
 51
45
 0
TEXT
 8
0
 10
172.969677
 20
91.083727
 40
2.5
 1
45%%d
 11
172.969677
 21
91.083727
 50
315
 72
1
 73
2
 0
POINT
 8
0
 10
170
 20
80
 0
POINT
 8
0
 10
185
 20
80
 0
POINT
 8
0
 10
180
 20
90
 0
ENDBLK
 0
BLOCK
 2
*D21
 70
1
 10
0
 20
0
 0
LINE
 8
0
 10
214.375
 20
80
 11
204.832763
 21
80
 0
LINE
 8
0
 10
209.558058
 20
89.558058
 11
203.417279
 21
83.417279
 0
SOLID
 8
0
 10
205.666096
 20
77.5
 11
206.499429
 21
77.5
 12
206.082763
 22
80
 13
206.082763
 23
80
 0
SOLID
 8
0
 10
202.828024
 20
86.363557
 11
202.238768
 21
85.774302
 12
204.301163
 22
84.301163
 13
204.301163
 23
84.301163
 0
LINE
 8
0
 10
206.082763
 20
80
 11
206.082763
 21
71.025
 0
LINE
 8
0
 10
204.301163
 20
84.301163
 11
201.649512
 21
86.952813
 0
ARC
 8
0
 10
200
 20
80
 40
6.082763
 50
0
 51
45
 0
TEXT
 8
0
 10
207.957763
 20
74.2625
 40
2.5
 1
45%%d
 11
207.957763
 21
74.2625
 50
90
 72
1
 73
2
 0
POINT
 8
0
 10
200
 20
80
 0
POINT
 8
0
 10
215
 20
80
 0
POINT
 8
0
 10
210
 20
90
 0
ENDBLK
 0
BLOCK
 2
*D22
 70
1
 10
0
 20
0
 0
LINE
 8
0
 10
40.625
 20
110
 11
44.573808
 21
110
 0
LINE
 8
0
 10
34.441942
 20
124.441942
 11
37.376306
 21
127.376306
 0
SOLID
 8
0
 10
43.605957
 20
112.51873
 11
42.77382
 21
112.474091
 12
43.323808
 22
110
 13
43.323808
 23
110
 0
SOLID
 8
0
 10
37.852969
 20
124.354076
 11
38.472944
 21
124.910921
 12
36.492423
 22
126.492423
 13
36.492423
 23
126.492423
 0
ARC
 8
0
 10
20
 20
110
 40
23.323808
 50
0
 51
17.595406
 0
ARC
 8
0
 10
20
 20
110
 40
23.323808
 50
27.585607
 51
45
 0
TEXT
 8
0
 10
41.548388
 20
118.925635
 40
2.5
 1
45%%d
 11
41.548388
 21
118.925635
 72
1
 73
2
 0
POINT
 8
0
 10
20
 20
110
 0
POINT
 8
0
 10
40
 20
110
 0
POINT
 8
0
 10
34
 20
124
 0
ENDBLK
 0
BLOCK
 2
*D23
 70
1
 10
0
 20
0
 0
LINE
 8
0
 10
79.375
 20
110
 11
71.11068
 21
110
 0
LINE
 8
0
 10
69.558058
 20
129.558058
 11
64.927505
 21
124.927505
 0
SOLID
 8
0
 10
72.637014
 20
112.519375
 11
71.804983
 21
112.472815
 12
72.36068
 22
110
 13
72.36068
 23
110
 0
SOLID
 8
0
 10
67.166995
 20
123.669907
 11
67.788253
 21
124.225319
 12
65.811388
 22
125.811388
 13
65.811388
 23
125.811388
 0
ARC
 8
0
 10
50
 20
110
 40
22.36068
 50
0
 51
17.387397
 0
ARC
 8
0
 10
50
 20
110
 40
22.36068
 50
27.809674
 51
45
 0
TEXT
 8
0
 10
70.658574
 20
118.557062
 40
2.5
 1
45%%d
 11
70.658574
 21
118.557062
 72
1
 73
2
 0
POINT
 8
0
 10
50
 20
110
 0
POINT
 8
0
 10
80
 20
110
 0
POINT
 8
0
 10
70
 20
130
 0
ENDBLK
 0
BLOCK
 2
*D24
 70
1
 10
0
 20
0
 0
LINE
 8
0
 10
104.375
 20
110
 11
88.236833
 21
110
 0
LINE
 8
0
 10
99.558058
 20
129.558058
 11
85.82432
 21
115.82432
 0
SOLID
 8
0
 10
89.070166
 20
107.5
 11
89.9035
 21
107.5
 12
89.486833
 22
110
 13
89.486833
 23
110
 0
SOLID
 8
0
 10
85.235065
 20
118.770599
 11
84.645809
 21
118.181343
 12
86.708204
 22
116.708204
 13
86.708204
 23
116.708204
 0
LINE
 8
0
 10
89.486833
 20
110
 11
89.486833
 21
106.25
 0
LINE
 8
0
 10
86.708204
 20
116.708204
 11
84.056554
 21
119.359854
 0
ARC
 8
0
 10
80
 20
110
 40
9.486833
 50
0
 51
10.663527
 0
ARC
 8
0
 10
80
 20
110
 40
9.486833
 50
35.47346
 51
45
 0
TEXT
 8
0
 10
88.764691
 20
113.630454
 40
2.5
 1
45%%d
 11
88.764691
 21
113.630454
 72
1
 73
2
 0
POINT
 8
0
 10
80
 20
110
 0
POINT
 8
0
 10
105
 20
110
 0
POINT
 8
0
 10
100
 20
130
 0
ENDBLK
 0
BLOCK
 2
*D25
 70
1
 10
0
 20
0
 0
LINE
 8
0
 10
129.375
 20
110
 11
119.93034
 21
110
 0
LINE
 8
0
 10
124.558058
 20
124.558058
 11
117.021811
 21
117.021811
 0
SOLID
 8
0
 10
121.315479
 20
112.530879
 11
120.487348
 21
112.437904
 12
121.18034
 22
110
 13
121.18034
 23
110
 0
SOLID
 8
0
 10
119.139533
 20
115.691817
 11
119.790853
 21
116.21165
 12
117.905694
 22
117.905694
 13
117.905694
 23
117.905694
 0
ARC
 8
0
 10
110
 20
110
 40
11.18034
 50
0
 51
45
 0
TEXT
 8
0
 10
121.18034
 20
108.125
 40
2.5
 1
45%%d
 11
121.18034
 21
108.125
 72
1
 73
2
 0
POINT
 8
0
 10
110
 20
110
 0
POINT
 8
0
 10
130
 20
110
 0
POINT
 8
0
 10
125
 20
125
 0
ENDBLK
 0
BLOCK
 2
*D26
 70
1
 10
0
 20
0
 0
LINE
 8
0
 10
159.375
 20
110
 11
149.04563
 21
110
 0
LINE
 8
0
 10
154.558058
 20
124.558058
 11
146.396226
 21
116.396226
 0
SOLID
 8
0
 10
150.406448
 20
112.532061
 11
149.579249
 21
112.431133
 12
150.29563
 22
110
 13
150.29563
 23
110
 0
SOLID
 8
0
 10
148.492623
 20
115.054481
 11
149.148907
 21
115.568033
 12
147.28011
 22
117.28011
 13
147.28011
 23
117.28011
 0
ARC
 8
0
 10
140
 20
110
 40
10.29563
 50
0
 51
45
 0
TEXT
 8
0
 10
144.04261
 20
119.15511
 40
2.5
 1
45%%d
 11
144.04261
 21
119.15511
 72
1
 73
2
 0
POINT
 8
0
 10
140
 20
110
 0
POINT
 8
0
 10
160
 20
110
 0
POINT
 8
0
 10
155
 20
125
 0
ENDBLK
 0
BLOCK
 2
*D27
 70
1
 10
0
 20
0
 0
LINE
 8
0
 10
184.375
 20
110
 11
175.074555
 21
110
 0
LINE
 8
0
 10
179.558058
 20
119.558058
 11
173.588252
 21
113.588252
 0
SOLID
 8
0
 10
175.907889
 20
107.5
 11
176.741222
 21
107.5
 12
176.324555
 22
110
 13
176.324555
 23
110
 0
SOLID
 8
0
 10
172.998997
 20
116.534531
 11
172.409741
 21
115.945275
 12
174.472136
 22
114.472136
 13
174.472136
 23
114.472136
 0
LINE
 8
0
 10
176.324555
 20
110
 11
176.324555
 21
106.25
 0
LINE
 8
0
 10
174.472136
 20
114.472136
 11
171.820486
 21
117.123786
 0
ARC
 8
0
 10
170
 20
110
 40
6.324555
 50
0
 51
45
 0
TEXT
 8
0
 10
176.324555
 20
104.375
 40
2.5
 1
45%%d
 11
176.324555
 21
104.375
 72
1
 73
2
 0
POINT
 8
0
 10
170
 20
110
 0
POINT
 8
0
 10
185
 20
110
 0
POINT
 8
0
 10
180
 20
120
 0
ENDBLK
 0
BLOCK
 2
*D28
 70
1
 10
0
 20
0
 0
LINE
 8
0
 10
214.375
 20
110
 11
205.153124
 21
110
 0
LINE
 8
0
 10
209.558058
 20
119.558058
 11
203.643809
 21
113.643809
 0
SOLID
 8
0
 10
205.986458
 20
107.5
 11
206.819791
 21
107.5
 12
206.403124
 22
110
 13
206.403124
 23
110
 0
SOLID
 8
0
 10
203.054553
 20
116.590087
 11
202.465298
 21
116.000832
 12
204.527693
 22
114.527693
 13
204.527693
 23
114.527693
 0
LINE
 8
0
 10
206.403124
 20
110
 11
206.403124
 21
106.25
 0
LINE
 8
0
 10
204.527693
 20
114.527693
 11
201.876042
 21
117.179343
 0
ARC
 8
0
 10
200
 20
110
 40
6.403124
 50
0
 51
45
 0
TEXT
 8
0
 10
198.638542
 20
119.054343
 40
2.5
 1
45%%d
 11
198.638542
 21
119.054343
 72
1
 73
2
 0
POINT
 8
0
 10
200
 20
110
 0
POINT
 8
0
 10
215
 20
110
 0
POINT
 8
0
 10
210
 20
120
 0
ENDBLK
 0
BLOCK
 2
*D29
 70
1
 10
0
 20
0
 0
LINE
 8
0
 10
40.625
 20
140
 11
44.573808
 21
140
 0
LINE
 8
0
 10
34.441942
 20
154.441942
 11
37.376306
 21
157.376306
 0
SOLID
 8
0
 10
43.605957
 20
142.51873
 11
42.77382
 21
142.474091
 12
43.323808
 22
140
 13
43.323808
 23
140
 0
SOLID
 8
0
 10
37.852969
 20
154.354076
 11
38.472944
 21
154.910921
 12
36.492423
 22
156.492423
 13
36.492423
 23
156.492423
 0
ARC
 8
0
 10
20
 20
140
 40
23.323808
 50
0
 51
45
 0
TEXT
 8
0
 10
43.280663
 20
149.643166
 40
2.5
 1
45%%d
 11
43.280663
 21
149.643166
 50
292.5
 72
1
 73
2
 0
POINT
 8
0
 10
20
 20
140
 0
POINT
 8
0
 10
40
 20
140
 0
POINT
 8
0
 10
34
 20
154
 0
ENDBLK
 0
BLOCK
 2
*D30
 70
1
 10
0
 20
0
 0
LINE
 8
0
 10
79.375
 20
140
 11
71.11068
 21
140
 0
LINE
 8
0
 10
69.558058
 20
159.558058
 11
64.927505
 21
154.927505
 0
SOLID
 8
0
 10
72.637014
 20
142.519375
 11
71.804983
 21
142.472815
 12
72.36068
 22
140
 13
72.36068
 23
140
 0
SOLID
 8
0
 10
67.166995
 20
153.669907
 11
67.788253
 21
154.225319
 12
65.811388
 22
155.811388
 13
65.811388
 23
155.811388
 0
ARC
 8
0
 10
50
 20
140
 40
22.36068
 50
0
 51
45
 0
TEXT
 8
0
 10
72.390849
 20
149.274593
 40
2.5
 1
45%%d
 11
72.390849
 21
149.274593
 50
292.5
 72
1
 73
2
 0
POINT
 8
0
 10
50
 20
140
 0
POINT
 8
0
 10
80
 20
140
 0
POINT
 8
0
 10
70
 20
160
 0
ENDBLK
 0
BLOCK
 2
*D31
 70
1
 10
0
 20
0
 0
LINE
 8
0
 10
104.375
 20
140
 11
97.538294
 21
140
 0
LINE
 8
0
 10
99.558058
 20
159.558058
 11
92.401447
 21
152.401447
 0
SOLID
 8
0
 10
98.371628
 20
137.5
 11
99.204961
 21
137.5
 12
98.788294
 22
140
 13
98.788294
 23
140
 0
SOLID
 8
0
 10
91.812191
 20
155.347725
 11
91.222935
 21
154.758469
 12
93.28533
 22
153.28533
 13
93.28533
 23
153.28533
 0
LINE
 8
0
 10
98.788294
 20
140
 11
98.788294
 21
136.25
 0
LINE
 8
0
 10
93.28533
 20
153.28533
 11
90.63368
 21
155.936981
 0
ARC
 8
0
 10
80
 20
140
 40
18.788294
 50
0
 51
45
 0
TEXT
 8
0
 10
99.090395
 20
147.9075
 40
2.5
 1
45%%d
 11
99.090395
 21
147.9075
 50
292.5
 72
1
 73
2
 0
POINT
 8
0
 10
80
 20
140
 0
POINT
 8
0
 10
105
 20
140
 0
POINT
 8
0
 10
100
 20
160
 0
ENDBLK
 0
BLOCK
 2
*D32
 70
1
 10
0
 20
0
 0
LINE
 8
0
 10
129.375
 20
140
 11
119.93034
 21
140
 0
LINE
 8
0
 10
124.558058
 20
154.558058
 11
117.021811
 21
147.021811
 0
SOLID
 8
0
 10
121.315479
 20
142.530879
 11
120.487348
 21
142.437904
 12
121.18034
 22
140
 13
121.18034
 23
140
 0
SOLID
 8
0
 10
119.139533
 20
145.691817
 11
119.790853
 21
146.21165
 12
117.905694
 22
147.905694
 13
117.905694
 23
147.905694
 0
ARC
 8
0
 10
110
 20
140
 40
11.18034
 50
0
 51
45
 0
TEXT
 8
0
 10
121.18034
 20
138.125
 40
2.5
 1
45%%d
 11
121.18034
 21
138.125
 72
1
 73
2
 0
POINT
 8
0
 10
110
 20
140
 0
POINT
 8
0
 10
130
 20
140
 0
POINT
 8
0
 10
125
 20
155
 0
ENDBLK
 0
BLOCK
 2
*D33
 70
1
 10
0
 20
0
 0
LINE
 8
0
 10
159.375
 20
140
 11
149.04563
 21
140
 0
LINE
 8
0
 10
154.558058
 20
154.558058
 11
146.396226
 21
146.396226
 0
SOLID
 8
0
 10
150.406448
 20
142.532061
 11
149.579249
 21
142.431133
 12
150.29563
 22
140
 13
150.29563
 23
140
 0
SOLID
 8
0
 10
148.492623
 20
145.054481
 11
149.148907
 21
145.568033
 12
147.28011
 22
147.28011
 13
147.28011
 23
147.28011
 0
ARC
 8
0
 10
140
 20
140
 40
10.29563
 50
0
 51
45
 0
TEXT
 8
0
 10
144.04261
 20
149.15511
 40
2.5
 1
45%%d
 11
144.04261
 21
149.15511
 72
1
 73
2
 0
POINT
 8
0
 10
140
 20
140
 0
POINT
 8
0
 10
160
 20
140
 0
POINT
 8
0
 10
155
 20
155
 0
ENDBLK
 0
BLOCK
 2
*D34
 70
1
 10
0
 20
0
 0
LINE
 8
0
 10
184.375
 20
140
 11
176.812258
 21
140
 0
LINE
 8
0
 10
179.558058
 20
149.558058
 11
174.816994
 21
144.816994
 0
SOLID
 8
0
 10
177.645591
 20
137.5
 11
178.478924
 21
137.5
 12
178.062258
 22
140
 13
178.062258
 23
140
 0
SOLID
 8
0
 10
174.227738
 20
147.763272
 11
173.638482
 21
147.174016
 12
175.700877
 22
145.700877
 13
175.700877
 23
145.700877
 0
LINE
 8
0
 10
178.062258
 20
140
 11
178.062258
 21
136.25
 0
LINE
 8
0
 10
175.700877
 20
145.700877
 11
173.049227
 21
148.352528
 0
ARC
 8
0
 10
170
 20
140
 40
8.062258
 50
0
 51
45
 0
TEXT
 8
0
 10
169.811727
 20
150.227528
 40
2.5
 1
45%%d
 11
169.811727
 21
150.227528
 72
1
 73
2
 0
POINT
 8
0
 10
170
 20
140
 0
POINT
 8
0
 10
185
 20
140
 0
POINT
 8
0
 10
180
 20
150
 0
ENDBLK
 0
BLOCK
 2
*D35
 70
1
 10
0
 20
0
 0
LINE
 8
0
 10
214.375
 20
140
 11
204.832763
 21
140
 0
LINE
 8
0
 10
209.558058
 20
149.558058
 11
203.417279
 21
143.417279
 0
SOLID
 8
0
 10
205.666096
 20
137.5
 11
206.499429
 21
137.5
 12
206.082763
 22
140
 13
206.082763
 23
140
 0
SOLID
 8
0
 10
202.828024
 20
146.363557
 11
202.238768
 21
145.774302
 12
204.301163
 22
144.301163
 13
204.301163
 23
144.301163
 0
LINE
 8
0
 10
206.082763
 20
140
 11
206.082763
 21
136.25
 0
LINE
 8
0
 10
204.301163
 20
144.301163
 11
201.649512
 21
146.952813
 0
ARC
 8
0
 10
200
 20
140
 40
6.082763
 50
0
 51
45
 0
TEXT
 8
0
 10
206.082763
 20
134.375
 40
2.5
 1
45%%d
 11
206.082763
 21
134.375
 72
1
 73
2
 0
POINT
 8
0
 10
200
 20
140
 0
POINT
 8
0
 10
215
 20
140
 0
POINT
 8
0
 10
210
 20
150
 0
ENDBLK
 0
BLOCK
 2
*D36
 70
1
 10
0
 20
0
 0
LINE
 8
0
 10
255.625
 20
30
 11
267.463203
 21
30
 0
LINE
 8
0
 10
245
 20
40.625
 11
245
 21
52.463203
 0
SOLID
 8
0
 10
266.481918
 20
32.520199
 11
265.650031
 21
32.471123
 12
266.213203
 22
30
 13
266.213203
 23
30
 0
SOLID
 8
0
 10
247.471123
 20
50.650031
 11
247.520199
 21
51.481918
 12
245
 22
51.213203
 13
245
 23
51.213203
 0
ARC
 8
0
 10
245
 20
30
 40
21.213203
 50
0
 51
90
 0
TEXT
 8
0
 10
261.325825
 20
46.325825
 40
2.5
 1
90%%d
 11
261.325825
 21
46.325825
 50
315
 72
1
 73
2
 0
POINT
 8
0
 10
245
 20
30
 0
POINT
 8
0
 10
255
 20
30
 0
POINT
 8
0
 10
245
 20
40
 0
ENDBLK
 0
BLOCK
 2
*D37
 70
1
 10
0
 20
0
 0
LINE
 8
0
 10
245
 20
40.625
 11
245
 21
51.04899
 0
LINE
 8
0
 10
234.375
 20
30
 11
223.95101
 21
30
 0
SOLID
 8
0
 10
242.478692
 20
50.057095
 11
242.531269
 21
49.225422
 12
245
 22
49.79899
 13
245
 23
49.79899
 0
SOLID
 8
0
 10
225.774578
 20
32.468731
 11
224.942905
 21
32.521308
 12
225.20101
 22
30
 13
225.20101
 23
30
 0
ARC
 8
0
 10
245
 20
30
 40
19.79899
 50
90
 51
180
 0
TEXT
 8
0
 10
229.674175
 20
45.325825
 40
2.5
 1
90%%d
 11
229.674175
 21
45.325825
 50
45
 72
1
 73
2
 0
POINT
 8
0
 10
245
 20
30
 0
POINT
 8
0
 10
245
 20
40
 0
POINT
 8
0
 10
235
 20
30
 0
ENDBLK
 0
BLOCK
 2
*D38
 70
1
 10
0
 20
0
 0
LINE
 8
0
 10
234.375
 20
30
 11
225.365224
 21
30
 0
LINE
 8
0
 10
245
 20
19.375
 11
245
 21
10.365224
 0
SOLID
 8
0
 10
226.369366
 20
27.477468
 11
227.200774
 21
27.534084
 12
226.615224
 22
30
 13
226.615224
 23
30
 0
SOLID
 8
0
 10
242.534084
 20
12.200774
 11
242.477468
 21
11.369366
 12
245
 22
11.615224
 13
245
 23
11.615224
 0
ARC
 8
0
 10
245
 20
30
 40
18.384776
 50
-180
 51
-90
 0
TEXT
 8
0
 10
230.674175
 20
15.674175
 40
2.5
 1
90%%d
 11
230.674175
 21
15.674175
 50
-45
 72
1
 73
2
 0
POINT
 8
0
 10
245
 20
30
 0
POINT
 8
0
 10
235
 20
30
 0
POINT
 8
0
 10
245
 20
20
 0
ENDBLK
 0
BLOCK
 2
*D39
 70
1
 10
0
 20
0
 0
LINE
 8
0
 10
245
 20
19.375
 11
245
 21
11.779437
 0
LINE
 8
0
 10
255.625
 20
30
 11
263.220563
 21
30
 0
SOLID
 8
0
 10
247.523884
 20
12.797876
 11
247.462559
 21
13.62895
 12
245
 22
13.029437
 13
245
 23
13.029437
 0
SOLID
 8
0
 10
261.37105
 20
27.537441
 11
262.202124
 21
27.476116
 12
261.970563
 22
30
 13
261.970563
 23
30
 0
ARC
 8
0
 10
245
 20
30
 40
16.970563
 50
-90
 51
0
 0
TEXT
 8
0
 10
258.325825
 20
16.674175
 40
2.5
 1
90%%d
 11
258.325825
 21
16.674175
 50
45
 72
1
 73
2
 0
POINT
 8
0
 10
245
 20
30
 0
POINT
 8
0
 10
245
 20
20
 0
POINT
 8
0
 10
255
 20
30
 0
ENDBLK
 0
BLOCK
 2
*D40
 70
1
 10
0
 20
0
 0
LINE
 8
0
 10
245
 20
69.375
 11
245
 21
64.607864
 0
LINE
 8
0
 10
237.558058
 20
87.441942
 11
234.116117
 21
90.883883
 0
SOLID
 8
0
 10
247.527021
 20
65.663508
 11
247.45346
 21
66.493588
 12
245
 22
65.857864
 13
245
 23
65.857864
 0
SOLID
 8
0
 10
237.184383
 20
91.285334
 11
236.649443
 21
91.924305
 12
235
 22
90
 13
235
 23
90
 0
ARC
 8
0
 10
245
 20
80
 40
14.142136
 50
-90
 51
4.266231
 0
ARC
 8
0
 10
245
 20
80
 40
14.142136
 50
40.733769
 51
135
 0
TEXT
 8
0
 10
258.06563
 20
85.411961
 40
2.5
 1
225%%d
 11
258.06563
 21
85.411961
 50
292.5
 72
1
 73
2
 0
POINT
 8
0
 10
245
 20
80
 0
POINT
 8
0
 10
245
 20
70
 0
POINT
 8
0
 10
238
 20
87
 0
ENDBLK
 0
BLOCK
 2
*D41
 70
1
 10
0
 20
0
 0
LINE
 8
0
 10
254.558058
 20
129.558058
 11
252.601398
 21
127.601398
 0
LINE
 8
0
 10
254.558058
 20
110.441942
 11
252.601398
 21
112.398602
 0
SOLID
 8
0
 10
251.805683
 20
130.383322
 11
251.280891
 21
129.735991
 12
253.485281
 22
128.485281
 13
253.485281
 23
128.485281
 0
SOLID
 8
0
 10
251.280891
 20
110.264009
 11
251.805683
 21
109.616678
 12
253.485281
 22
111.514719
 13
253.485281
 23
111.514719
 0
ARC
 8
0
 10
245
 20
120
 40
12
 50
45
 51
158.361452
 0
ARC
 8
0
 10
245
 20
120
 40
12
 50
-158.361452
 51
-45
 0
TEXT
 8
0
 10
233
 20
120
 40
2.5
 1
270%%d
 11
233
 21
120
 50
90
 72
1
 73
2
 0
POINT
 8
0
 10
245
 20
120
 0
POINT
 8
0
 10
255
 20
130
 0
POINT
 8
0
 10
255
 20
110
 0
ENDBLK
 0
BLOCK
 2
*D42
 70
1
 10
0
 20
0
 0
LINE
 8
0
 10
255.441942
 20
130.441942
 11
258.611806
 21
133.611806
 0
LINE
 8
0
 10
255.441942
 20
109.558058
 11
258.611806
 21
106.388194
 0
SOLID
 8
0
 10
259.683127
 20
108.884773
 11
259.054404
 21
109.431721
 12
257.727922
 22
107.272078
 13
257.727922
 23
107.272078
 0
SOLID
 8
0
 10
259.054404
 20
130.568279
 11
259.683127
 21
131.115227
 12
257.727922
 22
132.727922
 13
257.727922
 23
132.727922
 0
ARC
 8
0
 10
245
 20
120
 40
18
 50
-45
 51
-10.36167
 0
ARC
 8
0
 10
245
 20
120
 40
18
 50
10.36167
 51
45
 0
TEXT
 8
0
 10
263
 20
120
 40
2.5
 1
90%%d
 11
263
 21
120
 50
90
 72
1
 73
2
 0
POINT
 8
0
 10
245
 20
120
 0
POINT
 8
0
 10
255
 20
130
 0
POINT
 8
0
 10
255
 20
110
 0
ENDBLK
 0
ENDSEC
 0
SECTION
 2
ENTITIES
 0
POLYLINE
 8
0
 66
1
 10
0
 20
0
 70
1
 0
VERTEX
 8
0
 10
10
 20
5
 0
VERTEX
 8
0
 10
280
 20
5
 0
VERTEX
 8
0
 10
280
 20
170
 0
VERTEX
 8
0
 10
10
 20
170
 0
SEQEND
 8
0
 0
DIMENSION
 8
0
 70
5
 2
*D1
 3
STANDARD
 1
<>
 10
40
 20
32
 11
41.54838844282191
 21
28.925634740300495
 13
40
 23
20
 14
34
 24
34
 15
20
 25
20
 0
DIMENSION
 8
0
 70
5
 2
*D2
 3
STANDARD
 1
<>
 10
70
 20
30
 11
70.65857437715964
 21
28.55706168631284
 13
80
 23
20
 14
70
 24
40
 15
50
 25
20
 0
DIMENSION
 8
0
 70
5
 2
*D3
 3
STANDARD
 1
<>
 10
97
 20
28
 11
97.35812048810082
 21
27.18996892347765
 13
105
 23
20
 14
100
 24
40
 15
80
 25
20
 0
DIMENSION
 8
0
 70
5
 2
*D4
 3
STANDARD
 1
<>
 10
121
 20
22
 11
121.18033988749895
 21
16.762500047683716
 13
130
 23
20
 14
125
 24
35
 15
110
 25
20
 0
DIMENSION
 8
0
 70
5
 2
*D5
 3
STANDARD
 1
<>
 10
149
 20
25
 11
144.99085171890653
 21
29.569368059654465
 13
160
 23
20
 14
155
 24
35
 15
140
 25
20
 0
DIMENSION
 8
0
 70
5
 2
*D6
 3
STANDARD
 1
<>
 10
177
 20
24
 11
170.75996852567212
 21
30.641785725319167
 13
185
 23
20
 14
180
 24
30
 15
170
 25
20
 0
DIMENSION
 8
0
 70
5
 2
*D7
 3
STANDARD
 1
<>
 10
206
 20
21
 11
206.08276253029828
 21
13.012500047683716
 13
215
 23
20
 14
210
 24
30
 15
200
 25
20
 0
DIMENSION
 8
0
 70
5
 2
*D8
 3
BELOW
 1
<>
 10
40
 20
62
 11
39.81611431936326
 21
58.20810330461595
 13
40
 23
50
 14
34
 24
64
 15
20
 25
50
 0
DIMENSION
 8
0
 70
5
 2
*D9
 3
BELOW
 1
<>
 10
70
 20
60
 11
68.92630025370096
 21
57.83953025062829
 13
80
 23
50
 14
70
 24
70
 15
50
 25
50
 0
DIMENSION
 8
0
 70
5
 2
*D10
 3
BELOW
 1
<>
 10
97
 20
58
 11
95.62584636464216
 21
56.47243748779311
 13
105
 23
50
 14
100
 24
70
 15
80
 25
50
 0
DIMENSION
 8
0
 70
5
 2
*D11
 3
BELOW
 1
<>
 10
121
 20
52
 11
119.30533988749895
 21
46.762500047683716
 13
130
 23
50
 14
125
 24
65
 15
110
 25
50
 0
DIMENSION
 8
0
 70
5
 2
*D12
 3
BELOW
 1
<>
 10
149
 20
55
 11
143.66502650418175
 21
58.24354284492967
 13
160
 23
50
 14
155
 24
65
 15
140
 25
50
 0
DIMENSION
 8
0
 70
5
 2
*D13
 3
BELOW
 1
<>
 10
177
 20
54
 11
170.31802678743054
 21
58.43207703411121
 13
185
 23
50
 14
180
 24
60
 15
170
 25
50
 0
DIMENSION
 8
0
 70
5
 2
*D14
 3
BELOW
 1
<>
 10
206
 20
51
 11
204.20776253029825
 21
44.26250004768371
 13
215
 23
50
 14
210
 24
60
 15
200
 25
50
 0
DIMENSION
 8
0
 70
5
 2
*D15
 3
ABOVE
 1
<>
 10
40
 20
92
 11
43.28066256628058
 21
89.64316617598503
 13
40
 23
80
 14
34
 24
94
 15
20
 25
80
 0
DIMENSION
 8
0
 70
5
 2
*D16
 3
ABOVE
 1
<>
 10
70
 20
90
 11
72.39084850061829
 21
89.2745931219974
 13
80
 23
80
 14
70
 24
100
 15
50
 25
80
 0
DIMENSION
 8
0
 70
5
 2
*D17
 3
ABOVE
 1
<>
 10
97
 20
88
 11
99.09039461155949
 21
87.9075003591622
 13
105
 23
80
 14
100
 24
100
 15
80
 25
80
 0
DIMENSION
 8
0
 70
5
 2
*D18
 3
ABOVE
 1
<>
 10
121
 20
82
 11
123.05533988749893
 21
76.76250004768373
 13
130
 23
80
 14
125
 24
95
 15
110
 25
80
 0
DIMENSION
 8
0
 70
5
 2
*D19
 3
ABOVE
 1
<>
 10
149
 20
85
 11
146.3166769336313
 21
90.89519327437928
 13
160
 23
80
 14
155
 24
95
 15
140
 25
80
 0
DIMENSION
 8
0
 70
5
 2
*D20
 3
ABOVE
 1
<>
 10
177
 20
84
 11
172.96967721688011
 21
91.08372746356083
 13
185
 23
80
 14
180
 24
90
 15
170
 25
80
 0
DIMENSION
 8
0
 70
5
 2
*D21
 3
ABOVE
 1
<>
 10
206
 20
81
 11
207.95776253029828
 21
74.26250004768372
 13
215
 23
80
 14
210
 24
90
 15
200
 25
80
 0
DIMENSION
 8
0
 70
5
 2
*D22
 3
HORZ
 1
<>
 10
40
 20
122
 11
41.54838844282193
 21
118.92563474030051
 13
40
 23
110
 14
34
 24
124
 15
20
 25
110
 0
DIMENSION
 8
0
 70
5
 2
*D23
 3
HORZ
 1
<>
 10
70
 20
120
 11
70.65857437715962
 21
118.55706168631284
 13
80
 23
110
 14
70
 24
130
 15
50
 25
110
 0
DIMENSION
 8
0
 70
5
 2
*D24
 3
HORZ
 1
<>
 10
89
 20
113
 11
88.76469081904173
 21
113.63045380725404
 13
105
 23
110
 14
100
 24
130
 15
80
 25
110
 0
DIMENSION
 8
0
 70
5
 2
*D25
 3
HORZ
 1
<>
 10
121
 20
112
 11
121.18033988749895
 21
108.125
 13
130
 23
110
 14
125
 24
125
 15
110
 25
110
 0
DIMENSION
 8
0
 70
5
 2
*D26
 3
HORZ
 1
<>
 10
149
 20
115
 11
144.04260993696423
 21
119.15510988928052
 13
160
 23
110
 14
155
 24
125
 15
140
 25
110
 0
DIMENSION
 8
0
 70
5
 2
*D27
 3
HORZ
 1
<>
 10
176
 20
112
 11
176.3245553203368
 21
104.375
 13
185
 23
110
 14
180
 24
120
 15
170
 25
110
 0
DIMENSION
 8
0
 70
5
 2
*D28
 3
HORZ
 1
<>
 10
205
 20
114
 11
198.63854218730285
 21
119.05434299851824
 13
215
 23
110
 14
210
 24
120
 15
200
 25
110
 0
DIMENSION
 8
0
 70
5
 2
*D29
 3
MIXED
 1
<>
 10
40
 20
152
 11
43.2806625662806
 21
149.64316617598502
 13
40
 23
140
 14
34
 24
154
 15
20
 25
140
 0
DIMENSION
 8
0
 70
5
 2
*D30
 3
MIXED
 1
<>
 10
70
 20
150
 11
72.3908485006183
 21
149.27459312199736
 13
80
 23
140
 14
70
 24
160
 15
50
 25
140
 0
DIMENSION
 8
0
 70
5
 2
*D31
 3
MIXED
 1
<>
 10
97
 20
148
 11
99.09039461155949
 21
147.90750035916224
 13
105
 23
140
 14
100
 24
160
 15
80
 25
140
 0
DIMENSION
 8
0
 70
5
 2
*D32
 3
MIXED
 1
<>
 10
121
 20
142
 11
121.18033988749895
 21
138.125
 13
130
 23
140
 14
125
 24
155
 15
110
 25
140
 0
DIMENSION
 8
0
 70
5
 2
*D33
 3
MIXED
 1
<>
 10
149
 20
145
 11
144.04260993696423
 21
149.1551098892805
 13
160
 23
140
 14
155
 24
155
 15
140
 25
140
 0
DIMENSION
 8
0
 70
5
 2
*D34
 3
MIXED
 1
<>
 10
177
 20
144
 11
169.81172674372982
 21
150.22752755494523
 13
185
 23
140
 14
180
 24
150
 15
170
 25
140
 0
DIMENSION
 8
0
 70
5
 2
*D35
 3
MIXED
 1
<>
 10
206
 20
141
 11
206.08276253029825
 21
134.375
 13
215
 23
140
 14
210
 24
150
 15
200
 25
140
 0
DIMENSION
 8
0
 70
5
 2
*D36
 3
ABOVE
 1
<>
 10
260
 20
45
 11
261.3258252147248
 21
46.325825214724794
 13
255
 23
30
 14
245
 24
40
 15
245
 25
30
 0
DIMENSION
 8
0
 70
5
 2
*D37
 3
ABOVE
 1
<>
 10
231
 20
44
 11
229.67417478527523
 21
45.325825214724794
 13
245
 23
40
 14
235
 24
30
 15
245
 25
30
 0
DIMENSION
 8
0
 70
5
 2
*D38
 3
ABOVE
 1
<>
 10
232
 20
17
 11
230.6741747852752
 21
15.674174785275223
 13
235
 23
30
 14
245
 24
20
 15
245
 25
30
 0
DIMENSION
 8
0
 70
5
 2
*D39
 3
ABOVE
 1
<>
 10
257
 20
18
 11
258.3258252147248
 21
16.674174785275216
 13
245
 23
20
 14
255
 24
30
 15
245
 25
30
 0
DIMENSION
 8
0
 70
5
 2
*D40
 3
STANDARD
 1
<>
 10
255
 20
90
 11
258.0656296487638
 21
85.41196100146199
 13
245
 23
70
 14
238
 24
87
 15
245
 25
80
 0
DIMENSION
 8
0
 70
5
 2
*D41
 3
STANDARD
 1
<>
 10
233
 20
120
 11
233.00000000000006
 21
120.00000000000014
 13
255
 23
130
 14
255
 24
110
 15
245
 25
120
 0
DIMENSION
 8
0
 70
5
 2
*D42
 3
STANDARD
 1
<>
 10
263
 20
120
 11
263
 21
119.99999999999999
 13
255
 23
130
 14
255
 24
110
 15
245
 25
120
 0
ENDSEC
 0
EOF
