 0
SECTION
 2
HEADER
 9
$ACADVER
 1
AC1009
 9
$EXTMIN
 10
-20
 20
-20
 30
0
 9
$EXTMAX
 10
200
 20
130
 30
0
 9
$VIEWCTR
 10
90
 20
55
 9
$VIEWSIZE
 40
165
 9
$CLAYER
 8
0
 9
$DIMSTYLE
 2
HORZ-BELOW
 0
ENDSEC
 0
SECTION
 2
TABLES
 0
TABLE
 2
LAYER
 70
1
 0
LAYER
 2
0
 70
0
 62
250
 6
CONTINUOUS
 0
ENDTAB
 0
TABLE
 2
STYLE
 70
1
 0
STYLE
 2
STANDARD
 70
0
 40
0
 41
1
 50
0
 71
0
 42
1
 3
SIMPLEX
 4

 0
ENDTAB
 0
TABLE
 2
DIMSTYLE
 70
6
 0
DIMSTYLE
 2
BREAK
 70
0
 3

 4

 5

 6

 7

 40
1
 41
2.5
 42
0.625
 43
3.75
 44
1.25
 45
0
 46
0
 47
0
 48
0
 140
2.5
 141
2.5
 142
0
 143
25.4
 144
1
 145
0
 146
1
 147
0.625
 71
0
 72
0
 73
0
 74
0
 75
0
 76
0
 77
0
 78
0
 170
0
 171
2
 172
1
 173
0
 174
0
 175
0
 176
0
 177
0
 178
0
 0
DIMSTYLE
 2
ABOVE
 70
0
 3

 4

 5

 6

 7

 40
1
 41
2.5
 42
0.625
 43
3.75
 44
1.25
 45
0
 46
0
 47
0
 48
0
 140
2.5
 141
2.5
 142
0
 143
25.4
 144
1
 145
0
 146
1
 147
0.625
 71
0
 72
0
 73
0
 74
0
 75
0
 76
0
 77
1
 78
0
 170
0
 171
2
 172
1
 173
0
 174
0
 175
0
 176
0
 177
0
 178
0
 0
DIMSTYLE
 2
BELOW
 70
0
 3

 4

 5

 6

 7

 40
1
 41
2.5
 42
0.625
 43
3.75
 44
1.25
 45
0
 46
0
 47
0
 48
0
 140
2.5
 141
2.5
 142
0
 143
25.4
 144
1
 145
0
 146
1
 147
0.625
 71
0
 72
0
 73
0
 74
0
 75
0
 76
0
 77
4
 78
0
 170
0
 171
2
 172
1
 173
0
 174
0
 175
0
 176
0
 177
0
 178
0
 0
DIMSTYLE
 2
HORZ-BREAK
 70
0
 3

 4

 5

 6

 7

 40
1
 41
2.5
 42
0.625
 43
3.75
 44
1.25
 45
0
 46
0
 47
0
 48
0
 140
2.5
 141
2.5
 142
0
 143
25.4
 144
1
 145
0
 146
1
 147
0.625
 71
0
 72
0
 73
1
 74
1
 75
0
 76
0
 77
0
 78
0
 170
0
 171
2
 172
1
 173
0
 174
0
 175
0
 176
0
 177
0
 178
0
 0
DIMSTYLE
 2
HORZ-ABOVE
 70
0
 3

 4

 5

 6

 7

 40
1
 41
2.5
 42
0.625
 43
3.75
 44
1.25
 45
0
 46
0
 47
0
 48
0
 140
2.5
 141
2.5
 142
0
 143
25.4
 144
1
 145
0
 146
1
 147
0.625
 71
0
 72
0
 73
1
 74
1
 75
0
 76
0
 77
1
 78
0
 170
0
 171
2
 172
1
 173
0
 174
0
 175
0
 176
0
 177
0
 178
0
 0
DIMSTYLE
 2
HORZ-BELOW
 70
0
 3

 4

 5

 6

 7

 40
1
 41
2.5
 42
0.625
 43
3.75
 44
1.25
 45
0
 46
0
 47
0
 48
0
 140
2.5
 141
2.5
 142
0
 143
25.4
 144
1
 145
0
 146
1
 147
0.625
 71
0
 72
0
 73
1
 74
1
 75
0
 76
0
 77
4
 78
0
 170
0
 171
2
 172
1
 173
0
 174
0
 175
0
 176
0
 177
0
 178
0
 0
ENDTAB
 0
ENDSEC
 0
SECTION
 2
BLOCKS
 0
BLOCK
 2
*D1
 70
1
 10
0
 20
0
 0
LINE
 8
0
 10
0
 20
50.625
 11
0
 21
55.25
 0
LINE
 8
0
 10
20
 20
50.625
 11
20
 21
55.25
 0
SOLID
 8
0
 10
2.5
 20
53.583333
 11
2.5
 21
54.416667
 12
0
 22
54
 13
0
 23
54
 0
SOLID
 8
0
 10
17.5
 20
54.416667
 11
17.5
 21
53.583333
 12
20
 22
54
 13
20
 23
54
 0
LINE
 8
0
 10
0
 20
54
 11
0
 21
54
 0
LINE
 8
0
 10
20
 20
54
 11
20
 21
54
 0
LINE
 8
0
 10
0
 20
54
 11
7.35
 21
54
 0
LINE
 8
0
 10
12.65
 20
54
 11
20
 21
54
 0
TEXT
 8
0
 10
10
 20
54
 40
2.5
 1
20
 11
10
 21
54
 72
1
 73
2
 0
ENDBLK
 0
BLOCK
 2
*D2
 70
1
 10
0
 20
0
 0
LINE
 8
0
 10
20.279508
 20
50.559017
 11
22.359017
 21
54.718034
 0
LINE
 8
0
 10
50.279508
 20
35.559017
 11
52.359017
 21
39.718034
 0
SOLID
 8
0
 10
23.849729
 20
52.109288
 11
24.222407
 21
52.854644
 12
21.8
 22
53.6
 13
21.8
 23
53.6
 0
SOLID
 8
0
 10
49.750271
 20
40.090712
 11
49.377593
 21
39.345356
 12
51.8
 22
38.6
 13
51.8
 23
38.6
 0
LINE
 8
0
 10
21.8
 20
53.6
 11
21.8
 21
53.6
 0
LINE
 8
0
 10
51.8
 20
38.6
 11
51.8
 21
38.6
 0
LINE
 8
0
 10
21.8
 20
53.6
 11
31.712945
 21
48.643527
 0
LINE
 8
0
 10
41.887055
 20
43.556473
 11
51.8
 21
38.6
 0
TEXT
 8
0
 10
36.8
 20
46.1
 40
2.5
 1
33.54
 11
36.8
 21
46.1
 50
-26.565051
 72
1
 73
2
 0
ENDBLK
 0
BLOCK
 2
*D3
 70
1
 10
0
 20
0
 0
LINE
 8
0
 10
50.625
 20
0
 11
55.25
 21
0
 0
LINE
 8
0
 10
50.625
 20
35
 11
55.25
 21
35
 0
SOLID
 8
0
 10
54.416667
 20
2.5
 11
53.583333
 21
2.5
 12
54
 22
0
 13
54
 23
0
 0
SOLID
 8
0
 10
53.583333
 20
32.5
 11
54.416667
 21
32.5
 12
54
 22
35
 13
54
 23
35
 0
LINE
 8
0
 10
54
 20
0
 11
54
 21
0
 0
LINE
 8
0
 10
54
 20
35
 11
54
 21
35
 0
LINE
 8
0
 10
54
 20
0
 11
54
 21
14.85
 0
LINE
 8
0
 10
54
 20
20.15
 11
54
 21
35
 0
TEXT
 8
0
 10
54
 20
17.5
 40
2.5
 1
35
 11
54
 21
17.5
 50
90
 72
1
 73
2
 0
ENDBLK
 0
BLOCK
 2
*D4
 70
1
 10
0
 20
0
 0
LINE
 8
0
 10
15
 20
-0.625
 11
15
 21
-5.25
 0
LINE
 8
0
 10
50
 20
-0.625
 11
50
 21
-5.25
 0
SOLID
 8
0
 10
17.5
 20
-4.416667
 11
17.5
 21
-3.583333
 12
15
 22
-4
 13
15
 23
-4
 0
SOLID
 8
0
 10
47.5
 20
-3.583333
 11
47.5
 21
-4.416667
 12
50
 22
-4
 13
50
 23
-4
 0
LINE
 8
0
 10
15
 20
-4
 11
15
 21
-4
 0
LINE
 8
0
 10
50
 20
-4
 11
50
 21
-4
 0
LINE
 8
0
 10
15
 20
-4
 11
29.85
 21
-4
 0
LINE
 8
0
 10
35.15
 20
-4
 11
50
 21
-4
 0
TEXT
 8
0
 10
32.5
 20
-4
 40
2.5
 1
35
 11
32.5
 21
-4
 72
1
 73
2
 0
ENDBLK
 0
BLOCK
 2
*D5
 70
1
 10
0
 20
0
 0
LINE
 8
0
 10
15.625
 20
0
 11
20.25
 21
0
 0
LINE
 8
0
 10
15.625
 20
10
 11
20.25
 21
10
 0
SOLID
 8
0
 10
19.416667
 20
2.5
 11
18.583333
 21
2.5
 12
19
 22
0
 13
19
 23
0
 0
SOLID
 8
0
 10
18.583333
 20
7.5
 11
19.416667
 21
7.5
 12
19
 22
10
 13
19
 23
10
 0
LINE
 8
0
 10
19
 20
0
 11
19
 21
0
 0
LINE
 8
0
 10
19
 20
10
 11
19
 21
12.5
 0
LINE
 8
0
 10
19
 20
0
 11
19
 21
10
 0
TEXT
 8
0
 10
19
 20
14.9125
 40
2.5
 1
10
 11
19
 21
14.9125
 50
90
 72
1
 73
2
 0
ENDBLK
 0
BLOCK
 2
*D6
 70
1
 10
0
 20
0
 0
LINE
 8
0
 10
15
 20
10.625
 11
15
 21
15.25
 0
LINE
 8
0
 10
0
 20
10.625
 11
0
 21
15.25
 0
SOLID
 8
0
 10
12.5
 20
14.416667
 11
12.5
 21
13.583333
 12
15
 22
14
 13
15
 23
14
 0
SOLID
 8
0
 10
2.5
 20
13.583333
 11
2.5
 21
14.416667
 12
0
 22
14
 13
0
 23
14
 0
LINE
 8
0
 10
15
 20
14
 11
15
 21
14
 0
LINE
 8
0
 10
0
 20
14
 11
-2.5
 21
14
 0
LINE
 8
0
 10
15
 20
14
 11
0
 21
14
 0
TEXT
 8
0
 10
-4.9125
 20
14
 40
2.5
 1
15
 11
-4.9125
 21
14
 50
360
 72
1
 73
2
 0
ENDBLK
 0
BLOCK
 2
*D7
 70
1
 10
0
 20
0
 0
LINE
 8
0
 10
7.375
 20
10
 11
6.75
 21
10
 0
LINE
 8
0
 10
8.625
 20
50
 11
9.25
 21
50
 0
SOLID
 8
0
 10
8.416667
 20
12.5
 11
7.583333
 21
12.5
 12
8
 22
10
 13
8
 23
10
 0
SOLID
 8
0
 10
7.583333
 20
47.5
 11
8.416667
 21
47.5
 12
8
 22
50
 13
8
 23
50
 0
LINE
 8
0
 10
8
 20
10
 11
8
 21
10
 0
LINE
 8
0
 10
8
 20
50
 11
8
 21
50
 0
LINE
 8
0
 10
8
 20
10
 11
8
 21
27.35
 0
LINE
 8
0
 10
8
 20
32.65
 11
8
 21
50
 0
TEXT
 8
0
 10
8
 20
30
 40
2.5
 1
40
 11
8
 21
30
 50
90
 72
1
 73
2
 0
ENDBLK
 0
BLOCK
 2
*D8
 70
1
 10
0
 20
0
 0
LINE
 8
0
 10
20
 20
25.625
 11
20
 21
33.25
 0
LINE
 8
0
 10
30
 20
25.625
 11
30
 21
33.25
 0
SOLID
 8
0
 10
22.5
 20
31.583333
 11
22.5
 21
32.416667
 12
20
 22
32
 13
20
 23
32
 0
SOLID
 8
0
 10
27.5
 20
32.416667
 11
27.5
 21
31.583333
 12
30
 22
32
 13
30
 23
32
 0
LINE
 8
0
 10
20
 20
32
 11
20
 21
32
 0
LINE
 8
0
 10
30
 20
32
 11
41
 21
32
 0
LINE
 8
0
 10
20
 20
32
 11
30
 21
32
 0
TEXT
 8
0
 10
43.4125
 20
32
 40
2.5
 1
10
 11
43.4125
 21
32
 72
1
 73
2
 0
ENDBLK
 0
BLOCK
 2
*D9
 70
1
 10
0
 20
0
 0
LINE
 8
0
 10
24.375
 20
20
 11
13.75
 21
20
 0
LINE
 8
0
 10
24.375
 20
25
 11
13.75
 21
25
 0
SOLID
 8
0
 10
14.583333
 20
17.5
 11
15.416667
 21
17.5
 12
15
 22
20
 13
15
 23
20
 0
SOLID
 8
0
 10
15.416667
 20
27.5
 11
14.583333
 21
27.5
 12
15
 22
25
 13
15
 23
25
 0
LINE
 8
0
 10
15
 20
20
 11
15
 21
16.25
 0
LINE
 8
0
 10
15
 20
25
 11
15
 21
28.75
 0
LINE
 8
0
 10
15
 20
20
 11
15
 21
21.0375
 0
LINE
 8
0
 10
15
 20
23.9625
 11
15
 21
25
 0
TEXT
 8
0
 10
15
 20
22.5
 40
2.5
 1
5
 11
15
 21
22.5
 50
90
 72
1
 73
2
 0
ENDBLK
 0
BLOCK
 2
*D10
 70
1
 10
0
 20
0
 0
LINE
 8
0
 10
25.625
 20
20
 11
36.25
 21
20
 0
LINE
 8
0
 10
25.625
 20
25.67
 11
36.25
 21
25.67
 0
SOLID
 8
0
 10
34.583333
 20
17.5
 11
35.416667
 21
17.5
 12
35
 22
20
 13
35
 23
20
 0
SOLID
 8
0
 10
35.416667
 20
28.17
 11
34.583333
 21
28.17
 12
35
 22
25.67
 13
35
 23
25.67
 0
LINE
 8
0
 10
35
 20
20
 11
35
 21
16.25
 0
LINE
 8
0
 10
35
 20
25.67
 11
35
 21
29.42
 0
LINE
 8
0
 10
35
 20
20
 11
35
 21
25.67
 0
TEXT
 8
0
 10
35
 20
11.8125
 40
2.5
 1
5.67
 11
35
 21
11.8125
 50
90
 72
1
 73
2
 0
ENDBLK
 0
BLOCK
 2
*D11
 70
1
 10
0
 20
0
 0
LINE
 8
0
 10
14.653312
 20
-0.520031
 11
11.075856
 21
-5.886217
 0
LINE
 8
0
 10
-0.346688
 20
9.479969
 11
-3.924144
 21
4.113783
 0
SOLID
 8
0
 10
13.618231
 20
-6.579592
 11
14.080482
 21
-5.886217
 12
11.769231
 22
-4.846154
 13
11.769231
 23
-4.846154
 0
SOLID
 8
0
 10
-5.07977
 20
6.887284
 11
-5.54202
 21
6.193909
 12
-3.230769
 22
5.153846
 13
-3.230769
 23
5.153846
 0
LINE
 8
0
 10
11.769231
 20
-4.846154
 11
14.889419
 21
-6.92628
 0
LINE
 8
0
 10
-3.230769
 20
5.153846
 11
-6.350958
 21
7.233972
 0
LINE
 8
0
 10
11.769231
 20
-4.846154
 11
8.751902
 21
-2.834601
 0
LINE
 8
0
 10
-0.21344
 20
3.142293
 11
-3.230769
 21
5.153846
 0
TEXT
 8
0
 10
4.269231
 20
0.153846
 40
2.5
 1
18.03
 11
4.269231
 21
0.153846
 50
-33.690068
 72
1
 73
2
 0
ENDBLK
 0
BLOCK
 2
*D12
 70
1
 10
0
 20
0
 0
LINE
 8
0
 10
65
 20
50.625
 11
65
 21
55.25
 0
LINE
 8
0
 10
85
 20
50.625
 11
85
 21
55.25
 0
SOLID
 8
0
 10
67.5
 20
53.583333
 11
67.5
 21
54.416667
 12
65
 22
54
 13
65
 23
54
 0
SOLID
 8
0
 10
82.5
 20
54.416667
 11
82.5
 21
53.583333
 12
85
 22
54
 13
85
 23
54
 0
LINE
 8
0
 10
65
 20
54
 11
65
 21
54
 0
LINE
 8
0
 10
85
 20
54
 11
85
 21
54
 0
LINE
 8
0
 10
65
 20
54
 11
85
 21
54
 0
TEXT
 8
0
 10
75
 20
55.875
 40
2.5
 1
20
 11
75
 21
55.875
 72
1
 73
2
 0
ENDBLK
 0
BLOCK
 2
*D13
 70
1
 10
0
 20
0
 0
LINE
 8
0
 10
85.279508
 20
50.559017
 11
87.359017
 21
54.718034
 0
LINE
 8
0
 10
115.279508
 20
35.559017
 11
117.359017
 21
39.718034
 0
SOLID
 8
0
 10
88.849729
 20
52.109288
 11
89.222407
 21
52.854644
 12
86.8
 22
53.6
 13
86.8
 23
53.6
 0
SOLID
 8
0
 10
114.750271
 20
40.090712
 11
114.377593
 21
39.345356
 12
116.8
 22
38.6
 13
116.8
 23
38.6
 0
LINE
 8
0
 10
86.8
 20
53.6
 11
86.8
 21
53.6
 0
LINE
 8
0
 10
116.8
 20
38.6
 11
116.8
 21
38.6
 0
LINE
 8
0
 10
86.8
 20
53.6
 11
116.8
 21
38.6
 0
TEXT
 8
0
 10
102.638525
 20
47.777051
 40
2.5
 1
33.54
 11
102.638525
 21
47.777051
 50
-26.565051
 72
1
 73
2
 0
ENDBLK
 0
BLOCK
 2
*D14
 70
1
 10
0
 20
0
 0
LINE
 8
0
 10
115.625
 20
0
 11
120.25
 21
0
 0
LINE
 8
0
 10
115.625
 20
35
 11
120.25
 21
35
 0
SOLID
 8
0
 10
119.416667
 20
2.5
 11
118.583333
 21
2.5
 12
119
 22
0
 13
119
 23
0
 0
SOLID
 8
0
 10
118.583333
 20
32.5
 11
119.416667
 21
32.5
 12
119
 22
35
 13
119
 23
35
 0
LINE
 8
0
 10
119
 20
0
 11
119
 21
0
 0
LINE
 8
0
 10
119
 20
35
 11
119
 21
35
 0
LINE
 8
0
 10
119
 20
0
 11
119
 21
35
 0
TEXT
 8
0
 10
117.125
 20
17.5
 40
2.5
 1
35
 11
117.125
 21
17.5
 50
90
 72
1
 73
2
 0
ENDBLK
 0
BLOCK
 2
*D15
 70
1
 10
0
 20
0
 0
LINE
 8
0
 10
80
 20
-0.625
 11
80
 21
-5.25
 0
LINE
 8
0
 10
115
 20
-0.625
 11
115
 21
-5.25
 0
SOLID
 8
0
 10
82.5
 20
-4.416667
 11
82.5
 21
-3.583333
 12
80
 22
-4
 13
80
 23
-4
 0
SOLID
 8
0
 10
112.5
 20
-3.583333
 11
112.5
 21
-4.416667
 12
115
 22
-4
 13
115
 23
-4
 0
LINE
 8
0
 10
80
 20
-4
 11
80
 21
-4
 0
LINE
 8
0
 10
115
 20
-4
 11
115
 21
-4
 0
LINE
 8
0
 10
80
 20
-4
 11
115
 21
-4
 0
TEXT
 8
0
 10
97.5
 20
-2.125
 40
2.5
 1
35
 11
97.5
 21
-2.125
 72
1
 73
2
 0
ENDBLK
 0
BLOCK
 2
*D16
 70
1
 10
0
 20
0
 0
LINE
 8
0
 10
80.625
 20
0
 11
85.25
 21
0
 0
LINE
 8
0
 10
80.625
 20
10
 11
85.25
 21
10
 0
SOLID
 8
0
 10
84.416667
 20
2.5
 11
83.583333
 21
2.5
 12
84
 22
0
 13
84
 23
0
 0
SOLID
 8
0
 10
83.583333
 20
7.5
 11
84.416667
 21
7.5
 12
84
 22
10
 13
84
 23
10
 0
LINE
 8
0
 10
84
 20
0
 11
84
 21
0
 0
LINE
 8
0
 10
84
 20
10
 11
84
 21
15.45
 0
LINE
 8
0
 10
84
 20
0
 11
84
 21
10
 0
TEXT
 8
0
 10
82.125
 20
13.0375
 40
2.5
 1
10
 11
82.125
 21
13.0375
 50
90
 72
1
 73
2
 0
ENDBLK
 0
BLOCK
 2
*D17
 70
1
 10
0
 20
0
 0
LINE
 8
0
 10
80
 20
10.625
 11
80
 21
15.25
 0
LINE
 8
0
 10
65
 20
10.625
 11
65
 21
15.25
 0
SOLID
 8
0
 10
77.5
 20
14.416667
 11
77.5
 21
13.583333
 12
80
 22
14
 13
80
 23
14
 0
SOLID
 8
0
 10
67.5
 20
13.583333
 11
67.5
 21
14.416667
 12
65
 22
14
 13
65
 23
14
 0
LINE
 8
0
 10
80
 20
14
 11
80
 21
14
 0
LINE
 8
0
 10
65
 20
14
 11
59.55
 21
14
 0
LINE
 8
0
 10
80
 20
14
 11
65
 21
14
 0
TEXT
 8
0
 10
61.9625
 20
15.875
 40
2.5
 1
15
 11
61.9625
 21
15.875
 50
360
 72
1
 73
2
 0
ENDBLK
 0
BLOCK
 2
*D18
 70
1
 10
0
 20
0
 0
LINE
 8
0
 10
73.625
 20
10
 11
74.25
 21
10
 0
LINE
 8
0
 10
73.625
 20
50
 11
74.25
 21
50
 0
SOLID
 8
0
 10
73.416667
 20
12.5
 11
72.583333
 21
12.5
 12
73
 22
10
 13
73
 23
10
 0
SOLID
 8
0
 10
72.583333
 20
47.5
 11
73.416667
 21
47.5
 12
73
 22
50
 13
73
 23
50
 0
LINE
 8
0
 10
73
 20
10
 11
73
 21
10
 0
LINE
 8
0
 10
73
 20
50
 11
73
 21
50
 0
LINE
 8
0
 10
73
 20
10
 11
73
 21
50
 0
TEXT
 8
0
 10
71.125
 20
30
 40
2.5
 1
40
 11
71.125
 21
30
 50
90
 72
1
 73
2
 0
ENDBLK
 0
BLOCK
 2
*D19
 70
1
 10
0
 20
0
 0
LINE
 8
0
 10
85
 20
25.625
 11
85
 21
33.25
 0
LINE
 8
0
 10
95
 20
25.625
 11
95
 21
33.25
 0
SOLID
 8
0
 10
87.5
 20
31.583333
 11
87.5
 21
32.416667
 12
85
 22
32
 13
85
 23
32
 0
SOLID
 8
0
 10
92.5
 20
32.416667
 11
92.5
 21
31.583333
 12
95
 22
32
 13
95
 23
32
 0
LINE
 8
0
 10
85
 20
32
 11
85
 21
32
 0
LINE
 8
0
 10
95
 20
32
 11
106
 21
32
 0
LINE
 8
0
 10
85
 20
32
 11
95
 21
32
 0
TEXT
 8
0
 10
103.5875
 20
33.875
 40
2.5
 1
10
 11
103.5875
 21
33.875
 72
1
 73
2
 0
ENDBLK
 0
BLOCK
 2
*D20
 70
1
 10
0
 20
0
 0
LINE
 8
0
 10
89.375
 20
20
 11
78.75
 21
20
 0
LINE
 8
0
 10
89.375
 20
25
 11
78.75
 21
25
 0
SOLID
 8
0
 10
79.583333
 20
17.5
 11
80.416667
 21
17.5
 12
80
 22
20
 13
80
 23
20
 0
SOLID
 8
0
 10
80.416667
 20
27.5
 11
79.583333
 21
27.5
 12
80
 22
25
 13
80
 23
25
 0
LINE
 8
0
 10
80
 20
20
 11
80
 21
16.25
 0
LINE
 8
0
 10
80
 20
25
 11
80
 21
28.75
 0
LINE
 8
0
 10
80
 20
20
 11
80
 21
25
 0
TEXT
 8
0
 10
78.125
 20
22.5
 40
2.5
 1
5
 11
78.125
 21
22.5
 50
90
 72
1
 73
2
 0
ENDBLK
 0
BLOCK
 2
*D21
 70
1
 10
0
 20
0
 0
LINE
 8
0
 10
90.625
 20
20
 11
101.25
 21
20
 0
LINE
 8
0
 10
90.625
 20
25.67
 11
101.25
 21
25.67
 0
SOLID
 8
0
 10
99.583333
 20
17.5
 11
100.416667
 21
17.5
 12
100
 22
20
 13
100
 23
20
 0
SOLID
 8
0
 10
100.416667
 20
28.17
 11
99.583333
 21
28.17
 12
100
 22
25.67
 13
100
 23
25.67
 0
LINE
 8
0
 10
100
 20
20
 11
100
 21
8
 0
LINE
 8
0
 10
100
 20
25.67
 11
100
 21
29.42
 0
LINE
 8
0
 10
100
 20
20
 11
100
 21
25.67
 0
TEXT
 8
0
 10
98.125
 20
12.4375
 40
2.5
 1
5.67
 11
98.125
 21
12.4375
 50
90
 72
1
 73
2
 0
ENDBLK
 0
BLOCK
 2
*D22
 70
1
 10
0
 20
0
 0
LINE
 8
0
 10
79.653312
 20
-0.520031
 11
76.075856
 21
-5.886217
 0
LINE
 8
0
 10
64.653312
 20
9.479969
 11
61.075856
 21
4.113783
 0
SOLID
 8
0
 10
78.618231
 20
-6.579592
 11
79.080482
 21
-5.886217
 12
76.769231
 22
-4.846154
 13
76.769231
 23
-4.846154
 0
SOLID
 8
0
 10
59.92023
 20
6.887284
 11
59.45798
 21
6.193909
 12
61.769231
 22
5.153846
 13
61.769231
 23
5.153846
 0
LINE
 8
0
 10
76.769231
 20
-4.846154
 11
79.889419
 21
-6.92628
 0
LINE
 8
0
 10
61.769231
 20
5.153846
 11
58.649042
 21
7.233972
 0
LINE
 8
0
 10
76.769231
 20
-4.846154
 11
61.769231
 21
5.153846
 0
TEXT
 8
0
 10
70.309294
 20
1.71394
 40
2.5
 1
18.03
 11
70.309294
 21
1.71394
 50
-33.690068
 72
1
 73
2
 0
ENDBLK
 0
BLOCK
 2
*D23
 70
1
 10
0
 20
0
 0
LINE
 8
0
 10
130
 20
50.625
 11
130
 21
55.25
 0
LINE
 8
0
 10
150
 20
50.625
 11
150
 21
55.25
 0
SOLID
 8
0
 10
132.5
 20
53.583333
 11
132.5
 21
54.416667
 12
130
 22
54
 13
130
 23
54
 0
SOLID
 8
0
 10
147.5
 20
54.416667
 11
147.5
 21
53.583333
 12
150
 22
54
 13
150
 23
54
 0
LINE
 8
0
 10
130
 20
54
 11
130
 21
54
 0
LINE
 8
0
 10
150
 20
54
 11
150
 21
54
 0
LINE
 8
0
 10
130
 20
54
 11
150
 21
54
 0
TEXT
 8
0
 10
140
 20
52.125
 40
2.5
 1
20
 11
140
 21
52.125
 72
1
 73
2
 0
ENDBLK
 0
BLOCK
 2
*D24
 70
1
 10
0
 20
0
 0
LINE
 8
0
 10
150.279508
 20
50.559017
 11
152.359017
 21
54.718034
 0
LINE
 8
0
 10
180.279508
 20
35.559017
 11
182.359017
 21
39.718034
 0
SOLID
 8
0
 10
153.849729
 20
52.109288
 11
154.222407
 21
52.854644
 12
151.8
 22
53.6
 13
151.8
 23
53.6
 0
SOLID
 8
0
 10
179.750271
 20
40.090712
 11
179.377593
 21
39.345356
 12
181.8
 22
38.6
 13
181.8
 23
38.6
 0
LINE
 8
0
 10
151.8
 20
53.6
 11
151.8
 21
53.6
 0
LINE
 8
0
 10
181.8
 20
38.6
 11
181.8
 21
38.6
 0
LINE
 8
0
 10
151.8
 20
53.6
 11
181.8
 21
38.6
 0
TEXT
 8
0
 10
165.961475
 20
44.422949
 40
2.5
 1
33.54
 11
165.961475
 21
44.422949
 50
-26.565051
 72
1
 73
2
 0
ENDBLK
 0
BLOCK
 2
*D25
 70
1
 10
0
 20
0
 0
LINE
 8
0
 10
180.625
 20
0
 11
185.25
 21
0
 0
LINE
 8
0
 10
180.625
 20
35
 11
185.25
 21
35
 0
SOLID
 8
0
 10
184.416667
 20
2.5
 11
183.583333
 21
2.5
 12
184
 22
0
 13
184
 23
0
 0
SOLID
 8
0
 10
183.583333
 20
32.5
 11
184.416667
 21
32.5
 12
184
 22
35
 13
184
 23
35
 0
LINE
 8
0
 10
184
 20
0
 11
184
 21
0
 0
LINE
 8
0
 10
184
 20
35
 11
184
 21
35
 0
LINE
 8
0
 10
184
 20
0
 11
184
 21
35
 0
TEXT
 8
0
 10
185.875
 20
17.5
 40
2.5
 1
35
 11
185.875
 21
17.5
 50
90
 72
1
 73
2
 0
ENDBLK
 0
BLOCK
 2
*D26
 70
1
 10
0
 20
0
 0
LINE
 8
0
 10
145
 20
-0.625
 11
145
 21
-5.25
 0
LINE
 8
0
 10
180
 20
-0.625
 11
180
 21
-5.25
 0
SOLID
 8
0
 10
147.5
 20
-4.416667
 11
147.5
 21
-3.583333
 12
145
 22
-4
 13
145
 23
-4
 0
SOLID
 8
0
 10
177.5
 20
-3.583333
 11
177.5
 21
-4.416667
 12
180
 22
-4
 13
180
 23
-4
 0
LINE
 8
0
 10
145
 20
-4
 11
145
 21
-4
 0
LINE
 8
0
 10
180
 20
-4
 11
180
 21
-4
 0
LINE
 8
0
 10
145
 20
-4
 11
180
 21
-4
 0
TEXT
 8
0
 10
162.5
 20
-5.875
 40
2.5
 1
35
 11
162.5
 21
-5.875
 72
1
 73
2
 0
ENDBLK
 0
BLOCK
 2
*D27
 70
1
 10
0
 20
0
 0
LINE
 8
0
 10
145.625
 20
0
 11
150.25
 21
0
 0
LINE
 8
0
 10
145.625
 20
10
 11
150.25
 21
10
 0
SOLID
 8
0
 10
149.416667
 20
2.5
 11
148.583333
 21
2.5
 12
149
 22
0
 13
149
 23
0
 0
SOLID
 8
0
 10
148.583333
 20
7.5
 11
149.416667
 21
7.5
 12
149
 22
10
 13
149
 23
10
 0
LINE
 8
0
 10
149
 20
0
 11
149
 21
0
 0
LINE
 8
0
 10
149
 20
10
 11
149
 21
15.45
 0
LINE
 8
0
 10
149
 20
0
 11
149
 21
10
 0
TEXT
 8
0
 10
150.875
 20
13.0375
 40
2.5
 1
10
 11
150.875
 21
13.0375
 50
90
 72
1
 73
2
 0
ENDBLK
 0
BLOCK
 2
*D28
 70
1
 10
0
 20
0
 0
LINE
 8
0
 10
145
 20
10.625
 11
145
 21
15.25
 0
LINE
 8
0
 10
130
 20
10.625
 11
130
 21
15.25
 0
SOLID
 8
0
 10
142.5
 20
14.416667
 11
142.5
 21
13.583333
 12
145
 22
14
 13
145
 23
14
 0
SOLID
 8
0
 10
132.5
 20
13.583333
 11
132.5
 21
14.416667
 12
130
 22
14
 13
130
 23
14
 0
LINE
 8
0
 10
145
 20
14
 11
145
 21
14
 0
LINE
 8
0
 10
130
 20
14
 11
124.55
 21
14
 0
LINE
 8
0
 10
145
 20
14
 11
130
 21
14
 0
TEXT
 8
0
 10
126.9625
 20
12.125
 40
2.5
 1
15
 11
126.9625
 21
12.125
 50
360
 72
1
 73
2
 0
ENDBLK
 0
BLOCK
 2
*D29
 70
1
 10
0
 20
0
 0
LINE
 8
0
 10
138.625
 20
10
 11
139.25
 21
10
 0
LINE
 8
0
 10
138.625
 20
50
 11
139.25
 21
50
 0
SOLID
 8
0
 10
138.416667
 20
12.5
 11
137.583333
 21
12.5
 12
138
 22
10
 13
138
 23
10
 0
SOLID
 8
0
 10
137.583333
 20
47.5
 11
138.416667
 21
47.5
 12
138
 22
50
 13
138
 23
50
 0
LINE
 8
0
 10
138
 20
10
 11
138
 21
10
 0
LINE
 8
0
 10
138
 20
50
 11
138
 21
50
 0
LINE
 8
0
 10
138
 20
10
 11
138
 21
50
 0
TEXT
 8
0
 10
139.875
 20
30
 40
2.5
 1
40
 11
139.875
 21
30
 50
90
 72
1
 73
2
 0
ENDBLK
 0
BLOCK
 2
*D30
 70
1
 10
0
 20
0
 0
LINE
 8
0
 10
150
 20
25.625
 11
150
 21
33.25
 0
LINE
 8
0
 10
160
 20
25.625
 11
160
 21
33.25
 0
SOLID
 8
0
 10
152.5
 20
31.583333
 11
152.5
 21
32.416667
 12
150
 22
32
 13
150
 23
32
 0
SOLID
 8
0
 10
157.5
 20
32.416667
 11
157.5
 21
31.583333
 12
160
 22
32
 13
160
 23
32
 0
LINE
 8
0
 10
150
 20
32
 11
150
 21
32
 0
LINE
 8
0
 10
160
 20
32
 11
171
 21
32
 0
LINE
 8
0
 10
150
 20
32
 11
160
 21
32
 0
TEXT
 8
0
 10
168.5875
 20
30.125
 40
2.5
 1
10
 11
168.5875
 21
30.125
 72
1
 73
2
 0
ENDBLK
 0
BLOCK
 2
*D31
 70
1
 10
0
 20
0
 0
LINE
 8
0
 10
154.375
 20
20
 11
143.75
 21
20
 0
LINE
 8
0
 10
154.375
 20
25
 11
143.75
 21
25
 0
SOLID
 8
0
 10
144.583333
 20
17.5
 11
145.416667
 21
17.5
 12
145
 22
20
 13
145
 23
20
 0
SOLID
 8
0
 10
145.416667
 20
27.5
 11
144.583333
 21
27.5
 12
145
 22
25
 13
145
 23
25
 0
LINE
 8
0
 10
145
 20
20
 11
145
 21
16.25
 0
LINE
 8
0
 10
145
 20
25
 11
145
 21
28.75
 0
LINE
 8
0
 10
145
 20
20
 11
145
 21
25
 0
TEXT
 8
0
 10
146.875
 20
22.5
 40
2.5
 1
5
 11
146.875
 21
22.5
 50
90
 72
1
 73
2
 0
ENDBLK
 0
BLOCK
 2
*D32
 70
1
 10
0
 20
0
 0
LINE
 8
0
 10
155.625
 20
20
 11
166.25
 21
20
 0
LINE
 8
0
 10
155.625
 20
25.67
 11
166.25
 21
25.67
 0
SOLID
 8
0
 10
164.583333
 20
17.5
 11
165.416667
 21
17.5
 12
165
 22
20
 13
165
 23
20
 0
SOLID
 8
0
 10
165.416667
 20
28.17
 11
164.583333
 21
28.17
 12
165
 22
25.67
 13
165
 23
25.67
 0
LINE
 8
0
 10
165
 20
20
 11
165
 21
8
 0
LINE
 8
0
 10
165
 20
25.67
 11
165
 21
29.42
 0
LINE
 8
0
 10
165
 20
20
 11
165
 21
25.67
 0
TEXT
 8
0
 10
166.875
 20
12.4375
 40
2.5
 1
5.67
 11
166.875
 21
12.4375
 50
90
 72
1
 73
2
 0
ENDBLK
 0
BLOCK
 2
*D33
 70
1
 10
0
 20
0
 0
LINE
 8
0
 10
144.653312
 20
-0.520031
 11
141.075856
 21
-5.886217
 0
LINE
 8
0
 10
129.653312
 20
9.479969
 11
126.075856
 21
4.113783
 0
SOLID
 8
0
 10
143.618231
 20
-6.579592
 11
144.080482
 21
-5.886217
 12
141.769231
 22
-4.846154
 13
141.769231
 23
-4.846154
 0
SOLID
 8
0
 10
124.92023
 20
6.887284
 11
124.45798
 21
6.193909
 12
126.769231
 22
5.153846
 13
126.769231
 23
5.153846
 0
LINE
 8
0
 10
141.769231
 20
-4.846154
 11
144.889419
 21
-6.92628
 0
LINE
 8
0
 10
126.769231
 20
5.153846
 11
123.649042
 21
7.233972
 0
LINE
 8
0
 10
141.769231
 20
-4.846154
 11
126.769231
 21
5.153846
 0
TEXT
 8
0
 10
133.229168
 20
-1.406248
 40
2.5
 1
18.03
 11
133.229168
 21
-1.406248
 50
-33.690068
 72
1
 73
2
 0
ENDBLK
 0
BLOCK
 2
*D34
 70
1
 10
0
 20
0
 0
LINE
 8
0
 10
0
 20
115.625
 11
0
 21
120.25
 0
LINE
 8
0
 10
20
 20
115.625
 11
20
 21
120.25
 0
SOLID
 8
0
 10
2.5
 20
118.583333
 11
2.5
 21
119.416667
 12
0
 22
119
 13
0
 23
119
 0
SOLID
 8
0
 10
17.5
 20
119.416667
 11
17.5
 21
118.583333
 12
20
 22
119
 13
20
 23
119
 0
LINE
 8
0
 10
0
 20
119
 11
0
 21
119
 0
LINE
 8
0
 10
20
 20
119
 11
20
 21
119
 0
LINE
 8
0
 10
0
 20
119
 11
7.35
 21
119
 0
LINE
 8
0
 10
12.65
 20
119
 11
20
 21
119
 0
TEXT
 8
0
 10
10
 20
119
 40
2.5
 1
20
 11
10
 21
119
 72
1
 73
2
 0
ENDBLK
 0
BLOCK
 2
*D35
 70
1
 10
0
 20
0
 0
LINE
 8
0
 10
20.279508
 20
115.559017
 11
22.359017
 21
119.718034
 0
LINE
 8
0
 10
50.279508
 20
100.559017
 11
52.359017
 21
104.718034
 0
SOLID
 8
0
 10
23.849729
 20
117.109288
 11
24.222407
 21
117.854644
 12
21.8
 22
118.6
 13
21.8
 23
118.6
 0
SOLID
 8
0
 10
49.750271
 20
105.090712
 11
49.377593
 21
104.345356
 12
51.8
 22
103.6
 13
51.8
 23
103.6
 0
LINE
 8
0
 10
21.8
 20
118.6
 11
21.8
 21
118.6
 0
LINE
 8
0
 10
51.8
 20
103.6
 11
51.8
 21
103.6
 0
LINE
 8
0
 10
21.8
 20
118.6
 11
33.05
 21
112.975
 0
LINE
 8
0
 10
40.55
 20
109.225
 11
51.8
 21
103.6
 0
TEXT
 8
0
 10
36.8
 20
111.1
 40
2.5
 1
33.54
 11
36.8
 21
111.1
 72
1
 73
2
 0
ENDBLK
 0
BLOCK
 2
*D36
 70
1
 10
0
 20
0
 0
LINE
 8
0
 10
50.625
 20
65
 11
55.25
 21
65
 0
LINE
 8
0
 10
50.625
 20
100
 11
55.25
 21
100
 0
SOLID
 8
0
 10
54.416667
 20
67.5
 11
53.583333
 21
67.5
 12
54
 22
65
 13
54
 23
65
 0
SOLID
 8
0
 10
53.583333
 20
97.5
 11
54.416667
 21
97.5
 12
54
 22
100
 13
54
 23
100
 0
LINE
 8
0
 10
54
 20
65
 11
54
 21
65
 0
LINE
 8
0
 10
54
 20
100
 11
54
 21
100
 0
LINE
 8
0
 10
54
 20
65
 11
54
 21
80.625
 0
LINE
 8
0
 10
54
 20
84.375
 11
54
 21
100
 0
TEXT
 8
0
 10
54
 20
82.5
 40
2.5
 1
35
 11
54
 21
82.5
 72
1
 73
2
 0
ENDBLK
 0
BLOCK
 2
*D37
 70
1
 10
0
 20
0
 0
LINE
 8
0
 10
15
 20
64.375
 11
15
 21
59.75
 0
LINE
 8
0
 10
50
 20
64.375
 11
50
 21
59.75
 0
SOLID
 8
0
 10
17.5
 20
60.583333
 11
17.5
 21
61.416667
 12
15
 22
61
 13
15
 23
61
 0
SOLID
 8
0
 10
47.5
 20
61.416667
 11
47.5
 21
60.583333
 12
50
 22
61
 13
50
 23
61
 0
LINE
 8
0
 10
15
 20
61
 11
15
 21
61
 0
LINE
 8
0
 10
50
 20
61
 11
50
 21
61
 0
LINE
 8
0
 10
15
 20
61
 11
29.85
 21
61
 0
LINE
 8
0
 10
35.15
 20
61
 11
50
 21
61
 0
TEXT
 8
0
 10
32.5
 20
61
 40
2.5
 1
35
 11
32.5
 21
61
 72
1
 73
2
 0
ENDBLK
 0
BLOCK
 2
*D38
 70
1
 10
0
 20
0
 0
LINE
 8
0
 10
15.625
 20
65
 11
20.25
 21
65
 0
LINE
 8
0
 10
15.625
 20
75
 11
20.25
 21
75
 0
SOLID
 8
0
 10
19.416667
 20
67.5
 11
18.583333
 21
67.5
 12
19
 22
65
 13
19
 23
65
 0
SOLID
 8
0
 10
18.583333
 20
72.5
 11
19.416667
 21
72.5
 12
19
 22
75
 13
19
 23
75
 0
LINE
 8
0
 10
19
 20
65
 11
19
 21
65
 0
POLYLINE
 8
0
 66
1
 10
0
 20
0
 70
0
 0
VERTEX
 8
0
 10
19
 20
75
 0
VERTEX
 8
0
 10
19
 20
77.5
 0
VERTEX
 8
0
 10
20.25
 20
77.5 
 0
SEQEND
 8
0
 0
LINE
 8
0
 10
19
 20
65
 11
19
 21
75
 0
TEXT
 8
0
 10
22.6625
 20
77.5
 40
2.5
 1
10
 11
22.6625
 21
77.5
 72
1
 73
2
 0
ENDBLK
 0
BLOCK
 2
*D39
 70
1
 10
0
 20
0
 0
LINE
 8
0
 10
15
 20
75.625
 11
15
 21
80.25
 0
LINE
 8
0
 10
0
 20
75.625
 11
0
 21
80.25
 0
SOLID
 8
0
 10
12.5
 20
79.416667
 11
12.5
 21
78.583333
 12
15
 22
79
 13
15
 23
79
 0
SOLID
 8
0
 10
2.5
 20
78.583333
 11
2.5
 21
79.416667
 12
0
 22
79
 13
0
 23
79
 0
LINE
 8
0
 10
15
 20
79
 11
15
 21
79
 0
POLYLINE
 8
0
 66
1
 10
0
 20
0
 70
0
 0
VERTEX
 8
0
 10
0
 20
79
 0
VERTEX
 8
0
 10
-1.25
 20
79
 0
VERTEX
 8
0
 10
-2.5
 20
79 
 0
SEQEND
 8
0
 0
LINE
 8
0
 10
15
 20
79
 11
0
 21
79
 0
TEXT
 8
0
 10
-4.9125
 20
79
 40
2.5
 1
15
 11
-4.9125
 21
79
 72
1
 73
2
 0
ENDBLK
 0
BLOCK
 2
*D40
 70
1
 10
0
 20
0
 0
LINE
 8
0
 10
7.375
 20
75
 11
6.75
 21
75
 0
LINE
 8
0
 10
8.625
 20
115
 11
9.25
 21
115
 0
SOLID
 8
0
 10
8.416667
 20
77.5
 11
7.583333
 21
77.5
 12
8
 22
75
 13
8
 23
75
 0
SOLID
 8
0
 10
7.583333
 20
112.5
 11
8.416667
 21
112.5
 12
8
 22
115
 13
8
 23
115
 0
LINE
 8
0
 10
8
 20
75
 11
8
 21
75
 0
LINE
 8
0
 10
8
 20
115
 11
8
 21
115
 0
LINE
 8
0
 10
8
 20
75
 11
8
 21
93.125
 0
LINE
 8
0
 10
8
 20
96.875
 11
8
 21
115
 0
TEXT
 8
0
 10
8
 20
95
 40
2.5
 1
40
 11
8
 21
95
 72
1
 73
2
 0
ENDBLK
 0
BLOCK
 2
*D41
 70
1
 10
0
 20
0
 0
LINE
 8
0
 10
20
 20
90.625
 11
20
 21
98.25
 0
LINE
 8
0
 10
30
 20
90.625
 11
30
 21
98.25
 0
SOLID
 8
0
 10
22.5
 20
96.583333
 11
22.5
 21
97.416667
 12
20
 22
97
 13
20
 23
97
 0
SOLID
 8
0
 10
27.5
 20
97.416667
 11
27.5
 21
96.583333
 12
30
 22
97
 13
30
 23
97
 0
LINE
 8
0
 10
20
 20
97
 11
20
 21
97
 0
POLYLINE
 8
0
 66
1
 10
0
 20
0
 70
0
 0
VERTEX
 8
0
 10
30
 20
97
 0
VERTEX
 8
0
 10
41
 20
97
 0
VERTEX
 8
0
 10
42.25
 20
97 
 0
SEQEND
 8
0
 0
LINE
 8
0
 10
20
 20
97
 11
30
 21
97
 0
TEXT
 8
0
 10
44.6625
 20
97
 40
2.5
 1
10
 11
44.6625
 21
97
 72
1
 73
2
 0
ENDBLK
 0
BLOCK
 2
*D42
 70
1
 10
0
 20
0
 0
LINE
 8
0
 10
24.375
 20
85
 11
13.75
 21
85
 0
LINE
 8
0
 10
24.375
 20
90
 11
13.75
 21
90
 0
SOLID
 8
0
 10
14.583333
 20
82.5
 11
15.416667
 21
82.5
 12
15
 22
85
 13
15
 23
85
 0
SOLID
 8
0
 10
15.416667
 20
92.5
 11
14.583333
 21
92.5
 12
15
 22
90
 13
15
 23
90
 0
LINE
 8
0
 10
15
 20
85
 11
15
 21
81.25
 0
LINE
 8
0
 10
15
 20
90
 11
15
 21
93.75
 0
LINE
 8
0
 10
15
 20
85
 11
15
 21
85.625
 0
LINE
 8
0
 10
15
 20
89.375
 11
15
 21
90
 0
TEXT
 8
0
 10
15
 20
87.5
 40
2.5
 1
5
 11
15
 21
87.5
 72
1
 73
2
 0
ENDBLK
 0
BLOCK
 2
*D43
 70
1
 10
0
 20
0
 0
LINE
 8
0
 10
25.625
 20
85
 11
36.25
 21
85
 0
LINE
 8
0
 10
25.625
 20
90.67
 11
36.25
 21
90.67
 0
SOLID
 8
0
 10
34.583333
 20
82.5
 11
35.416667
 21
82.5
 12
35
 22
85
 13
35
 23
85
 0
SOLID
 8
0
 10
35.416667
 20
93.17
 11
34.583333
 21
93.17
 12
35
 22
90.67
 13
35
 23
90.67
 0
LINE
 8
0
 10
35
 20
85
 11
35
 21
81.25
 0
LINE
 8
0
 10
35
 20
90.67
 11
35
 21
94.42
 0
LINE
 8
0
 10
35
 20
85
 11
35
 21
85.96
 0
LINE
 8
0
 10
35
 20
89.71
 11
35
 21
90.67
 0
TEXT
 8
0
 10
35
 20
87.835
 40
2.5
 1
5.67
 11
35
 21
87.835
 72
1
 73
2
 0
ENDBLK
 0
BLOCK
 2
*D44
 70
1
 10
0
 20
0
 0
LINE
 8
0
 10
14.653312
 20
64.479969
 11
11.075856
 21
59.113783
 0
LINE
 8
0
 10
-0.346688
 20
74.479969
 11
-3.924144
 21
69.113783
 0
SOLID
 8
0
 10
13.618231
 20
58.420408
 11
14.080482
 21
59.113783
 12
11.769231
 22
60.153846
 13
11.769231
 23
60.153846
 0
SOLID
 8
0
 10
-5.07977
 20
71.887284
 11
-5.54202
 21
71.193909
 12
-3.230769
 22
70.153846
 13
-3.230769
 23
70.153846
 0
LINE
 8
0
 10
11.769231
 20
60.153846
 11
14.889419
 21
58.07372
 0
LINE
 8
0
 10
-3.230769
 20
70.153846
 11
-6.350958
 21
72.233972
 0
LINE
 8
0
 10
11.769231
 20
60.153846
 11
7.081731
 21
63.278846
 0
LINE
 8
0
 10
1.456731
 20
67.028846
 11
-3.230769
 21
70.153846
 0
TEXT
 8
0
 10
4.269231
 20
65.153846
 40
2.5
 1
18.03
 11
4.269231
 21
65.153846
 72
1
 73
2
 0
ENDBLK
 0
BLOCK
 2
*D45
 70
1
 10
0
 20
0
 0
LINE
 8
0
 10
65
 20
115.625
 11
65
 21
120.25
 0
LINE
 8
0
 10
85
 20
115.625
 11
85
 21
120.25
 0
SOLID
 8
0
 10
67.5
 20
118.583333
 11
67.5
 21
119.416667
 12
65
 22
119
 13
65
 23
119
 0
SOLID
 8
0
 10
82.5
 20
119.416667
 11
82.5
 21
118.583333
 12
85
 22
119
 13
85
 23
119
 0
POLYLINE
 8
0
 66
1
 10
0
 20
0
 70
0
 0
VERTEX
 8
0
 10
65
 20
119
 0
VERTEX
 8
0
 10
64
 20
119
 0
VERTEX
 8
0
 10
58.7
 20
119 
 0
SEQEND
 8
0
 0
LINE
 8
0
 10
85
 20
119
 11
85
 21
119
 0
LINE
 8
0
 10
65
 20
119
 11
85
 21
119
 0
TEXT
 8
0
 10
61.35
 20
120.875
 40
2.5
 1
20
 11
61.35
 21
120.875
 72
1
 73
2
 0
ENDBLK
 0
BLOCK
 2
*D46
 70
1
 10
0
 20
0
 0
LINE
 8
0
 10
65
 20
115.625
 11
65
 21
124.25
 0
LINE
 8
0
 10
85
 20
115.625
 11
85
 21
124.25
 0
SOLID
 8
0
 10
67.5
 20
122.583333
 11
67.5
 21
123.416667
 12
65
 22
123
 13
65
 23
123
 0
SOLID
 8
0
 10
82.5
 20
123.416667
 11
82.5
 21
122.583333
 12
85
 22
123
 13
85
 23
123
 0
LINE
 8
0
 10
65
 20
123
 11
65
 21
123
 0
POLYLINE
 8
0
 66
1
 10
0
 20
0
 70
0
 0
VERTEX
 8
0
 10
85
 20
123
 0
VERTEX
 8
0
 10
86
 20
123
 0
VERTEX
 8
0
 10
91.3
 20
123 
 0
SEQEND
 8
0
 0
LINE
 8
0
 10
65
 20
123
 11
85
 21
123
 0
TEXT
 8
0
 10
88.65
 20
124.875
 40
2.5
 1
20
 11
88.65
 21
124.875
 72
1
 73
2
 0
ENDBLK
 0
BLOCK
 2
*D47
 70
1
 10
0
 20
0
 0
LINE
 8
0
 10
114.375
 20
100
 11
110.75
 21
100
 0
LINE
 8
0
 10
114.375
 20
65
 11
110.75
 21
65
 0
SOLID
 8
0
 10
111.583333
 20
97.5
 11
112.416667
 21
97.5
 12
112
 22
100
 13
112
 23
100
 0
SOLID
 8
0
 10
112.416667
 20
67.5
 11
111.583333
 21
67.5
 12
112
 22
65
 13
112
 23
65
 0
LINE
 8
0
 10
112
 20
100
 11
112
 21
100
 0
LINE
 8
0
 10
112
 20
65
 11
112
 21
65
 0
LINE
 8
0
 10
112
 20
100
 11
112
 21
84.375
 0
LINE
 8
0
 10
112
 20
80.625
 11
112
 21
65
 0
TEXT
 8
0
 10
112
 20
82.5
 40
2.5
 1
35
 11
112
 21
82.5
 72
1
 73
2
 0
ENDBLK
 0
BLOCK
 2
*D48
 70
1
 10
0
 20
0
 0
LINE
 8
0
 10
115.625
 20
100
 11
119.25
 21
100
 0
LINE
 8
0
 10
115.625
 20
65
 11
119.25
 21
65
 0
SOLID
 8
0
 10
117.583333
 20
97.5
 11
118.416667
 21
97.5
 12
118
 22
100
 13
118
 23
100
 0
SOLID
 8
0
 10
118.416667
 20
67.5
 11
117.583333
 21
67.5
 12
118
 22
65
 13
118
 23
65
 0
LINE
 8
0
 10
118
 20
100
 11
118
 21
100
 0
POLYLINE
 8
0
 66
1
 10
0
 20
0
 70
0
 0
VERTEX
 8
0
 10
118
 20
65
 0
VERTEX
 8
0
 10
118
 20
60
 0
VERTEX
 8
0
 10
123.3
 20
60 
 0
SEQEND
 8
0
 0
LINE
 8
0
 10
118
 20
100
 11
118
 21
65
 0
TEXT
 8
0
 10
120.65
 20
61.875
 40
2.5
 1
35
 11
120.65
 21
61.875
 72
1
 73
2
 0
ENDBLK
 0
BLOCK
 2
*D49
 70
1
 10
0
 20
0
 0
LINE
 8
0
 10
65
 20
75.625
 11
65
 21
79.25
 0
LINE
 8
0
 10
80
 20
75.625
 11
80
 21
79.25
 0
SOLID
 8
0
 10
67.5
 20
77.583333
 11
67.5
 21
78.416667
 12
65
 22
78
 13
65
 23
78
 0
SOLID
 8
0
 10
77.5
 20
78.416667
 11
77.5
 21
77.583333
 12
80
 22
78
 13
80
 23
78
 0
LINE
 8
0
 10
65
 20
78
 11
65
 21
78
 0
LINE
 8
0
 10
80
 20
78
 11
80
 21
78
 0
LINE
 8
0
 10
65
 20
78
 11
70.0875
 21
78
 0
LINE
 8
0
 10
74.9125
 20
78
 11
80
 21
78
 0
TEXT
 8
0
 10
72.5
 20
78
 40
2.5
 1
15
 11
72.5
 21
78
 72
1
 73
2
 0
ENDBLK
 0
BLOCK
 2
*D50
 70
1
 10
0
 20
0
 0
LINE
 8
0
 10
84.720492
 20
114.440983
 11
81.040983
 21
107.081966
 0
LINE
 8
0
 10
114.720492
 20
99.440983
 11
111.040983
 21
92.081966
 0
SOLID
 8
0
 10
83.649729
 20
106.709288
 11
84.022407
 21
107.454644
 12
81.6
 22
108.2
 13
81.6
 23
108.2
 0
SOLID
 8
0
 10
109.550271
 20
94.690712
 11
109.177593
 21
93.945356
 12
111.6
 22
93.2
 13
111.6
 23
93.2
 0
POLYLINE
 8
0
 66
1
 10
0
 20
0
 70
0
 0
VERTEX
 8
0
 10
81.6
 20
108.2
 0
VERTEX
 8
0
 10
80
 20
109
 0
VERTEX
 8
0
 10
68.625
 20
109 
 0
SEQEND
 8
0
 0
LINE
 8
0
 10
111.6
 20
93.2
 11
111.6
 21
93.2
 0
LINE
 8
0
 10
81.6
 20
108.2
 11
111.6
 21
93.2
 0
TEXT
 8
0
 10
74.3125
 20
110.875
 40
2.5
 1
33.54
 11
74.3125
 21
110.875
 72
1
 73
2
 0
ENDBLK
 0
BLOCK
 2
*D51
 70
1
 10
0
 20
0
 0
LINE
 8
0
 10
85.279508
 20
115.559017
 11
87.559017
 21
120.118034
 0
LINE
 8
0
 10
115.279508
 20
100.559017
 11
117.559017
 21
105.118034
 0
SOLID
 8
0
 10
89.049729
 20
117.509288
 11
89.422407
 21
118.254644
 12
87
 22
119
 13
87
 23
119
 0
SOLID
 8
0
 10
114.950271
 20
105.490712
 11
114.577593
 21
104.745356
 12
117
 22
104
 13
117
 23
104
 0
LINE
 8
0
 10
87
 20
119
 11
87
 21
119
 0
LINE
 8
0
 10
117
 20
104
 11
117
 21
104
 0
LINE
 8
0
 10
87
 20
119
 11
98.25
 21
113.375
 0
LINE
 8
0
 10
105.75
 20
109.625
 11
117
 21
104
 0
TEXT
 8
0
 10
102
 20
111.5
 40
2.5
 1
33.54
 11
102
 21
111.5
 72
1
 73
2
 0
ENDBLK
 0
BLOCK
 2
*D52
 70
1
 10
0
 20
0
 0
LINE
 8
0
 10
85
 20
90.625
 11
85
 21
99.25
 0
LINE
 8
0
 10
90
 20
90.625
 11
90
 21
99.25
 0
SOLID
 8
0
 10
82.5
 20
98.416667
 11
82.5
 21
97.583333
 12
85
 22
98
 13
85
 23
98
 0
SOLID
 8
0
 10
92.5
 20
97.583333
 11
92.5
 21
98.416667
 12
90
 22
98
 13
90
 23
98
 0
LINE
 8
0
 10
85
 20
98
 11
81.25
 21
98
 0
LINE
 8
0
 10
90
 20
98
 11
93.75
 21
98
 0
LINE
 8
0
 10
85
 20
98
 11
86.0375
 21
98
 0
LINE
 8
0
 10
88.9625
 20
98
 11
90
 21
98
 0
TEXT
 8
0
 10
87.5
 20
98
 40
2.5
 1
5
 11
87.5
 21
98
 72
1
 73
2
 0
ENDBLK
 0
BLOCK
 2
*D53
 70
1
 10
0
 20
0
 0
LINE
 8
0
 10
85
 20
89.375
 11
85
 21
80.75
 0
LINE
 8
0
 10
87
 20
89.375
 11
87
 21
80.75
 0
SOLID
 8
0
 10
82.5
 20
82.416667
 11
82.5
 21
81.583333
 12
85
 22
82
 13
85
 23
82
 0
SOLID
 8
0
 10
89.5
 20
81.583333
 11
89.5
 21
82.416667
 12
87
 22
82
 13
87
 23
82
 0
POLYLINE
 8
0
 66
1
 10
0
 20
0
 70
0
 0
VERTEX
 8
0
 10
85
 20
82
 0
VERTEX
 8
0
 10
82.5
 20
82
 0
VERTEX
 8
0
 10
79.575
 20
82 
 0
SEQEND
 8
0
 0
LINE
 8
0
 10
87
 20
82
 11
90.75
 21
82
 0
LINE
 8
0
 10
85
 20
82
 11
87
 21
82
 0
TEXT
 8
0
 10
81.0375
 20
83.875
 40
2.5
 1
2
 11
81.0375
 21
83.875
 72
1
 73
2
 0
ENDBLK
 0
BLOCK
 2
*D54
 70
1
 10
0
 20
0
 0
LINE
 8
0
 10
95
 20
89.375
 11
95
 21
80.75
 0
LINE
 8
0
 10
93.75
 20
89.375
 11
93.75
 21
80.75
 0
SOLID
 8
0
 10
97.5
 20
81.583333
 11
97.5
 21
82.416667
 12
95
 22
82
 13
95
 23
82
 0
SOLID
 8
0
 10
91.25
 20
82.416667
 11
91.25
 21
81.583333
 12
93.75
 22
82
 13
93.75
 23
82
 0
POLYLINE
 8
0
 66
1
 10
0
 20
0
 70
0
 0
VERTEX
 8
0
 10
95
 20
82
 0
VERTEX
 8
0
 10
97.5
 20
82
 0
VERTEX
 8
0
 10
105.9
 20
82 
 0
SEQEND
 8
0
 0
LINE
 8
0
 10
93.75
 20
82
 11
90
 21
82
 0
LINE
 8
0
 10
95
 20
82
 11
93.75
 21
82
 0
TEXT
 8
0
 10
101.7
 20
83.875
 40
2.5
 1
1.25
 11
101.7
 21
83.875
 72
1
 73
2
 0
ENDBLK
 0
BLOCK
 2
*D55
 70
1
 10
0
 20
0
 0
LINE
 8
0
 10
80
 20
65.625
 11
80
 21
70.25
 0
LINE
 8
0
 10
115
 20
65.625
 11
115
 21
70.25
 0
SOLID
 8
0
 10
82.5
 20
68.583333
 11
82.5
 21
69.416667
 12
80
 22
69
 13
80
 23
69
 0
SOLID
 8
0
 10
112.5
 20
69.416667
 11
112.5
 21
68.583333
 12
115
 22
69
 13
115
 23
69
 0
LINE
 8
0
 10
80
 20
69
 11
80
 21
69
 0
LINE
 8
0
 10
115
 20
69
 11
115
 21
69
 0
LINE
 8
0
 10
80
 20
69
 11
94.85
 21
69
 0
LINE
 8
0
 10
100.15
 20
69
 11
115
 21
69
 0
TEXT
 8
0
 10
97.5
 20
69
 40
2.5
 1
35
 11
97.5
 21
69
 72
1
 73
2
 0
ENDBLK
 0
BLOCK
 2
*D56
 70
1
 10
0
 20
0
 0
LINE
 8
0
 10
64.653312
 20
74.479969
 11
62.460471
 21
71.190706
 0
LINE
 8
0
 10
79.653312
 20
64.479969
 11
77.460471
 21
61.190706
 0
SOLID
 8
0
 10
65.002847
 20
70.497331
 11
65.465097
 21
71.190706
 12
63.153846
 22
72.230769
 13
63.153846
 23
72.230769
 0
SOLID
 8
0
 10
76.304845
 20
63.964207
 11
75.842595
 21
63.270832
 12
78.153846
 22
62.230769
 13
78.153846
 23
62.230769
 0
LINE
 8
0
 10
63.153846
 20
72.230769
 11
63.153846
 21
72.230769
 0
POLYLINE
 8
0
 66
1
 10
0
 20
0
 70
0
 0
VERTEX
 8
0
 10
78.153846
 20
62.230769
 0
VERTEX
 8
0
 10
82.314098
 20
59.457268
 0
VERTEX
 8
0
 10
93.089097
 20
59.457268 
 0
SEQEND
 8
0
 0
LINE
 8
0
 10
63.153846
 20
72.230769
 11
78.153846
 21
62.230769
 0
TEXT
 8
0
 10
87.701597
 20
61.332268
 40
2.5
 1
18.03
 11
87.701597
 21
61.332268
 72
1
 73
2
 0
ENDBLK
 0
BLOCK
 2
*D57
 70
1
 10
0
 20
0
 0
LINE
 8
0
 10
130
 20
115.625
 11
130
 21
120.25
 0
LINE
 8
0
 10
150
 20
115.625
 11
150
 21
120.25
 0
SOLID
 8
0
 10
132.5
 20
118.583333
 11
132.5
 21
119.416667
 12
130
 22
119
 13
130
 23
119
 0
SOLID
 8
0
 10
147.5
 20
119.416667
 11
147.5
 21
118.583333
 12
150
 22
119
 13
150
 23
119
 0
POLYLINE
 8
0
 66
1
 10
0
 20
0
 70
0
 0
VERTEX
 8
0
 10
130
 20
119
 0
VERTEX
 8
0
 10
129
 20
119
 0
VERTEX
 8
0
 10
123.7
 20
119 
 0
SEQEND
 8
0
 0
LINE
 8
0
 10
150
 20
119
 11
150
 21
119
 0
LINE
 8
0
 10
130
 20
119
 11
150
 21
119
 0
TEXT
 8
0
 10
126.35
 20
117.125
 40
2.5
 1
20
 11
126.35
 21
117.125
 72
1
 73
2
 0
ENDBLK
 0
BLOCK
 2
*D58
 70
1
 10
0
 20
0
 0
LINE
 8
0
 10
130
 20
115.625
 11
130
 21
124.25
 0
LINE
 8
0
 10
150
 20
115.625
 11
150
 21
124.25
 0
SOLID
 8
0
 10
132.5
 20
122.583333
 11
132.5
 21
123.416667
 12
130
 22
123
 13
130
 23
123
 0
SOLID
 8
0
 10
147.5
 20
123.416667
 11
147.5
 21
122.583333
 12
150
 22
123
 13
150
 23
123
 0
LINE
 8
0
 10
130
 20
123
 11
130
 21
123
 0
POLYLINE
 8
0
 66
1
 10
0
 20
0
 70
0
 0
VERTEX
 8
0
 10
150
 20
123
 0
VERTEX
 8
0
 10
151
 20
123
 0
VERTEX
 8
0
 10
156.3
 20
123 
 0
SEQEND
 8
0
 0
LINE
 8
0
 10
130
 20
123
 11
150
 21
123
 0
TEXT
 8
0
 10
153.65
 20
121.125
 40
2.5
 1
20
 11
153.65
 21
121.125
 72
1
 73
2
 0
ENDBLK
 0
BLOCK
 2
*D59
 70
1
 10
0
 20
0
 0
LINE
 8
0
 10
179.375
 20
100
 11
175.75
 21
100
 0
LINE
 8
0
 10
179.375
 20
65
 11
175.75
 21
65
 0
SOLID
 8
0
 10
176.583333
 20
97.5
 11
177.416667
 21
97.5
 12
177
 22
100
 13
177
 23
100
 0
SOLID
 8
0
 10
177.416667
 20
67.5
 11
176.583333
 21
67.5
 12
177
 22
65
 13
177
 23
65
 0
LINE
 8
0
 10
177
 20
100
 11
177
 21
100
 0
LINE
 8
0
 10
177
 20
65
 11
177
 21
65
 0
LINE
 8
0
 10
177
 20
100
 11
177
 21
84.375
 0
LINE
 8
0
 10
177
 20
80.625
 11
177
 21
65
 0
TEXT
 8
0
 10
177
 20
82.5
 40
2.5
 1
35
 11
177
 21
82.5
 72
1
 73
2
 0
ENDBLK
 0
BLOCK
 2
*D60
 70
1
 10
0
 20
0
 0
LINE
 8
0
 10
180.625
 20
100
 11
184.25
 21
100
 0
LINE
 8
0
 10
180.625
 20
65
 11
184.25
 21
65
 0
SOLID
 8
0
 10
182.583333
 20
97.5
 11
183.416667
 21
97.5
 12
183
 22
100
 13
183
 23
100
 0
SOLID
 8
0
 10
183.416667
 20
67.5
 11
182.583333
 21
67.5
 12
183
 22
65
 13
183
 23
65
 0
LINE
 8
0
 10
183
 20
100
 11
183
 21
100
 0
POLYLINE
 8
0
 66
1
 10
0
 20
0
 70
0
 0
VERTEX
 8
0
 10
183
 20
65
 0
VERTEX
 8
0
 10
183
 20
63
 0
VERTEX
 8
0
 10
188.3
 20
63 
 0
SEQEND
 8
0
 0
LINE
 8
0
 10
183
 20
100
 11
183
 21
65
 0
TEXT
 8
0
 10
185.65
 20
61.125
 40
2.5
 1
35
 11
185.65
 21
61.125
 72
1
 73
2
 0
ENDBLK
 0
BLOCK
 2
*D61
 70
1
 10
0
 20
0
 0
LINE
 8
0
 10
130
 20
75.625
 11
130
 21
79.25
 0
LINE
 8
0
 10
145
 20
75.625
 11
145
 21
79.25
 0
SOLID
 8
0
 10
132.5
 20
77.583333
 11
132.5
 21
78.416667
 12
130
 22
78
 13
130
 23
78
 0
SOLID
 8
0
 10
142.5
 20
78.416667
 11
142.5
 21
77.583333
 12
145
 22
78
 13
145
 23
78
 0
LINE
 8
0
 10
130
 20
78
 11
130
 21
78
 0
LINE
 8
0
 10
145
 20
78
 11
145
 21
78
 0
LINE
 8
0
 10
130
 20
78
 11
135.0875
 21
78
 0
LINE
 8
0
 10
139.9125
 20
78
 11
145
 21
78
 0
TEXT
 8
0
 10
137.5
 20
78
 40
2.5
 1
15
 11
137.5
 21
78
 72
1
 73
2
 0
ENDBLK
 0
BLOCK
 2
*D62
 70
1
 10
0
 20
0
 0
LINE
 8
0
 10
149.720492
 20
114.440983
 11
146.040983
 21
107.081966
 0
LINE
 8
0
 10
179.720492
 20
99.440983
 11
176.040983
 21
92.081966
 0
SOLID
 8
0
 10
148.649729
 20
106.709288
 11
149.022407
 21
107.454644
 12
146.6
 22
108.2
 13
146.6
 23
108.2
 0
SOLID
 8
0
 10
174.550271
 20
94.690712
 11
174.177593
 21
93.945356
 12
176.6
 22
93.2
 13
176.6
 23
93.2
 0
POLYLINE
 8
0
 66
1
 10
0
 20
0
 70
0
 0
VERTEX
 8
0
 10
146.6
 20
108.2
 0
VERTEX
 8
0
 10
142.127864
 20
110.436068
 0
VERTEX
 8
0
 10
130.752864
 20
110.436068 
 0
SEQEND
 8
0
 0
LINE
 8
0
 10
176.6
 20
93.2
 11
176.6
 21
93.2
 0
LINE
 8
0
 10
146.6
 20
108.2
 11
176.6
 21
93.2
 0
TEXT
 8
0
 10
136.440364
 20
108.561068
 40
2.5
 1
33.54
 11
136.440364
 21
108.561068
 72
1
 73
2
 0
ENDBLK
 0
BLOCK
 2
*D63
 70
1
 10
0
 20
0
 0
LINE
 8
0
 10
150.279508
 20
115.559017
 11
152.559017
 21
120.118034
 0
LINE
 8
0
 10
180.279508
 20
100.559017
 11
182.559017
 21
105.118034
 0
SOLID
 8
0
 10
154.049729
 20
117.509288
 11
154.422407
 21
118.254644
 12
152
 22
119
 13
152
 23
119
 0
SOLID
 8
0
 10
179.950271
 20
105.490712
 11
179.577593
 21
104.745356
 12
182
 22
104
 13
182
 23
104
 0
LINE
 8
0
 10
152
 20
119
 11
152
 21
119
 0
LINE
 8
0
 10
182
 20
104
 11
182
 21
104
 0
LINE
 8
0
 10
152
 20
119
 11
163.25
 21
113.375
 0
LINE
 8
0
 10
170.75
 20
109.625
 11
182
 21
104
 0
TEXT
 8
0
 10
167
 20
111.5
 40
2.5
 1
33.54
 11
167
 21
111.5
 72
1
 73
2
 0
ENDBLK
 0
BLOCK
 2
*D64
 70
1
 10
0
 20
0
 0
LINE
 8
0
 10
150
 20
90.625
 11
150
 21
99.25
 0
LINE
 8
0
 10
155
 20
90.625
 11
155
 21
99.25
 0
SOLID
 8
0
 10
147.5
 20
98.416667
 11
147.5
 21
97.583333
 12
150
 22
98
 13
150
 23
98
 0
SOLID
 8
0
 10
157.5
 20
97.583333
 11
157.5
 21
98.416667
 12
155
 22
98
 13
155
 23
98
 0
LINE
 8
0
 10
150
 20
98
 11
146.25
 21
98
 0
LINE
 8
0
 10
155
 20
98
 11
158.75
 21
98
 0
LINE
 8
0
 10
150
 20
98
 11
151.0375
 21
98
 0
LINE
 8
0
 10
153.9625
 20
98
 11
155
 21
98
 0
TEXT
 8
0
 10
152.5
 20
98
 40
2.5
 1
5
 11
152.5
 21
98
 72
1
 73
2
 0
ENDBLK
 0
BLOCK
 2
*D65
 70
1
 10
0
 20
0
 0
LINE
 8
0
 10
150
 20
89.375
 11
150
 21
80.75
 0
LINE
 8
0
 10
152
 20
89.375
 11
152
 21
80.75
 0
SOLID
 8
0
 10
147.5
 20
82.416667
 11
147.5
 21
81.583333
 12
150
 22
82
 13
150
 23
82
 0
SOLID
 8
0
 10
154.5
 20
81.583333
 11
154.5
 21
82.416667
 12
152
 22
82
 13
152
 23
82
 0
POLYLINE
 8
0
 66
1
 10
0
 20
0
 70
0
 0
VERTEX
 8
0
 10
150
 20
82
 0
VERTEX
 8
0
 10
147.5
 20
82
 0
VERTEX
 8
0
 10
144.575
 20
82 
 0
SEQEND
 8
0
 0
LINE
 8
0
 10
152
 20
82
 11
155.75
 21
82
 0
LINE
 8
0
 10
150
 20
82
 11
152
 21
82
 0
TEXT
 8
0
 10
146.0375
 20
80.125
 40
2.5
 1
2
 11
146.0375
 21
80.125
 72
1
 73
2
 0
ENDBLK
 0
BLOCK
 2
*D66
 70
1
 10
0
 20
0
 0
LINE
 8
0
 10
160
 20
89.375
 11
160
 21
80.75
 0
LINE
 8
0
 10
158.75
 20
89.375
 11
158.75
 21
80.75
 0
SOLID
 8
0
 10
162.5
 20
81.583333
 11
162.5
 21
82.416667
 12
160
 22
82
 13
160
 23
82
 0
SOLID
 8
0
 10
156.25
 20
82.416667
 11
156.25
 21
81.583333
 12
158.75
 22
82
 13
158.75
 23
82
 0
POLYLINE
 8
0
 66
1
 10
0
 20
0
 70
0
 0
VERTEX
 8
0
 10
160
 20
82
 0
VERTEX
 8
0
 10
162.5
 20
82
 0
VERTEX
 8
0
 10
170.9
 20
82 
 0
SEQEND
 8
0
 0
LINE
 8
0
 10
158.75
 20
82
 11
155
 21
82
 0
LINE
 8
0
 10
160
 20
82
 11
158.75
 21
82
 0
TEXT
 8
0
 10
166.7
 20
80.125
 40
2.5
 1
1.25
 11
166.7
 21
80.125
 72
1
 73
2
 0
ENDBLK
 0
BLOCK
 2
*D67
 70
1
 10
0
 20
0
 0
LINE
 8
0
 10
145
 20
65.625
 11
145
 21
70.25
 0
LINE
 8
0
 10
180
 20
65.625
 11
180
 21
70.25
 0
SOLID
 8
0
 10
147.5
 20
68.583333
 11
147.5
 21
69.416667
 12
145
 22
69
 13
145
 23
69
 0
SOLID
 8
0
 10
177.5
 20
69.416667
 11
177.5
 21
68.583333
 12
180
 22
69
 13
180
 23
69
 0
LINE
 8
0
 10
145
 20
69
 11
145
 21
69
 0
LINE
 8
0
 10
180
 20
69
 11
180
 21
69
 0
LINE
 8
0
 10
145
 20
69
 11
159.85
 21
69
 0
LINE
 8
0
 10
165.15
 20
69
 11
180
 21
69
 0
TEXT
 8
0
 10
162.5
 20
69
 40
2.5
 1
35
 11
162.5
 21
69
 72
1
 73
2
 0
ENDBLK
 0
BLOCK
 2
*D68
 70
1
 10
0
 20
0
 0
LINE
 8
0
 10
129.653312
 20
74.479969
 11
127.460471
 21
71.190706
 0
LINE
 8
0
 10
144.653312
 20
64.479969
 11
142.460471
 21
61.190706
 0
SOLID
 8
0
 10
130.002847
 20
70.497331
 11
130.465097
 21
71.190706
 12
128.153846
 22
72.230769
 13
128.153846
 23
72.230769
 0
SOLID
 8
0
 10
141.304845
 20
63.964207
 11
140.842595
 21
63.270832
 12
143.153846
 22
62.230769
 13
143.153846
 23
62.230769
 0
LINE
 8
0
 10
128.153846
 20
72.230769
 11
128.153846
 21
72.230769
 0
POLYLINE
 8
0
 66
1
 10
0
 20
0
 70
0
 0
VERTEX
 8
0
 10
143.153846
 20
62.230769
 0
VERTEX
 8
0
 10
145
 20
61
 0
VERTEX
 8
0
 10
155.775
 20
61 
 0
SEQEND
 8
0
 0
LINE
 8
0
 10
128.153846
 20
72.230769
 11
143.153846
 21
62.230769
 0
TEXT
 8
0
 10
150.3875
 20
59.125
 40
2.5
 1
18.03
 11
150.3875
 21
59.125
 72
1
 73
2
 0
ENDBLK
 0
ENDSEC
 0
SECTION
 2
ENTITIES
 0
POLYLINE
 8
0
 66
1
 10
0
 20
0
 70
1
 0
VERTEX
 8
0
 10
15
 20
0
 0
VERTEX
 8
0
 10
50
 20
0
 0
VERTEX
 8
0
 10
50
 20
35
 0
VERTEX
 8
0
 10
20
 20
50
 0
VERTEX
 8
0
 10
0
 20
50
 0
VERTEX
 8
0
 10
0
 20
10
 0
VERTEX
 8
0
 10
15
 20
10
 0
SEQEND
 8
0
 0
CIRCLE
 8
0
 10
25
 20
25
 40
5
 0
POLYLINE
 8
0
 66
1
 10
0
 20
0
 70
1
 0
VERTEX
 8
0
 10
80
 20
0
 0
VERTEX
 8
0
 10
115
 20
0
 0
VERTEX
 8
0
 10
115
 20
35
 0
VERTEX
 8
0
 10
85
 20
50
 0
VERTEX
 8
0
 10
65
 20
50
 0
VERTEX
 8
0
 10
65
 20
10
 0
VERTEX
 8
0
 10
80
 20
10
 0
SEQEND
 8
0
 0
CIRCLE
 8
0
 10
90
 20
25
 40
5
 0
POLYLINE
 8
0
 66
1
 10
0
 20
0
 70
1
 0
VERTEX
 8
0
 10
145
 20
0
 0
VERTEX
 8
0
 10
180
 20
0
 0
VERTEX
 8
0
 10
180
 20
35
 0
VERTEX
 8
0
 10
150
 20
50
 0
VERTEX
 8
0
 10
130
 20
50
 0
VERTEX
 8
0
 10
130
 20
10
 0
VERTEX
 8
0
 10
145
 20
10
 0
SEQEND
 8
0
 0
CIRCLE
 8
0
 10
155
 20
25
 40
5
 0
POLYLINE
 8
0
 66
1
 10
0
 20
0
 70
1
 0
VERTEX
 8
0
 10
-20
 20
-20
 0
VERTEX
 8
0
 10
200
 20
-20
 0
VERTEX
 8
0
 10
200
 20
130
 0
VERTEX
 8
0
 10
-20
 20
130
 0
SEQEND
 8
0
 0
POLYLINE
 8
0
 66
1
 10
0
 20
0
 70
1
 0
VERTEX
 8
0
 10
15
 20
65
 0
VERTEX
 8
0
 10
50
 20
65
 0
VERTEX
 8
0
 10
50
 20
100
 0
VERTEX
 8
0
 10
20
 20
115
 0
VERTEX
 8
0
 10
0
 20
115
 0
VERTEX
 8
0
 10
0
 20
75
 0
VERTEX
 8
0
 10
15
 20
75
 0
SEQEND
 8
0
 0
CIRCLE
 8
0
 10
25
 20
90
 40
5
 0
POLYLINE
 8
0
 66
1
 10
0
 20
0
 70
1
 0
VERTEX
 8
0
 10
80
 20
65
 0
VERTEX
 8
0
 10
115
 20
65
 0
VERTEX
 8
0
 10
115
 20
100
 0
VERTEX
 8
0
 10
85
 20
115
 0
VERTEX
 8
0
 10
65
 20
115
 0
VERTEX
 8
0
 10
65
 20
75
 0
VERTEX
 8
0
 10
80
 20
75
 0
SEQEND
 8
0
 0
CIRCLE
 8
0
 10
90
 20
90
 40
5
 0
POLYLINE
 8
0
 66
1
 10
0
 20
0
 70
1
 0
VERTEX
 8
0
 10
145
 20
65
 0
VERTEX
 8
0
 10
180
 20
65
 0
VERTEX
 8
0
 10
180
 20
100
 0
VERTEX
 8
0
 10
150
 20
115
 0
VERTEX
 8
0
 10
130
 20
115
 0
VERTEX
 8
0
 10
130
 20
75
 0
VERTEX
 8
0
 10
145
 20
75
 0
SEQEND
 8
0
 0
CIRCLE
 8
0
 10
155
 20
90
 40
5
 0
DIMENSION
 8
0
 70
1
 2
*D1
 3
BREAK
 1
<>
 13
0
 23
50
 14
20
 24
50
 10
9
 20
54
 11
10
 21
54
 0
DIMENSION
 8
0
 70
1
 2
*D2
 3
BREAK
 1
<>
 13
20
 23
50
 14
50
 24
35
 10
47
 20
41
 11
36.8
 21
46.099999999999994
 0
DIMENSION
 8
0
 70
1
 2
*D3
 3
BREAK
 1
<>
 13
50
 23
0
 14
50
 24
35
 10
54
 20
16
 11
54
 21
17.5
 0
DIMENSION
 8
0
 70
1
 2
*D4
 3
BREAK
 1
<>
 13
15
 23
0
 14
50
 24
0
 10
39
 20
-4
 11
32.5
 21
-4
 0
DIMENSION
 8
0
 70
1
 2
*D5
 3
BREAK
 1
<>
 13
15
 23
0
 14
15
 24
10
 10
19
 20
11
 11
19
 21
14.912499904632568
 0
DIMENSION
 8
0
 70
1
 2
*D6
 3
BREAK
 1
<>
 13
15
 23
10
 14
0
 24
10
 10
-1
 20
14
 11
-4.912499904632568
 21
14
 0
DIMENSION
 8
0
 70
1
 2
*D7
 3
BREAK
 1
<>
 13
8
 23
10
 14
8
 24
50
 10
8
 20
30
 11
8
 21
30
 0
DIMENSION
 8
0
 70
1
 2
*D8
 3
BREAK
 1
<>
 13
20
 23
25
 14
30
 24
25
 10
41
 20
32
 11
43.41249990463257
 21
32
 0
DIMENSION
 8
0
 70
1
 2
*D9
 3
BREAK
 1
<>
 13
25
 23
20
 14
25
 24
25
 10
15
 20
22
 11
15
 21
22.5
 0
DIMENSION
 8
0
 70
1
 2
*D10
 3
BREAK
 1
<>
 13
25
 23
20
 14
25
 24
25.67
 10
35
 20
22
 11
35
 21
11.812499999999996
 0
DIMENSION
 8
0
 70
1
 2
*D11
 3
BREAK
 1
<>
 13
15
 23
0
 14
0
 24
10
 10
0
 20
3
 11
4.26923076923077
 21
0.1538461538461542
 0
DIMENSION
 8
0
 70
1
 2
*D12
 3
ABOVE
 1
<>
 13
65
 23
50
 14
85
 24
50
 10
74
 20
54
 11
75
 21
55.875
 0
DIMENSION
 8
0
 70
1
 2
*D13
 3
ABOVE
 1
<>
 13
85
 23
50
 14
115
 24
35
 10
112
 20
41
 11
102.6385254915624
 21
47.77705098312484
 0
DIMENSION
 8
0
 70
1
 2
*D14
 3
ABOVE
 1
<>
 13
115
 23
0
 14
115
 24
35
 10
119
 20
16
 11
117.125
 21
17.5
 0
DIMENSION
 8
0
 70
1
 2
*D15
 3
ABOVE
 1
<>
 13
80
 23
0
 14
115
 24
0
 10
104
 20
-4
 11
97.5
 21
-2.125
 0
DIMENSION
 8
0
 70
1
 2
*D16
 3
ABOVE
 1
<>
 13
80
 23
0
 14
80
 24
10
 10
84
 20
11
 11
82.125
 21
13.037499904632568
 0
DIMENSION
 8
0
 70
1
 2
*D17
 3
ABOVE
 1
<>
 13
80
 23
10
 14
65
 24
10
 10
64
 20
14
 11
61.96250009536743
 21
15.875000000000002
 0
DIMENSION
 8
0
 70
1
 2
*D18
 3
ABOVE
 1
<>
 13
73
 23
10
 14
73
 24
50
 10
73
 20
30
 11
71.125
 21
30
 0
DIMENSION
 8
0
 70
1
 2
*D19
 3
ABOVE
 1
<>
 13
85
 23
25
 14
95
 24
25
 10
106
 20
32
 11
103.58750009536743
 21
33.875
 0
DIMENSION
 8
0
 70
1
 2
*D20
 3
ABOVE
 1
<>
 13
90
 23
20
 14
90
 24
25
 10
80
 20
22
 11
78.125
 21
22.500000000000004
 0
DIMENSION
 8
0
 70
1
 2
*D21
 3
ABOVE
 1
<>
 13
90
 23
20
 14
90
 24
25.67
 10
100
 20
22
 11
98.125
 21
12.4375
 0
DIMENSION
 8
0
 70
1
 2
*D22
 3
ABOVE
 1
<>
 13
80
 23
0
 14
65
 24
10
 10
65
 20
3
 11
70.30929363715308
 21
1.713940455729609
 0
DIMENSION
 8
0
 70
1
 2
*D23
 3
BELOW
 1
<>
 13
130
 23
50
 14
150
 24
50
 10
139
 20
54
 11
140
 21
52.125
 0
DIMENSION
 8
0
 70
1
 2
*D24
 3
BELOW
 1
<>
 13
150
 23
50
 14
180
 24
35
 10
177
 20
41
 11
165.9614745084376
 21
44.42294901687515
 0
DIMENSION
 8
0
 70
1
 2
*D25
 3
BELOW
 1
<>
 13
180
 23
0
 14
180
 24
35
 10
184
 20
16
 11
185.875
 21
17.5
 0
DIMENSION
 8
0
 70
1
 2
*D26
 3
BELOW
 1
<>
 13
145
 23
0
 14
180
 24
0
 10
169
 20
-4
 11
162.5
 21
-5.875
 0
DIMENSION
 8
0
 70
1
 2
*D27
 3
BELOW
 1
<>
 13
145
 23
0
 14
145
 24
10
 10
149
 20
11
 11
150.875
 21
13.037499904632568
 0
DIMENSION
 8
0
 70
1
 2
*D28
 3
BELOW
 1
<>
 13
145
 23
10
 14
130
 24
10
 10
129
 20
14
 11
126.96250009536743
 21
12.125000000000002
 0
DIMENSION
 8
0
 70
1
 2
*D29
 3
BELOW
 1
<>
 13
138
 23
10
 14
138
 24
50
 10
138
 20
30
 11
139.875
 21
30
 0
DIMENSION
 8
0
 70
1
 2
*D30
 3
BELOW
 1
<>
 13
150
 23
25
 14
160
 24
25
 10
171
 20
32
 11
168.58750009536743
 21
30.125
 0
DIMENSION
 8
0
 70
1
 2
*D31
 3
BELOW
 1
<>
 13
155
 23
20
 14
155
 24
25
 10
145
 20
22
 11
146.875
 21
22.500000000000004
 0
DIMENSION
 8
0
 70
1
 2
*D32
 3
BELOW
 1
<>
 13
155
 23
20
 14
155
 24
25.67
 10
165
 20
22
 11
166.875
 21
12.4375
 0
DIMENSION
 8
0
 70
1
 2
*D33
 3
BELOW
 1
<>
 13
145
 23
0
 14
130
 24
10
 10
130
 20
3
 11
133.22916790130847
 21
-1.4062481480373112
 0
DIMENSION
 8
0
 70
1
 2
*D34
 3
HORZ-BREAK
 1
<>
 13
0
 23
115
 14
20
 24
115
 10
9
 20
119
 11
10
 21
119
 0
DIMENSION
 8
0
 70
1
 2
*D35
 3
HORZ-BREAK
 1
<>
 13
20
 23
115
 14
50
 24
100
 10
47
 20
106
 11
36.8
 21
111.1
 0
DIMENSION
 8
0
 70
1
 2
*D36
 3
HORZ-BREAK
 1
<>
 13
50
 23
65
 14
50
 24
100
 10
54
 20
81
 11
54
 21
82.5
 0
DIMENSION
 8
0
 70
1
 2
*D37
 3
HORZ-BREAK
 1
<>
 13
15
 23
65
 14
50
 24
65
 10
39
 20
61
 11
32.5
 21
61
 0
DIMENSION
 8
0
 70
1
 2
*D38
 3
HORZ-BREAK
 1
<>
 13
15
 23
65
 14
15
 24
75
 10
19
 20
76
 11
22.66249990463257
 21
77.5
 0
DIMENSION
 8
0
 70
1
 2
*D39
 3
HORZ-BREAK
 1
<>
 13
15
 23
75
 14
0
 24
75
 10
-1
 20
79
 11
-4.912499904632568
 21
79
 0
DIMENSION
 8
0
 70
1
 2
*D40
 3
HORZ-BREAK
 1
<>
 13
8
 23
75
 14
8
 24
115
 10
8
 20
95
 11
7.999999999999999
 21
95
 0
DIMENSION
 8
0
 70
1
 2
*D41
 3
HORZ-BREAK
 1
<>
 13
20
 23
90
 14
30
 24
90
 10
41
 20
97
 11
44.66249990463257
 21
97
 0
DIMENSION
 8
0
 70
1
 2
*D42
 3
HORZ-BREAK
 1
<>
 13
25
 23
85
 14
25
 24
90
 10
15
 20
87
 11
15
 21
87.5
 0
DIMENSION
 8
0
 70
1
 2
*D43
 3
HORZ-BREAK
 1
<>
 13
25
 23
85
 14
25
 24
90.67
 10
35
 20
87
 11
35
 21
87.83500000000001
 0
DIMENSION
 8
0
 70
1
 2
*D44
 3
HORZ-BREAK
 1
<>
 13
15
 23
65
 14
0
 24
75
 10
0
 20
68
 11
4.26923076923077
 21
65.15384615384616
 0
DIMENSION
 8
0
 70
1
 2
*D45
 3
HORZ-ABOVE
 1
<>
 13
65
 23
115
 14
85
 24
115
 10
64
 20
119
 11
61.34999990463257
 21
120.875
 0
DIMENSION
 8
0
 70
1
 2
*D46
 3
HORZ-ABOVE
 1
<>
 13
65
 23
115
 14
85
 24
115
 10
86
 20
123
 11
88.65000009536743
 21
124.875
 0
DIMENSION
 8
0
 70
1
 2
*D47
 3
HORZ-ABOVE
 1
<>
 13
115
 23
100
 14
115
 24
65
 10
112
 20
70
 11
112
 21
82.5
 0
DIMENSION
 8
0
 70
1
 2
*D48
 3
HORZ-ABOVE
 1
<>
 13
115
 23
100
 14
115
 24
65
 10
118
 20
63
 11
120.65000009536743
 21
61.875000000000014
 0
DIMENSION
 8
0
 70
1
 2
*D49
 3
HORZ-ABOVE
 1
<>
 13
65
 23
75
 14
80
 24
75
 10
74
 20
78
 11
72.5
 21
78
 0
DIMENSION
 8
0
 70
1
 2
*D50
 3
HORZ-ABOVE
 1
<>
 13
85
 23
115
 14
115
 24
100
 10
80
 20
109
 11
74.31250000000001
 21
110.87500000000001
 0
DIMENSION
 8
0
 70
1
 2
*D51
 3
HORZ-ABOVE
 1
<>
 13
85
 23
115
 14
115
 24
100
 10
115
 20
105
 11
102
 21
111.5
 0
DIMENSION
 8
0
 70
1
 2
*D52
 3
HORZ-ABOVE
 1
<>
 13
85
 23
90
 14
90
 24
90
 10
86
 20
98
 11
87.5
 21
98
 0
DIMENSION
 8
0
 70
1
 2
*D53
 3
HORZ-ABOVE
 1
<>
 13
85
 23
90
 14
87
 24
90
 10
85.9
 20
82
 11
81.03750002384186
 21
83.875
 0
DIMENSION
 8
0
 70
1
 2
*D54
 3
HORZ-ABOVE
 1
<>
 13
95
 23
90
 14
93.75
 24
90
 10
94.9
 20
82
 11
101.69999980926514
 21
83.875
 0
DIMENSION
 8
0
 70
1
 2
*D55
 3
HORZ-ABOVE
 1
<>
 13
80
 23
65
 14
115
 24
65
 10
100
 20
69
 11
97.5
 21
69
 0
DIMENSION
 8
0
 70
1
 2
*D56
 3
HORZ-ABOVE
 1
<>
 13
65
 23
75
 14
80
 24
65
 10
80
 20
61
 11
87.70159743480052
 21
61.332268249643064
 0
DIMENSION
 8
0
 70
1
 2
*D57
 3
HORZ-BELOW
 1
<>
 13
130
 23
115
 14
150
 24
115
 10
129
 20
119
 11
126.34999990463257
 21
117.125
 0
DIMENSION
 8
0
 70
1
 2
*D58
 3
HORZ-BELOW
 1
<>
 13
130
 23
115
 14
150
 24
115
 10
151
 20
123
 11
153.65000009536743
 21
121.125
 0
DIMENSION
 8
0
 70
1
 2
*D59
 3
HORZ-BELOW
 1
<>
 13
180
 23
100
 14
180
 24
65
 10
177
 20
70
 11
177
 21
82.5
 0
DIMENSION
 8
0
 70
1
 2
*D60
 3
HORZ-BELOW
 1
<>
 13
180
 23
100
 14
180
 24
65
 10
183
 20
63
 11
185.65000009536743
 21
61.125
 0
DIMENSION
 8
0
 70
1
 2
*D61
 3
HORZ-BELOW
 1
<>
 13
130
 23
75
 14
145
 24
75
 10
139
 20
78
 11
137.5
 21
78
 0
DIMENSION
 8
0
 70
1
 2
*D62
 3
HORZ-BELOW
 1
<>
 13
150
 23
115
 14
180
 24
100
 10
145
 20
109
 11
136.44036404500045
 21
108.5610679774998
 0
DIMENSION
 8
0
 70
1
 2
*D63
 3
HORZ-BELOW
 1
<>
 13
150
 23
115
 14
180
 24
100
 10
180
 20
105
 11
167
 21
111.49999999999997
 0
DIMENSION
 8
0
 70
1
 2
*D64
 3
HORZ-BELOW
 1
<>
 13
150
 23
90
 14
155
 24
90
 10
151
 20
98
 11
152.5
 21
98
 0
DIMENSION
 8
0
 70
1
 2
*D65
 3
HORZ-BELOW
 1
<>
 13
150
 23
90
 14
152
 24
90
 10
150.9
 20
82
 11
146.03750002384186
 21
80.125
 0
DIMENSION
 8
0
 70
1
 2
*D66
 3
HORZ-BELOW
 1
<>
 13
160
 23
90
 14
158.75
 24
90
 10
159.9
 20
82
 11
166.69999980926514
 21
80.125
 0
DIMENSION
 8
0
 70
1
 2
*D67
 3
HORZ-BELOW
 1
<>
 13
145
 23
65
 14
180
 24
65
 10
165
 20
69
 11
162.5
 21
69
 0
DIMENSION
 8
0
 70
1
 2
*D68
 3
HORZ-BELOW
 1
<>
 13
130
 23
75
 14
145
 24
65
 10
145
 20
61
 11
150.38749980926514
 21
59.12499999999998
 0
ENDSEC
 0
EOF
