 0
SECTION
 2
HEADER
 9
$ACADVER
 1
AC1009
 9
$EXTMIN
 10
10
 20
5
 30
0
 9
$EXTMAX
 10
130
 20
87
 30
0
 9
$VIEWCTR
 10
70
 20
46
 9
$VIEWSIZE
 40
90.2
 9
$CLAYER
 8
DIMENSION
 9
$DIMSTYLE
 2
HORZ-BELOW
 0
ENDSEC
 0
SECTION
 2
TABLES
 0
TABLE
 2
LAYER
 70
2
 0
LAYER
 2
0
 70
0
 62
7
 6
CONTINUOUS
 0
LAYER
 2
DIMENSION
 70
0
 62
7
 6
CONTINUOUS
 0
ENDTAB
 0
TABLE
 2
STYLE
 70
1
 0
STYLE
 2
STANDARD
 70
0
 40
0
 41
1
 50
0
 71
0
 42
1
 3
SIMPLEX
 4

 0
ENDTAB
 0
TABLE
 2
DIMSTYLE
 70
6
 0
DIMSTYLE
 2
BREAK
 70
0
 3

 4

 5

 6

 7

 40
1
 41
2.5
 42
0.625
 43
3.75
 44
1.25
 45
0
 46
0
 47
0
 48
0
 140
2.5
 141
2.5
 142
0
 143
25.4
 144
1
 145
0
 146
1
 147
0.625
 71
0
 72
0
 73
0
 74
0
 75
0
 76
0
 77
0
 78
0
 170
0
 171
2
 172
1
 173
0
 174
0
 175
0
 176
0
 177
0
 178
0
 0
DIMSTYLE
 2
ABOVE
 70
0
 3

 4

 5

 6

 7

 40
1
 41
2.5
 42
0.625
 43
3.75
 44
1.25
 45
0
 46
0
 47
0
 48
0
 140
2.5
 141
2.5
 142
0
 143
25.4
 144
1
 145
0
 146
1
 147
0.625
 71
0
 72
0
 73
0
 74
0
 75
0
 76
0
 77
1
 78
0
 170
0
 171
2
 172
1
 173
0
 174
0
 175
0
 176
0
 177
0
 178
0
 0
DIMSTYLE
 2
BELOW
 70
0
 3

 4

 5

 6

 7

 40
1
 41
2.5
 42
0.625
 43
3.75
 44
1.25
 45
0
 46
0
 47
0
 48
0
 140
2.5
 141
2.5
 142
0
 143
25.4
 144
1
 145
0
 146
1
 147
0.625
 71
0
 72
0
 73
0
 74
0
 75
0
 76
0
 77
4
 78
0
 170
0
 171
2
 172
1
 173
0
 174
0
 175
0
 176
0
 177
0
 178
0
 0
DIMSTYLE
 2
HORZ-BREAK
 70
0
 3

 4

 5

 6

 7

 40
1
 41
2.5
 42
0.625
 43
3.75
 44
1.25
 45
0
 46
0
 47
0
 48
0
 140
2.5
 141
2.5
 142
0
 143
25.4
 144
1
 145
0
 146
1
 147
0.625
 71
0
 72
0
 73
1
 74
1
 75
0
 76
0
 77
0
 78
0
 170
0
 171
2
 172
1
 173
0
 174
0
 175
0
 176
0
 177
0
 178
0
 0
DIMSTYLE
 2
HORZ-ABOVE
 70
0
 3

 4

 5

 6

 7

 40
1
 41
2.5
 42
0.625
 43
3.75
 44
1.25
 45
0
 46
0
 47
0
 48
0
 140
2.5
 141
2.5
 142
0
 143
25.4
 144
1
 145
0
 146
1
 147
0.625
 71
0
 72
0
 73
1
 74
1
 75
0
 76
0
 77
1
 78
0
 170
0
 171
2
 172
1
 173
0
 174
0
 175
0
 176
0
 177
0
 178
0
 0
DIMSTYLE
 2
HORZ-BELOW
 70
0
 3

 4

 5

 6

 7

 40
1
 41
2.5
 42
0.625
 43
3.75
 44
1.25
 45
0
 46
0
 47
0
 48
0
 140
2.5
 141
2.5
 142
0
 143
25.4
 144
1
 145
0
 146
1
 147
0.625
 71
0
 72
0
 73
1
 74
1
 75
0
 76
0
 77
4
 78
0
 170
0
 171
2
 172
1
 173
0
 174
0
 175
0
 176
0
 177
0
 178
0
 0
ENDTAB
 0
ENDSEC
 0
SECTION
 2
BLOCKS
 0
BLOCK
 2
*D1
 70
1
 10
0
 20
0
 0
LINE
 8
DIMENSION
 10
28.375
 20
20
 11
24.832763
 21
20
 0
LINE
 8
DIMENSION
 10
25.922019
 20
25.922019
 11
23.417279
 21
23.417279
 0
SOLID
 8
DIMENSION
 10
25.666096
 20
17.5
 11
26.499429
 21
17.5
 12
26.082763
 22
20
 13
26.082763
 23
20
 0
SOLID
 8
DIMENSION
 10
22.828024
 20
26.363557
 11
22.238768
 21
25.774302
 12
24.301163
 22
24.301163
 13
24.301163
 23
24.301163
 0
LINE
 8
DIMENSION
 10
26.082763
 20
20
 11
26.082763
 21
16.25
 0
LINE
 8
DIMENSION
 10
24.301163
 20
24.301163
 11
21.649512
 21
26.952813
 0
ARC
 8
DIMENSION
 10
20
 20
20
 40
6.082763
 50
0
 51
45
 0
TEXT
 8
DIMENSION
 10
26.082763
 20
13.0125
 40
2.5
 1
45%%d
 11
26.082763
 21
13.0125
 50
90
 72
1
 73
2
 0
ENDBLK
 0
BLOCK
 2
*D2
 70
1
 10
0
 20
0
 0
SOLID
 8
DIMENSION
 10
29.432191
 20
17.5
 11
30.265524
 21
17.5
 12
29.848858
 22
20
 13
29.848858
 23
20
 0
SOLID
 8
DIMENSION
 10
25.491055
 20
29.026589
 11
24.901799
 21
28.437333
 12
26.964194
 22
26.964194
 13
26.964194
 23
26.964194
 0
LINE
 8
DIMENSION
 10
29.848858
 20
20
 11
29.848858
 21
16.25
 0
LINE
 8
DIMENSION
 10
26.964194
 20
26.964194
 11
24.312544
 21
29.615845
 0
ARC
 8
DIMENSION
 10
20
 20
20
 40
9.848858
 50
0
 51
3.308999
 0
ARC
 8
DIMENSION
 10
20
 20
20
 40
9.848858
 50
41.691001
 51
45
 0
TEXT
 8
DIMENSION
 10
29.099158
 20
23.768995
 40
2.5
 1
45%%d
 11
29.099158
 21
23.768995
 50
-67.5
 72
1
 73
2
 0
ENDBLK
 0
BLOCK
 2
*D3
 70
1
 10
0
 20
0
 0
SOLID
 8
DIMENSION
 10
33.636548
 20
22.527875
 11
32.806809
 21
22.450559
 12
33.453624
 22
20
 13
33.453624
 23
20
 0
SOLID
 8
DIMENSION
 10
30.788589
 20
27.322974
 11
31.429973
 21
27.855018
 12
29.513149
 22
29.513149
 13
29.513149
 23
29.513149
 0
LINE
 8
DIMENSION
 10
33.453624
 20
20
 11
33.453624
 21
20
 0
LINE
 8
DIMENSION
 10
29.513149
 20
29.513149
 11
27.745382
 21
31.280916
 0
ARC
 8
DIMENSION
 10
20
 20
20
 40
13.453624
 50
0
 51
45
 0
TEXT
 8
DIMENSION
 10
25.456124
 20
33.570174
 40
2.5
 1
45%%d
 11
25.456124
 21
33.570174
 50
315
 72
1
 73
2
 0
ENDBLK
 0
BLOCK
 2
*D4
 70
1
 10
0
 20
0
 0
SOLID
 8
DIMENSION
 10
37.497383
 20
22.523593
 11
36.666233
 21
22.463304
 12
37.262677
 22
20
 13
37.262677
 23
20
 0
SOLID
 8
DIMENSION
 10
33.526626
 20
30.042988
 11
34.156968
 21
30.588068
 12
32.206556
 22
32.206556
 13
32.206556
 23
32.206556
 0
LINE
 8
DIMENSION
 10
37.262677
 20
20
 11
37.262677
 21
17.5
 0
LINE
 8
DIMENSION
 10
32.206556
 20
32.206556
 11
32.206556
 21
32.206556
 0
ARC
 8
DIMENSION
 10
20
 20
20
 40
17.262677
 50
0
 51
45
 0
TEXT
 8
DIMENSION
 10
37.262677
 20
14.2625
 40
2.5
 1
45%%d
 11
37.262677
 21
14.2625
 50
90
 72
1
 73
2
 0
ENDBLK
 0
BLOCK
 2
*D5
 70
1
 10
0
 20
0
 0
SOLID
 8
DIMENSION
 10
42.205292
 20
22.519676
 11
41.373312
 21
22.472205
 12
41.931712
 22
20
 13
41.931712
 23
20
 0
SOLID
 8
DIMENSION
 10
36.861327
 20
33.3651
 11
37.483192
 21
33.919833
 12
35.508062
 22
35.508062
 13
35.508062
 23
35.508062
 0
LINE
 8
DIMENSION
 10
41.931712
 20
20
 11
41.931712
 21
20
 0
LINE
 8
DIMENSION
 10
35.508062
 20
35.508062
 11
35.508062
 21
35.508062
 0
ARC
 8
DIMENSION
 10
20
 20
20
 40
21.931712
 50
0
 51
14.01113
 0
ARC
 8
DIMENSION
 10
20
 20
20
 40
21.931712
 50
30.98887
 51
45
 0
TEXT
 8
DIMENSION
 10
40.26226
 20
28.392903
 40
2.5
 1
45%%d
 11
40.26226
 21
28.392903
 50
-67.5
 72
1
 73
2
 0
ENDBLK
 0
BLOCK
 2
*D6
 70
1
 10
0
 20
0
 0
LINE
 8
DIMENSION
 10
45.625
 20
20
 11
49.034888
 21
20
 0
LINE
 8
DIMENSION
 10
38.119611
 20
38.119611
 11
40.530766
 21
40.530766
 0
SOLID
 8
DIMENSION
 10
48.0887
 20
22.516209
 11
47.25621
 21
22.478732
 12
47.784888
 22
20
 13
47.784888
 23
20
 0
SOLID
 8
DIMENSION
 10
41.025779
 20
37.520323
 11
41.640939
 21
38.082481
 12
39.646883
 22
39.646883
 13
39.646883
 23
39.646883
 0
LINE
 8
DIMENSION
 10
47.784888
 20
20
 11
47.784888
 21
20
 0
LINE
 8
DIMENSION
 10
39.646883
 20
39.646883
 11
39.646883
 21
39.646883
 0
ARC
 8
DIMENSION
 10
20
 20
20
 40
27.784888
 50
0
 51
15.808686
 0
ARC
 8
DIMENSION
 10
20
 20
20
 40
27.784888
 50
29.191314
 51
45
 0
TEXT
 8
DIMENSION
 10
45.669889
 20
30.632816
 40
2.5
 1
45%%d
 11
45.669889
 21
30.632816
 50
-67.5
 72
1
 73
2
 0
ENDBLK
 0
BLOCK
 2
*D7
 70
1
 10
0
 20
0
 0
LINE
 8
DIMENSION
 10
63.375
 20
20
 11
59.832763
 21
20
 0
LINE
 8
DIMENSION
 10
60.922019
 20
25.922019
 11
58.417279
 21
23.417279
 0
SOLID
 8
DIMENSION
 10
60.666096
 20
17.5
 11
61.499429
 21
17.5
 12
61.082763
 22
20
 13
61.082763
 23
20
 0
SOLID
 8
DIMENSION
 10
57.828024
 20
26.363557
 11
57.238768
 21
25.774302
 12
59.301163
 22
24.301163
 13
59.301163
 23
24.301163
 0
LINE
 8
DIMENSION
 10
61.082763
 20
20
 11
61.082763
 21
10.4
 0
LINE
 8
DIMENSION
 10
59.301163
 20
24.301163
 11
56.649512
 21
26.952813
 0
ARC
 8
DIMENSION
 10
55
 20
20
 40
6.082763
 50
0
 51
45
 0
TEXT
 8
DIMENSION
 10
59.207763
 20
13.6375
 40
2.5
 1
45%%d
 11
59.207763
 21
13.6375
 50
90
 72
1
 73
2
 0
ENDBLK
 0
BLOCK
 2
*D8
 70
1
 10
0
 20
0
 0
SOLID
 8
DIMENSION
 10
64.432191
 20
17.5
 11
65.265524
 21
17.5
 12
64.848858
 22
20
 13
64.848858
 23
20
 0
SOLID
 8
DIMENSION
 10
60.491055
 20
29.026589
 11
59.901799
 21
28.437333
 12
61.964194
 22
26.964194
 13
61.964194
 23
26.964194
 0
LINE
 8
DIMENSION
 10
64.848858
 20
20
 11
64.848858
 21
16.25
 0
LINE
 8
DIMENSION
 10
61.964194
 20
26.964194
 11
59.312544
 21
29.615845
 0
ARC
 8
DIMENSION
 10
55
 20
20
 40
9.848858
 50
0
 51
45
 0
TEXT
 8
DIMENSION
 10
65.831432
 20
24.486526
 40
2.5
 1
45%%d
 11
65.831432
 21
24.486526
 50
-67.5
 72
1
 73
2
 0
ENDBLK
 0
BLOCK
 2
*D9
 70
1
 10
0
 20
0
 0
SOLID
 8
DIMENSION
 10
70.207128
 20
22.526007
 11
69.376687
 21
22.456642
 12
70
 22
20
 13
70
 23
20
 0
SOLID
 8
DIMENSION
 10
66.902961
 20
28.428744
 11
67.53922
 21
28.966907
 12
65.606602
 22
30.606602
 13
65.606602
 23
30.606602
 0
LINE
 8
DIMENSION
 10
70
 20
20
 11
70
 21
20
 0
LINE
 8
DIMENSION
 10
65.606602
 20
30.606602
 11
60.586144
 21
35.62706
 0
ARC
 8
DIMENSION
 10
55
 20
20
 40
15
 50
0
 51
45
 0
TEXT
 8
DIMENSION
 10
64.201227
 20
34.663627
 40
2.5
 1
45%%d
 11
64.201227
 21
34.663627
 50
315
 72
1
 73
2
 0
ENDBLK
 0
BLOCK
 2
*D10
 70
1
 10
0
 20
0
 0
SOLID
 8
DIMENSION
 10
74.488825
 20
22.521781
 11
73.65725
 21
22.467665
 12
74.235384
 22
20
 13
74.235384
 23
20
 0
SOLID
 8
DIMENSION
 10
69.937571
 20
31.447765
 11
70.563848
 21
31.997512
 12
68.601471
 22
33.601471
 13
68.601471
 23
33.601471
 0
LINE
 8
DIMENSION
 10
74.235384
 20
20
 11
74.235384
 21
12.9
 0
LINE
 8
DIMENSION
 10
68.601471
 20
33.601471
 11
68.601471
 21
33.601471
 0
ARC
 8
DIMENSION
 10
55
 20
20
 40
19.235384
 50
0
 51
45
 0
TEXT
 8
DIMENSION
 10
72.360384
 20
16.1375
 40
2.5
 1
45%%d
 11
72.360384
 21
16.1375
 50
90
 72
1
 73
2
 0
ENDBLK
 0
BLOCK
 2
*D11
 70
1
 10
0
 20
0
 0
SOLID
 8
DIMENSION
 10
79.05441
 20
22.518445
 11
78.222229
 21
22.474642
 12
78.769729
 22
20
 13
78.769729
 23
20
 0
SOLID
 8
DIMENSION
 10
73.170432
 20
34.670759
 11
73.789846
 21
35.228227
 12
71.807736
 22
36.807736
 13
71.807736
 23
36.807736
 0
LINE
 8
DIMENSION
 10
78.769729
 20
20
 11
78.769729
 21
20
 0
LINE
 8
DIMENSION
 10
71.807736
 20
36.807736
 11
71.807736
 21
36.807736
 0
ARC
 8
DIMENSION
 10
55
 20
20
 40
23.769729
 50
0
 51
45
 0
TEXT
 8
DIMENSION
 10
78.69264
 20
29.813813
 40
2.5
 1
45%%d
 11
78.69264
 21
29.813813
 50
-67.5
 72
1
 73
2
 0
ENDBLK
 0
BLOCK
 2
*D12
 70
1
 10
0
 20
0
 0
LINE
 8
DIMENSION
 10
82.625
 20
20
 11
86.614453
 21
20
 0
LINE
 8
DIMENSION
 10
74.533825
 20
39.533825
 11
77.354794
 21
42.354794
 0
SOLID
 8
DIMENSION
 10
85.677879
 20
22.51503
 11
84.845252
 21
22.480734
 12
85.364453
 22
20
 13
85.364453
 23
20
 0
SOLID
 8
DIMENSION
 10
77.857924
 20
39.349636
 11
78.470931
 21
39.914142
 12
76.470911
 22
41.470911
 13
76.470911
 23
41.470911
 0
LINE
 8
DIMENSION
 10
85.364453
 20
20
 11
85.364453
 21
20
 0
LINE
 8
DIMENSION
 10
76.470911
 20
41.470911
 11
76.470911
 21
41.470911
 0
ARC
 8
DIMENSION
 10
55
 20
20
 40
30.364453
 50
0
 51
45
 0
TEXT
 8
DIMENSION
 10
84.785371
 20
32.337504
 40
2.5
 1
45%%d
 11
84.785371
 21
32.337504
 50
-67.5
 72
1
 73
2
 0
ENDBLK
 0
BLOCK
 2
*D13
 70
1
 10
0
 20
0
 0
LINE
 8
DIMENSION
 10
98.375
 20
20
 11
94.832763
 21
20
 0
LINE
 8
DIMENSION
 10
95.922019
 20
25.922019
 11
93.417279
 21
23.417279
 0
SOLID
 8
DIMENSION
 10
95.666096
 20
17.5
 11
96.499429
 21
17.5
 12
96.082763
 22
20
 13
96.082763
 23
20
 0
SOLID
 8
DIMENSION
 10
92.828024
 20
26.363557
 11
92.238768
 21
25.774302
 12
94.301163
 22
24.301163
 13
94.301163
 23
24.301163
 0
LINE
 8
DIMENSION
 10
96.082763
 20
20
 11
96.082763
 21
10.4
 0
LINE
 8
DIMENSION
 10
94.301163
 20
24.301163
 11
91.649512
 21
26.952813
 0
ARC
 8
DIMENSION
 10
90
 20
20
 40
6.082763
 50
0
 51
45
 0
TEXT
 8
DIMENSION
 10
97.957763
 20
13.6375
 40
2.5
 1
45%%d
 11
97.957763
 21
13.6375
 50
90
 72
1
 73
2
 0
ENDBLK
 0
BLOCK
 2
*D14
 70
1
 10
0
 20
0
 0
SOLID
 8
DIMENSION
 10
100.353663
 20
17.5
 11
101.186996
 21
17.5
 12
100.77033
 22
20
 13
100.77033
 23
20
 0
SOLID
 8
DIMENSION
 10
96.142634
 20
29.678168
 11
95.553378
 21
29.088912
 12
97.615773
 22
27.615773
 13
97.615773
 23
27.615773
 0
LINE
 8
DIMENSION
 10
100.77033
 20
20
 11
100.77033
 21
16.25
 0
LINE
 8
DIMENSION
 10
97.615773
 20
27.615773
 11
94.964123
 21
30.267424
 0
ARC
 8
DIMENSION
 10
90
 20
20
 40
10.77033
 50
0
 51
45
 0
TEXT
 8
DIMENSION
 10
98.218213
 20
23.404095
 40
2.5
 1
45%%d
 11
98.218213
 21
23.404095
 50
-67.5
 72
1
 73
2
 0
ENDBLK
 0
BLOCK
 2
*D15
 70
1
 10
0
 20
0
 0
SOLID
 8
DIMENSION
 10
105.207128
 20
22.526007
 11
104.376687
 21
22.456642
 12
105
 22
20
 13
105
 23
20
 0
SOLID
 8
DIMENSION
 10
101.902961
 20
28.428744
 11
102.53922
 21
28.966907
 12
100.606602
 22
30.606602
 13
100.606602
 23
30.606602
 0
LINE
 8
DIMENSION
 10
105
 20
20
 11
105
 21
20
 0
LINE
 8
DIMENSION
 10
100.606602
 20
30.606602
 11
95.586144
 21
35.62706
 0
ARC
 8
DIMENSION
 10
90
 20
20
 40
15
 50
0
 51
45
 0
TEXT
 8
DIMENSION
 10
96.549577
 20
32.011976
 40
2.5
 1
45%%d
 11
96.549577
 21
32.011976
 50
315
 72
1
 73
2
 0
ENDBLK
 0
BLOCK
 2
*D16
 70
1
 10
0
 20
0
 0
SOLID
 8
DIMENSION
 10
109.488825
 20
22.521781
 11
108.65725
 21
22.467665
 12
109.235384
 22
20
 13
109.235384
 23
20
 0
SOLID
 8
DIMENSION
 10
104.937571
 20
31.447765
 11
105.563848
 21
31.997512
 12
103.601471
 22
33.601471
 13
103.601471
 23
33.601471
 0
LINE
 8
DIMENSION
 10
109.235384
 20
20
 11
109.235384
 21
12.9
 0
LINE
 8
DIMENSION
 10
103.601471
 20
33.601471
 11
103.601471
 21
33.601471
 0
ARC
 8
DIMENSION
 10
90
 20
20
 40
19.235384
 50
0
 51
45
 0
TEXT
 8
DIMENSION
 10
111.110384
 20
16.1375
 40
2.5
 1
45%%d
 11
111.110384
 21
16.1375
 50
90
 72
1
 73
2
 0
ENDBLK
 0
BLOCK
 2
*D17
 70
1
 10
0
 20
0
 0
SOLID
 8
DIMENSION
 10
114.05441
 20
22.518445
 11
113.222229
 21
22.474642
 12
113.769729
 22
20
 13
113.769729
 23
20
 0
SOLID
 8
DIMENSION
 10
108.170432
 20
34.670759
 11
108.789846
 21
35.228227
 12
106.807736
 22
36.807736
 13
106.807736
 23
36.807736
 0
LINE
 8
DIMENSION
 10
113.769729
 20
20
 11
113.769729
 21
20
 0
LINE
 8
DIMENSION
 10
106.807736
 20
36.807736
 11
106.807736
 21
36.807736
 0
ARC
 8
DIMENSION
 10
90
 20
20
 40
23.769729
 50
0
 51
45
 0
TEXT
 8
DIMENSION
 10
110.228092
 20
28.37875
 40
2.5
 1
45%%d
 11
110.228092
 21
28.37875
 50
-67.5
 72
1
 73
2
 0
ENDBLK
 0
BLOCK
 2
*D18
 70
1
 10
0
 20
0
 0
LINE
 8
DIMENSION
 10
117.625
 20
20
 11
121.614453
 21
20
 0
LINE
 8
DIMENSION
 10
109.533825
 20
39.533825
 11
112.354794
 21
42.354794
 0
SOLID
 8
DIMENSION
 10
120.677879
 20
22.51503
 11
119.845252
 21
22.480734
 12
120.364453
 22
20
 13
120.364453
 23
20
 0
SOLID
 8
DIMENSION
 10
112.857924
 20
39.349636
 11
113.470931
 21
39.914142
 12
111.470911
 22
41.470911
 13
111.470911
 23
41.470911
 0
LINE
 8
DIMENSION
 10
120.364453
 20
20
 11
120.364453
 21
20
 0
LINE
 8
DIMENSION
 10
111.470911
 20
41.470911
 11
111.470911
 21
41.470911
 0
ARC
 8
DIMENSION
 10
90
 20
20
 40
30.364453
 50
0
 51
45
 0
TEXT
 8
DIMENSION
 10
116.320822
 20
30.902442
 40
2.5
 1
45%%d
 11
116.320822
 21
30.902442
 50
-67.5
 72
1
 73
2
 0
ENDBLK
 0
BLOCK
 2
*D19
 70
1
 10
0
 20
0
 0
LINE
 8
DIMENSION
 10
28.375
 20
60
 11
20.714688
 21
60
 0
LINE
 8
DIMENSION
 10
25.922019
 20
65.922019
 11
20.505361
 21
60.505361
 0
SOLID
 8
DIMENSION
 10
21.548022
 20
57.5
 11
22.381355
 21
57.5
 12
21.964688
 22
60
 13
21.964688
 23
60
 0
SOLID
 8
DIMENSION
 10
19.916105
 20
63.451639
 11
19.32685
 21
62.862384
 12
21.389244
 22
61.389244
 13
21.389244
 23
61.389244
 0
POLYLINE
 8
DIMENSION
 66
1
 10
0
 20
0
 70
0
 0
VERTEX
 8
0
 10
21.964688
 20
60
 0
VERTEX
 8
0
 10
21.964688
 20
56.25
 0
VERTEX
 8
0
 10
23.214688
 20
56.25 
 0
SEQEND
 8
0
 0
LINE
 8
DIMENSION
 10
21.389244
 20
61.389244
 11
18.737594
 21
64.040895
 0
ARC
 8
DIMENSION
 10
20
 20
60
 40
1.964688
 50
0
 51
45
 0
TEXT
 8
DIMENSION
 10
26.452188
 20
56.25
 40
2.5
 1
45%%d
 11
26.452188
 21
56.25
 72
1
 73
2
 0
ENDBLK
 0
BLOCK
 2
*D20
 70
1
 10
0
 20
0
 0
LINE
 8
DIMENSION
 10
28.375
 20
60
 11
22.355551
 21
60
 0
LINE
 8
DIMENSION
 10
25.922019
 20
65.922019
 11
21.665626
 21
61.665626
 0
SOLID
 8
DIMENSION
 10
23.188885
 20
57.5
 11
24.022218
 21
57.5
 12
23.605551
 22
60
 13
23.605551
 23
60
 0
SOLID
 8
DIMENSION
 10
21.076371
 20
64.611905
 11
20.487115
 21
64.022649
 12
22.54951
 22
62.54951
 13
22.54951
 23
62.54951
 0
LINE
 8
DIMENSION
 10
23.605551
 20
60
 11
23.605551
 21
56.25
 0
POLYLINE
 8
DIMENSION
 66
1
 10
0
 20
0
 70
0
 0
VERTEX
 8
0
 10
22.54951
 20
62.54951
 0
VERTEX
 8
0
 10
19.897859
 20
65.20116
 0
VERTEX
 8
0
 10
18.647859
 20
65.20116 
 0
SEQEND
 8
0
 0
ARC
 8
DIMENSION
 10
20
 20
60
 40
3.605551
 50
0
 51
45
 0
TEXT
 8
DIMENSION
 10
15.410359
 20
65.20116
 40
2.5
 1
45%%d
 11
15.410359
 21
65.20116
 72
1
 73
2
 0
ENDBLK
 0
BLOCK
 2
*D21
 70
1
 10
0
 20
0
 0
SOLID
 8
DIMENSION
 10
29.244079
 20
57.5
 11
30.077412
 21
57.5
 12
29.660745
 22
60
 13
29.660745
 23
60
 0
SOLID
 8
DIMENSION
 10
25.358039
 20
68.893573
 11
24.768784
 21
68.304318
 12
26.831179
 22
66.831179
 13
26.831179
 23
66.831179
 0
LINE
 8
DIMENSION
 10
29.660745
 20
60
 11
29.660745
 21
56.25
 0
LINE
 8
DIMENSION
 10
26.831179
 20
66.831179
 11
24.179528
 21
69.482829
 0
ARC
 8
DIMENSION
 10
20
 20
60
 40
9.660745
 50
0
 51
10.871036
 0
ARC
 8
DIMENSION
 10
20
 20
60
 40
9.660745
 50
35.223529
 51
45
 0
TEXT
 8
DIMENSION
 10
28.925365
 20
63.697007
 40
2.5
 1
45%%d
 11
28.925365
 21
63.697007
 72
1
 73
2
 0
ENDBLK
 0
BLOCK
 2
*D22
 70
1
 10
0
 20
0
 0
SOLID
 8
DIMENSION
 10
33.429603
 20
62.528133
 11
32.599975
 21
62.449635
 12
33.250283
 22
60
 13
33.250283
 23
60
 0
SOLID
 8
DIMENSION
 10
30.641681
 20
67.177374
 11
31.283823
 21
67.708503
 12
29.369365
 22
69.369365
 13
29.369365
 23
69.369365
 0
POLYLINE
 8
DIMENSION
 66
1
 10
0
 20
0
 70
0
 0
VERTEX
 8
0
 10
33.250283
 20
60
 0
VERTEX
 8
0
 10
33.250283
 20
57.5
 0
VERTEX
 8
0
 10
34.500283
 20
57.5 
 0
SEQEND
 8
0
 0
LINE
 8
DIMENSION
 10
29.369365
 20
69.369365
 11
29.369365
 21
69.369365
 0
ARC
 8
DIMENSION
 10
20
 20
60
 40
13.250283
 50
0
 51
45
 0
TEXT
 8
DIMENSION
 10
37.737783
 20
57.5
 40
2.5
 1
45%%d
 11
37.737783
 21
57.5
 72
1
 73
2
 0
ENDBLK
 0
BLOCK
 2
*D23
 70
1
 10
0
 20
0
 0
SOLID
 8
DIMENSION
 10
35.966427
 20
62.525165
 11
35.135717
 21
62.459094
 12
35.749286
 22
60
 13
35.749286
 23
60
 0
SOLID
 8
DIMENSION
 10
32.441411
 20
68.963726
 11
33.075531
 21
69.504407
 12
31.136427
 22
71.136427
 13
31.136427
 23
71.136427
 0
LINE
 8
DIMENSION
 10
35.749286
 20
60
 11
35.749286
 21
60
 0
POLYLINE
 8
DIMENSION
 66
1
 10
0
 20
0
 70
0
 0
VERTEX
 8
0
 10
31.136427
 20
71.136427
 0
VERTEX
 8
0
 10
29.36866
 20
72.904194
 0
VERTEX
 8
0
 10
28.11866
 20
72.904194 
 0
SEQEND
 8
0
 0
ARC
 8
DIMENSION
 10
20
 20
60
 40
15.749286
 50
0
 51
45
 0
TEXT
 8
DIMENSION
 10
24.88116
 20
72.904194
 40
2.5
 1
45%%d
 11
24.88116
 21
72.904194
 72
1
 73
2
 0
ENDBLK
 0
BLOCK
 2
*D24
 70
1
 10
0
 20
0
 0
SOLID
 8
DIMENSION
 10
40.016322
 20
62.521341
 11
39.184655
 21
62.468656
 12
39.758542
 22
60
 13
39.758542
 23
60
 0
SOLID
 8
DIMENSION
 10
35.311204
 20
71.819996
 11
35.936534
 21
72.370819
 12
33.971399
 22
73.971399
 13
33.971399
 23
73.971399
 0
LINE
 8
DIMENSION
 10
39.758542
 20
60
 11
39.758542
 21
60
 0
LINE
 8
DIMENSION
 10
33.971399
 20
73.971399
 11
33.971399
 21
73.971399
 0
ARC
 8
DIMENSION
 10
20
 20
60
 40
19.758542
 50
0
 51
16.725559
 0
ARC
 8
DIMENSION
 10
20
 20
60
 40
19.758542
 50
28.527408
 51
45
 0
TEXT
 8
DIMENSION
 10
38.254513
 20
67.561267
 40
2.5
 1
45%%d
 11
38.254513
 21
67.561267
 72
1
 73
2
 0
ENDBLK
 0
BLOCK
 2
*D25
 70
1
 10
0
 20
0
 0
LINE
 8
DIMENSION
 10
63.375
 20
60
 11
56.791381
 21
60
 0
LINE
 8
DIMENSION
 10
60.922019
 20
65.922019
 11
56.266698
 21
61.266698
 0
SOLID
 8
DIMENSION
 10
57.624715
 20
57.5
 11
58.458048
 21
57.5
 12
58.041381
 22
60
 13
58.041381
 23
60
 0
SOLID
 8
DIMENSION
 10
55.677442
 20
64.212976
 11
55.088187
 21
63.62372
 12
57.150581
 22
62.150581
 13
57.150581
 23
62.150581
 0
LINE
 8
DIMENSION
 10
58.041381
 20
60
 11
58.041381
 21
56.25
 0
POLYLINE
 8
DIMENSION
 66
1
 10
0
 20
0
 70
0
 0
VERTEX
 8
0
 10
57.150581
 20
62.150581
 0
VERTEX
 8
0
 10
54.498931
 20
64.802232
 0
VERTEX
 8
0
 10
48.023931
 20
64.802232 
 0
SEQEND
 8
0
 0
ARC
 8
DIMENSION
 10
55
 20
60
 40
3.041381
 50
0
 51
45
 0
TEXT
 8
DIMENSION
 10
51.261431
 20
66.677232
 40
2.5
 1
45%%d
 11
51.261431
 21
66.677232
 72
1
 73
2
 0
ENDBLK
 0
BLOCK
 2
*D26
 70
1
 10
0
 20
0
 0
LINE
 8
DIMENSION
 10
63.375
 20
60
 11
58.367359
 21
60
 0
LINE
 8
DIMENSION
 10
60.922019
 20
65.922019
 11
57.381082
 21
62.381082
 0
SOLID
 8
DIMENSION
 10
59.200692
 20
57.5
 11
60.034025
 21
57.5
 12
59.617359
 22
60
 13
59.617359
 23
60
 0
SOLID
 8
DIMENSION
 10
56.791826
 20
65.32736
 11
56.202571
 21
64.738105
 12
58.264966
 22
63.264966
 13
58.264966
 23
63.264966
 0
POLYLINE
 8
DIMENSION
 66
1
 10
0
 20
0
 70
0
 0
VERTEX
 8
0
 10
59.617359
 20
60
 0
VERTEX
 8
0
 10
59.617359
 20
53.75
 0
VERTEX
 8
0
 10
66.092358
 20
53.75 
 0
SEQEND
 8
0
 0
LINE
 8
DIMENSION
 10
58.264966
 20
63.264966
 11
55.613315
 21
65.916616
 0
ARC
 8
DIMENSION
 10
55
 20
60
 40
4.617359
 50
0
 51
45
 0
TEXT
 8
DIMENSION
 10
62.854859
 20
55.625
 40
2.5
 1
45%%d
 11
62.854859
 21
55.625
 72
1
 73
2
 0
ENDBLK
 0
BLOCK
 2
*D27
 70
1
 10
0
 20
0
 0
SOLID
 8
DIMENSION
 10
64.091225
 20
57.5
 11
64.924558
 21
57.5
 12
64.507891
 22
60
 13
64.507891
 23
60
 0
SOLID
 8
DIMENSION
 10
60.249955
 20
68.785489
 11
59.6607
 21
68.196234
 12
61.723095
 22
66.723095
 13
61.723095
 23
66.723095
 0
LINE
 8
DIMENSION
 10
64.507891
 20
60
 11
64.507891
 21
56.25
 0
LINE
 8
DIMENSION
 10
61.723095
 20
66.723095
 11
59.071444
 21
69.374745
 0
ARC
 8
DIMENSION
 10
55
 20
60
 40
9.507891
 50
0
 51
10.68905
 0
ARC
 8
DIMENSION
 10
55
 20
60
 40
9.507891
 50
35.442668
 51
45
 0
TEXT
 8
DIMENSION
 10
63.784146
 20
63.638513
 40
2.5
 1
45%%d
 11
63.784146
 21
63.638513
 72
1
 73
2
 0
ENDBLK
 0
BLOCK
 2
*D28
 70
1
 10
0
 20
0
 0
SOLID
 8
DIMENSION
 10
68.786948
 20
62.527689
 11
67.957131
 21
62.451211
 12
68.601471
 22
60
 13
68.601471
 23
60
 0
SOLID
 8
DIMENSION
 10
65.895343
 20
67.428807
 11
66.53619
 21
67.961498
 12
64.617692
 22
69.617692
 13
64.617692
 23
69.617692
 0
LINE
 8
DIMENSION
 10
68.601471
 20
60
 11
68.601471
 21
60
 0
POLYLINE
 8
DIMENSION
 66
1
 10
0
 20
0
 70
0
 0
VERTEX
 8
0
 10
64.617692
 20
69.617692
 0
VERTEX
 8
0
 10
63.733809
 20
70.501576
 0
VERTEX
 8
0
 10
57.258809
 20
70.501576 
 0
SEQEND
 8
0
 0
ARC
 8
DIMENSION
 10
55
 20
60
 40
13.601471
 50
0
 51
45
 0
TEXT
 8
DIMENSION
 10
60.496309
 20
72.376576
 40
2.5
 1
45%%d
 11
60.496309
 21
72.376576
 72
1
 73
2
 0
ENDBLK
 0
BLOCK
 2
*D29
 70
1
 10
0
 20
0
 0
SOLID
 8
DIMENSION
 10
71.306726
 20
62.524802
 11
70.475908
 21
62.460109
 12
71.085397
 22
60
 13
71.085397
 23
60
 0
SOLID
 8
DIMENSION
 10
67.682679
 20
69.20356
 11
68.315901
 21
69.745292
 12
66.374093
 22
71.374093
 13
66.374093
 23
71.374093
 0
POLYLINE
 8
DIMENSION
 66
1
 10
0
 20
0
 70
0
 0
VERTEX
 8
0
 10
71.085397
 20
60
 0
VERTEX
 8
0
 10
71.085397
 20
55
 0
VERTEX
 8
0
 10
77.560397
 20
55 
 0
SEQEND
 8
0
 0
LINE
 8
DIMENSION
 10
66.374093
 20
71.374093
 11
66.374093
 21
71.374093
 0
ARC
 8
DIMENSION
 10
55
 20
60
 40
16.085397
 50
0
 51
45
 0
TEXT
 8
DIMENSION
 10
74.322897
 20
56.875
 40
2.5
 1
45%%d
 11
74.322897
 21
56.875
 72
1
 73
2
 0
ENDBLK
 0
BLOCK
 2
*D30
 70
1
 10
0
 20
0
 0
SOLID
 8
DIMENSION
 10
76.670952
 20
62.52006
 11
75.83904
 21
62.471414
 12
76.400935
 22
60
 13
76.400935
 23
60
 0
SOLID
 8
DIMENSION
 10
71.48298
 20
72.987873
 11
72.105629
 21
73.541726
 12
70.132746
 22
75.132746
 13
70.132746
 23
75.132746
 0
LINE
 8
DIMENSION
 10
76.400935
 20
60
 11
76.400935
 21
60
 0
LINE
 8
DIMENSION
 10
70.132746
 20
75.132746
 11
70.132746
 21
75.132746
 0
ARC
 8
DIMENSION
 10
55
 20
60
 40
21.400935
 50
0
 51
17.161761
 0
ARC
 8
DIMENSION
 10
55
 20
60
 40
21.400935
 50
28.05354
 51
45
 0
TEXT
 8
DIMENSION
 10
74.771885
 20
68.189783
 40
2.5
 1
45%%d
 11
74.771885
 21
68.189783
 72
1
 73
2
 0
ENDBLK
 0
BLOCK
 2
*D31
 70
1
 10
0
 20
0
 0
LINE
 8
DIMENSION
 10
98.375
 20
60
 11
91.791381
 21
60
 0
LINE
 8
DIMENSION
 10
95.922019
 20
65.922019
 11
91.266698
 21
61.266698
 0
SOLID
 8
DIMENSION
 10
92.624715
 20
57.5
 11
93.458048
 21
57.5
 12
93.041381
 22
60
 13
93.041381
 23
60
 0
SOLID
 8
DIMENSION
 10
90.677442
 20
64.212976
 11
90.088187
 21
63.62372
 12
92.150581
 22
62.150581
 13
92.150581
 23
62.150581
 0
LINE
 8
DIMENSION
 10
93.041381
 20
60
 11
93.041381
 21
56.25
 0
POLYLINE
 8
DIMENSION
 66
1
 10
0
 20
0
 70
0
 0
VERTEX
 8
0
 10
92.150581
 20
62.150581
 0
VERTEX
 8
0
 10
87.731164
 20
66.569999
 0
VERTEX
 8
0
 10
81.256164
 20
66.569999 
 0
SEQEND
 8
0
 0
ARC
 8
DIMENSION
 10
90
 20
60
 40
3.041381
 50
0
 51
45
 0
TEXT
 8
DIMENSION
 10
84.493664
 20
64.694999
 40
2.5
 1
45%%d
 11
84.493664
 21
64.694999
 72
1
 73
2
 0
ENDBLK
 0
BLOCK
 2
*D32
 70
1
 10
0
 20
0
 0
LINE
 8
DIMENSION
 10
98.375
 20
60
 11
93.367359
 21
60
 0
LINE
 8
DIMENSION
 10
95.922019
 20
65.922019
 11
92.381082
 21
62.381082
 0
SOLID
 8
DIMENSION
 10
94.200692
 20
57.5
 11
95.034025
 21
57.5
 12
94.617359
 22
60
 13
94.617359
 23
60
 0
SOLID
 8
DIMENSION
 10
91.791826
 20
65.32736
 11
91.202571
 21
64.738105
 12
93.264966
 22
63.264966
 13
93.264966
 23
63.264966
 0
POLYLINE
 8
DIMENSION
 66
1
 10
0
 20
0
 70
0
 0
VERTEX
 8
0
 10
94.617359
 20
60
 0
VERTEX
 8
0
 10
94.617359
 20
56.25
 0
VERTEX
 8
0
 10
101.092358
 20
56.25 
 0
SEQEND
 8
0
 0
LINE
 8
DIMENSION
 10
93.264966
 20
63.264966
 11
90.613315
 21
65.916616
 0
ARC
 8
DIMENSION
 10
90
 20
60
 40
4.617359
 50
0
 51
45
 0
TEXT
 8
DIMENSION
 10
97.854859
 20
54.375
 40
2.5
 1
45%%d
 11
97.854859
 21
54.375
 72
1
 73
2
 0
ENDBLK
 0
BLOCK
 2
*D33
 70
1
 10
0
 20
0
 0
SOLID
 8
DIMENSION
 10
99.091225
 20
57.5
 11
99.924558
 21
57.5
 12
99.507891
 22
60
 13
99.507891
 23
60
 0
SOLID
 8
DIMENSION
 10
95.249955
 20
68.785489
 11
94.6607
 21
68.196234
 12
96.723095
 22
66.723095
 13
96.723095
 23
66.723095
 0
LINE
 8
DIMENSION
 10
99.507891
 20
60
 11
99.507891
 21
56.25
 0
LINE
 8
DIMENSION
 10
96.723095
 20
66.723095
 11
94.071444
 21
69.374745
 0
ARC
 8
DIMENSION
 10
90
 20
60
 40
9.507891
 50
0
 51
10.68905
 0
ARC
 8
DIMENSION
 10
90
 20
60
 40
9.507891
 50
35.442668
 51
45
 0
TEXT
 8
DIMENSION
 10
98.784146
 20
63.638513
 40
2.5
 1
45%%d
 11
98.784146
 21
63.638513
 72
1
 73
2
 0
ENDBLK
 0
BLOCK
 2
*D34
 70
1
 10
0
 20
0
 0
SOLID
 8
DIMENSION
 10
103.786948
 20
62.527689
 11
102.957131
 21
62.451211
 12
103.601471
 22
60
 13
103.601471
 23
60
 0
SOLID
 8
DIMENSION
 10
100.895343
 20
67.428807
 11
101.53619
 21
67.961498
 12
99.617692
 22
69.617692
 13
99.617692
 23
69.617692
 0
LINE
 8
DIMENSION
 10
103.601471
 20
60
 11
103.601471
 21
60
 0
POLYLINE
 8
DIMENSION
 66
1
 10
0
 20
0
 70
0
 0
VERTEX
 8
0
 10
99.617692
 20
69.617692
 0
VERTEX
 8
0
 10
96.082158
 20
73.153226
 0
VERTEX
 8
0
 10
89.607158
 20
73.153226 
 0
SEQEND
 8
0
 0
ARC
 8
DIMENSION
 10
90
 20
60
 40
13.601471
 50
0
 51
45
 0
TEXT
 8
DIMENSION
 10
92.844658
 20
71.278226
 40
2.5
 1
45%%d
 11
92.844658
 21
71.278226
 72
1
 73
2
 0
ENDBLK
 0
BLOCK
 2
*D35
 70
1
 10
0
 20
0
 0
SOLID
 8
DIMENSION
 10
106.306726
 20
62.524802
 11
105.475908
 21
62.460109
 12
106.085397
 22
60
 13
106.085397
 23
60
 0
SOLID
 8
DIMENSION
 10
102.682679
 20
69.20356
 11
103.315901
 21
69.745292
 12
101.374093
 22
71.374093
 13
101.374093
 23
71.374093
 0
POLYLINE
 8
DIMENSION
 66
1
 10
0
 20
0
 70
0
 0
VERTEX
 8
0
 10
106.085397
 20
60
 0
VERTEX
 8
0
 10
106.085397
 20
58.75
 0
VERTEX
 8
0
 10
112.560397
 20
58.75 
 0
SEQEND
 8
0
 0
LINE
 8
DIMENSION
 10
101.374093
 20
71.374093
 11
101.374093
 21
71.374093
 0
ARC
 8
DIMENSION
 10
90
 20
60
 40
16.085397
 50
0
 51
45
 0
TEXT
 8
DIMENSION
 10
109.322897
 20
56.875
 40
2.5
 1
45%%d
 11
109.322897
 21
56.875
 72
1
 73
2
 0
ENDBLK
 0
BLOCK
 2
*D36
 70
1
 10
0
 20
0
 0
SOLID
 8
DIMENSION
 10
111.670952
 20
62.52006
 11
110.83904
 21
62.471414
 12
111.400935
 22
60
 13
111.400935
 23
60
 0
SOLID
 8
DIMENSION
 10
106.48298
 20
72.987873
 11
107.105629
 21
73.541726
 12
105.132746
 22
75.132746
 13
105.132746
 23
75.132746
 0
LINE
 8
DIMENSION
 10
111.400935
 20
60
 11
111.400935
 21
60
 0
LINE
 8
DIMENSION
 10
105.132746
 20
75.132746
 11
105.132746
 21
75.132746
 0
ARC
 8
DIMENSION
 10
90
 20
60
 40
21.400935
 50
0
 51
17.161761
 0
ARC
 8
DIMENSION
 10
90
 20
60
 40
21.400935
 50
28.05354
 51
45
 0
TEXT
 8
DIMENSION
 10
109.771885
 20
68.189783
 40
2.5
 1
45%%d
 11
109.771885
 21
68.189783
 72
1
 73
2
 0
ENDBLK
 0
BLOCK
 2
*D37
 70
1
 10
0
 20
0
 0
LINE
 8
DIMENSION
 10
117.625
 20
60
 11
120.660882
 21
60
 0
LINE
 8
DIMENSION
 10
109.533825
 20
79.533825
 11
111.680518
 21
81.680518
 0
SOLID
 8
DIMENSION
 10
119.720952
 20
62.515446
 11
118.888371
 21
62.480039
 12
119.410882
 22
60
 13
119.410882
 23
60
 0
SOLID
 8
DIMENSION
 10
112.180815
 20
78.673511
 11
112.794575
 21
79.237198
 12
110.796634
 22
80.796634
 13
110.796634
 23
80.796634
 0
LINE
 8
DIMENSION
 10
119.410882
 20
60
 11
119.410882
 21
60
 0
LINE
 8
DIMENSION
 10
110.796634
 20
80.796634
 11
110.796634
 21
80.796634
 0
ARC
 8
DIMENSION
 10
90
 20
60
 40
29.410882
 50
0
 51
18.59832
 0
ARC
 8
DIMENSION
 10
90
 20
60
 40
29.410882
 50
26.515208
 51
45
 0
TEXT
 8
DIMENSION
 10
117.172112
 20
71.255057
 40
2.5
 1
45%%d
 11
117.172112
 21
71.255057
 72
1
 73
2
 0
ENDBLK
 0
ENDSEC
 0
SECTION
 2
ENTITIES
 0
LINE
 8
0
 10
29
 20
20
 11
45
 21
20
 0
LINE
 8
0
 10
37.67767
 20
37.67767
 11
26.363961
 21
26.363961
 0
LINE
 8
0
 10
74.091883
 20
39.091883
 11
61.363961
 21
26.363961
 0
LINE
 8
0
 10
64
 20
20
 11
82
 21
20
 0
LINE
 8
0
 10
109.091883
 20
39.091883
 11
96.363961
 21
26.363961
 0
LINE
 8
0
 10
99
 20
20
 11
117
 21
20
 0
LINE
 8
0
 10
29
 20
60
 11
45
 21
60
 0
LINE
 8
0
 10
37.67767
 20
77.67767
 11
26.363961
 21
66.363961
 0
LINE
 8
0
 10
74.091883
 20
79.091883
 11
61.363961
 21
66.363961
 0
LINE
 8
0
 10
64
 20
60
 11
82
 21
60
 0
LINE
 8
0
 10
109.091883
 20
79.091883
 11
96.363961
 21
66.363961
 0
LINE
 8
0
 10
99
 20
60
 11
117
 21
60
 0
POLYLINE
 8
0
 66
1
 10
0
 20
0
 70
1
 0
VERTEX
 8
0
 10
10
 20
5
 0
VERTEX
 8
0
 10
130
 20
5
 0
VERTEX
 8
0
 10
130
 20
87
 0
VERTEX
 8
0
 10
10
 20
87
 0
SEQEND
 8
0
 0
DIMENSION
 8
DIMENSION
 70
2
 2
*D1
 3
BREAK
 1
<>
 10
37.67766953
 20
37.67766953
 11
26.08276253029821
 21
13.012500047683716
 13
29
 23
20
 14
45
 24
20
 15
26.36396103
 25
26.36396103
 16
26
 26
21
 0
DIMENSION
 8
DIMENSION
 70
2
 2
*D2
 3
BREAK
 1
<>
 10
37.67766953
 20
37.67766953
 11
29.099158141693525
 21
23.768994708467027
 13
29
 23
20
 14
45
 24
20
 15
26.36396103
 25
26.36396103
 16
29
 26
24
 0
DIMENSION
 8
DIMENSION
 70
2
 2
*D3
 3
BREAK
 1
<>
 10
37.67766953
 20
37.67766953
 11
25.456123671879894
 21
33.57017391856057
 13
29
 23
20
 14
45
 24
20
 15
26.36396103
 25
26.36396103
 16
30
 26
29
 0
DIMENSION
 8
DIMENSION
 70
2
 2
*D4
 3
BREAK
 1
<>
 10
37.67766953
 20
37.67766953
 11
37.26267650163207
 21
14.262500047683716
 13
29
 23
20
 14
45
 24
20
 15
26.36396103
 25
26.36396103
 16
37
 26
23
 0
DIMENSION
 8
DIMENSION
 70
2
 2
*D5
 3
BREAK
 1
<>
 10
37.67766953
 20
37.67766953
 11
40.262260014010394
 21
28.392902902133166
 13
29
 23
20
 14
45
 24
20
 15
26.36396103
 25
26.36396103
 16
40
 26
29
 0
DIMENSION
 8
DIMENSION
 70
2
 2
*D6
 3
BREAK
 1
<>
 10
37.67766953
 20
37.67766953
 11
45.66988931682424
 21
30.632816299644823
 13
29
 23
20
 14
45
 24
20
 15
26.36396103
 25
26.36396103
 16
44
 26
34
 0
DIMENSION
 8
DIMENSION
 70
2
 2
*D7
 3
ABOVE
 1
<>
 10
74.09188309
 20
39.09188309
 11
59.20776253029821
 21
13.637500047683718
 13
64
 23
20
 14
82
 24
20
 15
61.36396103
 25
26.36396103
 16
61
 26
21
 0
DIMENSION
 8
DIMENSION
 70
2
 2
*D8
 3
ABOVE
 1
<>
 10
74.09188309
 20
39.09188309
 11
65.83143226515219
 21
24.486526144151572
 13
64
 23
20
 14
82
 24
20
 15
61.36396103
 25
26.36396103
 16
64
 26
24
 0
DIMENSION
 8
DIMENSION
 70
2
 2
*D9
 3
ABOVE
 1
<>
 10
74.09188309
 20
39.09188309
 11
64.20122702390744
 21
34.66362684113855
 13
64
 23
20
 14
82
 24
20
 15
61.36396103
 25
26.36396103
 16
67
 26
29
 0
DIMENSION
 8
DIMENSION
 70
2
 2
*D10
 3
ABOVE
 1
<>
 10
74.09188309
 20
39.09188309
 11
72.36038406167133
 21
16.13750004768372
 13
64
 23
20
 14
82
 24
20
 15
61.36396103
 25
26.36396103
 16
74
 26
23
 0
DIMENSION
 8
DIMENSION
 70
2
 2
*D11
 3
ABOVE
 1
<>
 10
74.09188309
 20
39.09188309
 11
78.69263991470176
 21
29.813812781091602
 13
64
 23
20
 14
82
 24
20
 15
61.36396103
 25
26.36396103
 16
77
 26
29
 0
DIMENSION
 8
DIMENSION
 70
2
 2
*D12
 3
ABOVE
 1
<>
 10
74.09188309
 20
39.09188309
 11
84.78537067494472
 21
32.337504493871975
 13
64
 23
20
 14
82
 24
20
 15
61.36396103
 25
26.36396103
 16
84
 26
29
 0
DIMENSION
 8
DIMENSION
 70
2
 2
*D13
 3
BELOW
 1
<>
 10
109.09188309
 20
39.09188309
 11
97.95776253029827
 21
13.637500047683728
 13
99
 23
20
 14
117
 24
20
 15
96.36396103
 25
26.36396103
 16
96
 26
21
 0
DIMENSION
 8
DIMENSION
 70
2
 2
*D14
 3
BELOW
 1
<>
 10
109.09188309
 20
39.09188309
 11
98.21821296556465
 21
23.404095268807296
 13
99
 23
20
 14
117
 24
20
 15
96.36396103
 25
26.36396103
 16
100
 26
24
 0
DIMENSION
 8
DIMENSION
 70
2
 2
*D15
 3
BELOW
 1
<>
 10
109.09188309
 20
39.09188309
 11
96.54957659445787
 21
32.011976411689005
 13
99
 23
20
 14
117
 24
20
 15
96.36396103
 25
26.36396103
 16
102
 26
29
 0
DIMENSION
 8
DIMENSION
 70
2
 2
*D16
 3
BELOW
 1
<>
 10
109.09188309
 20
39.09188309
 11
111.11038406167133
 21
16.137500047683712
 13
99
 23
20
 14
117
 24
20
 15
96.36396103
 25
26.36396103
 16
109
 26
23
 0
DIMENSION
 8
DIMENSION
 70
2
 2
*D17
 3
BELOW
 1
<>
 10
109.09188309
 20
39.09188309
 11
110.22809166778441
 21
28.37874990972251
 13
99
 23
20
 14
117
 24
20
 15
96.36396103
 25
26.36396103
 16
112
 26
29
 0
DIMENSION
 8
DIMENSION
 70
2
 2
*D18
 3
BELOW
 1
<>
 10
109.09188309
 20
39.09188309
 11
116.32082242802738
 21
30.902441622502888
 13
99
 23
20
 14
117
 24
20
 15
96.36396103
 25
26.36396103
 16
119
 26
29
 0
DIMENSION
 8
DIMENSION
 70
2
 2
*D19
 3
HORZ-BREAK
 1
<>
 10
37.67766953
 20
77.67766953
 11
26.452188222755098
 21
56.24999999999999
 13
29
 23
60
 14
45
 24
60
 15
26.36396103
 25
66.36396103
 16
21.9
 26
60.5
 0
DIMENSION
 8
DIMENSION
 70
2
 2
*D20
 3
HORZ-BREAK
 1
<>
 10
37.67766953
 20
77.67766953
 11
15.41035937503056
 21
65.20116018624594
 13
29
 23
60
 14
45
 24
60
 15
26.36396103
 25
66.36396103
 16
23
 26
62
 0
DIMENSION
 8
DIMENSION
 70
2
 2
*D21
 3
HORZ-BREAK
 1
<>
 10
37.67766953
 20
77.67766953
 11
28.92536486335827
 21
63.697007175531276
 13
29
 23
60
 14
45
 24
60
 15
26.36396103
 25
66.36396103
 16
28.7
 26
64.2
 0
DIMENSION
 8
DIMENSION
 70
2
 2
*D22
 3
HORZ-BREAK
 1
<>
 10
37.67766953
 20
77.67766953
 11
37.73778296816164
 21
57.5
 13
29
 23
60
 14
45
 24
60
 15
26.36396103
 25
66.36396103
 16
32.6
 26
64.1
 0
DIMENSION
 8
DIMENSION
 70
2
 2
*D23
 3
HORZ-BREAK
 1
<>
 10
37.67766953
 20
77.67766953
 11
24.881159810679712
 21
72.90419366892874
 13
29
 23
60
 14
45
 24
60
 15
26.36396103
 25
66.36396103
 16
32
 26
70.2
 0
DIMENSION
 8
DIMENSION
 70
2
 2
*D24
 3
HORZ-BREAK
 1
<>
 10
37.67766953
 20
77.67766953
 11
38.25451296769141
 21
67.56126684573331
 13
29
 23
60
 14
45
 24
60
 15
26.36396103
 25
66.36396103
 16
36.8
 26
70.4
 0
DIMENSION
 8
DIMENSION
 70
2
 2
*D25
 3
HORZ-ABOVE
 1
<>
 10
74.09188309
 20
79.09188309
 11
51.26143093499481
 21
66.6772317462102
 13
64
 23
60
 14
82
 24
60
 15
61.36396103
 25
66.36396103
 16
57.7
 26
61.4
 0
DIMENSION
 8
DIMENSION
 70
2
 2
*D26
 3
HORZ-ABOVE
 1
<>
 10
74.09188309
 20
79.09188309
 11
62.85485850456239
 21
55.625
 13
64
 23
60
 14
82
 24
60
 15
61.36396103
 25
66.36396103
 16
59.6
 26
60.4
 0
DIMENSION
 8
DIMENSION
 70
2
 2
*D27
 3
HORZ-ABOVE
 1
<>
 10
74.09188309
 20
79.09188309
 11
63.78414631649724
 21
63.63851253816282
 13
64
 23
60
 14
82
 24
60
 15
61.36396103
 25
66.36396103
 16
64.2
 26
62.4
 0
DIMENSION
 8
DIMENSION
 70
2
 2
*D28
 3
HORZ-ABOVE
 1
<>
 10
74.09188309
 20
79.09188309
 11
60.4963086020362
 21
72.37657550731885
 13
64
 23
60
 14
82
 24
60
 15
61.36396103
 25
66.36396103
 16
66
 26
68
 0
DIMENSION
 8
DIMENSION
 70
2
 2
*D29
 3
HORZ-ABOVE
 1
<>
 10
74.09188309
 20
79.09188309
 11
74.32289705652232
 21
56.875
 13
64
 23
60
 14
82
 24
60
 15
61.36396103
 25
66.36396103
 16
70.5
 26
64.3
 0
DIMENSION
 8
DIMENSION
 70
2
 2
*D30
 3
HORZ-ABOVE
 1
<>
 10
74.09188309
 20
79.09188309
 11
74.77188541570376
 21
68.1897830928713
 13
64
 23
60
 14
82
 24
60
 15
61.36396103
 25
66.36396103
 16
72
 26
73
 0
DIMENSION
 8
DIMENSION
 70
2
 2
*D31
 3
HORZ-BELOW
 1
<>
 10
109.09188309
 20
79.09188309
 11
84.4936639820285
 21
64.69499869917661
 13
99
 23
60
 14
117
 24
60
 15
96.36396103
 25
66.36396103
 16
92.7
 26
61.4
 0
DIMENSION
 8
DIMENSION
 70
2
 2
*D32
 3
HORZ-BELOW
 1
<>
 10
109.09188309
 20
79.09188309
 11
97.85485850456237
 21
54.375
 13
99
 23
60
 14
117
 24
60
 15
96.36396103
 25
66.36396103
 16
94.6
 26
60.4
 0
DIMENSION
 8
DIMENSION
 70
2
 2
*D33
 3
HORZ-BELOW
 1
<>
 10
109.09188309
 20
79.09188309
 11
98.78414631649724
 21
63.63851253816282
 13
99
 23
60
 14
117
 24
60
 15
96.36396103
 25
66.36396103
 16
99.2
 26
62.4
 0
DIMENSION
 8
DIMENSION
 70
2
 2
*D34
 3
HORZ-BELOW
 1
<>
 10
109.09188309
 20
79.09188309
 11
92.84465817258665
 21
71.27822593676841
 13
99
 23
60
 14
117
 24
60
 15
96.36396103
 25
66.36396103
 16
101
 26
68
 0
DIMENSION
 8
DIMENSION
 70
2
 2
*D35
 3
HORZ-BELOW
 1
<>
 10
109.09188309
 20
79.09188309
 11
109.32289705652232
 21
56.875
 13
99
 23
60
 14
117
 24
60
 15
96.36396103
 25
66.36396103
 16
105.5
 26
64.3
 0
DIMENSION
 8
DIMENSION
 70
2
 2
*D36
 3
HORZ-BELOW
 1
<>
 10
109.09188309
 20
79.09188309
 11
109.77188541570378
 21
68.18978309287131
 13
99
 23
60
 14
117
 24
60
 15
96.36396103
 25
66.36396103
 16
107
 26
73
 0
DIMENSION
 8
DIMENSION
 70
2
 2
*D37
 3
HORZ-BELOW
 1
<>
 10
109.09188309
 20
79.09188309
 11
117.17211222675155
 21
71.2550574026443
 13
99
 23
60
 14
117
 24
60
 15
96.36396103
 25
66.36396103
 16
114
 26
77
 0
ENDSEC
 0
EOF
