 0
SECTION
 2
HEADER
 9
$ACADVER
 1
AC1009
 9
$EXTMIN
 10
2
 20
15
 30
0
 9
$EXTMAX
 10
58
 20
75
 30
0
 9
$VIEWCTR
 10
30
 20
45
 9
$VIEWSIZE
 40
66
 9
$CLAYER
 8
0
 9
$DIMSTYLE
 2
HORZ-BELOW
 0
ENDSEC
 0
SECTION
 2
TABLES
 0
TABLE
 2
LAYER
 70
1
 0
LAYER
 2
0
 70
0
 62
7
 6
CONTINUOUS
 0
ENDTAB
 0
TABLE
 2
STYLE
 70
1
 0
STYLE
 2
STANDARD
 70
0
 40
0
 41
1
 50
0
 71
0
 42
1
 3
SIMPLEX
 4

 0
ENDTAB
 0
TABLE
 2
APPID
 70
1
 0
APPID
 2
NORI
 70
0
 0
ENDTAB
 0
TABLE
 2
DIMSTYLE
 70
3
 0
DIMSTYLE
 2
HORZ-BREAK
 70
0
 3

 4

 5

 6

 7

 40
1
 41
2.5
 42
0.625
 43
3.75
 44
1.25
 45
0
 46
0
 47
0
 48
0
 140
2.5
 141
2.5
 142
0
 143
25.4
 144
1
 145
0
 146
1
 147
0.625
 71
0
 72
0
 73
1
 74
1
 75
0
 76
0
 77
0
 78
0
 170
0
 171
2
 172
1
 173
0
 174
0
 175
0
 176
0
 177
0
 178
0
 0
DIMSTYLE
 2
HORZ-ABOVE
 70
0
 3

 4

 5

 6

 7

 40
1
 41
2.5
 42
0.625
 43
3.75
 44
1.25
 45
0
 46
0
 47
0
 48
0
 140
2.5
 141
2.5
 142
0
 143
25.4
 144
1
 145
0
 146
1
 147
0.625
 71
0
 72
0
 73
1
 74
1
 75
0
 76
0
 77
1
 78
0
 170
0
 171
2
 172
1
 173
0
 174
0
 175
0
 176
0
 177
0
 178
0
 0
DIMSTYLE
 2
HORZ-BELOW
 70
0
 3

 4

 5

 6

 7

 40
1
 41
2.5
 42
0.625
 43
3.75
 44
1.25
 45
0
 46
0
 47
0
 48
0
 140
2.5
 141
2.5
 142
0
 143
25.4
 144
1
 145
0
 146
1
 147
0.625
 71
0
 72
0
 73
1
 74
1
 75
0
 76
0
 77
4
 78
0
 170
0
 171
2
 172
1
 173
0
 174
0
 175
0
 176
0
 177
0
 178
0
 0
ENDTAB
 0
ENDSEC
 0
SECTION
 2
BLOCKS
 0
BLOCK
 2
*D1
 70
1
 10
0
 20
0
 0
SOLID
 8
0
 10
27.937605
 20
43.526861
 11
28.526861
 21
42.937605
 12
30
 22
45
 13
30
 23
45
 0
TEXT
 8
0
 10
14.6625
 20
40
 40
2.5
 1
LEAD~A
 11
14.6625
 21
40
 72
1
 73
2
 0
POLYLINE
 8
0
 66
1
 10
0
 20
0
 70
0
 0
VERTEX
 8
0
 10
30
 20
45
 0
VERTEX
 8
0
 10
25
 20
40
 0
VERTEX
 8
0
 10
22.5
 20
40 
 0
SEQEND
 8
0
 0
ENDBLK
 0
BLOCK
 2
*D2
 70
1
 10
0
 20
0
 0
SOLID
 8
0
 10
28.526861
 20
47.062395
 11
27.937605
 21
46.473139
 12
30
 22
45
 13
30
 23
45
 0
TEXT
 8
0
 10
14.775
 20
50
 40
2.5
 1
LEAD~B
 11
14.775
 21
50
 72
1
 73
2
 0
POLYLINE
 8
0
 66
1
 10
0
 20
0
 70
0
 0
VERTEX
 8
0
 10
30
 20
45
 0
VERTEX
 8
0
 10
25
 20
50
 0
VERTEX
 8
0
 10
22.5
 20
50 
 0
SEQEND
 8
0
 0
ENDBLK
 0
BLOCK
 2
*D3
 70
1
 10
0
 20
0
 0
SOLID
 8
0
 10
31.473139
 20
42.937605
 11
32.062395
 21
43.526861
 12
30
 22
45
 13
30
 23
45
 0
TEXT
 8
0
 10
45.2875
 20
40
 40
2.5
 1
LEAD~C
 11
45.2875
 21
40
 72
1
 73
2
 0
POLYLINE
 8
0
 66
1
 10
0
 20
0
 70
0
 0
VERTEX
 8
0
 10
30
 20
45
 0
VERTEX
 8
0
 10
35
 20
40
 0
VERTEX
 8
0
 10
37.5
 20
40 
 0
SEQEND
 8
0
 0
ENDBLK
 0
BLOCK
 2
*D4
 70
1
 10
0
 20
0
 0
SOLID
 8
0
 10
32.062395
 20
46.473139
 11
31.473139
 21
47.062395
 12
30
 22
45
 13
30
 23
45
 0
TEXT
 8
0
 10
45.225
 20
50
 40
2.5
 1
LEAD~D
 11
45.225
 21
50
 72
1
 73
2
 0
POLYLINE
 8
0
 66
1
 10
0
 20
0
 70
0
 0
VERTEX
 8
0
 10
30
 20
45
 0
VERTEX
 8
0
 10
35
 20
50
 0
VERTEX
 8
0
 10
37.5
 20
50 
 0
SEQEND
 8
0
 0
ENDBLK
 0
BLOCK
 2
*D5
 70
1
 10
0
 20
0
 0
SOLID
 8
0
 10
27.937605
 20
23.526861
 11
28.526861
 21
22.937605
 12
30
 22
25
 13
30
 23
25
 0
TEXT
 8
0
 10
17.35
 20
21.875
 40
2.5
 1
LEAD~E
 11
17.35
 21
21.875
 72
1
 73
2
 0
POLYLINE
 8
0
 66
1
 10
0
 20
0
 70
0
 0
VERTEX
 8
0
 10
30
 20
25
 0
VERTEX
 8
0
 10
25
 20
20
 0
VERTEX
 8
0
 10
9.7
 20
20 
 0
SEQEND
 8
0
 0
ENDBLK
 0
BLOCK
 2
*D6
 70
1
 10
0
 20
0
 0
SOLID
 8
0
 10
28.526861
 20
27.062395
 11
27.937605
 21
26.473139
 12
30
 22
25
 13
30
 23
25
 0
TEXT
 8
0
 10
17.35
 20
31.875
 40
2.5
 1
LEAD~F
 11
17.35
 21
31.875
 72
1
 73
2
 0
POLYLINE
 8
0
 66
1
 10
0
 20
0
 70
0
 0
VERTEX
 8
0
 10
30
 20
25
 0
VERTEX
 8
0
 10
25
 20
30
 0
VERTEX
 8
0
 10
9.7
 20
30 
 0
SEQEND
 8
0
 0
ENDBLK
 0
BLOCK
 2
*D7
 70
1
 10
0
 20
0
 0
SOLID
 8
0
 10
31.473139
 20
22.937605
 11
32.062395
 21
23.526861
 12
30
 22
25
 13
30
 23
25
 0
TEXT
 8
0
 10
42.7875
 20
21.875
 40
2.5
 1
LEAD~G
 11
42.7875
 21
21.875
 72
1
 73
2
 0
POLYLINE
 8
0
 66
1
 10
0
 20
0
 70
0
 0
VERTEX
 8
0
 10
30
 20
25
 0
VERTEX
 8
0
 10
35
 20
20
 0
VERTEX
 8
0
 10
50.575
 20
20 
 0
SEQEND
 8
0
 0
ENDBLK
 0
BLOCK
 2
*D8
 70
1
 10
0
 20
0
 0
SOLID
 8
0
 10
32.062395
 20
26.473139
 11
31.473139
 21
27.062395
 12
30
 22
25
 13
30
 23
25
 0
TEXT
 8
0
 10
42.725
 20
31.875
 40
2.5
 1
LEAD~H
 11
42.725
 21
31.875
 72
1
 73
2
 0
POLYLINE
 8
0
 66
1
 10
0
 20
0
 70
0
 0
VERTEX
 8
0
 10
30
 20
25
 0
VERTEX
 8
0
 10
35
 20
30
 0
VERTEX
 8
0
 10
50.45
 20
30 
 0
SEQEND
 8
0
 0
ENDBLK
 0
BLOCK
 2
*D9
 70
1
 10
0
 20
0
 0
SOLID
 8
0
 10
27.937605
 20
63.526861
 11
28.526861
 21
62.937605
 12
30
 22
65
 13
30
 23
65
 0
TEXT
 8
0
 10
18.1125
 20
58.125
 40
2.5
 1
LEAD~I
 11
18.1125
 21
58.125
 72
1
 73
2
 0
POLYLINE
 8
0
 66
1
 10
0
 20
0
 70
0
 0
VERTEX
 8
0
 10
30
 20
65
 0
VERTEX
 8
0
 10
25
 20
60
 0
VERTEX
 8
0
 10
11.225
 20
60 
 0
SEQEND
 8
0
 0
ENDBLK
 0
BLOCK
 2
*D10
 70
1
 10
0
 20
0
 0
SOLID
 8
0
 10
28.526861
 20
67.062395
 11
27.937605
 21
66.473139
 12
30
 22
65
 13
30
 23
65
 0
TEXT
 8
0
 10
17.5125
 20
68.125
 40
2.5
 1
LEAD~J
 11
17.5125
 21
68.125
 72
1
 73
2
 0
POLYLINE
 8
0
 66
1
 10
0
 20
0
 70
0
 0
VERTEX
 8
0
 10
30
 20
65
 0
VERTEX
 8
0
 10
25
 20
70
 0
VERTEX
 8
0
 10
10.025
 20
70 
 0
SEQEND
 8
0
 0
ENDBLK
 0
BLOCK
 2
*D11
 70
1
 10
0
 20
0
 0
SOLID
 8
0
 10
31.473139
 20
62.937605
 11
32.062395
 21
63.526861
 12
30
 22
65
 13
30
 23
65
 0
TEXT
 8
0
 10
42.725
 20
58.125
 40
2.5
 1
LEAD~K
 11
42.725
 21
58.125
 72
1
 73
2
 0
POLYLINE
 8
0
 66
1
 10
0
 20
0
 70
0
 0
VERTEX
 8
0
 10
30
 20
65
 0
VERTEX
 8
0
 10
35
 20
60
 0
VERTEX
 8
0
 10
50.45
 20
60 
 0
SEQEND
 8
0
 0
ENDBLK
 0
BLOCK
 2
*D12
 70
1
 10
0
 20
0
 0
SOLID
 8
0
 10
32.062395
 20
66.473139
 11
31.473139
 21
67.062395
 12
30
 22
65
 13
30
 23
65
 0
TEXT
 8
0
 10
42.6
 20
68.125
 40
2.5
 1
LEAD~L
 11
42.6
 21
68.125
 72
1
 73
2
 0
POLYLINE
 8
0
 66
1
 10
0
 20
0
 70
0
 0
VERTEX
 8
0
 10
30
 20
65
 0
VERTEX
 8
0
 10
35
 20
70
 0
VERTEX
 8
0
 10
50.2
 20
70 
 0
SEQEND
 8
0
 0
ENDBLK
 0
ENDSEC
 0
SECTION
 2
ENTITIES
 0
POLYLINE
 8
0
 66
1
 10
0
 20
0
 70
1
 0
VERTEX
 8
0
 10
2
 20
15
 0
VERTEX
 8
0
 10
58
 20
15
 0
VERTEX
 8
0
 10
58
 20
75
 0
VERTEX
 8
0
 10
2
 20
75
 0
SEQEND
 8
0
 0
INSERT
 8
0
 2
*D1
 10
0
 20
0
 41
1
 42
 1
 50
0
 1001
NORI
 1000
TYPE:LEADER
 1000
TEXT:LEAD~A
 1000
STYLE:HORZ-BREAK
 1000
PT:30,45
 1000
PT:25,40
 0
INSERT
 8
0
 2
*D2
 10
0
 20
0
 41
1
 42
 1
 50
0
 1001
NORI
 1000
TYPE:LEADER
 1000
TEXT:LEAD~B
 1000
STYLE:HORZ-BREAK
 1000
PT:30,45
 1000
PT:25,50
 0
INSERT
 8
0
 2
*D3
 10
0
 20
0
 41
1
 42
 1
 50
0
 1001
NORI
 1000
TYPE:LEADER
 1000
TEXT:LEAD~C
 1000
STYLE:HORZ-BREAK
 1000
PT:30,45
 1000
PT:35,40
 0
INSERT
 8
0
 2
*D4
 10
0
 20
0
 41
1
 42
 1
 50
0
 1001
NORI
 1000
TYPE:LEADER
 1000
TEXT:LEAD~D
 1000
STYLE:HORZ-BREAK
 1000
PT:30,45
 1000
PT:35,50
 0
INSERT
 8
0
 2
*D5
 10
0
 20
0
 41
1
 42
 1
 50
0
 1001
NORI
 1000
TYPE:LEADER
 1000
TEXT:LEAD~E
 1000
STYLE:HORZ-ABOVE
 1000
PT:30,25
 1000
PT:25,20
 0
INSERT
 8
0
 2
*D6
 10
0
 20
0
 41
1
 42
 1
 50
0
 1001
NORI
 1000
TYPE:LEADER
 1000
TEXT:LEAD~F
 1000
STYLE:HORZ-ABOVE
 1000
PT:30,25
 1000
PT:25,30
 0
INSERT
 8
0
 2
*D7
 10
0
 20
0
 41
1
 42
 1
 50
0
 1001
NORI
 1000
TYPE:LEADER
 1000
TEXT:LEAD~G
 1000
STYLE:HORZ-ABOVE
 1000
PT:30,25
 1000
PT:35,20
 0
INSERT
 8
0
 2
*D8
 10
0
 20
0
 41
1
 42
 1
 50
0
 1001
NORI
 1000
TYPE:LEADER
 1000
TEXT:LEAD~H
 1000
STYLE:HORZ-ABOVE
 1000
PT:30,25
 1000
PT:35,30
 0
INSERT
 8
0
 2
*D9
 10
0
 20
0
 41
1
 42
 1
 50
0
 1001
NORI
 1000
TYPE:LEADER
 1000
TEXT:LEAD~I
 1000
STYLE:HORZ-BELOW
 1000
PT:30,65
 1000
PT:25,60
 0
INSERT
 8
0
 2
*D10
 10
0
 20
0
 41
1
 42
 1
 50
0
 1001
NORI
 1000
TYPE:LEADER
 1000
TEXT:LEAD~J
 1000
STYLE:HORZ-BELOW
 1000
PT:30,65
 1000
PT:25,70
 0
INSERT
 8
0
 2
*D11
 10
0
 20
0
 41
1
 42
 1
 50
0
 1001
NORI
 1000
TYPE:LEADER
 1000
TEXT:LEAD~K
 1000
STYLE:HORZ-BELOW
 1000
PT:30,65
 1000
PT:35,60
 0
INSERT
 8
0
 2
*D12
 10
0
 20
0
 41
1
 42
 1
 50
0
 1001
NORI
 1000
TYPE:LEADER
 1000
TEXT:LEAD~L
 1000
STYLE:HORZ-BELOW
 1000
PT:30,65
 1000
PT:35,70
 0
ENDSEC
 0
EOF
