 0
SECTION
 2
HEADER
 9
$ACADVER
 1
AC1009
 9
$EXTMIN
 10
0
 20
0
 30
0
 9
$EXTMAX
 10
185
 20
125
 30
0
 9
$VIEWCTR
 10
92.5
 20
62.5
 9
$VIEWSIZE
 40
137.5
 9
$CLAYER
 8
0
 9
$DIMSTYLE
 2
HORZ-BELOW
 0
ENDSEC
 0
SECTION
 2
TABLES
 0
TABLE
 2
LAYER
 70
1
 0
LAYER
 2
0
 70
0
 62
7
 6
CONTINUOUS
 0
ENDTAB
 0
TABLE
 2
STYLE
 70
1
 0
STYLE
 2
STANDARD
 70
0
 40
0
 41
1
 50
0
 71
0
 42
1
 3
SIMPLEX
 4

 0
ENDTAB
 0
TABLE
 2
DIMSTYLE
 70
6
 0
DIMSTYLE
 2
BREAK
 70
0
 3

 4

 5

 6

 7

 40
1
 41
2.5
 42
0.625
 43
3.75
 44
1.25
 45
0
 46
0
 47
0
 48
0
 140
2.5
 141
2.5
 142
0
 143
25.4
 144
1
 145
0
 146
1
 147
0.625
 71
0
 72
0
 73
0
 74
0
 75
0
 76
0
 77
0
 78
0
 170
0
 171
2
 172
1
 173
0
 174
0
 175
0
 176
0
 177
0
 178
0
 0
DIMSTYLE
 2
ABOVE
 70
0
 3

 4

 5

 6

 7

 40
1
 41
2.5
 42
0.625
 43
3.75
 44
1.25
 45
0
 46
0
 47
0
 48
0
 140
2.5
 141
2.5
 142
0
 143
25.4
 144
1
 145
0
 146
1
 147
0.625
 71
0
 72
0
 73
0
 74
0
 75
0
 76
0
 77
1
 78
0
 170
0
 171
2
 172
1
 173
0
 174
0
 175
0
 176
0
 177
0
 178
0
 0
DIMSTYLE
 2
BELOW
 70
0
 3

 4

 5

 6

 7

 40
1
 41
2.5
 42
0.625
 43
3.75
 44
1.25
 45
0
 46
0
 47
0
 48
0
 140
2.5
 141
2.5
 142
0
 143
25.4
 144
1
 145
0
 146
1
 147
0.625
 71
0
 72
0
 73
0
 74
0
 75
0
 76
0
 77
4
 78
0
 170
0
 171
2
 172
1
 173
0
 174
0
 175
0
 176
0
 177
0
 178
0
 0
DIMSTYLE
 2
HORZ-BREAK
 70
0
 3

 4

 5

 6

 7

 40
1
 41
2.5
 42
0.625
 43
3.75
 44
1.25
 45
0
 46
0
 47
0
 48
0
 140
2.5
 141
2.5
 142
0
 143
25.4
 144
1
 145
0
 146
1
 147
0.625
 71
0
 72
0
 73
1
 74
1
 75
0
 76
0
 77
0
 78
0
 170
0
 171
2
 172
1
 173
0
 174
0
 175
0
 176
0
 177
0
 178
0
 0
DIMSTYLE
 2
HORZ-ABOVE
 70
0
 3

 4

 5

 6

 7

 40
1
 41
2.5
 42
0.625
 43
3.75
 44
1.25
 45
0
 46
0
 47
0
 48
0
 140
2.5
 141
2.5
 142
0
 143
25.4
 144
1
 145
0
 146
1
 147
0.625
 71
0
 72
0
 73
1
 74
1
 75
0
 76
0
 77
1
 78
0
 170
0
 171
2
 172
1
 173
0
 174
0
 175
0
 176
0
 177
0
 178
0
 0
DIMSTYLE
 2
HORZ-BELOW
 70
0
 3

 4

 5

 6

 7

 40
1
 41
2.5
 42
0.625
 43
3.75
 44
1.25
 45
0
 46
0
 47
0
 48
0
 140
2.5
 141
2.5
 142
0
 143
25.4
 144
1
 145
0
 146
1
 147
0.625
 71
0
 72
0
 73
1
 74
1
 75
0
 76
0
 77
4
 78
0
 170
0
 171
2
 172
1
 173
0
 174
0
 175
0
 176
0
 177
0
 178
0
 0
ENDTAB
 0
ENDSEC
 0
SECTION
 2
BLOCKS
 0
BLOCK
 2
*D1
 70
1
 10
0
 20
0
 0
SOLID
 8
0
 10
14.384725
 20
13.79547
 11
13.79547
 21
14.384725
 12
12.32233
 22
12.32233
 13
12.32233
 23
12.32233
 0
LINE
 8
0
 10
12.32233
 20
12.32233
 11
14.973981
 21
14.973981
 0
TEXT
 8
0
 10
17.643309
 20
17.643309
 40
2.5
 1
%%c50
 11
17.643309
 21
17.643309
 50
45
 72
1
 73
2
 0
ENDBLK
 0
BLOCK
 2
*D2
 70
1
 10
0
 20
0
 0
SOLID
 8
0
 10
10.259936
 20
10.849191
 11
10.849191
 21
10.259936
 12
12.32233
 22
12.32233
 13
12.32233
 23
12.32233
 0
LINE
 8
0
 10
12.32233
 20
12.32233
 11
9.67068
 21
9.67068
 0
TEXT
 8
0
 10
7.001352
 20
7.001352
 40
2.5
 1
%%c50
 11
7.001352
 21
7.001352
 50
45
 72
1
 73
2
 0
ENDBLK
 0
BLOCK
 2
*D3
 70
1
 10
0
 20
0
 0
SOLID
 8
0
 10
45.615275
 20
46.20453
 11
46.20453
 21
45.615275
 12
47.67767
 22
47.67767
 13
47.67767
 23
47.67767
 0
LINE
 8
0
 10
47.67767
 20
47.67767
 11
40
 21
40
 0
TEXT
 8
0
 10
37.330672
 20
37.330672
 40
2.5
 1
%%c50
 11
37.330672
 21
37.330672
 50
45
 72
1
 73
2
 0
ENDBLK
 0
BLOCK
 2
*D4
 70
1
 10
0
 20
0
 0
SOLID
 8
0
 10
49.740064
 20
49.150809
 11
49.150809
 21
49.740064
 12
47.67767
 22
47.67767
 13
47.67767
 23
47.67767
 0
LINE
 8
0
 10
47.67767
 20
47.67767
 11
53
 21
53
 0
TEXT
 8
0
 10
55.669328
 20
55.669328
 40
2.5
 1
%%c50
 11
55.669328
 21
55.669328
 50
45
 72
1
 73
2
 0
ENDBLK
 0
BLOCK
 2
*D5
 70
1
 10
0
 20
0
 0
SOLID
 8
0
 10
46.620496
 20
14.828226
 11
46.047375
 21
14.223265
 12
48.148817
 22
12.806384
 13
48.148817
 23
12.806384
 0
SOLID
 8
0
 10
13.379504
 20
45.171774
 11
13.952625
 21
45.776735
 12
11.851183
 22
47.193616
 13
11.851183
 23
47.193616
 0
LINE
 8
0
 10
48.148817
 20
12.806384
 11
49.963699
 21
11.087022
 0
LINE
 8
0
 10
11.851183
 20
47.193616
 11
11.851183
 21
47.193616
 0
POINT
 8
0
 10
11.851182902354338
 20
47.19361619776957
 0
LINE
 8
0
 10
48.148817
 20
12.806384
 11
12.304903
 21
46.763776
 0
TEXT
 8
0
 10
52.70417
 20
8.490786
 40
2.5
 1
%%c50
 11
52.70417
 21
8.490786
 50
-43.451842
 72
1
 73
2
 0
ENDBLK
 0
BLOCK
 2
*D6
 70
1
 10
0
 20
0
 0
SOLID
 8
0
 10
51.477136
 20
23.28016
 11
51.213613
 21
22.489591
 12
53.717082
 22
22.094306
 13
53.717082
 23
22.094306
 0
SOLID
 8
0
 10
8.522864
 20
36.71984
 11
8.786387
 21
37.510409
 12
6.282918
 22
37.905694
 13
6.282918
 23
37.905694
 0
LINE
 8
0
 10
53.717082
 20
22.094306
 11
53.717082
 21
22.094306
 0
LINE
 8
0
 10
6.282918
 20
37.905694
 11
6.282918
 21
37.905694
 0
POINT
 8
0
 10
6.28291754873716
 20
37.90569415042095
 0
LINE
 8
0
 10
53.717082
 20
22.094306
 11
33.58128
 21
28.80624
 0
LINE
 8
0
 10
26.41872
 20
31.19376
 11
6.875845
 21
37.708052
 0
TEXT
 8
0
 10
30
 20
30
 40
2.5
 1
%%c50
 11
30
 21
30
 50
-18.434949
 72
1
 73
2
 0
ENDBLK
 0
BLOCK
 2
*D7
 70
1
 10
0
 20
0
 0
SOLID
 8
0
 10
74.384725
 20
13.79547
 11
73.79547
 21
14.384725
 12
72.32233
 22
12.32233
 13
72.32233
 23
12.32233
 0
LINE
 8
0
 10
72.32233
 20
12.32233
 11
79.870695
 21
19.870695
 0
TEXT
 8
0
 10
75.875542
 20
18.527193
 40
2.5
 1
%%c50
 11
75.875542
 21
18.527193
 50
45
 72
1
 73
2
 0
ENDBLK
 0
BLOCK
 2
*D8
 70
1
 10
0
 20
0
 0
SOLID
 8
0
 10
70.259936
 20
10.849191
 11
70.849191
 21
10.259936
 12
72.32233
 22
12.32233
 13
72.32233
 23
12.32233
 0
LINE
 8
0
 10
72.32233
 20
12.32233
 11
64.773965
 21
4.773965
 0
TEXT
 8
0
 10
66.117468
 20
8.769119
 40
2.5
 1
%%c50
 11
66.117468
 21
8.769119
 50
45
 72
1
 73
2
 0
ENDBLK
 0
BLOCK
 2
*D9
 70
1
 10
0
 20
0
 0
SOLID
 8
0
 10
105.615275
 20
46.20453
 11
106.20453
 21
45.615275
 12
107.67767
 22
47.67767
 13
107.67767
 23
47.67767
 0
LINE
 8
0
 10
107.67767
 20
47.67767
 11
100
 21
40
 0
TEXT
 8
0
 10
101.343503
 20
43.995153
 40
2.5
 1
%%c50
 11
101.343503
 21
43.995153
 50
45
 72
1
 73
2
 0
ENDBLK
 0
BLOCK
 2
*D10
 70
1
 10
0
 20
0
 0
SOLID
 8
0
 10
109.740064
 20
49.150809
 11
109.150809
 21
49.740064
 12
107.67767
 22
47.67767
 13
107.67767
 23
47.67767
 0
LINE
 8
0
 10
107.67767
 20
47.67767
 11
115.226035
 21
55.226035
 0
TEXT
 8
0
 10
111.230881
 20
53.882532
 40
2.5
 1
%%c50
 11
111.230881
 21
53.882532
 50
45
 72
1
 73
2
 0
ENDBLK
 0
BLOCK
 2
*D11
 70
1
 10
0
 20
0
 0
SOLID
 8
0
 10
106.620496
 20
14.828226
 11
106.047375
 21
14.223265
 12
108.148817
 22
12.806384
 13
108.148817
 23
12.806384
 0
SOLID
 8
0
 10
73.379504
 20
45.171774
 11
73.952625
 21
45.776735
 12
71.851183
 22
47.193616
 13
71.851183
 23
47.193616
 0
LINE
 8
0
 10
108.148817
 20
12.806384
 11
114.08348
 21
7.184071
 0
LINE
 8
0
 10
71.851183
 20
47.193616
 11
71.851183
 21
47.193616
 0
POINT
 8
0
 10
71.85118290235434
 20
47.19361619776957
 0
LINE
 8
0
 10
108.148817
 20
12.806384
 11
72.304903
 21
46.763776
 0
TEXT
 8
0
 10
112.63253
 20
11.141469
 40
2.5
 1
%%c50
 11
112.63253
 21
11.141469
 50
-43.451842
 72
1
 73
2
 0
ENDBLK
 0
BLOCK
 2
*D12
 70
1
 10
0
 20
0
 0
SOLID
 8
0
 10
111.477136
 20
23.28016
 11
111.213613
 21
22.489591
 12
113.717082
 22
22.094306
 13
113.717082
 23
22.094306
 0
SOLID
 8
0
 10
68.522864
 20
36.71984
 11
68.786387
 21
37.510409
 12
66.282918
 22
37.905694
 13
66.282918
 23
37.905694
 0
LINE
 8
0
 10
113.717082
 20
22.094306
 11
113.717082
 21
22.094306
 0
LINE
 8
0
 10
66.282918
 20
37.905694
 11
66.282918
 21
37.905694
 0
POINT
 8
0
 10
66.28291754873716
 20
37.90569415042095
 0
LINE
 8
0
 10
113.717082
 20
22.094306
 11
66.875845
 21
37.708052
 0
TEXT
 8
0
 10
90.592927
 20
31.778781
 40
2.5
 1
%%c50
 11
90.592927
 21
31.778781
 50
-18.434949
 72
1
 73
2
 0
ENDBLK
 0
BLOCK
 2
*D13
 70
1
 10
0
 20
0
 0
SOLID
 8
0
 10
134.384725
 20
13.79547
 11
133.79547
 21
14.384725
 12
132.32233
 22
12.32233
 13
132.32233
 23
12.32233
 0
LINE
 8
0
 10
132.32233
 20
12.32233
 11
139.870695
 21
19.870695
 0
TEXT
 8
0
 10
138.527193
 20
15.875542
 40
2.5
 1
%%c50
 11
138.527193
 21
15.875542
 50
45
 72
1
 73
2
 0
ENDBLK
 0
BLOCK
 2
*D14
 70
1
 10
0
 20
0
 0
SOLID
 8
0
 10
130.259936
 20
10.849191
 11
130.849191
 21
10.259936
 12
132.32233
 22
12.32233
 13
132.32233
 23
12.32233
 0
LINE
 8
0
 10
132.32233
 20
12.32233
 11
124.773965
 21
4.773965
 0
TEXT
 8
0
 10
128.769119
 20
6.117468
 40
2.5
 1
%%c50
 11
128.769119
 21
6.117468
 50
45
 72
1
 73
2
 0
ENDBLK
 0
BLOCK
 2
*D15
 70
1
 10
0
 20
0
 0
SOLID
 8
0
 10
165.615275
 20
46.20453
 11
166.20453
 21
45.615275
 12
167.67767
 22
47.67767
 13
167.67767
 23
47.67767
 0
LINE
 8
0
 10
167.67767
 20
47.67767
 11
160
 21
40
 0
TEXT
 8
0
 10
163.995153
 20
41.343503
 40
2.5
 1
%%c50
 11
163.995153
 21
41.343503
 50
45
 72
1
 73
2
 0
ENDBLK
 0
BLOCK
 2
*D16
 70
1
 10
0
 20
0
 0
SOLID
 8
0
 10
169.740064
 20
49.150809
 11
169.150809
 21
49.740064
 12
167.67767
 22
47.67767
 13
167.67767
 23
47.67767
 0
LINE
 8
0
 10
167.67767
 20
47.67767
 11
175.226035
 21
55.226035
 0
TEXT
 8
0
 10
173.882532
 20
51.230881
 40
2.5
 1
%%c50
 11
173.882532
 21
51.230881
 50
45
 72
1
 73
2
 0
ENDBLK
 0
BLOCK
 2
*D17
 70
1
 10
0
 20
0
 0
SOLID
 8
0
 10
166.620496
 20
14.828226
 11
166.047375
 21
14.223265
 12
168.148817
 22
12.806384
 13
168.148817
 23
12.806384
 0
SOLID
 8
0
 10
133.379504
 20
45.171774
 11
133.952625
 21
45.776735
 12
131.851183
 22
47.193616
 13
131.851183
 23
47.193616
 0
LINE
 8
0
 10
168.148817
 20
12.806384
 11
174.08348
 21
7.184071
 0
LINE
 8
0
 10
131.851183
 20
47.193616
 11
131.851183
 21
47.193616
 0
POINT
 8
0
 10
131.85118290235434
 20
47.19361619776957
 0
LINE
 8
0
 10
168.148817
 20
12.806384
 11
132.304903
 21
46.763776
 0
TEXT
 8
0
 10
170.053488
 20
8.419146
 40
2.5
 1
%%c50
 11
170.053488
 21
8.419146
 50
-43.451842
 72
1
 73
2
 0
ENDBLK
 0
BLOCK
 2
*D18
 70
1
 10
0
 20
0
 0
SOLID
 8
0
 10
171.477136
 20
23.28016
 11
171.213613
 21
22.489591
 12
173.717082
 22
22.094306
 13
173.717082
 23
22.094306
 0
SOLID
 8
0
 10
128.522864
 20
36.71984
 11
128.786387
 21
37.510409
 12
126.282918
 22
37.905694
 13
126.282918
 23
37.905694
 0
LINE
 8
0
 10
173.717082
 20
22.094306
 11
173.717082
 21
22.094306
 0
LINE
 8
0
 10
126.282918
 20
37.905694
 11
126.282918
 21
37.905694
 0
POINT
 8
0
 10
126.28291754873715
 20
37.90569415042095
 0
LINE
 8
0
 10
173.717082
 20
22.094306
 11
126.875845
 21
37.708052
 0
TEXT
 8
0
 10
149.407073
 20
28.221219
 40
2.5
 1
%%c50
 11
149.407073
 21
28.221219
 50
-18.434949
 72
1
 73
2
 0
ENDBLK
 0
BLOCK
 2
*D19
 70
1
 10
0
 20
0
 0
SOLID
 8
0
 10
14.384725
 20
73.79547
 11
13.79547
 21
74.384725
 12
12.32233
 22
72.32233
 13
12.32233
 23
72.32233
 0
POLYLINE
 8
0
 66
1
 10
0
 20
0
 70
0
 0
VERTEX
 8
0
 10
12.32233
 20
72.32233
 0
VERTEX
 8
0
 10
14.973981
 20
74.973981
 0
VERTEX
 8
0
 10
16.223981
 20
74.973981 
 0
SEQEND
 8
0
 0
TEXT
 8
0
 10
19.998981
 20
74.973981
 40
2.5
 1
%%c50
 11
19.998981
 21
74.973981
 72
1
 73
2
 0
ENDBLK
 0
BLOCK
 2
*D20
 70
1
 10
0
 20
0
 0
SOLID
 8
0
 10
10.259936
 20
70.849191
 11
10.849191
 21
70.259936
 12
12.32233
 22
72.32233
 13
12.32233
 23
72.32233
 0
POLYLINE
 8
0
 66
1
 10
0
 20
0
 70
0
 0
VERTEX
 8
0
 10
12.32233
 20
72.32233
 0
VERTEX
 8
0
 10
9.67068
 20
69.67068
 0
VERTEX
 8
0
 10
8.42068
 20
69.67068 
 0
SEQEND
 8
0
 0
TEXT
 8
0
 10
4.64568
 20
69.67068
 40
2.5
 1
%%c50
 11
4.64568
 21
69.67068
 72
1
 73
2
 0
ENDBLK
 0
BLOCK
 2
*D21
 70
1
 10
0
 20
0
 0
SOLID
 8
0
 10
45.615275
 20
106.20453
 11
46.20453
 21
105.615275
 12
47.67767
 22
107.67767
 13
47.67767
 23
107.67767
 0
POLYLINE
 8
0
 66
1
 10
0
 20
0
 70
0
 0
VERTEX
 8
0
 10
47.67767
 20
107.67767
 0
VERTEX
 8
0
 10
40
 20
100
 0
VERTEX
 8
0
 10
38.75
 20
100 
 0
SEQEND
 8
0
 0
TEXT
 8
0
 10
34.975
 20
100
 40
2.5
 1
%%c50
 11
34.975
 21
100
 72
1
 73
2
 0
ENDBLK
 0
BLOCK
 2
*D22
 70
1
 10
0
 20
0
 0
SOLID
 8
0
 10
49.740064
 20
109.150809
 11
49.150809
 21
109.740064
 12
47.67767
 22
107.67767
 13
47.67767
 23
107.67767
 0
POLYLINE
 8
0
 66
1
 10
0
 20
0
 70
0
 0
VERTEX
 8
0
 10
47.67767
 20
107.67767
 0
VERTEX
 8
0
 10
53
 20
113
 0
VERTEX
 8
0
 10
54.25
 20
113 
 0
SEQEND
 8
0
 0
TEXT
 8
0
 10
58.025
 20
113
 40
2.5
 1
%%c50
 11
58.025
 21
113
 72
1
 73
2
 0
ENDBLK
 0
BLOCK
 2
*D23
 70
1
 10
0
 20
0
 0
SOLID
 8
0
 10
46.620496
 20
74.828226
 11
46.047375
 21
74.223265
 12
48.148817
 22
72.806384
 13
48.148817
 23
72.806384
 0
SOLID
 8
0
 10
13.379504
 20
105.171774
 11
13.952625
 21
105.776735
 12
11.851183
 22
107.193616
 13
11.851183
 23
107.193616
 0
POLYLINE
 8
0
 66
1
 10
0
 20
0
 70
0
 0
VERTEX
 8
0
 10
48.148817
 20
72.806384
 0
VERTEX
 8
0
 10
49.963699
 20
71.087022
 0
VERTEX
 8
0
 10
51.213699
 20
71.087022 
 0
SEQEND
 8
0
 0
LINE
 8
0
 10
11.851183
 20
107.193616
 11
11.851183
 21
107.193616
 0
POINT
 8
0
 10
11.851182902354338
 20
107.19361619776957
 0
LINE
 8
0
 10
48.148817
 20
72.806384
 11
12.304903
 21
106.763776
 0
TEXT
 8
0
 10
54.988699
 20
71.087022
 40
2.5
 1
%%c50
 11
54.988699
 21
71.087022
 72
1
 73
2
 0
ENDBLK
 0
BLOCK
 2
*D24
 70
1
 10
0
 20
0
 0
SOLID
 8
0
 10
51.477136
 20
83.28016
 11
51.213613
 21
82.489591
 12
53.717082
 22
82.094306
 13
53.717082
 23
82.094306
 0
SOLID
 8
0
 10
8.522864
 20
96.71984
 11
8.786387
 21
97.510409
 12
6.282918
 22
97.905694
 13
6.282918
 23
97.905694
 0
LINE
 8
0
 10
53.717082
 20
82.094306
 11
53.717082
 21
82.094306
 0
LINE
 8
0
 10
6.282918
 20
97.905694
 11
6.282918
 21
97.905694
 0
POINT
 8
0
 10
6.28291754873716
 20
97.90569415042094
 0
LINE
 8
0
 10
53.717082
 20
82.094306
 11
33.775
 21
88.741667
 0
LINE
 8
0
 10
26.225
 20
91.258333
 11
6.875845
 21
97.708052
 0
TEXT
 8
0
 10
30
 20
90
 40
2.5
 1
%%c50
 11
30
 21
90
 72
1
 73
2
 0
ENDBLK
 0
BLOCK
 2
*D25
 70
1
 10
0
 20
0
 0
SOLID
 8
0
 10
74.384725
 20
73.79547
 11
73.79547
 21
74.384725
 12
72.32233
 22
72.32233
 13
72.32233
 23
72.32233
 0
POLYLINE
 8
0
 66
1
 10
0
 20
0
 70
0
 0
VERTEX
 8
0
 10
72.32233
 20
72.32233
 0
VERTEX
 8
0
 10
74.973981
 20
74.973981
 0
VERTEX
 8
0
 10
82.523981
 20
74.973981 
 0
SEQEND
 8
0
 0
TEXT
 8
0
 10
78.748981
 20
76.848981
 40
2.5
 1
%%c50
 11
78.748981
 21
76.848981
 72
1
 73
2
 0
ENDBLK
 0
BLOCK
 2
*D26
 70
1
 10
0
 20
0
 0
SOLID
 8
0
 10
70.259936
 20
70.849191
 11
70.849191
 21
70.259936
 12
72.32233
 22
72.32233
 13
72.32233
 23
72.32233
 0
POLYLINE
 8
0
 66
1
 10
0
 20
0
 70
0
 0
VERTEX
 8
0
 10
72.32233
 20
72.32233
 0
VERTEX
 8
0
 10
67.902913
 20
67.902913
 0
VERTEX
 8
0
 10
60.352913
 20
67.902913 
 0
SEQEND
 8
0
 0
TEXT
 8
0
 10
64.127913
 20
69.777913
 40
2.5
 1
%%c50
 11
64.127913
 21
69.777913
 72
1
 73
2
 0
ENDBLK
 0
BLOCK
 2
*D27
 70
1
 10
0
 20
0
 0
SOLID
 8
0
 10
105.615275
 20
106.20453
 11
106.20453
 21
105.615275
 12
107.67767
 22
107.67767
 13
107.67767
 23
107.67767
 0
POLYLINE
 8
0
 66
1
 10
0
 20
0
 70
0
 0
VERTEX
 8
0
 10
107.67767
 20
107.67767
 0
VERTEX
 8
0
 10
100
 20
100
 0
VERTEX
 8
0
 10
92.45
 20
100 
 0
SEQEND
 8
0
 0
TEXT
 8
0
 10
96.225
 20
101.875
 40
2.5
 1
%%c50
 11
96.225
 21
101.875
 72
1
 73
2
 0
ENDBLK
 0
BLOCK
 2
*D28
 70
1
 10
0
 20
0
 0
SOLID
 8
0
 10
109.740064
 20
109.150809
 11
109.150809
 21
109.740064
 12
107.67767
 22
107.67767
 13
107.67767
 23
107.67767
 0
POLYLINE
 8
0
 66
1
 10
0
 20
0
 70
0
 0
VERTEX
 8
0
 10
107.67767
 20
107.67767
 0
VERTEX
 8
0
 10
113
 20
113
 0
VERTEX
 8
0
 10
120.55
 20
113 
 0
SEQEND
 8
0
 0
TEXT
 8
0
 10
116.775
 20
114.875
 40
2.5
 1
%%c50
 11
116.775
 21
114.875
 72
1
 73
2
 0
ENDBLK
 0
BLOCK
 2
*D29
 70
1
 10
0
 20
0
 0
SOLID
 8
0
 10
106.620496
 20
74.828226
 11
106.047375
 21
74.223265
 12
108.148817
 22
72.806384
 13
108.148817
 23
72.806384
 0
SOLID
 8
0
 10
73.379504
 20
105.171774
 11
73.952625
 21
105.776735
 12
71.851183
 22
107.193616
 13
71.851183
 23
107.193616
 0
POLYLINE
 8
0
 66
1
 10
0
 20
0
 70
0
 0
VERTEX
 8
0
 10
108.148817
 20
72.806384
 0
VERTEX
 8
0
 10
111.778581
 20
69.367661
 0
VERTEX
 8
0
 10
119.328581
 20
69.367661 
 0
SEQEND
 8
0
 0
LINE
 8
0
 10
71.851183
 20
107.193616
 11
71.851183
 21
107.193616
 0
POINT
 8
0
 10
71.85118290235434
 20
107.19361619776957
 0
LINE
 8
0
 10
108.148817
 20
72.806384
 11
72.304903
 21
106.763776
 0
TEXT
 8
0
 10
115.553581
 20
71.242661
 40
2.5
 1
%%c50
 11
115.553581
 21
71.242661
 72
1
 73
2
 0
ENDBLK
 0
BLOCK
 2
*D30
 70
1
 10
0
 20
0
 0
SOLID
 8
0
 10
111.477136
 20
83.28016
 11
111.213613
 21
82.489591
 12
113.717082
 22
82.094306
 13
113.717082
 23
82.094306
 0
SOLID
 8
0
 10
68.522864
 20
96.71984
 11
68.786387
 21
97.510409
 12
66.282918
 22
97.905694
 13
66.282918
 23
97.905694
 0
LINE
 8
0
 10
113.717082
 20
82.094306
 11
113.717082
 21
82.094306
 0
LINE
 8
0
 10
66.282918
 20
97.905694
 11
66.282918
 21
97.905694
 0
POINT
 8
0
 10
66.28291754873716
 20
97.90569415042094
 0
LINE
 8
0
 10
113.717082
 20
82.094306
 11
93.775
 21
88.741667
 0
LINE
 8
0
 10
86.225
 20
91.258333
 11
66.875845
 21
97.708052
 0
TEXT
 8
0
 10
90
 20
90
 40
2.5
 1
%%c50
 11
90
 21
90
 72
1
 73
2
 0
ENDBLK
 0
BLOCK
 2
*D31
 70
1
 10
0
 20
0
 0
SOLID
 8
0
 10
134.384725
 20
73.79547
 11
133.79547
 21
74.384725
 12
132.32233
 22
72.32233
 13
132.32233
 23
72.32233
 0
POLYLINE
 8
0
 66
1
 10
0
 20
0
 70
0
 0
VERTEX
 8
0
 10
132.32233
 20
72.32233
 0
VERTEX
 8
0
 10
136.741748
 20
76.741748
 0
VERTEX
 8
0
 10
144.291748
 20
76.741748 
 0
SEQEND
 8
0
 0
TEXT
 8
0
 10
140.516748
 20
74.866748
 40
2.5
 1
%%c50
 11
140.516748
 21
74.866748
 72
1
 73
2
 0
ENDBLK
 0
BLOCK
 2
*D32
 70
1
 10
0
 20
0
 0
SOLID
 8
0
 10
130.259936
 20
70.849191
 11
130.849191
 21
70.259936
 12
132.32233
 22
72.32233
 13
132.32233
 23
72.32233
 0
POLYLINE
 8
0
 66
1
 10
0
 20
0
 70
0
 0
VERTEX
 8
0
 10
132.32233
 20
72.32233
 0
VERTEX
 8
0
 10
129.67068
 20
69.67068
 0
VERTEX
 8
0
 10
122.12068
 20
69.67068 
 0
SEQEND
 8
0
 0
TEXT
 8
0
 10
125.89568
 20
67.79568
 40
2.5
 1
%%c50
 11
125.89568
 21
67.79568
 72
1
 73
2
 0
ENDBLK
 0
BLOCK
 2
*D33
 70
1
 10
0
 20
0
 0
SOLID
 8
0
 10
165.615275
 20
106.20453
 11
166.20453
 21
105.615275
 12
167.67767
 22
107.67767
 13
167.67767
 23
107.67767
 0
POLYLINE
 8
0
 66
1
 10
0
 20
0
 70
0
 0
VERTEX
 8
0
 10
167.67767
 20
107.67767
 0
VERTEX
 8
0
 10
160
 20
100
 0
VERTEX
 8
0
 10
152.45
 20
100 
 0
SEQEND
 8
0
 0
TEXT
 8
0
 10
156.225
 20
98.125
 40
2.5
 1
%%c50
 11
156.225
 21
98.125
 72
1
 73
2
 0
ENDBLK
 0
BLOCK
 2
*D34
 70
1
 10
0
 20
0
 0
SOLID
 8
0
 10
169.740064
 20
109.150809
 11
169.150809
 21
109.740064
 12
167.67767
 22
107.67767
 13
167.67767
 23
107.67767
 0
POLYLINE
 8
0
 66
1
 10
0
 20
0
 70
0
 0
VERTEX
 8
0
 10
167.67767
 20
107.67767
 0
VERTEX
 8
0
 10
173
 20
113
 0
VERTEX
 8
0
 10
180.55
 20
113 
 0
SEQEND
 8
0
 0
TEXT
 8
0
 10
176.775
 20
111.125
 40
2.5
 1
%%c50
 11
176.775
 21
111.125
 72
1
 73
2
 0
ENDBLK
 0
BLOCK
 2
*D35
 70
1
 10
0
 20
0
 0
SOLID
 8
0
 10
166.620496
 20
74.828226
 11
166.047375
 21
74.223265
 12
168.148817
 22
72.806384
 13
168.148817
 23
72.806384
 0
SOLID
 8
0
 10
133.379504
 20
105.171774
 11
133.952625
 21
105.776735
 12
131.851183
 22
107.193616
 13
131.851183
 23
107.193616
 0
POLYLINE
 8
0
 66
1
 10
0
 20
0
 70
0
 0
VERTEX
 8
0
 10
168.148817
 20
72.806384
 0
VERTEX
 8
0
 10
169.056258
 20
71.946703
 0
VERTEX
 8
0
 10
176.606258
 20
71.946703 
 0
SEQEND
 8
0
 0
LINE
 8
0
 10
131.851183
 20
107.193616
 11
131.851183
 21
107.193616
 0
POINT
 8
0
 10
131.85118290235434
 20
107.19361619776957
 0
LINE
 8
0
 10
168.148817
 20
72.806384
 11
132.304903
 21
106.763776
 0
TEXT
 8
0
 10
172.831258
 20
70.071703
 40
2.5
 1
%%c50
 11
172.831258
 21
70.071703
 72
1
 73
2
 0
ENDBLK
 0
BLOCK
 2
*D36
 70
1
 10
0
 20
0
 0
SOLID
 8
0
 10
171.477136
 20
83.28016
 11
171.213613
 21
82.489591
 12
173.717082
 22
82.094306
 13
173.717082
 23
82.094306
 0
SOLID
 8
0
 10
128.522864
 20
96.71984
 11
128.786387
 21
97.510409
 12
126.282918
 22
97.905694
 13
126.282918
 23
97.905694
 0
LINE
 8
0
 10
173.717082
 20
82.094306
 11
173.717082
 21
82.094306
 0
LINE
 8
0
 10
126.282918
 20
97.905694
 11
126.282918
 21
97.905694
 0
POINT
 8
0
 10
126.28291754873715
 20
97.90569415042094
 0
LINE
 8
0
 10
173.717082
 20
82.094306
 11
153.775
 21
88.741667
 0
LINE
 8
0
 10
146.225
 20
91.258333
 11
126.875845
 21
97.708052
 0
TEXT
 8
0
 10
150
 20
90
 40
2.5
 1
%%c50
 11
150
 21
90
 72
1
 73
2
 0
ENDBLK
 0
ENDSEC
 0
SECTION
 2
ENTITIES
 0
CIRCLE
 8
0
 10
30
 20
30
 40
25
 0
POINT
 8
0
 10
30
 20
30
 0
CIRCLE
 8
0
 10
90
 20
30
 40
25
 0
CIRCLE
 8
0
 10
150
 20
30
 40
25
 0
CIRCLE
 8
0
 10
150
 20
90
 40
25
 0
CIRCLE
 8
0
 10
90
 20
90
 40
25
 0
CIRCLE
 8
0
 10
30
 20
90
 40
25
 0
POLYLINE
 8
0
 66
1
 10
0
 20
0
 70
1
 0
VERTEX
 8
0
 10
0
 20
0
 0
VERTEX
 8
0
 10
185
 20
0
 0
VERTEX
 8
0
 10
185
 20
125
 0
VERTEX
 8
0
 10
0
 20
125
 0
SEQEND
 8
0
 0
DIMENSION
 8
0
 70
3
 2
*D1
 3
BREAK
 1
<>
 10
47.67766952966369
 20
47.67766952966369
 11
17.643309066200036
 21
17.643309066200047
 15
12.322330470336315
 25
12.322330470336311
 0
DIMENSION
 8
0
 70
3
 2
*D2
 3
BREAK
 1
<>
 10
47.67766952966369
 20
47.67766952966369
 11
7.00135187447258
 21
7.00135187447259
 15
12.322330470336315
 25
12.322330470336311
 0
DIMENSION
 8
0
 70
3
 2
*D3
 3
BREAK
 1
<>
 10
12.322330470336311
 20
12.322330470336311
 11
37.330671833585825
 21
37.330671833585825
 15
47.67766952966369
 25
47.67766952966369
 0
DIMENSION
 8
0
 70
3
 2
*D4
 3
BREAK
 1
<>
 10
12.322330470336311
 20
12.322330470336311
 11
55.669328166414175
 21
55.669328166414175
 15
47.67766952966369
 25
47.67766952966369
 0
DIMENSION
 8
0
 70
3
 2
*D5
 3
BREAK
 1
<>
 10
11.851182902354335
 20
47.19361619776957
 11
52.70417025838696
 21
8.490786071001818
 15
48.14881709764566
 25
12.806383802230425
 0
DIMENSION
 8
0
 70
3
 2
*D6
 3
BREAK
 1
<>
 10
6.2829175487371565
 20
37.90569415042095
 11
30
 21
30
 15
53.71708245126284
 25
22.09430584957905
 0
DIMENSION
 8
0
 70
3
 2
*D7
 3
ABOVE
 1
<>
 10
107.67766952966369
 20
47.67766952966369
 11
75.87554211323369
 21
18.52719254268321
 15
72.32233047033631
 25
12.322330470336311
 0
DIMENSION
 8
0
 70
3
 2
*D8
 3
ABOVE
 1
<>
 10
107.67766952966369
 20
47.67766952966369
 11
66.11746839798938
 21
8.769118827438977
 15
72.32233047033631
 25
12.322330470336311
 0
DIMENSION
 8
0
 70
3
 2
*D9
 3
ABOVE
 1
<>
 10
72.32233047033631
 20
12.322330470336311
 11
101.34350295168937
 21
43.99515338113898
 15
107.67766952966369
 25
47.67766952966369
 0
DIMENSION
 8
0
 70
3
 2
*D10
 3
ABOVE
 1
<>
 10
72.32233047033631
 20
12.322330470336311
 11
111.23088117256108
 21
53.88253160201059
 15
107.67766952966369
 25
47.67766952966369
 0
DIMENSION
 8
0
 70
3
 2
*D11
 3
ABOVE
 1
<>
 10
71.85118290235434
 20
47.19361619776957
 11
112.63253019089626
 21
11.141468568157963
 15
108.14881709764566
 25
12.806383802230425
 0
DIMENSION
 8
0
 70
3
 2
*D12
 3
ABOVE
 1
<>
 10
66.28291754873716
 20
37.90569415042095
 11
90.59292706128157
 21
31.778781183844714
 15
113.71708245126284
 25
22.09430584957905
 0
DIMENSION
 8
0
 70
3
 2
*D13
 3
BELOW
 1
<>
 10
167.6776695296637
 20
47.67766952966369
 11
138.52719254268325
 21
15.875542113233644
 15
132.3223304703363
 25
12.322330470336311
 0
DIMENSION
 8
0
 70
3
 2
*D14
 3
BELOW
 1
<>
 10
167.6776695296637
 20
47.67766952966369
 11
128.76911882743892
 21
6.117468397989412
 15
132.3223304703363
 25
12.322330470336311
 0
DIMENSION
 8
0
 70
3
 2
*D15
 3
BELOW
 1
<>
 10
132.3223304703363
 20
12.322330470336311
 11
163.99515338113892
 21
41.343502951689416
 15
167.6776695296637
 25
47.67766952966369
 0
DIMENSION
 8
0
 70
3
 2
*D16
 3
BELOW
 1
<>
 10
132.3223304703363
 20
12.322330470336311
 11
173.88253160201063
 21
51.23088117256102
 15
167.6776695296637
 25
47.67766952966369
 0
DIMENSION
 8
0
 70
3
 2
*D17
 3
BELOW
 1
<>
 10
131.85118290235434
 20
47.19361619776957
 11
170.05348776123083
 21
8.419146003511111
 15
168.14881709764566
 25
12.806383802230425
 0
DIMENSION
 8
0
 70
3
 2
*D18
 3
BELOW
 1
<>
 10
126.28291754873716
 20
37.90569415042095
 11
149.40707293871844
 21
28.221218816155286
 15
173.71708245126285
 25
22.09430584957905
 0
DIMENSION
 8
0
 70
3
 2
*D19
 3
HORZ-BREAK
 1
<>
 10
47.67766952966369
 20
107.67766952966369
 11
19.99898099515329
 21
74.97398089978587
 15
12.322330470336315
 25
72.32233047033631
 0
DIMENSION
 8
0
 70
3
 2
*D20
 3
HORZ-BREAK
 1
<>
 10
47.67766952966369
 20
107.67766952966369
 11
4.64567994551934
 21
69.67068004088675
 15
12.322330470336315
 25
72.32233047033631
 0
DIMENSION
 8
0
 70
3
 2
*D21
 3
HORZ-BREAK
 1
<>
 10
12.322330470336311
 20
72.32233047033631
 11
34.97499990463262
 21
99.99999999999996
 15
47.67766952966369
 25
107.67766952966369
 0
DIMENSION
 8
0
 70
3
 2
*D22
 3
HORZ-BREAK
 1
<>
 10
12.322330470336311
 20
72.32233047033631
 11
58.0250000953674
 21
113.00000000000003
 15
47.67766952966369
 25
107.67766952966369
 0
DIMENSION
 8
0
 70
3
 2
*D23
 3
HORZ-BREAK
 1
<>
 10
11.851182902354335
 20
107.19361619776957
 11
54.988698902777664
 21
71.08702218245348
 15
48.14881709764566
 25
72.80638380223043
 0
DIMENSION
 8
0
 70
3
 2
*D24
 3
HORZ-BREAK
 1
<>
 10
6.2829175487371565
 20
97.90569415042094
 11
30
 21
90
 15
53.71708245126284
 25
82.09430584957906
 0
DIMENSION
 8
0
 70
3
 2
*D25
 3
HORZ-ABOVE
 1
<>
 10
107.67766952966369
 20
107.67766952966369
 11
78.74898099515329
 21
76.84898089978586
 15
72.32233047033631
 25
72.32233047033631
 0
DIMENSION
 8
0
 70
3
 2
*D26
 3
HORZ-ABOVE
 1
<>
 10
107.67766952966369
 20
107.67766952966369
 11
64.12791299255295
 21
69.7779130879204
 15
72.32233047033631
 25
72.32233047033631
 0
DIMENSION
 8
0
 70
3
 2
*D27
 3
HORZ-ABOVE
 1
<>
 10
72.32233047033631
 20
72.32233047033631
 11
96.22499990463257
 21
101.875
 15
107.67766952966369
 25
107.67766952966369
 0
DIMENSION
 8
0
 70
3
 2
*D28
 3
HORZ-ABOVE
 1
<>
 10
72.32233047033631
 20
72.32233047033631
 11
116.77500009536743
 21
114.875
 15
107.67766952966369
 25
107.67766952966369
 0
DIMENSION
 8
0
 70
3
 2
*D29
 3
HORZ-ABOVE
 1
<>
 10
71.85118290235434
 20
107.19361619776957
 11
115.55358061254222
 21
71.24266056267652
 15
108.14881709764566
 25
72.80638380223043
 0
DIMENSION
 8
0
 70
3
 2
*D30
 3
HORZ-ABOVE
 1
<>
 10
66.28291754873716
 20
97.90569415042094
 11
90
 21
90
 15
113.71708245126284
 25
82.09430584957906
 0
DIMENSION
 8
0
 70
3
 2
*D31
 3
HORZ-BELOW
 1
<>
 10
167.6776695296637
 20
107.67766952966369
 11
140.51674794811967
 21
74.86674785275224
 15
132.3223304703363
 25
72.32233047033631
 0
DIMENSION
 8
0
 70
3
 2
*D32
 3
HORZ-BELOW
 1
<>
 10
167.6776695296637
 20
107.67766952966369
 11
125.89567994551933
 21
67.79568004088677
 15
132.3223304703363
 25
72.32233047033631
 0
DIMENSION
 8
0
 70
3
 2
*D33
 3
HORZ-BELOW
 1
<>
 10
132.3223304703363
 20
72.32233047033631
 11
156.22499990463257
 21
98.125
 15
167.6776695296637
 25
107.67766952966369
 0
DIMENSION
 8
0
 70
3
 2
*D34
 3
HORZ-BELOW
 1
<>
 10
132.3223304703363
 20
72.32233047033631
 11
176.77500009536743
 21
111.125
 15
167.6776695296637
 25
107.67766952966369
 0
DIMENSION
 8
0
 70
3
 2
*D35
 3
HORZ-BELOW
 1
<>
 10
131.85118290235434
 20
107.19361619776957
 11
172.83125804789537
 21
70.07170299234195
 15
168.14881709764566
 25
72.80638380223043
 0
DIMENSION
 8
0
 70
3
 2
*D36
 3
HORZ-BELOW
 1
<>
 10
126.28291754873716
 20
97.90569415042094
 11
150
 21
90
 15
173.71708245126285
 25
82.09430584957906
 0
ENDSEC
 0
EOF
