 0
SECTION
 2
HEADER
 9
$ACADVER
 1
AC1009
 9
$EXTMIN
 10
10
 20
10
 30
0
 9
$EXTMAX
 10
245
 20
160
 30
0
 9
$VIEWCTR
 10
127.5
 20
85
 9
$VIEWSIZE
 40
165
 9
$CLAYER
 8
0
 9
$DIMSTYLE
 2
HORZBELOW
 0
ENDSEC
 0
SECTION
 2
TABLES
 0
TABLE
 2
LAYER
 70
1
 0
LAYER
 2
0
 70
0
 62
7
 6
CONTINUOUS
 0
ENDTAB
 0
TABLE
 2
STYLE
 70
1
 0
STYLE
 2
STANDARD
 70
0
 40
0
 41
1
 50
0
 71
0
 42
1
 3
SIMPLEX
 4

 0
ENDTAB
 0
TABLE
 2
DIMSTYLE
 70
6
 0
DIMSTYLE
 2
BREAK
 70
0
 3

 4

 5

 6

 7

 40
1
 41
2.5
 42
0.625
 43
3.75
 44
1.25
 45
0
 46
0
 47
0
 48
0
 140
2.5
 141
2.5
 142
0
 143
25.4
 144
1
 145
0
 146
1
 147
0.625
 71
0
 72
0
 73
0
 74
0
 75
0
 76
0
 77
0
 78
0
 170
0
 171
2
 172
1
 173
0
 174
0
 175
0
 176
0
 177
0
 178
0
 0
DIMSTYLE
 2
ABOVE
 70
0
 3

 4

 5

 6

 7

 40
1
 41
2.5
 42
0.625
 43
3.75
 44
1.25
 45
0
 46
0
 47
0
 48
0
 140
2.5
 141
2.5
 142
0
 143
25.4
 144
1
 145
0
 146
1
 147
0.625
 71
0
 72
0
 73
0
 74
0
 75
0
 76
0
 77
1
 78
0
 170
0
 171
2
 172
1
 173
0
 174
0
 175
0
 176
0
 177
0
 178
0
 0
DIMSTYLE
 2
BELOW
 70
0
 3

 4

 5

 6

 7

 40
1
 41
2.5
 42
0.625
 43
3.75
 44
1.25
 45
0
 46
0
 47
0
 48
0
 140
2.5
 141
2.5
 142
0
 143
25.4
 144
1
 145
0
 146
1
 147
0.625
 71
0
 72
0
 73
0
 74
0
 75
0
 76
0
 77
4
 78
0
 170
0
 171
2
 172
1
 173
0
 174
0
 175
0
 176
0
 177
0
 178
0
 0
DIMSTYLE
 2
HORZ
 70
0
 3

 4

 5

 6

 7

 40
1
 41
2.5
 42
0.625
 43
3.75
 44
1.25
 45
0
 46
0
 47
0
 48
0
 140
2.5
 141
2.5
 142
0
 143
25.4
 144
1
 145
0
 146
1
 147
0.625
 71
0
 72
0
 73
1
 74
1
 75
0
 76
0
 77
0
 78
0
 170
0
 171
2
 172
1
 173
0
 174
0
 175
0
 176
0
 177
0
 178
0
 0
DIMSTYLE
 2
HORZABOVE
 70
0
 3

 4

 5

 6

 7

 40
1
 41
2.5
 42
0.625
 43
3.75
 44
1.25
 45
0
 46
0
 47
0
 48
0
 140
2.5
 141
2.5
 142
0
 143
25.4
 144
1
 145
0
 146
1
 147
0.625
 71
0
 72
0
 73
1
 74
1
 75
0
 76
0
 77
1
 78
0
 170
0
 171
2
 172
1
 173
0
 174
0
 175
0
 176
0
 177
0
 178
0
 0
DIMSTYLE
 2
HORZBELOW
 70
0
 3

 4

 5

 6

 7

 40
1
 41
2.5
 42
0.625
 43
3.75
 44
1.25
 45
0
 46
0
 47
0
 48
0
 140
2.5
 141
2.5
 142
0
 143
25.4
 144
1
 145
0
 146
1
 147
0.625
 71
0
 72
0
 73
1
 74
1
 75
0
 76
0
 77
4
 78
0
 170
0
 171
2
 172
1
 173
0
 174
0
 175
0
 176
0
 177
0
 178
0
 0
ENDTAB
 0
ENDSEC
 0
SECTION
 2
BLOCKS
 0
BLOCK
 2
*D1
 70
1
 10
0
 20
0
 0
SOLID
 8
0
 10
81.630688
 20
57.478182
 11
81.428575
 21
58.286634
 12
79.104275
 22
57.276069
 13
79.104275
 23
57.276069
 0
TEXT
 8
0
 10
87.617276
 20
59.404319
 40
2.5
 1
%%c60
 11
87.617276
 21
59.404319
 50
14.036243
 72
1
 73
2
 0
LINE
 8
0
 10
79.104275
 20
57.276069
 11
83.954988
 21
58.488747
 0
ENDBLK
 0
BLOCK
 2
*D2
 70
1
 10
0
 20
0
 0
SOLID
 8
0
 10
75.378363
 20
60.600109
 11
75.687855
 21
59.826378
 12
77.854301
 22
61.14172
 13
77.854301
 23
61.14172
 0
TEXT
 8
0
 10
69.706918
 20
57.882767
 40
2.5
 1
%%c60
 11
69.706918
 21
57.882767
 50
21.801409
 72
1
 73
2
 0
LINE
 8
0
 10
77.854301
 20
61.14172
 11
73.211917
 21
59.284767
 0
ENDBLK
 0
BLOCK
 2
*D3
 70
1
 10
0
 20
0
 0
SOLID
 8
0
 10
76.454564
 20
68.883317
 11
75.961761
 21
69.555321
 12
74.19215
 22
67.74091
 13
74.19215
 23
67.74091
 0
TEXT
 8
0
 10
83.044179
 20
74.232398
 40
2.5
 1
%%c60
 11
83.044179
 21
74.232398
 50
36.253838
 72
1
 73
2
 0
LINE
 8
0
 10
74.19215
 20
67.74091
 11
80
 21
72
 0
ENDBLK
 0
BLOCK
 2
*D4
 70
1
 10
0
 20
0
 0
SOLID
 8
0
 10
30.180279
 20
30.931642
 11
29.611681
 21
31.540854
 12
28.068342
 22
29.530452
 13
28.068342
 23
29.530452
 0
TEXT
 8
0
 10
37.759734
 20
38.575751
 40
2.5
 1
%%c60
 11
37.759734
 21
38.575751
 50
43.025066
 72
1
 73
2
 0
LINE
 8
0
 10
28.068342
 20
29.530452
 11
35
 21
36
 0
ENDBLK
 0
BLOCK
 2
*D5
 70
1
 10
0
 20
0
 0
SOLID
 8
0
 10
23.039138
 20
55.434658
 11
23.216162
 21
56.248972
 12
20.684709
 22
56.372889
 13
20.684709
 23
56.372889
 0
SOLID
 8
0
 10
76.960862
 20
44.565342
 11
76.783838
 21
43.751028
 12
79.315291
 22
43.627111
 13
79.315291
 23
43.627111
 0
TEXT
 8
0
 10
50
 20
50
 40
2.5
 1
%%c60
 11
50
 21
50
 50
-12.264774
 72
1
 73
2
 0
LINE
 8
0
 10
79.315291
 20
43.627111
 11
53.688841
 21
49.198078
 0
LINE
 8
0
 10
46.311159
 20
50.801922
 11
20.684709
 21
56.372889
 0
ENDBLK
 0
BLOCK
 2
*D6
 70
1
 10
0
 20
0
 0
SOLID
 8
0
 10
74.404677
 20
28.532923
 11
74.947003
 21
29.165637
 12
72.777698
 22
30.476259
 13
72.777698
 23
30.476259
 0
SOLID
 8
0
 10
25.595323
 20
71.467077
 11
25.052997
 21
70.834363
 12
27.222302
 22
69.523741
 13
27.222302
 23
69.523741
 0
TEXT
 8
0
 10
80.866194
 20
23.543263
 40
2.5
 1
%%c60
 11
80.866194
 21
23.543263
 50
-40.601295
 72
1
 73
2
 0
LINE
 8
0
 10
23.426019
 20
72.777698
 11
78
 21
26
 0
ENDBLK
 0
BLOCK
 2
*D7
 70
1
 10
0
 20
0
 0
SOLID
 8
0
 10
156.630688
 20
57.478182
 11
156.428575
 21
58.286634
 12
154.104275
 22
57.276069
 13
154.104275
 23
57.276069
 0
TEXT
 8
0
 10
160.343504
 20
60.768582
 40
2.5
 1
%%c60
 11
160.343504
 21
60.768582
 50
14.036243
 72
1
 73
2
 0
LINE
 8
0
 10
154.104275
 20
57.276069
 11
164.460546
 21
59.865137
 0
ENDBLK
 0
BLOCK
 2
*D8
 70
1
 10
0
 20
0
 0
SOLID
 8
0
 10
150.378363
 20
60.600109
 11
150.687855
 21
59.826378
 12
152.854301
 22
61.14172
 13
152.854301
 23
61.14172
 0
TEXT
 8
0
 10
145.751454
 20
60.320018
 40
2.5
 1
%%c60
 11
145.751454
 21
60.320018
 50
21.801409
 72
1
 73
2
 0
LINE
 8
0
 10
152.854301
 20
61.14172
 11
142.942812
 21
57.177125
 0
ENDBLK
 0
BLOCK
 2
*D9
 70
1
 10
0
 20
0
 0
SOLID
 8
0
 10
151.454564
 20
68.883317
 11
150.961761
 21
69.555321
 12
149.19215
 22
67.74091
 13
149.19215
 23
67.74091
 0
TEXT
 8
0
 10
153.647538
 20
73.333329
 40
2.5
 1
%%c60
 11
153.647538
 21
73.333329
 50
36.253838
 72
1
 73
2
 0
LINE
 8
0
 10
149.19215
 20
67.74091
 11
157.800523
 21
74.053717
 0
ENDBLK
 0
BLOCK
 2
*D10
 70
1
 10
0
 20
0
 0
SOLID
 8
0
 10
105.180279
 20
30.931642
 11
104.611681
 21
31.540854
 12
103.068342
 22
29.530452
 13
103.068342
 23
29.530452
 0
TEXT
 8
0
 10
106.833277
 20
35.609177
 40
2.5
 1
%%c60
 11
106.833277
 21
35.609177
 50
43.025066
 72
1
 73
2
 0
LINE
 8
0
 10
103.068342
 20
29.530452
 11
110.872357
 21
36.8142
 0
ENDBLK
 0
BLOCK
 2
*D11
 70
1
 10
0
 20
0
 0
SOLID
 8
0
 10
98.039138
 20
55.434658
 11
98.216162
 21
56.248972
 12
95.684709
 22
56.372889
 13
95.684709
 23
56.372889
 0
SOLID
 8
0
 10
151.960862
 20
44.565342
 11
151.783838
 21
43.751028
 12
154.315291
 22
43.627111
 13
154.315291
 23
43.627111
 0
TEXT
 8
0
 10
125
 20
50
 40
2.5
 1
%%c60
 11
125
 21
50
 50
-12.264774
 72
1
 73
2
 0
LINE
 8
0
 10
154.315291
 20
43.627111
 11
128.688841
 21
49.198078
 0
LINE
 8
0
 10
121.311159
 20
50.801922
 11
95.684709
 21
56.372889
 0
ENDBLK
 0
BLOCK
 2
*D12
 70
1
 10
0
 20
0
 0
SOLID
 8
0
 10
149.404677
 20
28.532923
 11
149.947003
 21
29.165637
 12
147.777698
 22
30.476259
 13
147.777698
 23
30.476259
 0
SOLID
 8
0
 10
100.595323
 20
71.467077
 11
100.052997
 21
70.834363
 12
102.222302
 22
69.523741
 13
102.222302
 23
69.523741
 0
TEXT
 8
0
 10
154.236803
 20
27.409404
 40
2.5
 1
%%c60
 11
154.236803
 21
27.409404
 50
-40.601295
 72
1
 73
2
 0
LINE
 8
0
 10
98.426019
 20
72.777698
 11
155.882762
 21
23.529061
 0
ENDBLK
 0
BLOCK
 2
*D13
 70
1
 10
0
 20
0
 0
SOLID
 8
0
 10
231.630688
 20
57.478182
 11
231.428575
 21
58.286634
 12
229.104275
 22
57.276069
 13
229.104275
 23
57.276069
 0
TEXT
 8
0
 10
236.253013
 20
57.130547
 40
2.5
 1
%%c60
 11
236.253013
 21
57.130547
 50
14.036243
 72
1
 73
2
 0
LINE
 8
0
 10
229.104275
 20
57.276069
 11
239.460546
 21
59.865137
 0
ENDBLK
 0
BLOCK
 2
*D14
 70
1
 10
0
 20
0
 0
SOLID
 8
0
 10
225.378363
 20
60.600109
 11
225.687855
 21
59.826378
 12
227.854301
 22
61.14172
 13
227.854301
 23
61.14172
 0
TEXT
 8
0
 10
222.144169
 20
56.838231
 40
2.5
 1
%%c60
 11
222.144169
 21
56.838231
 50
21.801409
 72
1
 73
2
 0
LINE
 8
0
 10
227.854301
 20
61.14172
 11
217.942812
 21
57.177125
 0
ENDBLK
 0
BLOCK
 2
*D15
 70
1
 10
0
 20
0
 0
SOLID
 8
0
 10
226.454564
 20
68.883317
 11
225.961761
 21
69.555321
 12
224.19215
 22
67.74091
 13
224.19215
 23
67.74091
 0
TEXT
 8
0
 10
230.865151
 20
70.30931
 40
2.5
 1
%%c60
 11
230.865151
 21
70.30931
 50
36.253838
 72
1
 73
2
 0
LINE
 8
0
 10
224.19215
 20
67.74091
 11
232.800523
 21
74.053717
 0
ENDBLK
 0
BLOCK
 2
*D16
 70
1
 10
0
 20
0
 0
SOLID
 8
0
 10
180.180279
 20
30.931642
 11
179.611681
 21
31.540854
 12
178.068342
 22
29.530452
 13
178.068342
 23
29.530452
 0
TEXT
 8
0
 10
184.39197
 20
32.86772
 40
2.5
 1
%%c60
 11
184.39197
 21
32.86772
 50
43.025066
 72
1
 73
2
 0
LINE
 8
0
 10
178.068342
 20
29.530452
 11
185.872357
 21
36.8142
 0
ENDBLK
 0
BLOCK
 2
*D17
 70
1
 10
0
 20
0
 0
SOLID
 8
0
 10
173.039138
 20
55.434658
 11
173.216162
 21
56.248972
 12
170.684709
 22
56.372889
 13
170.684709
 23
56.372889
 0
SOLID
 8
0
 10
226.960862
 20
44.565342
 11
226.783838
 21
43.751028
 12
229.315291
 22
43.627111
 13
229.315291
 23
43.627111
 0
TEXT
 8
0
 10
200
 20
50
 40
2.5
 1
%%c60
 11
200
 21
50
 50
-12.264774
 72
1
 73
2
 0
LINE
 8
0
 10
229.315291
 20
43.627111
 11
203.688841
 21
49.198078
 0
LINE
 8
0
 10
196.311159
 20
50.801922
 11
170.684709
 21
56.372889
 0
ENDBLK
 0
BLOCK
 2
*D18
 70
1
 10
0
 20
0
 0
SOLID
 8
0
 10
224.404677
 20
28.532923
 11
224.947003
 21
29.165637
 12
222.777698
 22
30.476259
 13
222.777698
 23
30.476259
 0
SOLID
 8
0
 10
175.595323
 20
71.467077
 11
175.052997
 21
70.834363
 12
177.222302
 22
69.523741
 13
177.222302
 23
69.523741
 0
TEXT
 8
0
 10
226.796335
 20
24.562192
 40
2.5
 1
%%c60
 11
226.796335
 21
24.562192
 50
-40.601295
 72
1
 73
2
 0
LINE
 8
0
 10
173.426019
 20
72.777698
 11
230.882762
 21
23.529061
 0
ENDBLK
 0
BLOCK
 2
*D19
 70
1
 10
0
 20
0
 0
SOLID
 8
0
 10
81.630688
 20
127.478182
 11
81.428575
 21
128.286634
 12
79.104275
 22
127.276069
 13
79.104275
 23
127.276069
 0
TEXT
 8
0
 10
90.229988
 20
128.488747
 40
2.5
 1
%%c60
 11
90.229988
 21
128.488747
 72
1
 73
2
 0
POLYLINE
 8
0
 66
1
 10
0
 20
0
 70
0
 0
VERTEX
 8
0
 10
79.104275
 20
127.276069
 0
VERTEX
 8
0
 10
83.954988
 20
128.488747
 0
VERTEX
 8
0
 10
86.454988
 20
128.488747 
 0
SEQEND
 8
0
 0
ENDBLK
 0
BLOCK
 2
*D20
 70
1
 10
0
 20
0
 0
SOLID
 8
0
 10
75.378363
 20
130.600109
 11
75.687855
 21
129.826378
 12
77.854301
 22
131.14172
 13
77.854301
 23
131.14172
 0
TEXT
 8
0
 10
66.936917
 20
129.284767
 40
2.5
 1
%%c60
 11
66.936917
 21
129.284767
 72
1
 73
2
 0
POLYLINE
 8
0
 66
1
 10
0
 20
0
 70
0
 0
VERTEX
 8
0
 10
77.854301
 20
131.14172
 0
VERTEX
 8
0
 10
73.211917
 20
129.284767
 0
VERTEX
 8
0
 10
70.711917
 20
129.284767 
 0
SEQEND
 8
0
 0
ENDBLK
 0
BLOCK
 2
*D21
 70
1
 10
0
 20
0
 0
SOLID
 8
0
 10
76.454564
 20
138.883317
 11
75.961761
 21
139.555321
 12
74.19215
 22
137.74091
 13
74.19215
 23
137.74091
 0
TEXT
 8
0
 10
86.275
 20
142
 40
2.5
 1
%%c60
 11
86.275
 21
142
 72
1
 73
2
 0
POLYLINE
 8
0
 66
1
 10
0
 20
0
 70
0
 0
VERTEX
 8
0
 10
74.19215
 20
137.74091
 0
VERTEX
 8
0
 10
80
 20
142
 0
VERTEX
 8
0
 10
82.5
 20
142 
 0
SEQEND
 8
0
 0
ENDBLK
 0
BLOCK
 2
*D22
 70
1
 10
0
 20
0
 0
SOLID
 8
0
 10
30.180279
 20
100.931642
 11
29.611681
 21
101.540854
 12
28.068342
 22
99.530452
 13
28.068342
 23
99.530452
 0
TEXT
 8
0
 10
41.275
 20
106
 40
2.5
 1
%%c60
 11
41.275
 21
106
 72
1
 73
2
 0
POLYLINE
 8
0
 66
1
 10
0
 20
0
 70
0
 0
VERTEX
 8
0
 10
28.068342
 20
99.530452
 0
VERTEX
 8
0
 10
35
 20
106
 0
VERTEX
 8
0
 10
37.5
 20
106 
 0
SEQEND
 8
0
 0
ENDBLK
 0
BLOCK
 2
*D23
 70
1
 10
0
 20
0
 0
SOLID
 8
0
 10
23.039138
 20
125.434658
 11
23.216162
 21
126.248972
 12
20.684709
 22
126.372889
 13
20.684709
 23
126.372889
 0
SOLID
 8
0
 10
76.960862
 20
114.565342
 11
76.783838
 21
113.751028
 12
79.315291
 22
113.627111
 13
79.315291
 23
113.627111
 0
TEXT
 8
0
 10
50
 20
120
 40
2.5
 1
%%c60
 11
50
 21
120
 72
1
 73
2
 0
LINE
 8
0
 10
79.315291
 20
113.627111
 11
53.775
 21
119.179348
 0
LINE
 8
0
 10
46.225
 20
120.820652
 11
20.684709
 21
126.372889
 0
ENDBLK
 0
BLOCK
 2
*D24
 70
1
 10
0
 20
0
 0
SOLID
 8
0
 10
74.404677
 20
98.532923
 11
74.947003
 21
99.165637
 12
72.777698
 22
100.476259
 13
72.777698
 23
100.476259
 0
SOLID
 8
0
 10
25.595323
 20
141.467077
 11
25.052997
 21
140.834363
 12
27.222302
 22
139.523741
 13
27.222302
 23
139.523741
 0
TEXT
 8
0
 10
84.275
 20
96
 40
2.5
 1
%%c60
 11
84.275
 21
96
 72
1
 73
2
 0
POLYLINE
 8
0
 66
1
 10
0
 20
0
 70
0
 0
VERTEX
 8
0
 10
23.426019
 20
142.777698
 0
VERTEX
 8
0
 10
78
 20
96
 0
VERTEX
 8
0
 10
80.5
 20
96 
 0
SEQEND
 8
0
 0
ENDBLK
 0
BLOCK
 2
*D25
 70
1
 10
0
 20
0
 0
SOLID
 8
0
 10
156.630688
 20
127.478182
 11
156.428575
 21
128.286634
 12
154.104275
 22
127.276069
 13
154.104275
 23
127.276069
 0
TEXT
 8
0
 10
162.729988
 20
130.363747
 40
2.5
 1
%%c60
 11
162.729988
 21
130.363747
 72
1
 73
2
 0
POLYLINE
 8
0
 66
1
 10
0
 20
0
 70
0
 0
VERTEX
 8
0
 10
154.104275
 20
127.276069
 0
VERTEX
 8
0
 10
158.954988
 20
128.488747
 0
VERTEX
 8
0
 10
166.504988
 20
128.488747 
 0
SEQEND
 8
0
 0
ENDBLK
 0
BLOCK
 2
*D26
 70
1
 10
0
 20
0
 0
SOLID
 8
0
 10
150.378363
 20
130.600109
 11
150.687855
 21
129.826378
 12
152.854301
 22
131.14172
 13
152.854301
 23
131.14172
 0
TEXT
 8
0
 10
144.436917
 20
131.159767
 40
2.5
 1
%%c60
 11
144.436917
 21
131.159767
 72
1
 73
2
 0
POLYLINE
 8
0
 66
1
 10
0
 20
0
 70
0
 0
VERTEX
 8
0
 10
152.854301
 20
131.14172
 0
VERTEX
 8
0
 10
148.211917
 20
129.284767
 0
VERTEX
 8
0
 10
140.661917
 20
129.284767 
 0
SEQEND
 8
0
 0
ENDBLK
 0
BLOCK
 2
*D27
 70
1
 10
0
 20
0
 0
SOLID
 8
0
 10
151.454564
 20
138.883317
 11
150.961761
 21
139.555321
 12
149.19215
 22
137.74091
 13
149.19215
 23
137.74091
 0
TEXT
 8
0
 10
158.775
 20
143.875
 40
2.5
 1
%%c60
 11
158.775
 21
143.875
 72
1
 73
2
 0
POLYLINE
 8
0
 66
1
 10
0
 20
0
 70
0
 0
VERTEX
 8
0
 10
149.19215
 20
137.74091
 0
VERTEX
 8
0
 10
155
 20
142
 0
VERTEX
 8
0
 10
162.55
 20
142 
 0
SEQEND
 8
0
 0
ENDBLK
 0
BLOCK
 2
*D28
 70
1
 10
0
 20
0
 0
SOLID
 8
0
 10
105.180279
 20
100.931642
 11
104.611681
 21
101.540854
 12
103.068342
 22
99.530452
 13
103.068342
 23
99.530452
 0
TEXT
 8
0
 10
113.775
 20
107.875
 40
2.5
 1
%%c60
 11
113.775
 21
107.875
 72
1
 73
2
 0
POLYLINE
 8
0
 66
1
 10
0
 20
0
 70
0
 0
VERTEX
 8
0
 10
103.068342
 20
99.530452
 0
VERTEX
 8
0
 10
110
 20
106
 0
VERTEX
 8
0
 10
117.55
 20
106 
 0
SEQEND
 8
0
 0
ENDBLK
 0
BLOCK
 2
*D29
 70
1
 10
0
 20
0
 0
SOLID
 8
0
 10
98.039138
 20
125.434658
 11
98.216162
 21
126.248972
 12
95.684709
 22
126.372889
 13
95.684709
 23
126.372889
 0
SOLID
 8
0
 10
151.960862
 20
114.565342
 11
151.783838
 21
113.751028
 12
154.315291
 22
113.627111
 13
154.315291
 23
113.627111
 0
TEXT
 8
0
 10
125
 20
120
 40
2.5
 1
%%c60
 11
125
 21
120
 72
1
 73
2
 0
LINE
 8
0
 10
154.315291
 20
113.627111
 11
128.775
 21
119.179348
 0
LINE
 8
0
 10
121.225
 20
120.820652
 11
95.684709
 21
126.372889
 0
ENDBLK
 0
BLOCK
 2
*D30
 70
1
 10
0
 20
0
 0
SOLID
 8
0
 10
149.404677
 20
98.532923
 11
149.947003
 21
99.165637
 12
147.777698
 22
100.476259
 13
147.777698
 23
100.476259
 0
SOLID
 8
0
 10
100.595323
 20
141.467077
 11
100.052997
 21
140.834363
 12
102.222302
 22
139.523741
 13
102.222302
 23
139.523741
 0
TEXT
 8
0
 10
156.775
 20
97.875
 40
2.5
 1
%%c60
 11
156.775
 21
97.875
 72
1
 73
2
 0
POLYLINE
 8
0
 66
1
 10
0
 20
0
 70
0
 0
VERTEX
 8
0
 10
98.426019
 20
142.777698
 0
VERTEX
 8
0
 10
153
 20
96
 0
VERTEX
 8
0
 10
160.55
 20
96 
 0
SEQEND
 8
0
 0
ENDBLK
 0
BLOCK
 2
*D31
 70
1
 10
0
 20
0
 0
SOLID
 8
0
 10
231.630688
 20
127.478182
 11
231.428575
 21
128.286634
 12
229.104275
 22
127.276069
 13
229.104275
 23
127.276069
 0
TEXT
 8
0
 10
237.729988
 20
126.613747
 40
2.5
 1
%%c60
 11
237.729988
 21
126.613747
 72
1
 73
2
 0
POLYLINE
 8
0
 66
1
 10
0
 20
0
 70
0
 0
VERTEX
 8
0
 10
229.104275
 20
127.276069
 0
VERTEX
 8
0
 10
233.954988
 20
128.488747
 0
VERTEX
 8
0
 10
241.504988
 20
128.488747 
 0
SEQEND
 8
0
 0
ENDBLK
 0
BLOCK
 2
*D32
 70
1
 10
0
 20
0
 0
SOLID
 8
0
 10
225.378363
 20
130.600109
 11
225.687855
 21
129.826378
 12
227.854301
 22
131.14172
 13
227.854301
 23
131.14172
 0
TEXT
 8
0
 10
219.436917
 20
127.409767
 40
2.5
 1
%%c60
 11
219.436917
 21
127.409767
 72
1
 73
2
 0
POLYLINE
 8
0
 66
1
 10
0
 20
0
 70
0
 0
VERTEX
 8
0
 10
227.854301
 20
131.14172
 0
VERTEX
 8
0
 10
223.211917
 20
129.284767
 0
VERTEX
 8
0
 10
215.661917
 20
129.284767 
 0
SEQEND
 8
0
 0
ENDBLK
 0
BLOCK
 2
*D33
 70
1
 10
0
 20
0
 0
SOLID
 8
0
 10
226.454564
 20
138.883317
 11
225.961761
 21
139.555321
 12
224.19215
 22
137.74091
 13
224.19215
 23
137.74091
 0
TEXT
 8
0
 10
233.775
 20
140.125
 40
2.5
 1
%%c60
 11
233.775
 21
140.125
 72
1
 73
2
 0
POLYLINE
 8
0
 66
1
 10
0
 20
0
 70
0
 0
VERTEX
 8
0
 10
224.19215
 20
137.74091
 0
VERTEX
 8
0
 10
230
 20
142
 0
VERTEX
 8
0
 10
237.55
 20
142 
 0
SEQEND
 8
0
 0
ENDBLK
 0
BLOCK
 2
*D34
 70
1
 10
0
 20
0
 0
SOLID
 8
0
 10
180.180279
 20
100.931642
 11
179.611681
 21
101.540854
 12
178.068342
 22
99.530452
 13
178.068342
 23
99.530452
 0
TEXT
 8
0
 10
188.775
 20
104.125
 40
2.5
 1
%%c60
 11
188.775
 21
104.125
 72
1
 73
2
 0
POLYLINE
 8
0
 66
1
 10
0
 20
0
 70
0
 0
VERTEX
 8
0
 10
178.068342
 20
99.530452
 0
VERTEX
 8
0
 10
185
 20
106
 0
VERTEX
 8
0
 10
192.55
 20
106 
 0
SEQEND
 8
0
 0
ENDBLK
 0
BLOCK
 2
*D35
 70
1
 10
0
 20
0
 0
SOLID
 8
0
 10
173.039138
 20
125.434658
 11
173.216162
 21
126.248972
 12
170.684709
 22
126.372889
 13
170.684709
 23
126.372889
 0
SOLID
 8
0
 10
226.960862
 20
114.565342
 11
226.783838
 21
113.751028
 12
229.315291
 22
113.627111
 13
229.315291
 23
113.627111
 0
TEXT
 8
0
 10
200
 20
120
 40
2.5
 1
%%c60
 11
200
 21
120
 72
1
 73
2
 0
LINE
 8
0
 10
229.315291
 20
113.627111
 11
203.775
 21
119.179348
 0
LINE
 8
0
 10
196.225
 20
120.820652
 11
170.684709
 21
126.372889
 0
ENDBLK
 0
BLOCK
 2
*D36
 70
1
 10
0
 20
0
 0
SOLID
 8
0
 10
224.404677
 20
98.532923
 11
224.947003
 21
99.165637
 12
222.777698
 22
100.476259
 13
222.777698
 23
100.476259
 0
SOLID
 8
0
 10
175.595323
 20
141.467077
 11
175.052997
 21
140.834363
 12
177.222302
 22
139.523741
 13
177.222302
 23
139.523741
 0
TEXT
 8
0
 10
231.775
 20
94.125
 40
2.5
 1
%%c60
 11
231.775
 21
94.125
 72
1
 73
2
 0
POLYLINE
 8
0
 66
1
 10
0
 20
0
 70
0
 0
VERTEX
 8
0
 10
173.426019
 20
142.777698
 0
VERTEX
 8
0
 10
228
 20
96
 0
VERTEX
 8
0
 10
235.55
 20
96 
 0
SEQEND
 8
0
 0
ENDBLK
 0
ENDSEC
 0
SECTION
 2
ENTITIES
 0
CIRCLE
 8
0
 10
50
 20
50
 40
30
 0
CIRCLE
 8
0
 10
125
 20
50
 40
30
 0
CIRCLE
 8
0
 10
200
 20
50
 40
30
 0
POLYLINE
 8
0
 66
1
 10
0
 20
0
 70
1
 0
VERTEX
 8
0
 10
10
 20
10
 0
VERTEX
 8
0
 10
245
 20
10
 0
VERTEX
 8
0
 10
245
 20
160
 0
VERTEX
 8
0
 10
10
 20
160
 0
SEQEND
 8
0
 0
CIRCLE
 8
0
 10
50
 20
120
 40
30
 0
CIRCLE
 8
0
 10
125
 20
120
 40
30
 0
CIRCLE
 8
0
 10
200
 20
120
 40
30
 0
DIMENSION
 8
0
 70
3
 2
*D1
 3
BREAK
 1
<>
 10
20.895724995640045
 20
42.72393124891001
 11
87.61727553565524
 21
59.40431888391381
 15
79.10427500435995
 25
57.27606875108999
 0
DIMENSION
 8
0
 70
3
 2
*D2
 3
BREAK
 1
<>
 10
22.145699273442222
 20
38.85827970937689
 11
69.7069176754932
 21
57.88276707019728
 15
77.85430072655778
 25
61.14172029062311
 0
DIMENSION
 8
0
 70
3
 2
*D3
 3
BREAK
 1
<>
 10
25.807850124328834
 20
32.25909009117448
 11
83.04417893626007
 21
74.23239788659072
 15
74.19214987567116
 25
67.74090990882553
 0
DIMENSION
 8
0
 70
3
 2
*D4
 3
BREAK
 1
<>
 10
71.93165804728606
 20
70.46954751080034
 11
37.75973370733569
 21
38.57575146017998
 15
28.068341952713933
 25
29.530452489199664
 0
DIMENSION
 8
0
 70
3
 2
*D5
 3
BREAK
 1
<>
 10
79.31529091768402
 20
43.62711067006869
 11
50
 21
50
 15
20.684709082315972
 25
56.37288932993131
 0
DIMENSION
 8
0
 70
3
 2
*D6
 3
BREAK
 1
<>
 10
27.222301929041098
 20
69.52374120367905
 11
80.86619374633734
 21
23.54326250313942
 15
72.7776980709589
 25
30.476258796320945
 0
DIMENSION
 8
0
 70
3
 2
*D7
 3
ABOVE
 1
<>
 10
95.89572499564005
 20
42.72393124891001
 11
160.34350405093963
 21
60.76858177474318
 15
154.10427500435995
 25
57.27606875108999
 0
DIMENSION
 8
0
 70
3
 2
*D8
 3
ABOVE
 1
<>
 10
97.14569927344222
 20
38.85827970937689
 11
145.7514539527391
 21
60.32001838377108
 15
152.85430072655777
 25
61.14172029062311
 0
DIMENSION
 8
0
 70
3
 2
*D9
 3
ABOVE
 1
<>
 10
100.80785012432884
 20
32.25909009117448
 11
153.6475375546787
 21
73.33332861148168
 15
149.19214987567116
 25
67.74090990882553
 0
DIMENSION
 8
0
 70
3
 2
*D10
 3
ABOVE
 1
<>
 10
146.93165804728608
 20
70.46954751080034
 11
106.83327665388357
 21
35.60917710971006
 15
103.06834195271394
 25
29.530452489199664
 0
DIMENSION
 8
0
 70
3
 2
*D11
 3
ABOVE
 1
<>
 10
154.31529091768402
 20
43.62711067006869
 11
125
 21
50
 15
95.68470908231598
 25
56.37288932993131
 0
DIMENSION
 8
0
 70
3
 2
*D12
 3
ABOVE
 1
<>
 10
102.2223019290411
 20
69.52374120367905
 11
154.23680252491772
 21
27.40940438684539
 15
147.7776980709589
 25
30.476258796320945
 0
DIMENSION
 8
0
 70
3
 2
*D13
 3
BELOW
 1
<>
 10
170.89572499564005
 20
42.72393124891001
 11
236.25301264482587
 21
57.13054739919819
 15
229.10427500435995
 25
57.27606875108999
 0
DIMENSION
 8
0
 70
3
 2
*D14
 3
BELOW
 1
<>
 10
172.14569927344223
 20
38.85827970937689
 11
222.144168989067
 21
56.83823079295136
 15
227.85430072655777
 25
61.14172029062311
 0
DIMENSION
 8
0
 70
3
 2
*D15
 3
BELOW
 1
<>
 10
175.80785012432884
 20
32.25909009117448
 11
230.86515129328188
 21
70.30930987702277
 15
224.19214987567116
 25
67.74090990882553
 0
DIMENSION
 8
0
 70
3
 2
*D16
 3
BELOW
 1
<>
 10
221.93165804728608
 20
70.46954751080034
 11
184.39197009273357
 21
32.8677198537993
 15
178.06834195271392
 25
29.530452489199664
 0
DIMENSION
 8
0
 70
3
 2
*D17
 3
BELOW
 1
<>
 10
229.31529091768402
 20
43.62711067006869
 11
200
 21
50
 15
170.68470908231598
 25
56.37288932993131
 0
DIMENSION
 8
0
 70
3
 2
*D18
 3
BELOW
 1
<>
 10
177.2223019290411
 20
69.52374120367905
 11
226.79633487445784
 21
24.562192127975532
 15
222.7776980709589
 25
30.476258796320945
 0
DIMENSION
 8
0
 70
3
 2
*D19
 3
HORZ
 1
<>
 10
20.895724995640045
 20
112.72393124891
 11
90.22998760045404
 21
128.48874687627165
 15
79.10427500435995
 25
127.27606875109
 0
DIMENSION
 8
0
 70
3
 2
*D20
 3
HORZ
 1
<>
 10
22.145699273442222
 20
108.85827970937689
 11
66.93691717676406
 21
129.2847669088526
 15
77.85430072655778
 25
131.1417202906231
 0
DIMENSION
 8
0
 70
3
 2
*D21
 3
HORZ
 1
<>
 10
25.807850124328834
 20
102.25909009117447
 11
86.27500009536743
 21
142
 15
74.19214987567116
 25
137.74090990882553
 0
DIMENSION
 8
0
 70
3
 2
*D22
 3
HORZ
 1
<>
 10
71.93165804728606
 20
140.46954751080034
 11
41.27500009536744
 21
106
 15
28.068341952713933
 25
99.53045248919966
 0
DIMENSION
 8
0
 70
3
 2
*D23
 3
HORZ
 1
<>
 10
79.31529091768402
 20
113.62711067006869
 11
50
 21
120
 15
20.684709082315972
 25
126.37288932993131
 0
DIMENSION
 8
0
 70
3
 2
*D24
 3
HORZ
 1
<>
 10
27.222301929041098
 20
139.52374120367907
 11
84.27500009536743
 21
96
 15
72.7776980709589
 25
100.47625879632095
 0
DIMENSION
 8
0
 70
3
 2
*D25
 3
HORZABOVE
 1
<>
 10
95.89572499564005
 20
112.72393124891
 11
162.72998760045405
 21
130.36374687627165
 15
154.10427500435995
 25
127.27606875109
 0
DIMENSION
 8
0
 70
3
 2
*D26
 3
HORZABOVE
 1
<>
 10
97.14569927344222
 20
108.85827970937689
 11
144.43691717676404
 21
131.1597669088526
 15
152.85430072655777
 25
131.1417202906231
 0
DIMENSION
 8
0
 70
3
 2
*D27
 3
HORZABOVE
 1
<>
 10
100.80785012432884
 20
102.25909009117447
 11
158.77500009536743
 21
143.875
 15
149.19214987567116
 25
137.74090990882553
 0
DIMENSION
 8
0
 70
3
 2
*D28
 3
HORZABOVE
 1
<>
 10
146.93165804728608
 20
140.46954751080034
 11
113.77500009536743
 21
107.875
 15
103.06834195271394
 25
99.53045248919966
 0
DIMENSION
 8
0
 70
3
 2
*D29
 3
HORZABOVE
 1
<>
 10
154.31529091768402
 20
113.62711067006869
 11
125
 21
120
 15
95.68470908231598
 25
126.37288932993131
 0
DIMENSION
 8
0
 70
3
 2
*D30
 3
HORZABOVE
 1
<>
 10
102.2223019290411
 20
139.52374120367907
 11
156.77500009536743
 21
97.875
 15
147.7776980709589
 25
100.47625879632095
 0
DIMENSION
 8
0
 70
3
 2
*D31
 3
HORZBELOW
 1
<>
 10
170.89572499564005
 20
112.72393124891
 11
237.72998760045405
 21
126.61374687627165
 15
229.10427500435995
 25
127.27606875109
 0
DIMENSION
 8
0
 70
3
 2
*D32
 3
HORZBELOW
 1
<>
 10
172.14569927344223
 20
108.85827970937689
 11
219.43691717676404
 21
127.40976690885259
 15
227.85430072655777
 25
131.1417202906231
 0
DIMENSION
 8
0
 70
3
 2
*D33
 3
HORZBELOW
 1
<>
 10
175.80785012432884
 20
102.25909009117447
 11
233.77500009536743
 21
140.125
 15
224.19214987567116
 25
137.74090990882553
 0
DIMENSION
 8
0
 70
3
 2
*D34
 3
HORZBELOW
 1
<>
 10
221.93165804728608
 20
140.46954751080034
 11
188.77500009536743
 21
104.125
 15
178.06834195271392
 25
99.53045248919966
 0
DIMENSION
 8
0
 70
3
 2
*D35
 3
HORZBELOW
 1
<>
 10
229.31529091768402
 20
113.62711067006869
 11
200
 21
120
 15
170.68470908231598
 25
126.37288932993131
 0
DIMENSION
 8
0
 70
3
 2
*D36
 3
HORZBELOW
 1
<>
 10
177.2223019290411
 20
139.52374120367907
 11
231.77500009536743
 21
94.125
 15
222.7776980709589
 25
100.47625879632095
 0
ENDSEC
 0
EOF
