 0
SECTION
 2
HEADER
 9
$ACADVER
 1
AC1009
 9
$EXTMIN
 10
-20
 20
-20
 30
0
 9
$EXTMAX
 10
200
 20
130
 30
0
 9
$VIEWCTR
 10
90
 20
55
 9
$VIEWSIZE
 40
165
 9
$CLAYER
 8
0
 9
$DIMSTYLE
 2
HORZ-BELOW
 0
ENDSEC
 0
SECTION
 2
TABLES
 0
TABLE
 2
LAYER
 70
1
 0
LAYER
 2
0
 70
0
 62
7
 6
CONTINUOUS
 0
ENDTAB
 0
TABLE
 2
STYLE
 70
1
 0
STYLE
 2
STANDARD
 70
0
 40
0
 41
1
 50
0
 71
0
 42
1
 3
SIMPLEX
 4

 0
ENDTAB
 0
TABLE
 2
DIMSTYLE
 70
6
 0
DIMSTYLE
 2
BREAK
 70
0
 3

 4

 5

 6

 7

 40
1
 41
2.5
 42
0.625
 43
3.75
 44
1.25
 45
0
 46
0
 47
0
 48
0
 140
2.5
 141
2.5
 142
0
 143
25.4
 144
1
 145
0
 146
1
 147
0.625
 71
0
 72
0
 73
0
 74
0
 75
0
 76
0
 77
0
 78
0
 170
0
 171
2
 172
1
 173
0
 174
0
 175
0
 176
0
 177
0
 178
0
 0
DIMSTYLE
 2
ABOVE
 70
0
 3

 4

 5

 6

 7

 40
1
 41
2.5
 42
0.625
 43
3.75
 44
1.25
 45
0
 46
0
 47
0
 48
0
 140
2.5
 141
2.5
 142
0
 143
25.4
 144
1
 145
0
 146
1
 147
0.625
 71
0
 72
0
 73
0
 74
0
 75
0
 76
0
 77
1
 78
0
 170
0
 171
2
 172
1
 173
0
 174
0
 175
0
 176
0
 177
0
 178
0
 0
DIMSTYLE
 2
BELOW
 70
0
 3

 4

 5

 6

 7

 40
1
 41
2.5
 42
0.625
 43
3.75
 44
1.25
 45
0
 46
0
 47
0
 48
0
 140
2.5
 141
2.5
 142
0
 143
25.4
 144
1
 145
0
 146
1
 147
0.625
 71
0
 72
0
 73
0
 74
0
 75
0
 76
0
 77
4
 78
0
 170
0
 171
2
 172
1
 173
0
 174
0
 175
0
 176
0
 177
0
 178
0
 0
DIMSTYLE
 2
HORZ-BREAK
 70
0
 3

 4

 5

 6

 7

 40
1
 41
2.5
 42
0.625
 43
3.75
 44
1.25
 45
0
 46
0
 47
0
 48
0
 140
2.5
 141
2.5
 142
0
 143
25.4
 144
1
 145
0
 146
1
 147
0.625
 71
0
 72
0
 73
1
 74
1
 75
0
 76
0
 77
0
 78
0
 170
0
 171
2
 172
1
 173
0
 174
0
 175
0
 176
0
 177
0
 178
0
 0
DIMSTYLE
 2
HORZ-ABOVE
 70
0
 3

 4

 5

 6

 7

 40
1
 41
2.5
 42
0.625
 43
3.75
 44
1.25
 45
0
 46
0
 47
0
 48
0
 140
2.5
 141
2.5
 142
0
 143
25.4
 144
1
 145
0
 146
1
 147
0.625
 71
0
 72
0
 73
1
 74
1
 75
0
 76
0
 77
1
 78
0
 170
0
 171
2
 172
1
 173
0
 174
0
 175
0
 176
0
 177
0
 178
0
 0
DIMSTYLE
 2
HORZ-BELOW
 70
0
 3

 4

 5

 6

 7

 40
1
 41
2.5
 42
0.625
 43
3.75
 44
1.25
 45
0
 46
0
 47
0
 48
0
 140
2.5
 141
2.5
 142
0
 143
25.4
 144
1
 145
0
 146
1
 147
0.625
 71
0
 72
0
 73
1
 74
1
 75
0
 76
0
 77
4
 78
0
 170
0
 171
2
 172
1
 173
0
 174
0
 175
0
 176
0
 177
0
 178
0
 0
ENDTAB
 0
ENDSEC
 0
SECTION
 2
BLOCKS
 0
BLOCK
 2
*D1
 70
1
 10
0
 20
0
 0
LINE
 8
0
 10
15
 20
-0.625
 11
15
 21
-4.25
 0
LINE
 8
0
 10
50
 20
-0.625
 11
50
 21
-4.25
 0
SOLID
 8
0
 10
17.5
 20
-3.416667
 11
17.5
 21
-2.583333
 12
15
 22
-3
 13
15
 23
-3
 0
SOLID
 8
0
 10
47.5
 20
-2.583333
 11
47.5
 21
-3.416667
 12
50
 22
-3
 13
50
 23
-3
 0
LINE
 8
0
 10
15
 20
-3
 11
15
 21
-3
 0
LINE
 8
0
 10
50
 20
-3
 11
50
 21
-3
 0
LINE
 8
0
 10
15
 20
-3
 11
29.85
 21
-3
 0
LINE
 8
0
 10
35.15
 20
-3
 11
50
 21
-3
 0
TEXT
 8
0
 10
32.5
 20
-3
 40
2.5
 1
35
 11
32.5
 21
-3
 72
1
 73
2
 0
ENDBLK
 0
BLOCK
 2
*D2
 70
1
 10
0
 20
0
 0
LINE
 8
0
 10
0
 20
9.375
 11
0
 21
5.75
 0
LINE
 8
0
 10
15
 20
9.375
 11
15
 21
5.75
 0
SOLID
 8
0
 10
2.5
 20
6.583333
 11
2.5
 21
7.416667
 12
0
 22
7
 13
0
 23
7
 0
SOLID
 8
0
 10
12.5
 20
7.416667
 11
12.5
 21
6.583333
 12
15
 22
7
 13
15
 23
7
 0
LINE
 8
0
 10
0
 20
7
 11
-2.5
 21
7
 0
LINE
 8
0
 10
15
 20
7
 11
15
 21
7
 0
LINE
 8
0
 10
0
 20
7
 11
15
 21
7
 0
TEXT
 8
0
 10
-4.9125
 20
7
 40
2.5
 1
15
 11
-4.9125
 21
7
 50
360
 72
1
 73
2
 0
ENDBLK
 0
BLOCK
 2
*D3
 70
1
 10
0
 20
0
 0
LINE
 8
0
 10
14.375
 20
0
 11
8.75
 21
0
 0
LINE
 8
0
 10
14.375
 20
10
 11
8.75
 21
10
 0
SOLID
 8
0
 10
10.416667
 20
2.5
 11
9.583333
 21
2.5
 12
10
 22
0
 13
10
 23
0
 0
SOLID
 8
0
 10
9.583333
 20
7.5
 11
10.416667
 21
7.5
 12
10
 22
10
 13
10
 23
10
 0
LINE
 8
0
 10
10
 20
0
 11
10
 21
-2.5
 0
LINE
 8
0
 10
10
 20
10
 11
10
 21
10
 0
LINE
 8
0
 10
10
 20
0
 11
10
 21
10
 0
TEXT
 8
0
 10
10
 20
-4.9125
 40
2.5
 1
10
 11
10
 21
-4.9125
 50
90
 72
1
 73
2
 0
ENDBLK
 0
BLOCK
 2
*D4
 70
1
 10
0
 20
0
 0
LINE
 8
0
 10
20.279508
 20
50.559017
 11
22.359017
 21
54.718034
 0
LINE
 8
0
 10
50.279508
 20
35.559017
 11
52.359017
 21
39.718034
 0
SOLID
 8
0
 10
23.849729
 20
52.109288
 11
24.222407
 21
52.854644
 12
21.8
 22
53.6
 13
21.8
 23
53.6
 0
SOLID
 8
0
 10
49.750271
 20
40.090712
 11
49.377593
 21
39.345356
 12
51.8
 22
38.6
 13
51.8
 23
38.6
 0
LINE
 8
0
 10
21.8
 20
53.6
 11
21.8
 21
53.6
 0
LINE
 8
0
 10
51.8
 20
38.6
 11
51.8
 21
38.6
 0
LINE
 8
0
 10
21.8
 20
53.6
 11
31.712945
 21
48.643527
 0
LINE
 8
0
 10
41.887055
 20
43.556473
 11
51.8
 21
38.6
 0
TEXT
 8
0
 10
36.8
 20
46.1
 40
2.5
 1
33.54
 11
36.8
 21
46.1
 50
-26.565051
 72
1
 73
2
 0
ENDBLK
 0
BLOCK
 2
*D5
 70
1
 10
0
 20
0
 0
LINE
 8
0
 10
19.720492
 20
49.440983
 11
17.440983
 21
44.881966
 0
LINE
 8
0
 10
29.720492
 20
44.440983
 11
27.440983
 21
39.881966
 0
SOLID
 8
0
 10
20.049729
 20
44.509288
 11
20.422407
 21
45.254644
 12
18
 22
46
 13
18
 23
46
 0
SOLID
 8
0
 10
25.950271
 20
42.490712
 11
25.577593
 21
41.745356
 12
28
 22
41
 13
28
 23
41
 0
LINE
 8
0
 10
18
 20
46
 11
18
 21
46
 0
LINE
 8
0
 10
28
 20
41
 11
30.236068
 21
39.881966
 0
LINE
 8
0
 10
18
 20
46
 11
28
 21
41
 0
TEXT
 8
0
 10
34.629941
 20
37.685029
 40
2.5
 1
11.18
 11
34.629941
 21
37.685029
 50
-26.565051
 72
1
 73
2
 0
ENDBLK
 0
BLOCK
 2
*D6
 70
1
 10
0
 20
0
 0
LINE
 8
0
 10
20
 20
24.375
 11
20
 21
16.75
 0
LINE
 8
0
 10
30
 20
24.375
 11
30
 21
16.75
 0
SOLID
 8
0
 10
22.5
 20
17.583333
 11
22.5
 21
18.416667
 12
20
 22
18
 13
20
 23
18
 0
SOLID
 8
0
 10
27.5
 20
18.416667
 11
27.5
 21
17.583333
 12
30
 22
18
 13
30
 23
18
 0
LINE
 8
0
 10
20
 20
18
 11
20
 21
18
 0
LINE
 8
0
 10
30
 20
18
 11
32.5
 21
18
 0
LINE
 8
0
 10
20
 20
18
 11
30
 21
18
 0
TEXT
 8
0
 10
34.9125
 20
18
 40
2.5
 1
10
 11
34.9125
 21
18
 72
1
 73
2
 0
ENDBLK
 0
BLOCK
 2
*D7
 70
1
 10
0
 20
0
 0
LINE
 8
0
 10
20
 20
25.625
 11
20
 21
33.25
 0
LINE
 8
0
 10
30
 20
25.625
 11
30
 21
33.25
 0
SOLID
 8
0
 10
22.5
 20
31.583333
 11
22.5
 21
32.416667
 12
20
 22
32
 13
20
 23
32
 0
SOLID
 8
0
 10
27.5
 20
32.416667
 11
27.5
 21
31.583333
 12
30
 22
32
 13
30
 23
32
 0
LINE
 8
0
 10
20
 20
32
 11
7
 21
32
 0
LINE
 8
0
 10
30
 20
32
 11
30
 21
32
 0
LINE
 8
0
 10
20
 20
32
 11
30
 21
32
 0
TEXT
 8
0
 10
4.5875
 20
32
 40
2.5
 1
10
 11
4.5875
 21
32
 50
360
 72
1
 73
2
 0
ENDBLK
 0
BLOCK
 2
*D8
 70
1
 10
0
 20
0
 0
LINE
 8
0
 10
50.625
 20
35
 11
55.25
 21
35
 0
LINE
 8
0
 10
50.625
 20
0
 11
55.25
 21
0
 0
SOLID
 8
0
 10
53.583333
 20
32.5
 11
54.416667
 21
32.5
 12
54
 22
35
 13
54
 23
35
 0
SOLID
 8
0
 10
54.416667
 20
2.5
 11
53.583333
 21
2.5
 12
54
 22
0
 13
54
 23
0
 0
LINE
 8
0
 10
54
 20
35
 11
54
 21
35
 0
LINE
 8
0
 10
54
 20
0
 11
54
 21
-2.5
 0
LINE
 8
0
 10
54
 20
35
 11
54
 21
0
 0
TEXT
 8
0
 10
54
 20
-5.15
 40
2.5
 1
35
 11
54
 21
-5.15
 50
90
 72
1
 73
2
 0
ENDBLK
 0
BLOCK
 2
*D9
 70
1
 10
0
 20
0
 0
LINE
 8
0
 10
49.375
 20
35
 11
-4.25
 21
35
 0
LINE
 8
0
 10
19.375
 20
50
 11
-4.25
 21
50
 0
SOLID
 8
0
 10
-2.583333
 20
37.5
 11
-3.416667
 21
37.5
 12
-3
 22
35
 13
-3
 23
35
 0
SOLID
 8
0
 10
-3.416667
 20
47.5
 11
-2.583333
 21
47.5
 12
-3
 22
50
 13
-3
 23
50
 0
LINE
 8
0
 10
-3
 20
35
 11
-3
 21
35
 0
LINE
 8
0
 10
-3
 20
50
 11
-3
 21
50
 0
LINE
 8
0
 10
-3
 20
35
 11
-3
 21
40.0875
 0
LINE
 8
0
 10
-3
 20
44.9125
 11
-3
 21
50
 0
TEXT
 8
0
 10
-3
 20
42.5
 40
2.5
 1
15
 11
-3
 21
42.5
 50
90
 72
1
 73
2
 0
ENDBLK
 0
BLOCK
 2
*D10
 70
1
 10
0
 20
0
 0
LINE
 8
0
 10
25
 20
24.375
 11
25
 21
11.75
 0
LINE
 8
0
 10
30
 20
24.375
 11
30
 21
11.75
 0
SOLID
 8
0
 10
22.5
 20
13.416667
 11
22.5
 21
12.583333
 12
25
 22
13
 13
25
 23
13
 0
SOLID
 8
0
 10
32.5
 20
12.583333
 11
32.5
 21
13.416667
 12
30
 22
13
 13
30
 23
13
 0
LINE
 8
0
 10
25
 20
13
 11
21.25
 21
13
 0
LINE
 8
0
 10
30
 20
13
 11
33.75
 21
13
 0
LINE
 8
0
 10
25
 20
13
 11
26.0375
 21
13
 0
LINE
 8
0
 10
28.9625
 20
13
 11
30
 21
13
 0
TEXT
 8
0
 10
27.5
 20
13
 40
2.5
 1
5
 11
27.5
 21
13
 72
1
 73
2
 0
ENDBLK
 0
BLOCK
 2
*D11
 70
1
 10
0
 20
0
 0
LINE
 8
0
 10
80
 20
-0.625
 11
80
 21
-4.25
 0
LINE
 8
0
 10
115
 20
-0.625
 11
115
 21
-4.25
 0
SOLID
 8
0
 10
82.5
 20
-3.416667
 11
82.5
 21
-2.583333
 12
80
 22
-3
 13
80
 23
-3
 0
SOLID
 8
0
 10
112.5
 20
-2.583333
 11
112.5
 21
-3.416667
 12
115
 22
-3
 13
115
 23
-3
 0
LINE
 8
0
 10
80
 20
-3
 11
80
 21
-3
 0
LINE
 8
0
 10
115
 20
-3
 11
115
 21
-3
 0
LINE
 8
0
 10
80
 20
-3
 11
115
 21
-3
 0
TEXT
 8
0
 10
97.5
 20
-1.125
 40
2.5
 1
35
 11
97.5
 21
-1.125
 72
1
 73
2
 0
ENDBLK
 0
BLOCK
 2
*D12
 70
1
 10
0
 20
0
 0
LINE
 8
0
 10
65
 20
9.375
 11
65
 21
5.75
 0
LINE
 8
0
 10
80
 20
9.375
 11
80
 21
5.75
 0
SOLID
 8
0
 10
67.5
 20
6.583333
 11
67.5
 21
7.416667
 12
65
 22
7
 13
65
 23
7
 0
SOLID
 8
0
 10
77.5
 20
7.416667
 11
77.5
 21
6.583333
 12
80
 22
7
 13
80
 23
7
 0
LINE
 8
0
 10
65
 20
7
 11
59.55
 21
7
 0
LINE
 8
0
 10
80
 20
7
 11
80
 21
7
 0
LINE
 8
0
 10
65
 20
7
 11
80
 21
7
 0
TEXT
 8
0
 10
61.9625
 20
8.875
 40
2.5
 1
15
 11
61.9625
 21
8.875
 50
360
 72
1
 73
2
 0
ENDBLK
 0
BLOCK
 2
*D13
 70
1
 10
0
 20
0
 0
LINE
 8
0
 10
79.375
 20
0
 11
73.75
 21
0
 0
LINE
 8
0
 10
79.375
 20
10
 11
73.75
 21
10
 0
SOLID
 8
0
 10
75.416667
 20
2.5
 11
74.583333
 21
2.5
 12
75
 22
0
 13
75
 23
0
 0
SOLID
 8
0
 10
74.583333
 20
7.5
 11
75.416667
 21
7.5
 12
75
 22
10
 13
75
 23
10
 0
LINE
 8
0
 10
75
 20
0
 11
75
 21
-5.45
 0
LINE
 8
0
 10
75
 20
10
 11
75
 21
10
 0
LINE
 8
0
 10
75
 20
0
 11
75
 21
10
 0
TEXT
 8
0
 10
73.125
 20
-3.0375
 40
2.5
 1
10
 11
73.125
 21
-3.0375
 50
90
 72
1
 73
2
 0
ENDBLK
 0
BLOCK
 2
*D14
 70
1
 10
0
 20
0
 0
LINE
 8
0
 10
85.279508
 20
50.559017
 11
87.359017
 21
54.718034
 0
LINE
 8
0
 10
115.279508
 20
35.559017
 11
117.359017
 21
39.718034
 0
SOLID
 8
0
 10
88.849729
 20
52.109288
 11
89.222407
 21
52.854644
 12
86.8
 22
53.6
 13
86.8
 23
53.6
 0
SOLID
 8
0
 10
114.750271
 20
40.090712
 11
114.377593
 21
39.345356
 12
116.8
 22
38.6
 13
116.8
 23
38.6
 0
LINE
 8
0
 10
86.8
 20
53.6
 11
86.8
 21
53.6
 0
LINE
 8
0
 10
116.8
 20
38.6
 11
116.8
 21
38.6
 0
LINE
 8
0
 10
86.8
 20
53.6
 11
116.8
 21
38.6
 0
TEXT
 8
0
 10
102.638525
 20
47.777051
 40
2.5
 1
33.54
 11
102.638525
 21
47.777051
 50
-26.565051
 72
1
 73
2
 0
ENDBLK
 0
BLOCK
 2
*D15
 70
1
 10
0
 20
0
 0
LINE
 8
0
 10
84.720492
 20
49.440983
 11
82.440983
 21
44.881966
 0
LINE
 8
0
 10
94.720492
 20
44.440983
 11
92.440983
 21
39.881966
 0
SOLID
 8
0
 10
85.049729
 20
44.509288
 11
85.422407
 21
45.254644
 12
83
 22
46
 13
83
 23
46
 0
SOLID
 8
0
 10
90.950271
 20
42.490712
 11
90.577593
 21
41.745356
 12
93
 22
41
 13
93
 23
41
 0
LINE
 8
0
 10
83
 20
46
 11
83
 21
46
 0
LINE
 8
0
 10
93
 20
41
 11
102.346764
 21
36.326618
 0
LINE
 8
0
 10
83
 20
46
 11
93
 21
41
 0
TEXT
 8
0
 10
98.791416
 20
40.200606
 40
2.5
 1
11.18
 11
98.791416
 21
40.200606
 50
-26.565051
 72
1
 73
2
 0
ENDBLK
 0
BLOCK
 2
*D16
 70
1
 10
0
 20
0
 0
LINE
 8
0
 10
85
 20
24.375
 11
85
 21
16.75
 0
LINE
 8
0
 10
95
 20
24.375
 11
95
 21
16.75
 0
SOLID
 8
0
 10
87.5
 20
17.583333
 11
87.5
 21
18.416667
 12
85
 22
18
 13
85
 23
18
 0
SOLID
 8
0
 10
92.5
 20
18.416667
 11
92.5
 21
17.583333
 12
95
 22
18
 13
95
 23
18
 0
LINE
 8
0
 10
85
 20
18
 11
85
 21
18
 0
LINE
 8
0
 10
95
 20
18
 11
100.45
 21
18
 0
LINE
 8
0
 10
85
 20
18
 11
95
 21
18
 0
TEXT
 8
0
 10
98.0375
 20
19.875
 40
2.5
 1
10
 11
98.0375
 21
19.875
 72
1
 73
2
 0
ENDBLK
 0
BLOCK
 2
*D17
 70
1
 10
0
 20
0
 0
LINE
 8
0
 10
85
 20
25.625
 11
85
 21
33.25
 0
LINE
 8
0
 10
95
 20
25.625
 11
95
 21
33.25
 0
SOLID
 8
0
 10
87.5
 20
31.583333
 11
87.5
 21
32.416667
 12
85
 22
32
 13
85
 23
32
 0
SOLID
 8
0
 10
92.5
 20
32.416667
 11
92.5
 21
31.583333
 12
95
 22
32
 13
95
 23
32
 0
LINE
 8
0
 10
85
 20
32
 11
72
 21
32
 0
LINE
 8
0
 10
95
 20
32
 11
95
 21
32
 0
LINE
 8
0
 10
85
 20
32
 11
95
 21
32
 0
TEXT
 8
0
 10
74.4125
 20
33.875
 40
2.5
 1
10
 11
74.4125
 21
33.875
 50
360
 72
1
 73
2
 0
ENDBLK
 0
BLOCK
 2
*D18
 70
1
 10
0
 20
0
 0
LINE
 8
0
 10
115.625
 20
35
 11
120.25
 21
35
 0
LINE
 8
0
 10
115.625
 20
0
 11
120.25
 21
0
 0
SOLID
 8
0
 10
118.583333
 20
32.5
 11
119.416667
 21
32.5
 12
119
 22
35
 13
119
 23
35
 0
SOLID
 8
0
 10
119.416667
 20
2.5
 11
118.583333
 21
2.5
 12
119
 22
0
 13
119
 23
0
 0
LINE
 8
0
 10
119
 20
35
 11
119
 21
35
 0
LINE
 8
0
 10
119
 20
0
 11
119
 21
-5.925
 0
LINE
 8
0
 10
119
 20
35
 11
119
 21
0
 0
TEXT
 8
0
 10
117.125
 20
-3.275
 40
2.5
 1
35
 11
117.125
 21
-3.275
 50
90
 72
1
 73
2
 0
ENDBLK
 0
BLOCK
 2
*D19
 70
1
 10
0
 20
0
 0
LINE
 8
0
 10
114.375
 20
35
 11
60.75
 21
35
 0
LINE
 8
0
 10
84.375
 20
50
 11
60.75
 21
50
 0
SOLID
 8
0
 10
62.416667
 20
37.5
 11
61.583333
 21
37.5
 12
62
 22
35
 13
62
 23
35
 0
SOLID
 8
0
 10
61.583333
 20
47.5
 11
62.416667
 21
47.5
 12
62
 22
50
 13
62
 23
50
 0
LINE
 8
0
 10
62
 20
35
 11
62
 21
35
 0
LINE
 8
0
 10
62
 20
50
 11
62
 21
50
 0
LINE
 8
0
 10
62
 20
35
 11
62
 21
50
 0
TEXT
 8
0
 10
60.125
 20
42.5
 40
2.5
 1
15
 11
60.125
 21
42.5
 50
90
 72
1
 73
2
 0
ENDBLK
 0
BLOCK
 2
*D20
 70
1
 10
0
 20
0
 0
LINE
 8
0
 10
90
 20
24.375
 11
90
 21
11.75
 0
LINE
 8
0
 10
95
 20
24.375
 11
95
 21
11.75
 0
SOLID
 8
0
 10
87.5
 20
13.416667
 11
87.5
 21
12.583333
 12
90
 22
13
 13
90
 23
13
 0
SOLID
 8
0
 10
97.5
 20
12.583333
 11
97.5
 21
13.416667
 12
95
 22
13
 13
95
 23
13
 0
LINE
 8
0
 10
90
 20
13
 11
86.25
 21
13
 0
LINE
 8
0
 10
95
 20
13
 11
98.75
 21
13
 0
LINE
 8
0
 10
90
 20
13
 11
95
 21
13
 0
TEXT
 8
0
 10
92.5
 20
14.875
 40
2.5
 1
5
 11
92.5
 21
14.875
 72
1
 73
2
 0
ENDBLK
 0
BLOCK
 2
*D21
 70
1
 10
0
 20
0
 0
LINE
 8
0
 10
145
 20
-0.625
 11
145
 21
-4.25
 0
LINE
 8
0
 10
180
 20
-0.625
 11
180
 21
-4.25
 0
SOLID
 8
0
 10
147.5
 20
-3.416667
 11
147.5
 21
-2.583333
 12
145
 22
-3
 13
145
 23
-3
 0
SOLID
 8
0
 10
177.5
 20
-2.583333
 11
177.5
 21
-3.416667
 12
180
 22
-3
 13
180
 23
-3
 0
LINE
 8
0
 10
145
 20
-3
 11
145
 21
-3
 0
LINE
 8
0
 10
180
 20
-3
 11
180
 21
-3
 0
LINE
 8
0
 10
145
 20
-3
 11
180
 21
-3
 0
TEXT
 8
0
 10
162.5
 20
-4.875
 40
2.5
 1
35
 11
162.5
 21
-4.875
 72
1
 73
2
 0
ENDBLK
 0
BLOCK
 2
*D22
 70
1
 10
0
 20
0
 0
LINE
 8
0
 10
130
 20
9.375
 11
130
 21
5.75
 0
LINE
 8
0
 10
145
 20
9.375
 11
145
 21
5.75
 0
SOLID
 8
0
 10
132.5
 20
6.583333
 11
132.5
 21
7.416667
 12
130
 22
7
 13
130
 23
7
 0
SOLID
 8
0
 10
142.5
 20
7.416667
 11
142.5
 21
6.583333
 12
145
 22
7
 13
145
 23
7
 0
LINE
 8
0
 10
130
 20
7
 11
124.55
 21
7
 0
LINE
 8
0
 10
145
 20
7
 11
145
 21
7
 0
LINE
 8
0
 10
130
 20
7
 11
145
 21
7
 0
TEXT
 8
0
 10
126.9625
 20
5.125
 40
2.5
 1
15
 11
126.9625
 21
5.125
 50
360
 72
1
 73
2
 0
ENDBLK
 0
BLOCK
 2
*D23
 70
1
 10
0
 20
0
 0
LINE
 8
0
 10
144.375
 20
0
 11
138.75
 21
0
 0
LINE
 8
0
 10
144.375
 20
10
 11
138.75
 21
10
 0
SOLID
 8
0
 10
140.416667
 20
2.5
 11
139.583333
 21
2.5
 12
140
 22
0
 13
140
 23
0
 0
SOLID
 8
0
 10
139.583333
 20
7.5
 11
140.416667
 21
7.5
 12
140
 22
10
 13
140
 23
10
 0
LINE
 8
0
 10
140
 20
0
 11
140
 21
-5.45
 0
LINE
 8
0
 10
140
 20
10
 11
140
 21
10
 0
LINE
 8
0
 10
140
 20
0
 11
140
 21
10
 0
TEXT
 8
0
 10
141.875
 20
-3.0375
 40
2.5
 1
10
 11
141.875
 21
-3.0375
 50
90
 72
1
 73
2
 0
ENDBLK
 0
BLOCK
 2
*D24
 70
1
 10
0
 20
0
 0
LINE
 8
0
 10
150.279508
 20
50.559017
 11
152.359017
 21
54.718034
 0
LINE
 8
0
 10
180.279508
 20
35.559017
 11
182.359017
 21
39.718034
 0
SOLID
 8
0
 10
153.849729
 20
52.109288
 11
154.222407
 21
52.854644
 12
151.8
 22
53.6
 13
151.8
 23
53.6
 0
SOLID
 8
0
 10
179.750271
 20
40.090712
 11
179.377593
 21
39.345356
 12
181.8
 22
38.6
 13
181.8
 23
38.6
 0
LINE
 8
0
 10
151.8
 20
53.6
 11
151.8
 21
53.6
 0
LINE
 8
0
 10
181.8
 20
38.6
 11
181.8
 21
38.6
 0
LINE
 8
0
 10
151.8
 20
53.6
 11
181.8
 21
38.6
 0
TEXT
 8
0
 10
165.961475
 20
44.422949
 40
2.5
 1
33.54
 11
165.961475
 21
44.422949
 50
-26.565051
 72
1
 73
2
 0
ENDBLK
 0
BLOCK
 2
*D25
 70
1
 10
0
 20
0
 0
LINE
 8
0
 10
149.720492
 20
49.440983
 11
147.440983
 21
44.881966
 0
LINE
 8
0
 10
159.720492
 20
44.440983
 11
157.440983
 21
39.881966
 0
SOLID
 8
0
 10
150.049729
 20
44.509288
 11
150.422407
 21
45.254644
 12
148
 22
46
 13
148
 23
46
 0
SOLID
 8
0
 10
155.950271
 20
42.490712
 11
155.577593
 21
41.745356
 12
158
 22
41
 13
158
 23
41
 0
LINE
 8
0
 10
148
 20
46
 11
148
 21
46
 0
LINE
 8
0
 10
158
 20
41
 11
167.346764
 21
36.326618
 0
LINE
 8
0
 10
148
 20
46
 11
158
 21
41
 0
TEXT
 8
0
 10
162.114365
 20
36.846504
 40
2.5
 1
11.18
 11
162.114365
 21
36.846504
 50
-26.565051
 72
1
 73
2
 0
ENDBLK
 0
BLOCK
 2
*D26
 70
1
 10
0
 20
0
 0
LINE
 8
0
 10
150
 20
24.375
 11
150
 21
16.75
 0
LINE
 8
0
 10
160
 20
24.375
 11
160
 21
16.75
 0
SOLID
 8
0
 10
152.5
 20
17.583333
 11
152.5
 21
18.416667
 12
150
 22
18
 13
150
 23
18
 0
SOLID
 8
0
 10
157.5
 20
18.416667
 11
157.5
 21
17.583333
 12
160
 22
18
 13
160
 23
18
 0
LINE
 8
0
 10
150
 20
18
 11
150
 21
18
 0
LINE
 8
0
 10
160
 20
18
 11
165.45
 21
18
 0
LINE
 8
0
 10
150
 20
18
 11
160
 21
18
 0
TEXT
 8
0
 10
163.0375
 20
16.125
 40
2.5
 1
10
 11
163.0375
 21
16.125
 72
1
 73
2
 0
ENDBLK
 0
BLOCK
 2
*D27
 70
1
 10
0
 20
0
 0
LINE
 8
0
 10
150
 20
25.625
 11
150
 21
33.25
 0
LINE
 8
0
 10
160
 20
25.625
 11
160
 21
33.25
 0
SOLID
 8
0
 10
152.5
 20
31.583333
 11
152.5
 21
32.416667
 12
150
 22
32
 13
150
 23
32
 0
SOLID
 8
0
 10
157.5
 20
32.416667
 11
157.5
 21
31.583333
 12
160
 22
32
 13
160
 23
32
 0
LINE
 8
0
 10
150
 20
32
 11
137
 21
32
 0
LINE
 8
0
 10
160
 20
32
 11
160
 21
32
 0
LINE
 8
0
 10
150
 20
32
 11
160
 21
32
 0
TEXT
 8
0
 10
139.4125
 20
30.125
 40
2.5
 1
10
 11
139.4125
 21
30.125
 50
360
 72
1
 73
2
 0
ENDBLK
 0
BLOCK
 2
*D28
 70
1
 10
0
 20
0
 0
LINE
 8
0
 10
180.625
 20
35
 11
185.25
 21
35
 0
LINE
 8
0
 10
180.625
 20
0
 11
185.25
 21
0
 0
SOLID
 8
0
 10
183.583333
 20
32.5
 11
184.416667
 21
32.5
 12
184
 22
35
 13
184
 23
35
 0
SOLID
 8
0
 10
184.416667
 20
2.5
 11
183.583333
 21
2.5
 12
184
 22
0
 13
184
 23
0
 0
LINE
 8
0
 10
184
 20
35
 11
184
 21
35
 0
LINE
 8
0
 10
184
 20
0
 11
184
 21
-5.925
 0
LINE
 8
0
 10
184
 20
35
 11
184
 21
0
 0
TEXT
 8
0
 10
185.875
 20
-3.275
 40
2.5
 1
35
 11
185.875
 21
-3.275
 50
90
 72
1
 73
2
 0
ENDBLK
 0
BLOCK
 2
*D29
 70
1
 10
0
 20
0
 0
LINE
 8
0
 10
179.375
 20
35
 11
125.75
 21
35
 0
LINE
 8
0
 10
149.375
 20
50
 11
125.75
 21
50
 0
SOLID
 8
0
 10
127.416667
 20
37.5
 11
126.583333
 21
37.5
 12
127
 22
35
 13
127
 23
35
 0
SOLID
 8
0
 10
126.583333
 20
47.5
 11
127.416667
 21
47.5
 12
127
 22
50
 13
127
 23
50
 0
LINE
 8
0
 10
127
 20
35
 11
127
 21
35
 0
LINE
 8
0
 10
127
 20
50
 11
127
 21
50
 0
LINE
 8
0
 10
127
 20
35
 11
127
 21
50
 0
TEXT
 8
0
 10
128.875
 20
42.5
 40
2.5
 1
15
 11
128.875
 21
42.5
 50
90
 72
1
 73
2
 0
ENDBLK
 0
BLOCK
 2
*D30
 70
1
 10
0
 20
0
 0
LINE
 8
0
 10
155
 20
24.375
 11
155
 21
11.75
 0
LINE
 8
0
 10
160
 20
24.375
 11
160
 21
11.75
 0
SOLID
 8
0
 10
152.5
 20
13.416667
 11
152.5
 21
12.583333
 12
155
 22
13
 13
155
 23
13
 0
SOLID
 8
0
 10
162.5
 20
12.583333
 11
162.5
 21
13.416667
 12
160
 22
13
 13
160
 23
13
 0
LINE
 8
0
 10
155
 20
13
 11
151.25
 21
13
 0
LINE
 8
0
 10
160
 20
13
 11
163.75
 21
13
 0
LINE
 8
0
 10
155
 20
13
 11
160
 21
13
 0
TEXT
 8
0
 10
157.5
 20
11.125
 40
2.5
 1
5
 11
157.5
 21
11.125
 72
1
 73
2
 0
ENDBLK
 0
BLOCK
 2
*D31
 70
1
 10
0
 20
0
 0
LINE
 8
0
 10
15
 20
64.375
 11
15
 21
60.75
 0
LINE
 8
0
 10
50
 20
64.375
 11
50
 21
60.75
 0
SOLID
 8
0
 10
17.5
 20
61.583333
 11
17.5
 21
62.416667
 12
15
 22
62
 13
15
 23
62
 0
SOLID
 8
0
 10
47.5
 20
62.416667
 11
47.5
 21
61.583333
 12
50
 22
62
 13
50
 23
62
 0
LINE
 8
0
 10
15
 20
62
 11
15
 21
62
 0
LINE
 8
0
 10
50
 20
62
 11
50
 21
62
 0
LINE
 8
0
 10
15
 20
62
 11
29.85
 21
62
 0
LINE
 8
0
 10
35.15
 20
62
 11
50
 21
62
 0
TEXT
 8
0
 10
32.5
 20
62
 40
2.5
 1
35
 11
32.5
 21
62
 72
1
 73
2
 0
ENDBLK
 0
BLOCK
 2
*D32
 70
1
 10
0
 20
0
 0
LINE
 8
0
 10
0
 20
74.375
 11
0
 21
70.75
 0
LINE
 8
0
 10
15
 20
74.375
 11
15
 21
70.75
 0
SOLID
 8
0
 10
2.5
 20
71.583333
 11
2.5
 21
72.416667
 12
0
 22
72
 13
0
 23
72
 0
SOLID
 8
0
 10
12.5
 20
72.416667
 11
12.5
 21
71.583333
 12
15
 22
72
 13
15
 23
72
 0
POLYLINE
 8
0
 66
1
 10
0
 20
0
 70
0
 0
VERTEX
 8
0
 10
0
 20
72
 0
VERTEX
 8
0
 10
-1.25
 20
72
 0
VERTEX
 8
0
 10
-2.5
 20
72 
 0
SEQEND
 8
0
 0
LINE
 8
0
 10
15
 20
72
 11
15
 21
72
 0
LINE
 8
0
 10
0
 20
72
 11
15
 21
72
 0
TEXT
 8
0
 10
-4.9125
 20
72
 40
2.5
 1
15
 11
-4.9125
 21
72
 72
1
 73
2
 0
ENDBLK
 0
BLOCK
 2
*D33
 70
1
 10
0
 20
0
 0
LINE
 8
0
 10
14.375
 20
65
 11
8.75
 21
65
 0
LINE
 8
0
 10
14.375
 20
75
 11
8.75
 21
75
 0
SOLID
 8
0
 10
10.416667
 20
67.5
 11
9.583333
 21
67.5
 12
10
 22
65
 13
10
 23
65
 0
SOLID
 8
0
 10
9.583333
 20
72.5
 11
10.416667
 21
72.5
 12
10
 22
75
 13
10
 23
75
 0
POLYLINE
 8
0
 66
1
 10
0
 20
0
 70
0
 0
VERTEX
 8
0
 10
10
 20
65
 0
VERTEX
 8
0
 10
10
 20
62.5
 0
VERTEX
 8
0
 10
8.75
 20
62.5 
 0
SEQEND
 8
0
 0
LINE
 8
0
 10
10
 20
75
 11
10
 21
75
 0
LINE
 8
0
 10
10
 20
65
 11
10
 21
75
 0
TEXT
 8
0
 10
6.3375
 20
62.5
 40
2.5
 1
10
 11
6.3375
 21
62.5
 72
1
 73
2
 0
ENDBLK
 0
BLOCK
 2
*D34
 70
1
 10
0
 20
0
 0
LINE
 8
0
 10
20.279508
 20
115.559017
 11
22.359017
 21
119.718034
 0
LINE
 8
0
 10
50.279508
 20
100.559017
 11
52.359017
 21
104.718034
 0
SOLID
 8
0
 10
23.849729
 20
117.109288
 11
24.222407
 21
117.854644
 12
21.8
 22
118.6
 13
21.8
 23
118.6
 0
SOLID
 8
0
 10
49.750271
 20
105.090712
 11
49.377593
 21
104.345356
 12
51.8
 22
103.6
 13
51.8
 23
103.6
 0
LINE
 8
0
 10
21.8
 20
118.6
 11
21.8
 21
118.6
 0
LINE
 8
0
 10
51.8
 20
103.6
 11
51.8
 21
103.6
 0
LINE
 8
0
 10
21.8
 20
118.6
 11
33.05
 21
112.975
 0
LINE
 8
0
 10
40.55
 20
109.225
 11
51.8
 21
103.6
 0
TEXT
 8
0
 10
36.8
 20
111.1
 40
2.5
 1
33.54
 11
36.8
 21
111.1
 72
1
 73
2
 0
ENDBLK
 0
BLOCK
 2
*D35
 70
1
 10
0
 20
0
 0
LINE
 8
0
 10
19.720492
 20
114.440983
 11
17.440983
 21
109.881966
 0
LINE
 8
0
 10
29.720492
 20
109.440983
 11
27.440983
 21
104.881966
 0
SOLID
 8
0
 10
20.049729
 20
109.509288
 11
20.422407
 21
110.254644
 12
18
 22
111
 13
18
 23
111
 0
SOLID
 8
0
 10
25.950271
 20
107.490712
 11
25.577593
 21
106.745356
 12
28
 22
106
 13
28
 23
106
 0
LINE
 8
0
 10
18
 20
111
 11
18
 21
111
 0
POLYLINE
 8
0
 66
1
 10
0
 20
0
 70
0
 0
VERTEX
 8
0
 10
28
 20
106
 0
VERTEX
 8
0
 10
30.236068
 20
104.881966
 0
VERTEX
 8
0
 10
31.486068
 20
104.881966 
 0
SEQEND
 8
0
 0
LINE
 8
0
 10
18
 20
111
 11
28
 21
106
 0
TEXT
 8
0
 10
36.398568
 20
104.881966
 40
2.5
 1
11.18
 11
36.398568
 21
104.881966
 72
1
 73
2
 0
ENDBLK
 0
BLOCK
 2
*D36
 70
1
 10
0
 20
0
 0
LINE
 8
0
 10
20
 20
89.375
 11
20
 21
81.75
 0
LINE
 8
0
 10
30
 20
89.375
 11
30
 21
81.75
 0
SOLID
 8
0
 10
22.5
 20
82.583333
 11
22.5
 21
83.416667
 12
20
 22
83
 13
20
 23
83
 0
SOLID
 8
0
 10
27.5
 20
83.416667
 11
27.5
 21
82.583333
 12
30
 22
83
 13
30
 23
83
 0
LINE
 8
0
 10
20
 20
83
 11
20
 21
83
 0
POLYLINE
 8
0
 66
1
 10
0
 20
0
 70
0
 0
VERTEX
 8
0
 10
30
 20
83
 0
VERTEX
 8
0
 10
31.25
 20
83
 0
VERTEX
 8
0
 10
32.5
 20
83 
 0
SEQEND
 8
0
 0
LINE
 8
0
 10
20
 20
83
 11
30
 21
83
 0
TEXT
 8
0
 10
34.9125
 20
83
 40
2.5
 1
10
 11
34.9125
 21
83
 72
1
 73
2
 0
ENDBLK
 0
BLOCK
 2
*D37
 70
1
 10
0
 20
0
 0
LINE
 8
0
 10
20
 20
90.625
 11
20
 21
98.25
 0
LINE
 8
0
 10
30
 20
90.625
 11
30
 21
98.25
 0
SOLID
 8
0
 10
22.5
 20
96.583333
 11
22.5
 21
97.416667
 12
20
 22
97
 13
20
 23
97
 0
SOLID
 8
0
 10
27.5
 20
97.416667
 11
27.5
 21
96.583333
 12
30
 22
97
 13
30
 23
97
 0
POLYLINE
 8
0
 66
1
 10
0
 20
0
 70
0
 0
VERTEX
 8
0
 10
20
 20
97
 0
VERTEX
 8
0
 10
7
 20
97
 0
VERTEX
 8
0
 10
5.75
 20
97 
 0
SEQEND
 8
0
 0
LINE
 8
0
 10
30
 20
97
 11
30
 21
97
 0
LINE
 8
0
 10
20
 20
97
 11
30
 21
97
 0
TEXT
 8
0
 10
3.3375
 20
97
 40
2.5
 1
10
 11
3.3375
 21
97
 72
1
 73
2
 0
ENDBLK
 0
BLOCK
 2
*D38
 70
1
 10
0
 20
0
 0
LINE
 8
0
 10
50.625
 20
100
 11
55.25
 21
100
 0
LINE
 8
0
 10
50.625
 20
65
 11
55.25
 21
65
 0
SOLID
 8
0
 10
53.583333
 20
97.5
 11
54.416667
 21
97.5
 12
54
 22
100
 13
54
 23
100
 0
SOLID
 8
0
 10
54.416667
 20
67.5
 11
53.583333
 21
67.5
 12
54
 22
65
 13
54
 23
65
 0
LINE
 8
0
 10
54
 20
100
 11
54
 21
100
 0
POLYLINE
 8
0
 66
1
 10
0
 20
0
 70
0
 0
VERTEX
 8
0
 10
54
 20
65
 0
VERTEX
 8
0
 10
54
 20
62.5
 0
VERTEX
 8
0
 10
55.25
 20
62.5 
 0
SEQEND
 8
0
 0
LINE
 8
0
 10
54
 20
100
 11
54
 21
65
 0
TEXT
 8
0
 10
57.9
 20
62.5
 40
2.5
 1
35
 11
57.9
 21
62.5
 72
1
 73
2
 0
ENDBLK
 0
BLOCK
 2
*D39
 70
1
 10
0
 20
0
 0
LINE
 8
0
 10
49.375
 20
100
 11
-4.25
 21
100
 0
LINE
 8
0
 10
19.375
 20
115
 11
-4.25
 21
115
 0
SOLID
 8
0
 10
-2.583333
 20
102.5
 11
-3.416667
 21
102.5
 12
-3
 22
100
 13
-3
 23
100
 0
SOLID
 8
0
 10
-3.416667
 20
112.5
 11
-2.583333
 21
112.5
 12
-3
 22
115
 13
-3
 23
115
 0
LINE
 8
0
 10
-3
 20
100
 11
-3
 21
100
 0
LINE
 8
0
 10
-3
 20
115
 11
-3
 21
115
 0
LINE
 8
0
 10
-3
 20
100
 11
-3
 21
105.625
 0
LINE
 8
0
 10
-3
 20
109.375
 11
-3
 21
115
 0
TEXT
 8
0
 10
-3
 20
107.5
 40
2.5
 1
15
 11
-3
 21
107.5
 72
1
 73
2
 0
ENDBLK
 0
BLOCK
 2
*D40
 70
1
 10
0
 20
0
 0
LINE
 8
0
 10
25
 20
89.375
 11
25
 21
76.75
 0
LINE
 8
0
 10
30
 20
89.375
 11
30
 21
76.75
 0
SOLID
 8
0
 10
22.5
 20
78.416667
 11
22.5
 21
77.583333
 12
25
 22
78
 13
25
 23
78
 0
SOLID
 8
0
 10
32.5
 20
77.583333
 11
32.5
 21
78.416667
 12
30
 22
78
 13
30
 23
78
 0
LINE
 8
0
 10
25
 20
78
 11
21.25
 21
78
 0
LINE
 8
0
 10
30
 20
78
 11
33.75
 21
78
 0
LINE
 8
0
 10
25
 20
78
 11
26.0375
 21
78
 0
LINE
 8
0
 10
28.9625
 20
78
 11
30
 21
78
 0
TEXT
 8
0
 10
27.5
 20
78
 40
2.5
 1
5
 11
27.5
 21
78
 72
1
 73
2
 0
ENDBLK
 0
BLOCK
 2
*D41
 70
1
 10
0
 20
0
 0
LINE
 8
0
 10
80
 20
64.375
 11
80
 21
60.75
 0
LINE
 8
0
 10
115
 20
64.375
 11
115
 21
60.75
 0
SOLID
 8
0
 10
82.5
 20
61.583333
 11
82.5
 21
62.416667
 12
80
 22
62
 13
80
 23
62
 0
SOLID
 8
0
 10
112.5
 20
62.416667
 11
112.5
 21
61.583333
 12
115
 22
62
 13
115
 23
62
 0
LINE
 8
0
 10
80
 20
62
 11
80
 21
62
 0
LINE
 8
0
 10
115
 20
62
 11
115
 21
62
 0
LINE
 8
0
 10
80
 20
62
 11
115
 21
62
 0
TEXT
 8
0
 10
97.5
 20
63.875
 40
2.5
 1
35
 11
97.5
 21
63.875
 72
1
 73
2
 0
ENDBLK
 0
BLOCK
 2
*D42
 70
1
 10
0
 20
0
 0
LINE
 8
0
 10
65
 20
74.375
 11
65
 21
70.75
 0
LINE
 8
0
 10
80
 20
74.375
 11
80
 21
70.75
 0
SOLID
 8
0
 10
67.5
 20
71.583333
 11
67.5
 21
72.416667
 12
65
 22
72
 13
65
 23
72
 0
SOLID
 8
0
 10
77.5
 20
72.416667
 11
77.5
 21
71.583333
 12
80
 22
72
 13
80
 23
72
 0
POLYLINE
 8
0
 66
1
 10
0
 20
0
 70
0
 0
VERTEX
 8
0
 10
65
 20
72
 0
VERTEX
 8
0
 10
64
 20
72
 0
VERTEX
 8
0
 10
59.175
 20
72 
 0
SEQEND
 8
0
 0
LINE
 8
0
 10
80
 20
72
 11
80
 21
72
 0
LINE
 8
0
 10
65
 20
72
 11
80
 21
72
 0
TEXT
 8
0
 10
61.5875
 20
73.875
 40
2.5
 1
15
 11
61.5875
 21
73.875
 72
1
 73
2
 0
ENDBLK
 0
BLOCK
 2
*D43
 70
1
 10
0
 20
0
 0
LINE
 8
0
 10
79.375
 20
65
 11
73.75
 21
65
 0
LINE
 8
0
 10
79.375
 20
75
 11
73.75
 21
75
 0
SOLID
 8
0
 10
75.416667
 20
67.5
 11
74.583333
 21
67.5
 12
75
 22
65
 13
75
 23
65
 0
SOLID
 8
0
 10
74.583333
 20
72.5
 11
75.416667
 21
72.5
 12
75
 22
75
 13
75
 23
75
 0
POLYLINE
 8
0
 66
1
 10
0
 20
0
 70
0
 0
VERTEX
 8
0
 10
75
 20
65
 0
VERTEX
 8
0
 10
75
 20
60
 0
VERTEX
 8
0
 10
79.825
 20
60 
 0
SEQEND
 8
0
 0
LINE
 8
0
 10
75
 20
75
 11
75
 21
75
 0
LINE
 8
0
 10
75
 20
65
 11
75
 21
75
 0
TEXT
 8
0
 10
77.4125
 20
61.875
 40
2.5
 1
10
 11
77.4125
 21
61.875
 72
1
 73
2
 0
ENDBLK
 0
BLOCK
 2
*D44
 70
1
 10
0
 20
0
 0
LINE
 8
0
 10
85.279508
 20
115.559017
 11
87.359017
 21
119.718034
 0
LINE
 8
0
 10
115.279508
 20
100.559017
 11
117.359017
 21
104.718034
 0
SOLID
 8
0
 10
88.849729
 20
117.109288
 11
89.222407
 21
117.854644
 12
86.8
 22
118.6
 13
86.8
 23
118.6
 0
SOLID
 8
0
 10
114.750271
 20
105.090712
 11
114.377593
 21
104.345356
 12
116.8
 22
103.6
 13
116.8
 23
103.6
 0
LINE
 8
0
 10
86.8
 20
118.6
 11
86.8
 21
118.6
 0
LINE
 8
0
 10
116.8
 20
103.6
 11
116.8
 21
103.6
 0
LINE
 8
0
 10
86.8
 20
118.6
 11
98.05
 21
112.975
 0
LINE
 8
0
 10
105.55
 20
109.225
 11
116.8
 21
103.6
 0
TEXT
 8
0
 10
101.8
 20
111.1
 40
2.5
 1
33.54
 11
101.8
 21
111.1
 72
1
 73
2
 0
ENDBLK
 0
BLOCK
 2
*D45
 70
1
 10
0
 20
0
 0
LINE
 8
0
 10
84.720492
 20
114.440983
 11
82.440983
 21
109.881966
 0
LINE
 8
0
 10
94.720492
 20
109.440983
 11
92.440983
 21
104.881966
 0
SOLID
 8
0
 10
85.049729
 20
109.509288
 11
85.422407
 21
110.254644
 12
83
 22
111
 13
83
 23
111
 0
SOLID
 8
0
 10
90.950271
 20
107.490712
 11
90.577593
 21
106.745356
 12
93
 22
106
 13
93
 23
106
 0
LINE
 8
0
 10
83
 20
111
 11
83
 21
111
 0
POLYLINE
 8
0
 66
1
 10
0
 20
0
 70
0
 0
VERTEX
 8
0
 10
93
 20
106
 0
VERTEX
 8
0
 10
97.472136
 20
103.763932
 0
VERTEX
 8
0
 10
107.297136
 20
103.763932 
 0
SEQEND
 8
0
 0
LINE
 8
0
 10
83
 20
111
 11
93
 21
106
 0
TEXT
 8
0
 10
102.384636
 20
105.638932
 40
2.5
 1
11.18
 11
102.384636
 21
105.638932
 72
1
 73
2
 0
ENDBLK
 0
BLOCK
 2
*D46
 70
1
 10
0
 20
0
 0
LINE
 8
0
 10
85
 20
89.375
 11
85
 21
81.75
 0
LINE
 8
0
 10
95
 20
89.375
 11
95
 21
81.75
 0
SOLID
 8
0
 10
87.5
 20
82.583333
 11
87.5
 21
83.416667
 12
85
 22
83
 13
85
 23
83
 0
SOLID
 8
0
 10
92.5
 20
83.416667
 11
92.5
 21
82.583333
 12
95
 22
83
 13
95
 23
83
 0
LINE
 8
0
 10
85
 20
83
 11
85
 21
83
 0
POLYLINE
 8
0
 66
1
 10
0
 20
0
 70
0
 0
VERTEX
 8
0
 10
95
 20
83
 0
VERTEX
 8
0
 10
95
 20
83
 0
VERTEX
 8
0
 10
99.825
 20
83 
 0
SEQEND
 8
0
 0
LINE
 8
0
 10
85
 20
83
 11
95
 21
83
 0
TEXT
 8
0
 10
97.4125
 20
84.875
 40
2.5
 1
10
 11
97.4125
 21
84.875
 72
1
 73
2
 0
ENDBLK
 0
BLOCK
 2
*D47
 70
1
 10
0
 20
0
 0
LINE
 8
0
 10
85
 20
90.625
 11
85
 21
98.25
 0
LINE
 8
0
 10
95
 20
90.625
 11
95
 21
98.25
 0
SOLID
 8
0
 10
87.5
 20
96.583333
 11
87.5
 21
97.416667
 12
85
 22
97
 13
85
 23
97
 0
SOLID
 8
0
 10
92.5
 20
97.416667
 11
92.5
 21
96.583333
 12
95
 22
97
 13
95
 23
97
 0
POLYLINE
 8
0
 66
1
 10
0
 20
0
 70
0
 0
VERTEX
 8
0
 10
85
 20
97
 0
VERTEX
 8
0
 10
72
 20
97
 0
VERTEX
 8
0
 10
67.175
 20
97 
 0
SEQEND
 8
0
 0
LINE
 8
0
 10
95
 20
97
 11
95
 21
97
 0
LINE
 8
0
 10
85
 20
97
 11
95
 21
97
 0
TEXT
 8
0
 10
69.5875
 20
98.875
 40
2.5
 1
10
 11
69.5875
 21
98.875
 72
1
 73
2
 0
ENDBLK
 0
BLOCK
 2
*D48
 70
1
 10
0
 20
0
 0
LINE
 8
0
 10
115.625
 20
100
 11
120.25
 21
100
 0
LINE
 8
0
 10
115.625
 20
65
 11
120.25
 21
65
 0
SOLID
 8
0
 10
118.583333
 20
97.5
 11
119.416667
 21
97.5
 12
119
 22
100
 13
119
 23
100
 0
SOLID
 8
0
 10
119.416667
 20
67.5
 11
118.583333
 21
67.5
 12
119
 22
65
 13
119
 23
65
 0
LINE
 8
0
 10
119
 20
100
 11
119
 21
100
 0
POLYLINE
 8
0
 66
1
 10
0
 20
0
 70
0
 0
VERTEX
 8
0
 10
119
 20
65
 0
VERTEX
 8
0
 10
119
 20
60
 0
VERTEX
 8
0
 10
124.3
 20
60 
 0
SEQEND
 8
0
 0
LINE
 8
0
 10
119
 20
100
 11
119
 21
65
 0
TEXT
 8
0
 10
121.65
 20
61.875
 40
2.5
 1
35
 11
121.65
 21
61.875
 72
1
 73
2
 0
ENDBLK
 0
BLOCK
 2
*D49
 70
1
 10
0
 20
0
 0
LINE
 8
0
 10
114.375
 20
100
 11
60.75
 21
100
 0
LINE
 8
0
 10
84.375
 20
115
 11
60.75
 21
115
 0
SOLID
 8
0
 10
62.416667
 20
102.5
 11
61.583333
 21
102.5
 12
62
 22
100
 13
62
 23
100
 0
SOLID
 8
0
 10
61.583333
 20
112.5
 11
62.416667
 21
112.5
 12
62
 22
115
 13
62
 23
115
 0
LINE
 8
0
 10
62
 20
100
 11
62
 21
100
 0
LINE
 8
0
 10
62
 20
115
 11
62
 21
115
 0
LINE
 8
0
 10
62
 20
100
 11
62
 21
105.625
 0
LINE
 8
0
 10
62
 20
109.375
 11
62
 21
115
 0
TEXT
 8
0
 10
62
 20
107.5
 40
2.5
 1
15
 11
62
 21
107.5
 72
1
 73
2
 0
ENDBLK
 0
BLOCK
 2
*D50
 70
1
 10
0
 20
0
 0
LINE
 8
0
 10
90
 20
89.375
 11
90
 21
76.75
 0
LINE
 8
0
 10
95
 20
89.375
 11
95
 21
76.75
 0
SOLID
 8
0
 10
87.5
 20
78.416667
 11
87.5
 21
77.583333
 12
90
 22
78
 13
90
 23
78
 0
SOLID
 8
0
 10
97.5
 20
77.583333
 11
97.5
 21
78.416667
 12
95
 22
78
 13
95
 23
78
 0
LINE
 8
0
 10
90
 20
78
 11
86.25
 21
78
 0
LINE
 8
0
 10
95
 20
78
 11
98.75
 21
78
 0
LINE
 8
0
 10
90
 20
78
 11
95
 21
78
 0
TEXT
 8
0
 10
92.5
 20
79.875
 40
2.5
 1
5
 11
92.5
 21
79.875
 72
1
 73
2
 0
ENDBLK
 0
BLOCK
 2
*D51
 70
1
 10
0
 20
0
 0
LINE
 8
0
 10
145
 20
64.375
 11
145
 21
60.75
 0
LINE
 8
0
 10
180
 20
64.375
 11
180
 21
60.75
 0
SOLID
 8
0
 10
147.5
 20
61.583333
 11
147.5
 21
62.416667
 12
145
 22
62
 13
145
 23
62
 0
SOLID
 8
0
 10
177.5
 20
62.416667
 11
177.5
 21
61.583333
 12
180
 22
62
 13
180
 23
62
 0
LINE
 8
0
 10
145
 20
62
 11
145
 21
62
 0
LINE
 8
0
 10
180
 20
62
 11
180
 21
62
 0
LINE
 8
0
 10
145
 20
62
 11
180
 21
62
 0
TEXT
 8
0
 10
162.5
 20
60.125
 40
2.5
 1
35
 11
162.5
 21
60.125
 72
1
 73
2
 0
ENDBLK
 0
BLOCK
 2
*D52
 70
1
 10
0
 20
0
 0
LINE
 8
0
 10
130
 20
74.375
 11
130
 21
70.75
 0
LINE
 8
0
 10
145
 20
74.375
 11
145
 21
70.75
 0
SOLID
 8
0
 10
132.5
 20
71.583333
 11
132.5
 21
72.416667
 12
130
 22
72
 13
130
 23
72
 0
SOLID
 8
0
 10
142.5
 20
72.416667
 11
142.5
 21
71.583333
 12
145
 22
72
 13
145
 23
72
 0
POLYLINE
 8
0
 66
1
 10
0
 20
0
 70
0
 0
VERTEX
 8
0
 10
130
 20
72
 0
VERTEX
 8
0
 10
129
 20
72
 0
VERTEX
 8
0
 10
124.175
 20
72 
 0
SEQEND
 8
0
 0
LINE
 8
0
 10
145
 20
72
 11
145
 21
72
 0
LINE
 8
0
 10
130
 20
72
 11
145
 21
72
 0
TEXT
 8
0
 10
126.5875
 20
70.125
 40
2.5
 1
15
 11
126.5875
 21
70.125
 72
1
 73
2
 0
ENDBLK
 0
BLOCK
 2
*D53
 70
1
 10
0
 20
0
 0
LINE
 8
0
 10
144.375
 20
65
 11
138.75
 21
65
 0
LINE
 8
0
 10
144.375
 20
75
 11
138.75
 21
75
 0
SOLID
 8
0
 10
140.416667
 20
67.5
 11
139.583333
 21
67.5
 12
140
 22
65
 13
140
 23
65
 0
SOLID
 8
0
 10
139.583333
 20
72.5
 11
140.416667
 21
72.5
 12
140
 22
75
 13
140
 23
75
 0
POLYLINE
 8
0
 66
1
 10
0
 20
0
 70
0
 0
VERTEX
 8
0
 10
140
 20
65
 0
VERTEX
 8
0
 10
140
 20
63.75
 0
VERTEX
 8
0
 10
144.825
 20
63.75 
 0
SEQEND
 8
0
 0
LINE
 8
0
 10
140
 20
75
 11
140
 21
75
 0
LINE
 8
0
 10
140
 20
65
 11
140
 21
75
 0
TEXT
 8
0
 10
142.4125
 20
61.875
 40
2.5
 1
10
 11
142.4125
 21
61.875
 72
1
 73
2
 0
ENDBLK
 0
BLOCK
 2
*D54
 70
1
 10
0
 20
0
 0
LINE
 8
0
 10
150.279508
 20
115.559017
 11
152.359017
 21
119.718034
 0
LINE
 8
0
 10
180.279508
 20
100.559017
 11
182.359017
 21
104.718034
 0
SOLID
 8
0
 10
153.849729
 20
117.109288
 11
154.222407
 21
117.854644
 12
151.8
 22
118.6
 13
151.8
 23
118.6
 0
SOLID
 8
0
 10
179.750271
 20
105.090712
 11
179.377593
 21
104.345356
 12
181.8
 22
103.6
 13
181.8
 23
103.6
 0
LINE
 8
0
 10
151.8
 20
118.6
 11
151.8
 21
118.6
 0
LINE
 8
0
 10
181.8
 20
103.6
 11
181.8
 21
103.6
 0
LINE
 8
0
 10
151.8
 20
118.6
 11
163.05
 21
112.975
 0
LINE
 8
0
 10
170.55
 20
109.225
 11
181.8
 21
103.6
 0
TEXT
 8
0
 10
166.8
 20
111.1
 40
2.5
 1
33.54
 11
166.8
 21
111.1
 72
1
 73
2
 0
ENDBLK
 0
BLOCK
 2
*D55
 70
1
 10
0
 20
0
 0
LINE
 8
0
 10
149.720492
 20
114.440983
 11
147.440983
 21
109.881966
 0
LINE
 8
0
 10
159.720492
 20
109.440983
 11
157.440983
 21
104.881966
 0
SOLID
 8
0
 10
150.049729
 20
109.509288
 11
150.422407
 21
110.254644
 12
148
 22
111
 13
148
 23
111
 0
SOLID
 8
0
 10
155.950271
 20
107.490712
 11
155.577593
 21
106.745356
 12
158
 22
106
 13
158
 23
106
 0
LINE
 8
0
 10
148
 20
111
 11
148
 21
111
 0
POLYLINE
 8
0
 66
1
 10
0
 20
0
 70
0
 0
VERTEX
 8
0
 10
158
 20
106
 0
VERTEX
 8
0
 10
159.118034
 20
105.440983
 0
VERTEX
 8
0
 10
168.943034
 20
105.440983 
 0
SEQEND
 8
0
 0
LINE
 8
0
 10
148
 20
111
 11
158
 21
106
 0
TEXT
 8
0
 10
164.030534
 20
103.565983
 40
2.5
 1
11.18
 11
164.030534
 21
103.565983
 72
1
 73
2
 0
ENDBLK
 0
BLOCK
 2
*D56
 70
1
 10
0
 20
0
 0
LINE
 8
0
 10
150
 20
89.375
 11
150
 21
81.75
 0
LINE
 8
0
 10
160
 20
89.375
 11
160
 21
81.75
 0
SOLID
 8
0
 10
152.5
 20
82.583333
 11
152.5
 21
83.416667
 12
150
 22
83
 13
150
 23
83
 0
SOLID
 8
0
 10
157.5
 20
83.416667
 11
157.5
 21
82.583333
 12
160
 22
83
 13
160
 23
83
 0
LINE
 8
0
 10
150
 20
83
 11
150
 21
83
 0
POLYLINE
 8
0
 66
1
 10
0
 20
0
 70
0
 0
VERTEX
 8
0
 10
160
 20
83
 0
VERTEX
 8
0
 10
160
 20
83
 0
VERTEX
 8
0
 10
164.825
 20
83 
 0
SEQEND
 8
0
 0
LINE
 8
0
 10
150
 20
83
 11
160
 21
83
 0
TEXT
 8
0
 10
162.4125
 20
81.125
 40
2.5
 1
10
 11
162.4125
 21
81.125
 72
1
 73
2
 0
ENDBLK
 0
BLOCK
 2
*D57
 70
1
 10
0
 20
0
 0
LINE
 8
0
 10
150
 20
90.625
 11
150
 21
98.25
 0
LINE
 8
0
 10
160
 20
90.625
 11
160
 21
98.25
 0
SOLID
 8
0
 10
152.5
 20
96.583333
 11
152.5
 21
97.416667
 12
150
 22
97
 13
150
 23
97
 0
SOLID
 8
0
 10
157.5
 20
97.416667
 11
157.5
 21
96.583333
 12
160
 22
97
 13
160
 23
97
 0
POLYLINE
 8
0
 66
1
 10
0
 20
0
 70
0
 0
VERTEX
 8
0
 10
150
 20
97
 0
VERTEX
 8
0
 10
137
 20
97
 0
VERTEX
 8
0
 10
132.175
 20
97 
 0
SEQEND
 8
0
 0
LINE
 8
0
 10
160
 20
97
 11
160
 21
97
 0
LINE
 8
0
 10
150
 20
97
 11
160
 21
97
 0
TEXT
 8
0
 10
134.5875
 20
95.125
 40
2.5
 1
10
 11
134.5875
 21
95.125
 72
1
 73
2
 0
ENDBLK
 0
BLOCK
 2
*D58
 70
1
 10
0
 20
0
 0
LINE
 8
0
 10
180.625
 20
100
 11
185.25
 21
100
 0
LINE
 8
0
 10
180.625
 20
65
 11
185.25
 21
65
 0
SOLID
 8
0
 10
183.583333
 20
97.5
 11
184.416667
 21
97.5
 12
184
 22
100
 13
184
 23
100
 0
SOLID
 8
0
 10
184.416667
 20
67.5
 11
183.583333
 21
67.5
 12
184
 22
65
 13
184
 23
65
 0
LINE
 8
0
 10
184
 20
100
 11
184
 21
100
 0
POLYLINE
 8
0
 66
1
 10
0
 20
0
 70
0
 0
VERTEX
 8
0
 10
184
 20
65
 0
VERTEX
 8
0
 10
184
 20
63.75
 0
VERTEX
 8
0
 10
189.3
 20
63.75 
 0
SEQEND
 8
0
 0
LINE
 8
0
 10
184
 20
100
 11
184
 21
65
 0
TEXT
 8
0
 10
186.65
 20
61.875
 40
2.5
 1
35
 11
186.65
 21
61.875
 72
1
 73
2
 0
ENDBLK
 0
BLOCK
 2
*D59
 70
1
 10
0
 20
0
 0
LINE
 8
0
 10
179.375
 20
100
 11
125.75
 21
100
 0
LINE
 8
0
 10
149.375
 20
115
 11
125.75
 21
115
 0
SOLID
 8
0
 10
127.416667
 20
102.5
 11
126.583333
 21
102.5
 12
127
 22
100
 13
127
 23
100
 0
SOLID
 8
0
 10
126.583333
 20
112.5
 11
127.416667
 21
112.5
 12
127
 22
115
 13
127
 23
115
 0
LINE
 8
0
 10
127
 20
100
 11
127
 21
100
 0
LINE
 8
0
 10
127
 20
115
 11
127
 21
115
 0
LINE
 8
0
 10
127
 20
100
 11
127
 21
105.625
 0
LINE
 8
0
 10
127
 20
109.375
 11
127
 21
115
 0
TEXT
 8
0
 10
127
 20
107.5
 40
2.5
 1
15
 11
127
 21
107.5
 72
1
 73
2
 0
ENDBLK
 0
BLOCK
 2
*D60
 70
1
 10
0
 20
0
 0
LINE
 8
0
 10
155
 20
89.375
 11
155
 21
76.75
 0
LINE
 8
0
 10
160
 20
89.375
 11
160
 21
76.75
 0
SOLID
 8
0
 10
152.5
 20
78.416667
 11
152.5
 21
77.583333
 12
155
 22
78
 13
155
 23
78
 0
SOLID
 8
0
 10
162.5
 20
77.583333
 11
162.5
 21
78.416667
 12
160
 22
78
 13
160
 23
78
 0
LINE
 8
0
 10
155
 20
78
 11
151.25
 21
78
 0
LINE
 8
0
 10
160
 20
78
 11
163.75
 21
78
 0
LINE
 8
0
 10
155
 20
78
 11
160
 21
78
 0
TEXT
 8
0
 10
157.5
 20
76.125
 40
2.5
 1
5
 11
157.5
 21
76.125
 72
1
 73
2
 0
ENDBLK
 0
ENDSEC
 0
SECTION
 2
ENTITIES
 0
POLYLINE
 8
0
 66
1
 10
0
 20
0
 70
1
 0
VERTEX
 8
0
 10
15
 20
0
 0
VERTEX
 8
0
 10
50
 20
0
 0
VERTEX
 8
0
 10
50
 20
35
 0
VERTEX
 8
0
 10
20
 20
50
 0
VERTEX
 8
0
 10
0
 20
50
 0
VERTEX
 8
0
 10
0
 20
10
 0
VERTEX
 8
0
 10
15
 20
10
 0
SEQEND
 8
0
 0
CIRCLE
 8
0
 10
25
 20
25
 40
5
 0
POLYLINE
 8
0
 66
1
 10
0
 20
0
 70
1
 0
VERTEX
 8
0
 10
80
 20
0
 0
VERTEX
 8
0
 10
115
 20
0
 0
VERTEX
 8
0
 10
115
 20
35
 0
VERTEX
 8
0
 10
85
 20
50
 0
VERTEX
 8
0
 10
65
 20
50
 0
VERTEX
 8
0
 10
65
 20
10
 0
VERTEX
 8
0
 10
80
 20
10
 0
SEQEND
 8
0
 0
CIRCLE
 8
0
 10
90
 20
25
 40
5
 0
POLYLINE
 8
0
 66
1
 10
0
 20
0
 70
1
 0
VERTEX
 8
0
 10
145
 20
0
 0
VERTEX
 8
0
 10
180
 20
0
 0
VERTEX
 8
0
 10
180
 20
35
 0
VERTEX
 8
0
 10
150
 20
50
 0
VERTEX
 8
0
 10
130
 20
50
 0
VERTEX
 8
0
 10
130
 20
10
 0
VERTEX
 8
0
 10
145
 20
10
 0
SEQEND
 8
0
 0
CIRCLE
 8
0
 10
155
 20
25
 40
5
 0
POLYLINE
 8
0
 66
1
 10
0
 20
0
 70
1
 0
VERTEX
 8
0
 10
-20
 20
-20
 0
VERTEX
 8
0
 10
200
 20
-20
 0
VERTEX
 8
0
 10
200
 20
130
 0
VERTEX
 8
0
 10
-20
 20
130
 0
SEQEND
 8
0
 0
POLYLINE
 8
0
 66
1
 10
0
 20
0
 70
1
 0
VERTEX
 8
0
 10
15
 20
65
 0
VERTEX
 8
0
 10
50
 20
65
 0
VERTEX
 8
0
 10
50
 20
100
 0
VERTEX
 8
0
 10
20
 20
115
 0
VERTEX
 8
0
 10
0
 20
115
 0
VERTEX
 8
0
 10
0
 20
75
 0
VERTEX
 8
0
 10
15
 20
75
 0
SEQEND
 8
0
 0
CIRCLE
 8
0
 10
25
 20
90
 40
5
 0
POLYLINE
 8
0
 66
1
 10
0
 20
0
 70
1
 0
VERTEX
 8
0
 10
80
 20
65
 0
VERTEX
 8
0
 10
115
 20
65
 0
VERTEX
 8
0
 10
115
 20
100
 0
VERTEX
 8
0
 10
85
 20
115
 0
VERTEX
 8
0
 10
65
 20
115
 0
VERTEX
 8
0
 10
65
 20
75
 0
VERTEX
 8
0
 10
80
 20
75
 0
SEQEND
 8
0
 0
CIRCLE
 8
0
 10
90
 20
90
 40
5
 0
POLYLINE
 8
0
 66
1
 10
0
 20
0
 70
1
 0
VERTEX
 8
0
 10
145
 20
65
 0
VERTEX
 8
0
 10
180
 20
65
 0
VERTEX
 8
0
 10
180
 20
100
 0
VERTEX
 8
0
 10
150
 20
115
 0
VERTEX
 8
0
 10
130
 20
115
 0
VERTEX
 8
0
 10
130
 20
75
 0
VERTEX
 8
0
 10
145
 20
75
 0
SEQEND
 8
0
 0
CIRCLE
 8
0
 10
155
 20
90
 40
5
 0
DIMENSION
 8
0
 70
0
 2
*D1
 3
BREAK
 1
<>
 13
15
 23
0
 14
50
 24
0
 10
46
 20
-3
 11
32.5
 21
-3
 50
0
 0
DIMENSION
 8
0
 70
0
 2
*D2
 3
BREAK
 1
<>
 13
0
 23
10
 14
15
 24
10
 10
-1
 20
7
 11
-4.912499904632568
 21
7
 50
0
 0
DIMENSION
 8
0
 70
0
 2
*D3
 3
BREAK
 1
<>
 13
15
 23
0
 14
15
 24
10
 10
10
 20
2
 11
10
 21
-4.912499904632568
 50
90
 0
DIMENSION
 8
0
 70
0
 2
*D4
 3
BREAK
 1
<>
 13
20
 23
50
 14
50
 24
35
 10
49
 20
40
 11
36.80000000000001
 21
46.10000000000001
 50
153.434949
 0
DIMENSION
 8
0
 70
0
 2
*D5
 3
BREAK
 1
<>
 13
20
 23
50
 14
30
 24
45
 10
28
 20
41
 11
34.62994146798764
 21
37.68502926600616
 50
153.434949
 0
DIMENSION
 8
0
 70
0
 2
*D6
 3
BREAK
 1
<>
 13
20
 23
25
 14
30
 24
25
 10
29
 20
18
 11
34.91249990463257
 21
18
 50
0
 0
DIMENSION
 8
0
 70
0
 2
*D7
 3
BREAK
 1
<>
 13
20
 23
25
 14
30
 24
25
 10
7
 20
32
 11
4.587500095367432
 21
32
 50
0
 0
DIMENSION
 8
0
 70
0
 2
*D8
 3
BREAK
 1
<>
 13
50
 23
35
 14
50
 24
0
 10
54
 20
-1
 11
54
 21
-5.150000095367432
 50
90
 0
DIMENSION
 8
0
 70
0
 2
*D9
 3
BREAK
 1
<>
 13
50
 23
35
 14
20
 24
50
 10
-3
 20
42
 11
-3
 21
42.5
 50
90
 0
DIMENSION
 8
0
 70
0
 2
*D10
 3
BREAK
 1
<>
 13
25
 23
25
 14
30
 24
25
 10
27
 20
13
 11
27.5
 21
13
 50
0
 0
DIMENSION
 8
0
 70
0
 2
*D11
 3
ABOVE
 1
<>
 13
80
 23
0
 14
115
 24
0
 10
111
 20
-3
 11
97.5
 21
-1.125
 50
0
 0
DIMENSION
 8
0
 70
0
 2
*D12
 3
ABOVE
 1
<>
 13
65
 23
10
 14
80
 24
10
 10
64
 20
7
 11
61.96250009536743
 21
8.875
 50
0
 0
DIMENSION
 8
0
 70
0
 2
*D13
 3
ABOVE
 1
<>
 13
80
 23
0
 14
80
 24
10
 10
75
 20
2
 11
73.125
 21
-3.037499904632568
 50
90
 0
DIMENSION
 8
0
 70
0
 2
*D14
 3
ABOVE
 1
<>
 13
85
 23
50
 14
115
 24
35
 10
114
 20
40
 11
102.63852549156243
 21
47.777050983124866
 50
153.434949
 0
DIMENSION
 8
0
 70
0
 2
*D15
 3
ABOVE
 1
<>
 13
85
 23
50
 14
95
 24
45
 10
93
 20
41
 11
98.79141597642523
 21
40.20060574069343
 50
153.434949
 0
DIMENSION
 8
0
 70
0
 2
*D16
 3
ABOVE
 1
<>
 13
85
 23
25
 14
95
 24
25
 10
94
 20
18
 11
98.03749990463257
 21
19.875
 50
0
 0
DIMENSION
 8
0
 70
0
 2
*D17
 3
ABOVE
 1
<>
 13
85
 23
25
 14
95
 24
25
 10
72
 20
32
 11
74.41249990463257
 21
33.875
 50
0
 0
DIMENSION
 8
0
 70
0
 2
*D18
 3
ABOVE
 1
<>
 13
115
 23
35
 14
115
 24
0
 10
119
 20
-1
 11
117.125
 21
-3.275000095367431
 50
90
 0
DIMENSION
 8
0
 70
0
 2
*D19
 3
ABOVE
 1
<>
 13
115
 23
35
 14
85
 24
50
 10
62
 20
42
 11
60.125
 21
42.5
 50
90
 0
DIMENSION
 8
0
 70
0
 2
*D20
 3
ABOVE
 1
<>
 13
90
 23
25
 14
95
 24
25
 10
92
 20
13
 11
92.5
 21
14.875
 50
0
 0
DIMENSION
 8
0
 70
0
 2
*D21
 3
BELOW
 1
<>
 13
145
 23
0
 14
180
 24
0
 10
176
 20
-3
 11
162.5
 21
-4.875
 50
0
 0
DIMENSION
 8
0
 70
0
 2
*D22
 3
BELOW
 1
<>
 13
130
 23
10
 14
145
 24
10
 10
129
 20
7
 11
126.96250009536743
 21
5.125
 50
0
 0
DIMENSION
 8
0
 70
0
 2
*D23
 3
BELOW
 1
<>
 13
145
 23
0
 14
145
 24
10
 10
140
 20
2
 11
141.875
 21
-3.037499904632569
 50
90
 0
DIMENSION
 8
0
 70
0
 2
*D24
 3
BELOW
 1
<>
 13
150
 23
50
 14
180
 24
35
 10
179
 20
40
 11
165.9614745084376
 21
44.422949016875165
 50
153.434949
 0
DIMENSION
 8
0
 70
0
 2
*D25
 3
BELOW
 1
<>
 13
150
 23
50
 14
160
 24
45
 10
158
 20
41
 11
162.11436499330043
 21
36.84650377444377
 50
153.434949
 0
DIMENSION
 8
0
 70
0
 2
*D26
 3
BELOW
 1
<>
 13
150
 23
25
 14
160
 24
25
 10
159
 20
18
 11
163.03749990463257
 21
16.125
 50
0
 0
DIMENSION
 8
0
 70
0
 2
*D27
 3
BELOW
 1
<>
 13
150
 23
25
 14
160
 24
25
 10
137
 20
32
 11
139.41249990463257
 21
30.125
 50
0
 0
DIMENSION
 8
0
 70
0
 2
*D28
 3
BELOW
 1
<>
 13
180
 23
35
 14
180
 24
0
 10
184
 20
-1
 11
185.875
 21
-3.275000095367432
 50
90
 0
DIMENSION
 8
0
 70
0
 2
*D29
 3
BELOW
 1
<>
 13
180
 23
35
 14
150
 24
50
 10
127
 20
42
 11
128.875
 21
42.5
 50
90
 0
DIMENSION
 8
0
 70
0
 2
*D30
 3
BELOW
 1
<>
 13
155
 23
25
 14
160
 24
25
 10
157
 20
13
 11
157.5
 21
11.125
 50
0
 0
DIMENSION
 8
0
 70
0
 2
*D31
 3
HORZ-BREAK
 1
<>
 13
15
 23
65
 14
50
 24
65
 10
46
 20
62
 11
32.5
 21
62
 50
0
 0
DIMENSION
 8
0
 70
0
 2
*D32
 3
HORZ-BREAK
 1
<>
 13
0
 23
75
 14
15
 24
75
 10
-1
 20
72
 11
-4.912499904632568
 21
72
 50
0
 0
DIMENSION
 8
0
 70
0
 2
*D33
 3
HORZ-BREAK
 1
<>
 13
15
 23
65
 14
15
 24
75
 10
10
 20
67
 11
6.337500095367432
 21
62.5
 50
90
 0
DIMENSION
 8
0
 70
0
 2
*D34
 3
HORZ-BREAK
 1
<>
 13
20
 23
115
 14
50
 24
100
 10
49
 20
105
 11
36.800000000000004
 21
111.1
 50
153.434949
 0
DIMENSION
 8
0
 70
0
 2
*D35
 3
HORZ-BREAK
 1
<>
 13
20
 23
115
 14
30
 24
110
 10
28
 20
106
 11
36.398567882132355
 21
104.88196601125011
 50
153.434949
 0
DIMENSION
 8
0
 70
0
 2
*D36
 3
HORZ-BREAK
 1
<>
 13
20
 23
90
 14
30
 24
90
 10
29
 20
83
 11
34.91249990463257
 21
83
 50
0
 0
DIMENSION
 8
0
 70
0
 2
*D37
 3
HORZ-BREAK
 1
<>
 13
20
 23
90
 14
30
 24
90
 10
7
 20
97
 11
3.3375000953674316
 21
97
 50
0
 0
DIMENSION
 8
0
 70
0
 2
*D38
 3
HORZ-BREAK
 1
<>
 13
50
 23
100
 14
50
 24
65
 10
54
 20
64
 11
57.90000009536743
 21
62.5
 50
90
 0
DIMENSION
 8
0
 70
0
 2
*D39
 3
HORZ-BREAK
 1
<>
 13
50
 23
100
 14
20
 24
115
 10
-3
 20
107
 11
-3
 21
107.5
 50
90
 0
DIMENSION
 8
0
 70
0
 2
*D40
 3
HORZ-BREAK
 1
<>
 13
25
 23
90
 14
30
 24
90
 10
27
 20
78
 11
27.5
 21
78
 50
0
 0
DIMENSION
 8
0
 70
0
 2
*D41
 3
HORZ-ABOVE
 1
<>
 13
80
 23
65
 14
115
 24
65
 10
111
 20
62
 11
97.5
 21
63.875
 50
0
 0
DIMENSION
 8
0
 70
0
 2
*D42
 3
HORZ-ABOVE
 1
<>
 13
65
 23
75
 14
80
 24
75
 10
64
 20
72
 11
61.58750009536743
 21
73.875
 50
0
 0
DIMENSION
 8
0
 70
0
 2
*D43
 3
HORZ-ABOVE
 1
<>
 13
80
 23
65
 14
80
 24
75
 10
75
 20
67
 11
77.41249990463257
 21
61.875
 50
90
 0
DIMENSION
 8
0
 70
0
 2
*D44
 3
HORZ-ABOVE
 1
<>
 13
85
 23
115
 14
115
 24
100
 10
114
 20
105
 11
101.80000000000001
 21
111.10000000000002
 50
153.434949
 0
DIMENSION
 8
0
 70
0
 2
*D45
 3
HORZ-ABOVE
 1
<>
 13
85
 23
115
 14
95
 24
110
 10
93
 20
106
 11
102.38463585963214
 21
105.63893202250021
 50
153.434949
 0
DIMENSION
 8
0
 70
0
 2
*D46
 3
HORZ-ABOVE
 1
<>
 13
85
 23
90
 14
95
 24
90
 10
94
 20
83
 11
97.41249990463257
 21
84.875
 50
0
 0
DIMENSION
 8
0
 70
0
 2
*D47
 3
HORZ-ABOVE
 1
<>
 13
85
 23
90
 14
95
 24
90
 10
72
 20
97
 11
69.58750009536743
 21
98.875
 50
0
 0
DIMENSION
 8
0
 70
0
 2
*D48
 3
HORZ-ABOVE
 1
<>
 13
115
 23
100
 14
115
 24
65
 10
119
 20
64
 11
121.65000009536743
 21
61.874999999999986
 50
90
 0
DIMENSION
 8
0
 70
0
 2
*D49
 3
HORZ-ABOVE
 1
<>
 13
115
 23
100
 14
85
 24
115
 10
62
 20
107
 11
62
 21
107.5
 50
90
 0
DIMENSION
 8
0
 70
0
 2
*D50
 3
HORZ-ABOVE
 1
<>
 13
90
 23
90
 14
95
 24
90
 10
92
 20
78
 11
92.5
 21
79.875
 50
0
 0
DIMENSION
 8
0
 70
0
 2
*D51
 3
HORZ-BELOW
 1
<>
 13
145
 23
65
 14
180
 24
65
 10
176
 20
62
 11
162.5
 21
60.125
 50
0
 0
DIMENSION
 8
0
 70
0
 2
*D52
 3
HORZ-BELOW
 1
<>
 13
130
 23
75
 14
145
 24
75
 10
129
 20
72
 11
126.58750009536743
 21
70.125
 50
0
 0
DIMENSION
 8
0
 70
0
 2
*D53
 3
HORZ-BELOW
 1
<>
 13
145
 23
65
 14
145
 24
75
 10
140
 20
67
 11
142.41249990463257
 21
61.875
 50
90
 0
DIMENSION
 8
0
 70
0
 2
*D54
 3
HORZ-BELOW
 1
<>
 13
150
 23
115
 14
180
 24
100
 10
179
 20
105
 11
166.8
 21
111.1
 50
153.434949
 0
DIMENSION
 8
0
 70
0
 2
*D55
 3
HORZ-BELOW
 1
<>
 13
150
 23
115
 14
160
 24
110
 10
158
 20
106
 11
164.0305338933825
 21
103.56598300562507
 50
153.434949
 0
DIMENSION
 8
0
 70
0
 2
*D56
 3
HORZ-BELOW
 1
<>
 13
150
 23
90
 14
160
 24
90
 10
159
 20
83
 11
162.41249990463257
 21
81.125
 50
0
 0
DIMENSION
 8
0
 70
0
 2
*D57
 3
HORZ-BELOW
 1
<>
 13
150
 23
90
 14
160
 24
90
 10
137
 20
97
 11
134.58750009536743
 21
95.125
 50
0
 0
DIMENSION
 8
0
 70
0
 2
*D58
 3
HORZ-BELOW
 1
<>
 13
180
 23
100
 14
180
 24
65
 10
184
 20
64
 11
186.65000009536743
 21
61.875
 50
90
 0
DIMENSION
 8
0
 70
0
 2
*D59
 3
HORZ-BELOW
 1
<>
 13
180
 23
100
 14
150
 24
115
 10
127
 20
107
 11
127
 21
107.5
 50
90
 0
DIMENSION
 8
0
 70
0
 2
*D60
 3
HORZ-BELOW
 1
<>
 13
155
 23
90
 14
160
 24
90
 10
157
 20
78
 11
157.5
 21
76.125
 50
0
 0
ENDSEC
 0
EOF
