 0
SECTION
 2
HEADER
 9
$ACADVER
 1
AC1009
 9
$EXTMIN
 10
0
 20
0
 30
0
 9
$EXTMAX
 10
220
 20
125
 30
0
 9
$VIEWCTR
 10
110
 20
62.5
 9
$VIEWSIZE
 40
145.2
 9
$CLAYER
 8
0
 9
$DIMSTYLE
 2
HORZ-BELOW
 0
ENDSEC
 0
SECTION
 2
TABLES
 0
TABLE
 2
LAYER
 70
1
 0
LAYER
 2
0
 70
0
 62
7
 6
CONTINUOUS
 0
ENDTAB
 0
TABLE
 2
STYLE
 70
1
 0
STYLE
 2
STANDARD
 70
0
 40
0
 41
1
 50
0
 71
0
 42
1
 3
SIMPLEX
 4

 0
ENDTAB
 0
TABLE
 2
DIMSTYLE
 70
6
 0
DIMSTYLE
 2
BREAK
 70
0
 3

 4

 5

 6

 7

 40
1
 41
2.5
 42
0.625
 43
3.75
 44
1.25
 45
0
 46
0
 47
0
 48
0
 140
2.5
 141
2.5
 142
0
 143
25.4
 144
1
 145
0
 146
1
 147
0.625
 71
0
 72
0
 73
0
 74
0
 75
0
 76
0
 77
0
 78
0
 170
0
 171
2
 172
1
 173
0
 174
0
 175
0
 176
0
 177
0
 178
0
 0
DIMSTYLE
 2
ABOVE
 70
0
 3

 4

 5

 6

 7

 40
1
 41
2.5
 42
0.625
 43
3.75
 44
1.25
 45
0
 46
0
 47
0
 48
0
 140
2.5
 141
2.5
 142
0
 143
25.4
 144
1
 145
0
 146
1
 147
0.625
 71
0
 72
0
 73
0
 74
0
 75
0
 76
0
 77
1
 78
0
 170
0
 171
2
 172
1
 173
0
 174
0
 175
0
 176
0
 177
0
 178
0
 0
DIMSTYLE
 2
BELOW
 70
0
 3

 4

 5

 6

 7

 40
1
 41
2.5
 42
0.625
 43
3.75
 44
1.25
 45
0
 46
0
 47
0
 48
0
 140
2.5
 141
2.5
 142
0
 143
25.4
 144
1
 145
0
 146
1
 147
0.625
 71
0
 72
0
 73
0
 74
0
 75
0
 76
0
 77
4
 78
0
 170
0
 171
2
 172
1
 173
0
 174
0
 175
0
 176
0
 177
0
 178
0
 0
DIMSTYLE
 2
HORZ-BREAK
 70
0
 3

 4

 5

 6

 7

 40
1
 41
2.5
 42
0.625
 43
3.75
 44
1.25
 45
0
 46
0
 47
0
 48
0
 140
2.5
 141
2.5
 142
0
 143
25.4
 144
1
 145
0
 146
1
 147
0.625
 71
0
 72
0
 73
1
 74
1
 75
0
 76
0
 77
0
 78
0
 170
0
 171
2
 172
1
 173
0
 174
0
 175
0
 176
0
 177
0
 178
0
 0
DIMSTYLE
 2
HORZ-ABOVE
 70
0
 3

 4

 5

 6

 7

 40
1
 41
2.5
 42
0.625
 43
3.75
 44
1.25
 45
0
 46
0
 47
0
 48
0
 140
2.5
 141
2.5
 142
0
 143
25.4
 144
1
 145
0
 146
1
 147
0.625
 71
0
 72
0
 73
1
 74
1
 75
0
 76
0
 77
1
 78
0
 170
0
 171
2
 172
1
 173
0
 174
0
 175
0
 176
0
 177
0
 178
0
 0
DIMSTYLE
 2
HORZ-BELOW
 70
0
 3

 4

 5

 6

 7

 40
1
 41
2.5
 42
0.625
 43
3.75
 44
1.25
 45
0
 46
0
 47
0
 48
0
 140
2.5
 141
2.5
 142
0
 143
25.4
 144
1
 145
0
 146
1
 147
0.625
 71
0
 72
0
 73
1
 74
1
 75
0
 76
0
 77
4
 78
0
 170
0
 171
2
 172
1
 173
0
 174
0
 175
0
 176
0
 177
0
 178
0
 0
ENDTAB
 0
ENDSEC
 0
SECTION
 2
BLOCKS
 0
BLOCK
 2
*D1
 70
1
 10
0
 20
0
 0
SOLID
 8
0
 10
11.85832
 20
13.436263
 11
12.423553
 21
12.823927
 12
13.977945
 22
14.825795
 13
13.977945
 23
14.825795
 0
LINE
 8
0
 10
13.977945
 20
14.825795
 11
11.222432
 21
12.282245
 0
TEXT
 8
0
 10
8.531214
 20
9.798044
 40
2.5
 1
R15
 11
8.531214
 21
9.798044
 50
42.709388
 72
1
 73
2
 0
ENDBLK
 0
BLOCK
 2
*D2
 70
1
 10
0
 20
0
 0
SOLID
 8
0
 10
14.225823
 20
18.648557
 11
13.82678
 21
19.380136
 12
11.831562
 22
17.817217
 13
11.831562
 23
17.817217
 0
LINE
 8
0
 10
11.831562
 20
17.817217
 11
15.123672
 21
19.612911
 0
TEXT
 8
0
 10
18.338965
 20
21.366706
 40
2.5
 1
R15
 11
18.338965
 21
21.366706
 50
28.610439
 72
1
 73
2
 0
ENDBLK
 0
BLOCK
 2
*D3
 70
1
 10
0
 20
0
 0
SOLID
 8
0
 10
62.721572
 20
38.32275
 11
63.120615
 21
37.59117
 12
65.115833
 22
39.15409
 13
65.115833
 23
39.15409
 0
LINE
 8
0
 10
65.115833
 20
39.15409
 11
61.823724
 21
37.358395
 0
TEXT
 8
0
 10
58.39993
 20
35.490873
 40
2.5
 1
R40
 11
58.39993
 21
35.490873
 50
28.610441
 72
1
 73
2
 0
ENDBLK
 0
BLOCK
 2
*D4
 70
1
 10
0
 20
0
 0
SOLID
 8
0
 10
64.961428
 20
44.168639
 11
64.480859
 21
44.849446
 12
62.678724
 22
43.067335
 13
62.678724
 23
43.067335
 0
LINE
 8
0
 10
62.678724
 20
43.067335
 11
65.742354
 21
45.229896
 0
TEXT
 8
0
 10
68.928529
 20
47.47896
 40
2.5
 1
R40
 11
68.928529
 21
47.47896
 50
35.217583
 72
1
 73
2
 0
ENDBLK
 0
BLOCK
 2
*D5
 70
1
 10
0
 20
0
 0
SOLID
 8
0
 10
61.542957
 20
48.486251
 11
60.978394
 21
49.099205
 12
59.421813
 22
47.099039
 13
59.421813
 23
47.099039
 0
LINE
 8
0
 10
59.421813
 20
47.099039
 11
68
 21
55
 0
TEXT
 8
0
 10
70.868626
 20
57.642155
 40
2.5
 1
R40
 11
70.868626
 21
57.642155
 50
42.646701
 72
1
 73
2
 0
ENDBLK
 0
BLOCK
 2
*D6
 70
1
 10
0
 20
0
 0
SOLID
 8
0
 10
65.668726
 20
31.583012
 11
65.917288
 21
30.787612
 12
68.179207
 22
31.930998
 13
68.179207
 23
31.930998
 0
LINE
 8
0
 10
68.179207
 20
31.930998
 11
68.179207
 21
31.930998
 0
POINT
 8
0
 10
30.00002988300734
 20
20.00002988300734
 0
LINE
 8
0
 10
68.179207
 20
31.930998
 11
52.812091
 21
27.128784
 0
LINE
 8
0
 10
45.367146
 20
24.802244
 11
30.59658
 21
20.186451
 0
TEXT
 8
0
 10
49.089619
 20
25.965514
 40
2.5
 1
R40
 11
49.089619
 21
25.965514
 50
17.353991
 72
1
 73
2
 0
ENDBLK
 0
BLOCK
 2
*D7
 70
1
 10
0
 20
0
 0
SOLID
 8
0
 10
52.880428
 20
49.71381
 11
53.535005
 21
49.198083
 12
54.754897
 22
51.419676
 13
54.754897
 23
51.419676
 0
LINE
 8
0
 10
54.754897
 20
51.419676
 11
56.302077
 21
53.383406
 0
POINT
 8
0
 10
30.00002988300734
 20
20.00002988300734
 0
LINE
 8
0
 10
54.754897
 20
51.419676
 11
30.386825
 21
20.490962
 0
TEXT
 8
0
 10
58.715678
 20
56.446823
 40
2.5
 1
R40
 11
58.715678
 21
56.446823
 50
51.766182
 72
1
 73
2
 0
ENDBLK
 0
BLOCK
 2
*D8
 70
1
 10
0
 20
0
 0
SOLID
 8
0
 10
81.85832
 20
13.436263
 11
82.423553
 21
12.823927
 12
83.977945
 22
14.825795
 13
83.977945
 23
14.825795
 0
LINE
 8
0
 10
83.977945
 20
14.825795
 11
76.299249
 21
7.737769
 0
TEXT
 8
0
 10
77.718691
 20
11.599726
 40
2.5
 1
R15
 11
77.718691
 21
11.599726
 50
42.709388
 72
1
 73
2
 0
ENDBLK
 0
BLOCK
 2
*D9
 70
1
 10
0
 20
0
 0
SOLID
 8
0
 10
84.225823
 20
18.648557
 11
83.82678
 21
19.380136
 12
81.831562
 22
17.817217
 13
81.831562
 23
17.817217
 0
LINE
 8
0
 10
81.831562
 20
17.817217
 11
91.005573
 21
22.821218
 0
TEXT
 8
0
 10
86.892433
 20
22.713478
 40
2.5
 1
R15
 11
86.892433
 21
22.713478
 50
28.610439
 72
1
 73
2
 0
ENDBLK
 0
BLOCK
 2
*D10
 70
1
 10
0
 20
0
 0
SOLID
 8
0
 10
132.721572
 20
38.32275
 11
133.120615
 21
37.59117
 12
135.115833
 22
39.15409
 13
135.115833
 23
39.15409
 0
LINE
 8
0
 10
135.115833
 20
39.15409
 11
125.524822
 21
33.922633
 0
TEXT
 8
0
 10
128.050768
 20
37.43621
 40
2.5
 1
R40
 11
128.050768
 21
37.43621
 50
28.610441
 72
1
 73
2
 0
ENDBLK
 0
BLOCK
 2
*D11
 70
1
 10
0
 20
0
 0
SOLID
 8
0
 10
134.961428
 20
44.168639
 11
134.480859
 21
44.849446
 12
132.678724
 22
43.067335
 13
132.678724
 23
43.067335
 0
LINE
 8
0
 10
132.678724
 20
43.067335
 11
141.604099
 21
49.367597
 0
TEXT
 8
0
 10
137.336643
 20
48.650348
 40
2.5
 1
R40
 11
137.336643
 21
48.650348
 50
35.217583
 72
1
 73
2
 0
ENDBLK
 0
BLOCK
 2
*D12
 70
1
 10
0
 20
0
 0
SOLID
 8
0
 10
131.482169
 20
48.553418
 11
130.916301
 21
49.165168
 12
129.363986
 22
47.161688
 13
129.363986
 23
47.161688
 0
LINE
 8
0
 10
129.363986
 20
47.161688
 11
140
 21
57
 0
TEXT
 8
0
 10
135.863808
 20
55.728173
 40
2.5
 1
R40
 11
135.863808
 21
55.728173
 50
42.768824
 72
1
 73
2
 0
ENDBLK
 0
BLOCK
 2
*D13
 70
1
 10
0
 20
0
 0
SOLID
 8
0
 10
135.668726
 20
31.583012
 11
135.917288
 21
30.787612
 12
138.179207
 22
31.930998
 13
138.179207
 23
31.930998
 0
LINE
 8
0
 10
138.179207
 20
31.930998
 11
138.179207
 21
31.930998
 0
POINT
 8
0
 10
100.00002988300734
 20
20.00002988300734
 0
LINE
 8
0
 10
138.179207
 20
31.930998
 11
100.59658
 21
20.186451
 0
TEXT
 8
0
 10
118.530354
 20
27.755164
 40
2.5
 1
R40
 11
118.530354
 21
27.755164
 50
17.353991
 72
1
 73
2
 0
ENDBLK
 0
BLOCK
 2
*D14
 70
1
 10
0
 20
0
 0
SOLID
 8
0
 10
122.880428
 20
49.71381
 11
123.535005
 21
49.198083
 12
124.754897
 22
51.419676
 13
124.754897
 23
51.419676
 0
LINE
 8
0
 10
124.754897
 20
51.419676
 11
129.968895
 21
58.037444
 0
POINT
 8
0
 10
100.00002988300734
 20
20.00002988300734
 0
LINE
 8
0
 10
124.754897
 20
51.419676
 11
100.386825
 21
20.490962
 0
TEXT
 8
0
 10
126.082496
 20
56.134412
 40
2.5
 1
R40
 11
126.082496
 21
56.134412
 50
51.766182
 72
1
 73
2
 0
ENDBLK
 0
BLOCK
 2
*D15
 70
1
 10
0
 20
0
 0
SOLID
 8
0
 10
151.85832
 20
13.436263
 11
152.423553
 21
12.823927
 12
153.977945
 22
14.825795
 13
153.977945
 23
14.825795
 0
LINE
 8
0
 10
153.977945
 20
14.825795
 11
146.299249
 21
7.737769
 0
TEXT
 8
0
 10
150.262242
 20
8.844213
 40
2.5
 1
R15
 11
150.262242
 21
8.844213
 50
42.709388
 72
1
 73
2
 0
ENDBLK
 0
BLOCK
 2
*D16
 70
1
 10
0
 20
0
 0
SOLID
 8
0
 10
154.225823
 20
18.648557
 11
153.82678
 21
19.380136
 12
151.831562
 22
17.817217
 13
151.831562
 23
17.817217
 0
LINE
 8
0
 10
151.831562
 20
17.817217
 11
161.005573
 21
22.821218
 0
TEXT
 8
0
 10
158.688127
 20
19.421369
 40
2.5
 1
R15
 11
158.688127
 21
19.421369
 50
28.610439
 72
1
 73
2
 0
ENDBLK
 0
BLOCK
 2
*D17
 70
1
 10
0
 20
0
 0
SOLID
 8
0
 10
202.721572
 20
38.32275
 11
203.120615
 21
37.59117
 12
205.115833
 22
39.15409
 13
205.115833
 23
39.15409
 0
LINE
 8
0
 10
205.115833
 20
39.15409
 11
195.524822
 21
33.922633
 0
TEXT
 8
0
 10
199.846462
 20
34.144101
 40
2.5
 1
R40
 11
199.846462
 21
34.144101
 50
28.610441
 72
1
 73
2
 0
ENDBLK
 0
BLOCK
 2
*D18
 70
1
 10
0
 20
0
 0
SOLID
 8
0
 10
204.961428
 20
44.168639
 11
204.480859
 21
44.849446
 12
202.678724
 22
43.067335
 13
202.678724
 23
43.067335
 0
LINE
 8
0
 10
202.678724
 20
43.067335
 11
211.604099
 21
49.367597
 0
TEXT
 8
0
 10
209.499205
 20
45.586719
 40
2.5
 1
R40
 11
209.499205
 21
45.586719
 50
35.217583
 72
1
 73
2
 0
ENDBLK
 0
BLOCK
 2
*D19
 70
1
 10
0
 20
0
 0
SOLID
 8
0
 10
201.482169
 20
48.553418
 11
200.916301
 21
49.165168
 12
199.363986
 22
47.161688
 13
199.363986
 23
47.161688
 0
LINE
 8
0
 10
199.363986
 20
47.161688
 11
210
 21
57
 0
TEXT
 8
0
 10
208.410216
 20
52.9753
 40
2.5
 1
R40
 11
208.410216
 21
52.9753
 50
42.768824
 72
1
 73
2
 0
ENDBLK
 0
BLOCK
 2
*D20
 70
1
 10
0
 20
0
 0
SOLID
 8
0
 10
205.668726
 20
31.583012
 11
205.917288
 21
30.787612
 12
208.179207
 22
31.930998
 13
208.179207
 23
31.930998
 0
LINE
 8
0
 10
208.179207
 20
31.930998
 11
208.179207
 21
31.930998
 0
POINT
 8
0
 10
170.00002988300733
 20
20.00002988300734
 0
LINE
 8
0
 10
208.179207
 20
31.930998
 11
170.59658
 21
20.186451
 0
TEXT
 8
0
 10
189.648883
 20
24.175864
 40
2.5
 1
R40
 11
189.648883
 21
24.175864
 50
17.353991
 72
1
 73
2
 0
ENDBLK
 0
BLOCK
 2
*D21
 70
1
 10
0
 20
0
 0
SOLID
 8
0
 10
192.880428
 20
49.71381
 11
193.535005
 21
49.198083
 12
194.754897
 22
51.419676
 13
194.754897
 23
51.419676
 0
LINE
 8
0
 10
194.754897
 20
51.419676
 11
199.968895
 21
58.037444
 0
POINT
 8
0
 10
170.00002988300733
 20
20.00002988300734
 0
LINE
 8
0
 10
194.754897
 20
51.419676
 11
170.386825
 21
20.490962
 0
TEXT
 8
0
 10
199.02809
 20
53.813641
 40
2.5
 1
R40
 11
199.02809
 21
53.813641
 50
51.766182
 72
1
 73
2
 0
ENDBLK
 0
BLOCK
 2
*D22
 70
1
 10
0
 20
0
 0
SOLID
 8
0
 10
11.85832
 20
68.436263
 11
12.423553
 21
67.823927
 12
13.977945
 22
69.825795
 13
13.977945
 23
69.825795
 0
POLYLINE
 8
0
 66
1
 10
0
 20
0
 70
0
 0
VERTEX
 8
0
 10
13.977945
 20
69.825795
 0
VERTEX
 8
0
 10
11.222432
 20
67.282245
 0
VERTEX
 8
0
 10
9.972432
 20
67.282245 
 0
SEQEND
 8
0
 0
TEXT
 8
0
 10
6.309932
 20
67.282245
 40
2.5
 1
R15
 11
6.309932
 21
67.282245
 72
1
 73
2
 0
ENDBLK
 0
BLOCK
 2
*D23
 70
1
 10
0
 20
0
 0
SOLID
 8
0
 10
14.225823
 20
73.648557
 11
13.82678
 21
74.380136
 12
11.831562
 22
72.817217
 13
11.831562
 23
72.817217
 0
POLYLINE
 8
0
 66
1
 10
0
 20
0
 70
0
 0
VERTEX
 8
0
 10
11.831562
 20
72.817217
 0
VERTEX
 8
0
 10
15.123672
 20
74.612911
 0
VERTEX
 8
0
 10
16.373672
 20
74.612911 
 0
SEQEND
 8
0
 0
TEXT
 8
0
 10
20.036171
 20
74.612911
 40
2.5
 1
R15
 11
20.036171
 21
74.612911
 72
1
 73
2
 0
ENDBLK
 0
BLOCK
 2
*D24
 70
1
 10
0
 20
0
 0
SOLID
 8
0
 10
62.721572
 20
93.32275
 11
63.120615
 21
92.59117
 12
65.115833
 22
94.15409
 13
65.115833
 23
94.15409
 0
POLYLINE
 8
0
 66
1
 10
0
 20
0
 70
0
 0
VERTEX
 8
0
 10
65.115833
 20
94.15409
 0
VERTEX
 8
0
 10
61.823724
 20
92.358395
 0
VERTEX
 8
0
 10
60.573724
 20
92.358395 
 0
SEQEND
 8
0
 0
TEXT
 8
0
 10
56.673724
 20
92.358395
 40
2.5
 1
R40
 11
56.673724
 21
92.358395
 72
1
 73
2
 0
ENDBLK
 0
BLOCK
 2
*D25
 70
1
 10
0
 20
0
 0
SOLID
 8
0
 10
64.961428
 20
99.168639
 11
64.480859
 21
99.849446
 12
62.678724
 22
98.067335
 13
62.678724
 23
98.067335
 0
POLYLINE
 8
0
 66
1
 10
0
 20
0
 70
0
 0
VERTEX
 8
0
 10
62.678724
 20
98.067335
 0
VERTEX
 8
0
 10
65.742354
 20
100.229896
 0
VERTEX
 8
0
 10
66.992354
 20
100.229896 
 0
SEQEND
 8
0
 0
TEXT
 8
0
 10
70.892354
 20
100.229896
 40
2.5
 1
R40
 11
70.892354
 21
100.229896
 72
1
 73
2
 0
ENDBLK
 0
BLOCK
 2
*D26
 70
1
 10
0
 20
0
 0
SOLID
 8
0
 10
61.542957
 20
103.486251
 11
60.978394
 21
104.099205
 12
59.421813
 22
102.099039
 13
59.421813
 23
102.099039
 0
POLYLINE
 8
0
 66
1
 10
0
 20
0
 70
0
 0
VERTEX
 8
0
 10
59.421813
 20
102.099039
 0
VERTEX
 8
0
 10
68
 20
110
 0
VERTEX
 8
0
 10
69.25
 20
110 
 0
SEQEND
 8
0
 0
TEXT
 8
0
 10
73.15
 20
110
 40
2.5
 1
R40
 11
73.15
 21
110
 72
1
 73
2
 0
ENDBLK
 0
BLOCK
 2
*D27
 70
1
 10
0
 20
0
 0
SOLID
 8
0
 10
65.668726
 20
86.583012
 11
65.917288
 21
85.787612
 12
68.179207
 22
86.930998
 13
68.179207
 23
86.930998
 0
LINE
 8
0
 10
68.179207
 20
86.930998
 11
68.179207
 21
86.930998
 0
POINT
 8
0
 10
30.00002988300734
 20
75.00002988300734
 0
LINE
 8
0
 10
68.179207
 20
86.930998
 11
52.989619
 21
82.184262
 0
LINE
 8
0
 10
45.189619
 20
79.746767
 11
30.59658
 21
75.186451
 0
TEXT
 8
0
 10
49.089619
 20
80.965514
 40
2.5
 1
R40
 11
49.089619
 21
80.965514
 72
1
 73
2
 0
ENDBLK
 0
BLOCK
 2
*D28
 70
1
 10
0
 20
0
 0
SOLID
 8
0
 10
49.603674
 20
106.970618
 11
50.309205
 21
106.527142
 12
51.286868
 22
108.865471
 13
51.286868
 23
108.865471
 0
POLYLINE
 8
0
 66
1
 10
0
 20
0
 70
0
 0
VERTEX
 8
0
 10
51.286868
 20
108.865471
 0
VERTEX
 8
0
 10
52.617296
 20
110.982063
 0
VERTEX
 8
0
 10
53.867296
 20
110.982063 
 0
SEQEND
 8
0
 0
POINT
 8
0
 10
30.00002988300734
 20
75.00002988300734
 0
LINE
 8
0
 10
51.286868
 20
108.865471
 11
30.332637
 21
75.529178
 0
TEXT
 8
0
 10
57.767297
 20
110.982063
 40
2.5
 1
R40
 11
57.767297
 21
110.982063
 72
1
 73
2
 0
ENDBLK
 0
BLOCK
 2
*D29
 70
1
 10
0
 20
0
 0
SOLID
 8
0
 10
81.85832
 20
68.436263
 11
82.423553
 21
67.823927
 12
83.977945
 22
69.825795
 13
83.977945
 23
69.825795
 0
POLYLINE
 8
0
 66
1
 10
0
 20
0
 70
0
 0
VERTEX
 8
0
 10
83.977945
 20
69.825795
 0
VERTEX
 8
0
 10
79.385423
 20
65.586545
 0
VERTEX
 8
0
 10
72.060424
 20
65.586545 
 0
SEQEND
 8
0
 0
TEXT
 8
0
 10
75.722923
 20
67.461545
 40
2.5
 1
R15
 11
75.722923
 21
67.461545
 72
1
 73
2
 0
ENDBLK
 0
BLOCK
 2
*D30
 70
1
 10
0
 20
0
 0
SOLID
 8
0
 10
84.225823
 20
73.648557
 11
83.82678
 21
74.380136
 12
81.831562
 22
72.817217
 13
81.831562
 23
72.817217
 0
POLYLINE
 8
0
 66
1
 10
0
 20
0
 70
0
 0
VERTEX
 8
0
 10
81.831562
 20
72.817217
 0
VERTEX
 8
0
 10
85.123672
 20
74.612911
 0
VERTEX
 8
0
 10
92.448671
 20
74.612911 
 0
SEQEND
 8
0
 0
TEXT
 8
0
 10
88.786171
 20
76.487911
 40
2.5
 1
R15
 11
88.786171
 21
76.487911
 72
1
 73
2
 0
ENDBLK
 0
BLOCK
 2
*D31
 70
1
 10
0
 20
0
 0
SOLID
 8
0
 10
132.721572
 20
93.32275
 11
133.120615
 21
92.59117
 12
135.115833
 22
94.15409
 13
135.115833
 23
94.15409
 0
POLYLINE
 8
0
 66
1
 10
0
 20
0
 70
0
 0
VERTEX
 8
0
 10
135.115833
 20
94.15409
 0
VERTEX
 8
0
 10
129.628984
 20
91.161266
 0
VERTEX
 8
0
 10
121.828984
 20
91.161266 
 0
SEQEND
 8
0
 0
TEXT
 8
0
 10
125.728984
 20
93.036266
 40
2.5
 1
R40
 11
125.728984
 21
93.036266
 72
1
 73
2
 0
ENDBLK
 0
BLOCK
 2
*D32
 70
1
 10
0
 20
0
 0
SOLID
 8
0
 10
134.961428
 20
99.168639
 11
134.480859
 21
99.849446
 12
132.678724
 22
98.067335
 13
132.678724
 23
98.067335
 0
POLYLINE
 8
0
 66
1
 10
0
 20
0
 70
0
 0
VERTEX
 8
0
 10
132.678724
 20
98.067335
 0
VERTEX
 8
0
 10
135.742354
 20
100.229896
 0
VERTEX
 8
0
 10
143.542354
 20
100.229896 
 0
SEQEND
 8
0
 0
TEXT
 8
0
 10
139.642354
 20
102.104896
 40
2.5
 1
R40
 11
139.642354
 21
102.104896
 72
1
 73
2
 0
ENDBLK
 0
BLOCK
 2
*D33
 70
1
 10
0
 20
0
 0
SOLID
 8
0
 10
131.542957
 20
103.486251
 11
130.978394
 21
104.099205
 12
129.421813
 22
102.099039
 13
129.421813
 23
102.099039
 0
POLYLINE
 8
0
 66
1
 10
0
 20
0
 70
0
 0
VERTEX
 8
0
 10
129.421813
 20
102.099039
 0
VERTEX
 8
0
 10
138
 20
110
 0
VERTEX
 8
0
 10
145.8
 20
110 
 0
SEQEND
 8
0
 0
TEXT
 8
0
 10
141.9
 20
111.875
 40
2.5
 1
R40
 11
141.9
 21
111.875
 72
1
 73
2
 0
ENDBLK
 0
BLOCK
 2
*D34
 70
1
 10
0
 20
0
 0
SOLID
 8
0
 10
135.668726
 20
86.583012
 11
135.917288
 21
85.787612
 12
138.179207
 22
86.930998
 13
138.179207
 23
86.930998
 0
LINE
 8
0
 10
138.179207
 20
86.930998
 11
138.179207
 21
86.930998
 0
POINT
 8
0
 10
100.00002988300734
 20
75.00002988300734
 0
LINE
 8
0
 10
138.179207
 20
86.930998
 11
122.989619
 21
82.184262
 0
LINE
 8
0
 10
115.189619
 20
79.746767
 11
100.59658
 21
75.186451
 0
TEXT
 8
0
 10
119.089619
 20
80.965514
 40
2.5
 1
R40
 11
119.089619
 21
80.965514
 72
1
 73
2
 0
ENDBLK
 0
BLOCK
 2
*D35
 70
1
 10
0
 20
0
 0
SOLID
 8
0
 10
119.603674
 20
106.970618
 11
120.309205
 21
106.527142
 12
121.286868
 22
108.865471
 13
121.286868
 23
108.865471
 0
POLYLINE
 8
0
 66
1
 10
0
 20
0
 70
0
 0
VERTEX
 8
0
 10
121.286868
 20
108.865471
 0
VERTEX
 8
0
 10
122
 20
110
 0
VERTEX
 8
0
 10
129.8
 20
110 
 0
SEQEND
 8
0
 0
POINT
 8
0
 10
100.00002988300734
 20
75.00002988300734
 0
LINE
 8
0
 10
121.286868
 20
108.865471
 11
100.332637
 21
75.529178
 0
TEXT
 8
0
 10
125.9
 20
111.875
 40
2.5
 1
R40
 11
125.9
 21
111.875
 72
1
 73
2
 0
ENDBLK
 0
BLOCK
 2
*D36
 70
1
 10
0
 20
0
 0
SOLID
 8
0
 10
151.85832
 20
68.436263
 11
152.423553
 21
67.823927
 12
153.977945
 22
69.825795
 13
153.977945
 23
69.825795
 0
POLYLINE
 8
0
 66
1
 10
0
 20
0
 70
0
 0
VERTEX
 8
0
 10
153.977945
 20
69.825795
 0
VERTEX
 8
0
 10
151.222432
 20
67.282245
 0
VERTEX
 8
0
 10
143.897432
 20
67.282245 
 0
SEQEND
 8
0
 0
TEXT
 8
0
 10
147.559932
 20
65.407245
 40
2.5
 1
R15
 11
147.559932
 21
65.407245
 72
1
 73
2
 0
ENDBLK
 0
BLOCK
 2
*D37
 70
1
 10
0
 20
0
 0
SOLID
 8
0
 10
154.225823
 20
73.648557
 11
153.82678
 21
74.380136
 12
151.831562
 22
72.817217
 13
151.831562
 23
72.817217
 0
POLYLINE
 8
0
 66
1
 10
0
 20
0
 70
0
 0
VERTEX
 8
0
 10
151.831562
 20
72.817217
 0
VERTEX
 8
0
 10
157.318411
 20
75.810041
 0
VERTEX
 8
0
 10
164.643411
 20
75.810041 
 0
SEQEND
 8
0
 0
TEXT
 8
0
 10
160.980911
 20
73.935041
 40
2.5
 1
R15
 11
160.980911
 21
73.935041
 72
1
 73
2
 0
ENDBLK
 0
BLOCK
 2
*D38
 70
1
 10
0
 20
0
 0
SOLID
 8
0
 10
202.721572
 20
93.32275
 11
203.120615
 21
92.59117
 12
205.115833
 22
94.15409
 13
205.115833
 23
94.15409
 0
POLYLINE
 8
0
 66
1
 10
0
 20
0
 70
0
 0
VERTEX
 8
0
 10
205.115833
 20
94.15409
 0
VERTEX
 8
0
 10
201.823724
 20
92.358395
 0
VERTEX
 8
0
 10
194.023723
 20
92.358395 
 0
SEQEND
 8
0
 0
TEXT
 8
0
 10
197.923724
 20
90.483395
 40
2.5
 1
R40
 11
197.923724
 21
90.483395
 72
1
 73
2
 0
ENDBLK
 0
BLOCK
 2
*D39
 70
1
 10
0
 20
0
 0
SOLID
 8
0
 10
204.961428
 20
99.168639
 11
204.480859
 21
99.849446
 12
202.678724
 22
98.067335
 13
202.678724
 23
98.067335
 0
POLYLINE
 8
0
 66
1
 10
0
 20
0
 70
0
 0
VERTEX
 8
0
 10
202.678724
 20
98.067335
 0
VERTEX
 8
0
 10
207.784774
 20
101.671604
 0
VERTEX
 8
0
 10
215.584774
 20
101.671604 
 0
SEQEND
 8
0
 0
TEXT
 8
0
 10
211.684774
 20
99.796604
 40
2.5
 1
R40
 11
211.684774
 21
99.796604
 72
1
 73
2
 0
ENDBLK
 0
BLOCK
 2
*D40
 70
1
 10
0
 20
0
 0
SOLID
 8
0
 10
201.542957
 20
103.486251
 11
200.978394
 21
104.099205
 12
199.421813
 22
102.099039
 13
199.421813
 23
102.099039
 0
POLYLINE
 8
0
 66
1
 10
0
 20
0
 70
0
 0
VERTEX
 8
0
 10
199.421813
 20
102.099039
 0
VERTEX
 8
0
 10
208
 20
110
 0
VERTEX
 8
0
 10
215.8
 20
110 
 0
SEQEND
 8
0
 0
TEXT
 8
0
 10
211.9
 20
108.125
 40
2.5
 1
R40
 11
211.9
 21
108.125
 72
1
 73
2
 0
ENDBLK
 0
BLOCK
 2
*D41
 70
1
 10
0
 20
0
 0
SOLID
 8
0
 10
205.668726
 20
86.583012
 11
205.917288
 21
85.787612
 12
208.179207
 22
86.930998
 13
208.179207
 23
86.930998
 0
LINE
 8
0
 10
208.179207
 20
86.930998
 11
208.179207
 21
86.930998
 0
POINT
 8
0
 10
170.00002988300733
 20
75.00002988300734
 0
LINE
 8
0
 10
208.179207
 20
86.930998
 11
192.989619
 21
82.184262
 0
LINE
 8
0
 10
185.189619
 20
79.746767
 11
170.59658
 21
75.186451
 0
TEXT
 8
0
 10
189.089619
 20
80.965514
 40
2.5
 1
R40
 11
189.089619
 21
80.965514
 72
1
 73
2
 0
ENDBLK
 0
BLOCK
 2
*D42
 70
1
 10
0
 20
0
 0
SOLID
 8
0
 10
189.603674
 20
106.970618
 11
190.309205
 21
106.527142
 12
191.286868
 22
108.865471
 13
191.286868
 23
108.865471
 0
POLYLINE
 8
0
 66
1
 10
0
 20
0
 70
0
 0
VERTEX
 8
0
 10
191.286868
 20
108.865471
 0
VERTEX
 8
0
 10
193.947725
 20
113.098655
 0
VERTEX
 8
0
 10
201.747725
 20
113.098655 
 0
SEQEND
 8
0
 0
POINT
 8
0
 10
170.00002988300733
 20
75.00002988300734
 0
LINE
 8
0
 10
191.286868
 20
108.865471
 11
170.332637
 21
75.529178
 0
TEXT
 8
0
 10
197.847725
 20
111.223655
 40
2.5
 1
R40
 11
197.847725
 21
111.223655
 72
1
 73
2
 0
ENDBLK
 0
ENDSEC
 0
SECTION
 2
ENTITIES
 0
POLYLINE
 8
0
 66
1
 10
0
 20
0
 70
1
 0
VERTEX
 8
0
 10
30
 20
60
 0
VERTEX
 8
0
 10
10
 20
60
 0
VERTEX
 8
0
 10
10
 20
25
 42
0.414214
 0
VERTEX
 8
0
 10
25
 20
10
 0
VERTEX
 8
0
 10
70
 20
10
 0
VERTEX
 8
0
 10
70
 20
20
 42
0.414214
 0
SEQEND
 8
0
 0
POLYLINE
 8
0
 66
1
 10
0
 20
0
 70
1
 0
VERTEX
 8
0
 10
30
 20
115
 0
VERTEX
 8
0
 10
10
 20
115
 0
VERTEX
 8
0
 10
10
 20
80
 42
0.414214
 0
VERTEX
 8
0
 10
25
 20
65
 0
VERTEX
 8
0
 10
70
 20
65
 0
VERTEX
 8
0
 10
70
 20
75
 42
0.414214
 0
SEQEND
 8
0
 0
POLYLINE
 8
0
 66
1
 10
0
 20
0
 70
1
 0
VERTEX
 8
0
 10
100
 20
60
 0
VERTEX
 8
0
 10
80
 20
60
 0
VERTEX
 8
0
 10
80
 20
25
 42
0.414214
 0
VERTEX
 8
0
 10
95
 20
10
 0
VERTEX
 8
0
 10
140
 20
10
 0
VERTEX
 8
0
 10
140
 20
20
 42
0.414214
 0
SEQEND
 8
0
 0
POLYLINE
 8
0
 66
1
 10
0
 20
0
 70
1
 0
VERTEX
 8
0
 10
100
 20
115
 0
VERTEX
 8
0
 10
80
 20
115
 0
VERTEX
 8
0
 10
80
 20
80
 42
0.414214
 0
VERTEX
 8
0
 10
95
 20
65
 0
VERTEX
 8
0
 10
140
 20
65
 0
VERTEX
 8
0
 10
140
 20
75
 42
0.414214
 0
SEQEND
 8
0
 0
POLYLINE
 8
0
 66
1
 10
0
 20
0
 70
1
 0
VERTEX
 8
0
 10
170
 20
60
 0
VERTEX
 8
0
 10
150
 20
60
 0
VERTEX
 8
0
 10
150
 20
25
 42
0.414214
 0
VERTEX
 8
0
 10
165
 20
10
 0
VERTEX
 8
0
 10
210
 20
10
 0
VERTEX
 8
0
 10
210
 20
20
 42
0.414214
 0
SEQEND
 8
0
 0
POLYLINE
 8
0
 66
1
 10
0
 20
0
 70
1
 0
VERTEX
 8
0
 10
170
 20
115
 0
VERTEX
 8
0
 10
150
 20
115
 0
VERTEX
 8
0
 10
150
 20
80
 42
0.414214
 0
VERTEX
 8
0
 10
165
 20
65
 0
VERTEX
 8
0
 10
210
 20
65
 0
VERTEX
 8
0
 10
210
 20
75
 42
0.414214
 0
SEQEND
 8
0
 0
POLYLINE
 8
0
 66
1
 10
0
 20
0
 70
1
 0
VERTEX
 8
0
 10
0
 20
0
 0
VERTEX
 8
0
 10
220
 20
0
 0
VERTEX
 8
0
 10
220
 20
125
 0
VERTEX
 8
0
 10
0
 20
125
 0
SEQEND
 8
0
 0
DIMENSION
 8
0
 70
4
 2
*D1
 3
BREAK
 1
<>
 10
24.999988793872248
 20
24.999988793872248
 11
8.531214351
 21
9.798044247
 15
13.977944994498007
 25
14.825795248382049
 0
DIMENSION
 8
0
 70
4
 2
*D2
 3
BREAK
 1
<>
 10
24.999988793872248
 20
24.999988793872248
 11
18.338964592
 21
21.36670595
 15
11.831562474549267
 25
17.81721689933318
 0
DIMENSION
 8
0
 70
4
 2
*D3
 3
BREAK
 1
<>
 10
30.00002988300734
 20
20.00002988300734
 11
58.399930263
 21
35.490872946
 15
65.11583264167145
 25
39.154089660918586
 0
DIMENSION
 8
0
 70
4
 2
*D4
 3
BREAK
 1
<>
 10
30.00002988300734
 20
20.00002988300734
 11
68.928528973
 21
47.478960354
 15
62.67872398006493
 25
43.06733491571829
 0
DIMENSION
 8
0
 70
4
 2
*D5
 3
BREAK
 1
<>
 10
30.00002988300734
 20
20.00002988300734
 11
70.868626069
 21
57.642155412
 15
59.421813019308416
 25
47.09903883982471
 0
DIMENSION
 8
0
 70
4
 2
*D6
 3
BREAK
 1
<>
 10
30.00002988300734
 20
20.00002988300734
 11
49.089618672
 21
25.965514124
 15
68.17920746010951
 25
31.930998364119734
 0
DIMENSION
 8
0
 70
4
 2
*D7
 3
BREAK
 1
<>
 10
30.00002988300734
 20
20.00002988300734
 11
58.715678443
 21
56.44682348
 15
54.75489672965158
 25
51.41967623311944
 0
DIMENSION
 8
0
 70
4
 2
*D8
 3
ABOVE
 1
<>
 10
94.99998879387225
 20
24.999988793872248
 11
77.718691376
 21
11.599725799
 15
83.977944994498
 25
14.825795248382049
 0
DIMENSION
 8
0
 70
4
 2
*D9
 3
ABOVE
 1
<>
 10
94.99998879387225
 20
24.999988793872248
 11
86.892432594
 21
22.713478084
 15
81.83156247454927
 25
17.81721689933318
 0
DIMENSION
 8
0
 70
4
 2
*D10
 3
ABOVE
 1
<>
 10
100.00002988300734
 20
20.00002988300734
 11
128.050767868
 21
37.436209838
 15
135.11583264167143
 25
39.154089660918586
 0
DIMENSION
 8
0
 70
4
 2
*D11
 3
ABOVE
 1
<>
 10
100.00002988300734
 20
20.00002988300734
 11
137.336643265
 21
48.650348374
 15
132.67872398006494
 25
43.06733491571829
 0
DIMENSION
 8
0
 70
4
 2
*D12
 3
ABOVE
 1
<>
 10
100.00002988300734
 20
20.00002988300734
 11
135.863808362
 21
55.728172781
 15
129.36398634952042
 25
47.16168796924948
 0
DIMENSION
 8
0
 70
4
 2
*D13
 3
ABOVE
 1
<>
 10
100.00002988300734
 20
20.00002988300734
 11
118.530354106
 21
27.755164409
 15
138.17920746010952
 25
31.930998364119738
 0
DIMENSION
 8
0
 70
4
 2
*D14
 3
ABOVE
 1
<>
 10
100.00002988300734
 20
20.00002988300734
 11
126.08249617
 21
56.134411707
 15
124.75489672965158
 25
51.41967623311944
 0
DIMENSION
 8
0
 70
4
 2
*D15
 3
BELOW
 1
<>
 10
164.99998879387226
 20
24.999988793872248
 11
150.262241663
 21
8.84421279
 15
153.97794499449802
 25
14.825795248382043
 0
DIMENSION
 8
0
 70
4
 2
*D16
 3
BELOW
 1
<>
 10
164.99998879387226
 20
24.999988793872248
 11
158.68812691
 21
19.421369044
 15
151.83156247454926
 25
17.817216899333186
 0
DIMENSION
 8
0
 70
4
 2
*D17
 3
BELOW
 1
<>
 10
170.00002988300733
 20
20.00002988300734
 11
199.846462314
 21
34.14410087
 15
205.11583264167143
 25
39.154089660918586
 0
DIMENSION
 8
0
 70
4
 2
*D18
 3
BELOW
 1
<>
 10
170.00002988300733
 20
20.00002988300734
 11
209.499204728
 21
45.586718513
 15
202.67872398006494
 25
43.06733491571829
 0
DIMENSION
 8
0
 70
4
 2
*D19
 3
BELOW
 1
<>
 10
170.00002988300733
 20
20.00002988300734
 11
208.41021571
 21
52.975299806
 15
199.36398634952042
 25
47.161687969249485
 0
DIMENSION
 8
0
 70
4
 2
*D20
 3
BELOW
 1
<>
 10
170.00002988300733
 20
20.00002988300734
 11
189.648883237
 21
24.175863838
 15
208.17920746010952
 25
31.930998364119738
 0
DIMENSION
 8
0
 70
4
 2
*D21
 3
BELOW
 1
<>
 10
170.00002988300733
 20
20.00002988300734
 11
199.028090216
 21
53.813641206
 15
194.7548967296516
 25
51.419676233119446
 0
DIMENSION
 8
0
 70
4
 2
*D22
 3
HORZ-BREAK
 1
<>
 10
24.999988793872248
 20
79.99998879387225
 11
6.309932081
 21
67.282244962
 15
13.977944994498007
 25
69.82579524838205
 0
DIMENSION
 8
0
 70
4
 2
*D23
 3
HORZ-BREAK
 1
<>
 10
24.999988793872248
 20
79.99998879387225
 11
20.036171418
 21
74.612911214
 15
11.831562474549267
 25
72.81721689933318
 0
DIMENSION
 8
0
 70
4
 2
*D24
 3
HORZ-BREAK
 1
<>
 10
30.00002988300734
 20
75.00002988300734
 11
56.673723578
 21
92.358395215
 15
65.11583264167145
 25
94.15408966091859
 0
DIMENSION
 8
0
 70
4
 2
*D25
 3
HORZ-BREAK
 1
<>
 10
30.00002988300734
 20
75.00002988300734
 11
70.892353936
 21
100.229896378
 15
62.67872398006493
 25
98.06733491571829
 0
DIMENSION
 8
0
 70
4
 2
*D26
 3
HORZ-BREAK
 1
<>
 10
30.00002988300734
 20
75.00002988300734
 11
73.150000095
 21
110
 15
59.421813019308416
 25
102.09903883982471
 0
DIMENSION
 8
0
 70
4
 2
*D27
 3
HORZ-BREAK
 1
<>
 10
30.00002988300734
 20
75.00002988300734
 11
49.089618672
 21
80.965514124
 15
68.17920746010951
 25
86.93099836411973
 0
DIMENSION
 8
0
 70
4
 2
*D28
 3
HORZ-BREAK
 1
<>
 10
30.00002988300734
 20
75.00002988300734
 11
57.767296568
 21
110.982063066
 15
51.28686809077534
 25
108.8654713902062
 0
DIMENSION
 8
0
 70
4
 2
*D29
 3
HORZ-ABOVE
 1
<>
 10
94.99998879387225
 20
79.99998879387225
 11
75.722923409
 21
67.461544771
 15
83.977944994498
 25
69.82579524838205
 0
DIMENSION
 8
0
 70
4
 2
*D30
 3
HORZ-ABOVE
 1
<>
 10
94.99998879387225
 20
79.99998879387225
 11
88.786171418
 21
76.487911214
 15
81.83156247454927
 25
72.81721689933318
 0
DIMENSION
 8
0
 70
4
 2
*D31
 3
HORZ-ABOVE
 1
<>
 10
100.00002988300734
 20
75.00002988300734
 11
125.728984266
 21
93.036265585
 15
135.11583264167143
 25
94.15408966091859
 0
DIMENSION
 8
0
 70
4
 2
*D32
 3
HORZ-ABOVE
 1
<>
 10
100.00002988300734
 20
75.00002988300734
 11
139.642353936
 21
102.104896378
 15
132.67872398006494
 25
98.06733491571829
 0
DIMENSION
 8
0
 70
4
 2
*D33
 3
HORZ-ABOVE
 1
<>
 10
100.00002988300734
 20
75.00002988300734
 11
141.900000095
 21
111.875
 15
129.42181301930842
 25
102.09903883982471
 0
DIMENSION
 8
0
 70
4
 2
*D34
 3
HORZ-ABOVE
 1
<>
 10
100.00002988300734
 20
75.00002988300734
 11
119.089618672
 21
80.965514124
 15
138.17920746010952
 25
86.93099836411973
 0
DIMENSION
 8
0
 70
4
 2
*D35
 3
HORZ-ABOVE
 1
<>
 10
100.00002988300734
 20
75.00002988300734
 11
125.900000095
 21
111.875
 15
121.28686809077534
 25
108.8654713902062
 0
DIMENSION
 8
0
 70
4
 2
*D36
 3
HORZ-BELOW
 1
<>
 10
164.99998879387226
 20
79.99998879387225
 11
147.559932081
 21
65.407244962
 15
153.97794499449802
 25
69.82579524838204
 0
DIMENSION
 8
0
 70
4
 2
*D37
 3
HORZ-BELOW
 1
<>
 10
164.99998879387226
 20
79.99998879387225
 11
160.980910778
 21
73.935040758
 15
151.83156247454926
 25
72.81721689933319
 0
DIMENSION
 8
0
 70
4
 2
*D38
 3
HORZ-BELOW
 1
<>
 10
170.00002988300733
 20
75.00002988300734
 11
197.923723578
 21
90.483395215
 15
205.11583264167143
 25
94.15408966091859
 0
DIMENSION
 8
0
 70
4
 2
*D39
 3
HORZ-BELOW
 1
<>
 10
170.00002988300733
 20
75.00002988300734
 11
211.684773843
 21
99.79660402
 15
202.67872398006494
 25
98.06733491571829
 0
DIMENSION
 8
0
 70
4
 2
*D40
 3
HORZ-BELOW
 1
<>
 10
170.00002988300733
 20
75.00002988300734
 11
211.900000095
 21
108.125
 15
199.42181301930842
 25
102.09903883982471
 0
DIMENSION
 8
0
 70
4
 2
*D41
 3
HORZ-BELOW
 1
<>
 10
170.00002988300733
 20
75.00002988300734
 11
189.089618672
 21
80.965514124
 15
208.17920746010952
 25
86.93099836411973
 0
DIMENSION
 8
0
 70
4
 2
*D42
 3
HORZ-BELOW
 1
<>
 10
170.00002988300733
 20
75.00002988300734
 11
197.84772495
 21
111.223654741
 15
191.28686809077536
 25
108.86547139020621
 0
ENDSEC
 0
EOF
