 0
SECTION
 2
HEADER
 9
$ACADVER
 1
AC1009
 9
$EXTMIN
 10
0
 20
0
 30
0
 9
$EXTMAX
 10
275
 20
155
 30
0
 9
$VIEWCTR
 10
137.5
 20
77.5
 9
$VIEWSIZE
 40
181.5
 0
ENDSEC
 0
SECTION
 2
TABLES
 0
TABLE
 2
LAYER
 70
1
 0
LAYER
 2
0
 70
0
 62
250
 6
CONTINUOUS
 0
ENDTAB
 0
TABLE
 2
STYLE
 70
1
 0
STYLE
 2
STANDARD
 70
0
 40
0
 41
1
 50
0
 71
0
 42
1
 3
SIMPLEX
 4

 0
ENDTAB
 0
TABLE
 2
DIMSTYLE
 70
6
 0
DIMSTYLE
 2
BREAK
 70
0
 3

 4

 5

 6

 7

 40
1
 41
2.5
 42
0.625
 43
3.75
 44
1.25
 45
0
 46
0
 47
0
 48
0
 140
2.5
 141
2.5
 142
0
 143
25.4
 144
1
 145
0
 146
1
 147
0.625
 71
0
 72
0
 73
0
 74
0
 75
0
 76
0
 77
0
 78
0
 170
0
 171
2
 172
1
 173
0
 174
0
 175
0
 176
0
 177
0
 178
0
 0
DIMSTYLE
 2
ABOVE
 70
0
 3

 4

 5

 6

 7

 40
1
 41
2.5
 42
0.625
 43
3.75
 44
1.25
 45
0
 46
0
 47
0
 48
0
 140
2.5
 141
2.5
 142
0
 143
25.4
 144
1
 145
0
 146
1
 147
0.625
 71
0
 72
0
 73
0
 74
0
 75
0
 76
0
 77
1
 78
0
 170
0
 171
2
 172
1
 173
0
 174
0
 175
0
 176
0
 177
0
 178
0
 0
DIMSTYLE
 2
BELOW
 70
0
 3

 4

 5

 6

 7

 40
1
 41
2.5
 42
0.625
 43
3.75
 44
1.25
 45
0
 46
0
 47
0
 48
0
 140
2.5
 141
2.5
 142
0
 143
25.4
 144
1
 145
0
 146
1
 147
0.625
 71
0
 72
0
 73
0
 74
0
 75
0
 76
0
 77
4
 78
0
 170
0
 171
2
 172
1
 173
0
 174
0
 175
0
 176
0
 177
0
 178
0
 0
DIMSTYLE
 2
HORZ
 70
0
 3

 4

 5

 6

 7

 40
1
 41
2.5
 42
0.625
 43
3.75
 44
1.25
 45
0
 46
0
 47
0
 48
0
 140
2.5
 141
2.5
 142
0
 143
25.4
 144
1
 145
0
 146
1
 147
0.625
 71
0
 72
0
 73
1
 74
1
 75
0
 76
0
 77
0
 78
0
 170
0
 171
2
 172
1
 173
0
 174
0
 175
0
 176
0
 177
0
 178
0
 0
DIMSTYLE
 2
HORZABOVE
 70
0
 3

 4

 5

 6

 7

 40
1
 41
2.5
 42
0.625
 43
3.75
 44
1.25
 45
0
 46
0
 47
0
 48
0
 140
2.5
 141
2.5
 142
0
 143
25.4
 144
1
 145
0
 146
1
 147
0.625
 71
0
 72
0
 73
1
 74
1
 75
0
 76
0
 77
1
 78
0
 170
0
 171
2
 172
1
 173
0
 174
0
 175
0
 176
0
 177
0
 178
0
 0
DIMSTYLE
 2
HORZBELOW
 70
0
 3

 4

 5

 6

 7

 40
1
 41
2.5
 42
0.625
 43
3.75
 44
1.25
 45
0
 46
0
 47
0
 48
0
 140
2.5
 141
2.5
 142
0
 143
25.4
 144
1
 145
0
 146
1
 147
0.625
 71
0
 72
0
 73
1
 74
1
 75
0
 76
0
 77
4
 78
0
 170
0
 171
2
 172
1
 173
0
 174
0
 175
0
 176
0
 177
0
 178
0
 0
ENDTAB
 0
ENDSEC
 0
SECTION
 2
BLOCKS
 0
BLOCK
 2
*D1
 70
1
 10
0
 20
0
 0
SOLID
 8
0
 10
71.454032
 20
58.584411
 11
70.887561
 21
59.195603
 12
69.337221
 22
57.190595
 13
69.337221
 23
57.190595
 0
TEXT
 8
0
 10
83.860378
 20
70.651082
 40
2.5
 1
R40
 11
83.860378
 21
70.651082
 50
42.825254
 72
1
 73
2
 0
LINE
 8
0
 10
69.337221
 20
57.190595
 11
81
 21
68
 0
ENDBLK
 0
BLOCK
 2
*D2
 70
1
 10
0
 20
0
 0
SOLID
 8
0
 10
73.078411
 20
47.670402
 11
73.462871
 21
46.931055
 12
75.488684
 22
48.45411
 13
75.488684
 23
48.45411
 0
TEXT
 8
0
 10
61.539854
 20
41.200726
 40
2.5
 1
R40
 11
61.539854
 21
41.200726
 50
27.474406
 72
1
 73
2
 0
LINE
 8
0
 10
75.488684
 20
48.45411
 11
65
 21
43
 0
ENDBLK
 0
BLOCK
 2
*D3
 70
1
 10
0
 20
0
 0
SOLID
 8
0
 10
59.781308
 20
61.861016
 11
60.484359
 21
61.41362
 12
61.475022
 22
63.746472
 13
61.475022
 23
63.746472
 0
POINT
 8
0
 10
40.00002988300734
 20
30.00002988300734
 0
TEXT
 8
0
 10
50.905299
 20
47.136895
 40
2.5
 1
R40
 11
50.905299
 21
47.136895
 50
57.528828
 72
1
 73
2
 0
LINE
 8
0
 10
40.335577
 20
30.527318
 11
48.811486
 21
43.846614
 0
LINE
 8
0
 10
52.999113
 20
50.427176
 11
61.475022
 21
63.746472
 0
ENDBLK
 0
BLOCK
 2
*D4
 70
1
 10
0
 20
0
 0
SOLID
 8
0
 10
19.38472
 20
18.795464
 11
18.795464
 21
19.38472
 12
17.322325
 22
17.322325
 13
17.322325
 23
17.322325
 0
TEXT
 8
0
 10
23.615575
 20
23.615575
 40
2.5
 1
R25
 11
23.615575
 21
23.615575
 50
45
 72
1
 73
2
 0
LINE
 8
0
 10
17.322325
 20
17.322325
 11
20.857859
 21
20.857859
 0
ENDBLK
 0
BLOCK
 2
*D5
 70
1
 10
0
 20
0
 0
SOLID
 8
0
 10
15.25993
 20
15.849186
 11
15.849186
 21
15.25993
 12
17.322325
 22
17.322325
 13
17.322325
 23
17.322325
 0
TEXT
 8
0
 10
11.029075
 20
11.029075
 40
2.5
 1
R25
 11
11.029075
 21
11.029075
 50
45
 72
1
 73
2
 0
LINE
 8
0
 10
17.322325
 20
17.322325
 11
13.786791
 21
13.786791
 0
ENDBLK
 0
BLOCK
 2
*D6
 70
1
 10
0
 20
0
 0
SOLID
 8
0
 10
77.062396
 20
13.52686
 11
76.47314
 21
12.937604
 12
78.535535
 22
11.464465
 13
78.535535
 23
11.464465
 0
TEXT
 8
0
 10
73.081974
 20
16.918026
 40
2.5
 1
R5
 11
73.081974
 21
16.918026
 50
315
 72
1
 73
2
 0
LINE
 8
0
 10
78.535535
 20
11.464465
 11
75.000001
 21
14.999999
 0
ENDBLK
 0
BLOCK
 2
*D7
 70
1
 10
0
 20
0
 0
SOLID
 8
0
 10
161.454032
 20
58.584411
 11
160.887561
 21
59.195603
 12
159.337221
 22
57.190595
 13
159.337221
 23
57.190595
 0
TEXT
 8
0
 10
166.865063
 20
66.7241
 40
2.5
 1
R40
 11
166.865063
 21
66.7241
 50
42.825254
 72
1
 73
2
 0
LINE
 8
0
 10
159.337221
 20
57.190595
 11
171
 21
68
 0
ENDBLK
 0
BLOCK
 2
*D8
 70
1
 10
0
 20
0
 0
SOLID
 8
0
 10
163.078411
 20
47.670402
 11
163.462871
 21
46.931055
 12
165.488684
 22
48.45411
 13
165.488684
 23
48.45411
 0
TEXT
 8
0
 10
157.595111
 20
46.462806
 40
2.5
 1
R40
 11
157.595111
 21
46.462806
 50
27.474406
 72
1
 73
2
 0
LINE
 8
0
 10
165.488684
 20
48.45411
 11
155
 21
43
 0
ENDBLK
 0
BLOCK
 2
*D9
 70
1
 10
0
 20
0
 0
SOLID
 8
0
 10
149.781308
 20
61.861016
 11
150.484359
 21
61.41362
 12
151.475022
 22
63.746472
 13
151.475022
 23
63.746472
 0
POINT
 8
0
 10
130.00002988300733
 20
30.00002988300734
 0
TEXT
 8
0
 10
139.323434
 20
48.143536
 40
2.5
 1
R40
 11
139.323434
 21
48.143536
 50
57.528828
 72
1
 73
2
 0
LINE
 8
0
 10
130.335577
 20
30.527318
 11
151.475022
 21
63.746472
 0
ENDBLK
 0
BLOCK
 2
*D10
 70
1
 10
0
 20
0
 0
SOLID
 8
0
 10
109.38472
 20
18.795464
 11
108.795464
 21
19.38472
 12
107.322325
 22
17.322325
 13
107.322325
 23
17.322325
 0
TEXT
 8
0
 10
110.963925
 20
23.615575
 40
2.5
 1
R25
 11
110.963925
 21
23.615575
 50
45
 72
1
 73
2
 0
LINE
 8
0
 10
107.322325
 20
17.322325
 11
115.047467
 21
25.047467
 0
ENDBLK
 0
BLOCK
 2
*D11
 70
1
 10
0
 20
0
 0
SOLID
 8
0
 10
105.25993
 20
15.849186
 11
105.849186
 21
15.25993
 12
107.322325
 22
17.322325
 13
107.322325
 23
17.322325
 0
TEXT
 8
0
 10
101.029075
 20
13.680725
 40
2.5
 1
R25
 11
101.029075
 21
13.680725
 50
45
 72
1
 73
2
 0
LINE
 8
0
 10
107.322325
 20
17.322325
 11
99.597183
 21
9.597183
 0
ENDBLK
 0
BLOCK
 2
*D12
 70
1
 10
0
 20
0
 0
SOLID
 8
0
 10
167.062396
 20
13.52686
 11
166.47314
 21
12.937604
 12
168.535535
 22
11.464465
 13
168.535535
 23
11.464465
 0
TEXT
 8
0
 10
165.733624
 20
16.918026
 40
2.5
 1
R5
 11
165.733624
 21
16.918026
 50
315
 72
1
 73
2
 0
LINE
 8
0
 10
168.535535
 20
11.464465
 11
162.489772
 21
17.510228
 0
ENDBLK
 0
BLOCK
 2
*D13
 70
1
 10
0
 20
0
 0
SOLID
 8
0
 10
251.454032
 20
58.584411
 11
250.887561
 21
59.195603
 12
249.337221
 22
57.190595
 13
249.337221
 23
57.190595
 0
TEXT
 8
0
 10
259.41418
 20
63.973736
 40
2.5
 1
R40
 11
259.41418
 21
63.973736
 50
42.825254
 72
1
 73
2
 0
LINE
 8
0
 10
249.337221
 20
57.190595
 11
261
 21
68
 0
ENDBLK
 0
BLOCK
 2
*D14
 70
1
 10
0
 20
0
 0
SOLID
 8
0
 10
253.078411
 20
47.670402
 11
253.462871
 21
46.931055
 12
255.488684
 22
48.45411
 13
255.488684
 23
48.45411
 0
TEXT
 8
0
 10
249.325182
 20
43.135742
 40
2.5
 1
R40
 11
249.325182
 21
43.135742
 50
27.474406
 72
1
 73
2
 0
LINE
 8
0
 10
255.488684
 20
48.45411
 11
245
 21
43
 0
ENDBLK
 0
BLOCK
 2
*D15
 70
1
 10
0
 20
0
 0
SOLID
 8
0
 10
239.781308
 20
61.861016
 11
240.484359
 21
61.41362
 12
241.475022
 22
63.746472
 13
241.475022
 23
63.746472
 0
POINT
 8
0
 10
220.00002988300733
 20
30.00002988300734
 0
TEXT
 8
0
 10
232.487165
 20
46.130254
 40
2.5
 1
R40
 11
232.487165
 21
46.130254
 50
57.528828
 72
1
 73
2
 0
LINE
 8
0
 10
220.335577
 20
30.527318
 11
241.475022
 21
63.746472
 0
ENDBLK
 0
BLOCK
 2
*D16
 70
1
 10
0
 20
0
 0
SOLID
 8
0
 10
199.38472
 20
18.795464
 11
198.795464
 21
19.38472
 12
197.322325
 22
17.322325
 13
197.322325
 23
17.322325
 0
TEXT
 8
0
 10
203.615575
 20
20.963925
 40
2.5
 1
R25
 11
203.615575
 21
20.963925
 50
45
 72
1
 73
2
 0
LINE
 8
0
 10
197.322325
 20
17.322325
 11
205.047467
 21
25.047467
 0
ENDBLK
 0
BLOCK
 2
*D17
 70
1
 10
0
 20
0
 0
SOLID
 8
0
 10
195.25993
 20
15.849186
 11
195.849186
 21
15.25993
 12
197.322325
 22
17.322325
 13
197.322325
 23
17.322325
 0
TEXT
 8
0
 10
193.680725
 20
11.029075
 40
2.5
 1
R25
 11
193.680725
 21
11.029075
 50
45
 72
1
 73
2
 0
LINE
 8
0
 10
197.322325
 20
17.322325
 11
189.597183
 21
9.597183
 0
ENDBLK
 0
BLOCK
 2
*D18
 70
1
 10
0
 20
0
 0
SOLID
 8
0
 10
257.062396
 20
13.52686
 11
256.47314
 21
12.937604
 12
258.535535
 22
11.464465
 13
258.535535
 23
11.464465
 0
TEXT
 8
0
 10
253.081974
 20
14.266376
 40
2.5
 1
R5
 11
253.081974
 21
14.266376
 50
315
 72
1
 73
2
 0
LINE
 8
0
 10
258.535535
 20
11.464465
 11
252.489772
 21
17.510228
 0
ENDBLK
 0
BLOCK
 2
*D19
 70
1
 10
0
 20
0
 0
SOLID
 8
0
 10
71.454032
 20
133.584411
 11
70.887561
 21
134.195603
 12
69.337221
 22
132.190595
 13
69.337221
 23
132.190595
 0
TEXT
 8
0
 10
87.4
 20
143
 40
2.5
 1
R40
 11
87.4
 21
143
 72
1
 73
2
 0
POLYLINE
 8
0
 66
1
 10
0
 20
0
 70
0
 0
VERTEX
 8
0
 10
69.337221
 20
132.190595
 0
VERTEX
 8
0
 10
81
 20
143
 0
VERTEX
 8
0
 10
83.5
 20
143 
 0
SEQEND
 8
0
 0
ENDBLK
 0
BLOCK
 2
*D20
 70
1
 10
0
 20
0
 0
SOLID
 8
0
 10
73.078411
 20
122.670402
 11
73.462871
 21
121.931055
 12
75.488684
 22
123.45411
 13
75.488684
 23
123.45411
 0
TEXT
 8
0
 10
58.6
 20
118
 40
2.5
 1
R40
 11
58.6
 21
118
 72
1
 73
2
 0
POLYLINE
 8
0
 66
1
 10
0
 20
0
 70
0
 0
VERTEX
 8
0
 10
75.488684
 20
123.45411
 0
VERTEX
 8
0
 10
65
 20
118
 0
VERTEX
 8
0
 10
62.5
 20
118 
 0
SEQEND
 8
0
 0
ENDBLK
 0
BLOCK
 2
*D21
 70
1
 10
0
 20
0
 0
SOLID
 8
0
 10
59.781308
 20
136.861016
 11
60.484359
 21
136.41362
 12
61.475022
 22
138.746472
 13
61.475022
 23
138.746472
 0
POINT
 8
0
 10
40.00002988300734
 20
105.00002988300734
 0
TEXT
 8
0
 10
50.905299
 20
122.136895
 40
2.5
 1
R40
 11
50.905299
 21
122.136895
 50
57.528828
 72
1
 73
2
 0
LINE
 8
0
 10
40.335577
 20
105.527318
 11
48.811486
 21
118.846614
 0
LINE
 8
0
 10
52.999113
 20
125.427176
 11
61.475022
 21
138.746472
 0
ENDBLK
 0
BLOCK
 2
*D22
 70
1
 10
0
 20
0
 0
SOLID
 8
0
 10
19.38472
 20
93.795464
 11
18.795464
 21
94.38472
 12
17.322325
 22
92.322325
 13
17.322325
 23
92.322325
 0
TEXT
 8
0
 10
27.257859
 20
95.857859
 40
2.5
 1
R25
 11
27.257859
 21
95.857859
 72
1
 73
2
 0
POLYLINE
 8
0
 66
1
 10
0
 20
0
 70
0
 0
VERTEX
 8
0
 10
17.322325
 20
92.322325
 0
VERTEX
 8
0
 10
20.857859
 20
95.857859
 0
VERTEX
 8
0
 10
23.357859
 20
95.857859 
 0
SEQEND
 8
0
 0
ENDBLK
 0
BLOCK
 2
*D23
 70
1
 10
0
 20
0
 0
SOLID
 8
0
 10
15.25993
 20
90.849186
 11
15.849186
 21
90.25993
 12
17.322325
 22
92.322325
 13
17.322325
 23
92.322325
 0
TEXT
 8
0
 10
7.386791
 20
88.786791
 40
2.5
 1
R25
 11
7.386791
 21
88.786791
 72
1
 73
2
 0
POLYLINE
 8
0
 66
1
 10
0
 20
0
 70
0
 0
VERTEX
 8
0
 10
17.322325
 20
92.322325
 0
VERTEX
 8
0
 10
13.786791
 20
88.786791
 0
VERTEX
 8
0
 10
11.286791
 20
88.786791 
 0
SEQEND
 8
0
 0
ENDBLK
 0
BLOCK
 2
*D24
 70
1
 10
0
 20
0
 0
SOLID
 8
0
 10
77.062396
 20
88.52686
 11
76.47314
 21
87.937604
 12
78.535535
 22
86.464465
 13
78.535535
 23
86.464465
 0
TEXT
 8
0
 10
69.787501
 20
89.999999
 40
2.5
 1
R5
 11
69.787501
 21
89.999999
 72
1
 73
2
 0
POLYLINE
 8
0
 66
1
 10
0
 20
0
 70
0
 0
VERTEX
 8
0
 10
78.535535
 20
86.464465
 0
VERTEX
 8
0
 10
75.000001
 20
89.999999
 0
VERTEX
 8
0
 10
72.500001
 20
89.999999 
 0
SEQEND
 8
0
 0
ENDBLK
 0
BLOCK
 2
*D25
 70
1
 10
0
 20
0
 0
SOLID
 8
0
 10
161.454032
 20
133.584411
 11
160.887561
 21
134.195603
 12
159.337221
 22
132.190595
 13
159.337221
 23
132.190595
 0
TEXT
 8
0
 10
174.9
 20
144.875
 40
2.5
 1
R40
 11
174.9
 21
144.875
 72
1
 73
2
 0
POLYLINE
 8
0
 66
1
 10
0
 20
0
 70
0
 0
VERTEX
 8
0
 10
159.337221
 20
132.190595
 0
VERTEX
 8
0
 10
171
 20
143
 0
VERTEX
 8
0
 10
178.8
 20
143 
 0
SEQEND
 8
0
 0
ENDBLK
 0
BLOCK
 2
*D26
 70
1
 10
0
 20
0
 0
SOLID
 8
0
 10
163.078411
 20
122.670402
 11
163.462871
 21
121.931055
 12
165.488684
 22
123.45411
 13
165.488684
 23
123.45411
 0
TEXT
 8
0
 10
151.1
 20
119.875
 40
2.5
 1
R40
 11
151.1
 21
119.875
 72
1
 73
2
 0
POLYLINE
 8
0
 66
1
 10
0
 20
0
 70
0
 0
VERTEX
 8
0
 10
165.488684
 20
123.45411
 0
VERTEX
 8
0
 10
155
 20
118
 0
VERTEX
 8
0
 10
147.2
 20
118 
 0
SEQEND
 8
0
 0
ENDBLK
 0
BLOCK
 2
*D27
 70
1
 10
0
 20
0
 0
SOLID
 8
0
 10
149.781308
 20
136.861016
 11
150.484359
 21
136.41362
 12
151.475022
 22
138.746472
 13
151.475022
 23
138.746472
 0
POINT
 8
0
 10
130.00002988300733
 20
105.00002988300734
 0
TEXT
 8
0
 10
139.323434
 20
123.143536
 40
2.5
 1
R40
 11
139.323434
 21
123.143536
 50
57.528828
 72
1
 73
2
 0
LINE
 8
0
 10
130.335577
 20
105.527318
 11
151.475022
 21
138.746472
 0
ENDBLK
 0
BLOCK
 2
*D28
 70
1
 10
0
 20
0
 0
SOLID
 8
0
 10
109.38472
 20
93.795464
 11
108.795464
 21
94.38472
 12
107.322325
 22
92.322325
 13
107.322325
 23
92.322325
 0
TEXT
 8
0
 10
114.757859
 20
97.732859
 40
2.5
 1
R25
 11
114.757859
 21
97.732859
 72
1
 73
2
 0
POLYLINE
 8
0
 66
1
 10
0
 20
0
 70
0
 0
VERTEX
 8
0
 10
107.322325
 20
92.322325
 0
VERTEX
 8
0
 10
110.857859
 20
95.857859
 0
VERTEX
 8
0
 10
118.657859
 20
95.857859 
 0
SEQEND
 8
0
 0
ENDBLK
 0
BLOCK
 2
*D29
 70
1
 10
0
 20
0
 0
SOLID
 8
0
 10
105.25993
 20
90.849186
 11
105.849186
 21
90.25993
 12
107.322325
 22
92.322325
 13
107.322325
 23
92.322325
 0
TEXT
 8
0
 10
99.886791
 20
90.661791
 40
2.5
 1
R25
 11
99.886791
 21
90.661791
 72
1
 73
2
 0
POLYLINE
 8
0
 66
1
 10
0
 20
0
 70
0
 0
VERTEX
 8
0
 10
107.322325
 20
92.322325
 0
VERTEX
 8
0
 10
103.786791
 20
88.786791
 0
VERTEX
 8
0
 10
95.986791
 20
88.786791 
 0
SEQEND
 8
0
 0
ENDBLK
 0
BLOCK
 2
*D30
 70
1
 10
0
 20
0
 0
SOLID
 8
0
 10
167.062396
 20
88.52686
 11
166.47314
 21
87.937604
 12
168.535535
 22
86.464465
 13
168.535535
 23
86.464465
 0
TEXT
 8
0
 10
162.287501
 20
91.874999
 40
2.5
 1
R5
 11
162.287501
 21
91.874999
 72
1
 73
2
 0
POLYLINE
 8
0
 66
1
 10
0
 20
0
 70
0
 0
VERTEX
 8
0
 10
168.535535
 20
86.464465
 0
VERTEX
 8
0
 10
165.000001
 20
89.999999
 0
VERTEX
 8
0
 10
159.575001
 20
89.999999 
 0
SEQEND
 8
0
 0
ENDBLK
 0
BLOCK
 2
*D31
 70
1
 10
0
 20
0
 0
SOLID
 8
0
 10
251.454032
 20
133.584411
 11
250.887561
 21
134.195603
 12
249.337221
 22
132.190595
 13
249.337221
 23
132.190595
 0
TEXT
 8
0
 10
264.9
 20
141.125
 40
2.5
 1
R40
 11
264.9
 21
141.125
 72
1
 73
2
 0
POLYLINE
 8
0
 66
1
 10
0
 20
0
 70
0
 0
VERTEX
 8
0
 10
249.337221
 20
132.190595
 0
VERTEX
 8
0
 10
261
 20
143
 0
VERTEX
 8
0
 10
268.8
 20
143 
 0
SEQEND
 8
0
 0
ENDBLK
 0
BLOCK
 2
*D32
 70
1
 10
0
 20
0
 0
SOLID
 8
0
 10
253.078411
 20
122.670402
 11
253.462871
 21
121.931055
 12
255.488684
 22
123.45411
 13
255.488684
 23
123.45411
 0
TEXT
 8
0
 10
241.1
 20
116.125
 40
2.5
 1
R40
 11
241.1
 21
116.125
 72
1
 73
2
 0
POLYLINE
 8
0
 66
1
 10
0
 20
0
 70
0
 0
VERTEX
 8
0
 10
255.488684
 20
123.45411
 0
VERTEX
 8
0
 10
245
 20
118
 0
VERTEX
 8
0
 10
237.2
 20
118 
 0
SEQEND
 8
0
 0
ENDBLK
 0
BLOCK
 2
*D33
 70
1
 10
0
 20
0
 0
SOLID
 8
0
 10
239.781308
 20
136.861016
 11
240.484359
 21
136.41362
 12
241.475022
 22
138.746472
 13
241.475022
 23
138.746472
 0
POINT
 8
0
 10
220.00002988300733
 20
105.00002988300734
 0
TEXT
 8
0
 10
232.487165
 20
121.130254
 40
2.5
 1
R40
 11
232.487165
 21
121.130254
 50
57.528828
 72
1
 73
2
 0
LINE
 8
0
 10
220.335577
 20
105.527318
 11
241.475022
 21
138.746472
 0
ENDBLK
 0
BLOCK
 2
*D34
 70
1
 10
0
 20
0
 0
SOLID
 8
0
 10
199.38472
 20
93.795464
 11
198.795464
 21
94.38472
 12
197.322325
 22
92.322325
 13
197.322325
 23
92.322325
 0
TEXT
 8
0
 10
204.757859
 20
93.982859
 40
2.5
 1
R25
 11
204.757859
 21
93.982859
 72
1
 73
2
 0
POLYLINE
 8
0
 66
1
 10
0
 20
0
 70
0
 0
VERTEX
 8
0
 10
197.322325
 20
92.322325
 0
VERTEX
 8
0
 10
200.857859
 20
95.857859
 0
VERTEX
 8
0
 10
208.657859
 20
95.857859 
 0
SEQEND
 8
0
 0
ENDBLK
 0
BLOCK
 2
*D35
 70
1
 10
0
 20
0
 0
SOLID
 8
0
 10
195.25993
 20
90.849186
 11
195.849186
 21
90.25993
 12
197.322325
 22
92.322325
 13
197.322325
 23
92.322325
 0
TEXT
 8
0
 10
189.886791
 20
86.911791
 40
2.5
 1
R25
 11
189.886791
 21
86.911791
 72
1
 73
2
 0
POLYLINE
 8
0
 66
1
 10
0
 20
0
 70
0
 0
VERTEX
 8
0
 10
197.322325
 20
92.322325
 0
VERTEX
 8
0
 10
193.786791
 20
88.786791
 0
VERTEX
 8
0
 10
185.986791
 20
88.786791 
 0
SEQEND
 8
0
 0
ENDBLK
 0
BLOCK
 2
*D36
 70
1
 10
0
 20
0
 0
SOLID
 8
0
 10
257.062396
 20
88.52686
 11
256.47314
 21
87.937604
 12
258.535535
 22
86.464465
 13
258.535535
 23
86.464465
 0
TEXT
 8
0
 10
252.287501
 20
88.124999
 40
2.5
 1
R5
 11
252.287501
 21
88.124999
 72
1
 73
2
 0
POLYLINE
 8
0
 66
1
 10
0
 20
0
 70
0
 0
VERTEX
 8
0
 10
258.535535
 20
86.464465
 0
VERTEX
 8
0
 10
255.000001
 20
89.999999
 0
VERTEX
 8
0
 10
249.575001
 20
89.999999 
 0
SEQEND
 8
0
 0
ENDBLK
 0
BLOCK
 2
*D37
 70
1
 10
0
 20
0
 0
SOLID
 8
0
 10
229.626292
 20
146.397568
 11
228.812803
 21
146.578343
 12
228.677222
 22
144.047487
 13
228.677222
 23
144.047487
 0
POINT
 8
0
 10
220.00002988300733
 20
105.00002988300734
 0
TEXT
 8
0
 10
233.9
 20
148.125
 40
2.5
 1
R40
 11
233.9
 21
148.125
 72
1
 73
2
 0
POLYLINE
 8
0
 66
1
 10
0
 20
0
 70
0
 0
VERTEX
 8
0
 10
220.135611
 20
105.610147
 0
VERTEX
 8
0
 10
230
 20
150
 0
VERTEX
 8
0
 10
237.8
 20
150 
 0
SEQEND
 8
0
 0
ENDBLK
 0
ENDSEC
 0
SECTION
 2
ENTITIES
 0
POLYLINE
 8
0
 66
1
 10
0
 20
0
 70
1
 0
VERTEX
 8
0
 10
80
 20
15
 0
VERTEX
 8
0
 10
80
 20
30
 42
0.414214
 0
VERTEX
 8
0
 10
40
 20
70
 0
VERTEX
 8
0
 10
10
 20
70
 0
VERTEX
 8
0
 10
10
 20
35
 42
0.414214
 0
VERTEX
 8
0
 10
35
 20
10
 0
VERTEX
 8
0
 10
75
 20
10
 42
0.414214
 0
SEQEND
 8
0
 0
POLYLINE
 8
0
 66
1
 10
0
 20
0
 70
1
 0
VERTEX
 8
0
 10
80
 20
90
 0
VERTEX
 8
0
 10
80
 20
105
 42
0.414214
 0
VERTEX
 8
0
 10
40
 20
145
 0
VERTEX
 8
0
 10
10
 20
145
 0
VERTEX
 8
0
 10
10
 20
110
 42
0.414214
 0
VERTEX
 8
0
 10
35
 20
85
 0
VERTEX
 8
0
 10
75
 20
85
 42
0.414214
 0
SEQEND
 8
0
 0
POLYLINE
 8
0
 66
1
 10
0
 20
0
 70
1
 0
VERTEX
 8
0
 10
170
 20
15
 0
VERTEX
 8
0
 10
170
 20
30
 42
0.414214
 0
VERTEX
 8
0
 10
130
 20
70
 0
VERTEX
 8
0
 10
100
 20
70
 0
VERTEX
 8
0
 10
100
 20
35
 42
0.414214
 0
VERTEX
 8
0
 10
125
 20
10
 0
VERTEX
 8
0
 10
165
 20
10
 42
0.414214
 0
SEQEND
 8
0
 0
POLYLINE
 8
0
 66
1
 10
0
 20
0
 70
1
 0
VERTEX
 8
0
 10
170
 20
90
 0
VERTEX
 8
0
 10
170
 20
105
 42
0.414214
 0
VERTEX
 8
0
 10
130
 20
145
 0
VERTEX
 8
0
 10
100
 20
145
 0
VERTEX
 8
0
 10
100
 20
110
 42
0.414214
 0
VERTEX
 8
0
 10
125
 20
85
 0
VERTEX
 8
0
 10
165
 20
85
 42
0.414214
 0
SEQEND
 8
0
 0
POLYLINE
 8
0
 66
1
 10
0
 20
0
 70
1
 0
VERTEX
 8
0
 10
260
 20
15
 0
VERTEX
 8
0
 10
260
 20
30
 42
0.414214
 0
VERTEX
 8
0
 10
220
 20
70
 0
VERTEX
 8
0
 10
190
 20
70
 0
VERTEX
 8
0
 10
190
 20
35
 42
0.414214
 0
VERTEX
 8
0
 10
215
 20
10
 0
VERTEX
 8
0
 10
255
 20
10
 42
0.414214
 0
SEQEND
 8
0
 0
POLYLINE
 8
0
 66
1
 10
0
 20
0
 70
1
 0
VERTEX
 8
0
 10
260
 20
90
 0
VERTEX
 8
0
 10
260
 20
105
 42
0.414214
 0
VERTEX
 8
0
 10
220
 20
145
 0
VERTEX
 8
0
 10
190
 20
145
 0
VERTEX
 8
0
 10
190
 20
110
 42
0.414214
 0
VERTEX
 8
0
 10
215
 20
85
 0
VERTEX
 8
0
 10
255
 20
85
 42
0.414214
 0
SEQEND
 8
0
 0
POLYLINE
 8
0
 66
1
 10
0
 20
0
 70
1
 0
VERTEX
 8
0
 10
0
 20
0
 0
VERTEX
 8
0
 10
275
 20
0
 0
VERTEX
 8
0
 10
275
 20
155
 0
VERTEX
 8
0
 10
0
 20
155
 0
SEQEND
 8
0
 0
DIMENSION
 8
0
 70
4
 2
*D1
 3
BREAK
 1
<>
 10
40.00002988300734
 20
30.00002988300734
 11
83.86037830281657
 21
70.65108217689347
 15
69.33722061074486
 25
57.19059533438312
 0
DIMENSION
 8
0
 70
4
 2
*D2
 3
BREAK
 1
<>
 10
40.00002988300734
 20
30.00002988300734
 11
61.53985357796156
 21
41.20072584581434
 15
75.48868375416981
 25
48.45410953423957
 0
DIMENSION
 8
0
 70
4
 2
*D3
 3
BREAK
 1
<>
 10
40.00002988300734
 20
30.00002988300734
 11
50.90529927172945
 21
47.13689508091515
 15
61.47502166320717
 25
63.746471731023675
 0
DIMENSION
 8
0
 70
4
 2
*D4
 3
BREAK
 1
<>
 10
34.99998132312041
 20
34.99998132312041
 11
23.61557541999523
 21
23.615575419995228
 15
17.322325
 25
17.322324999999996
 0
DIMENSION
 8
0
 70
4
 2
*D5
 3
BREAK
 1
<>
 10
34.99998132312041
 20
34.99998132312041
 11
11.02907458000477
 21
11.029074580004764
 15
17.322325
 25
17.322324999999996
 0
DIMENSION
 8
0
 70
4
 2
*D6
 3
BREAK
 1
<>
 10
75.00000373537591
 20
14.999996264624082
 11
73.08197388266379
 21
16.9180261173362
 15
78.53553500000001
 25
11.46446500000001
 0
DIMENSION
 8
0
 70
4
 2
*D7
 3
ABOVE
 1
<>
 10
130.00002988300733
 20
30.00002988300734
 11
166.86506298945937
 21
66.72409966583307
 15
159.33722061074485
 25
57.190595334383126
 0
DIMENSION
 8
0
 70
4
 2
*D8
 3
ABOVE
 1
<>
 10
130.00002988300733
 20
30.00002988300734
 11
157.5951107921405
 21
46.46280604717933
 15
165.4886837541698
 25
48.45410953423957
 0
DIMENSION
 8
0
 70
4
 2
*D9
 3
ABOVE
 1
<>
 10
130.00002988300733
 20
30.00002988300734
 11
139.32343362833154
 21
48.14353607264826
 15
151.47502166320717
 25
63.746471731023675
 0
DIMENSION
 8
0
 70
4
 2
*D10
 3
ABOVE
 1
<>
 10
124.99998132312041
 20
34.99998132312041
 11
110.96392499054569
 21
23.615575419995228
 15
107.322325
 25
17.322324999999996
 0
DIMENSION
 8
0
 70
4
 2
*D11
 3
ABOVE
 1
<>
 10
124.99998132312041
 20
34.99998132312041
 11
101.02907458000477
 21
13.680725009454317
 15
107.322325
 25
17.322324999999996
 0
DIMENSION
 8
0
 70
4
 2
*D12
 3
ABOVE
 1
<>
 10
165.0000037353759
 20
14.999996264624082
 11
165.73362431211336
 21
16.918026117336208
 15
168.535535
 25
11.46446500000001
 0
DIMENSION
 8
0
 70
4
 2
*D13
 3
BELOW
 1
<>
 10
220.00002988300733
 20
30.00002988300734
 11
259.4141804049075
 21
63.97373598037999
 15
249.33722061074485
 25
57.190595334383126
 0
DIMENSION
 8
0
 70
4
 2
*D14
 3
BELOW
 1
<>
 10
220.00002988300733
 20
30.00002988300734
 11
249.32518205193637
 21
43.13574226119199
 15
255.4886837541698
 25
48.45410953423957
 0
DIMENSION
 8
0
 70
4
 2
*D15
 3
BELOW
 1
<>
 10
220.00002988300733
 20
30.00002988300734
 11
232.48716491512732
 21
46.130254089182074
 15
241.47502166320717
 25
63.746471731023675
 0
DIMENSION
 8
0
 70
4
 2
*D16
 3
BELOW
 1
<>
 10
214.9999813231204
 20
34.99998132312041
 11
203.61557541999525
 21
20.963924990545674
 15
197.322325
 25
17.322324999999996
 0
DIMENSION
 8
0
 70
4
 2
*D17
 3
BELOW
 1
<>
 10
214.9999813231204
 20
34.99998132312041
 11
193.6807250094543
 21
11.029074580004764
 15
197.322325
 25
17.322324999999996
 0
DIMENSION
 8
0
 70
4
 2
*D18
 3
BELOW
 1
<>
 10
255.0000037353759
 20
14.999996264624082
 11
253.0819738826638
 21
14.266375687886647
 15
258.535535
 25
11.46446500000001
 0
DIMENSION
 8
0
 70
4
 2
*D19
 3
HORZ
 1
<>
 10
40.00002988300734
 20
105.00002988300734
 11
87.40000009536743
 21
143
 15
69.33722061074486
 25
132.19059533438312
 0
DIMENSION
 8
0
 70
4
 2
*D20
 3
HORZ
 1
<>
 10
40.00002988300734
 20
105.00002988300734
 11
58.59999990463257
 21
118
 15
75.48868375416981
 25
123.45410953423956
 0
DIMENSION
 8
0
 70
4
 2
*D21
 3
HORZ
 1
<>
 10
40.00002988300734
 20
105.00002988300734
 11
50.90529927172945
 21
122.13689508091517
 15
61.47502166320717
 25
138.7464717310237
 0
DIMENSION
 8
0
 70
4
 2
*D22
 3
HORZ
 1
<>
 10
34.99998132312041
 20
109.99998132312041
 11
27.25785900130017
 21
95.85785890593273
 15
17.322325
 25
92.32232499999999
 0
DIMENSION
 8
0
 70
4
 2
*D23
 3
HORZ
 1
<>
 10
34.99998132312041
 20
109.99998132312041
 11
7.38679099869983
 21
88.78679109406725
 15
17.322325
 25
92.32232499999999
 0
DIMENSION
 8
0
 70
4
 2
*D24
 3
HORZ
 1
<>
 10
75.00000373537591
 20
89.99999626462409
 11
69.78750099869983
 21
89.99999890593274
 15
78.535535
 25
86.464465
 0
DIMENSION
 8
0
 70
4
 2
*D25
 3
HORZABOVE
 1
<>
 10
130.00002988300733
 20
105.00002988300734
 11
174.90000009536743
 21
144.875
 15
159.33722061074485
 25
132.19059533438312
 0
DIMENSION
 8
0
 70
4
 2
*D26
 3
HORZABOVE
 1
<>
 10
130.00002988300733
 20
105.00002988300734
 11
151.09999990463257
 21
119.875
 15
165.4886837541698
 25
123.45410953423956
 0
DIMENSION
 8
0
 70
4
 2
*D27
 3
HORZABOVE
 1
<>
 10
130.00002988300733
 20
105.00002988300734
 11
139.32343362833154
 21
123.14353607264826
 15
151.47502166320717
 25
138.7464717310237
 0
DIMENSION
 8
0
 70
4
 2
*D28
 3
HORZABOVE
 1
<>
 10
124.99998132312041
 20
109.99998132312041
 11
114.75785900130018
 21
97.73285890593273
 15
107.322325
 25
92.32232499999999
 0
DIMENSION
 8
0
 70
4
 2
*D29
 3
HORZABOVE
 1
<>
 10
124.99998132312041
 20
109.99998132312041
 11
99.88679099869984
 21
90.66179109406725
 15
107.322325
 25
92.32232499999999
 0
DIMENSION
 8
0
 70
4
 2
*D30
 3
HORZABOVE
 1
<>
 10
165.0000037353759
 20
89.99999626462409
 11
162.28750099869984
 21
91.87499890593274
 15
168.535535
 25
86.464465
 0
DIMENSION
 8
0
 70
4
 2
*D31
 3
HORZBELOW
 1
<>
 10
220.00002988300733
 20
105.00002988300734
 11
264.90000009536743
 21
141.125
 15
249.33722061074485
 25
132.19059533438312
 0
DIMENSION
 8
0
 70
4
 2
*D32
 3
HORZBELOW
 1
<>
 10
220.00002988300733
 20
105.00002988300734
 11
241.09999990463257
 21
116.125
 15
255.4886837541698
 25
123.45410953423956
 0
DIMENSION
 8
0
 70
4
 2
*D33
 3
HORZBELOW
 1
<>
 10
220.00002988300733
 20
105.00002988300734
 11
232.48716491512732
 21
121.13025408918207
 15
241.47502166320717
 25
138.7464717310237
 0
DIMENSION
 8
0
 70
4
 2
*D34
 3
HORZBELOW
 1
<>
 10
214.9999813231204
 20
109.99998132312041
 11
204.75785900130018
 21
93.98285890593273
 15
197.322325
 25
92.32232499999999
 0
DIMENSION
 8
0
 70
4
 2
*D35
 3
HORZBELOW
 1
<>
 10
214.9999813231204
 20
109.99998132312041
 11
189.88679099869984
 21
86.91179109406725
 15
197.322325
 25
92.32232499999999
 0
DIMENSION
 8
0
 70
4
 2
*D36
 3
HORZBELOW
 1
<>
 10
255.0000037353759
 20
89.99999626462409
 11
252.2875009986998
 21
88.12499890593274
 15
258.535535
 25
86.464465
 0
DIMENSION
 8
0
 70
4
 2
*D37
 3
HORZBELOW
 1
<>
 10
220.00002988300733
 20
105.00002988300734
 11
233.90000009536743
 21
148.125
 15
228.67722249441192
 25
144.0474873898129
 0
ENDSEC
 0
EOF
