 0
SECTION
 2
HEADER
 9
$ACADVER
 1
AC1009
 9
$EXTMIN
 10
8
 20
10
 30
0
 9
$EXTMAX
 10
410
 20
435.14813
 30
0
 9
$VIEWCTR
 10
209
 20
222.57406616210938
 9
$VIEWSIZE
 40
467.663
 9
$CLAYER
 8
0
 9
$DIMSTYLE
 2
STANDARD
 0
ENDSEC
 0
SECTION
 2
TABLES
 0
TABLE
 2
LAYER
 70
1
 0
LAYER
 2
0
 70
0
 62
250
 6
CONTINUOUS
 0
ENDTAB
 0
TABLE
 2
STYLE
 70
1
 0
STYLE
 2
STANDARD
 70
0
 40
0
 41
1
 50
0
 71
0
 42
1
 3
txt
 4

 0
ENDTAB
 0
TABLE
 2
DIMSTYLE
 70
1
 0
DIMSTYLE
 2
STANDARD
 70
0
 3

 4

 5

 6

 7

 40
1
 41
2.5
 42
0.625
 43
3.75
 44
1.25
 45
0
 46
0
 47
0
 48
0
 140
2.5
 141
2.5
 142
0
 143
25.4
 144
1
 145
0
 146
1
 147
0.625
 71
0
 72
0
 73
0
 74
0
 75
0
 76
0
 77
0
 78
0
 170
0
 171
2
 172
1
 173
0
 174
0
 175
0
 176
0
 177
0
 178
0
 0
ENDTAB
 0
ENDSEC
 0
SECTION
 2
ENTITIES
 0
LINE
 8
0
 10
10
 20
10
 11
10
 21
50
 0
LINE
 8
0
 10
20
 20
60
 11
60
 21
60
 0
LINE
 8
0
 10
120
 20
10
 11
120
 21
70
 0
LINE
 8
0
 10
130
 20
60
 11
170
 21
60
 0
LINE
 8
0
 10
240
 20
10
 11
240
 21
50
 0
LINE
 8
0
 10
230
 20
60
 11
290
 21
60
 0
LINE
 8
0
 10
350
 20
10
 11
350
 21
70
 0
LINE
 8
0
 10
340
 20
60
 11
400
 21
60
 0
LINE
 8
0
 10
10
 20
130
 11
10
 21
180
 0
LINE
 8
0
 10
20
 20
120
 11
70
 21
120
 0
LINE
 8
0
 10
120
 20
120
 11
120
 21
190
 0
LINE
 8
0
 10
110
 20
130
 11
180
 21
130
 0
LINE
 8
0
 10
260
 20
130
 11
260
 21
180
 0
LINE
 8
0
 10
210
 20
190
 11
250
 21
190
 0
LINE
 8
0
 10
300
 20
190
 11
360
 21
190
 0
LINE
 8
0
 10
350
 20
130
 11
350
 21
200
 0
LINE
 8
0
 10
10
 20
250
 11
10
 21
310
 0
ARC
 8
0
 10
1.923077
 20
254.230769
 40
68.208261
 50
-3.556181
 51
74.631537
 0
LINE
 8
0
 10
130
 20
310
 11
130
 21
250
 0
ARC
 8
0
 10
100
 20
320
 40
80.622577
 50
-60.255119
 51
-7.125016
 0
LINE
 8
0
 10
240
 20
250
 11
240
 21
320
 0
ARC
 8
0
 10
243
 20
300
 40
42.059482
 50
-108.004162
 51
28.393019
 0
LINE
 8
0
 10
350
 20
320
 11
350
 21
250
 0
ARC
 8
0
 10
341.25
 20
240.625
 40
69.38626
 50
7.765166
 51
91.032245
 0
ARC
 8
0
 10
75
 20
375
 40
65.192024
 50
122.471192
 51
184.398705
 0
ARC
 8
0
 10
15
 20
385
 40
57.008771
 50
-15.255119
 51
52.125016
 0
ARC
 8
0
 10
195
 20
375
 40
65.192024
 50
122.471192
 51
184.398705
 0
ARC
 8
0
 10
155
 20
401.666667
 40
35.03966
 50
-115.346176
 51
-2.726311
 0
ARC
 8
0
 10
301.428571
 20
379.285714
 40
51.433532
 50
80.406866
 51
179.204276
 0
ARC
 8
0
 10
260
 20
512.5
 40
124.121916
 50
-99.272602
 51
-55.669783
 0
CIRCLE
 8
0
 10
10
 20
60
 40
2
 0
CIRCLE
 8
0
 10
120
 20
60
 40
2
 0
CIRCLE
 8
0
 10
240
 20
60
 40
2
 0
CIRCLE
 8
0
 10
350
 20
60
 40
2
 0
CIRCLE
 8
0
 10
10
 20
120
 40
2
 0
CIRCLE
 8
0
 10
120
 20
130
 40
2
 0
CIRCLE
 8
0
 10
260
 20
190
 40
2
 0
CIRCLE
 8
0
 10
350
 20
190
 40
2
 0
CIRCLE
 8
0
 10
10
 20
321.959125
 40
2
 0
CIRCLE
 8
0
 10
130
 20
245.166852
 40
2
 0
CIRCLE
 8
0
 10
240
 20
258.047646
 40
2
 0
CIRCLE
 8
0
 10
350
 20
309.457337
 40
2
 0
CIRCLE
 8
0
 10
45.52469
 20
433.148139
 40
2
 0
CIRCLE
 8
0
 10
129.847555
 20
377.271333
 40
2
 0
CIRCLE
 8
0
 10
250.86668
 20
388.714571
 40
2
 0
ENDSEC
 0
EOF
