  0
SECTION
  2
HEADER
  9
$CELTYPE
  6
CONTINUOUS
  9
$CLAYER
  8
0
  9
$CECOLOR
 62
256
  9
$INSUNITS
 70
     4
  9
$ANGDIR
 70
     0
  0
ENDSEC
  0
SECTION
  2
CLASSES
  0
ENDSEC
  0
SECTION
  2
TABLES
  0
ENDSEC
  0
SECTION
  2
BLOCKS
  0
ENDSEC
  0
SECTION
  2
ENTITIES
  0
ARC
100
AcDbEntity
  8
0
  6
CONTINUOUS
 62
256
100
AcDbCircle
 10
    45.00000000
 20
     6.00000000
 30
0.0
 40
     6.00000000
100
AcDbArc
 50
   209.92066956
 51
   270.00000000
  0
ARC
100
AcDbEntity
  8
0
  6
CONTINUOUS
 62
256
100
AcDbCircle
 10
   -46.87229538
 20
   -46.87230301
 30
0.0
 40
   100.00000000
100
AcDbArc
 50
    29.92031288
 51
    60.07969666
  0
ARC
100
AcDbEntity
  8
0
  6
CONTINUOUS
 62
256
100
AcDbCircle
 10
     6.00000000
 20
    45.00000000
 30
0.0
 40
     5.99999619
100
AcDbArc
 50
   180.00000000
 51
   240.07934570
  0
LINE
100
AcDbEntity
  8
0
  6
CONTINUOUS
 62
256
100
AcDbLine
 10
     0.00000000
 20
    45.00000000
 30
0.0
 11
    37.00000000
 21
    45.00000000
 31
0.0
  0
LINE
100
AcDbEntity
  8
0
  6
CONTINUOUS
 62
256
100
AcDbLine
 10
    37.00000000
 20
    45.00000000
 30
0.0
 11
    40.77550125
 21
    41.22449875
 31
0.0
  0
LINE
100
AcDbEntity
  8
0
  6
CONTINUOUS
 62
256
100
AcDbLine
 10
    40.77550125
 20
    41.22449875
 30
0.0
 11
    43.62160110
 21
    49.22069931
 31
0.0
  0
ARC
100
AcDbEntity
  8
0
  6
CONTINUOUS
 62
256
100
AcDbCircle
 10
    37.63920212
 20
    51.34999847
 30
0.0
 40
     6.35004044
100
AcDbArc
 50
   340.40795898
 51
    19.59206390
  0
LINE
100
AcDbEntity
  8
0
  6
CONTINUOUS
 62
256
100
AcDbLine
 10
    43.62160110
 20
    53.47930145
 30
0.0
 11
    40.77550125
 21
    61.47549820
 31
0.0
  0
LINE
100
AcDbEntity
  8
0
  6
CONTINUOUS
 62
256
100
AcDbLine
 10
    40.77550125
 20
    61.47549820
 30
0.0
 11
    37.00000000
 21
    57.70000076
 31
0.0
  0
LINE
100
AcDbEntity
  8
0
  6
CONTINUOUS
 62
256
100
AcDbLine
 10
    37.00000000
 20
    57.70000076
 30
0.0
 11
     0.00000000
 21
    57.70000076
 31
0.0
  0
ARC
100
AcDbEntity
  8
0
  6
CONTINUOUS
 62
256
100
AcDbCircle
 10
     6.00000000
 20
    57.70000076
 30
0.0
 40
     6.00000000
100
AcDbArc
 50
   119.92066193
 51
   180.00000000
  0
ARC
100
AcDbEntity
  8
0
  6
CONTINUOUS
 62
256
100
AcDbCircle
 10
   -46.87230301
 20
   149.57229614
 30
0.0
 40
   100.00000000
100
AcDbArc
 50
   299.92031860
 51
   330.07971191
  0
ARC
100
AcDbEntity
  8
0
  6
CONTINUOUS
 62
256
100
AcDbCircle
 10
    45.00000000
 20
    96.70000458
 30
0.0
 40
     5.99999475
100
AcDbArc
 50
    90.00000000
 51
   150.07936096
  0
LINE
100
AcDbEntity
  8
0
  6
CONTINUOUS
 62
256
100
AcDbLine
 10
    45.00000000
 20
   102.69999695
 30
0.0
 11
    45.00000000
 21
    65.69999695
 31
0.0
  0
LINE
100
AcDbEntity
  8
0
  6
CONTINUOUS
 62
256
100
AcDbLine
 10
    45.00000000
 20
    65.69999695
 30
0.0
 11
    41.22449875
 21
    61.92449951
 31
0.0
  0
LINE
100
AcDbEntity
  8
0
  6
CONTINUOUS
 62
256
100
AcDbLine
 10
    41.22449875
 20
    61.92449951
 30
0.0
 11
    52.06039810
 21
    58.06769943
 31
0.0
  0
ARC
100
AcDbEntity
  8
0
  6
CONTINUOUS
 62
256
100
AcDbCircle
 10
    54.18969727
 20
    64.05010223
 30
0.0
 40
     6.35004425
100
AcDbArc
 50
   250.40798950
 51
   270.00000000
  0
LINE
100
AcDbEntity
  8
0
  6
CONTINUOUS
 62
256
100
AcDbLine
 10
    54.18970108
 20
    57.70009995
 30
0.0
 11
    73.91030121
 21
    57.70000076
 31
0.0
  0
ARC
100
AcDbEntity
  8
0
  6
CONTINUOUS
 62
256
100
AcDbCircle
 10
    73.91030121
 20
    64.05000305
 30
0.0
 40
     6.35000229
100
AcDbArc
 50
   270.00000000
 51
   289.59231567
  0
LINE
100
AcDbEntity
  8
0
  6
CONTINUOUS
 62
256
100
AcDbLine
 10
    76.03959656
 20
    58.06769943
 30
0.0
 11
    86.87550354
 21
    61.92449951
 31
0.0
  0
LINE
100
AcDbEntity
  8
0
  6
CONTINUOUS
 62
256
100
AcDbLine
 10
    86.87550354
 20
    61.92449951
 30
0.0
 11
    83.09999847
 21
    65.69999695
 31
0.0
  0
LINE
100
AcDbEntity
  8
0
  6
CONTINUOUS
 62
256
100
AcDbLine
 10
    83.09999847
 20
    65.69999695
 30
0.0
 11
    83.09999847
 21
   102.69999695
 31
0.0
  0
ARC
100
AcDbEntity
  8
0
  6
CONTINUOUS
 62
256
100
AcDbCircle
 10
    83.09999847
 20
    96.69999695
 30
0.0
 40
     6.00000000
100
AcDbArc
 50
    29.92068863
 51
    90.00000000
  0
ARC
100
AcDbEntity
  8
0
  6
CONTINUOUS
 62
256
100
AcDbCircle
 10
   174.97229004
 20
   149.57229614
 30
0.0
 40
    99.99999237
100
AcDbArc
 50
   209.92031860
 51
   240.07969666
  0
ARC
100
AcDbEntity
  8
0
  6
CONTINUOUS
 62
256
100
AcDbCircle
 10
   122.09999847
 20
    57.69999695
 30
0.0
 40
     5.99999857
100
AcDbArc
 50
     0.00000000
 51
    60.07937622
  0
LINE
100
AcDbEntity
  8
0
  6
CONTINUOUS
 62
256
100
AcDbLine
 10
   128.10000610
 20
    57.70000076
 30
0.0
 11
    91.09999847
 21
    57.70000076
 31
0.0
  0
LINE
100
AcDbEntity
  8
0
  6
CONTINUOUS
 62
256
100
AcDbLine
 10
    91.09999847
 20
    57.70000076
 30
0.0
 11
    87.32450104
 21
    61.47549820
 31
0.0
  0
LINE
100
AcDbEntity
  8
0
  6
CONTINUOUS
 62
256
100
AcDbLine
 10
    87.32450104
 20
    61.47549820
 30
0.0
 11
    84.47840118
 21
    53.47930145
 31
0.0
  0
ARC
100
AcDbEntity
  8
0
  6
CONTINUOUS
 62
256
100
AcDbCircle
 10
    90.46080017
 20
    51.35000229
 30
0.0
 40
     6.35004044
100
AcDbArc
 50
   160.40797424
 51
   199.59207153
  0
LINE
100
AcDbEntity
  8
0
  6
CONTINUOUS
 62
256
100
AcDbLine
 10
    84.47840118
 20
    49.22069931
 30
0.0
 11
    87.32450104
 21
    41.22449875
 31
0.0
  0
LINE
100
AcDbEntity
  8
0
  6
CONTINUOUS
 62
256
100
AcDbLine
 10
    87.32450104
 20
    41.22449875
 30
0.0
 11
    91.09999847
 21
    45.00000000
 31
0.0
  0
LINE
100
AcDbEntity
  8
0
  6
CONTINUOUS
 62
256
100
AcDbLine
 10
    91.09999847
 20
    45.00000000
 30
0.0
 11
   128.10000610
 21
    45.00000000
 31
0.0
  0
ARC
100
AcDbEntity
  8
0
  6
CONTINUOUS
 62
256
100
AcDbCircle
 10
   122.10000610
 20
    45.00000000
 30
0.0
 40
     6.00000000
100
AcDbArc
 50
   299.92059326
 51
     0.00000000
  0
ARC
100
AcDbEntity
  8
0
  6
CONTINUOUS
 62
256
100
AcDbCircle
 10
   174.97229004
 20
   -46.87229538
 30
0.0
 40
    99.99999237
100
AcDbArc
 50
   119.92031097
 51
   150.07969666
  0
ARC
100
AcDbEntity
  8
0
  6
CONTINUOUS
 62
256
100
AcDbCircle
 10
    83.09999847
 20
     6.00000000
 30
0.0
 40
     5.99999952
100
AcDbArc
 50
   270.00000000
 51
   330.07934570
  0
LINE
100
AcDbEntity
  8
0
  6
CONTINUOUS
 62
256
100
AcDbLine
 10
    83.09999847
 20
     0.00000000
 30
0.0
 11
    83.09999847
 21
    37.00000000
 31
0.0
  0
LINE
100
AcDbEntity
  8
0
  6
CONTINUOUS
 62
256
100
AcDbLine
 10
    83.09999847
 20
    37.00000000
 30
0.0
 11
    86.87550354
 21
    40.77550125
 31
0.0
  0
LINE
100
AcDbEntity
  8
0
  6
CONTINUOUS
 62
256
100
AcDbLine
 10
    86.87550354
 20
    40.77550125
 30
0.0
 11
    76.03959656
 21
    44.63240051
 31
0.0
  0
ARC
100
AcDbEntity
  8
0
  6
CONTINUOUS
 62
256
100
AcDbCircle
 10
    73.91029358
 20
    38.65000153
 30
0.0
 40
     6.35004139
100
AcDbArc
 50
    70.40793610
 51
    90.00000000
  0
LINE
100
AcDbEntity
  8
0
  6
CONTINUOUS
 62
256
100
AcDbLine
 10
    73.91030121
 20
    45.00000000
 30
0.0
 11
    54.18980026
 21
    45.00000000
 31
0.0
  0
ARC
100
AcDbEntity
  8
0
  6
CONTINUOUS
 62
256
100
AcDbCircle
 10
    54.18980026
 20
    38.65000153
 30
0.0
 40
     6.34999847
100
AcDbArc
 50
    90.00000000
 51
   109.59291077
  0
LINE
100
AcDbEntity
  8
0
  6
CONTINUOUS
 62
256
100
AcDbLine
 10
    52.06039810
 20
    44.63240051
 30
0.0
 11
    41.22449875
 21
    40.77550125
 31
0.0
  0
LINE
100
AcDbEntity
  8
0
  6
CONTINUOUS
 62
256
100
AcDbLine
 10
    41.22449875
 20
    40.77550125
 30
0.0
 11
    45.00000000
 21
    37.00000000
 31
0.0
  0
LINE
100
AcDbEntity
  8
0
  6
CONTINUOUS
 62
256
100
AcDbLine
 10
    45.00000000
 20
    37.00000000
 30
0.0
 11
    45.00000000
 21
     0.00000000
 31
0.0
  0
ENDSEC
  0
SECTION
  2
OBJECTS
  0
ENDSEC
  0
EOF
