  0
SECTION
  2
HEADER
  9
$ACADVER
  1
AC1009
  9
$INSBASE
 10
0
 20
0
  9
$EXTMIN
 10
-6774.968000000001
 20
-8728.994999999997
  9
$EXTMAX
 10
22925.03199999994
 20
12271.005
  9
$LIMMIN
 10
-6774.968000000001
 20
-8728.994999999997
  9
$LIMMAX
 10
22925.03199999994
 20
12271.005
  9
$VIEWCTR
 10
10
 20
10
  9
$VIEWSIZE
 40
10
  9
$SNAPMODE
 70
0
  9
$SNAPUNIT
 10
1
 20
1
  9
$SNAPBASE
 10
0
 20
0
  9
$SNAPANG
 50
0
  9
$SNAPSTYLE
 70
0
  9
$SNAPISOPAIR
 70
0
  9
$GRIDMODE
 70
0
  9
$GRIDUNIT
 10
0
 20
0
  9
$ORTHOMODE
 70
0
  9
$REGENMODE
 70
1
  9
$FILLMODE
 70
1
  9
$QTEXTMODE
 70
0
  9
$DRAGMODE
 70
2
  9
$LTSCALE
 40
1
  9
$OSMODE
 70
0
  9
$ATTMODE
 70
1
  9
$TEXTSIZE
 40
3.5
  9
$TRACEWID
 40
0.5
  9
$TEXTSTYLE
  7
STANDARD
  9
$CLAYER
  8
0
  9
$CELTYPE
  6
BYLAYER
  9
$CECOLOR
 62
256
  9
$DIMSCALE
 40
1
  9
$DIMASZ
 40
0.18
  9
$DIMEXO
 40
0.0625
  9
$DIMDLI
 40
0.38
  9
$DIMRND
 40
0
  9
$DIMDLE
 40
0
  9
$DIMEXE
 40
0.18
  9
$DIMTP
 40
0
  9
$DIMTM
 40
0
  9
$DIMTXT
 40
0.18
  9
$DIMCEN
 40
0.09
  9
$DIMTSZ
 40
0
  9
$DIMTOL
 70
0
  9
$DIMLIM
 70
0
  9
$DIMTIH
 70
1
  9
$DIMTOH
 70
1
  9
$DIMSE1
 70
0
  9
$DIMSE2
 70
0
  9
$DIMTAD
 70
0
  9
$DIMZIN
 70
0
  9
$DIMBLK
  1

  9
$DIMASO
 70
1
  9
$DIMSHO
 70
1
  9
$DIMPOST
  1

  9
$DIMAPOST
  1

  9
$DIMALT
 70
0
  9
$DIMALTD
 70
2
  9
$DIMALTF
 40
25.4
  9
$DIMLFAC
 40
1
  9
$DIMTOFL
 70
0
  9
$DIMTVP
 40
0
  9
$DIMTIX
 70
0
  9
$DIMSOXD
 70
0
  9
$DIMSAH
 70
0
  9
$DIMBLK1
  1

  9
$DIMBLK2
  1

  9
$DIMSTYLE
  2
*UNNAMED
  9
$DIMCLRD
 70
0
  9
$DIMCLRE
 70
0
  9
$DIMCLRT
 70
0
  9
$DIMTFAC
 40
1
  9
$DIMGAP
 40
0.09
  9
$LUNITS
 70
2
  9
$LUPREC
 70
4
  9
$AXISMODE
 70
0
  9
$AXISUNIT
 10
0
 20
0
  9
$SKETCHINC
 40
0.1
  9
$FILLETRAD
 40
2
  9
$AUNITS
 70
0
  9
$AUPREC
 70
0
  9
$MENU
  1
ACAD
  9
$ELEVATION
 40
0
  9
$THICKNESS
 40
0
  9
$VIEWDIR
 10
0
 20
0
 30
1
  9
$LIMCHECK
 70
0
  9
$BLIPMODE
 70
1
  9
$CHAMFERA
 40
0
  9
$CHAMFERB
 40
0
  9
$FASTZOOM
 70
1
  9
$SKPOLY
 70
0
  9
$ANGBASE
 50
0
  9
$ANGDIR
 70
0
  9
$PDMODE
 70
0
  9
$PDSIZE
 40
0
  9
$PLINEWID
 40
0
  9
$COORDS
 70
2
  0
ENDSEC
  0
SECTION
  2
TABLES
  0
TABLE
  2
DIMSTYLE
 70
1
  0
DIMSTYLE
  2
DMST_1
 70
0
  3

  4

  5

  6

  7

 40
1
 41
175
 42
0
 43
7
 44
100
 45
0
 46
0
 47
50
 48
50
140
175
141
0
142
0
143
25.4
144
1
145
0
146
0.6
147
0.09
 71
1
 72
0
 73
0
 74
0
 75
0
 76
0
 77
1
 78
9
170
0
171
2
172
0
173
0
174
0
175
0
176
2
177
2
178
2
  0
ENDTAB
  0
TABLE
  2
LTYPE
 70
9
  0
LTYPE
  2
CONTINUOUS
 70
64
  3
Solid line
 72
65
 73
0
 40
0
  0
LTYPE
  2
BORDER
 70
64
  3
__ __ . __ __ .
 72
65
 73
6
 40
1367.763157894734
 49
390.7894736842098
 49
-195.3947368421049
 49
390.7894736842098
 49
-195.3947368421049
 49
0
 49
-195.3947368421049
  0
LTYPE
  2
CENTER
 70
64
  3
____ _ ____ _
 72
65
 73
4
 40
1563.157894736839
 49
976.9736842105244
 49
-195.3947368421049
 49
195.3947368421049
 49
-195.3947368421049
  0
LTYPE
  2
DASHDOT
 70
64
  3
__ . __ . __ .
 72
65
 73
4
 40
781.5789473684196
 49
390.7894736842098
 49
-195.3947368421049
 49
0
 49
-195.3947368421049
  0
LTYPE
  2
DASHED
 70
64
  3
__ __ __ __ __
 72
65
 73
2
 40
586.1842105263147
 49
390.7894736842098
 49
-195.3947368421049
  0
LTYPE
  2
DIVIDE
 70
64
  3
__ . . __ . . 
 72
65
 73
6
 40
976.9736842105244
 49
390.7894736842098
 49
-195.3947368421049
 49
0
 49
-195.3947368421049
 49
0
 49
-195.3947368421049
  0
LTYPE
  2
DOT
 70
64
  3
..............
 72
65
 73
4
 40
390.7894736842098
 49
0
 49
-195.3947368421049
 49
0
 49
-195.3947368421049
  0
LTYPE
  2
HIDDEN
 70
64
  3
_ _ _ _ _ _ _
 72
65
 73
2
 40
293.0921052631574
 49
195.3947368421049
 49
-97.69736842105245
  0
LTYPE
  2
PHANTOM
 70
64
  3
_____ _ _ _____ _ _ 
 72
65
 73
6
 40
1953.947368421049
 49
976.9736842105244
 49
-195.3947368421049
 49
195.3947368421049
 49
-195.3947368421049
 49
195.3947368421049
 49
-195.3947368421049
  0
ENDTAB
  0
TABLE
  2
LAYER
 70
5
  0
LAYER
  2
201
 70
0
 62
7
  6
CONTINUOUS
  0
LAYER
  2
1
 70
0
 62
7
  6
CONTINUOUS
  0
LAYER
  2
251
 70
0
 62
7
  6
CONTINUOUS
  0
LAYER
  2
0
 70
0
 62
7
  6
CONTINUOUS
  0
ENDTAB
  0
TABLE
  2
STYLE
 70
4
  0
STYLE
  2
STANDARD
 70
0
 40
0
 41
1
 50
0
 71
0
 42
3.5
  3
txt
  4

  0
STYLE
  2
SIMPLEX
 70
0
 40
0
 41
1
 50
0
 71
0
 42
3.5
  3
simplex
  4

  0
STYLE
  2
COMPLEX
 70
0
 40
0
 41
1
 50
0
 71
0
 42
3.5
  3
complex
  4

  0
STYLE
  2
ITALIC
 70
0
 40
0
 41
1
 50
0
 71
0
 42
3.5
  3
italic
  4

  0
ENDTAB
  0
TABLE
  2
VIEW
 70
0
  0
ENDTAB
  0
ENDSEC
  0
SECTION
  2
BLOCKS
  0
BLOCK
  8
0
  2
_RAHMENA2
 70
0
 10
168.50064
 20
73.67010000000005
 30
0
  0
LINE
  8
201
 62
2
 10
-116.49936
 20
240.4200999999999
 30
0
 11
-116.49936
 21
-169.5799
 31
0
  0
LINE
  8
201
 62
2
 10
-116.49936
 20
-169.5799
 30
0
 11
453.5006399999988
 21
-169.5799
 31
0
  0
LINE
  8
201
 62
2
 10
-135.49936
 20
245.4200999999999
 30
0
 11
-135.49936
 21
-174.5799
 31
0
  0
LINE
  8
201
 62
2
 10
458.5006399999988
 20
245.4200999999999
 30
0
 11
-135.49936
 21
245.4200999999999
 31
0
  0
LINE
  8
201
 62
2
 10
458.5006399999988
 20
-174.5799
 30
0
 11
458.5006399999988
 21
245.4200999999999
 31
0
  0
LINE
  8
201
 62
2
 10
266.50064
 20
245.4200999999999
 30
0
 11
266.50064
 21
240.4200999999999
 31
0
  0
LINE
  8
201
 62
2
 10
458.5006399999988
 20
-174.5799
 30
0
 11
-135.49936
 21
-174.5799
 31
0
  0
LINE
  8
201
 62
2
 10
266.50064
 20
-174.5799
 30
0
 11
266.50064
 21
-169.5799
 31
0
  0
LINE
  8
201
 62
2
 10
453.5006399999988
 20
240.4200999999999
 30
0
 11
453.5006399999988
 21
-169.5799
 31
0
  0
LINE
  8
201
 62
2
 10
453.5006399999988
 20
240.4200999999999
 30
0
 11
-116.49936
 21
240.4200999999999
 31
0
  0
LINE
  8
1
 62
7
 10
448.5006399999988
 20
235.4200999999999
 30
0
 11
-111.49936
 21
235.4200999999999
 31
0
  0
LINE
  8
1
 62
7
 10
-111.49936
 20
235.4200999999999
 30
0
 11
-111.49936
 21
-164.5799
 31
0
  0
LINE
  8
1
 62
7
 10
-111.49936
 20
-164.5799
 30
0
 11
448.5006399999988
 21
-164.5799
 31
0
  0
LINE
  8
1
 62
7
 10
448.5006399999988
 20
235.4200999999999
 30
0
 11
448.5006399999988
 21
-164.5799
 31
0
  0
LINE
  8
201
 62
2
 10
-31.49936000000002
 20
240.4200999999999
 30
0
 11
-31.49936000000002
 21
235.4200999999999
 31
0
  0
LINE
  8
201
 62
2
 10
-31.49936000000002
 20
-164.5799
 30
0
 11
-31.49936000000002
 21
-169.5799
 31
0
  0
LINE
  8
201
 62
2
 10
68.50063999999998
 20
-164.5799
 30
0
 11
68.50063999999998
 21
-169.5799
 31
0
  0
LINE
  8
201
 62
2
 10
68.50063999999998
 20
240.4200999999999
 30
0
 11
68.50063999999998
 21
235.4200999999999
 31
0
  0
LINE
  8
201
 62
2
 10
168.50064
 20
-164.5799
 30
0
 11
168.50064
 21
-169.5799
 31
0
  0
LINE
  8
201
 62
2
 10
168.50064
 20
240.4200999999999
 30
0
 11
168.50064
 21
235.4200999999999
 31
0
  0
LINE
  8
201
 62
2
 10
268.50064
 20
-164.5799
 30
0
 11
268.50064
 21
-169.5799
 31
0
  0
LINE
  8
201
 62
2
 10
268.50064
 20
240.4200999999999
 30
0
 11
268.50064
 21
235.4200999999999
 31
0
  0
LINE
  8
201
 62
2
 10
368.5006399999988
 20
-164.5799
 30
0
 11
368.5006399999988
 21
-169.5799
 31
0
  0
LINE
  8
201
 62
2
 10
368.5006399999988
 20
240.4200999999999
 30
0
 11
368.5006399999988
 21
235.4200999999999
 31
0
  0
LINE
  8
201
 62
2
 10
-116.49936
 20
-64.57989999999995
 30
0
 11
-111.49936
 21
-64.57989999999995
 31
0
  0
LINE
  8
201
 62
2
 10
448.5006399999988
 20
-64.57989999999995
 30
0
 11
453.5006399999988
 21
-64.57989999999995
 31
0
  0
LINE
  8
201
 62
2
 10
448.5006399999988
 20
35.42010000000005
 30
0
 11
453.5006399999988
 21
35.42010000000005
 31
0
  0
LINE
  8
201
 62
2
 10
-116.49936
 20
35.42010000000005
 30
0
 11
-111.49936
 21
35.42010000000005
 31
0
  0
LINE
  8
201
 62
2
 10
448.5006399999988
 20
135.4201
 30
0
 11
453.5006399999988
 21
135.4201
 31
0
  0
LINE
  8
201
 62
2
 10
-116.49936
 20
135.4201
 30
0
 11
-111.49936
 21
135.4201
 31
0
  0
LINE
  8
201
 62
2
 10
448.5006399999988
 20
35.42010000000005
 30
0
 11
453.5006399999988
 21
35.42010000000005
 31
0
  0
LINE
  8
201
 62
2
 10
-116.49936
 20
35.42010000000005
 30
0
 11
-111.49936
 21
35.42010000000005
 31
0
  0
LINE
  8
201
 62
2
 10
448.5006399999988
 20
135.4201
 30
0
 11
453.5006399999988
 21
135.4201
 31
0
  0
LINE
  8
201
 62
2
 10
-116.49936
 20
135.4201
 30
0
 11
-111.49936
 21
135.4201
 31
0
  0
LINE
  8
201
 62
2
 10
-30.49936000000002
 20
245.4200999999999
 30
0
 11
-30.49936000000002
 21
240.4200999999999
 31
0
  0
LINE
  8
201
 62
2
 10
-35.49936000000002
 20
240.4200999999999
 30
0
 11
-30.49936000000002
 21
245.4200999999999
 31
0
  0
LINE
  8
201
 62
2
 10
73.50063999999998
 20
-174.5799
 30
0
 11
73.50063999999998
 21
-169.5799
 31
0
  0
LINE
  8
201
 62
2
 10
73.50063999999998
 20
240.4200999999999
 30
0
 11
73.50063999999998
 21
245.4200999999999
 31
0
  0
TEXT
  8
201
 62
2
 10
-115.34936
 20
187.9201
 30
0
 40
3
  1
D
 41
0.9
 72
1
 11
-113.99936
 21
187.9201
 31
0
  0
TEXT
  8
201
 62
2
 10
-115.34936
 20
85.42010000000005
 30
0
 40
3
  1
C
 41
0.9
 72
1
 11
-113.99936
 21
85.42010000000005
 31
0
  0
TEXT
  8
201
 62
2
 10
-115.34936
 20
-14.57989999999995
 30
0
 40
3
  1
B
 41
0.9
 72
1
 11
-113.99936
 21
-14.57989999999995
 31
0
  0
TEXT
  8
201
 62
2
 10
-115.34936
 20
-117.0799
 30
0
 40
3
  1
A
 41
0.9
 72
1
 11
-113.99936
 21
-117.0799
 31
0
  0
TEXT
  8
201
 62
2
 10
449.6506399999988
 20
187.9201
 30
0
 40
3
  1
D
 41
0.9
 72
1
 11
451.0006399999988
 21
187.9201
 31
0
  0
TEXT
  8
201
 62
2
 10
449.6506399999988
 20
85.42010000000005
 30
0
 40
3
  1
C
 41
0.9
 72
1
 11
451.0006399999988
 21
85.42010000000005
 31
0
  0
TEXT
  8
201
 62
2
 10
449.6506399999988
 20
-14.57989999999995
 30
0
 40
3
  1
B
 41
0.9
 72
1
 11
451.0006399999988
 21
-14.57989999999995
 31
0
  0
TEXT
  8
201
 62
2
 10
449.6506399999988
 20
-117.0799
 30
0
 40
3
  1
A
 41
0.9
 72
1
 11
451.0006399999988
 21
-117.0799
 31
0
  0
TEXT
  8
201
 62
2
 10
-75.34936000000002
 20
-168.5799
 30
0
 40
3
  1
6
 41
0.9
 72
1
 11
-73.99936000000002
 21
-168.5799
 31
0
  0
TEXT
  8
201
 62
2
 10
17.15063999999998
 20
-168.5799
 30
0
 40
3
  1
5
 41
0.9
 72
1
 11
18.50063999999998
 21
-168.5799
 31
0
  0
TEXT
  8
201
 62
2
 10
117.15064
 20
-168.5799
 30
0
 40
3
  1
4
 41
0.9
 72
1
 11
118.50064
 21
-168.5799
 31
0
  0
TEXT
  8
201
 62
2
 10
217.15064
 20
-168.5799
 30
0
 40
3
  1
3
 41
0.9
 72
1
 11
218.50064
 21
-168.5799
 31
0
  0
TEXT
  8
201
 62
2
 10
317.15064
 20
-168.5799
 30
0
 40
3
  1
2
 41
0.9
 72
1
 11
318.50064
 21
-168.5799
 31
0
  0
TEXT
  8
201
 62
2
 10
409.6506399999988
 20
-168.5799
 30
0
 40
3
  1
1
 41
0.9
 72
1
 11
411.0006399999988
 21
-168.5799
 31
0
  0
TEXT
  8
201
 62
2
 10
-75.34936000000002
 20
236.4200999999999
 30
0
 40
3
  1
6
 41
0.9
 72
1
 11
-73.99936000000002
 21
236.4200999999999
 31
0
  0
TEXT
  8
201
 62
2
 10
17.15063999999998
 20
236.4200999999999
 30
0
 40
3
  1
5
 41
0.9
 72
1
 11
18.50063999999998
 21
236.4200999999999
 31
0
  0
TEXT
  8
201
 62
2
 10
117.15064
 20
236.4200999999999
 30
0
 40
3
  1
4
 41
0.9
 72
1
 11
118.50064
 21
236.4200999999999
 31
0
  0
TEXT
  8
201
 62
2
 10
217.15064
 20
236.4200999999999
 30
0
 40
3
  1
3
 41
0.9
 72
1
 11
218.50064
 21
236.4200999999999
 31
0
  0
TEXT
  8
201
 62
2
 10
317.15064
 20
236.4200999999999
 30
0
 40
3
  1
2
 41
0.9
 72
1
 11
318.50064
 21
236.4200999999999
 31
0
  0
TEXT
  8
201
 62
2
 10
409.6506399999988
 20
236.4200999999999
 30
0
 40
3
  1
1
 41
0.9
 72
1
 11
411.0006399999988
 21
236.4200999999999
 31
0
  0
ENDBLK
  8
0
  0
BLOCK
  8
0
  2
_LOGO
 70
0
 10
261.0006399999988
 20
-160.3299
 30
0
  0
SOLID
  8
1
 62
7
 10
262.5006399999988
 20
-148.2298905252748
 30
0
 11
275.5006399999988
 21
-148.2298905252748
 31
0
 12
262.5006399999988
 22
-158.3298905252747
 32
0
 13
275.5006399999988
 23
-158.3298905252747
 33
0
  0
LINE
  8
1
 62
2
 10
262.5006399999988
 20
-148.2298905252748
 30
0
 11
262.5006399999988
 21
-158.3298905252747
 31
0
  0
LINE
  8
1
 62
2
 10
275.5006399999988
 20
-148.2298905252748
 30
0
 11
262.5006399999988
 21
-148.2298905252748
 31
0
  0
LINE
  8
1
 62
2
 10
275.5006399999988
 20
-158.3298905252747
 30
0
 11
275.5006399999988
 21
-148.2298905252748
 31
0
  0
LINE
  8
1
 62
2
 10
262.5006399999988
 20
-158.3298905252747
 30
0
 11
275.5006399999988
 21
-158.3298905252747
 31
0
  0
TEXT
  8
201
 62
2
 10
262.501108565836
 20
-147.8307966923419
 30
0
 40
2.5
  1
TRUMPF
 41
0.8235
  7
COMPLEX
  0
TEXT
  8
201
 62
2
 10
278.0756399999994
 20
-156.2799
 30
0
 40
1.899999999999999
  1
71254 DITZINGEN
 41
0.9
 72
1
 73
2
 11
290.9006399999994
 21
-155.3299
 31
0
  0
TEXT
  8
201
 62
2
 10
285.8706399999988
 20
-147.2799
 30
0
 40
1.899999999999999
  1
TRUMPF
 41
0.9
 72
1
 73
2
 11
291.0006399999988
 21
-146.3299
 31
0
  0
TEXT
  8
201
 62
2
 10
278.6458899999988
 20
-150.0299
 30
0
 40
1.9
  1
Werkzeugmaschinen
 41
0.7650000000000001
 72
1
 73
2
 11
291.0006399999988
 21
-149.0799
 31
0
  0
TEXT
  8
201
 62
2
 10
285.2148899999994
 20
-158.9798999999999
 30
0
 40
1.9
  1
Germany
 41
0.8550000000000001
 72
1
 73
2
 11
290.9006399999994
 21
-158.0298999999999
 31
0
  0
TEXT
  8
201
 62
2
 10
281.5528899999988
 20
-152.7799
 30
0
 40
1.9
  1
GmbH + Co. KG
 41
0.7650000000000001
 72
1
 73
2
 11
291.0006399999988
 21
-151.8299
 31
0
  0
ENDBLK
  8
0
  0
BLOCK
  8
0
  2
_SFELD_N
 70
0
 10
354.7506399999988
 20
12.92010000000005
 30
0
  0
LINE
  8
1
 62
7
 10
306.5006399999988
 20
-126.3299000000011
 30
0
 11
306.5006399999988
 21
-164.5799000000011
 31
0
  0
LINE
  8
1
 62
7
 10
357.5006399999988
 20
-113.579900000002
 30
0
 11
448.5006399999988
 21
-113.5799000000011
 31
0
  0
LINE
  8
201
 62
7
 10
357.5006399999988
 20
-126.3299000000011
 30
0
 11
261.0006399999988
 21
-126.3299000000011
 31
0
  0
LINE
  8
1
 62
2
 10
357.5006399999988
 20
-126.3299000000011
 30
0
 11
357.5006399999988
 21
-119.954900000002
 31
0
  0
LINE
  8
1
 62
7
 10
261.0006399999988
 20
-113.5799000000011
 30
0
 11
357.5006399999988
 21
-113.579900000002
 31
0
  0
LINE
  8
1
 62
7
 10
261.0006399999988
 20
-113.5799000000011
 30
0
 11
261.0006399999988
 21
-164.5799000000011
 31
0
  0
LINE
  8
1
 62
2
 10
329.7006399999989
 20
-126.3299000000011
 30
0
 11
329.7006399999989
 21
-164.5799000000011
 31
0
  0
LINE
  8
1
 62
2
 10
311.300639999999
 20
-126.3299000000011
 30
0
 11
311.300639999999
 21
-164.5799000000011
 31
0
  0
LINE
  8
201
 62
7
 10
344.100639999999
 20
-147.5799000000011
 30
0
 11
448.5006399999988
 21
-147.5799000000011
 31
0
  0
LINE
  8
1
 62
7
 10
434.2714040772548
 20
-147.5799000000011
 30
0
 11
434.2714040772548
 21
-160.3299000000011
 31
0
  0
LINE
  8
201
 62
2
 10
261.0006399999988
 20
-160.3299000000011
 30
0
 11
448.5006399999988
 21
-160.3299000000011
 31
0
  0
LINE
  8
201
 62
7
 10
448.5006399999988
 20
-126.3299000000029
 30
0
 11
357.5006399999988
 21
-126.3299000000011
 31
0
  0
LINE
  8
1
 62
7
 10
417.5006399999988
 20
-126.3299000000011
 30
0
 11
417.5006399999988
 21
-160.3299000000011
 31
0
  0
LINE
  8
1
 62
7
 10
357.5006399999988
 20
-126.3299000000011
 30
0
 11
357.5006399999988
 21
-160.3299000000011
 31
0
  0
LINE
  8
1
 62
7
 10
344.100639999999
 20
-126.3299000000011
 30
0
 11
344.100639999999
 21
-164.5799000000011
 31
0
  0
LINE
  8
201
 62
2
 10
306.5006399999988
 20
-130.579899999999
 30
0
 11
344.100639999999
 21
-130.579899999999
 31
0
  0
LINE
  8
201
 62
2
 10
344.100639999999
 20
-134.8299000000011
 30
0
 11
306.5006399999988
 21
-134.8299000000011
 31
0
  0
LINE
  8
201
 62
2
 10
306.5006399999988
 20
-139.0799000000011
 30
0
 11
344.100639999999
 21
-139.0799000000011
 31
0
  0
LINE
  8
201
 62
2
 10
344.100639999999
 20
-143.3299000000011
 30
0
 11
306.5006399999988
 21
-143.3299000000011
 31
0
  0
LINE
  8
201
 62
2
 10
306.5006399999988
 20
-147.5799000000011
 30
0
 11
344.100639999999
 21
-147.5799000000011
 31
0
  0
LINE
  8
201
 62
2
 10
344.100639999999
 20
-151.8299000000011
 30
0
 11
306.5006399999988
 21
-151.8299000000011
 31
0
  0
LINE
  8
201
 62
2
 10
306.5006399999988
 20
-156.0799000000011
 30
0
 11
344.100639999999
 21
-156.0799000000011
 31
0
  0
LINE
  8
201
 62
2
 10
271.0006399999988
 20
-126.3299000000011
 30
0
 11
271.0006399999988
 21
-143.3299000000011
 31
0
  0
LINE
  8
201
 62
2
 10
288.5006399999988
 20
-126.3299000000011
 30
0
 11
288.5006399999988
 21
-143.3299000000011
 31
0
  0
LINE
  8
201
 62
2
 10
306.5006399999988
 20
-139.0799000000011
 30
0
 11
261.0006399999988
 21
-139.0799000000011
 31
0
  0
LINE
  8
201
 62
2
 10
261.0006399999988
 20
-134.8299000000011
 30
0
 11
306.5006399999988
 21
-134.8299000000011
 31
0
  0
LINE
  8
201
 62
7
 10
306.5006399999988
 20
-130.579899999999
 30
0
 11
261.0006399999988
 21
-130.579899999999
 31
0
  0
LINE
  8
201
 62
7
 10
261.0006399999988
 20
-143.3299000000011
 30
0
 11
306.5006399999988
 21
-143.3299000000011
 31
0
  0
LINE
  8
1
 62
2
 10
357.5006399999988
 20
-119.954900000002
 30
0
 11
448.5006399999988
 21
-119.954900000002
 31
0
  0
LINE
  8
1
 62
2
 10
357.5006399999988
 20
-119.954900000002
 30
0
 11
357.5006399999988
 21
-113.579900000002
 31
0
  0
POLYLINE
  8
201
 62
2
 66
1
 70
1
  0
VERTEX
  8
201
 10
308.800639999999
 20
-160.2049000000011
 30
0
  0
VERTEX
  8
201
 10
308.800639999999
 20
-160.2049000000011
 30
0
 42
0.4142135624
  0
VERTEX
  8
201
 10
310.800639999999
 20
-158.2049000000011
 30
0
  0
VERTEX
  8
201
 10
310.800639999999
 20
-158.2049000000011
 30
0
 42
0.4142135624
  0
VERTEX
  8
201
 10
308.800639999999
 20
-156.2049000000011
 30
0
  0
VERTEX
  8
201
 10
308.800639999999
 20
-156.2049000000011
 30
0
 42
0.4142135624
  0
VERTEX
  8
201
 10
306.800639999999
 20
-158.2049000000011
 30
0
  0
VERTEX
  8
201
 10
306.800639999999
 20
-158.2049000000011
 30
0
 42
0.4142135624
  0
SEQEND
  8
201
  0
POLYLINE
  8
201
 62
2
 66
1
 70
1
  0
VERTEX
  8
201
 10
308.800639999999
 20
-155.9549000000011
 30
0
  0
VERTEX
  8
201
 10
308.800639999999
 20
-155.9549000000011
 30
0
 42
0.4142135624
  0
VERTEX
  8
201
 10
310.800639999999
 20
-153.9549000000011
 30
0
  0
VERTEX
  8
201
 10
310.800639999999
 20
-153.9549000000011
 30
0
 42
0.4142135624
  0
VERTEX
  8
201
 10
308.800639999999
 20
-151.9549000000011
 30
0
  0
VERTEX
  8
201
 10
308.800639999999
 20
-151.9549000000011
 30
0
 42
0.4142135624
  0
VERTEX
  8
201
 10
306.800639999999
 20
-153.9549000000011
 30
0
  0
VERTEX
  8
201
 10
306.800639999999
 20
-153.9549000000011
 30
0
 42
0.4142135624
  0
SEQEND
  8
201
  0
POLYLINE
  8
201
 62
2
 66
1
 70
1
  0
VERTEX
  8
201
 10
308.800639999999
 20
-151.7049000000011
 30
0
  0
VERTEX
  8
201
 10
308.800639999999
 20
-151.7049000000011
 30
0
 42
0.4142135624
  0
VERTEX
  8
201
 10
310.800639999999
 20
-149.7049000000011
 30
0
  0
VERTEX
  8
201
 10
310.800639999999
 20
-149.7049000000011
 30
0
 42
0.4142135624
  0
VERTEX
  8
201
 10
308.800639999999
 20
-147.7049000000011
 30
0
  0
VERTEX
  8
201
 10
308.800639999999
 20
-147.7049000000011
 30
0
 42
0.4142135624
  0
VERTEX
  8
201
 10
306.800639999999
 20
-149.7049000000011
 30
0
  0
VERTEX
  8
201
 10
306.800639999999
 20
-149.7049000000011
 30
0
 42
0.4142135624
  0
SEQEND
  8
201
  0
POLYLINE
  8
201
 62
2
 66
1
 70
1
  0
VERTEX
  8
201
 10
308.800639999999
 20
-147.4549000000011
 30
0
  0
VERTEX
  8
201
 10
308.800639999999
 20
-147.4549000000011
 30
0
 42
0.4142135624
  0
VERTEX
  8
201
 10
310.800639999999
 20
-145.4549000000011
 30
0
  0
VERTEX
  8
201
 10
310.800639999999
 20
-145.4549000000011
 30
0
 42
0.4142135624
  0
VERTEX
  8
201
 10
308.800639999999
 20
-143.4549000000011
 30
0
  0
VERTEX
  8
201
 10
308.800639999999
 20
-143.4549000000011
 30
0
 42
0.4142135624
  0
VERTEX
  8
201
 10
306.800639999999
 20
-145.4549000000011
 30
0
  0
VERTEX
  8
201
 10
306.800639999999
 20
-145.4549000000011
 30
0
 42
0.4142135624
  0
SEQEND
  8
201
  0
POLYLINE
  8
201
 62
2
 66
1
 70
1
  0
VERTEX
  8
201
 10
308.800639999999
 20
-143.2049000000011
 30
0
  0
VERTEX
  8
201
 10
308.800639999999
 20
-143.2049000000011
 30
0
 42
0.4142135624
  0
VERTEX
  8
201
 10
310.800639999999
 20
-141.2049000000011
 30
0
  0
VERTEX
  8
201
 10
310.800639999999
 20
-141.2049000000011
 30
0
 42
0.4142135624
  0
VERTEX
  8
201
 10
308.800639999999
 20
-139.2049000000011
 30
0
  0
VERTEX
  8
201
 10
308.800639999999
 20
-139.2049000000011
 30
0
 42
0.4142135624
  0
VERTEX
  8
201
 10
306.800639999999
 20
-141.2049000000011
 30
0
  0
VERTEX
  8
201
 10
306.800639999999
 20
-141.2049000000011
 30
0
 42
0.4142135624
  0
SEQEND
  8
201
  0
POLYLINE
  8
201
 62
2
 66
1
 70
1
  0
VERTEX
  8
201
 10
308.800639999999
 20
-138.9549000000011
 30
0
  0
VERTEX
  8
201
 10
308.800639999999
 20
-138.9549000000011
 30
0
 42
0.4142135624
  0
VERTEX
  8
201
 10
310.800639999999
 20
-136.9549000000011
 30
0
  0
VERTEX
  8
201
 10
310.800639999999
 20
-136.9549000000011
 30
0
 42
0.4142135624
  0
VERTEX
  8
201
 10
308.800639999999
 20
-134.9549000000011
 30
0
  0
VERTEX
  8
201
 10
308.800639999999
 20
-134.9549000000011
 30
0
 42
0.4142135624
  0
VERTEX
  8
201
 10
306.800639999999
 20
-136.9549000000011
 30
0
  0
VERTEX
  8
201
 10
306.800639999999
 20
-136.9549000000011
 30
0
 42
0.4142135624
  0
SEQEND
  8
201
  0
POLYLINE
  8
201
 62
2
 66
1
 70
1
  0
VERTEX
  8
201
 10
308.800639999999
 20
-134.7049000000011
 30
0
  0
VERTEX
  8
201
 10
308.800639999999
 20
-134.7049000000011
 30
0
 42
0.4142135624
  0
VERTEX
  8
201
 10
310.800639999999
 20
-132.7049000000011
 30
0
  0
VERTEX
  8
201
 10
310.800639999999
 20
-132.7049000000011
 30
0
 42
0.4142135624
  0
VERTEX
  8
201
 10
308.800639999999
 20
-130.7049000000011
 30
0
  0
VERTEX
  8
201
 10
308.800639999999
 20
-130.7049000000011
 30
0
 42
0.4142135624
  0
VERTEX
  8
201
 10
306.800639999999
 20
-132.7049000000011
 30
0
  0
VERTEX
  8
201
 10
306.800639999999
 20
-132.7049000000011
 30
0
 42
0.4142135624
  0
SEQEND
  8
201
  0
POLYLINE
  8
201
 62
2
 66
1
 70
1
  0
VERTEX
  8
201
 10
308.800639999999
 20
-130.4549000000011
 30
0
  0
VERTEX
  8
201
 10
308.800639999999
 20
-130.4549000000011
 30
0
 42
0.4142135624
  0
VERTEX
  8
201
 10
310.800639999999
 20
-128.4549000000011
 30
0
  0
VERTEX
  8
201
 10
310.800639999999
 20
-128.4549000000011
 30
0
 42
0.4142135624
  0
VERTEX
  8
201
 10
308.800639999999
 20
-126.4549000000011
 30
0
  0
VERTEX
  8
201
 10
308.800639999999
 20
-126.4549000000011
 30
0
 42
0.4142135624
  0
VERTEX
  8
201
 10
306.800639999999
 20
-128.4549000000011
 30
0
  0
VERTEX
  8
201
 10
306.800639999999
 20
-128.4549000000011
 30
0
 42
0.4142135624
  0
SEQEND
  8
201
  0
TEXT
  8
1
 62
2
 10
308.1256399999988
 20
-123.954900000002
 30
0
 40
2.5
  1
 
 41
0.9
 72
1
 11
309.2506399999988
 21
-123.954900000002
 31
0
  0
TEXT
  8
1
 62
7
 10
354.3806399999968
 20
-163.2049000000011
 30
0
 40
2
  1
layout
 41
0.7200000000000001
 72
1
 73
2
 11
358.7006399999968
 21
-162.2049000000011
 31
0
  0
TEXT
  8
1
 62
7
 10
371.3406399999988
 20
-163.0799000000011
 30
0
 40
2
  1
TCO
 41
0.7200000000000001
 72
1
 11
373.5006399999988
 21
-163.0799000000011
 31
0
  0
TEXT
  8
201
 62
2
 10
360.006714019127
 20
-118.029900000002
 30
0
 40
1.899999999999999
  1
MASCHINENTYP
 41
0.9
 51
15
 73
2
 11
360.006714019127
 21
-117.079900000002
 31
0
  0
TEXT
  8
201
 62
2
 10
360.0006399999988
 20
-124.0924000000011
 30
0
 40
1.899999999999999
  1
MASCHINENNR.
 41
0.9
 51
15
 73
2
 11
360.0006399999988
 21
-123.1424000000011
 31
0
  0
TEXT
  8
201
 62
2
 10
435.905392114006
 20
-151.0799000000011
 30
0
 40
1.899999999999999
  1
von
 41
0.9
 51
15
  0
TEXT
  8
201
 62
2
 10
418.1778897095489
 20
-151.0799000000011
 30
0
 40
1.899999999999999
  1
BLATT-NR.
 41
0.9
 51
15
  0
TEXT
  8
201
 62
2
 10
418.585602135614
 20
-129.8299000000011
 30
0
 40
1.899999999999999
  1
MATERIAL-NR.
 41
0.9
 51
15
  0
TEXT
  8
201
 62
2
 10
359.3597727535209
 20
-151.0799000000011
 30
0
 40
1.899999999999999
  1
DOKUMENT-NR.
 41
0.9
 51
15
  0
TEXT
  8
201
 62
2
 10
360.006714019127
 20
-129.8299000000011
 30
0
 40
1.899999999999999
  1
BENENNUNG
 41
0.9
 51
15
  0
TEXT
  8
201
 62
2
 10
344.907316173671
 20
-129.8299000000011
 30
0
 40
1.899999999999999
  1
MABSTAB
 41
0.8100000000000001
 51
15
  0
TEXT
  8
201
 62
2
 10
345.4658279593859
 20
-151.0799000000011
 30
0
 40
1.899999999999999
  1
FORMAT
 41
0.9
 51
15
  0
TEXT
  8
201
 62
2
 10
333.9517609607119
 20
-163.166615087599
 30
0
 40
1.75
  1
GEPR
 41
0.8100000000000001
 51
15
 72
1
 73
2
 11
336.7867609607119
 21
-162.291615087599
 31
0
  0
TEXT
  8
201
 62
2
 10
312.93795366958
 20
-163.059075938771
 30
0
 40
1.75
  1
ØNDERUNGSNR
 41
0.8100000000000001
 51
15
 72
1
 73
2
 11
320.73420366958
 21
-162.184075938771
 31
0
  0
TEXT
  8
201
 62
2
 10
306.753139999999
 20
-163.251672167275
 30
0
 40
1.75
  1
VERS
 41
0.5850000000000001
 51
15
 72
1
 73
2
 11
308.800639999999
 21
-162.376672167275
 31
0
  0
TEXT
  8
201
 62
2
 10
293.8674685802109
 20
-129.3666322616509
 30
0
 40
1.899999999999999
  1
NAME
 41
0.9
 51
15
  0
TEXT
  8
201
 62
2
 10
275.1123581029879
 20
-129.3666322616509
 30
0
 40
1.899999999999999
  1
DATUM
 41
0.9
 51
15
  0
TEXT
  8
201
 62
2
 10
262.0360285770169
 20
-133.55000300245
 30
0
 40
1.899999999999999
  1
BEAR.
 41
0.9
 51
15
  0
TEXT
  8
201
 62
2
 10
262.0360285770169
 20
-137.960027773981
 30
0
 40
1.899999999999999
  1
GEPR.
 41
0.9
 51
15
  0
TEXT
  8
201
 62
2
 10
262.0360285770169
 20
-142.06510270797
 30
0
 40
1.899999999999999
  1
GEN.
 41
0.9
 51
15
  0
TEXT
  8
201
 62
2
 10
267.95564
 20
-163.529899999999
 30
0
 40
1.899999999999999
  1
COPYRIGHT BY TRUMPF
 41
0.9
 72
1
 73
2
 11
284.20064
 21
-162.579899999999
 31
0
  0
TEXT
  8
1
 62
2
 10
386.0006399999988
 20
-124.3924000000011
 30
0
 40
2.5
  1

 41
0.9
 73
2
 11
386.0006399999988
 21
-123.1424000000011
 31
0
  0
TEXT
  8
1
 62
2
 10
386.0006399999988
 20
-118.017400000002
 30
0
 40
2.5
  1
TC L3020
 41
0.9
 73
2
 11
386.0006399999988
 21
-116.767400000002
 31
0
  0
TEXT
  8
1
 62
7
 10
371.5886399999988
 20
-136.092090824041
 30
0
 40
4
  1
FUNDAMENTPLAN
 41
0.6120000000000001
 72
1
 73
2
 11
387.5006399999988
 21
-134.092090824041
 31
0
  0
TEXT
  8
1
 62
7
 10
381.3806399999988
 20
-144.1560437908499
 30
0
 40
4
  1
L3020
 41
0.6120000000000001
 72
1
 73
2
 11
387.5006399999988
 21
-142.1560437908499
 31
0
  0
TEXT
  8
1
 62
7
 10
364.0106399999988
 20
-158.3299000000011
 30
0
 40
5
  1
93617-5-10.1
 41
0.7829999999999999
 72
1
 11
387.5006399999988
 21
-158.3299000000011
 31
0
  0
TEXT
  8
1
 62
7
 10
342.970639999999
 20
-138.0799000000011
 30
0
 40
5
  1
1:50
 41
0.7829999999999999
 72
1
 11
350.800639999999
 21
-138.0799000000011
 31
0
  0
TEXT
  8
1
 62
2
 10
350.800639999999
 20
-142.5799000000011
 30
0
 40
3
  1

 41
0.9
 72
1
 11
350.800639999999
 21
-142.5799000000011
 31
0
  0
TEXT
  8
1
 62
2
 10
350.800639999999
 20
-146.5799000000011
 30
0
 40
3
  1

 41
0.9
 72
1
 11
350.800639999999
 21
-146.5799000000011
 31
0
  0
TEXT
  8
201
 62
7
 10
347.650639999999
 20
-158.3299000000011
 30
0
 40
3.5
  1
A2
 41
0.9
 72
1
 11
350.800639999999
 21
-158.3299000000011
 31
0
  0
TEXT
  8
1
 62
2
 10
270.7506399999988
 20
-133.8299000000011
 30
0
 40
2
  1
12.06.2002
 41
0.9
 72
1
 11
279.7506399999988
 21
-133.8299000000011
 31
0
  0
TEXT
  8
1
 62
2
 10
291.2006399999988
 20
-133.8299000000011
 30
0
 40
2
  1
TW511wa
 41
0.9
 72
1
 11
297.5006399999988
 21
-133.8299000000011
 31
0
  0
TEXT
  8
1
 62
2
 10
292.1006399999988
 20
-138.0799000000011
 30
0
 40
2
  1
TW511b
 41
0.9
 72
1
 11
297.5006399999988
 21
-138.0799000000011
 31
0
  0
TEXT
  8
1
 62
2
 10
291.2006399999988
 20
-142.3299000000011
 30
0
 40
2
  1
TW575bh
 41
0.9
 72
1
 11
297.5006399999988
 21
-142.3299000000011
 31
0
  0
TEXT
  8
1
 62
2
 10
270.7506399999988
 20
-142.3299000000011
 30
0
 40
2
  1
26.06.2002
 41
0.9
 72
1
 11
279.7506399999988
 21
-142.3299000000011
 31
0
  0
TEXT
  8
1
 62
2
 10
270.7506399999988
 20
-138.0799000000011
 30
0
 40
2
  1
18.06.2002
 41
0.9
 72
1
 11
279.7506399999988
 21
-138.0799000000011
 31
0
  0
TEXT
  8
1
 62
7
 10
421.9756399999988
 20
-140.297547058821
 30
0
 40
3.5
  1
1222543
 41
0.9
 72
1
 11
433.0006399999988
 21
-140.297547058821
 31
0
  0
TEXT
  8
1
 62
7
 10
424.3110220386268
 20
-158.3299000000011
 30
0
 40
3.5
  1
1
 41
0.9
 72
1
 11
425.8860220386268
 21
-158.3299000000011
 31
0
  0
TEXT
  8
1
 62
7
 10
439.8110220386268
 20
-158.3299000000011
 30
0
 40
3.5
  1
1
 41
0.9
 72
1
 11
441.3860220386268
 21
-158.3299000000011
 31
0
  0
TEXT
  8
1
 62
2
 10
336.9006399999989
 20
-129.4549000000011
 30
0
 40
2
  1

 41
0.7200000000000001
 72
1
 73
2
 11
336.9006399999989
 21
-128.4549000000011
 31
0
  0
TEXT
  8
1
 62
2
 10
336.9006399999989
 20
-133.7049000000011
 30
0
 40
2
  1

 41
0.7200000000000001
 72
1
 73
2
 11
336.9006399999989
 21
-132.7049000000011
 31
0
  0
TEXT
  8
1
 62
2
 10
336.9006399999989
 20
-137.9549000000011
 30
0
 40
2
  1

 41
0.7200000000000001
 72
1
 73
2
 11
336.9006399999989
 21
-136.9549000000011
 31
0
  0
TEXT
  8
1
 62
2
 10
336.9006399999989
 20
-142.2049000000011
 30
0
 40
2
  1

 41
0.7200000000000001
 72
1
 73
2
 11
336.9006399999989
 21
-141.2049000000011
 31
0
  0
TEXT
  8
1
 62
2
 10
336.9006399999989
 20
-146.4549000000011
 30
0
 40
2
  1

 41
0.7200000000000001
 72
1
 73
2
 11
336.9006399999989
 21
-145.4549000000011
 31
0
  0
TEXT
  8
1
 62
2
 10
332.5806399999989
 20
-150.7049000000011
 30
0
 40
2
  1
TW511b
 41
0.7200000000000001
 72
1
 73
2
 11
336.9006399999989
 21
-149.7049000000011
 31
0
  0
TEXT
  8
1
 62
2
 10
332.5806399999989
 20
-154.9549000000011
 30
0
 40
2
  1
TW511b
 41
0.7200000000000001
 72
1
 73
2
 11
336.9006399999989
 21
-153.9549000000011
 31
0
  0
TEXT
  8
1
 62
2
 10
332.5806399999989
 20
-159.2049000000011
 30
0
 40
2
  1
TW511b
 41
0.7200000000000001
 72
1
 73
2
 11
336.9006399999989
 21
-158.2049000000011
 31
0
  0
TEXT
  8
201
 62
2
 10
308.080639999999
 20
-159.2049000000011
 30
0
 40
2
  1
0
 41
0.7200000000000001
 72
1
 73
2
 11
308.800639999999
 21
-158.2049000000011
 31
0
  0
TEXT
  8
201
 62
2
 10
308.080639999999
 20
-154.9549000000011
 30
0
 40
2
  1
1
 41
0.7200000000000001
 72
1
 73
2
 11
308.800639999999
 21
-153.9549000000011
 31
0
  0
TEXT
  8
201
 62
2
 10
308.080639999999
 20
-150.7049000000011
 30
0
 40
2
  1
2
 41
0.7200000000000001
 72
1
 73
2
 11
308.800639999999
 21
-149.7049000000011
 31
0
  0
TEXT
  8
201
 62
2
 10
308.800639999999
 20
-146.4549000000011
 30
0
 40
2
  1

 41
0.7200000000000001
 72
1
 73
2
 11
308.800639999999
 21
-145.4549000000011
 31
0
  0
TEXT
  8
201
 62
2
 10
308.800639999999
 20
-142.2049000000011
 30
0
 40
2
  1

 41
0.7200000000000001
 72
1
 73
2
 11
308.800639999999
 21
-141.2049000000011
 31
0
  0
TEXT
  8
201
 62
2
 10
308.800639999999
 20
-137.9549000000011
 30
0
 40
2
  1

 41
0.7200000000000001
 72
1
 73
2
 11
308.800639999999
 21
-136.9549000000011
 31
0
  0
TEXT
  8
201
 62
2
 10
308.800639999999
 20
-133.7049000000011
 30
0
 40
2
  1

 41
0.7200000000000001
 72
1
 73
2
 11
308.800639999999
 21
-132.7049000000011
 31
0
  0
TEXT
  8
201
 62
2
 10
308.800639999999
 20
-129.4549000000011
 30
0
 40
2
  1

 41
0.7200000000000001
 72
1
 73
2
 11
308.800639999999
 21
-128.4549000000011
 31
0
  0
TEXT
  8
1
 62
2
 10
311.8606399999988
 20
-159.2049000000011
 30
0
 40
2
  1
020619-511wa
 41
0.7200000000000001
 72
1
 73
2
 11
320.5006399999988
 21
-158.2049000000011
 31
0
  0
TEXT
  8
1
 62
2
 10
311.8606399999988
 20
-154.9549000000011
 30
0
 40
2
  1
020827-511wa
 41
0.7200000000000001
 72
1
 73
2
 11
320.5006399999988
 21
-153.9549000000011
 31
0
  0
TEXT
  8
1
 62
2
 10
311.8606399999988
 20
-150.7049000000011
 30
0
 40
2
  1
020830-511wa
 41
0.7200000000000001
 72
1
 73
2
 11
320.5006399999988
 21
-149.7049000000011
 31
0
  0
TEXT
  8
1
 62
2
 10
320.5006399999988
 20
-146.4549000000011
 30
0
 40
2
  1

 41
0.7200000000000001
 72
1
 73
2
 11
320.5006399999988
 21
-145.4549000000011
 31
0
  0
TEXT
  8
1
 62
2
 10
320.5006399999988
 20
-142.2049000000011
 30
0
 40
2
  1

 41
0.7200000000000001
 72
1
 73
2
 11
320.5006399999988
 21
-141.2049000000011
 31
0
  0
TEXT
  8
1
 62
2
 10
320.5006399999988
 20
-137.9549000000011
 30
0
 40
2
  1

 41
0.7200000000000001
 72
1
 73
2
 11
320.5006399999988
 21
-136.9549000000011
 31
0
  0
TEXT
  8
1
 62
2
 10
320.5006399999988
 20
-133.7049000000011
 30
0
 40
2
  1

 41
0.7200000000000001
 72
1
 73
2
 11
320.5006399999988
 21
-132.7049000000011
 31
0
  0
TEXT
  8
1
 62
2
 10
320.5006399999988
 20
-129.4549000000011
 30
0
 40
2
  1

 41
0.7200000000000001
 72
1
 73
2
 11
320.5006399999988
 21
-128.4549000000011
 31
0
  0
TEXT
  8
201
 62
2
 10
263.506714019127
 20
-117.079900000002
 30
0
 40
1.899999999999999
  1
BESCHREIBUNG
 41
0.9
 51
15
  0
INSERT
  8
0
  2
_LOGO
 10
261.0006399999988
 20
-160.3299
 30
0
  0
ENDBLK
  8
0
  0
BLOCK
  8
0
  2
_FORMAT_A2
 70
0
 10
161.50064
 20
35.42010000000005
 30
0
  0
INSERT
  8
0
  2
_RAHMENA2
 10
168.50064
 20
73.67010000000005
 30
0
  0
INSERT
  8
0
  2
_SFELD_N
 10
354.7506399999988
 20
12.92010000000005
 30
0
  0
ENDBLK
  8
0
  0
BLOCK
  8
0
  2
PALETTENSTATION
 70
0
 10
4787
 20
457.9999999999964
 30
0
  0
POINT
  8
1
 62
2
  6
DOT
 10
7412
 20
2098.000000000131
 30
0
  0
POINT
  8
1
 62
2
  6
DOT
 10
7262
 20
2098.000000000131
 30
0
  0
POINT
  8
1
 62
2
  6
DOT
 10
7262
 20
597.9999999999018
 30
0
  0
POINT
  8
1
 62
2
  6
DOT
 10
7412
 20
597.9999999999018
 30
0
  0
POINT
  8
1
 62
2
  6
DOT
 10
5652
 20
597.9999999999018
 30
0
  0
POINT
  8
1
 62
2
  6
DOT
 10
5502
 20
597.9999999999018
 30
0
  0
POINT
  8
1
 62
2
  6
DOT
 10
5652
 20
2098.000000000131
 30
0
  0
POINT
  8
1
 62
2
  6
DOT
 10
5502
 20
2098.000000000131
 30
0
  0
LINE
  8
1
 62
7
 10
4787
 20
457.9999999999965
 30
0
 11
5427
 21
457.9999999999965
 31
0
  0
LINE
  8
1
 62
7
 10
8177
 20
2238.00000000004
 30
0
 11
7487
 21
2238.00000000004
 31
0
  0
LINE
  8
1
 62
7
 10
8084.333333333328
 20
2140.000000000029
 30
0
 11
8069.666666666672
 21
2151.000000000029
 31
0
  0
LINE
  8
1
 62
7
 10
4797
 20
2153.000000000029
 30
0
 11
8063.666666666672
 21
2153.000000000029
 31
0
  0
LINE
  8
1
 62
7
 10
8177
 20
2148.000000000029
 30
0
 11
8177
 21
2238.00000000004
 31
0
  0
LINE
  8
1
 62
7
 10
4787
 20
2238.00000000004
 30
0
 11
4787
 21
2163.000000000029
 31
0
  0
LINE
  8
1
 62
7
 10
5437
 20
1988.00000000004
 30
0
 11
5717
 21
1988.00000000004
 31
0
  0
LINE
  8
1
 62
7
 10
5427
 20
1998.00000000004
 30
0
 11
5427
 21
2153.000000000029
 31
0
  0
LINE
  8
1
 62
7
 10
5727
 20
1998.00000000004
 30
0
 11
5727
 21
2153.000000000029
 31
0
  0
LINE
  8
1
 62
7
 10
7197
 20
1988.00000000004
 30
0
 11
7477
 21
1988.00000000004
 31
0
  0
LINE
  8
1
 62
7
 10
7487
 20
2153.000000000029
 30
0
 11
7487
 21
1998.00000000004
 31
0
  0
LINE
  8
1
 62
7
 10
7187
 20
2153.000000000029
 30
0
 11
7187
 21
1998.00000000004
 31
0
  0
LINE
  8
1
 62
7
 10
8063.666666666672
 20
543.0000000000073
 30
0
 11
7187
 21
543.0000000000036
 31
0
  0
LINE
  8
1
 62
7
 10
4787
 20
533.0000000000073
 30
0
 11
4787
 21
457.9999999999965
 31
0
  0
LINE
  8
1
 62
7
 10
5717
 20
707.9999999999964
 30
0
 11
5437
 21
707.9999999999964
 31
0
  0
LINE
  8
1
 62
7
 10
5427
 20
543.0000000000073
 30
0
 11
5427
 21
697.9999999999964
 31
0
  0
LINE
  8
1
 62
7
 10
5727
 20
543.0000000000036
 30
0
 11
5727
 21
697.9999999999964
 31
0
  0
LINE
  8
1
 62
7
 10
7477
 20
707.9999999999964
 30
0
 11
7197
 21
707.9999999999964
 31
0
  0
LINE
  8
1
 62
7
 10
7487
 20
697.9999999999964
 30
0
 11
7487
 21
543.0000000000074
 31
0
  0
LINE
  8
1
 62
7
 10
7187
 20
697.9999999999964
 30
0
 11
7187
 21
543.0000000000036
 31
0
  0
LINE
  8
1
 62
7
 10
8177
 20
457.9999999999965
 30
0
 11
8177.000000000014
 21
548.0000000000073
 31
0
  0
LINE
  8
1
 62
7
 10
8090.333333333328
 20
2138.000000000029
 30
0
 11
8167
 21
2138.000000000029
 31
0
  0
LINE
  8
1
 62
7
 10
8167
 20
558.0000000000073
 30
0
 11
8090.333333333328
 21
558.0000000000073
 31
0
  0
LINE
  8
1
 62
7
 10
8069.666666666672
 20
545.0000000000073
 30
0
 11
8084.333333333328
 21
556.0000000000073
 31
0
  0
LINE
  8
1
 62
2
  6
DASHED
 10
7187
 20
2153.000000000029
 30
0
 11
7187
 21
2238.00000000004
 31
0
  0
LINE
  8
1
 62
7
 10
7187
 20
2238.00000000004
 30
0
 11
5727
 21
2238.00000000004
 31
0
  0
LINE
  8
1
 62
2
  6
DASHED
 10
7487
 20
2153.000000000029
 30
0
 11
7487
 21
2238.00000000004
 31
0
  0
LINE
  8
1
 62
7
 10
7487
 20
2238.00000000004
 30
0
 11
4787
 21
2238.00000000004
 31
0
  0
LINE
  8
1
 62
7
 10
8177
 20
2238.00000000004
 30
0
 11
7187
 21
2238.00000000004
 31
0
  0
LINE
  8
1
 62
2
  6
DASHED
 10
7187
 20
543.0000000000036
 30
0
 11
7187
 21
457.9999999999965
 31
0
  0
LINE
  8
1
 62
7
 10
5727
 20
457.9999999999965
 30
0
 11
8177
 21
457.9999999999965
 31
0
  0
LINE
  8
1
 62
2
  6
DASHED
 10
7487
 20
543.0000000000074
 30
0
 11
7487
 21
457.9999999999965
 31
0
  0
LINE
  8
1
 62
2
  6
DASHED
 10
5427
 20
543.0000000000073
 30
0
 11
5427
 21
457.9999999999965
 31
0
  0
LINE
  8
1
 62
7
 10
5427
 20
457.9999999999965
 30
0
 11
5727
 21
457.9999999999965
 31
0
  0
LINE
  8
1
 62
7
 10
7187
 20
543.0000000000036
 30
0
 11
4797
 21
543.0000000000073
 31
0
  0
LINE
  8
1
 62
2
  6
DASHED
 10
5727
 20
543.0000000000036
 30
0
 11
5727
 21
457.9999999999965
 31
0
  0
LINE
  8
1
 62
7
 10
4787
 20
457.9999999999965
 30
0
 11
7187
 21
457.9999999999965
 31
0
  0
LINE
  8
1
 62
2
  6
DASHED
 10
5427
 20
2153.000000000029
 30
0
 11
5427
 21
2238.00000000004
 31
0
  0
LINE
  8
1
 62
7
 10
5427
 20
2238.00000000004
 30
0
 11
4787
 21
2238.00000000004
 31
0
  0
LINE
  8
1
 62
2
  6
DASHED
 10
5727
 20
2153.000000000029
 30
0
 11
5727
 21
2238.00000000004
 31
0
  0
LINE
  8
1
 62
7
 10
5727
 20
2238.00000000004
 30
0
 11
5427
 21
2238.00000000004
 31
0
  0
CIRCLE
  8
1
 62
7
 10
7412
 20
2098.000000000131
 30
0
 40
9
  0
CIRCLE
  8
1
 62
7
 10
7262
 20
2098.000000000131
 30
0
 40
9
  0
CIRCLE
  8
1
 62
7
 10
5652
 20
2098.000000000131
 30
0
 40
9
  0
CIRCLE
  8
1
 62
7
 10
5502
 20
2098.000000000131
 30
0
 40
9
  0
CIRCLE
  8
1
 62
7
 10
7412
 20
597.9999999999018
 30
0
 40
9
  0
CIRCLE
  8
1
 62
7
 10
7262
 20
597.9999999999018
 30
0
 40
9
  0
CIRCLE
  8
1
 62
7
 10
5652
 20
597.9999999999018
 30
0
 40
9
  0
CIRCLE
  8
1
 62
7
 10
5502
 20
597.9999999999018
 30
0
 40
9
  0
ARC
  8
1
 62
7
 10
8063.666666666672
 20
2143.000000000029
 30
0
 40
10
 50
53.13010235415598
 51
90
  0
ARC
  8
1
 62
7
 10
8090.333333333328
 20
2148.000000000029
 30
0
 40
10
 50
233.130102354156
 51
270
  0
ARC
  8
1
 62
7
 10
4797
 20
2163.000000000029
 30
0
 40
10
 50
180
 51
270
  0
ARC
  8
1
 62
7
 10
5717
 20
1998.00000000004
 30
0
 40
10
 50
270
 51
0
  0
ARC
  8
1
 62
7
 10
5437
 20
1998.00000000004
 30
0
 40
10
 50
180
 51
270
  0
ARC
  8
1
 62
7
 10
7197
 20
1998.00000000004
 30
0
 40
10
 50
180
 51
270
  0
ARC
  8
1
 62
7
 10
7477
 20
1998.00000000004
 30
0
 40
10
 50
270
 51
0
  0
ARC
  8
1
 62
7
 10
8063.666666666672
 20
553.0000000000073
 30
0
 40
10
 50
270
 51
306.8698976458441
  0
ARC
  8
1
 62
7
 10
8090.333333333328
 20
548.0000000000073
 30
0
 40
10
 50
90
 51
126.869897645844
  0
ARC
  8
1
 62
7
 10
4797
 20
533.0000000000073
 30
0
 40
10
 50
90
 51
180
  0
ARC
  8
1
 62
7
 10
5717
 20
697.9999999999964
 30
0
 40
10
 50
0
 51
90
  0
ARC
  8
1
 62
7
 10
5437
 20
697.9999999999964
 30
0
 40
10
 50
90
 51
180
  0
ARC
  8
1
 62
7
 10
7197
 20
697.9999999999964
 30
0
 40
10
 50
90
 51
180
  0
ARC
  8
1
 62
7
 10
7477
 20
697.9999999999964
 30
0
 40
10
 50
0
 51
90
  0
ARC
  8
1
 62
7
 10
8167
 20
2148.000000000029
 30
0
 40
10
 50
270
 51
0
  0
ARC
  8
1
 62
7
 10
8167
 20
548.0000000000073
 30
0
 40
10
 50
0
 51
90
  0
ENDBLK
  8
0
  0
BLOCK
  8
1
  2
*X0
 70
1
 10
0
 20
0
 30
0
  0
LINE
  8
1
 62
7
  6
DOT
 10
9025.255236027801
 20
-4268.352250279293
 30
0
 11
9055.140431556603
 21
-4238.467054750487
 31
0
  0
LINE
  8
1
 62
7
  6
DOT
 10
9025.255236027801
 20
-4551.194962753912
 30
0
 11
9337.983144031223
 21
-4238.467054750487
 31
0
  0
LINE
  8
1
 62
7
  6
DOT
 10
9025.255236027801
 20
-4834.03767522853
 30
0
 11
9620.825856505842
 21
-4238.467054750487
 31
0
  0
LINE
  8
1
 62
7
  6
DOT
 10
9025.255236027801
 20
-5116.880387703149
 30
0
 11
9903.668568980462
 21
-4238.467054750487
 31
0
  0
LINE
  8
1
 62
7
  6
DOT
 10
9025.255236027801
 20
-5399.723100177767
 30
0
 11
10186.51128145508
 21
-4238.467054750487
 31
0
  0
LINE
  8
1
 62
7
  6
DOT
 10
9269.353993929699
 20
-5438.467054750487
 30
0
 11
10375.2552360278
 21
-4332.565812652388
 31
0
  0
LINE
  8
1
 62
7
  6
DOT
 10
9552.196706404318
 20
-5438.467054750487
 30
0
 11
10375.2552360278
 21
-4615.408525127006
 31
0
  0
LINE
  8
1
 62
7
  6
DOT
 10
9835.039418878938
 20
-5438.467054750487
 30
0
 11
10375.2552360278
 21
-4898.251237601625
 31
0
  0
LINE
  8
1
 62
7
  6
DOT
 10
10117.88213135356
 20
-5438.467054750487
 30
0
 11
10375.2552360278
 21
-5181.093950076243
 31
0
  0
ENDBLK
  8
0
  0
BLOCK
  8
1
  2
*X1
 70
1
 10
0
 20
0
 30
0
  0
LINE
  8
1
 62
7
  6
DOT
 10
10375.2552360278
 20
-6312.464799974719
 30
0
 11
10449.25298125203
 21
-6238.467054750487
 31
0
  0
LINE
  8
1
 62
7
  6
DOT
 10
10375.2552360278
 20
-6595.307512449337
 30
0
 11
10732.09569372665
 21
-6238.467054750487
 31
0
  0
LINE
  8
1
 62
7
  6
DOT
 10
10534.93840620127
 20
-6718.467054750487
 30
0
 11
10775.2552360278
 21
-6478.150224923957
 31
0
  0
ENDBLK
  8
0
  0
BLOCK
  8
0
  2
KOMPAKTENTSTAUBER
 70
0
 10
188171.0559579288
 20
3586.736885260244
 30
0
  0
INSERT
  8
1
  2
*X0
 10
0
 20
0
 30
0
  0
INSERT
  8
1
  2
*X1
 10
0
 20
0
 30
0
  0
POINT
  8
1
 62
2
  6
DOT
 10
9385.255236027801
 20
-6148.467054750487
 30
0
  0
POINT
  8
1
 62
2
  6
DOT
 10
10095.2552360278
 20
-6568.467054750487
 30
0
  0
POINT
  8
1
 62
2
  6
DOT
 10
10095.2552360278
 20
-6568.467054750487
 30
0
  0
POINT
  8
1
 62
2
  6
DASHED
 10
9887.755236027801
 20
-5425.967054750487
 30
0
  0
POINT
  8
1
 62
2
  6
DASHED
 10
9887.755236027801
 20
-5425.967054750487
 30
0
  0
LINE
  8
1
 62
2
  6
DASHDOT
 10
10307.7552360278
 20
-6718.467054750487
 30
0
 11
10375.2552360278
 21
-6718.467054750487
 31
0
  0
LINE
  8
1
 62
2
  6
DASHDOT
 10
10182.7552360278
 20
-6718.467054750487
 30
0
 11
10307.7552360278
 21
-6718.467054750487
 31
0
  0
LINE
  8
1
 62
7
 10
10182.7552360278
 20
-6718.467054750487
 30
0
 11
10307.7552360278
 21
-6718.467054750487
 31
0
  0
LINE
  8
1
 62
2
  6
DASHDOT
 10
10195.2552360278
 20
-6768.467054750487
 30
0
 11
10195.2552360278
 21
-7068.467054750473
 31
0
  0
LINE
  8
1
 62
2
  6
DASHDOT
 10
9995.255236027801
 20
-6768.467054750487
 30
0
 11
9995.255236027801
 21
-7068.467054750473
 31
0
  0
LINE
  8
1
 62
2
  6
DASHDOT
 10
10195.2552360278
 20
-6768.467054750487
 30
0
 11
10195.2552360278
 21
-6718.467054750487
 31
0
  0
LINE
  8
1
 62
2
  6
DASHDOT
 10
9995.255236027801
 20
-6768.467054750487
 30
0
 11
10195.2552360278
 21
-6768.467054750487
 31
0
  0
LINE
  8
1
 62
2
  6
DASHDOT
 10
9995.255236027801
 20
-6718.467054750487
 30
0
 11
9995.255236027801
 21
-6768.467054750487
 31
0
  0
LINE
  8
1
 62
2
  6
DASHDOT
 10
10095.2552360278
 20
-6568.467054750487
 30
0
 11
10095.2552360278
 21
-7123.681773206928
 31
0
  0
LINE
  8
1
 62
2
  6
DASHDOT
 10
10340.82817785233
 20
-6418.467054750487
 30
0
 11
10408.75850622857
 21
-6418.467054750487
 31
0
  0
LINE
  8
1
 62
2
  6
DASHDOT
 10
9025.255236027801
 20
-6718.467054750487
 30
0
 11
10182.7552360278
 21
-6718.467054750487
 31
0
  0
LINE
  8
1
 62
2
  6
DASHDOT
 10
9995.255236027801
 20
-6718.467054750487
 30
0
 11
9995.255236027801
 21
-6768.467054750487
 31
0
  0
LINE
  8
1
 62
2
  6
DASHDOT
 10
10195.2552360278
 20
-6718.467054750487
 30
0
 11
10195.2552360278
 21
-6568.467054750487
 31
0
  0
LINE
  8
1
 62
2
  6
DASHDOT
 10
9059.601266104082
 20
-6568.467054750487
 30
0
 11
8989.14237735484
 21
-6568.467054750487
 31
0
  0
LINE
  8
1
 62
2
  6
DASHDOT
 10
10375.2552360278
 20
-6568.467054750487
 30
0
 11
10352.06166210358
 21
-6568.467054750487
 31
0
  0
LINE
  8
1
 62
2
  6
DASHDOT
 10
10375.2552360278
 20
-6568.467054750487
 30
0
 11
10375.2552360278
 21
-5438.467054750487
 31
0
  0
LINE
  8
1
 62
2
  6
DASHDOT
 10
10408.75850622857
 20
-6568.467054750487
 30
0
 11
10375.2552360278
 21
-6568.467054750487
 31
0
  0
LINE
  8
1
 62
2
  6
DASHDOT
 10
10375.2552360278
 20
-6718.467054750487
 30
0
 11
10375.2552360278
 21
-6568.467054750487
 31
0
  0
LINE
  8
1
 62
2
  6
DASHDOT
 10
9025.255236027801
 20
-5438.467054750487
 30
0
 11
9025.255236027801
 21
-6718.467054750487
 31
0
  0
LINE
  8
1
 62
2
  6
DASHDOT
 10
10375.2552360278
 20
-5438.467054750487
 30
0
 11
9025.255236027801
 21
-5438.467054750487
 31
0
  0
LINE
  8
1
 62
2
  6
DASHDOT
 10
10775.2552360278
 20
-6238.467054750487
 30
0
 11
10775.2552360278
 21
-6718.467054750487
 31
0
  0
LINE
  8
1
 62
2
  6
DASHDOT
 10
10375.2552360278
 20
-6238.467054750487
 30
0
 11
10775.2552360278
 21
-6238.467054750487
 31
0
  0
LINE
  8
1
 62
2
  6
DASHDOT
 10
10375.2552360278
 20
-6718.467054750487
 30
0
 11
10375.2552360278
 21
-6238.467054750487
 31
0
  0
LINE
  8
1
 62
2
  6
DASHDOT
 10
10775.2552360278
 20
-6718.467054750487
 30
0
 11
10375.2552360278
 21
-6718.467054750487
 31
0
  0
LINE
  8
1
 62
2
  6
DASHDOT
 10
10375.2552360278
 20
-5438.467054750487
 30
0
 11
10375.2552360278
 21
-4238.467054750487
 31
0
  0
LINE
  8
1
 62
2
  6
DASHDOT
 10
9025.255236027801
 20
-5438.467054750487
 30
0
 11
10375.2552360278
 21
-5438.467054750487
 31
0
  0
LINE
  8
1
 62
2
  6
DASHDOT
 10
9025.255236027801
 20
-4238.467054750487
 30
0
 11
9025.255236027801
 21
-5438.467054750487
 31
0
  0
LINE
  8
1
 62
2
  6
DASHDOT
 10
10375.2552360278
 20
-4238.467054750487
 30
0
 11
9025.255236027801
 21
-4238.467054750487
 31
0
  0
LINE
  8
1
 62
2
  6
DASHDOT
 10
9675.255236027801
 20
-6618.467054750487
 30
0
 11
9675.255236027801
 21
-5678.467054750487
 31
0
  0
LINE
  8
1
 62
2
  6
DASHDOT
 10
9095.255236027801
 20
-6618.467054750487
 30
0
 11
9675.255236027801
 21
-6618.467054750487
 31
0
  0
LINE
  8
1
 62
2
  6
DASHDOT
 10
9095.255236027801
 20
-5678.467054750487
 30
0
 11
9095.255236027801
 21
-6618.467054750487
 31
0
  0
LINE
  8
1
 62
2
  6
DASHDOT
 10
9675.255236027801
 20
-5678.467054750487
 30
0
 11
9095.255236027801
 21
-5678.467054750487
 31
0
  0
LINE
  8
1
 62
2
  6
DASHDOT
 10
10195.2552360278
 20
-6768.467054750487
 30
0
 11
10195.2552360278
 21
-6718.467054750487
 31
0
  0
LINE
  8
1
 62
2
  6
DASHDOT
 10
9995.255236027801
 20
-6768.467054750487
 30
0
 11
10195.2552360278
 21
-6768.467054750487
 31
0
  0
LINE
  8
1
 62
2
  6
DASHDOT
 10
9995.255236027801
 20
-6568.467054750487
 30
0
 11
9995.255236027801
 21
-6718.467054750487
 31
0
  0
LINE
  8
1
 62
2
  6
DASHDOT
 10
9892.330553575101
 20
-5443.042372297788
 30
0
 11
9870.6799184805
 21
-5430.542372297788
 31
0
  0
LINE
  8
1
 62
2
  6
DASHDOT
 10
10329.8305535751
 20
-4685.270143986411
 30
0
 11
9892.330553575101
 21
-5443.042372297788
 31
0
  0
LINE
  8
1
 62
2
  6
DASHDOT
 10
10308.17991848049
 20
-4672.770143986411
 30
0
 11
10329.8305535751
 21
-4685.270143986411
 31
0
  0
LINE
  8
1
 62
2
  6
DASHDOT
 10
9870.6799184805
 20
-5430.542372297788
 30
0
 11
10308.17991848049
 21
-4672.770143986411
 31
0
  0
LINE
  8
1
 62
2
  6
DASHDOT
 10
9900.255236027801
 20
-5413.467054750487
 30
0
 11
9900.255236027801
 21
-5438.467054750487
 31
0
  0
LINE
  8
1
 62
2
  6
DASHDOT
 10
9025.255236027801
 20
-5413.467054750487
 30
0
 11
9900.255236027801
 21
-5413.467054750487
 31
0
  0
LINE
  8
1
 62
2
  6
DASHDOT
 10
9025.255236027801
 20
-5438.467054750487
 30
0
 11
9025.255236027801
 21
-5413.467054750487
 31
0
  0
LINE
  8
1
 62
2
  6
DASHDOT
 10
9900.255236027801
 20
-5438.467054750487
 30
0
 11
9025.255236027801
 21
-5438.467054750487
 31
0
  0
LINE
  8
1
 62
2
  6
DASHDOT
 10
10245.2552360278
 20
-6676.597178650628
 30
0
 11
10245.2552360278
 21
-6769.199280702037
 31
0
  0
LINE
  8
1
 62
7
 10
10187.7552360278
 20
-7068.467054750473
 30
0
 11
10187.7552360278
 21
-7043.467054750487
 31
0
  0
LINE
  8
1
 62
7
 10
10302.7552360278
 20
-7068.467054750473
 30
0
 11
10302.7552360278
 21
-7238.467054750478
 31
0
  0
LINE
  8
1
 62
7
 10
10307.7552360278
 20
-6843.467054750487
 30
0
 11
10307.7552360278
 21
-6718.467054750487
 31
0
  0
LINE
  8
1
 62
7
 10
10182.7552360278
 20
-6843.467054750487
 30
0
 11
10307.7552360278
 21
-6843.467054750487
 31
0
  0
LINE
  8
1
 62
7
 10
10182.7552360278
 20
-6718.467054750487
 30
0
 11
10182.7552360278
 21
-6843.467054750487
 31
0
  0
LINE
  8
1
 62
7
 10
10302.7552360278
 20
-7043.467054750478
 30
0
 11
10302.7552360278
 21
-6843.467054750487
 31
0
  0
LINE
  8
1
 62
7
 10
10187.7552360278
 20
-7043.467054750478
 30
0
 11
10187.7552360278
 21
-6843.467054750487
 31
0
  0
LINE
  8
1
 62
2
  6
DASHDOT
 10
10302.7552360278
 20
-7043.467054750478
 30
0
 11
10204.37594867129
 21
-7043.467054750478
 31
0
  0
LINE
  8
1
 62
7
 10
10204.37594867129
 20
-7043.467054750478
 30
0
 11
10187.7552360278
 21
-7043.467054750478
 31
0
  0
LINE
  8
1
 62
2
  6
DASHDOT
 10
10187.7552360278
 20
-7043.467054750478
 30
0
 11
10302.7552360278
 21
-7043.467054750478
 31
0
  0
LINE
  8
1
 62
7
 10
10187.7552360278
 20
-7043.467054750487
 30
0
 11
10302.7552360278
 21
-7043.467054750487
 31
0
  0
LINE
  8
1
 62
7
 10
10187.7552360278
 20
-7238.467054750478
 30
0
 11
10187.7552360278
 21
-7068.467054750473
 31
0
  0
LINE
  8
1
 62
7
 10
10302.7552360278
 20
-7043.467054750487
 30
0
 11
10302.7552360278
 21
-7068.467054750473
 31
0
  0
LINE
  8
1
 62
7
 10
10302.7552360278
 20
-7313.467054750478
 30
0
 11
10187.7552360278
 21
-7313.467054750478
 31
0
  0
LINE
  8
1
 62
7
 10
10302.7552360278
 20
-7238.467054750478
 30
0
 11
10302.7552360278
 21
-7313.467054750478
 31
0
  0
LINE
  8
1
 62
7
 10
10302.7552360278
 20
-7238.467054750478
 30
0
 11
10187.7552360278
 21
-7238.467054750478
 31
0
  0
LINE
  8
1
 62
7
 10
10187.7552360278
 20
-7313.467054750478
 30
0
 11
10187.7552360278
 21
-7238.467054750478
 31
0
  0
LINE
  8
1
 62
2
  6
DASHDOT
 10
9566.990404099101
 20
-7068.467054750473
 30
0
 11
10329.35523602782
 21
-7068.467054750473
 31
0
  0
LINE
  8
1
 62
2
  6
DASHDOT
 10
10329.35523602782
 20
-7068.467054750473
 30
0
 11
10329.35523602782
 21
-7478.105691372789
 31
0
  0
ARC
  8
1
 62
2
  6
DASHDOT
 10
10095.2552360278
 20
-6568.467054750487
 30
0
 40
100
 50
0
 51
180
  0
ARC
  8
1
 62
2
  6
DASHDOT
 10
10095.2552360278
 20
-6568.467054750487
 30
0
 40
100
 50
180
 51
0
  0
ARC
  8
1
 62
2
  6
DASHDOT
 10
9887.755236027801
 20
-5425.967054750487
 30
0
 40
862.5905749543005
 50
60.83031548625824
 51
179.169684513742
  0
CIRCLE
  8
1
 62
2
  6
DASHDOT
 10
9385.255236027801
 20
-6148.467054750487
 30
0
 40
274.999999999992
  0
POLYLINE
  8
1
 62
2
  6
DASHDOT
 66
1
  0
VERTEX
  8
1
 10
9566.990404099111
 20
-7068.467054750474
 30
0
 42
0.06774275734401074
  0
VERTEX
  8
1
 10
9612.90973362936
 20
-7135.266588397368
 30
0
 42
0.05996622278364528
  0
VERTEX
  8
1
 10
9669.814740392987
 20
-7183.261984437678
 30
0
 42
0.03921679569361458
  0
VERTEX
  8
1
 10
9734.321678338969
 20
-7218.390741475061
 30
0
 42
0.01559865047949664
  0
VERTEX
  8
1
 10
9803.046801416271
 20
-7246.590358113177
 30
0
 42
-0.007206140642252302
  0
VERTEX
  8
1
 10
9872.606363573872
 20
-7273.79833295569
 30
0
 42
-0.03010961288131542
  0
VERTEX
  8
1
 10
9939.616618760738
 20
-7305.952164606253
 30
0
 42
-0.03834579446402845
  0
VERTEX
  8
1
 10
9994.755313019152
 20
-7343.622941945318
 30
0
 42
-0.01745349928210309
  0
VERTEX
  8
1
 10
10039.66849990184
 20
-7383.288096600119
 30
0
 42
0.005258802869724972
  0
VERTEX
  8
1
 10
10083.39346026918
 20
-7423.8298383696
 30
0
 42
0.02941966020722718
  0
VERTEX
  8
1
 10
10128.31355103429
 20
-7460.063654414461
 30
0
 42
0.05757596368872514
  0
VERTEX
  8
1
 10
10176.81212911029
 20
-7486.805031895408
 30
0
 42
0.08323456833535387
  0
VERTEX
  8
1
 10
10231.27255141031
 20
-7498.869457973148
 30
0
 42
0.08705787388679556
  0
VERTEX
  8
1
 10
10294.07817484747
 20
-7491.072419808386
 30
0
  0
VERTEX
  8
1
 10
10329.35523602782
 20
-7478.105691372789
 30
0
  0
SEQEND
  8
1
  0
TEXT
  8
1
 62
2
 10
10282.5904181511
 20
-7023.098242736515
 30
0
 40
75
  1
200
 50
90
 41
0.7200000000000001
  0
ENDBLK
  8
0
  0
BLOCK
  8
0
  2
FL_CHEN
 70
0
 10
82422.83211064155
 20
7461.09220704075
 30
0
  0
LINE
  8
1
 62
7
  6
DIVIDE
 10
2289.332357359192
 20
-100
 30
0
 11
500.0001469737326
 21
-100
 31
0
  0
LINE
  8
1
 62
7
  6
DIVIDE
 10
3849.999999999979
 20
-100
 30
0
 11
2749.784402537247
 21
-100
 31
0
  0
LINE
  8
1
 62
7
  6
DIVIDE
 10
3849.999999999979
 20
2800.000000000001
 30
0
 11
3849.999999999979
 21
-100
 31
0
  0
LINE
  8
1
 62
7
  6
DIVIDE
 10
500.0001469737326
 20
2800.000000000001
 30
0
 11
3849.999999999979
 21
2800.000000000001
 31
0
  0
LINE
  8
1
 62
7
  6
DIVIDE
 10
500.0001469737326
 20
-100
 30
0
 11
500.0001469737326
 21
2800.000000000001
 31
0
  0
LINE
  8
1
 62
7
  6
DIVIDE
 10
2749.784402537247
 20
-100
 30
0
 11
2289.332357359192
 21
-100
 31
0
  0
ENDBLK
  8
0
  0
BLOCK
  8
1
  2
*X2
 70
1
 10
0
 20
0
 30
0
  0
LINE
  8
1
 62
2
 10
-51.64731861072884
 20
26.13442731979421
 30
0
 11
-26.13442731978856
 21
51.64731861073166
 31
0
  0
LINE
  8
1
 62
2
 10
-55.97569814942058
 20
14.734979969237
 30
0
 11
-14.73497996923318
 21
55.97569814942157
 31
0
  0
LINE
  8
1
 62
2
 10
-57.56438110605612
 20
6.075229200735983
 30
0
 11
-6.075229200732785
 21
57.56438110605649
 31
0
  0
LINE
  8
1
 62
2
 10
-57.86790106851726
 20
-1.299358573590624
 30
0
 11
1.299358573593388
 21
57.86790106851719
 31
0
  0
LINE
  8
1
 62
2
 10
-57.34800475921905
 20
-7.850530076157888
 30
0
 11
7.850530076160396
 21
57.34800475921871
 31
0
  0
LINE
  8
1
 62
2
 10
-56.21618277746757
 20
-13.78977590627189
 30
0
 11
13.78977590627419
 21
56.21618277746703
 31
0
  0
LINE
  8
1
 62
2
 10
-54.59205544592874
 20
-19.23671638659854
 30
0
 11
19.23671638660065
 21
54.59205544592801
 31
0
  0
LINE
  8
1
 62
2
 10
-52.55059328673436
 20
-24.26632203926964
 30
0
 11
24.26632203927159
 21
52.55059328673347
 31
0
  0
LINE
  8
1
 62
2
 10
-50.13868921196799
 20
-28.92548577636873
 30
0
 11
28.92548577637055
 21
50.13868921196696
 31
0
  0
LINE
  8
1
 62
2
 10
-47.38571047912467
 20
-33.24357485539089
 30
0
 11
33.24357485539255
 21
47.38571047912349
 31
0
  0
LINE
  8
1
 62
2
 10
-44.3126557778762
 20
-37.24158796600789
 30
0
 11
37.24158796600942
 21
44.31265577787489
 31
0
  0
LINE
  8
1
 62
2
 10
-40.93037291024616
 20
-40.93037291024333
 30
0
 11
40.93037291024334
 21
40.93037291024616
 31
0
  0
LINE
  8
1
 62
2
 10
-37.24158796601095
 20
-44.31265577787359
 30
0
 11
44.31265577787359
 21
37.24158796601095
 31
0
  0
LINE
  8
1
 62
2
 10
-33.24357485539421
 20
-47.38571047912232
 30
0
 11
47.38571047912232
 21
33.24357485539419
 31
0
  0
LINE
  8
1
 62
2
 10
-28.92548577637235
 20
-50.13868921196594
 30
0
 11
50.13868921196595
 21
28.92548577637234
 31
0
  0
LINE
  8
1
 62
2
 10
-24.26632203927353
 20
-52.55059328673259
 30
0
 11
52.55059328673259
 21
24.26632203927351
 31
0
  0
LINE
  8
1
 62
2
 10
-19.23671638660272
 20
-54.59205544592727
 30
0
 11
54.59205544592727
 21
19.23671638660272
 31
0
  0
LINE
  8
1
 62
2
 10
-13.78977590627646
 20
-56.21618277746648
 30
0
 11
56.21618277746648
 21
13.78977590627645
 31
0
  0
LINE
  8
1
 62
2
 10
-7.85053007616289
 20
-57.34800475921839
 30
0
 11
57.34800475921839
 21
7.85053007616289
 31
0
  0
LINE
  8
1
 62
2
 10
-1.299358573596145
 20
-57.86790106851711
 30
0
 11
57.86790106851711
 21
1.299358573596138
 31
0
  0
LINE
  8
1
 62
2
 10
6.075229200729595
 20
-57.56438110605684
 30
0
 11
57.56438110605685
 21
-6.075229200729606
 31
0
  0
LINE
  8
1
 62
2
 10
14.73497996922936
 20
-55.97569814942256
 30
0
 11
55.97569814942256
 21
-14.73497996922937
 31
0
  0
LINE
  8
1
 62
2
 10
26.13442731978292
 20
-51.64731861073447
 30
0
 11
51.64731861073447
 21
-26.13442731978293
 31
0
  0
ENDBLK
  8
0
  0
BLOCK
  8
0
  2
L3020
 70
0
 10
-357.1411515151567
 20
35433.1426666667
 30
0
  0
INSERT
  8
1
  2
*X2
 10
0
 20
0
 30
0
  0
POINT
  8
1
 62
2
  6
DOT
 10
3446.999999999978
 20
213
 30
0
  0
POINT
  8
1
 62
2
  6
DOT
 10
866.9999999999782
 20
213
 30
0
  0
POINT
  8
1
 62
2
  6
DOT
 10
3447
 20
2482.999999999982
 30
0
  0
POINT
  8
1
 62
2
  6
DOT
 10
867
 20
2482.999999999982
 30
0
  0
LINE
  8
1
 62
7
 10
-256
 20
-19.99999999999272
 30
0
 11
4694.1
 21
-19.99999999999272
 31
0
  0
LINE
  8
1
 62
2
 10
813
 20
2404.5
 30
0
 11
813
 21
2546.5
 31
0
  0
LINE
  8
1
 62
2
 10
908
 20
2404.5
 30
0
 11
813
 21
2404.5
 31
0
  0
LINE
  8
1
 62
2
 10
908
 20
2546.5
 30
0
 11
908
 21
2404.5
 31
0
  0
LINE
  8
1
 62
2
 10
813
 20
2546.5
 30
0
 11
908
 21
2546.5
 31
0
  0
LINE
  8
1
 62
2
 10
3393
 20
2546.5
 30
0
 11
3393
 21
2404.5
 31
0
  0
LINE
  8
1
 62
2
 10
3488
 20
2546.5
 30
0
 11
3393
 21
2546.5
 31
0
  0
LINE
  8
1
 62
2
 10
3488
 20
2404.5
 30
0
 11
3488
 21
2546.5
 31
0
  0
LINE
  8
1
 62
2
 10
3393
 20
2404.5
 30
0
 11
3488
 21
2404.5
 31
0
  0
LINE
  8
1
 62
2
 10
3393
 20
149.5
 30
0
 11
3393
 21
291.5
 31
0
  0
LINE
  8
1
 62
2
 10
3488
 20
149.5
 30
0
 11
3393
 21
149.5
 31
0
  0
LINE
  8
1
 62
2
 10
3488
 20
291.5
 30
0
 11
3488
 21
149.5
 31
0
  0
LINE
  8
1
 62
2
 10
3393
 20
291.5
 30
0
 11
3488
 21
291.5
 31
0
  0
LINE
  8
1
 62
2
 10
813
 20
291.5
 30
0
 11
813
 21
149.5
 31
0
  0
LINE
  8
1
 62
2
 10
908
 20
291.5
 30
0
 11
813
 21
291.5
 31
0
  0
LINE
  8
1
 62
2
 10
908
 20
149.5
 30
0
 11
908
 21
291.5
 31
0
  0
LINE
  8
1
 62
2
 10
813
 20
149.5
 30
0
 11
908
 21
149.5
 31
0
  0
LINE
  8
1
 62
7
 10
4694.1
 20
248
 30
0
 11
4741.799999999988
 21
248
 31
0
  0
LINE
  8
1
 62
7
 10
4746.000000000015
 20
252.1999999999971
 30
0
 11
4746.000000000015
 21
2443.799999999996
 31
0
  0
LINE
  8
1
 62
7
 10
4741.799999999988
 20
2447.999999999996
 30
0
 11
4694.1
 21
2447.999999999996
 31
0
  0
LINE
  8
1
 62
7
 10
154.5
 20
496.0000000000073
 30
0
 11
154.5
 21
-19.99999999999272
 31
0
  0
LINE
  8
1
 62
7
 10
-256
 20
496.0000000000073
 30
0
 11
154.5
 21
496.0000000000073
 31
0
  0
LINE
  8
1
 62
7
 10
-256
 20
-19.99999999999272
 30
0
 11
-256
 21
496.0000000000073
 31
0
  0
LINE
  8
1
 62
7
 10
0
 20
1345.5
 30
0
 11
0
 21
1345.5
 31
0
  0
LINE
  8
1
 62
2
  6
DASHDOT
 10
-471.1359516442972
 20
1348
 30
0
 11
5202.745235678718
 21
1348
 31
0
  0
LINE
  8
1
 62
7
 10
1.455191522836685e-011
 20
1345.5
 30
0
 11
0
 21
496
 31
0
  0
LINE
  8
1
 62
7
 10
0
 20
1345.5
 30
0
 11
0
 21
1345.5
 31
0
  0
LINE
  8
1
 62
7
 10
0
 20
2963.000000000015
 30
0
 11
0
 21
1345.5
 31
0
  0
LINE
  8
1
 62
7
 10
4694.1
 20
-19.99999999999272
 30
0
 11
4694.1
 21
2963.000000000015
 31
0
  0
LINE
  8
1
 62
7
 10
4694.1
 20
2963.000000000015
 30
0
 11
-1.13686837721616e-012
 21
2963
 31
0
  0
LINE
  8
1
 62
7
 10
0
 20
2963.000000000015
 30
0
 11
-1092
 21
2963.000000000015
 31
0
  0
LINE
  8
1
 62
7
 10
-1092
 20
2963
 30
0
 11
-1092
 21
1815
 31
0
  0
LINE
  8
1
 62
7
 10
-1092
 20
1815
 30
0
 11
0
 21
1815
 31
0
  0
LINE
  8
1
 62
2
  6
DASHDOT
 10
0
 20
0
 30
0
 11
0
 21
-191.057534025378
 31
0
  0
LINE
  8
1
 62
2
  6
DASHDOT
 10
0
 20
0
 30
0
 11
154.5
 21
0
 31
0
  0
LINE
  8
1
 62
2
  6
DASHDOT
 10
-162.024721524911
 20
0
 30
0
 11
0
 21
0
 31
0
  0
LINE
  8
1
 62
2
  6
DASHDOT
 10
0
 20
152.305276356755
 30
0
 11
0
 21
0
 31
0
  0
CIRCLE
  8
1
 62
7
 10
3447
 20
2482.999999999982
 30
0
 40
9
  0
CIRCLE
  8
1
 62
7
 10
867
 20
2482.999999999982
 30
0
 40
9
  0
CIRCLE
  8
1
 62
7
 10
3446.999999999978
 20
213
 30
0
 40
9.00000000000091
  0
CIRCLE
  8
1
 62
7
 10
866.9999999999782
 20
213
 30
0
 40
9
  0
CIRCLE
  8
1
 62
7
 10
0
 20
0
 30
0
 40
57.88428848265646
  0
ARC
  8
1
 62
7
 10
4741.799999999988
 20
252.1999999999971
 30
0
 40
4.19999999999709
 50
270
 51
0
  0
ARC
  8
1
 62
7
 10
4741.799999999988
 20
2443.799999999996
 30
0
 40
4.200000000026193
 50
0
 51
90
  0
ENDBLK
  8
0
  0
BLOCK
  8
1
  2
*D0
 70
1
 10
0
 20
0
 30
0
  0
LINE
  8
1
 62
2
 10
-2932.05789397281
 20
-100
 30
0
 11
-2932.05789397281
 21
2800.000000000001
 31
0
  0
LINE
  8
1
 62
2
 10
500.0001469737322
 20
2800.000000000001
 30
0
 11
-3032.05789397281
 21
2800.000000000001
 31
0
  0
LINE
  8
1
 62
2
 10
500.0001469737322
 20
-100
 30
0
 11
-3032.05789397281
 21
-100
 31
0
  0
SOLID
  8
1
 62
2
 10
-2932.05789397281
 20
-100
 30
0
 11
-2954.80789397281
 21
75
 31
0
 12
-2909.30789397281
 22
75
 32
0
 13
-2909.30789397281
 23
75
 33
0
  0
SOLID
  8
1
 62
2
 10
-2932.05789397281
 20
2800.000000000001
 30
0
 11
-2909.30789397281
 21
2625.000000000001
 31
0
 12
-2954.80789397281
 22
2625.000000000001
 32
0
 13
-2954.80789397281
 23
2625.000000000001
 33
0
  0
TEXT
  8
1
 62
2
 10
-2982.05789397281
 20
729.70286663057
 30
0
 40
175
  1
2900
 50
90
 41
0.9
  0
TEXT
  8
1
 62
2
 10
-3017.05789397281
 20
1394.70286663057
 30
0
 40
105
  1
%%p50
 50
90
 41
0.9
  0
ENDBLK
  8
0
  0
BLOCK
  8
1
  2
*D1
 70
1
 10
0
 20
0
 30
0
  0
LINE
  8
1
 62
2
 10
-2316.08857528364
 20
-100
 30
0
 11
-2316.08857528364
 21
-1379.85349341858
 31
0
  0
LINE
  8
1
 62
2
 10
-2316.08857528364
 20
-100
 30
0
 11
-2316.08857528364
 21
0
 31
0
  0
LINE
  8
1
 62
2
 10
-2316.08857528364
 20
350
 30
0
 11
-2316.08857528364
 21
0
 31
0
  0
LINE
  8
1
 62
2
 10
0
 20
0
 30
0
 11
-2416.08857528364
 21
0
 31
0
  0
LINE
  8
1
 62
2
 10
500.0001469737322
 20
-100
 30
0
 11
-2416.08857528364
 21
-100
 31
0
  0
SOLID
  8
1
 62
2
 10
-2316.08857528364
 20
0
 30
0
 11
-2338.83857528364
 21
175
 31
0
 12
-2293.33857528364
 22
175
 32
0
 13
-2293.33857528364
 23
175
 33
0
  0
SOLID
  8
1
 62
2
 10
-2316.08857528364
 20
-100
 30
0
 11
-2293.33857528364
 21
-275
 31
0
 12
-2338.83857528364
 22
-275
 32
0
 13
-2338.83857528364
 23
-275
 33
0
  0
TEXT
  8
1
 62
2
 10
-2366.08857528364
 20
-1379.85349341858
 30
0
 40
175
  1
100
 50
90
 41
0.9
  0
TEXT
  8
1
 62
2
 10
-2401.08857528364
 20
-924.85349341858
 30
0
 40
105
  1
%%p50
 50
90
 41
0.9
  0
ENDBLK
  8
0
  0
BLOCK
  8
1
  2
*D2
 70
1
 10
0
 20
0
 30
0
  0
LINE
  8
1
 62
2
 10
500.0001469737326
 20
4123.342114825109
 30
0
 11
3849.999999999979
 21
4123.342114825109
 31
0
  0
LINE
  8
1
 62
2
 10
3849.999999999979
 20
2800.000000000001
 30
0
 11
3849.999999999979
 21
4223.342114825109
 31
0
  0
LINE
  8
1
 62
2
 10
500.0001469737326
 20
2800.000000000001
 30
0
 11
500.0001469737326
 21
4223.342114825109
 31
0
  0
SOLID
  8
1
 62
2
 10
500.0001469737326
 20
4123.342114825109
 30
0
 11
675.0001469737326
 21
4146.092114825109
 31
0
 12
675.0001469737326
 22
4100.592114825109
 32
0
 13
675.0001469737326
 23
4100.592114825109
 33
0
  0
SOLID
  8
1
 62
2
 10
3849.999999999979
 20
4123.342114825109
 30
0
 11
3674.999999999979
 21
4100.592114825109
 31
0
 12
3674.999999999979
 22
4146.092114825109
 32
0
 13
3674.999999999979
 23
4146.092114825109
 33
0
  0
TEXT
  8
1
 62
2
 10
904.2996284149699
 20
4179.92265891074
 30
0
 40
175
  1
3350
 41
0.9
  0
TEXT
  8
1
 62
2
 10
1569.29962841497
 20
4214.92265891074
 30
0
 40
105
  1
%%p50
 41
0.9
  0
ENDBLK
  8
0
  0
BLOCK
  8
1
  2
*D3
 70
1
 10
0
 20
0
 30
0
  0
LINE
  8
1
 62
2
 10
0
 20
4123.342114825109
 30
0
 11
-1027.369227780064
 21
4123.342114825109
 31
0
  0
LINE
  8
1
 62
2
 10
0
 20
4123.342114825109
 30
0
 11
500.0001469737329
 21
4123.342114825109
 31
0
  0
LINE
  8
1
 62
2
 10
500.0001469737329
 20
2800.000000000001
 30
0
 11
500.0001469737329
 21
4223.342114825109
 31
0
  0
LINE
  8
1
 62
2
 10
0
 20
0
 30
0
 11
0
 21
4223.342114825109
 31
0
  0
SOLID
  8
1
 62
2
 10
0
 20
4123.342114825109
 30
0
 11
175
 21
4146.092114825109
 31
0
 12
175
 22
4100.592114825109
 32
0
 13
175
 23
4100.592114825109
 33
0
  0
SOLID
  8
1
 62
2
 10
500.0001469737329
 20
4123.342114825109
 30
0
 11
325.0001469737329
 21
4100.592114825109
 31
0
 12
325.0001469737329
 22
4146.092114825109
 32
0
 13
325.0001469737329
 23
4146.092114825109
 33
0
  0
TEXT
  8
1
 62
2
 10
-1027.369227780064
 20
4173.342114825109
 30
0
 40
175
  1
500
 41
0.9
  0
TEXT
  8
1
 62
2
 10
-519.8692277800642
 20
4208.342114825109
 30
0
 40
105
  1
%%p50
 41
0.9
  0
ENDBLK
  8
0
  0
BLOCK
  8
1
  2
*D4
 70
1
 10
0
 20
0
 30
0
  0
LINE
  8
1
 62
2
 10
3446.999999999977
 20
213
 30
0
 11
-1494.44906322992
 21
213
 31
0
  0
TEXT
  8
1
 62
2
 10
-1961.94906322992
 20
125.5
 30
0
 40
175
  1
213
 41
0.9
  0
ENDBLK
  8
0
  0
BLOCK
  8
1
  2
*D5
 70
1
 10
0
 20
0
 30
0
  0
LINE
  8
1
 62
2
 10
3447
 20
2482.999999999982
 30
0
 11
-1494.44906322992
 21
2482.999999999982
 31
0
  0
TEXT
  8
1
 62
2
 10
-2171.94906322992
 20
2395.499999999982
 30
0
 40
175
  1
2483
 41
0.9
  0
ENDBLK
  8
0
  0
BLOCK
  8
1
  2
*D6
 70
1
 10
0
 20
0
 30
0
  0
LINE
  8
1
 62
2
 10
3447
 20
2482.999999999982
 30
0
 11
3447
 21
-610.420118646749
 31
0
  0
TEXT
  8
1
 62
2
 10
3534.5
 20
-1287.920118646749
 30
0
 40
175
  1
3447
 50
90
 41
0.9
  0
ENDBLK
  8
0
  0
BLOCK
  8
1
  2
*D7
 70
1
 10
0
 20
0
 30
0
  0
LINE
  8
1
 62
2
 10
0
 20
152.3052763567548
 30
0
 11
0
 21
5445.49028897694
 31
0
  0
TEXT
  8
1
 62
2
 10
88.62933788036784
 20
5545.49028897694
 30
0
 40
175
  1
0
 50
90
 41
0.9
  0
ENDBLK
  8
0
  0
BLOCK
  8
1
  2
*D8
 70
1
 10
0
 20
0
 30
0
  0
LINE
  8
1
 62
2
 10
-162.024721524911
 20
0
 30
0
 11
-3319.04858481987
 21
0
 31
0
  0
TEXT
  8
1
 62
2
 10
-3524.04858481987
 20
-105.8748770161372
 30
0
 40
175
  1
0
 41
0.9
  0
ENDBLK
  8
0
  0
BLOCK
  8
1
  2
*D9
 70
1
 10
0
 20
0
 30
0
  0
LINE
  8
1
 62
2
 10
154.5
 20
0
 30
0
 11
10218.0243579139
 21
0
 31
0
  0
TEXT
  8
1
 62
2
 10
10318.0243579139
 20
-114.7331941721781
 30
0
 40
175
  1
0
 41
0.9
  0
ENDBLK
  8
0
  0
BLOCK
  8
1
  2
*D10
 70
1
 10
0
 20
0
 30
0
  0
LINE
  8
1
 62
2
 10
5502
 20
597.9999999999018
 30
0
 11
8625.62555629624
 21
597.9999999999018
 31
0
  0
TEXT
  8
1
 62
2
 10
8725.62555629624
 20
510.4999999999018
 30
0
 40
175
  1
598
 41
0.9
  0
ENDBLK
  8
0
  0
BLOCK
  8
1
  2
*D11
 70
1
 10
0
 20
0
 30
0
  0
LINE
  8
1
 62
2
 10
5502
 20
2098.000000000131
 30
0
 11
8625.62555629624
 21
2098.000000000131
 31
0
  0
TEXT
  8
1
 62
2
 10
8725.62555629624
 20
2021.95269112771
 30
0
 40
175
  1
2098
 41
0.9
  0
ENDBLK
  8
0
  0
BLOCK
  8
1
  2
*D12
 70
1
 10
0
 20
0
 30
0
  0
LINE
  8
1
 62
2
 10
0
 20
152.305276356755
 30
0
 11
0
 21
-648.084375097042
 31
0
  0
TEXT
  8
1
 62
2
 10
87.5
 20
-853.084375097042
 30
0
 40
175
  1
0
 50
90
 41
0.9
  0
ENDBLK
  8
0
  0
BLOCK
  8
1
  2
*D13
 70
1
 10
0
 20
0
 30
0
  0
LINE
  8
1
 62
2
 10
7412
 20
2098.000000000131
 30
0
 11
7412
 21
-648.0843750970421
 31
0
  0
TEXT
  8
1
 62
2
 10
7564.067180393231
 20
-1260.865514073588
 30
0
 40
175
  1
7412
 50
90
 41
0.9
  0
ENDBLK
  8
0
  0
BLOCK
  8
1
  2
*D14
 70
1
 10
0
 20
0
 30
0
  0
LINE
  8
1
 62
2
 10
7262
 20
2098.000000000131
 30
0
 11
7262
 21
-648.0843750970421
 31
0
  0
TEXT
  8
1
 62
2
 10
7288.54152138727
 20
-1309.69958448391
 30
0
 40
175
  1
7262
 50
90
 41
0.9
  0
ENDBLK
  8
0
  0
BLOCK
  8
1
  2
*D15
 70
1
 10
0
 20
0
 30
0
  0
LINE
  8
1
 62
2
 10
5652
 20
2098.000000000131
 30
0
 11
5652
 21
-648.0843750970421
 31
0
  0
TEXT
  8
1
 62
2
 10
5816.06013063414
 20
-1318.73321264804
 30
0
 40
175
  1
5652
 50
90
 41
0.9
  0
ENDBLK
  8
0
  0
BLOCK
  8
1
  2
*D16
 70
1
 10
0
 20
0
 30
0
  0
LINE
  8
1
 62
2
 10
5502
 20
2098.000000000131
 30
0
 11
5502
 21
-648.0843750970421
 31
0
  0
TEXT
  8
1
 62
2
 10
5540.53447162818
 20
-1323.25002673011
 30
0
 40
175
  1
5502
 50
90
 41
0.9
  0
ENDBLK
  8
0
  0
BLOCK
  8
1
  2
*D17
 70
1
 10
0
 20
0
 30
0
  0
LINE
  8
1
 62
2
 10
867
 20
2482.999999999982
 30
0
 11
867
 21
-648.0843750970421
 31
0
  0
TEXT
  8
1
 62
2
 10
954.5
 20
-1168.084375097042
 30
0
 40
175
  1
867
 50
90
 41
0.9
  0
ENDBLK
  8
0
  0
BLOCK
  8
0
  2
FPLAN
 70
0
 10
61687.97418118446
 20
26774.2676724551
 30
0
  0
LINE
  8
1
 62
2
 10
-2867.073788138082
 20
-4726.57941158568
 30
0
 11
-2867.073788138082
 21
-3401.24605888642
 31
0
  0
LINE
  8
1
 62
2
 10
1435.99220759691
 20
-4726.57941158568
 30
0
 11
-2867.073788138082
 21
-4726.57941158568
 31
0
  0
LINE
  8
1
 62
2
 10
1435.992207596909
 20
-3401.246058886421
 30
0
 11
1435.99220759691
 21
-4726.57941158568
 31
0
  0
LINE
  8
1
 62
2
 10
-2867.073788138082
 20
-3401.24605888642
 30
0
 11
1435.992207596909
 21
-3401.246058886421
 31
0
  0
LINE
  8
1
 62
2
 10
3063.841080571759
 20
-100
 30
0
 11
1435.992207596909
 21
-3401.246058886421
 31
0
  0
LINE
  8
1
 62
2
 10
5652
 20
2098.000000000131
 30
0
 11
8610.94086826346
 21
6805.946126967801
 31
0
  0
LINE
  8
1
 62
2
 10
-749.2213622016861
 20
6793.194903330461
 30
0
 11
867
 21
2482.999999999982
 31
0
  0
LINE
  8
1
 62
2
 10
866.9999999999782
 20
212.9999999999999
 30
0
 11
-749.2213622016861
 21
6793.194903330461
 31
0
  0
LINE
  8
1
 62
2
 10
255.7419296101705
 20
8640.7120676783
 30
0
 11
3446.999999999979
 21
213
 31
0
  0
LINE
  8
1
 62
2
 10
3447
 20
2482.999999999982
 30
0
 11
255.7419296101705
 21
8640.7120676783
 31
0
  0
LINE
  8
1
 62
2
 10
15063.5926980373
 20
5650.046051491599
 30
0
 11
19219.7798150795
 21
5650.046051491599
 31
0
  0
LINE
  8
1
 62
7
 10
21333.1249556013
 20
7162.830011178672
 30
0
 11
21333.1249556013
 21
7212.830011178672
 31
0
  0
LINE
  8
1
 62
7
 10
19763.160264367
 20
7162.830011178672
 30
0
 11
19763.160264367
 21
9206.991932304089
 31
0
  0
LINE
  8
1
 62
7
 10
18550.18389755479
 20
7162.830011178672
 30
0
 11
18550.18389755479
 21
9206.991932304089
 31
0
  0
LINE
  8
1
 62
7
 10
12765.370660137
 20
7162.830011178672
 30
0
 11
12765.370660137
 21
8210.602142504609
 31
0
  0
LINE
  8
1
 62
7
 10
17571.31010091879
 20
7162.830011178672
 30
0
 11
17571.31010091879
 21
9206.991932304089
 31
0
  0
LINE
  8
1
 62
7
 10
19763.160264367
 20
9206.991932304089
 30
0
 11
19763.160264367
 21
11024.96958579313
 31
0
  0
LINE
  8
1
 62
7
 10
12765.370660137
 20
8210.602142504609
 30
0
 11
12765.370660137
 21
10324.15933888227
 31
0
  0
LINE
  8
1
 62
7
 10
12765.370660137
 20
11024.96958579313
 30
0
 11
12765.370660137
 21
9206.991932304089
 31
0
  0
LINE
  8
1
 62
7
 10
21333.1249556013
 20
11024.96958579313
 30
0
 11
12765.370660137
 21
11024.96958579313
 31
0
  0
LINE
  8
1
 62
7
 10
12765.370660137
 20
9206.991932304089
 30
0
 11
21333.1249556013
 21
9206.991932304089
 31
0
  0
LINE
  8
1
 62
7
 10
21333.1249556013
 20
9206.991932304089
 30
0
 11
21333.1249556013
 21
11024.96958579313
 31
0
  0
LINE
  8
1
 62
7
 10
12765.370660137
 20
8210.747608961679
 30
0
 11
21333.1249556013
 21
8210.747608961679
 31
0
  0
LINE
  8
1
 62
7
 10
12765.370660137
 20
7162.830011178672
 30
0
 11
21333.1249556013
 21
7162.830011178672
 31
0
  0
LINE
  8
1
 62
7
 10
21333.1249556013
 20
7162.830011178672
 30
0
 11
21333.1249556013
 21
8210.747608961679
 31
0
  0
LINE
  8
1
 62
7
 10
21333.1249556013
 20
8210.602142504609
 30
0
 11
21333.1249556013
 21
10324.15933888227
 31
0
  0
LINE
  8
1
 62
7
 10
18550.18389755479
 20
9206.991932304089
 30
0
 11
18550.18389755479
 21
11024.96958579313
 31
0
  0
LINE
  8
1
 62
7
 10
17571.31010091879
 20
9206.991932304089
 30
0
 11
17571.31010091879
 21
11024.96958579313
 31
0
  0
LINE
  8
1
 62
2
 10
12765.370660137
 20
11184.00848245823
 30
0
 11
17903.1401639514
 21
11184.00848245823
 31
0
  0
LINE
  8
1
 62
7
 10
15063.5926980373
 20
4928.992457584394
 30
0
 11
21333.1249556013
 21
4928.992457584394
 31
0
  0
LINE
  8
1
 62
7
 10
15063.5926980373
 20
4928.992457584394
 30
0
 11
15063.5926980373
 21
4084.938433223854
 31
0
  0
LINE
  8
1
 62
7
 10
15063.5926980373
 20
4084.938433223854
 30
0
 11
21333.1249556013
 21
4084.938433223854
 31
0
  0
LINE
  8
1
 62
7
 10
15063.5926980373
 20
4084.938433223854
 30
0
 11
15063.5926980373
 21
3184.47049312506
 31
0
  0
LINE
  8
1
 62
7
 10
15063.5926980373
 20
3184.47049312506
 30
0
 11
21333.1249556013
 21
3184.470493125059
 31
0
  0
LINE
  8
1
 62
7
 10
19464.80740826451
 20
4084.938433223854
 30
0
 11
19464.80740826451
 21
4928.992457584394
 31
0
  0
LINE
  8
1
 62
7
 10
19464.80740826451
 20
3184.47049312506
 30
0
 11
19464.80740826451
 21
4084.938433223854
 31
0
  0
LINE
  8
1
 62
7
 10
21333.1249556013
 20
4928.992457584394
 30
0
 11
21333.1249556013
 21
3184.470493125059
 31
0
  0
LINE
  8
1
 62
2
 10
4493.777485019551
 20
6847.537096336332
 30
0
 11
5399.458092193431
 21
2692.999999999894
 31
0
  0
LINE
  8
1
 62
2
 10
9317.782775796331
 20
1390.68214374122
 30
0
 11
8625.62555629624
 21
1390.68214374122
 31
0
  0
LINE
  8
1
 62
2
 10
8625.62555629624
 20
1390.68214374122
 30
0
 11
7477
 21
1988.00000000004
 31
0
  0
LINE
  8
1
 62
2
 10
2332.773418475983
 20
-706.0355617019569
 30
0
 11
1587.42373085254
 21
-706.0355617019569
 31
0
  0
LINE
  8
1
 62
2
 10
1587.42373085254
 20
-706.0355617019569
 30
0
 11
866.9999999999782
 21
212.9999999999999
 31
0
  0
TEXT
  8
1
 62
2
 10
-2701.10520797068
 20
-4340.188004248808
 30
0
 40
150
  1
La surface ne doit pas comporter de joints
 41
0.7200000000000001
  0
TEXT
  8
1
 62
2
 10
-2701.10520797068
 20
-4610.188004248808
 30
0
 40
150
  1
de dilatation
 41
0.7200000000000001
  0
TEXT
  8
1
 62
2
 10
-2701.10520797068
 20
-3958.254473970706
 30
0
 40
150
  1
No expansion joints permitted in this area
 41
0.7200000000000001
  0
TEXT
  8
1
 62
2
 10
15053.5612945203
 20
121.082931094757
 30
0
 40
175
  1
GÏltig nur in Verbindung mit
 41
0.63
  0
TEXT
  8
1
 62
2
 10
15053.5612945203
 20
-176.417068905243
 30
0
 40
175
  1
Aufstellungsbedingungen            TC L3020: 93617-5-20
 41
0.63
  0
TEXT
  8
1
 62
2
 10
15053.5612945203
 20
-473.917068905243
 30
0
 40
175
  1
 
 41
0.63
  0
TEXT
  8
1
 62
2
 10
15053.5612945203
 20
-771.417068905243
 30
0
 40
175
  1
Applicable only in conjunction
 41
0.63
  0
TEXT
  8
1
 62
2
 10
15053.5612945203
 20
-1068.917068905243
 30
0
 40
175
  1
with Installation specifications   TC L3020: 93617-5-20E
 41
0.63
  0
TEXT
  8
1
 62
2
 10
15053.5612945203
 20
-1366.417068905243
 30
0
 40
175
  1
 
 41
0.63
  0
TEXT
  8
1
 62
2
 10
15053.5612945203
 20
-1663.917068905243
 30
0
 40
175
  1
Valable uniquement avec
 41
0.63
  0
TEXT
  8
1
 62
2
 10
15053.5612945203
 20
-1961.417068905243
 30
0
 40
175
  1
le spÅcifications d'implantation   TC L3020: 93617-5-20F
 41
0.63
  0
TEXT
  8
1
 62
2
 10
5169.867286397126
 20
-6955.925451595602
 30
0
 40
150
  1
DÏbel     S10 50110 Id.Nr.023000
 41
0.63
  0
TEXT
  8
1
 62
2
 10
5169.867286397126
 20
-7180.925451595602
 30
0
 40
150
  1
Dowels    S10 50110 Id.No.023000
 41
0.63
  0
TEXT
  8
1
 62
2
 10
5169.867286397126
 20
-7405.925451595602
 30
0
 40
150
  1
Chevilles S10 50110 No.ref.023000
 41
0.63
  0
TEXT
  8
1
 62
2
 10
5169.867286397126
 20
-6146.439755167681
 30
0
 40
150
  1
Bohrung Ö10 / 70 tief
 41
0.63
  0
TEXT
  8
1
 62
2
 10
5169.867286397126
 20
-6371.439755167681
 30
0
 40
150
  1
Drilled Ö10 / 70 deep
 41
0.63
  0
TEXT
  8
1
 62
2
 10
5169.867286397126
 20
-6596.439755167681
 30
0
 40
150
  1
Percage Ö10 / 70 de profondeur
 41
0.63
  0
TEXT
  8
1
 62
7
 10
5168.164317624516
 20
-5148.197247815302
 30
0
 40
175
  1
Kabelkanal
 41
0.7200000000000001
  0
TEXT
  8
1
 62
7
 10
5168.164317624516
 20
-5428.197247815302
 30
0
 40
175
  1
Cable duct
 41
0.7200000000000001
  0
TEXT
  8
1
 62
7
 10
5168.164317624516
 20
-5708.197247815302
 30
0
 40
175
  1
Caniveau de cÀbles
 41
0.7200000000000001
  0
TEXT
  8
1
 62
2
 10
5157.783349718336
 20
-4885.33332527307
 30
0
 40
150
  1
[20]
 41
0.7200000000000001
  0
TEXT
  8
1
 62
2
 10
-4892.119323114031
 20
7439.595402429321
 30
0
 40
150
  1
Maschinenanker      GP37+TW16/21 Id.Nr.450153
 41
0.63
  0
TEXT
  8
1
 62
2
 10
-4892.119323114031
 20
7214.595402429321
 30
0
 40
150
  1
Holding Bolt        GP37+TW16/21 Id.No.450153
 41
0.63
  0
TEXT
  8
1
 62
2
 10
-4892.119323114031
 20
6989.595402429321
 30
0
 40
150
  1
Boulon d'assemblage GP37+TW16/21 No rÅf 450153
 41
0.63
  0
TEXT
  8
1
 62
2
 10
14698.2587738989
 20
-4645.533045154589
 30
0
 40
175
  1
[  ]
 41
0.7200000000000001
  0
TEXT
  8
1
 62
2
 10
15181.19470894731
 20
-4632.784379548159
 30
0
 40
175
  1
Nummerierung fÏr Fremdsprachencode
 41
0.7200000000000001
  0
TEXT
  8
1
 62
2
 10
15181.19470894731
 20
-4807.784379548159
 30
0
 40
175
  1
 
 41
0.7200000000000001
  0
TEXT
  8
1
 62
2
 10
15181.19470894731
 20
-4982.784379548159
 30
0
 40
175
  1
Language code
 41
0.7200000000000001
  0
TEXT
  8
1
 62
2
 10
15181.19470894731
 20
-5157.784379548159
 30
0
 40
175
  1
 
 41
0.7200000000000001
  0
TEXT
  8
1
 62
2
 10
15181.19470894731
 20
-5332.784379548159
 30
0
 40
175
  1
Code des langues
 41
0.7200000000000001
  0
TEXT
  8
1
 62
2
 10
18885.27704861119
 20
7861.77735937609
 30
0
 40
150
  1
 4
 41
0.7200000000000001
  0
TEXT
  8
1
 62
2
 10
15002.6034518278
 20
1833.764184867033
 30
0
 40
175
  1
Alle nicht tolerierten KoordinatenmaBe %%p1
 41
0.7200000000000001
  0
TEXT
  8
1
 62
2
 10
15002.6034518278
 20
1518.764184867033
 30
0
 40
175
  1
%%p1 for all coordinates without tolerance indication
 41
0.7200000000000001
  0
TEXT
  8
1
 62
2
 10
15002.6034518278
 20
1203.764184867033
 30
0
 40
175
  1
%%p1 pour toutes les coordonnees sans indication de tolÅrance
 41
0.7200000000000001
  0
TEXT
  8
1
 62
7
 10
-4943.950968069971
 20
10089.39129779005
 30
0
 40
175
  1
Machine de base
 41
0.7200000000000001
  0
TEXT
  8
1
 62
7
 10
-4943.950968069971
 20
10403.20009235596
 30
0
 40
175
  1
Basic machine
 41
0.7200000000000001
  0
TEXT
  8
1
 62
2
 10
13016.93001258618
 20
8947.199474151901
 30
0
 40
150
  1
Grundmaschine mit Palette und max.WerkstÏck
 41
0.7200000000000001
  0
TEXT
  8
1
 62
2
 10
13016.93001258618
 20
8647.199474151901
 30
0
 40
150
  1
Basic machine with pallet an max.workpiece
 41
0.7200000000000001
  0
TEXT
  8
1
 62
2
 10
13016.93001258618
 20
8347.199474151901
 30
0
 40
150
  1
Machine de base avec palette et piÉce usine
 41
0.7200000000000001
  0
TEXT
  8
1
 62
2
 10
20066.1574725124
 20
9665.673643350179
 30
0
 40
150
  1
 surface
 41
0.7200000000000001
  0
TEXT
  8
1
 62
2
 10
19694.6385888109
 20
10188.62322349272
 30
0
 40
150
  1
      Area
 41
0.7200000000000001
  0
TEXT
  8
1
 62
2
 10
18764.23010256969
 20
9640.038673024908
 30
0
 40
150
  1
charge
 41
0.7200000000000001
  0
TEXT
  8
1
 62
2
 10
18824.23010256969
 20
10162.98825316746
 30
0
 40
150
  1
Load
 41
0.7200000000000001
  0
TEXT
  8
1
 62
2
 10
12969.66309904719
 20
9640.038673024908
 30
0
 40
150
  1
Fondation
 41
0.7200000000000001
  0
TEXT
  8
1
 62
2
 10
12969.66309904719
 20
10162.98825316746
 30
0
 40
150
  1
Foundation
 41
0.7200000000000001
  0
TEXT
  8
1
 62
2
 10
12969.66309904719
 20
10690.82439622136
 30
0
 40
150
  1
Fundament
 41
0.7200000000000001
  0
TEXT
  8
1
 62
2
 10
17696.31010091879
 20
10781.40828241921
 30
0
 40
150
  1
 Last
 41
0.7200000000000001
  0
TEXT
  8
1
 62
2
 10
17696.31010091879
 20
10571.40828241921
 30
0
 40
150
  1
punkte
 41
0.7200000000000001
  0
TEXT
  8
1
 62
2
 10
17696.31010091879
 20
10361.40828241921
 30
0
 40
150
  1
 
 41
0.7200000000000001
  0
TEXT
  8
1
 62
2
 10
17696.31010091879
 20
10151.40828241921
 30
0
 40
150
  1
Support
 41
0.7200000000000001
  0
TEXT
  8
1
 62
2
 10
17696.31010091879
 20
9941.408282419208
 30
0
 40
150
  1
points
 41
0.7200000000000001
  0
TEXT
  8
1
 62
2
 10
17696.31010091879
 20
9731.408282419208
 30
0
 40
150
  1
 
 41
0.7200000000000001
  0
TEXT
  8
1
 62
2
 10
17696.31010091879
 20
9521.408282419208
 30
0
 40
150
  1
pts de
 41
0.7200000000000001
  0
TEXT
  8
1
 62
2
 10
17696.31010091879
 20
9311.408282419208
 30
0
 40
150
  1
charge
 41
0.7200000000000001
  0
TEXT
  8
1
 62
2
 10
18945.27704861119
 20
9305.352428519909
 30
0
 40
150
  1
kN
 41
0.7200000000000001
  0
TEXT
  8
1
 62
2
 10
18535.27704861119
 20
10691.45936654661
 30
0
 40
150
  1
 Belastung
 41
0.7200000000000001
  0
TEXT
  8
1
 62
2
 10
20206.05998867928
 20
10691.45936654661
 30
0
 40
150
  1
FlÌche
 41
0.7200000000000001
  0
TEXT
  8
1
 62
2
 10
20149.77046243729
 20
9305.352428519909
 30
0
 40
150
  1
X x Y mm
 41
0.7200000000000001
  0
TEXT
  8
1
 62
2
 10
17721.86270416169
 20
8644.139235045848
 30
0
 40
150
  1
M1
 41
0.7200000000000001
  0
TEXT
  8
1
 62
2
 10
17982.7427067356
 20
8644.139235045848
 30
0
 40
150
  1
(4x)
 41
0.7200000000000001
  0
TEXT
  8
1
 62
2
 10
18945.27704861119
 20
8643.709187916109
 30
0
 40
150
  1
27
 41
0.7200000000000001
  0
TEXT
  8
1
 62
2
 10
19994.13794688229
 20
8643.709187916109
 30
0
 40
150
  1
je 140x95
 41
0.7200000000000001
  0
TEXT
  8
1
 62
2
 10
17982.7427067356
 20
7850.3805732404
 30
0
 40
150
  1
(4x)
 41
0.7200000000000001
  0
TEXT
  8
1
 62
2
 10
17721.49134909639
 20
7850.11035815192
 30
0
 40
125
  1
P1
 41
0.7200000000000001
  0
TEXT
  8
1
 62
2
 10
19994.13794688229
 20
7853.94041734104
 30
0
 40
150
  1
je 300x250
 41
0.7200000000000001
  0
TEXT
  8
1
 62
7
 10
-4943.950968069971
 20
10728.30272182858
 30
0
 40
175
  1
Grundmaschine
 41
0.7200000000000001
  0
TEXT
  8
1
 62
2
 10
-2701.10520797068
 20
-3631.200399843776
 30
0
 40
150
  1
FlÌche darf keine Dehnfuge haben
 41
0.7200000000000001
  0
TEXT
  8
1
 62
2
 10
12648.68817432219
 20
11236.2754366716
 30
0
 40
175
  1
  Gewichtsbelastung / Loads / Poids admissible
 41
0.7200000000000001
  0
TEXT
  8
1
 62
2
 10
14655.79828349874
 20
87.17998873261752
 30
0
 40
175
  1
[4]
 41
0.7200000000000001
  0
TEXT
  8
1
 62
2
 10
-2705.016744695037
 20
-3285.715271155861
 30
0
 40
150
  1
[21]
 41
0.7200000000000001
  0
TEXT
  8
1
 62
2
 10
-4910.056516877133
 20
11066.890991075
 30
0
 40
150
  1
[12]
 41
0.7200000000000001
  0
TEXT
  8
1
 62
2
 10
12315.08501150129
 20
11229.62775201686
 30
0
 40
175
  1
[8]
 41
0.7200000000000001
  0
TEXT
  8
1
 62
2
 10
14577.9948354463
 20
1831.684174500995
 30
0
 40
175
  1
[5]
 41
0.7200000000000001
  0
TEXT
  8
1
 62
2
 10
-4894.057241362291
 20
9677.04942470567
 30
0
 40
150
  1
Bohrung Ö18 / 125 tief
 41
0.63
  0
TEXT
  8
1
 62
2
 10
-4894.057241362291
 20
9452.04942470567
 30
0
 40
150
  1
Drilled Ö18 / 125 deep
 41
0.63
  0
TEXT
  8
1
 62
2
 10
-4894.057241362291
 20
9227.04942470567
 30
0
 40
150
  1
Percage Ö18 / 125 de profondeur
 41
0.63
  0
TEXT
  8
1
 62
2
 10
-4894.057241362291
 20
8867.56372827775
 30
0
 40
150
  1
Maschinenankerpaar  GN35+TW16/21 Id.Nr. 098223
 41
0.63
  0
TEXT
  8
1
 62
2
 10
-4894.057241362291
 20
8642.56372827775
 30
0
 40
150
  1
Holding Bolt        GN35+TW16/21 Id.No. 098223
 41
0.63
  0
TEXT
  8
1
 62
2
 10
-4894.057241362291
 20
8417.56372827775
 30
0
 40
150
  1
Boulon d'assemblage GN35+TW16/21 No rÅf 098223
 41
0.63
  0
TEXT
  8
1
 62
2
 10
14978.1373807008
 20
3845.773447284421
 30
0
 40
150
  1
  Palettenstation
 41
0.7200000000000001
  0
TEXT
  8
1
 62
2
 10
14978.1373807008
 20
3590.773447284421
 30
0
 40
150
  1
  Pallet station
 41
0.7200000000000001
  0
TEXT
  8
1
 62
2
 10
14978.1373807008
 20
3335.773447284421
 30
0
 40
150
  1
  Station de palette
 41
0.7200000000000001
  0
TEXT
  8
1
 62
2
 10
14978.1373807008
 20
4410.961096712203
 30
0
 40
150
  1
  TC L3020
 41
0.7200000000000001
  0
TEXT
  8
1
 62
2
 10
14963.9973883223
 20
5735.750161652739
 30
0
 40
175
  1
  Anzugsmoment der Ankerstangen
 41
0.7200000000000001
  0
TEXT
  8
1
 62
2
 10
14963.9973883223
 20
5420.750161652739
 30
0
 40
175
  1
  Tightening torque of armature bar
 41
0.7200000000000001
  0
TEXT
  8
1
 62
2
 10
14963.9973883223
 20
5105.750161652739
 30
0
 40
175
  1
  Couple de serrage des barres d'induit
 41
0.7200000000000001
  0
TEXT
  8
1
 62
2
 10
14630.39422550139
 20
5713.220643760083
 30
0
 40
175
  1
[24]
 41
0.7200000000000001
  0
TEXT
  8
1
 62
2
 10
19728.7731060552
 20
4393.530574835323
 30
0
 40
175
  1
70   Nm
 41
0.7200000000000001
  0
TEXT
  8
1
 62
2
 10
19728.7731060552
 20
3624.305938276072
 30
0
 40
175
  1
85   Nm
 41
0.7200000000000001
  0
TEXT
  8
1
 62
2
 10
20071.0376857928
 20
4336.863658364294
 30
0
 40
125
  1
-5
 41
0.9
  0
TEXT
  8
1
 62
2
 10
20080.70554929009
 20
3553.766715076242
 30
0
 40
125
  1
-5
 41
0.9
  0
TEXT
  8
1
 62
2
 10
6423.660544376038
 20
7483.577914521051
 30
0
 40
150
  1
Ankerstange     HAS-M16x220 Mat.Nr.123661
 41
0.63
  0
TEXT
  8
1
 62
2
 10
6423.660544376038
 20
7258.577914521051
 30
0
 40
150
  1
Anchor rod      HAS-M16x220 Id.No.123661
 41
0.63
  0
TEXT
  8
1
 62
2
 10
6423.660544376038
 20
7033.577914521051
 30
0
 40
150
  1
Barre d'ancrage HAS-M16x220 No.rÅf.123661
 41
0.63
  0
TEXT
  8
1
 62
2
 10
6423.660544376038
 20
8293.063610948972
 30
0
 40
150
  1
Bohrung Ö18 / 125 tief
 41
0.63
  0
TEXT
  8
1
 62
2
 10
6423.660544376038
 20
8068.063610948972
 30
0
 40
150
  1
Drilled Ö18 / 125 deep
 41
0.63
  0
TEXT
  8
1
 62
2
 10
6423.660544376038
 20
7843.063610948972
 30
0
 40
150
  1
Percage Ö18 / 125 de profondeur
 41
0.63
  0
TEXT
  8
1
 62
7
 10
6425.605936919887
 20
9311.306118301342
 30
0
 40
175
  1
Palettenstation
 41
0.7200000000000001
  0
TEXT
  8
1
 62
7
 10
6425.605936919887
 20
9031.306118301342
 30
0
 40
175
  1
Pallet station
 41
0.7200000000000001
  0
TEXT
  8
1
 62
7
 10
6425.605936919887
 20
8751.306118301342
 30
0
 40
175
  1
Station de palette
 41
0.7200000000000001
  0
TEXT
  8
1
 62
2
 10
6415.224969013685
 20
9651.17004084357
 30
0
 40
150
  1
[27]
 41
0.7200000000000001
  0
TEXT
  8
1
 62
2
 10
8933.601145755638
 20
1441.776190901679
 30
0
 40
150
  1
(4x)
 41
0.9
  0
TEXT
  8
1
 62
2
 10
8672.349788116429
 20
1441.505975813191
 30
0
 40
150
  1
P1
 41
0.9
  0
TEXT
  8
1
 62
2
 10
1877.344862065326
 20
-647.536539358117
 30
0
 40
150
  1
(4x)
 41
0.9
  0
TEXT
  8
1
 62
2
 10
1616.464859491437
 20
-647.536539358117
 30
0
 40
150
  1
M1
 41
0.9
  0
TEXT
  8
1
 62
2
 10
13016.93001258618
 20
7912.1018696233
 30
0
 40
150
  1
Palettenstation mit Palette und max.WerkstÏck
 41
0.7200000000000001
  0
TEXT
  8
1
 62
2
 10
13016.93001258618
 20
7612.1018696233
 30
0
 40
150
  1
Pallet changer with pallet an max.workpiece
 41
0.7200000000000001
  0
TEXT
  8
1
 62
2
 10
13016.93001258618
 20
7312.1018696233
 30
0
 40
150
  1
Changeur de palette avec palette et piÉce usine
 41
0.7200000000000001
  0
TEXT
  8
1
 62
7
 10
2213.485054973177
 20
7566.539066245781
 30
0
 40
175
  1
Bohrschablonen 93617-97
 41
0.7200000000000001
  0
TEXT
  8
1
 62
7
 10
2213.485054973177
 20
7286.539066245781
 30
0
 40
175
  1
Drill template 93617-97
 41
0.7200000000000001
  0
TEXT
  8
1
 62
7
 10
2213.485054973177
 20
7006.539066245781
 30
0
 40
175
  1
Gabarit de percage 93617-97
 41
0.7200000000000001
  0
TEXT
  8
1
 62
2
 10
2203.104087066975
 20
7906.40298878801
 30
0
 40
150
  1
[28]
 41
0.7200000000000001
  0
DIMENSION
  8
1
  6
CONTINUOUS
 62
2
  2
*D0
  3
DMST_1
 10
-2932.05789397281
 20
-100
 30
0
 11
-3069.55789397281
 21
1177.70286663057
 31
0
 12
0
 22
0
 32
0
 70
0
 13
500.0001469737326
 23
2800.000000000001
 33
0
 14
500.0001469737326
 24
-100
 34
0
 50
90
 53
0
  0
DIMENSION
  8
1
  6
CONTINUOUS
 62
2
  2
*D1
  3
DMST_1
 10
-2316.08857528364
 20
-100
 30
0
 11
-2453.58857528364
 21
-1036.85349341858
 31
0
 12
0
 22
0
 32
0
 70
0
 13
0
 23
0
 33
0
 14
500.0001469737326
 24
-100
 34
0
 50
90
 53
0
  0
DIMENSION
  8
1
  6
CONTINUOUS
 62
2
  2
*D2
  3
DMST_1
 10
500.0001469737326
 20
4123.342114825109
 30
0
 11
1352.29962841497
 21
4267.42265891074
 31
0
 12
0
 22
0
 32
0
 70
0
 13
3849.999999999979
 23
2800.000000000001
 33
0
 14
500.0001469737326
 24
2800.000000000001
 34
0
 53
0
  0
DIMENSION
  8
1
  6
CONTINUOUS
 62
2
  2
*D3
  3
DMST_1
 10
0
 20
4123.342114825109
 30
0
 11
-658.1192277800642
 21
4260.842114825109
 31
0
 12
0
 22
0
 32
0
 70
0
 13
500.0001469737326
 23
2800.000000000001
 33
0
 14
0
 24
0
 34
0
 53
0
  0
INSERT
  8
0
  2
PALETTENSTATION
 10
4787
 20
457.9999999999964
 30
0
  0
INSERT
  8
0
  2
KOMPAKTENTSTAUBER
 10
188171.0559579288
 20
3586.736885260244
 30
0
  0
INSERT
  8
0
  2
FL_CHEN
 10
82422.83211064155
 20
7461.09220704075
 30
0
  0
INSERT
  8
0
  2
L3020
 10
-357.1411515151567
 20
35433.1426666667
 30
0
  0
INSERT
  8
1
  2
*D4
 10
0
 20
0
 30
0
  0
INSERT
  8
1
  2
*D5
 10
0
 20
0
 30
0
  0
INSERT
  8
1
  2
*D6
 10
0
 20
0
 30
0
  0
INSERT
  8
1
  2
*D7
 10
0
 20
0
 30
0
  0
INSERT
  8
1
  2
*D8
 10
0
 20
0
 30
0
  0
INSERT
  8
1
  2
*D9
 10
0
 20
0
 30
0
  0
INSERT
  8
1
  2
*D10
 10
0
 20
0
 30
0
  0
INSERT
  8
1
  2
*D11
 10
0
 20
0
 30
0
  0
INSERT
  8
1
  2
*D12
 10
0
 20
0
 30
0
  0
INSERT
  8
1
  2
*D13
 10
0
 20
0
 30
0
  0
INSERT
  8
1
  2
*D14
 10
0
 20
0
 30
0
  0
INSERT
  8
1
  2
*D15
 10
0
 20
0
 30
0
  0
INSERT
  8
1
  2
*D16
 10
0
 20
0
 30
0
  0
INSERT
  8
1
  2
*D17
 10
0
 20
0
 30
0
  0
ENDBLK
  8
0
  0
BLOCK
  8
0
  2
30_2_
 70
0
 10
31405.34576560312
 20
159.1380368488499
 30
0
  0
LINE
  8
1
 62
3
 10
5542.000000000102
 20
518.000000000482
 30
0
 11
5542.000000000102
 21
493.000000000482
 31
0
  0
LINE
  8
1
 62
3
 10
5517.000000000102
 20
493.000000000482
 30
0
 11
5542.000000000102
 21
493.000000000482
 31
0
  0
LINE
  8
1
 62
3
 10
5542.000000000102
 20
493.000000000482
 30
0
 11
5567.000000000102
 21
493.000000000482
 31
0
  0
LINE
  8
1
 62
3
 10
5542.000000000102
 20
493.000000000482
 30
0
 11
5542.000000000102
 21
468.000000000482
 31
0
  0
LINE
  8
1
 62
3
 10
7371.999999999993
 20
468.000000000482
 30
0
 11
7371.999999999993
 21
493.000000000482
 31
0
  0
LINE
  8
1
 62
3
 10
7346.999999999993
 20
493.000000000482
 30
0
 11
7371.999999999993
 21
493.000000000482
 31
0
  0
LINE
  8
1
 62
3
 10
7371.999999999993
 20
493.000000000482
 30
0
 11
7396.999999999993
 21
493.000000000482
 31
0
  0
LINE
  8
1
 62
3
 10
7371.999999999993
 20
493.000000000482
 30
0
 11
7371.999999999993
 21
518.000000000482
 31
0
  0
LINE
  8
1
 62
3
 10
6887.999999999993
 20
412.9000000000324
 30
0
 11
7475.999999999993
 21
412.9000000000324
 31
0
  0
LINE
  8
1
 62
3
 10
7476.999999999993
 20
1322.000000000194
 30
0
 11
7476.999999999993
 21
413.9000000000315
 31
0
  0
LINE
  8
1
 62
3
 10
6886.999999999989
 20
602.3338096210619
 30
0
 11
6886.999999999989
 21
413.9000000000315
 31
0
  0
LINE
  8
1
 62
3
 10
6886.999999999993
 20
1322.00000000019
 30
0
 11
6886.999999999993
 21
813.466190378992
 31
0
  0
LINE
  8
1
 62
3
 10
6936.999999999975
 20
782.3338096210619
 30
0
 11
6936.999999999975
 21
633.466190378992
 31
0
  0
LINE
  8
1
 62
3
 10
6936.514495755404
 20
783.1913025467702
 30
0
 11
6887.485504244563
 21
812.6086974532827
 31
0
  0
LINE
  8
1
 62
3
 10
6936.514495755404
 20
632.6086974532827
 30
0
 11
6887.485504244563
 21
603.1913025467702
 31
0
  0
LINE
  8
1
 62
3
 10
7106.76531649119
 20
1372.414495755459
 30
0
 11
7077.407921584767
 21
1323.485504244763
 31
0
  0
LINE
  8
1
 62
3
 10
7256.377190583167
 20
1372.900000000031
 30
0
 11
7107.622809416906
 21
1372.900000000031
 31
0
  0
LINE
  8
1
 62
3
 10
7257.234683508883
 20
1372.414495755459
 30
0
 11
7286.592078415306
 21
1323.485504244766
 31
0
  0
LINE
  8
1
 62
3
 10
7287.449571341018
 20
1323.000000000194
 30
0
 11
7475.999999999993
 21
1323.000000000194
 31
0
  0
LINE
  8
1
 62
3
 10
6887.999999999993
 20
1323.00000000019
 30
0
 11
7076.550428659055
 21
1323.00000000019
 31
0
  0
LINE
  8
1
 62
3
 10
6886.999999999993
 20
1323.000000000194
 30
0
 11
6886.999999999993
 21
1323.00000000019
 31
0
  0
LINE
  8
1
 62
3
 10
5438.000000000102
 20
412.9000000000324
 30
0
 11
6026.000000000102
 21
412.9000000000324
 31
0
  0
LINE
  8
1
 62
3
 10
5437.000000000102
 20
413.9000000000315
 30
0
 11
5437.000000000102
 21
1322.000000000194
 31
0
  0
LINE
  8
1
 62
3
 10
6027.000000000102
 20
413.9000000000306
 30
0
 11
6027.000000000102
 21
602.3338096210628
 31
0
  0
LINE
  8
1
 62
3
 10
6027.000000000102
 20
813.466190378992
 30
0
 11
6027.000000000102
 21
1322.000000000189
 31
0
  0
LINE
  8
1
 62
3
 10
5977.000000000116
 20
633.466190378992
 30
0
 11
5977.000000000116
 21
782.3338096210619
 31
0
  0
LINE
  8
1
 62
3
 10
6026.514495755528
 20
812.6086974532827
 30
0
 11
5977.485504244687
 21
783.1913025467702
 31
0
  0
LINE
  8
1
 62
3
 10
6026.514495755528
 20
603.1913025467702
 30
0
 11
5977.485504244687
 21
632.6086974532827
 31
0
  0
LINE
  8
1
 62
3
 10
5836.592078415324
 20
1323.485504244763
 30
0
 11
5807.234683508897
 21
1372.414495755459
 31
0
  0
LINE
  8
1
 62
3
 10
5806.377190583189
 20
1372.900000000031
 30
0
 11
5657.62280941692
 21
1372.900000000031
 31
0
  0
LINE
  8
1
 62
3
 10
5627.407921584789
 20
1323.485504244766
 30
0
 11
5656.765316491208
 21
1372.414495755459
 31
0
  0
LINE
  8
1
 62
3
 10
5438.000000000102
 20
1323.000000000194
 30
0
 11
5626.550428659073
 21
1323.000000000194
 31
0
  0
LINE
  8
1
 62
3
 10
5837.449571341036
 20
1323.00000000019
 30
0
 11
6026.000000000102
 21
1323.00000000019
 31
0
  0
LINE
  8
1
 62
3
 10
6027.000000000102
 20
1323.00000000019
 30
0
 11
6027.000000000102
 21
1323.000000000194
 31
0
  0
LINE
  8
0
 62
3
 10
6969.000000000047
 20
469.9000000000306
 30
0
 11
7025.000000000047
 21
469.9000000000306
 31
0
  0
LINE
  8
0
 62
3
 10
7025.000000000047
 20
455.9000000000306
 30
0
 11
6969.000000000047
 21
455.9000000000306
 31
0
  0
LINE
  8
0
 62
3
 10
5889.000000000047
 20
469.9000000000306
 30
0
 11
5945.000000000047
 21
469.9000000000306
 31
0
  0
LINE
  8
0
 62
3
 10
5945.000000000047
 20
455.9000000000306
 30
0
 11
5889.000000000047
 21
455.9000000000306
 31
0
  0
LINE
  8
0
 62
3
 10
5889.000000000047
 20
499.9000000000306
 30
0
 11
5945.000000000047
 21
499.9000000000306
 31
0
  0
LINE
  8
0
 62
3
 10
5945.000000000047
 20
485.9000000000306
 30
0
 11
5889.000000000047
 21
485.9000000000306
 31
0
  0
LINE
  8
0
 62
3
 10
6969.000000000047
 20
499.9000000000306
 30
0
 11
7025.000000000047
 21
499.9000000000306
 31
0
  0
LINE
  8
0
 62
3
 10
7025.000000000047
 20
485.9000000000306
 30
0
 11
6969.000000000047
 21
485.9000000000306
 31
0
  0
LINE
  8
0
 62
3
 10
5889.000000000047
 20
529.9000000000306
 30
0
 11
5945.000000000047
 21
529.9000000000306
 31
0
  0
LINE
  8
0
 62
3
 10
5945.000000000047
 20
515.9000000000306
 30
0
 11
5889.000000000047
 21
515.9000000000306
 31
0
  0
LINE
  8
0
 62
3
 10
6969.000000000047
 20
529.9000000000306
 30
0
 11
7025.000000000047
 21
529.9000000000306
 31
0
  0
LINE
  8
0
 62
3
 10
7025.000000000047
 20
515.9000000000306
 30
0
 11
6969.000000000047
 21
515.9000000000306
 31
0
  0
ARC
  8
0
 62
3
 10
7025.000000000047
 20
462.9000000000306
 30
0
 40
7
 50
270
 51
90
  0
ARC
  8
0
 62
3
 10
6969.000000000047
 20
462.9000000000306
 30
0
 40
7
 50
90
 51
270
  0
ARC
  8
0
 62
3
 10
5889.000000000047
 20
462.9000000000306
 30
0
 40
7
 50
90
 51
270
  0
ARC
  8
0
 62
3
 10
5945.000000000047
 20
462.9000000000306
 30
0
 40
7
 50
270
 51
90
  0
ARC
  8
0
 62
3
 10
5889.000000000047
 20
492.9000000000306
 30
0
 40
7
 50
90
 51
270
  0
ARC
  8
0
 62
3
 10
5945.000000000047
 20
492.9000000000306
 30
0
 40
7
 50
270
 51
90
  0
ARC
  8
0
 62
3
 10
7025.000000000047
 20
492.9000000000306
 30
0
 40
7
 50
270
 51
90
  0
ARC
  8
0
 62
3
 10
6969.000000000047
 20
492.9000000000306
 30
0
 40
7
 50
90
 51
270
  0
ARC
  8
0
 62
3
 10
5889.000000000047
 20
522.9000000000306
 30
0
 40
7
 50
90
 51
270
  0
ARC
  8
0
 62
3
 10
5945.000000000047
 20
522.9000000000306
 30
0
 40
7
 50
270
 51
90
  0
ARC
  8
0
 62
3
 10
7025.000000000047
 20
522.9000000000306
 30
0
 40
7
 50
270
 51
90
  0
ARC
  8
0
 62
3
 10
6969.000000000047
 20
522.9000000000306
 30
0
 40
7
 50
90
 51
270
  0
CIRCLE
  8
1
 62
3
 10
7412
 20
597.9999999999018
 30
0
 40
9
  0
CIRCLE
  8
1
 62
3
 10
7262
 20
597.9999999999027
 30
0
 40
9
  0
CIRCLE
  8
1
 62
3
 10
5652.000000000087
 20
597.9999999999027
 30
0
 40
9
  0
CIRCLE
  8
1
 62
3
 10
5502.000000000095
 20
597.9999999999027
 30
0
 40
9
  0
ARC
  8
1
 62
3
 10
7475.999999999993
 20
413.9000000000315
 30
0
 40
0.9999999999991474
 50
270
 51
0
  0
ARC
  8
1
 62
3
 10
6887.999999999993
 20
413.9000000000315
 30
0
 40
1.000000000003638
 50
180
 51
270
  0
ARC
  8
1
 62
3
 10
7475.999999999993
 20
1322.000000000194
 30
0
 40
1
 50
0
 51
90
  0
ARC
  8
1
 62
3
 10
6887.999999999993
 20
1322.00000000019
 30
0
 40
1
 50
90
 51
180
  0
ARC
  8
1
 62
3
 10
7076.550428659055
 20
1324.00000000019
 30
0
 40
1
 50
270
 51
329.0362434679309
  0
ARC
  8
1
 62
3
 10
7107.622809416906
 20
1371.900000000031
 30
0
 40
1
 50
90
 51
149.0362434680203
  0
ARC
  8
1
 62
3
 10
7256.377190583167
 20
1371.900000000031
 30
0
 40
1.0000000000029
 50
30.9637565320065
 51
90
  0
ARC
  8
1
 62
3
 10
7287.449571341018
 20
1324.000000000194
 30
0
 40
0.9999999999997803
 50
210.9637565321137
 51
270
  0
ARC
  8
1
 62
3
 10
6887.999999999993
 20
602.3338096210619
 30
0
 40
0.9999999999973628
 50
120.963756532288
 51
180
  0
ARC
  8
1
 62
3
 10
6935.999999999975
 20
633.466190378992
 30
0
 40
0.9999999999976748
 50
300.9637565322165
 51
0
  0
ARC
  8
1
 62
3
 10
6935.999999999975
 20
782.3338096210619
 30
0
 40
1
 50
0
 51
59.03624346775668
  0
ARC
  8
1
 62
3
 10
6887.999999999993
 20
813.466190378992
 30
0
 40
1
 50
180
 51
239.0362434677388
  0
ARC
  8
1
 62
3
 10
5438.000000000102
 20
413.9000000000315
 30
0
 40
1
 50
180
 51
270
  0
ARC
  8
1
 62
3
 10
6026.000000000102
 20
413.9000000000315
 30
0
 40
0.9999999999991474
 50
270
 51
0
  0
ARC
  8
1
 62
3
 10
5438.000000000102
 20
1322.000000000194
 30
0
 40
1
 50
90
 51
180
  0
ARC
  8
1
 62
3
 10
6026.000000000102
 20
1322.00000000019
 30
0
 40
1
 50
0
 51
90
  0
ARC
  8
1
 62
3
 10
5837.449571341036
 20
1324.00000000019
 30
0
 40
0.9999999999993126
 50
210.9637565320691
 51
270
  0
ARC
  8
1
 62
3
 10
5806.377190583189
 20
1371.900000000031
 30
0
 40
0.9999999999966609
 50
30.96375653222098
 51
90
  0
ARC
  8
1
 62
3
 10
5657.62280941692
 20
1371.900000000031
 30
0
 40
1
 50
90
 51
149.0362434678863
  0
ARC
  8
1
 62
3
 10
5626.550428659073
 20
1324.000000000194
 30
0
 40
1
 50
270
 51
329.0362434679935
  0
ARC
  8
1
 62
3
 10
6026.000000000102
 20
602.3338096210619
 30
0
 40
1
 50
0
 51
59.03624346789074
  0
ARC
  8
1
 62
3
 10
5978.000000000116
 20
633.466190378992
 30
0
 40
1
 50
180
 51
239.0362434677388
  0
ARC
  8
1
 62
3
 10
5978.000000000116
 20
782.3338096210619
 30
0
 40
0.9999999999973628
 50
120.963756532288
 51
180
  0
ARC
  8
1
 62
3
 10
6026.000000000102
 20
813.466190378992
 30
0
 40
0.9999999999962709
 50
300.9637565320825
 51
0
  0
ENDBLK
  8
0
  0
BLOCK
  8
0
  2
40_2_
 70
0
 10
31405.34576560312
 20
4408.943297800137
 30
0
  0
LINE
  8
1
 62
3
 10
6886.999999999993
 20
2093.44957134116
 30
0
 11
6886.999999999993
 21
2282.00000000018
 31
0
  0
LINE
  8
1
 62
3
 10
6027.000000000051
 20
2093.44957134122
 30
0
 11
6027.000000000051
 21
2282.00000000018
 31
0
  0
LINE
  8
1
 62
3
 10
6886.999999999993
 20
1694.00000000018
 30
0
 11
6886.999999999993
 21
1882.550428659197
 31
0
  0
LINE
  8
1
 62
3
 10
6027.000000000051
 20
1694.00000000018
 30
0
 11
6027.000000000051
 21
1882.550428659137
 31
0
  0
LINE
  8
1
 62
3
 10
6028.000000000051
 20
2283.00000000018
 30
0
 11
6885.999999999993
 21
2283.00000000018
 31
0
  0
LINE
  8
1
 62
3
 10
6028.000000000051
 20
1693.00000000018
 30
0
 11
6885.999999999993
 21
1693.00000000018
 31
0
  0
LINE
  8
1
 62
3
 10
5977.585504244689
 20
2063.234683509028
 30
0
 11
6026.51449575548
 21
2092.592078415508
 31
0
  0
LINE
  8
1
 62
3
 10
5977.100000000115
 20
2062.377190583316
 30
0
 11
5977.100000000115
 21
1913.622809417047
 31
0
  0
LINE
  8
1
 62
3
 10
5977.585504244689
 20
1912.765316491335
 30
0
 11
6026.51449575548
 21
1883.407921584849
 31
0
  0
LINE
  8
1
 62
3
 10
6887.485504244563
 20
2092.592078415448
 30
0
 11
6936.41449575526
 21
2063.234683509028
 31
0
  0
LINE
  8
1
 62
3
 10
6936.899999999834
 20
1913.622809417047
 30
0
 11
6936.899999999834
 21
2062.377190583316
 31
0
  0
LINE
  8
1
 62
3
 10
6887.485504244563
 20
1883.407921584909
 30
0
 11
6936.41449575526
 21
1912.765316491335
 31
0
  0
LINE
  8
1
 62
3
 10
6886.999999999993
 20
413.9000000000315
 30
0
 11
6886.999999999993
 21
602.450428659401
 31
0
  0
LINE
  8
1
 62
3
 10
6027.000000000051
 20
413.9000000000315
 30
0
 11
6027.000000000051
 21
602.450428659341
 31
0
  0
LINE
  8
1
 62
3
 10
6886.999999999993
 20
813.3495713413604
 30
0
 11
6886.999999999993
 21
1001.900000000029
 31
0
  0
LINE
  8
1
 62
3
 10
6027.000000000051
 20
813.3495713414204
 30
0
 11
6027.000000000051
 21
1001.900000000029
 31
0
  0
LINE
  8
1
 62
3
 10
6885.999999999993
 20
412.9000000000315
 30
0
 11
6028.000000000051
 21
412.9000000000315
 31
0
  0
LINE
  8
1
 62
3
 10
6885.999999999993
 20
1002.900000000029
 30
0
 11
6028.000000000055
 21
1002.900000000029
 31
0
  0
LINE
  8
1
 62
3
 10
6026.51449575548
 20
603.3079215850512
 30
0
 11
5977.585504244689
 21
632.6653164915306
 31
0
  0
LINE
  8
1
 62
3
 10
5977.100000000115
 20
782.2771905835116
 30
0
 11
5977.100000000115
 21
633.5228094172408
 31
0
  0
LINE
  8
1
 62
3
 10
6026.51449575548
 20
812.4920784157093
 30
0
 11
5977.585504244689
 21
783.1346835092209
 31
0
  0
LINE
  8
1
 62
3
 10
6936.41449575526
 20
632.6653164915306
 30
0
 11
6887.485504244563
 21
603.3079215851112
 31
0
  0
LINE
  8
1
 62
3
 10
6936.899999999834
 20
633.5228094172408
 30
0
 11
6936.899999999834
 21
782.2771905835116
 31
0
  0
LINE
  8
1
 62
3
 10
6936.41449575526
 20
783.1346835092209
 30
0
 11
6887.485504244563
 21
812.4920784156502
 31
0
  0
ARC
  8
1
 62
3
 10
6885.999999999993
 20
1694.00000000018
 30
0
 40
1
 50
270
 51
0
  0
ARC
  8
1
 62
3
 10
6885.999999999993
 20
2282.00000000018
 30
0
 40
1
 50
0
 51
90
  0
ARC
  8
1
 62
3
 10
6028.000000000051
 20
2282.00000000018
 30
0
 40
1
 50
90
 51
180
  0
ARC
  8
1
 62
3
 10
6028.000000000051
 20
1001.900000000029
 30
0
 40
1
 50
90
 51
180
  0
ARC
  8
1
 62
3
 10
6885.999999999993
 20
1001.900000000029
 30
0
 40
1
 50
0
 51
90
  0
ARC
  8
1
 62
3
 10
6885.999999999993
 20
413.9000000000315
 30
0
 40
1
 50
270
 51
0
  0
ARC
  8
1
 62
3
 10
6028.000000000051
 20
413.9000000000315
 30
0
 40
1
 50
180
 51
270
  0
ARC
  8
1
 62
3
 10
6028.000000000051
 20
1694.00000000018
 30
0
 40
1
 50
180
 51
270
  0
ARC
  8
1
 62
3
 10
6887.999999999993
 20
1882.550428659197
 30
0
 40
1.000000000000482
 50
120.9637565321808
 51
180
  0
ARC
  8
1
 62
3
 10
6935.899999999834
 20
1913.622809417047
 30
0
 40
0.9999999999986107
 50
300.963756532002
 51
0
  0
ARC
  8
1
 62
3
 10
6935.899999999834
 20
2062.377190583316
 30
0
 40
1
 50
0
 51
59.03624346799798
  0
ARC
  8
1
 62
3
 10
6887.999999999993
 20
2093.44957134116
 30
0
 40
1
 50
180
 51
239.0362434678193
  0
ARC
  8
1
 62
3
 10
6026.000000000051
 20
1882.550428659137
 30
0
 40
1
 50
0
 51
59.03624346781924
  0
ARC
  8
1
 62
3
 10
5978.100000000115
 20
1913.622809417047
 30
0
 40
1
 50
180
 51
239.036243467998
  0
ARC
  8
1
 62
3
 10
5978.100000000115
 20
2062.377190583316
 30
0
 40
0.9999999999986107
 50
120.963756532002
 51
180
  0
ARC
  8
1
 62
3
 10
6026.000000000051
 20
2093.44957134122
 30
0
 40
1.000000000000482
 50
300.9637565321808
 51
0
  0
ARC
  8
1
 62
3
 10
6887.999999999993
 20
602.450428659401
 30
0
 40
0.9999999999989225
 50
120.9637565322344
 51
180
  0
ARC
  8
1
 62
3
 10
6935.899999999834
 20
633.5228094172408
 30
0
 40
0.9999999999970509
 50
300.9637565320556
 51
0
  0
ARC
  8
1
 62
3
 10
6935.899999999834
 20
782.2771905835116
 30
0
 40
1
 50
0
 51
59.03624346791754
  0
ARC
  8
1
 62
3
 10
6887.999999999993
 20
813.3495713413604
 30
0
 40
1
 50
180
 51
239.0362434677656
  0
ARC
  8
1
 62
3
 10
6026.000000000051
 20
602.450428659341
 30
0
 40
1
 50
0
 51
59.03624346776563
  0
ARC
  8
1
 62
3
 10
5978.100000000115
 20
633.5228094172408
 30
0
 40
1
 50
180
 51
239.0362434679444
  0
ARC
  8
1
 62
3
 10
5978.100000000115
 20
782.2771905835116
 30
0
 40
0.9999999999962709
 50
120.9637565320824
 51
180
  0
ARC
  8
1
 62
3
 10
6026.000000000051
 20
813.3495713414204
 30
0
 40
0.9999999999997024
 50
300.9637565322076
 51
0
  0
ENDBLK
  8
0
  0
BLOCK
  8
0
  2
20_2_
 70
0
 10
31405.34576560311
 20
4408.943297800082
 30
0
  0
LINE
  8
1
 62
3
 10
5542.000000000102
 20
2178.000000000122
 30
0
 11
5542.000000000102
 21
2203.000000000122
 31
0
  0
LINE
  8
1
 62
3
 10
5517.000000000102
 20
2203.000000000122
 30
0
 11
5542.000000000102
 21
2203.000000000122
 31
0
  0
LINE
  8
1
 62
3
 10
5542.000000000102
 20
2203.000000000122
 30
0
 11
5567.000000000102
 21
2203.000000000122
 31
0
  0
LINE
  8
1
 62
3
 10
5542.000000000102
 20
2203.000000000122
 30
0
 11
5542.000000000102
 21
2228.000000000122
 31
0
  0
LINE
  8
1
 62
3
 10
7371.999999999989
 20
2228.000000000122
 30
0
 11
7371.999999999993
 21
2203.000000000122
 31
0
  0
LINE
  8
1
 62
3
 10
7346.999999999989
 20
2203.000000000122
 30
0
 11
7371.999999999993
 21
2203.000000000122
 31
0
  0
LINE
  8
1
 62
3
 10
7371.999999999993
 20
2203.000000000122
 30
0
 11
7396.999999999989
 21
2203.000000000122
 31
0
  0
LINE
  8
1
 62
3
 10
7371.999999999993
 20
2203.000000000122
 30
0
 11
7371.999999999989
 21
2178.000000000122
 31
0
  0
LINE
  8
1
 62
3
 10
5438.000000000102
 20
1323.000000000194
 30
0
 11
5626.433809621132
 21
1323.00000000019
 31
0
  0
LINE
  8
1
 62
3
 10
6026.000000000102
 20
2283.000000000189
 30
0
 11
5438.000000000102
 21
2283.000000000189
 31
0
  0
LINE
  8
1
 62
3
 10
5437.000000000102
 20
1324.000000000194
 30
0
 11
5437.000000000102
 21
2282.000000000189
 31
0
  0
LINE
  8
1
 62
3
 10
6027.000000000102
 20
2093.566190379157
 30
0
 11
6027.000000000102
 21
2282.000000000189
 31
0
  0
LINE
  8
1
 62
3
 10
6027.000000000102
 20
1324.000000000192
 30
0
 11
6027.000000000102
 21
1882.433809621221
 31
0
  0
LINE
  8
1
 62
3
 10
5657.566190379068
 20
1373.000000000176
 30
0
 11
5806.433809621136
 21
1373.000000000176
 31
0
  0
LINE
  8
1
 62
3
 10
5837.566190379068
 20
1323.00000000019
 30
0
 11
6026.000000000102
 21
1323.000000000192
 31
0
  0
LINE
  8
1
 62
3
 10
5656.708697453359
 20
1372.514495755603
 30
0
 11
5627.291302546844
 21
1323.485504244763
 31
0
  0
LINE
  8
1
 62
3
 10
5807.291302546844
 20
1372.514495755603
 30
0
 11
5836.708697453356
 21
1323.485504244763
 31
0
  0
LINE
  8
1
 62
3
 10
5977.000000000116
 20
1913.566190379157
 30
0
 11
5977.000000000116
 21
2062.433809621221
 31
0
  0
LINE
  8
1
 62
3
 10
5977.485504244687
 20
1912.708697453445
 30
0
 11
6026.514495755528
 21
1883.291302546933
 31
0
  0
LINE
  8
1
 62
3
 10
5977.485504244687
 20
2063.291302546933
 30
0
 11
6026.514495755528
 21
2092.708697453445
 31
0
  0
LINE
  8
1
 62
3
 10
7287.566190378959
 20
1323.00000000019
 30
0
 11
7475.999999999993
 21
1323.000000000195
 31
0
  0
LINE
  8
1
 62
3
 10
7475.999999999993
 20
2283.000000000189
 30
0
 11
6887.999999999993
 21
2283.000000000189
 31
0
  0
LINE
  8
1
 62
3
 10
7476.999999999993
 20
2282.000000000189
 30
0
 11
7476.999999999993
 21
1324.000000000194
 31
0
  0
LINE
  8
1
 62
3
 10
6886.999999999993
 20
2282.000000000189
 30
0
 11
6886.999999999993
 21
2093.566190379157
 31
0
  0
LINE
  8
1
 62
3
 10
6886.999999999993
 20
1882.433809621221
 30
0
 11
6886.999999999993
 21
1324.000000000192
 31
0
  0
LINE
  8
1
 62
3
 10
7107.566190378959
 20
1373.000000000176
 30
0
 11
7256.433809621019
 21
1373.000000000176
 31
0
  0
LINE
  8
1
 62
3
 10
6887.999999999993
 20
1323.000000000192
 30
0
 11
7076.433809621023
 21
1323.000000000191
 31
0
  0
LINE
  8
1
 62
3
 10
7286.708697453247
 20
1323.485504244763
 30
0
 11
7257.291302546735
 21
1372.514495755603
 31
0
  0
LINE
  8
1
 62
3
 10
7077.291302546735
 20
1323.485504244763
 30
0
 11
7106.708697453243
 21
1372.514495755603
 31
0
  0
LINE
  8
1
 62
3
 10
6936.999999999975
 20
2062.433809621221
 30
0
 11
6936.999999999975
 21
1913.566190379157
 31
0
  0
LINE
  8
1
 62
3
 10
6887.485504244563
 20
1883.291302546933
 30
0
 11
6936.514495755404
 21
1912.708697453445
 31
0
  0
LINE
  8
1
 62
3
 10
6887.485504244563
 20
2092.708697453445
 30
0
 11
6936.514495755404
 21
2063.291302546933
 31
0
  0
LINE
  8
0
 62
3
 10
5889.000000000051
 20
2240.000000000187
 30
0
 11
5945.000000000051
 21
2240.000000000187
 31
0
  0
LINE
  8
0
 62
3
 10
5945.000000000051
 20
2226.000000000187
 30
0
 11
5889.000000000051
 21
2226.000000000187
 31
0
  0
LINE
  8
0
 62
3
 10
6969.000000000047
 20
2240.000000000187
 30
0
 11
7025.000000000047
 21
2240.000000000187
 31
0
  0
LINE
  8
0
 62
3
 10
7025.000000000047
 20
2226.000000000187
 30
0
 11
6969.000000000047
 21
2226.000000000187
 31
0
  0
LINE
  8
0
 62
3
 10
5889.000000000051
 20
2210.000000000187
 30
0
 11
5945.000000000051
 21
2210.000000000187
 31
0
  0
LINE
  8
0
 62
3
 10
5945.000000000051
 20
2196.000000000187
 30
0
 11
5889.000000000051
 21
2196.000000000187
 31
0
  0
LINE
  8
0
 62
3
 10
6969.000000000047
 20
2210.000000000187
 30
0
 11
7025.000000000047
 21
2210.000000000187
 31
0
  0
LINE
  8
0
 62
3
 10
7025.000000000047
 20
2196.000000000187
 30
0
 11
6969.000000000047
 21
2196.000000000187
 31
0
  0
ARC
  8
0
 62
3
 10
5889.000000000051
 20
2233.000000000187
 30
0
 40
7
 50
90
 51
270
  0
ARC
  8
0
 62
3
 10
5945.000000000051
 20
2233.000000000187
 30
0
 40
7
 50
270
 51
90
  0
ARC
  8
0
 62
3
 10
7025.000000000047
 20
2233.000000000187
 30
0
 40
7
 50
270
 51
90
  0
ARC
  8
0
 62
3
 10
6969.000000000047
 20
2233.000000000187
 30
0
 40
7
 50
90
 51
270
  0
ARC
  8
0
 62
3
 10
5889.000000000051
 20
2203.000000000187
 30
0
 40
7
 50
90
 51
270
  0
ARC
  8
0
 62
3
 10
5945.000000000051
 20
2203.000000000187
 30
0
 40
7
 50
270
 51
90
  0
ARC
  8
0
 62
3
 10
7025.000000000047
 20
2203.000000000187
 30
0
 40
7
 50
270
 51
90
  0
ARC
  8
0
 62
3
 10
6969.000000000047
 20
2203.000000000187
 30
0
 40
7
 50
90
 51
270
  0
CIRCLE
  8
1
 62
3
 10
5652.000000000087
 20
2098.000000000132
 30
0
 40
9
  0
CIRCLE
  8
1
 62
3
 10
5502.000000000095
 20
2098.000000000132
 30
0
 40
9
  0
CIRCLE
  8
1
 62
3
 10
7262
 20
2098.000000000132
 30
0
 40
9
  0
CIRCLE
  8
1
 62
3
 10
7412
 20
2098.000000000131
 30
0
 40
9
  0
ARC
  8
1
 62
3
 10
5438.000000000102
 20
1324.000000000194
 30
0
 40
1
 50
180
 51
270
  0
ARC
  8
1
 62
3
 10
5438.000000000102
 20
2282.000000000189
 30
0
 40
1
 50
90
 51
180
  0
ARC
  8
1
 62
3
 10
6026.000000000102
 20
2282.000000000189
 30
0
 40
1
 50
0
 51
90
  0
ARC
  8
1
 62
3
 10
6026.000000000102
 20
1324.000000000192
 30
0
 40
1
 50
270
 51
0
  0
ARC
  8
1
 62
3
 10
5837.566190379068
 20
1324.00000000019
 30
0
 40
0.9999999999993126
 50
210.9637565320691
 51
270
  0
ARC
  8
1
 62
3
 10
5806.433809621136
 20
1372.000000000176
 30
0
 40
0.9999999999961929
 50
30.96375653217629
 51
90
  0
ARC
  8
1
 62
3
 10
5657.566190379068
 20
1372.000000000176
 30
0
 40
1
 50
90
 51
149.0362434678505
  0
ARC
  8
1
 62
3
 10
5626.433809621132
 20
1324.00000000019
 30
0
 40
1
 50
270
 51
329.0362434679309
  0
ARC
  8
1
 62
3
 10
6026.000000000102
 20
1882.433809621221
 30
0
 40
1
 50
0
 51
59.03624346799798
  0
ARC
  8
1
 62
3
 10
5978.000000000116
 20
1913.566190379157
 30
0
 40
1
 50
180
 51
239.0362434678193
  0
ARC
  8
1
 62
3
 10
5978.000000000116
 20
2062.433809621221
 30
0
 40
1.000000000000482
 50
120.9637565321808
 51
180
  0
ARC
  8
1
 62
3
 10
6026.000000000102
 20
2093.566190379157
 30
0
 40
0.9999999999986107
 50
300.963756532002
 51
0
  0
ARC
  8
1
 62
3
 10
7475.999999999993
 20
1324.000000000194
 30
0
 40
0.9999999999988631
 50
270
 51
0
  0
ARC
  8
1
 62
3
 10
7475.999999999993
 20
2282.000000000189
 30
0
 40
1
 50
0
 51
90
  0
ARC
  8
1
 62
3
 10
6887.999999999993
 20
2282.000000000189
 30
0
 40
1
 50
90
 51
180
  0
ARC
  8
1
 62
3
 10
6887.999999999993
 20
1324.000000000192
 30
0
 40
1
 50
180
 51
270
  0
ARC
  8
1
 62
3
 10
7076.433809621023
 20
1324.00000000019
 30
0
 40
0.9999999999990905
 50
270
 51
329.0362434679309
  0
ARC
  8
1
 62
3
 10
7107.566190378959
 20
1372.000000000176
 30
0
 40
1
 50
90
 51
149.0362434680382
  0
ARC
  8
1
 62
3
 10
7256.433809621019
 20
1372.000000000176
 30
0
 40
1.000000000003212
 50
30.96375653193501
 51
90
  0
ARC
  8
1
 62
3
 10
7287.566190378959
 20
1324.00000000019
 30
0
 40
0.9999999999993126
 50
210.9637565320691
 51
270
  0
ARC
  8
1
 62
3
 10
6887.999999999993
 20
1882.433809621221
 30
0
 40
1.000000000000482
 50
120.9637565321808
 51
180
  0
ARC
  8
1
 62
3
 10
6935.999999999975
 20
1913.566190379157
 30
0
 40
1.000000000000014
 50
300.9637565321361
 51
0
  0
ARC
  8
1
 62
3
 10
6935.999999999975
 20
2062.433809621221
 30
0
 40
1
 50
0
 51
59.03624346786393
  0
ARC
  8
1
 62
3
 10
6887.999999999993
 20
2093.566190379157
 30
0
 40
1
 50
180
 51
239.0362434678193
  0
ENDBLK
  8
0
  0
BLOCK
  8
0
  2
10_2_
 70
0
 10
30692.34576560311
 20
4113.943297800275
 30
0
  0
LINE
  8
1
 62
3
 10
4845.173946194023
 20
80.46611480339379
 30
0
 11
4845.173946194023
 21
55.46611480339379
 31
0
  0
LINE
  8
1
 62
3
 10
4845.173946194023
 20
80.46611480339379
 30
0
 11
4820.173946194023
 21
80.46611480339379
 31
0
  0
LINE
  8
1
 62
3
 10
4870.173946194023
 20
80.46611480339379
 30
0
 11
4845.173946194023
 21
80.46611480339379
 31
0
  0
LINE
  8
1
 62
3
 10
4845.173946194023
 20
105.4661148033929
 30
0
 11
4845.173946194023
 21
80.46611480339379
 31
0
  0
LINE
  8
1
 62
3
 10
4845.173946194023
 20
2640.533885196985
 30
0
 11
4845.173946194023
 21
2615.533885196985
 31
0
  0
LINE
  8
1
 62
3
 10
4820.173946194023
 20
2615.533885196985
 30
0
 11
4845.173946194023
 21
2615.533885196985
 31
0
  0
LINE
  8
1
 62
3
 10
4845.173946194023
 20
2615.533885196985
 30
0
 11
4870.173946194023
 21
2615.533885196985
 31
0
  0
LINE
  8
1
 62
3
 10
4845.173946194023
 20
2615.533885196985
 30
0
 11
4845.173946194023
 21
2590.533885196985
 31
0
  0
LINE
  8
1
 62
3
 10
4673.000000000095
 20
3.000000000482032
 30
0
 11
5631.000000000095
 21
3.000000000482032
 31
0
  0
LINE
  8
1
 62
3
 10
5632.000000000095
 20
4.000000000482032
 30
0
 11
5632.000000000095
 21
411.9000000000315
 31
0
  0
LINE
  8
1
 62
3
 10
5631.000000000095
 20
412.9000000000315
 30
0
 11
5442.000000000102
 21
412.9000000000315
 31
0
  0
LINE
  8
1
 62
3
 10
5437.000000000102
 20
417.9000000000315
 30
0
 11
5437.000000000102
 21
592.0000000004829
 31
0
  0
LINE
  8
1
 62
3
 10
5436.000000000102
 20
593.0000000004829
 30
0
 11
4673.000000000095
 21
593.0000000004829
 31
0
  0
LINE
  8
1
 62
3
 10
4672.000000000095
 20
592.0000000004829
 30
0
 11
4672.000000000095
 21
4.000000000482032
 31
0
  0
LINE
  8
1
 62
3
 10
5631.000000000095
 20
2692.999999999893
 30
0
 11
4673.000000000095
 21
2692.999999999898
 31
0
  0
LINE
  8
1
 62
3
 10
5632.000000000095
 20
2284.000000000189
 30
0
 11
5632.000000000095
 21
2691.999999999893
 31
0
  0
LINE
  8
1
 62
3
 10
5442.000000000102
 20
2283.000000000189
 30
0
 11
5631.000000000095
 21
2283.000000000189
 31
0
  0
LINE
  8
1
 62
3
 10
5437.000000000102
 20
2103.999999999894
 30
0
 11
5437.000000000102
 21
2278.000000000189
 31
0
  0
LINE
  8
1
 62
3
 10
4673.000000000095
 20
2102.999999999895
 30
0
 11
5436.000000000102
 21
2102.999999999894
 31
0
  0
LINE
  8
1
 62
3
 10
4672.000000000095
 20
2691.999999999898
 30
0
 11
4672.000000000095
 21
2103.999999999895
 31
0
  0
LINE
  8
0
 62
3
 10
5504.000000000091
 20
2649.999999999893
 30
0
 11
5560.000000000091
 21
2649.999999999893
 31
0
  0
LINE
  8
0
 62
3
 10
5560.000000000091
 20
2635.999999999893
 30
0
 11
5504.000000000091
 21
2635.999999999893
 31
0
  0
LINE
  8
0
 62
3
 10
5560.000000000091
 20
46.00000000048931
 30
0
 11
5504.000000000091
 21
46.00000000048931
 31
0
  0
LINE
  8
0
 62
3
 10
5504.000000000091
 20
60.00000000048931
 30
0
 11
5560.000000000091
 21
60.00000000048931
 31
0
  0
ARC
  8
1
 62
3
 10
5437.000000000095
 20
412.9000000000315
 30
0
 40
5
 50
90
 51
0
  0
ARC
  8
1
 62
3
 10
5437.000000000095
 20
2283.000000000193
 30
0
 40
5.000000000007276
 50
0
 51
270
  0
ARC
  8
0
 62
3
 10
5504.000000000091
 20
2642.999999999893
 30
0
 40
7
 50
90
 51
270
  0
ARC
  8
0
 62
3
 10
5560.000000000091
 20
2642.999999999893
 30
0
 40
7
 50
270
 51
90
  0
ARC
  8
0
 62
3
 10
5504.000000000091
 20
53.00000000048931
 30
0
 40
7
 50
90
 51
270
  0
ARC
  8
0
 62
3
 10
5560.000000000091
 20
53.00000000048931
 30
0
 40
7
 50
270
 51
90
  0
ARC
  8
1
 62
3
 10
4673.000000000095
 20
592.0000000004829
 30
0
 40
1
 50
90
 51
180
  0
ARC
  8
1
 62
3
 10
4673.000000000095
 20
4.000000000482032
 30
0
 40
1
 50
180
 51
270
  0
ARC
  8
1
 62
3
 10
5631.000000000095
 20
4.000000000482032
 30
0
 40
1
 50
270
 51
0
  0
ARC
  8
1
 62
3
 10
5631.000000000095
 20
411.9000000000315
 30
0
 40
1
 50
0
 51
90
  0
ARC
  8
1
 62
3
 10
5436.000000000102
 20
592.0000000004829
 30
0
 40
1
 50
0
 51
90
  0
ARC
  8
1
 62
3
 10
4673.000000000095
 20
2691.999999999898
 30
0
 40
1
 50
90
 51
180
  0
ARC
  8
1
 62
3
 10
4673.000000000095
 20
2103.999999999895
 30
0
 40
1
 50
180
 51
270
  0
ARC
  8
1
 62
3
 10
5436.000000000102
 20
2103.999999999894
 30
0
 40
1
 50
270
 51
0
  0
ARC
  8
1
 62
3
 10
5631.000000000095
 20
2284.000000000189
 30
0
 40
1
 50
270
 51
0
  0
ARC
  8
1
 62
3
 10
5631.000000000095
 20
2691.999999999893
 30
0
 40
1
 50
0
 51
90
  0
ENDBLK
  8
0
  0
BLOCK
  8
0
  2
93617-97
 70
0
 10
-15817.025484547
 20
16074.39106596605
 30
0
  0
INSERT
  8
0
  2
30_2_
 10
31405.34576560312
 20
159.1380368488499
 30
0
  0
INSERT
  8
0
  2
40_2_
 10
31405.34576560312
 20
4408.943297800137
 30
0
  0
INSERT
  8
0
  2
20_2_
 10
31405.34576560311
 20
4408.943297800082
 30
0
  0
INSERT
  8
0
  2
10_2_
 10
30692.34576560311
 20
4113.943297800275
 30
0
  0
ENDBLK
  8
0
  0
BLOCK
  8
0
  2
TOP
 70
0
 10
0
 20
0
 30
0
  0
INSERT
  8
0
  2
_FORMAT_A2
 10
8075.032
 20
1771.005000000002
 30
0
 41
50
 42
50
 43
50
  0
INSERT
  8
0
  2
FPLAN
 10
61687.97418118446
 20
26774.2676724551
 30
0
  0
INSERT
  8
0
  2
93617-97
 10
-15817.025484547
 20
16074.39106596605
 30
0
  0
ENDBLK
  8
0
  0
ENDSEC
  0
SECTION
  2
ENTITIES
  0
INSERT
  8
0
  2
TOP
 10
0
 20
0
 30
0
 41
0.02
 42
0.02
 43
0.02
  0
ENDSEC
  0
EOF

