  0
SECTION
  2
HEADER
  9
$ACADVER
  1
AC1012
  9
$DWGCODEPAGE
  3
dos932
  9
$INSBASE
 10
0.0
 20
0.0
 30
0.0
  9
$EXTMIN
 10
-71.672111
 20
26.414925
 30
1.000000E+20
  9
$EXTMAX
 10
296.348147
 20
155.598254
 30
-1.000000E+20
  9
$LIMMIN
 10
-71.672111
 20
26.414925
  9
$LIMMAX
 10
296.348147
 20
155.598254
  9
$ORTHOMODE
 70
     0
  9
$REGENMODE
 70
     1
  9
$FILLMODE
 70
     1
  9
$QTEXTMODE
 70
     0
  9
$MIRRTEXT
 70
     1
  9
$DRAGMODE
 70
     2
  9
$LTSCALE
 40
1.0
  9
$OSMODE
 70
     0
  9
$ATTMODE
 70
     1
  9
$TEXTSIZE
 40
0.2
  9
$TRACEWID
 40
0.05
  9
$TEXTSTYLE
  7
STANDARD
  9
$CLAYER
  8
0
  9
$CELTYPE
  6
CONTINUOUS
  9
$CECOLOR
 62
   256
  9
$CELTSCALE
 40
1.0
  9
$DELOBJ
 70
     1
  9
$DISPSILH
 70
     0
  9
$DIMSCALE
 40
1.0
  9
$DIMASZ
 40
0.18
  9
$DIMEXO
 40
0.0625
  9
$DIMDLI
 40
0.38
  9
$DIMRND
 40
0.0
  9
$DIMDLE
 40
0.0
  9
$DIMEXE
 40
0.18
  9
$DIMTP
 40
0.0
  9
$DIMTM
 40
0.0
  9
$DIMTXT
 40
0.18
  9
$DIMCEN
 40
0.09
  9
$DIMTSZ
 40
0.0
  9
$DIMTOL
 70
     0
  9
$DIMLIM
 70
     0
  9
$DIMTIH
 70
     1
  9
$DIMTOH
 70
     1
  9
$DIMSE1
 70
     0
  9
$DIMSE2
 70
     0
  9
$DIMTAD
 70
     0
  9
$DIMZIN
 70
     0
  9
$DIMBLK
  1

  9
$DIMASO
 70
     1
  9
$DIMSHO
 70
     1
  9
$DIMPOST
  1

  9
$DIMAPOST
  1

  9
$DIMALT
 70
     0
  9
$DIMALTD
 70
     2
  9
$DIMALTF
 40
25.4
  9
$DIMLFAC
 40
1.0
  9
$DIMTOFL
 70
     0
  9
$DIMTVP
 40
0.0
  9
$DIMTIX
 70
     0
  9
$DIMSOXD
 70
     0
  9
$DIMSAH
 70
     0
  9
$DIMBLK1
  1

  9
$DIMBLK2
  1

  9
$DIMSTYLE
  2
STANDARD
  9
$DIMCLRD
 70
     0
  9
$DIMCLRE
 70
     0
  9
$DIMCLRT
 70
     0
  9
$DIMTFAC
 40
1.0
  9
$DIMGAP
 40
0.09
  9
$DIMJUST
 70
     0
  9
$DIMSD1
 70
     0
  9
$DIMSD2
 70
     0
  9
$DIMTOLJ
 70
     1
  9
$DIMTZIN
 70
     0
  9
$DIMALTZ
 70
     0
  9
$DIMALTTZ
 70
     0
  9
$DIMFIT
 70
     3
  9
$DIMUPT
 70
     0
  9
$DIMUNIT
 70
     2
  9
$DIMDEC
 70
     4
  9
$DIMTDEC
 70
     4
  9
$DIMALTU
 70
     2
  9
$DIMALTTD
 70
     2
  9
$DIMTXSTY
  7
STANDARD
  9
$DIMAUNIT
 70
     0
  9
$LUNITS
 70
     2
  9
$LUPREC
 70
     4
  9
$SKETCHINC
 40
0.1
  9
$FILLETRAD
 40
0.0
  9
$AUNITS
 70
     0
  9
$AUPREC
 70
     0
  9
$MENU
  1
acad
  9
$ELEVATION
 40
0.0
  9
$PELEVATION
 40
0.0
  9
$THICKNESS
 40
0.0
  9
$LIMCHECK
 70
     0
  9
$BLIPMODE
 70
     1
  9
$CHAMFERA
 40
0.0
  9
$CHAMFERB
 40
0.0
  9
$CHAMFERC
 40
0.0
  9
$CHAMFERD
 40
0.0
  9
$SKPOLY
 70
     0
  9
$TDCREATE
 40
0.000000000
  9
$TDUPDATE
 40
0.000000000
  9
$TDINDWG
 40
0.0000000000
  9
$TDUSRTIMER
 40
0.0000000000
  9
$USRTIMER
 70
     1
  9
$ANGBASE
 50
0.0
  9
$ANGDIR
 70
     0
  9
$PDMODE
 70
     0
  9
$PDSIZE
 40
0.0
  9
$PLINEWID
 40
0.0
  9
$COORDS
 70
     0
  9
$SPLFRAME
 70
     0
  9
$SPLINETYPE
 70
     6
  9
$SPLINESEGS
 70
     8
  9
$ATTDIA
 70
     0
  9
$ATTREQ
 70
     1
  9
$HANDLING
 70
     1
  9
$HANDSEED
  5
36
  9
$SURFTAB1
 70
     6
  9
$SURFTAB2
 70
     6
  9
$SURFTYPE
 70
     6
  9
$SURFU
 70
     6
  9
$SURFV
 70
     6
  9
$UCSNAME
  2

  9
$UCSORG
 10
0.0
 20
0.0
 30
0.0
  9
$UCSXDIR
 10
1.0
 20
0.0
 30
0.0
  9
$UCSYDIR
 10
0.0
 20
1.0
 30
0.0
  9
$PUCSNAME
  2

  9
$PUCSORG
 10
0.0
 20
0.0
 30
0.0
  9
$PUCSXDIR
 10
1.0
 20
0.0
 30
0.0
  9
$PUCSYDIR
 10
0.0
 20
1.0
 30
0.0
  9
$USERI1
 70
     0
  9
$USERI2
 70
     0
  9
$USERI3
 70
     0
  9
$USERI4
 70
     0
  9
$USERI5
 70
     0
  9
$USERR1
 40
0.0
  9
$USERR2
 40
0.0
  9
$USERR3
 40
0.0
  9
$USERR4
 40
0.0
  9
$USERR5
 40
0.0
  9
$WORLDVIEW
 70
     1
  9
$SHADEDGE
 70
     3
  9
$SHADEDIF
 70
    70
  9
$TILEMODE
 70
     1
  9
$MAXACTVP
 70
    16
  9
$PINSBASE
 10
0.0
 20
0.0
 30
0.0
  9
$PLIMCHECK
 70
     0
  9
$PEXTMIN
 10
1.000000E+20
 20
1.000000E+20
 30
1.000000E+20
  9
$PEXTMAX
 10
-1.000000E+20
 20
-1.000000E+20
 30
-1.000000E+20
  9
$PLIMMIN
 10
0.0
 20
0.0
  9
$PLIMMAX
 10
12.0
 20
9.0
  9
$UNITMODE
 70
     0
  9
$VISRETAIN
 70
     0
  9
$PLINEGEN
 70
     1
  9
$PSLTSCALE
 70
     0
  9
$TREEDEPTH
 70
  3020
  9
$PICKSTYLE
 70
     1
  9
$CMLSTYLE
  2
STANDARD
  9
$CMLJUST
 70
     0
  9
$CMLSCALE
 40
1.0
  9
$SAVEIMAGES
 70
     0
  0
ENDSEC
  0
SECTION
  2
CLASSES
  0
CLASS
  1
LWPOLYLINE
  2
AcDbPolyline
  3
"AutoCAD"
 90
        0
280
     0
281
     1
  0
CLASS
  1
IMAGE
  2
AcDbRasterImage
  3
ISM
 90
      127
280
     0
281
     1
  0
CLASS
  1
OLE2FRAME
  2
AcDbOle2Frame
  3
""
 90
        0
280
     0
281
     1
  0
CLASS
  1
HATCH
  2
AcDbHatch
  3
"ACAD_SEDONA"
 90
        0
280
     0
281
     1
  0
CLASS
  1
DICTIONARYVAR
  2
AcDbDictionaryVar
  3
"AutoCAD"
 90
        0
280
     0
281
     0
  0
CLASS
  1
RASTERVARIABLES
  2
AcDbRasterVariables
  3
ISM
 90
        0
280
     0
281
     0
  0
CLASS
  1
IMAGEDEF
  2
AcDbRasterImageDef
  3
ISM
 90
        0
280
     0
281
     0
  0
CLASS
  1
IMAGEDEF_REACTOR
  2
AcDbRasterImageDefReactor
  3
ISM
 90
        1
280
     0
281
     0
  0
CLASS
  1
IDBUFFER
  2
AcDbIdBuffer
  3
"Acad"
 90
        0
280
     0
281
     0
  0
CLASS
  1
SPATIAL_FILTER
  2
AcDbSpatialFilter
  3
"Acad"
 90
        0
280
     0
281
     0
  0
CLASS
  1
XRECORD
  2
AcDbXrecord
  3
"<Built In>"
 90
        0
280
     0
281
     0
  0
CLASS
  1
SORTENTSTABLE
  2
AcDbSortentsTable
  3
"AutoCAD"
 90
        0
280
     0
281
     0
  0
CLASS
  1
LAYER_INDEX
  2
AcDbLayerIndex
  3
"Acad"
 90
        0
280
     0
281
     0
  0
CLASS
  1
SPATIAL_INDEX
  2
AcDbSpatialIndex
  3
"Acad"
 90
        0
280
     0
281
     0
  0
CLASS
  1
OBJECT_PTR
  2
CAseDLPNTableRecord
  3
"ASE-LPNTableRecord"
 90
        1
280
     0
281
     0
  0
CLASS
  1
LAYOUT
  2
AcDbLayout
  3
"AutoCAD 2000"
 90
        1
280
     0
281
     0
  0
CLASS
  1
PLOTSETTINGS
  2
AcDbPlotSettings
  3
"AutoCAD 2000"
 90
        1
280
     0
281
     0
  0
CLASS
  1
ACDBDICTIONARYWDFLT
  2
AcDbDictionaryWithDefault
  3
"AutoCAD 2000"
 90
        1
280
     0
281
     0
  0
CLASS
  1
ACDBPLACEHOLDER
  2
AcDbPlaceHolder
  3
"AutoCAD 2000"
 90
        1
280
     0
281
     0
  0
CLASS
  1
VBA_PROJECT
  2
AcDbVbaProject
  3
"acadvba"
 90
        1
280
     0
281
     0
  0
CLASS
  1
WIPEOUT
  2
AcDbWipeout
  3
WipeOut|AutoCAD Express Tool|expresstools@autodesk.com
 90
      127
280
     0
281
     1
  0
CLASS
  1
WIPEOUTVARIABLES
  2
AcDbWipeoutVariables
  3
WipeOut|AutoCAD Express Tool|expresstools@autodesk.com
 90
        0
280
     0
281
     0
  0
CLASS
  1
RTEXT
  2
RText
  3
RText|AutoCAD Express Tool|expresstools@autodesk.com
 90
        0
280
     0
281
     1
  0
CLASS
  1
ARCALIGNEDTEXT
  2
AcDbArcAlignedText
  3
ATEXT|AutoCAD Express Tool|expresstools@autodesk.com
 90
        0
280
     0
281
     1
  0
ENDSEC
  0
SECTION
  2
TABLES
  0
TABLE
  2
VPORT
  5
7
100
AcDbSymbolTable
 70
     1
  0
VPORT
  5
15
100
AcDbSymbolTableRecord
100
AcDbViewportTableRecord
  2
*ACTIVE
 70
     0
 10
0.0
 20
0.0
 11
1.0
 21
1.0
 12
6.591288
 22
4.579184
 13
0.0
 23
0.0
 14
1.0
 24
1.0
 15
0.0
 25
0.0
 16
0.0
 26
0.0
 36
1.0
 17
0.0
 27
0.0
 37
0.0
 40
9.158369
 41
0.688564
 42
50.0
 43
0.0
 44
0.0
 50
0.0
 51
0.0
 71
     0
 72
   100
 73
     1
 74
     1
 75
     0
 76
     0
 77
     0
 78
     0
  0
ENDTAB
  0
TABLE
  2
LTYPE
  5
4
100
AcDbSymbolTable
 70
     3
  0
LTYPE
  5
11
100
AcDbSymbolTableRecord
100
AcDbLinetypeTableRecord
  2
BYBLOCK
 70
    64
  3

 72
    65
 73
     0
 40
0.0
  0
LTYPE
  5
12
100
AcDbSymbolTableRecord
100
AcDbLinetypeTableRecord
  2
BYLAYER
 70
    64
  3

 72
    65
 73
     0
 40
0.0
  0
LTYPE
  5
13
100
AcDbSymbolTableRecord
100
AcDbLinetypeTableRecord
  2
CONTINUOUS
 70
    64
  3
Solid line
 72
    65
 73
     0
 40
0.0
  0
ENDTAB
  0
TABLE
  2
LAYER
  5
2
100
AcDbSymbolTable
 70
     2
  0
LAYER
  5
14
100
AcDbSymbolTableRecord
100
AcDbLayerTableRecord
  2
0
 70
     0
 62
     7
  6
CONTINUOUS
  0
LAYER
  5
21
100
AcDbSymbolTableRecord
100
AcDbLayerTableRecord
  2
レイヤー_1
 70
     0
 62
   160
  6
CONTINUOUS
  0
ENDTAB
  0
TABLE
  2
STYLE
  5
3
100
AcDbSymbolTable
 70
     5
  0
STYLE
  5
17
100
AcDbSymbolTableRecord
100
AcDbTextStyleTableRecord
  2
STANDARD
 70
     0
 40
0.0
 41
1.0
 50
0.0
 71
     0
 42
0.0
  3
txt
  4

  0
STYLE
  5
1D
100
AcDbSymbolTableRecord
100
AcDbTextStyleTableRecord
  2
STD
 70
     0
 40
0.0
 41
1.0
 50
0.0
 71
     0
 42
0.0
  3
txt
  4

  0
STYLE
  5
1E
100
AcDbSymbolTableRecord
100
AcDbTextStyleTableRecord
  2
TATESTD
 70
     4
 40
0.0
 41
1.0
 50
0.0
 71
     0
 42
0.0
  3
txt
  4

  0
STYLE
  5
1F
100
AcDbSymbolTableRecord
100
AcDbTextStyleTableRecord
  2
KANJISTD
 70
     0
 40
0.0
 41
1.0
 50
0.0
 71
     0
 42
0.0
  3
txt
  4
extfont
  0
STYLE
  5
20
100
AcDbSymbolTableRecord
100
AcDbTextStyleTableRecord
  2
KANJITATE
 70
     4
 40
0.0
 41
1.0
 50
0.0
 71
     0
 42
0.0
  3
txt
  4
extfont
  0
ENDTAB
  0
TABLE
  2
VIEW
  5
5
100
AcDbSymbolTable
 70
     0
  0
ENDTAB
  0
TABLE
  2
UCS
  5
6
100
AcDbSymbolTable
 70
     0
  0
ENDTAB
  0
TABLE
  2
APPID
  5
8
100
AcDbSymbolTable
 70
     1
  0
APPID
  5
16
100
AcDbSymbolTableRecord
100
AcDbRegAppTableRecord
  2
ACAD
 70
     0
  0
ENDTAB
  0
TABLE
  2
DIMSTYLE
  5
9
100
AcDbSymbolTable
 70
     1
  0
DIMSTYLE
105
18
100
AcDbSymbolTableRecord
100
AcDbDimStyleTableRecord
  2
STANDARD
 70
     0
  3

  4

  5

  6

  7

 40
1.0
 41
0.18
 42
0.0625
 43
0.38
 44
0.18
 45
0.0
 46
0.0
 47
0.0
 48
0.0
 71
     0
 72
     0
 73
     1
 74
     1
 75
     0
 76
     0
 77
     0
 78
     0
140
0.18
141
0.09
142
0.0
143
25.4
144
1.0
145
0.0
146
1.0
147
0.09
170
     0
171
     2
172
     0
173
     0
174
     0
175
     0
176
     0
177
     0
178
     0
270
     2
271
     4
272
     4
273
     2
274
     2
275
     0
280
     0
281
     0
282
     0
283
     1
284
     0
285
     0
286
     0
287
     0
288
     0
340
17
  0
ENDTAB
  0
TABLE
  2
BLOCK_RECORD
  5
1
100
AcDbSymbolTable
 70
     2
  0
BLOCK_RECORD
  5
A
100
AcDbSymbolTableRecord
100
AcDbBlockTableRecord
  2
*MODEL_SPACE
  0
BLOCK_RECORD
  5
B
100
AcDbSymbolTableRecord
100
AcDbBlockTableRecord
  2
*PAPER_SPACE
  0
BLOCK_RECORD
  5
23
100
AcDbSymbolTableRecord
100
AcDbBlockTableRecord
  2
AI9-BLK1
  0
BLOCK_RECORD
  5
2B
100
AcDbSymbolTableRecord
100
AcDbBlockTableRecord
  2
AI9-BLK2
  0
ENDTAB
  0
ENDSEC
  0
SECTION
  2
BLOCKS
  0
BLOCK
  5
D
100
AcDbEntity
  8
0
100
AcDbBlockBegin
  2
*MODEL_SPACE
 70
     0
 10
0.0
 20
0.0
 30
0.0
  3
*MODEL_SPACE
  1

  0
ENDBLK
  5
E
100
AcDbEntity
  8
0
100
AcDbBlockEnd
  0
BLOCK
  5
F
100
AcDbEntity
 67
     1
  8
0
100
AcDbBlockBegin
  2
*PAPER_SPACE
 70
     0
 10
0.0
 20
0.0
 30
0.0
  3
*PAPER_SPACE
  1

  0
ENDBLK
  5
10
100
AcDbEntity
 67
     1
  8
0
100
AcDbBlockEnd
  0
BLOCK
  5
25
100
AcDbEntity
  8
レイヤー_1
 62
     7
100
AcDbBlockBegin
  2
AI9-BLK1
 70
     0
 10
0.0
 20
0.0
 30
0.0
  3
AI9-BLK1
  1

  0
CIRCLE
  5
26
100
AcDbEntity
  8
レイヤー_1
 62
     7
100
AcDbCircle
 10
-0.001378
 20
0.0
 30
0.0
 40
10.021008
  0
ENDBLK
  5
27
100
AcDbEntity
  8
レイヤー_1
100
AcDbBlockEnd
  0
BLOCK
  5
2D
100
AcDbEntity
  8
レイヤー_1
 62
     7
100
AcDbBlockBegin
  2
AI9-BLK2
 70
     0
 10
0.0
 20
0.0
 30
0.0
  3
AI9-BLK2
  1

  0
CIRCLE
  5
2E
100
AcDbEntity
  8
レイヤー_1
 62
     7
100
AcDbCircle
 10
-0.001378
 20
0.0
 30
0.0
 40
10.020749
  0
ENDBLK
  5
2F
100
AcDbEntity
  8
レイヤー_1
100
AcDbBlockEnd
  0
ENDSEC
  0
SECTION
  2
ENTITIES
  0
CIRCLE
  5
33
100
AcDbEntity
  8
レイヤー_1
 62
     7
100
AcDbCircle
 10
5.268585
 20
112.638086
 30
0.0
 40
8.297168
  0
SPLINE
  5
32
100
AcDbEntity
  8
レイヤー_1
 62
     7
100
AcDbSpline
210
0.0
220
0.0
230
1.0
 70
     8
 71
     3
 72
    29
 73
    25
 74
     0
 42
0.00000001
 43
0.00000001
 40
0.0
 40
0.0
 40
0.0
 40
0.0
 40
1.0
 40
1.0
 40
1.0
 40
2.0
 40
2.0
 40
2.0
 40
3.0
 40
3.0
 40
3.0
 40
4.0
 40
4.0
 40
4.0
 40
5.0
 40
5.0
 40
5.0
 40
6.0
 40
6.0
 40
6.0
 40
7.0
 40
7.0
 40
7.0
 40
8.0
 40
8.0
 40
8.0
 40
8.0
 10
37.149498155381941
 20
52.051947699652771
 30
0.0
 10
33.562464735243054
 20
40.023052300347217
 30
0.0
 10
24.282066514756941
 20
32.20130750868055
 30
0.0
 10
13.175767686631943
 20
32.20130750868055
 30
0.0
 10
0.3889512803819444
 20
32.20130750868055
 30
0.0
 10
-9.9766520182291654
 20
42.568977864583331
 30
0.0
 10
-9.9766520182291654
 20
55.354416232638883
 30
0.0
 10
-9.9766520182291654
 20
63.772162543402771
 30
0.0
 10
-4.1950927734374996
 20
72.236762152777771
 30
0.0
 10
0.8319905598958333
 20
75.299452039930543
 30
0.0
 10
0.8319905598958333
 20
75.299452039930543
 30
0.0
 10
-1.0166476779513889
 20
80.474674479166666
 30
0.0
 10
-1.0166476779513889
 20
80.474674479166666
 30
0.0
 10
-9.0499213324652761
 20
76.799446614583331
 30
0.0
 10
-15.765790473090277
 20
66.86172417534722
 30
0.0
 10
-15.765790473090277
 20
55.354416232638883
 30
0.0
 10
-15.765790473090277
 20
39.371240234374994
 30
0.0
 10
-2.8080973307291663
 20
26.414925130208331
 30
0.0
 10
13.175767686631943
 20
26.414925130208331
 30
0.0
 10
24.435717773437499
 20
26.414925130208331
 30
0.0
 10
34.193606228298606
 20
32.844162326388883
 30
0.0
 10
40.316918945312494
 20
43.827126736111104
 30
0.0
 10
40.316918945312494
 20
43.827126736111104
 30
0.0
 10
37.149498155381941
 20
52.051947699652771
 30
0.0
 10
37.149498155381941
 20
52.051947699652771
 30
0.0
  0
SPLINE
  5
31
100
AcDbEntity
  8
レイヤー_1
 62
     7
100
AcDbSpline
210
0.0
220
0.0
230
1.0
 70
     8
 71
     3
 72
    80
 73
    76
 74
     0
 42
0.00000001
 43
0.00000001
 40
0.0
 40
0.0
 40
0.0
 40
0.0
 40
1.0
 40
1.0
 40
1.0
 40
2.0
 40
2.0
 40
2.0
 40
3.0
 40
3.0
 40
3.0
 40
4.0
 40
4.0
 40
4.0
 40
5.0
 40
5.0
 40
5.0
 40
6.0
 40
6.0
 40
6.0
 40
7.0
 40
7.0
 40
7.0
 40
8.0
 40
8.0
 40
8.0
 40
9.0
 40
9.0
 40
9.0
 40
10.0
 40
10.0
 40
10.0
 40
11.0
 40
11.0
 40
11.0
 40
12.0
 40
12.0
 40
12.0
 40
13.0
 40
13.0
 40
13.0
 40
14.0
 40
14.0
 40
14.0
 40
15.0
 40
15.0
 40
15.0
 40
16.0
 40
16.0
 40
16.0
 40
17.0
 40
17.0
 40
17.0
 40
18.0
 40
18.0
 40
18.0
 40
19.0
 40
19.0
 40
19.0
 40
20.0
 40
20.0
 40
20.0
 40
21.0
 40
21.0
 40
21.0
 40
22.0
 40
22.0
 40
22.0
 40
23.0
 40
23.0
 40
23.0
 40
24.0
 40
24.0
 40
24.0
 40
25.0
 40
25.0
 40
25.0
 40
25.0
 10
58.114282226562494
 20
37.998025173611104
 30
0.0
 10
58.114282226562494
 20
37.998025173611104
 30
0.0
 10
44.582636176215274
 20
70.177973090277774
 30
0.0
 10
44.582636176215274
 20
70.177973090277774
 30
0.0
 10
44.582636176215274
 20
70.177973090277774
 30
0.0
 10
44.576435004340276
 20
70.175217013888883
 30
0.0
 10
44.576435004340276
 20
70.175217013888883
 30
0.0
 10
43.837806532118051
 20
71.89776475694444
 30
0.0
 10
42.129039171006937
 20
73.104926215277771
 30
0.0
 10
40.135017903645831
 20
73.104926215277771
 30
0.0
 10
40.117103407118051
 20
73.104926215277771
 30
0.0
 10
40.10125596788194
 20
73.103548177083326
 30
0.0
 10
40.08334147135416
 20
73.103548177083326
 30
0.0
 10
40.08334147135416
 20
73.103548177083326
 30
0.0
 10
22.655981445312499
 20
73.103548177083326
 30
0.0
 10
22.655981445312499
 20
73.103548177083326
 30
0.0
 10
22.655292426215276
 20
73.110438368055554
 30
0.0
 10
22.65391438802083
 20
73.116639539930546
 30
0.0
 10
22.651158311631942
 20
73.12490776909722
 30
0.0
 10
22.651158311631942
 20
73.12490776909722
 30
0.0
 10
19.958471679687499
 20
83.3161892361111
 30
0.0
 10
19.958471679687499
 20
83.3161892361111
 30
0.0
 10
19.958471679687499
 20
83.3161892361111
 30
0.0
 10
34.930167643229161
 20
83.3161892361111
 30
0.0
 10
34.930167643229161
 20
83.3161892361111
 30
0.0
 10
35.02525227864583
 20
83.308610026041663
 30
0.0
 10
35.11826985677083
 20
83.305853949652771
 30
0.0
 10
35.214043511284721
 20
83.305853949652771
 30
0.0
 10
37.517434353298604
 20
83.305853949652771
 30
0.0
 10
39.384676106770833
 20
85.171717664930554
 30
0.0
 10
39.384676106770833
 20
87.475108506944437
 30
0.0
 10
39.384676106770833
 20
89.780566406249989
 30
0.0
 10
37.517434353298604
 20
91.647119140624994
 30
0.0
 10
35.214043511284721
 20
91.647119140624994
 30
0.0
 10
35.205086263020831
 20
91.647119140624994
 30
0.0
 10
35.19819607204861
 20
91.647119140624994
 30
0.0
 10
35.191305881076389
 20
91.647119140624994
 30
0.0
 10
35.191305881076389
 20
91.647119140624994
 30
0.0
 10
35.191305881076389
 20
91.665722656249997
 30
0.0
 10
35.191305881076389
 20
91.665722656249997
 30
0.0
 10
35.191305881076389
 20
91.665722656249997
 30
0.0
 10
17.751543511284719
 20
91.665722656249997
 30
0.0
 10
17.751543511284719
 20
91.665722656249997
 30
0.0
 10
17.751543511284719
 20
91.665722656249997
 30
0.0
 10
16.506486002604166
 20
96.382058376736097
 30
0.0
 10
16.506486002604166
 20
96.382058376736097
 30
0.0
 10
15.23662380642361
 20
101.11424153645832
 30
0.0
 10
10.370081922743054
 20
103.92475043402777
 30
0.0
 10
5.637898763020833
 20
102.65695529513889
 30
0.0
 10
0.9064046223958333
 20
101.38916015624999
 30
0.0
 10
-1.9047932942708332
 20
96.523307291666654
 30
0.0
 10
-0.6342420789930555
 20
91.789746093749997
 30
0.0
 10
-0.6342420789930555
 20
91.789746093749997
 30
0.0
 10
5.5097412109374995
 20
68.532595486111106
 30
0.0
 10
5.5097412109374995
 20
68.532595486111106
 30
0.0
 10
6.7782253689236107
 20
63.799034288194441
 30
0.0
 10
11.643389214409721
 20
60.989903428819439
 30
0.0
 10
16.376950412326387
 20
62.25907660590277
 30
0.0
 10
17.337443033854164
 20
62.51608072916666
 30
0.0
 10
18.218698459201388
 20
62.920534939236106
 30
0.0
 10
19.002113172743055
 20
63.442811414930553
 30
0.0
 10
19.002113172743055
 20
63.442811414930553
 30
0.0
 10
38.044533962673604
 20
63.442811414930553
 30
0.0
 10
38.044533962673604
 20
63.442811414930553
 30
0.0
 10
38.044533962673604
 20
63.442811414930553
 30
0.0
 10
50.17816026475694
 20
34.360004340277776
 30
0.0
 10
50.17816026475694
 20
34.360004340277776
 30
0.0
 10
50.75831434461805
 20
32.611273871527771
 30
0.0
 10
52.404380967881941
 20
31.352435980902776
 30
0.0
 10
54.34603678385416
 20
31.352435980902776
 30
0.0
 10
56.770694986979159
 20
31.352435980902776
 30
0.0
 10
58.736466471354163
 20
33.31751844618055
 30
0.0
 10
58.736466471354163
 20
35.742865668402771
 30
0.0
 10
58.736466471354163
 20
36.566932508680551
 30
0.0
 10
58.509090169270827
 20
37.337944878472221
 30
0.0
 10
58.114282226562494
 20
37.998025173611104
 30
0.0
  0
SPLINE
  5
30
100
AcDbEntity
  8
レイヤー_1
 62
     7
100
AcDbSpline
210
0.0
220
0.0
230
1.0
 70
     8
 71
     3
 72
    80
 73
    76
 74
     0
 42
0.00000001
 43
0.00000001
 40
0.0
 40
0.0
 40
0.0
 40
0.0
 40
1.0
 40
1.0
 40
1.0
 40
2.0
 40
2.0
 40
2.0
 40
3.0
 40
3.0
 40
3.0
 40
4.0
 40
4.0
 40
4.0
 40
5.0
 40
5.0
 40
5.0
 40
6.0
 40
6.0
 40
6.0
 40
7.0
 40
7.0
 40
7.0
 40
8.0
 40
8.0
 40
8.0
 40
9.0
 40
9.0
 40
9.0
 40
10.0
 40
10.0
 40
10.0
 40
11.0
 40
11.0
 40
11.0
 40
12.0
 40
12.0
 40
12.0
 40
13.0
 40
13.0
 40
13.0
 40
14.0
 40
14.0
 40
14.0
 40
15.0
 40
15.0
 40
15.0
 40
16.0
 40
16.0
 40
16.0
 40
17.0
 40
17.0
 40
17.0
 40
18.0
 40
18.0
 40
18.0
 40
19.0
 40
19.0
 40
19.0
 40
20.0
 40
20.0
 40
20.0
 40
21.0
 40
21.0
 40
21.0
 40
22.0
 40
22.0
 40
22.0
 40
23.0
 40
23.0
 40
23.0
 40
24.0
 40
24.0
 40
24.0
 40
25.0
 40
25.0
 40
25.0
 40
25.0
 10
-46.961819118923607
 20
77.792323133680554
 30
0.0
 10
-45.595494249131939
 20
77.792323133680554
 30
0.0
 10
-44.488929578993051
 20
76.68575846354166
 30
0.0
 10
-44.488929578993051
 20
75.320811631944437
 30
0.0
 10
-44.488929578993051
 20
75.320811631944437
 30
0.0
 10
-44.48203938802083
 20
31.960839843749998
 30
0.0
 10
-44.48203938802083
 20
31.960839843749998
 30
0.0
 10
-44.48203938802083
 20
28.898838975694442
 30
0.0
 10
-41.998814561631939
 20
26.414925130208331
 30
0.0
 10
-38.935435655381944
 20
26.414925130208331
 30
0.0
 10
-35.872745768229166
 20
26.414925130208331
 30
0.0
 10
-33.389520941840274
 20
28.898838975694442
 30
0.0
 10
-33.389520941840274
 20
31.960839843749998
 30
0.0
 10
-33.389520941840274
 20
31.960839843749998
 30
0.0
 10
-33.406057400173609
 20
111.10157335069444
 30
0.0
 10
-33.406057400173609
 20
111.10157335069444
 30
0.0
 10
-33.406057400173609
 20
111.86982964409721
 30
0.0
 10
-32.78387315538194
 20
112.49201388888888
 30
0.0
 10
-32.014927842881939
 20
112.49201388888888
 30
0.0
 10
-31.246671549479164
 20
112.49201388888888
 30
0.0
 10
-30.623798285590276
 20
111.86982964409721
 30
0.0
 10
-30.623798285590276
 20
111.10157335069444
 30
0.0
 10
-30.623798285590276
 20
111.10157335069444
 30
0.0
 10
-30.645846896701386
 20
83.087434895833326
 30
0.0
 10
-30.645846896701386
 20
83.087434895833326
 30
0.0
 10
-30.645846896701386
 20
81.342838541666666
 30
0.0
 10
-29.725317382812499
 20
78.874772135416663
 30
0.0
 10
-26.657804361979164
 20
78.788644748263877
 30
0.0
 10
-23.589602322048609
 20
78.703206380208329
 30
0.0
 10
-22.250149197048611
 20
81.342838541666666
 30
0.0
 10
-22.250149197048611
 20
83.087434895833326
 30
0.0
 10
-22.250149197048611
 20
83.087434895833326
 30
0.0
 10
-22.250149197048611
 20
118.35005425347221
 30
0.0
 10
-22.250149197048611
 20
118.35005425347221
 30
0.0
 10
-22.250149197048611
 20
122.97750651041666
 30
0.0
 10
-28.104055447048609
 20
126.72921549479166
 30
0.0
 10
-32.731507703993053
 20
126.72921549479166
 30
0.0
 10
-32.731507703993053
 20
126.72921549479166
 30
0.0
 10
-61.191441514756939
 20
126.72921549479166
 30
0.0
 10
-61.191441514756939
 20
126.72921549479166
 30
0.0
 10
-65.818893771701383
 20
126.72921549479166
 30
0.0
 10
-71.672111002604154
 20
122.97750651041666
 30
0.0
 10
-71.672111002604154
 20
118.35005425347221
 30
0.0
 10
-71.672111002604154
 20
118.35005425347221
 30
0.0
 10
-71.672111002604154
 20
83.087434895833326
 30
0.0
 10
-71.672111002604154
 20
83.087434895833326
 30
0.0
 10
-71.672111002604154
 20
81.342838541666666
 30
0.0
 10
-70.87215983072916
 20
78.788644748263877
 30
0.0
 10
-67.265833875868054
 20
78.788644748263877
 30
0.0
 10
-64.636537000868046
 20
78.788644748263877
 30
0.0
 10
-63.277791341145829
 20
81.342838541666666
 30
0.0
 10
-63.277791341145829
 20
83.087434895833326
 30
0.0
 10
-63.277791341145829
 20
83.087434895833326
 30
0.0
 10
-63.298461914062493
 20
111.10157335069444
 30
0.0
 10
-63.298461914062493
 20
111.10157335069444
 30
0.0
 10
-63.298461914062493
 20
111.86982964409721
 30
0.0
 10
-62.676277669270824
 20
112.49201388888888
 30
0.0
 10
-61.908021375868053
 20
112.49201388888888
 30
0.0
 10
-61.140454101562497
 20
112.49201388888888
 30
0.0
 10
-60.516891818576383
 20
111.86982964409721
 30
0.0
 10
-60.516891818576383
 20
111.10157335069444
 30
0.0
 10
-60.516891818576383
 20
111.10157335069444
 30
0.0
 10
-60.533428276909717
 20
31.960839843749998
 30
0.0
 10
-60.533428276909717
 20
31.960839843749998
 30
0.0
 10
-60.533428276909717
 20
28.898838975694442
 30
0.0
 10
-58.049514431423603
 20
26.414925130208331
 30
0.0
 10
-54.987513563368047
 20
26.414925130208331
 30
0.0
 10
-51.92344563802083
 20
26.414925130208331
 30
0.0
 10
-49.43815375434027
 20
28.898838975694442
 30
0.0
 10
-49.43815375434027
 20
31.960839843749998
 30
0.0
 10
-49.43815375434027
 20
31.960839843749998
 30
0.0
 10
-49.43815375434027
 20
75.320811631944437
 30
0.0
 10
-49.43815375434027
 20
75.320811631944437
 30
0.0
 10
-49.43815375434027
 20
76.68575846354166
 30
0.0
 10
-48.32676595052083
 20
77.792323133680554
 30
0.0
 10
-46.961819118923607
 20
77.792323133680554
 30
0.0
  0
INSERT
  5
2C
100
AcDbEntity
  8
レイヤー_1
 62
     7
100
AcDbBlockReference
  2
AI9-BLK2
 10
-46.679321
 20
140.517521
 30
0.0
  0
CIRCLE
  5
2A
100
AcDbEntity
  8
レイヤー_1
 62
     7
100
AcDbCircle
 10
242.880265
 20
117.454329
 30
0.0
 40
8.297168
  0
SPLINE
  5
29
100
AcDbEntity
  8
レイヤー_1
 62
     7
100
AcDbSpline
210
0.0
220
0.0
230
1.0
 70
     8
 71
     3
 72
    29
 73
    25
 74
     0
 42
0.00000001
 43
0.00000001
 40
0.0
 40
0.0
 40
0.0
 40
0.0
 40
1.0
 40
1.0
 40
1.0
 40
2.0
 40
2.0
 40
2.0
 40
3.0
 40
3.0
 40
3.0
 40
4.0
 40
4.0
 40
4.0
 40
5.0
 40
5.0
 40
5.0
 40
6.0
 40
6.0
 40
6.0
 40
7.0
 40
7.0
 40
7.0
 40
8.0
 40
8.0
 40
8.0
 40
8.0
 10
274.76117892795139
 20
56.867502170138884
 30
0.0
 10
271.17483452690971
 20
44.83860677083333
 30
0.0
 10
261.89443630642359
 20
37.016861979166663
 30
0.0
 10
250.78744845920136
 20
37.016861979166663
 30
0.0
 10
238.00063205295137
 20
37.016861979166663
 30
0.0
 10
227.63502875434025
 20
47.38522135416666
 30
0.0
 10
227.63502875434025
 20
60.170659722222219
 30
0.0
 10
227.63502875434025
 20
68.587717013888877
 30
0.0
 10
233.41727701822916
 20
77.051627604166654
 30
0.0
 10
238.44436035156247
 20
80.115006510416663
 30
0.0
 10
238.44436035156247
 20
80.115006510416663
 30
0.0
 10
236.59503309461803
 20
85.290917968749994
 30
0.0
 10
236.59503309461803
 20
85.290917968749994
 30
0.0
 10
228.56244845920136
 20
81.61569010416666
 30
0.0
 10
221.84589029947915
 20
71.677278645833326
 30
0.0
 10
221.84589029947915
 20
60.170659722222219
 30
0.0
 10
221.84589029947915
 20
44.186794704861107
 30
0.0
 10
234.80427246093748
 20
31.230479600694441
 30
0.0
 10
250.78744845920136
 20
31.230479600694441
 30
0.0
 10
262.04739854600695
 20
31.230479600694441
 30
0.0
 10
271.80597601996527
 20
37.660405815972219
 30
0.0
 10
277.92928873697912
 20
48.64337022569444
 30
0.0
 10
277.92928873697912
 20
48.64337022569444
 30
0.0
 10
274.76117892795139
 20
56.867502170138884
 30
0.0
 10
274.76117892795139
 20
56.867502170138884
 30
0.0
  0
SPLINE
  5
28
100
AcDbEntity
  8
レイヤー_1
 62
     7
100
AcDbSpline
210
0.0
220
0.0
230
1.0
 70
     8
 71
     3
 72
    80
 73
    76
 74
     0
 42
0.00000001
 43
0.00000001
 40
0.0
 40
0.0
 40
0.0
 40
0.0
 40
1.0
 40
1.0
 40
1.0
 40
2.0
 40
2.0
 40
2.0
 40
3.0
 40
3.0
 40
3.0
 40
4.0
 40
4.0
 40
4.0
 40
5.0
 40
5.0
 40
5.0
 40
6.0
 40
6.0
 40
6.0
 40
7.0
 40
7.0
 40
7.0
 40
8.0
 40
8.0
 40
8.0
 40
9.0
 40
9.0
 40
9.0
 40
10.0
 40
10.0
 40
10.0
 40
11.0
 40
11.0
 40
11.0
 40
12.0
 40
12.0
 40
12.0
 40
13.0
 40
13.0
 40
13.0
 40
14.0
 40
14.0
 40
14.0
 40
15.0
 40
15.0
 40
15.0
 40
16.0
 40
16.0
 40
16.0
 40
17.0
 40
17.0
 40
17.0
 40
18.0
 40
18.0
 40
18.0
 40
19.0
 40
19.0
 40
19.0
 40
20.0
 40
20.0
 40
20.0
 40
21.0
 40
21.0
 40
21.0
 40
22.0
 40
22.0
 40
22.0
 40
23.0
 40
23.0
 40
23.0
 40
24.0
 40
24.0
 40
24.0
 40
25.0
 40
25.0
 40
25.0
 40
25.0
 10
295.72596299913192
 20
42.81426866319444
 30
0.0
 10
295.72596299913192
 20
42.81426866319444
 30
0.0
 10
282.19500596788191
 20
74.994216579861103
 30
0.0
 10
282.19500596788191
 20
74.994216579861103
 30
0.0
 10
282.19500596788191
 20
74.994216579861103
 30
0.0
 10
282.18811577690968
 20
74.991460503472211
 30
0.0
 10
282.18811577690968
 20
74.991460503472211
 30
0.0
 10
281.45017632378472
 20
76.714008246527769
 30
0.0
 10
279.74071994357638
 20
77.9211697048611
 30
0.0
 10
277.74738769531245
 20
77.9211697048611
 30
0.0
 10
277.72947319878472
 20
77.9211697048611
 30
0.0
 10
277.71293674045137
 20
77.919791666666654
 30
0.0
 10
277.69502224392357
 20
77.919791666666654
 30
0.0
 10
277.69502224392357
 20
77.919791666666654
 30
0.0
 10
260.26835123697913
 20
77.919791666666654
 30
0.0
 10
260.26835123697913
 20
77.919791666666654
 30
0.0
 10
260.26697319878468
 20
77.926681857638883
 30
0.0
 10
260.26628417968749
 20
77.932194010416666
 30
0.0
 10
260.2635281032986
 20
77.940462239583326
 30
0.0
 10
260.2635281032986
 20
77.940462239583326
 30
0.0
 10
257.57015245225693
 20
88.132432725694443
 30
0.0
 10
257.57015245225693
 20
88.132432725694443
 30
0.0
 10
257.57015245225693
 20
88.132432725694443
 30
0.0
 10
272.54253743489579
 20
88.132432725694443
 30
0.0
 10
272.54253743489579
 20
88.132432725694443
 30
0.0
 10
272.63762207031249
 20
88.124164496527769
 30
0.0
 10
272.73063964843749
 20
88.121408420138877
 30
0.0
 10
272.82572428385413
 20
88.121408420138877
 30
0.0
 10
275.12980414496525
 20
88.121408420138877
 30
0.0
 10
276.99635687934023
 20
89.98727213541666
 30
0.0
 10
276.99635687934023
 20
92.291351996527766
 30
0.0
 10
276.99635687934023
 20
94.596809895833331
 30
0.0
 10
275.12980414496525
 20
96.4626736111111
 30
0.0
 10
272.82572428385413
 20
96.4626736111111
 30
0.0
 10
272.81745605468745
 20
96.4626736111111
 30
0.0
 10
272.81056586371523
 20
96.4626736111111
 30
0.0
 10
272.8029866536458
 20
96.4626736111111
 30
0.0
 10
272.8029866536458
 20
96.4626736111111
 30
0.0
 10
272.8029866536458
 20
96.481966145833326
 30
0.0
 10
272.8029866536458
 20
96.481966145833326
 30
0.0
 10
272.8029866536458
 20
96.481966145833326
 30
0.0
 10
255.36391330295137
 20
96.481966145833326
 30
0.0
 10
255.36391330295137
 20
96.481966145833326
 30
0.0
 10
255.36391330295137
 20
96.481966145833326
 30
0.0
 10
254.11816677517359
 20
101.19761284722222
 30
0.0
 10
254.11816677517359
 20
101.19761284722222
 30
0.0
 10
252.84899359809026
 20
105.92979600694443
 30
0.0
 10
247.98245171440971
 20
108.7409939236111
 30
0.0
 10
243.25026855468747
 20
107.47319878472221
 30
0.0
 10
238.51808539496525
 20
106.20540364583333
 30
0.0
 10
235.70757649739582
 20
101.33955078125
 30
0.0
 10
236.9781277126736
 20
96.605989583333326
 30
0.0
 10
236.9781277126736
 20
96.605989583333326
 30
0.0
 10
243.12211100260416
 20
73.348838975694434
 30
0.0
 10
243.12211100260416
 20
73.348838975694434
 30
0.0
 10
244.39059516059027
 20
68.615277777777777
 30
0.0
 10
249.25575900607637
 20
65.805457899305551
 30
0.0
 10
253.98863118489581
 20
67.074631076388883
 30
0.0
 10
254.94981282552081
 20
67.332324218749989
 30
0.0
 10
255.83106825086804
 20
67.736089409722211
 30
0.0
 10
256.61379394531247
 20
68.258365885416666
 30
0.0
 10
256.61379394531247
 20
68.258365885416666
 30
0.0
 10
275.65690375434025
 20
68.258365885416666
 30
0.0
 10
275.65690375434025
 20
68.258365885416666
 30
0.0
 10
275.65690375434025
 20
68.258365885416666
 30
0.0
 10
287.79053005642356
 20
39.176247829861104
 30
0.0
 10
287.79053005642356
 20
39.176247829861104
 30
0.0
 10
288.37068413628469
 20
37.427517361111107
 30
0.0
 10
290.01675075954859
 20
36.167990451388889
 30
0.0
 10
291.95771755642357
 20
36.167990451388889
 30
0.0
 10
294.38237575954861
 20
36.167990451388889
 30
0.0
 10
296.34814724392356
 20
38.133072916666663
 30
0.0
 10
296.34814724392356
 20
40.558420138888884
 30
0.0
 10
296.34814724392356
 20
41.382486979166664
 30
0.0
 10
296.12077094184025
 20
42.15418836805555
 30
0.0
 10
295.72596299913192
 20
42.81426866319444
 30
0.0
  0
INSERT
  5
24
100
AcDbEntity
  8
レイヤー_1
 62
     7
100
AcDbBlockReference
  2
AI9-BLK1
 10
186.069263
 20
145.577247
 30
0.0
  0
SPLINE
  5
22
100
AcDbEntity
  8
レイヤー_1
 62
     7
100
AcDbSpline
210
0.0
220
0.0
230
1.0
 70
     8
 71
     3
 72
    98
 73
    94
 74
     0
 42
0.00000001
 43
0.00000001
 40
0.0
 40
0.0
 40
0.0
 40
0.0
 40
1.0
 40
1.0
 40
1.0
 40
2.0
 40
2.0
 40
2.0
 40
3.0
 40
3.0
 40
3.0
 40
4.0
 40
4.0
 40
4.0
 40
5.0
 40
5.0
 40
5.0
 40
6.0
 40
6.0
 40
6.0
 40
7.0
 40
7.0
 40
7.0
 40
8.0
 40
8.0
 40
8.0
 40
9.0
 40
9.0
 40
9.0
 40
10.0
 40
10.0
 40
10.0
 40
11.0
 40
11.0
 40
11.0
 40
12.0
 40
12.0
 40
12.0
 40
13.0
 40
13.0
 40
13.0
 40
14.0
 40
14.0
 40
14.0
 40
15.0
 40
15.0
 40
15.0
 40
16.0
 40
16.0
 40
16.0
 40
17.0
 40
17.0
 40
17.0
 40
18.0
 40
18.0
 40
18.0
 40
19.0
 40
19.0
 40
19.0
 40
20.0
 40
20.0
 40
20.0
 40
21.0
 40
21.0
 40
21.0
 40
22.0
 40
22.0
 40
22.0
 40
23.0
 40
23.0
 40
23.0
 40
24.0
 40
24.0
 40
24.0
 40
25.0
 40
25.0
 40
25.0
 40
26.0
 40
26.0
 40
26.0
 40
27.0
 40
27.0
 40
27.0
 40
28.0
 40
28.0
 40
28.0
 40
29.0
 40
29.0
 40
29.0
 40
30.0
 40
30.0
 40
30.0
 40
31.0
 40
31.0
 40
31.0
 40
31.0
 10
188.0880886501736
 20
71.911545138888883
 30
0.0
 10
188.0880886501736
 20
71.911545138888883
 30
0.0
 10
188.0880886501736
 20
35.877224392361107
 30
0.0
 10
188.0880886501736
 20
35.877224392361107
 30
0.0
 10
188.0880886501736
 20
33.311317274305551
 30
0.0
 10
190.16065809461804
 20
31.230479600694441
 30
0.0
 10
192.72725423177081
 20
31.230479600694441
 30
0.0
 10
195.29247233072914
 20
31.230479600694441
 30
0.0
 10
197.37262098524303
 20
33.311317274305551
 30
0.0
 10
197.37262098524303
 20
35.877224392361107
 30
0.0
 10
197.37262098524303
 20
35.877224392361107
 30
0.0
 10
197.37399902343748
 20
71.911545138888883
 30
0.0
 10
197.37399902343748
 20
71.911545138888883
 30
0.0
 10
197.37399902343748
 20
71.911545138888883
 30
0.0
 10
209.82870822482636
 20
71.911545138888883
 30
0.0
 10
209.82870822482636
 20
71.911545138888883
 30
0.0
 10
209.82870822482636
 20
71.911545138888883
 30
0.0
 10
195.77616373697916
 20
118.94261067708332
 30
0.0
 10
195.77616373697916
 20
118.94261067708332
 30
0.0
 10
195.77616373697916
 20
118.94261067708332
 30
0.0
 10
195.6383599175347
 20
119.68261718749999
 30
0.0
 10
195.6383599175347
 20
119.68261718749999
 30
0.0
 10
195.6383599175347
 20
120.7216579861111
 30
0.0
 10
196.48103027343748
 20
121.56639539930555
 30
0.0
 10
197.52144911024303
 20
121.56639539930555
 30
0.0
 10
198.33931477864581
 20
121.56639539930555
 30
0.0
 10
198.97183430989583
 20
121.01380208333332
 30
0.0
 10
199.2970513237847
 20
120.31375868055555
 30
0.0
 10
199.2970513237847
 20
120.31375868055555
 30
0.0
 10
207.8078152126736
 20
92.549045138888886
 30
0.0
 10
207.8078152126736
 20
92.549045138888886
 30
0.0
 10
208.72489963107637
 20
90.071332465277763
 30
0.0
 10
210.5983425564236
 20
89.117730034722214
 30
0.0
 10
212.75221625434025
 20
89.69512803819444
 30
0.0
 10
214.90540093315971
 20
90.27114800347222
 30
0.0
 10
216.18353135850691
 20
92.484277343749994
 30
0.0
 10
215.60682237413192
 20
94.63815104166666
 30
0.0
 10
215.60682237413192
 20
94.63815104166666
 30
0.0
 10
203.98238118489581
 20
127.20946180555555
 30
0.0
 10
203.98238118489581
 20
127.20946180555555
 30
0.0
 10
202.91646864149303
 20
129.93246527777777
 30
0.0
 10
200.31197645399303
 20
131.70737847222222
 30
0.0
 10
197.11561686197916
 20
131.82588975694443
 30
0.0
 10
197.11561686197916
 20
131.82588975694443
 30
0.0
 10
193.75113661024304
 20
132.6899197048611
 30
0.0
 10
185.83430718315969
 20
132.6899197048611
 30
0.0
 10
177.91678873697916
 20
132.6899197048611
 30
0.0
 10
175.68850097656249
 20
131.82588975694443
 30
0.0
 10
175.68850097656249
 20
131.82588975694443
 30
0.0
 10
172.49145236545138
 20
131.70737847222222
 30
0.0
 10
169.88833821614583
 20
129.93246527777777
 30
0.0
 10
168.82242567274304
 20
127.20946180555555
 30
0.0
 10
168.82242567274304
 20
127.20946180555555
 30
0.0
 10
157.76711425781249
 20
94.882063802083323
 30
0.0
 10
157.76711425781249
 20
94.882063802083323
 30
0.0
 10
157.19040527343748
 20
92.728190104166657
 30
0.0
 10
158.46853569878471
 20
90.515060763888883
 30
0.0
 10
160.62172037760416
 20
89.937662760416657
 30
0.0
 10
162.77490505642359
 20
89.361642795138877
 30
0.0
 10
164.14605305989582
 20
90.816851128472209
 30
0.0
 10
165.06382649739581
 20
93.294563802083331
 30
0.0
 10
165.06382649739581
 20
93.294563802083331
 30
0.0
 10
172.83940700954861
 20
120.31375868055555
 30
0.0
 10
172.83940700954861
 20
120.31375868055555
 30
0.0
 10
173.16393500434026
 20
121.01380208333332
 30
0.0
 10
173.79576551649305
 20
121.56639539930555
 30
0.0
 10
174.61432020399303
 20
121.56639539930555
 30
0.0
 10
175.65405002170138
 20
121.56639539930555
 30
0.0
 10
176.49740939670139
 20
120.7216579861111
 30
0.0
 10
176.49740939670139
 20
119.68261718749999
 30
0.0
 10
176.49740939670139
 20
119.68261718749999
 30
0.0
 10
176.36029459635415
 20
118.94261067708332
 30
0.0
 10
176.36029459635415
 20
118.94261067708332
 30
0.0
 10
176.36029459635415
 20
118.94261067708332
 30
0.0
 10
162.30568305121525
 20
71.911545138888883
 30
0.0
 10
162.30568305121525
 20
71.911545138888883
 30
0.0
 10
162.30568305121525
 20
71.911545138888883
 30
0.0
 10
174.76177029079861
 20
71.911545138888883
 30
0.0
 10
174.76177029079861
 20
71.911545138888883
 30
0.0
 10
174.76177029079861
 20
71.911545138888883
 30
0.0
 10
174.76383734809025
 20
35.877224392361107
 30
0.0
 10
174.76383734809025
 20
35.877224392361107
 30
0.0
 10
174.76383734809025
 20
33.311317274305551
 30
0.0
 10
176.84398600260414
 20
31.230479600694441
 30
0.0
 10
179.40920410156249
 20
31.230479600694441
 30
0.0
 10
181.97442220052082
 20
31.230479600694441
 30
0.0
 10
184.04699164496526
 20
33.311317274305551
 30
0.0
 10
184.04699164496526
 20
35.877224392361107
 30
0.0
 10
184.04699164496526
 20
35.877224392361107
 30
0.0
 10
184.04699164496526
 20
71.911545138888883
 30
0.0
 10
184.04699164496526
 20
71.911545138888883
 30
0.0
 10
184.04699164496526
 20
73.03189019097222
 30
0.0
 10
188.0880886501736
 20
73.03189019097222
 30
0.0
 10
188.0880886501736
 20
71.911545138888883
 30
0.0
  0
ENDSEC
  0
SECTION
  2
OBJECTS
  0
DICTIONARY
  5
19
100
AcDbDictionary
  3
ACAD_GROUP
350
1A
  3
ACAD_MLINESTYLE
350
1B
  0
DICTIONARY
  5
1A
102
{ACAD_REACTORS
330
19
102
}
100
AcDbDictionary
  0
DICTIONARY
  5
1B
102
{ACAD_REACTORS
330
19
102
}
100
AcDbDictionary
  3
STANDARD
350
1C
  0
MLINESTYLE
  5
1C
102
{ACAD_REACTORS
330
1B
102
}
100
AcDbMlineStyle
  2
STANDARD
 70
     0
  3

 62
     0
 51
90.0
 52
90.0
 71
     2
 49
0.5
 62
   256
  6
BYLAYER
 49
-0.5
 62
   256
  6
BYLAYER
  0
ENDSEC
  0
EOF
