  0
SECTION
  2
HEADER
  9
$ACADVER
  1
AC1012
  9
$DWGCODEPAGE
  3
dos932
  9
$INSBASE
 10
0.0
 20
0.0
 30
0.0
  9
$EXTMIN
 10
0.34761
 20
-106.080691
 30
1.000000E+20
  9
$EXTMAX
 10
162.195268
 20
0.0
 30
-1.000000E+20
  9
$LIMMIN
 10
0.34761
 20
-106.080691
  9
$LIMMAX
 10
162.195268
 20
0.0
  9
$ORTHOMODE
 70
     0
  9
$REGENMODE
 70
     1
  9
$FILLMODE
 70
     1
  9
$QTEXTMODE
 70
     0
  9
$MIRRTEXT
 70
     1
  9
$DRAGMODE
 70
     2
  9
$LTSCALE
 40
1.0
  9
$OSMODE
 70
     0
  9
$ATTMODE
 70
     1
  9
$TEXTSIZE
 40
0.2
  9
$TRACEWID
 40
0.05
  9
$TEXTSTYLE
  7
STANDARD
  9
$CLAYER
  8
0
  9
$CELTYPE
  6
CONTINUOUS
  9
$CECOLOR
 62
   256
  9
$CELTSCALE
 40
1.0
  9
$DELOBJ
 70
     1
  9
$DISPSILH
 70
     0
  9
$DIMSCALE
 40
1.0
  9
$DIMASZ
 40
0.18
  9
$DIMEXO
 40
0.0625
  9
$DIMDLI
 40
0.38
  9
$DIMRND
 40
0.0
  9
$DIMDLE
 40
0.0
  9
$DIMEXE
 40
0.18
  9
$DIMTP
 40
0.0
  9
$DIMTM
 40
0.0
  9
$DIMTXT
 40
0.18
  9
$DIMCEN
 40
0.09
  9
$DIMTSZ
 40
0.0
  9
$DIMTOL
 70
     0
  9
$DIMLIM
 70
     0
  9
$DIMTIH
 70
     1
  9
$DIMTOH
 70
     1
  9
$DIMSE1
 70
     0
  9
$DIMSE2
 70
     0
  9
$DIMTAD
 70
     0
  9
$DIMZIN
 70
     0
  9
$DIMBLK
  1

  9
$DIMASO
 70
     1
  9
$DIMSHO
 70
     1
  9
$DIMPOST
  1

  9
$DIMAPOST
  1

  9
$DIMALT
 70
     0
  9
$DIMALTD
 70
     2
  9
$DIMALTF
 40
25.4
  9
$DIMLFAC
 40
1.0
  9
$DIMTOFL
 70
     0
  9
$DIMTVP
 40
0.0
  9
$DIMTIX
 70
     0
  9
$DIMSOXD
 70
     0
  9
$DIMSAH
 70
     0
  9
$DIMBLK1
  1

  9
$DIMBLK2
  1

  9
$DIMSTYLE
  2
STANDARD
  9
$DIMCLRD
 70
     0
  9
$DIMCLRE
 70
     0
  9
$DIMCLRT
 70
     0
  9
$DIMTFAC
 40
1.0
  9
$DIMGAP
 40
0.09
  9
$DIMJUST
 70
     0
  9
$DIMSD1
 70
     0
  9
$DIMSD2
 70
     0
  9
$DIMTOLJ
 70
     1
  9
$DIMTZIN
 70
     0
  9
$DIMALTZ
 70
     0
  9
$DIMALTTZ
 70
     0
  9
$DIMFIT
 70
     3
  9
$DIMUPT
 70
     0
  9
$DIMUNIT
 70
     2
  9
$DIMDEC
 70
     4
  9
$DIMTDEC
 70
     4
  9
$DIMALTU
 70
     2
  9
$DIMALTTD
 70
     2
  9
$DIMTXSTY
  7
STANDARD
  9
$DIMAUNIT
 70
     0
  9
$LUNITS
 70
     2
  9
$LUPREC
 70
     4
  9
$SKETCHINC
 40
0.1
  9
$FILLETRAD
 40
0.0
  9
$AUNITS
 70
     0
  9
$AUPREC
 70
     0
  9
$MENU
  1
acad
  9
$ELEVATION
 40
0.0
  9
$PELEVATION
 40
0.0
  9
$THICKNESS
 40
0.0
  9
$LIMCHECK
 70
     0
  9
$BLIPMODE
 70
     1
  9
$CHAMFERA
 40
0.0
  9
$CHAMFERB
 40
0.0
  9
$CHAMFERC
 40
0.0
  9
$CHAMFERD
 40
0.0
  9
$SKPOLY
 70
     0
  9
$TDCREATE
 40
0.000000000
  9
$TDUPDATE
 40
0.000000000
  9
$TDINDWG
 40
0.0000000000
  9
$TDUSRTIMER
 40
0.0000000000
  9
$USRTIMER
 70
     1
  9
$ANGBASE
 50
0.0
  9
$ANGDIR
 70
     0
  9
$PDMODE
 70
     0
  9
$PDSIZE
 40
0.0
  9
$PLINEWID
 40
0.0
  9
$COORDS
 70
     0
  9
$SPLFRAME
 70
     0
  9
$SPLINETYPE
 70
     6
  9
$SPLINESEGS
 70
     8
  9
$ATTDIA
 70
     0
  9
$ATTREQ
 70
     1
  9
$HANDLING
 70
     1
  9
$HANDSEED
  5
2E
  9
$SURFTAB1
 70
     6
  9
$SURFTAB2
 70
     6
  9
$SURFTYPE
 70
     6
  9
$SURFU
 70
     6
  9
$SURFV
 70
     6
  9
$UCSNAME
  2

  9
$UCSORG
 10
0.0
 20
0.0
 30
0.0
  9
$UCSXDIR
 10
1.0
 20
0.0
 30
0.0
  9
$UCSYDIR
 10
0.0
 20
1.0
 30
0.0
  9
$PUCSNAME
  2

  9
$PUCSORG
 10
0.0
 20
0.0
 30
0.0
  9
$PUCSXDIR
 10
1.0
 20
0.0
 30
0.0
  9
$PUCSYDIR
 10
0.0
 20
1.0
 30
0.0
  9
$USERI1
 70
     0
  9
$USERI2
 70
     0
  9
$USERI3
 70
     0
  9
$USERI4
 70
     0
  9
$USERI5
 70
     0
  9
$USERR1
 40
0.0
  9
$USERR2
 40
0.0
  9
$USERR3
 40
0.0
  9
$USERR4
 40
0.0
  9
$USERR5
 40
0.0
  9
$WORLDVIEW
 70
     1
  9
$SHADEDGE
 70
     3
  9
$SHADEDIF
 70
    70
  9
$TILEMODE
 70
     1
  9
$MAXACTVP
 70
    16
  9
$PINSBASE
 10
0.0
 20
0.0
 30
0.0
  9
$PLIMCHECK
 70
     0
  9
$PEXTMIN
 10
1.000000E+20
 20
1.000000E+20
 30
1.000000E+20
  9
$PEXTMAX
 10
-1.000000E+20
 20
-1.000000E+20
 30
-1.000000E+20
  9
$PLIMMIN
 10
0.0
 20
0.0
  9
$PLIMMAX
 10
12.0
 20
9.0
  9
$UNITMODE
 70
     0
  9
$VISRETAIN
 70
     0
  9
$PLINEGEN
 70
     1
  9
$PSLTSCALE
 70
     0
  9
$TREEDEPTH
 70
  3020
  9
$PICKSTYLE
 70
     1
  9
$CMLSTYLE
  2
STANDARD
  9
$CMLJUST
 70
     0
  9
$CMLSCALE
 40
1.0
  9
$SAVEIMAGES
 70
     0
  0
ENDSEC
  0
SECTION
  2
CLASSES
  0
CLASS
  1
LWPOLYLINE
  2
AcDbPolyline
  3
"AutoCAD"
 90
        0
280
     0
281
     1
  0
CLASS
  1
IMAGE
  2
AcDbRasterImage
  3
ISM
 90
      127
280
     0
281
     1
  0
CLASS
  1
OLE2FRAME
  2
AcDbOle2Frame
  3
""
 90
        0
280
     0
281
     1
  0
CLASS
  1
HATCH
  2
AcDbHatch
  3
"ACAD_SEDONA"
 90
        0
280
     0
281
     1
  0
CLASS
  1
DICTIONARYVAR
  2
AcDbDictionaryVar
  3
"AutoCAD"
 90
        0
280
     0
281
     0
  0
CLASS
  1
RASTERVARIABLES
  2
AcDbRasterVariables
  3
ISM
 90
        0
280
     0
281
     0
  0
CLASS
  1
IMAGEDEF
  2
AcDbRasterImageDef
  3
ISM
 90
        0
280
     0
281
     0
  0
CLASS
  1
IMAGEDEF_REACTOR
  2
AcDbRasterImageDefReactor
  3
ISM
 90
        1
280
     0
281
     0
  0
CLASS
  1
IDBUFFER
  2
AcDbIdBuffer
  3
"Acad"
 90
        0
280
     0
281
     0
  0
CLASS
  1
SPATIAL_FILTER
  2
AcDbSpatialFilter
  3
"Acad"
 90
        0
280
     0
281
     0
  0
CLASS
  1
XRECORD
  2
AcDbXrecord
  3
"<Built In>"
 90
        0
280
     0
281
     0
  0
CLASS
  1
SORTENTSTABLE
  2
AcDbSortentsTable
  3
"AutoCAD"
 90
        0
280
     0
281
     0
  0
CLASS
  1
LAYER_INDEX
  2
AcDbLayerIndex
  3
"Acad"
 90
        0
280
     0
281
     0
  0
CLASS
  1
SPATIAL_INDEX
  2
AcDbSpatialIndex
  3
"Acad"
 90
        0
280
     0
281
     0
  0
CLASS
  1
OBJECT_PTR
  2
CAseDLPNTableRecord
  3
"ASE-LPNTableRecord"
 90
        1
280
     0
281
     0
  0
CLASS
  1
LAYOUT
  2
AcDbLayout
  3
"AutoCAD 2000"
 90
        1
280
     0
281
     0
  0
CLASS
  1
PLOTSETTINGS
  2
AcDbPlotSettings
  3
"AutoCAD 2000"
 90
        1
280
     0
281
     0
  0
CLASS
  1
ACDBDICTIONARYWDFLT
  2
AcDbDictionaryWithDefault
  3
"AutoCAD 2000"
 90
        1
280
     0
281
     0
  0
CLASS
  1
ACDBPLACEHOLDER
  2
AcDbPlaceHolder
  3
"AutoCAD 2000"
 90
        1
280
     0
281
     0
  0
CLASS
  1
VBA_PROJECT
  2
AcDbVbaProject
  3
"acadvba"
 90
        1
280
     0
281
     0
  0
CLASS
  1
WIPEOUT
  2
AcDbWipeout
  3
WipeOut|AutoCAD Express Tool|expresstools@autodesk.com
 90
      127
280
     0
281
     1
  0
CLASS
  1
WIPEOUTVARIABLES
  2
AcDbWipeoutVariables
  3
WipeOut|AutoCAD Express Tool|expresstools@autodesk.com
 90
        0
280
     0
281
     0
  0
CLASS
  1
RTEXT
  2
RText
  3
RText|AutoCAD Express Tool|expresstools@autodesk.com
 90
        0
280
     0
281
     1
  0
CLASS
  1
ARCALIGNEDTEXT
  2
AcDbArcAlignedText
  3
ATEXT|AutoCAD Express Tool|expresstools@autodesk.com
 90
        0
280
     0
281
     1
  0
ENDSEC
  0
SECTION
  2
TABLES
  0
TABLE
  2
VPORT
  5
7
100
AcDbSymbolTable
 70
     1
  0
VPORT
  5
15
100
AcDbSymbolTableRecord
100
AcDbViewportTableRecord
  2
*ACTIVE
 70
     0
 10
0.0
 20
0.0
 11
1.0
 21
1.0
 12
6.591288
 22
4.579184
 13
0.0
 23
0.0
 14
1.0
 24
1.0
 15
0.0
 25
0.0
 16
0.0
 26
0.0
 36
1.0
 17
0.0
 27
0.0
 37
0.0
 40
9.158369
 41
0.688564
 42
50.0
 43
0.0
 44
0.0
 50
0.0
 51
0.0
 71
     0
 72
   100
 73
     1
 74
     1
 75
     0
 76
     0
 77
     0
 78
     0
  0
ENDTAB
  0
TABLE
  2
LTYPE
  5
4
100
AcDbSymbolTable
 70
     3
  0
LTYPE
  5
11
100
AcDbSymbolTableRecord
100
AcDbLinetypeTableRecord
  2
BYBLOCK
 70
    64
  3

 72
    65
 73
     0
 40
0.0
  0
LTYPE
  5
12
100
AcDbSymbolTableRecord
100
AcDbLinetypeTableRecord
  2
BYLAYER
 70
    64
  3

 72
    65
 73
     0
 40
0.0
  0
LTYPE
  5
13
100
AcDbSymbolTableRecord
100
AcDbLinetypeTableRecord
  2
CONTINUOUS
 70
    64
  3
Solid line
 72
    65
 73
     0
 40
0.0
  0
ENDTAB
  0
TABLE
  2
LAYER
  5
2
100
AcDbSymbolTable
 70
     2
  0
LAYER
  5
14
100
AcDbSymbolTableRecord
100
AcDbLayerTableRecord
  2
0
 70
     0
 62
     7
  6
CONTINUOUS
  0
LAYER
  5
21
100
AcDbSymbolTableRecord
100
AcDbLayerTableRecord
  2
レイヤー_1
 70
     0
 62
   160
  6
CONTINUOUS
  0
ENDTAB
  0
TABLE
  2
STYLE
  5
3
100
AcDbSymbolTable
 70
     5
  0
STYLE
  5
17
100
AcDbSymbolTableRecord
100
AcDbTextStyleTableRecord
  2
STANDARD
 70
     0
 40
0.0
 41
1.0
 50
0.0
 71
     0
 42
0.0
  3
txt
  4

  0
STYLE
  5
1D
100
AcDbSymbolTableRecord
100
AcDbTextStyleTableRecord
  2
STD
 70
     0
 40
0.0
 41
1.0
 50
0.0
 71
     0
 42
0.0
  3
txt
  4

  0
STYLE
  5
1E
100
AcDbSymbolTableRecord
100
AcDbTextStyleTableRecord
  2
TATESTD
 70
     4
 40
0.0
 41
1.0
 50
0.0
 71
     0
 42
0.0
  3
txt
  4

  0
STYLE
  5
1F
100
AcDbSymbolTableRecord
100
AcDbTextStyleTableRecord
  2
KANJISTD
 70
     0
 40
0.0
 41
1.0
 50
0.0
 71
     0
 42
0.0
  3
txt
  4
extfont
  0
STYLE
  5
20
100
AcDbSymbolTableRecord
100
AcDbTextStyleTableRecord
  2
KANJITATE
 70
     4
 40
0.0
 41
1.0
 50
0.0
 71
     0
 42
0.0
  3
txt
  4
extfont
  0
ENDTAB
  0
TABLE
  2
VIEW
  5
5
100
AcDbSymbolTable
 70
     0
  0
ENDTAB
  0
TABLE
  2
UCS
  5
6
100
AcDbSymbolTable
 70
     0
  0
ENDTAB
  0
TABLE
  2
APPID
  5
8
100
AcDbSymbolTable
 70
     1
  0
APPID
  5
16
100
AcDbSymbolTableRecord
100
AcDbRegAppTableRecord
  2
ACAD
 70
     0
  0
ENDTAB
  0
TABLE
  2
DIMSTYLE
  5
9
100
AcDbSymbolTable
 70
     1
  0
DIMSTYLE
105
18
100
AcDbSymbolTableRecord
100
AcDbDimStyleTableRecord
  2
STANDARD
 70
     0
  3

  4

  5

  6

  7

 40
1.0
 41
0.18
 42
0.0625
 43
0.38
 44
0.18
 45
0.0
 46
0.0
 47
0.0
 48
0.0
 71
     0
 72
     0
 73
     1
 74
     1
 75
     0
 76
     0
 77
     0
 78
     0
140
0.18
141
0.09
142
0.0
143
25.4
144
1.0
145
0.0
146
1.0
147
0.09
170
     0
171
     2
172
     0
173
     0
174
     0
175
     0
176
     0
177
     0
178
     0
270
     2
271
     4
272
     4
273
     2
274
     2
275
     0
280
     0
281
     0
282
     0
283
     1
284
     0
285
     0
286
     0
287
     0
288
     0
340
17
  0
ENDTAB
  0
TABLE
  2
BLOCK_RECORD
  5
1
100
AcDbSymbolTable
 70
     1
  0
BLOCK_RECORD
  5
A
100
AcDbSymbolTableRecord
100
AcDbBlockTableRecord
  2
*MODEL_SPACE
  0
BLOCK_RECORD
  5
B
100
AcDbSymbolTableRecord
100
AcDbBlockTableRecord
  2
*PAPER_SPACE
  0
BLOCK_RECORD
  5
22
100
AcDbSymbolTableRecord
100
AcDbBlockTableRecord
  2
AI9-BLK1
  0
ENDTAB
  0
ENDSEC
  0
SECTION
  2
BLOCKS
  0
BLOCK
  5
D
100
AcDbEntity
  8
0
100
AcDbBlockBegin
  2
*MODEL_SPACE
 70
     0
 10
0.0
 20
0.0
 30
0.0
  3
*MODEL_SPACE
  1

  0
ENDBLK
  5
E
100
AcDbEntity
  8
0
100
AcDbBlockEnd
  0
BLOCK
  5
F
100
AcDbEntity
 67
     1
  8
0
100
AcDbBlockBegin
  2
*PAPER_SPACE
 70
     0
 10
0.0
 20
0.0
 30
0.0
  3
*PAPER_SPACE
  1

  0
ENDBLK
  5
10
100
AcDbEntity
 67
     1
  8
0
100
AcDbBlockEnd
  0
BLOCK
  5
24
100
AcDbEntity
  8
レイヤー_1
 62
     7
100
AcDbBlockBegin
  2
AI9-BLK1
 70
     0
 10
0.0
 20
0.0
 30
0.0
  3
AI9-BLK1
  1

  0
SPLINE
  5
2A
100
AcDbEntity
  8
レイヤー_1
 62
     7
100
AcDbSpline
210
0.0
220
0.0
230
1.0
 70
     8
 71
     3
 72
    74
 73
    70
 74
     0
 42
0.00000001
 43
0.00000001
 40
0.0
 40
0.0
 40
0.0
 40
0.0
 40
1.0
 40
1.0
 40
1.0
 40
2.0
 40
2.0
 40
2.0
 40
3.0
 40
3.0
 40
3.0
 40
4.0
 40
4.0
 40
4.0
 40
5.0
 40
5.0
 40
5.0
 40
6.0
 40
6.0
 40
6.0
 40
7.0
 40
7.0
 40
7.0
 40
8.0
 40
8.0
 40
8.0
 40
9.0
 40
9.0
 40
9.0
 40
10.0
 40
10.0
 40
10.0
 40
11.0
 40
11.0
 40
11.0
 40
12.0
 40
12.0
 40
12.0
 40
13.0
 40
13.0
 40
13.0
 40
14.0
 40
14.0
 40
14.0
 40
15.0
 40
15.0
 40
15.0
 40
16.0
 40
16.0
 40
16.0
 40
17.0
 40
17.0
 40
17.0
 40
18.0
 40
18.0
 40
18.0
 40
19.0
 40
19.0
 40
19.0
 40
20.0
 40
20.0
 40
20.0
 40
21.0
 40
21.0
 40
21.0
 40
22.0
 40
22.0
 40
22.0
 40
23.0
 40
23.0
 40
23.0
 40
23.0
 10
49.242041693793396
 20
10.496172417534721
 30
0.0
 10
44.430621337890621
 20
10.496172417534721
 30
0.0
 10
39.869487169053819
 20
9.4130343967013879
 30
0.0
 10
35.780847846137149
 20
7.4851589626736104
 30
0.0
 10
35.780847846137149
 20
7.4851589626736104
 30
0.0
 10
21.970838080512152
 20
30.805699327256942
 30
0.0
 10
21.970838080512152
 20
30.805699327256942
 30
0.0
 10
21.427202012803818
 20
31.725195312499999
 30
0.0
 10
20.436392550998264
 20
32.289846462673609
 30
0.0
 10
19.366345893012152
 20
32.289846462673609
 30
0.0
 10
19.366345893012152
 20
32.289846462673609
 30
0.0
 10
-25.036111789279513
 20
32.289846462673609
 30
0.0
 10
-25.036111789279513
 20
32.289846462673609
 30
0.0
 10
-22.974566650390624
 20
39.894894748263887
 30
0.0
 10
-21.420139567057291
 20
45.632701280381937
 30
0.0
 10
-21.09767862955729
 20
46.818847656249993
 30
0.0
 10
-17.528559705946179
 20
46.818847656249993
 30
0.0
 10
-4.4447760687934021
 20
46.818847656249993
 30
0.0
 10
-4.4447760687934021
 20
46.818847656249993
 30
0.0
 10
-2.7739047580295138
 20
46.818847656249993
 30
0.0
 10
-1.4179151746961804
 20
48.174492730034714
 30
0.0
 10
-1.4179151746961804
 20
49.84605305989583
 30
0.0
 10
-1.4179151746961804
 20
51.517613389756939
 30
0.0
 10
-2.7739047580295138
 20
52.872224934895826
 30
0.0
 10
-4.4447760687934021
 20
52.872224934895826
 30
0.0
 10
-4.4447760687934021
 20
52.872224934895826
 30
0.0
 10
-23.413471815321177
 20
52.872224934895826
 30
0.0
 10
-23.413471815321177
 20
52.872224934895826
 30
0.0
 10
-24.779796685112846
 20
52.872224934895826
 30
0.0
 10
-25.977311876085068
 20
51.957207573784714
 30
0.0
 10
-26.335601806640621
 20
50.638080512152776
 30
0.0
 10
-26.335601806640621
 20
50.638080512152776
 30
0.0
 10
-32.684912787543396
 20
27.216254340277775
 30
0.0
 10
-37.798812527126735
 20
8.3478108723958329
 30
0.0
 10
-41.350705973307285
 20
9.7306722005208321
 30
0.0
 10
-45.207834879557289
 20
10.496172417534721
 30
0.0
 10
-49.242730712890619
 20
10.496172417534721
 30
0.0
 10
-66.712120903862839
 20
10.496172417534721
 30
0.0
 10
-80.923828803168391
 20
-3.716224500868055
 30
0.0
 10
-80.923828803168391
 20
-21.186992730034721
 30
0.0
 10
-80.923828803168391
 20
-38.658449978298606
 30
0.0
 10
-66.712120903862839
 20
-52.872224934895826
 30
0.0
 10
-49.242730712890619
 20
-52.872224934895826
 30
0.0
 10
-31.773340521918399
 20
-52.872224934895826
 30
0.0
 10
-17.562321641710067
 20
-38.658449978298606
 30
0.0
 10
-17.562321641710067
 20
-21.186992730034721
 30
0.0
 10
-17.562321641710067
 20
-9.9525363498263886
 30
0.0
 10
-23.443099636501735
 20
-0.0726915147569444
 30
0.0
 10
-32.283214653862842
 20
5.5545274522569441
 30
0.0
 10
-31.941461181640623
 20
6.8181884765624998
 30
0.0
 10
-31.592817518446179
 20
8.1011420355902768
 30
0.0
 10
-31.242106797960066
 20
9.3951199001736097
 30
0.0
 10
-31.242106797960066
 20
9.3951199001736097
 30
0.0
 10
-2.3198411729600692
 20
-23.195483398437499
 30
0.0
 10
-2.3198411729600692
 20
-23.195483398437499
 30
0.0
 10
-1.7445102267795138
 20
-23.843161349826385
 30
0.0
 10
-0.9211324055989583
 20
-24.21316460503472
 30
0.0
 10
-0.0564134385850694
 20
-24.21316460503472
 30
0.0
 10
-0.0564134385850694
 20
-24.21316460503472
 30
0.0
 10
17.710633002387151
 20
-24.21316460503472
 30
0.0
 10
17.710633002387151
 20
-24.21316460503472
 30
0.0
 10
19.239566379123261
 20
-40.26937662760416
 30
0.0
 10
32.796017116970482
 20
-52.872224934895826
 30
0.0
 10
49.242041693793396
 20
-52.872224934895826
 30
0.0
 10
66.710742865668394
 20
-52.872224934895826
 30
0.0
 10
80.923828803168391
 20
-38.658449978298606
 30
0.0
 10
80.923828803168391
 20
-21.186992730034721
 30
0.0
 10
80.923828803168391
 20
-3.716224500868055
 30
0.0
 10
66.710742865668394
 20
10.496172417534721
 30
0.0
 10
49.242041693793396
 20
10.496172417534721
 30
0.0
  0
SPLINE
  5
29
100
AcDbEntity
  8
レイヤー_1
 62
     7
100
AcDbSpline
210
0.0
220
0.0
230
1.0
 70
     8
 71
     3
 72
    44
 73
    40
 74
     0
 42
0.00000001
 43
0.00000001
 40
0.0
 40
0.0
 40
0.0
 40
0.0
 40
1.0
 40
1.0
 40
1.0
 40
2.0
 40
2.0
 40
2.0
 40
3.0
 40
3.0
 40
3.0
 40
4.0
 40
4.0
 40
4.0
 40
5.0
 40
5.0
 40
5.0
 40
6.0
 40
6.0
 40
6.0
 40
7.0
 40
7.0
 40
7.0
 40
8.0
 40
8.0
 40
8.0
 40
9.0
 40
9.0
 40
9.0
 40
10.0
 40
10.0
 40
10.0
 40
11.0
 40
11.0
 40
11.0
 40
12.0
 40
12.0
 40
12.0
 40
13.0
 40
13.0
 40
13.0
 40
13.0
 10
-23.613976372612846
 20
-21.186992730034721
 30
0.0
 10
-23.613976372612846
 20
-35.320152452256941
 30
0.0
 10
-35.111638047960064
 20
-46.818503146701381
 30
0.0
 10
-49.242730712890619
 20
-46.818503146701381
 30
0.0
 10
-63.373823377821175
 20
-46.818503146701381
 30
0.0
 10
-74.870107014973954
 20
-35.320152452256941
 30
0.0
 10
-74.870107014973954
 20
-21.186992730034721
 30
0.0
 10
-74.870107014973954
 20
-7.054522026909722
 30
0.0
 10
-63.373823377821175
 20
4.4424506293402777
 30
0.0
 10
-49.242730712890619
 20
4.4424506293402777
 30
0.0
 10
-45.753538004557285
 20
4.4424506293402777
 30
0.0
 10
-42.425575764973956
 20
3.7396511501736107
 30
0.0
 10
-39.392513699001732
 20
2.4718560112847219
 30
0.0
 10
-41.921213785807289
 20
-6.8560845269097213
 30
0.0
 10
-43.872515869140621
 20
-14.056334092881944
 30
0.0
 10
-44.110916476779508
 20
-14.936900499131943
 30
0.0
 10
-46.296485053168396
 20
-15.864320203993055
 30
0.0
 10
-56.075733100043401
 20
-20.015660264756942
 30
0.0
 10
-56.075733100043401
 20
-20.015660264756942
 30
0.0
 10
-57.228462049696176
 20
-20.504863823784721
 30
0.0
 10
-57.919548204210066
 20
-21.624519856770831
 30
0.0
 10
-57.919548204210066
 20
-22.802742513020831
 30
0.0
 10
-57.919548204210066
 20
-23.196861436631941
 30
0.0
 10
-57.842378065321178
 20
-23.598559570312499
 30
0.0
 10
-57.679080539279511
 20
-23.983721245659719
 30
0.0
 10
-57.025201416015619
 20
-25.522989908854164
 30
0.0
 10
-55.249599202473952
 20
-26.240947808159721
 30
0.0
 10
-53.709641520182288
 20
-25.587757703993052
 30
0.0
 10
-53.709641520182288
 20
-25.587757703993052
 30
0.0
 10
-40.391591389973954
 20
-19.935045030381943
 30
0.0
 10
-40.391591389973954
 20
-19.935045030381943
 30
0.0
 10
-39.536518690321174
 20
-19.572620985243052
 30
0.0
 10
-38.896419949001732
 20
-18.836748589409719
 30
0.0
 10
-38.653885226779508
 20
-17.94102376302083
 30
0.0
 10
-38.653885226779508
 20
-17.94102376302083
 30
0.0
 10
-36.632303195529509
 20
-10.484459092881943
 30
0.0
 10
-33.960287136501734
 20
-0.626662868923611
 30
0.0
 10
-27.685390218098956
 20
-5.3030354817708325
 30
0.0
 10
-23.613976372612846
 20
-12.777514648437499
 30
0.0
 10
-23.613976372612846
 20
-21.186992730034721
 30
0.0
  0
SPLINE
  5
28
100
AcDbEntity
  8
レイヤー_1
 62
     7
100
AcDbSpline
210
0.0
220
0.0
230
1.0
 70
     8
 71
     3
 72
    17
 73
    13
 74
     0
 42
0.00000001
 43
0.00000001
 40
0.0
 40
0.0
 40
0.0
 40
0.0
 40
1.0
 40
1.0
 40
1.0
 40
2.0
 40
2.0
 40
2.0
 40
3.0
 40
3.0
 40
3.0
 40
4.0
 40
4.0
 40
4.0
 40
4.0
 10
30.577375623914929
 20
4.3914632161458327
 30
0.0
 10
23.462564425998263
 20
-0.8161431206597222
 30
0.0
 10
18.592577446831594
 20
-8.9128065321180543
 30
0.0
 10
17.710633002387151
 20
-18.159442816840276
 30
0.0
 10
11.622460259331596
 20
-18.159442816840276
 30
0.0
 10
6.1530266655815966
 20
-18.159442816840276
 30
0.0
 10
3.2880852593315968
 20
-18.159442816840276
 30
0.0
 10
3.2880852593315968
 20
-18.159442816840276
 30
0.0
 10
20.057432047526039
 20
22.156787109374999
 30
0.0
 10
20.057432047526039
 20
22.156787109374999
 30
0.0
 10
22.528254530164929
 20
17.983053927951389
 30
0.0
 10
26.519053141276039
 20
11.245825195312499
 30
0.0
 10
30.577375623914929
 20
4.3914632161458327
 30
0.0
  0
SPLINE
  5
27
100
AcDbEntity
  8
レイヤー_1
 62
     7
100
AcDbSpline
210
0.0
220
0.0
230
1.0
 70
     8
 71
     3
 72
    14
 73
    10
 74
     0
 42
0.00000001
 43
0.00000001
 40
0.0
 40
0.0
 40
0.0
 40
0.0
 40
1.0
 40
1.0
 40
1.0
 40
2.0
 40
2.0
 40
2.0
 40
3.0
 40
3.0
 40
3.0
 40
3.0
 10
33.677961561414925
 20
-0.8450819227430555
 30
0.0
 10
38.156585693359375
 20
-8.4070665147569432
 30
0.0
 10
42.254010009765622
 20
-15.326885308159721
 30
0.0
 10
43.931771511501729
 20
-18.159442816840276
 30
0.0
 10
40.329062906901036
 20
-18.159442816840276
 30
0.0
 10
32.093217637803818
 20
-18.159442816840276
 30
0.0
 10
23.80293986002604
 20
-18.159442816840276
 30
0.0
 10
24.633207872178819
 20
-11.123179796006944
 30
0.0
 10
28.323594156901038
 20
-4.9530137803819443
 30
0.0
 10
33.677961561414925
 20
-0.8450819227430555
 30
0.0
  0
SPLINE
  5
26
100
AcDbEntity
  8
レイヤー_1
 62
     7
100
AcDbSpline
210
0.0
220
0.0
230
1.0
 70
     8
 71
     3
 72
    17
 73
    13
 74
     0
 42
0.00000001
 43
0.00000001
 40
0.0
 40
0.0
 40
0.0
 40
0.0
 40
1.0
 40
1.0
 40
1.0
 40
2.0
 40
2.0
 40
2.0
 40
3.0
 40
3.0
 40
3.0
 40
4.0
 40
4.0
 40
4.0
 40
4.0
 10
-1.8085890028211804
 20
-14.650268554687498
 30
0.0
 10
-8.9289123535156243
 20
-6.6287082248263882
 30
0.0
 10
-25.767850070529512
 20
12.347566731770833
 30
0.0
 10
-29.349371337890624
 20
16.381773546006944
 30
0.0
 10
-28.438488091362846
 20
19.741430664062499
 30
0.0
 10
-27.534495035807289
 20
23.073182508680553
 30
0.0
 10
-26.676666259765621
 20
26.236469184027776
 30
0.0
 10
-19.274534098307289
 20
26.236469184027776
 30
0.0
 10
6.7951924641927075
 20
26.236469184027776
 30
0.0
 10
15.197780354817708
 20
26.236469184027776
 30
0.0
 10
15.197780354817708
 20
26.236469184027776
 30
0.0
 10
-1.8085890028211804
 20
-14.650268554687498
 30
0.0
 10
-1.8085890028211804
 20
-14.650268554687498
 30
0.0
  0
SPLINE
  5
25
100
AcDbEntity
  8
レイヤー_1
 62
     7
100
AcDbSpline
210
0.0
220
0.0
230
1.0
 70
     8
 71
     3
 72
    29
 73
    25
 74
     0
 42
0.00000001
 43
0.00000001
 40
0.0
 40
0.0
 40
0.0
 40
0.0
 40
1.0
 40
1.0
 40
1.0
 40
2.0
 40
2.0
 40
2.0
 40
3.0
 40
3.0
 40
3.0
 40
4.0
 40
4.0
 40
4.0
 40
5.0
 40
5.0
 40
5.0
 40
6.0
 40
6.0
 40
6.0
 40
7.0
 40
7.0
 40
7.0
 40
8.0
 40
8.0
 40
8.0
 40
8.0
 10
49.242041693793396
 20
-46.818503146701381
 30
0.0
 10
36.137759738498261
 20
-46.818503146701381
 30
0.0
 10
25.305001491970483
 20
-36.924877929687497
 30
0.0
 10
23.801561821831594
 20
-24.21316460503472
 30
0.0
 10
23.801561821831594
 20
-24.21316460503472
 30
0.0
 10
49.242041693793396
 20
-24.21316460503472
 30
0.0
 10
49.242041693793396
 20
-24.21316460503472
 30
0.0
 10
50.330002848307288
 20
-24.21316460503472
 30
0.0
 10
51.333214653862839
 20
-23.629565429687499
 30
0.0
 10
51.872716606987844
 20
-22.685609266493053
 30
0.0
 10
52.410840521918395
 20
-21.740275065104164
 30
0.0
 10
52.401194254557289
 20
-20.579966905381944
 30
0.0
 10
51.846533881293396
 20
-19.643589952256942
 30
0.0
 10
51.846533881293396
 20
-19.643589952256942
 30
0.0
 10
38.882811821831595
 20
2.2465467664930552
 30
0.0
 10
38.882811821831595
 20
2.2465467664930552
 30
0.0
 10
42.052127414279511
 20
3.6549018012152774
 30
0.0
 10
45.556478542751734
 20
4.4424506293402777
 30
0.0
 10
49.242041693793396
 20
4.4424506293402777
 30
0.0
 10
63.374512396918398
 20
4.4424506293402777
 30
0.0
 10
74.869417995876731
 20
-7.054522026909722
 30
0.0
 10
74.869417995876731
 20
-21.186992730034721
 30
0.0
 10
74.869417995876731
 20
-35.320152452256941
 30
0.0
 10
63.374512396918398
 20
-46.818503146701381
 30
0.0
 10
49.242041693793396
 20
-46.818503146701381
 30
0.0
  0
ENDBLK
  5
2B
100
AcDbEntity
  8
レイヤー_1
100
AcDbBlockEnd
  0
ENDSEC
  0
SECTION
  2
ENTITIES
  0
INSERT
  5
23
100
AcDbEntity
  8
レイヤー_1
 62
     7
100
AcDbBlockReference
  2
AI9-BLK1
 10
81.271439
 20
-53.208466
 30
0.0
  0
ENDSEC
  0
SECTION
  2
OBJECTS
  0
DICTIONARY
  5
19
100
AcDbDictionary
  3
ACAD_GROUP
350
1A
  3
ACAD_MLINESTYLE
350
1B
  0
DICTIONARY
  5
1A
102
{ACAD_REACTORS
330
19
102
}
100
AcDbDictionary
  0
DICTIONARY
  5
1B
102
{ACAD_REACTORS
330
19
102
}
100
AcDbDictionary
  3
STANDARD
350
1C
  0
MLINESTYLE
  5
1C
102
{ACAD_REACTORS
330
1B
102
}
100
AcDbMlineStyle
  2
STANDARD
 70
     0
  3

 62
     0
 51
90.0
 52
90.0
 71
     2
 49
0.5
 62
   256
  6
BYLAYER
 49
-0.5
 62
   256
  6
BYLAYER
  0
ENDSEC
  0
EOF
