  0
SECTION
  2
HEADER
  9
$ACADVER
  1
AC1014
  9
$ACADMAINTVER
 70
         0
  9
$DWGCODEPAGE
  3
ANSI_1252
  9
$INSBASE
 10
0.0
 20
0.0
 30
0.0
  9
$EXTMIN
 10
0.0
 20
0.0
 30
0.0
  9
$EXTMAX
 10
594.0
 20
420.0
 30
0.0
  9
$LIMMIN
 10
0.0
 20
0.0
  9
$LIMMAX
 10
594.0
 20
420.0
  9
$ORTHOMODE
 70
         0
  9
$REGENMODE
 70
         1
  9
$FILLMODE
 70
         1
  9
$QTEXTMODE
 70
         0
  9
$MIRRTEXT
 70
         1
  9
$DRAGMODE
 70
         2
  9
$LTSCALE
 40
25.4
  9
$OSMODE
 70
         0
  9
$ATTMODE
 70
         1
  9
$TEXTSIZE
 40
0.2
  9
$TRACEWID
 40
0.05
  9
$TEXTSTYLE
  7
Standard
  9
$CLAYER
  8
0
  9
$CELTYPE
  6
CONTINUOUS
  9
$CECOLOR
 62
       256
  9
$CELTSCALE
 40
1.0
  9
$DELOBJ
 70
         1
  9
$DISPSILH
 70
         0
  9
$DIMSCALE
 40
1.0
  9
$DIMASZ
 40
0.18
  9
$DIMEXO
 40
0.0625
  9
$DIMDLI
 40
0.38
  9
$DIMRND
 40
0.0
  9
$DIMDLE
 40
0.0
  9
$DIMEXE
 40
0.18
  9
$DIMTP
 40
0.0
  9
$DIMTM
 40
0.0
  9
$DIMTXT
 40
0.18
  9
$DIMCEN
 40
0.09
  9
$DIMTSZ
 40
0.0
  9
$DIMTOL
 70
         0
  9
$DIMLIM
 70
         0
  9
$DIMTIH
 70
         1
  9
$DIMTOH
 70
         1
  9
$DIMSE1
 70
         0
  9
$DIMSE2
 70
         0
  9
$DIMTAD
 70
         0
  9
$DIMZIN
 70
         0
  9
$DIMBLK
  1

  9
$DIMASO
 70
         1
  9
$DIMSHO
 70
         1
  9
$DIMPOST
  1

  9
$DIMAPOST
  1

  9
$DIMALT
 70
         0
  9
$DIMALTD
 70
         2
  9
$DIMALTF
 40
25.4
  9
$DIMLFAC
 40
1.0
  9
$DIMTOFL
 70
         0
  9
$DIMTVP
 40
0.0
  9
$DIMTIX
 70
         0
  9
$DIMSOXD
 70
         0
  9
$DIMSAH
 70
         0
  9
$DIMBLK1
  1

  9
$DIMBLK2
  1

  9
$DIMSTYLE
  2
Standard
  9
$DIMCLRD
 70
         0
  9
$DIMCLRE
 70
         0
  9
$DIMCLRT
 70
         0
  9
$DIMTFAC
 40
1.0
  9
$DIMGAP
 40
0.09
  9
$DIMJUST
 70
         0
  9
$DIMSD1
 70
         0
  9
$DIMSD2
 70
         0
  9
$DIMTOLJ
 70
         1
  9
$DIMTZIN
 70
         0
  9
$DIMALTZ
 70
         0
  9
$DIMALTTZ
 70
         0
  9
$DIMFIT
 70
         3
  9
$DIMUPT
 70
         0
  9
$DIMUNIT
 70
         2
  9
$DIMDEC
 70
         4
  9
$DIMTDEC
 70
         4
  9
$DIMALTU
 70
         2
  9
$DIMALTTD
 70
         2
  9
$DIMTXSTY
  7
Standard
  9
$DIMAUNIT
 70
         0
  9
$LUNITS
 70
         2
  9
$LUPREC
 70
         4
  9
$SKETCHINC
 40
0.1
  9
$FILLETRAD
 40
0.0
  9
$AUNITS
 70
         0
  9
$AUPREC
 70
         0
  9
$MENU
  1
acad
  9
$ELEVATION
 40
0.0
  9
$PELEVATION
 40
0.0
  9
$THICKNESS
 40
0.0
  9
$LIMCHECK
 70
         0
  9
$BLIPMODE
 70
         1
  9
$CHAMFERA
 40
0.0
  9
$CHAMFERB
 40
0.0
  9
$CHAMFERC
 40
0.0
  9
$CHAMFERD
 40
0.0
  9
$SKPOLY
 70
         0
  9
$TDCREATE
 40
0.000000000
  9
$TDUPDATE
 40
0.000000000
  9
$TDINDWG
 40
0.0000000000
  9
$TDUSRTIMER
 40
0.0000000000
  9
$USRTIMER
 70
         1
  9
$ANGBASE
 50
0.0
  9
$ANGDIR
 70
         0
  9
$PDMODE
 70
         0
  9
$PDSIZE
 40
0.0
  9
$PLINEWID
 40
0.0
  9
$COORDS
 70
         0
  9
$SPLFRAME
 70
         0
  9
$SPLINETYPE
 70
         6
  9
$SPLINESEGS
 70
         8
  9
$ATTDIA
 70
         0
  9
$ATTREQ
 70
         1
  9
$HANDLING
 70
         1
  9
$HANDSEED
  5
15B
  9
$SURFTAB1
 70
         6
  9
$SURFTAB2
 70
         6
  9
$SURFTYPE
 70
         6
  9
$SURFU
 70
         6
  9
$SURFV
 70
         6
  9
$UCSNAME
  2

  9
$UCSORG
 10
0.0
 20
0.0
 30
0.0
  9
$UCSXDIR
 10
1.0
 20
0.0
 30
0.0
  9
$UCSYDIR
 10
0.0
 20
1.0
 30
0.0
  9
$PUCSNAME
  2

  9
$PUCSORG
 10
0.0
 20
0.0
 30
0.0
  9
$PUCSXDIR
 10
1.0
 20
0.0
 30
0.0
  9
$PUCSYDIR
 10
0.0
 20
1.0
 30
0.0
  9
$USERI1
 70
         0
  9
$USERI2
 70
         0
  9
$USERI3
 70
         0
  9
$USERI4
 70
         0
  9
$USERI5
 70
         0
  9
$USERR1
 40
0.0
  9
$USERR2
 40
0.0
  9
$USERR3
 40
0.0
  9
$USERR4
 40
0.0
  9
$USERR5
 40
0.0
  9
$WORLDVIEW
 70
         1
  9
$SHADEDGE
 70
         3
  9
$SHADEDIF
 70
        70
  9
$TILEMODE
 70
         1
  9
$MAXACTVP
 70
        16
  9
$PINSBASE
 10
0.0
 20
0.0
 30
0.0
  9
$PLIMCHECK
 70
         0
  9
$PEXTMIN
 10
1.0000000000E+20
 20
1.0000000000E+20
 30
1.0000000000E+20
  9
$PEXTMAX
 10
-1.0000000000E+20
 20
-1.0000000000E+20
 30
-1.0000000000E+20
  9
$PLIMMIN
 10
0.0
 20
0.0
  9
$PLIMMAX
 10
12.0
 20
9.0
  9
$UNITMODE
 70
         0
  9
$VISRETAIN
 70
         0
  9
$PLINEGEN
 70
         1
  9
$PSLTSCALE
 70
         0
  9
$TREEDEPTH
 70
      3020
  9
$PICKSTYLE
 70
         1
  9
$CMLSTYLE
  2
Standard
  9
$CMLJUST
 70
         0
  9
$CMLSCALE
 40
1.0
  9
$PROXYGRAPHICS
 70
         0
  9
$MEASUREMENT
 70
         0
  0
ENDSEC
  0
SECTION
  2
CLASSES
  0
CLASS
  1
LWPOLYLINE
  2
AcDbPolyline
  3
"AutoCAD"
 90
        0
280
         0
281
         1
  0
CLASS
  1
IMAGE
  2
AcDbRasterImage
  3
ISM
 90
      127
280
         0
281
         1
  0
CLASS
  1
OLE2FRAME
  2
AcDbOle2Frame
  3
""
 90
        0
280
         0
281
         1
  0
CLASS
  1
HATCH
  2
AcDbHatch
  3
"ACAD_SEDONA"
 90
        0
280
         0
281
         1
  0
CLASS
  1
DICTIONARYVAR
  2
AcDbDictionaryVar
  3
"AutoCAD"
 90
        0
280
         0
281
         0
  0
CLASS
  1
RASTERVARIABLES
  2
AcDbRasterVariables
  3
ISM
 90
        0
280
         0
281
         0
  0
CLASS
  1
IMAGEDEF
  2
AcDbRasterImageDef
  3
ISM
 90
        0
280
         0
281
         0
  0
CLASS
  1
IMAGEDEF_REACTOR
  2
AcDbRasterImageDefReactor
  3
ISM
 90
        1
280
         0
281
         0
  0
CLASS
  1
IDBUFFER
  2
AcDbIdBuffer
  3
"Acad"
 90
        0
280
         0
281
         0
  0
CLASS
  1
SPATIAL_FILTER
  2
AcDbSpatialFilter
  3
"Acad"
 90
        0
280
         0
281
         0
  0
CLASS
  1
XRECORD
  2
AcDbXrecord
  3
"<Built In>"
 90
        0
280
         0
281
         0
  0
CLASS
  1
SORTENTSTABLE
  2
AcDbSortentsTable
  3
"AutoCAD"
 90
        0
280
         0
281
         0
  0
CLASS
  1
LAYER_INDEX
  2
AcDbLayerIndex
  3
"Acad"
 90
        0
280
         0
281
         0
  0
CLASS
  1
SPATIAL_INDEX
  2
AcDbSpatialIndex
  3
"Acad"
 90
        0
280
         0
281
         0
  0
CLASS
  1
OBJECT_PTR
  2
CAseDLPNTableRecord
  3
"ASE-LPNTableRecord"
 90
        1
280
         0
281
         0
  0
CLASS
  1
LAYOUT
  2
AcDbLayout
  3
"AutoCAD 2000"
 90
        0
280
         0
281
         0
  0
CLASS
  1
PLOTSETTINGS
  2
AcDbPlotSettings
  3
"AutoCAD 2000"
 90
        0
280
         0
281
         0
  0
CLASS
  1
ACDBDICTIONARYWDFLT
  2
AcDbDictionaryWithDefault
  3
"AutoCAD 2000"
 90
        0
280
         0
281
         0
  0
CLASS
  1
ACDBPLACEHOLDER
  2
AcDbPlaceHolder
  3
"AutoCAD 2000"
 90
        0
280
         0
281
         0
  0
CLASS
  1
VBA_PROJECT
  2
AcDbVbaProject
  3
"acadvba"
 90
        0
280
         0
281
         0
  0
CLASS
  1
WIPEOUT
  2
AcDbWipeout
  3
WipeOut|AutoCAD Express Tool|expresstools@autodesk.com
 90
      127
280
         0
281
         1
  0
CLASS
  1
WIPEOUTVARIABLES
  2
AcDbWipeoutVariables
  3
WipeOut|AutoCAD Express Tool|expresstools@autodesk.com
 90
        0
280
         0
281
         0
  0
CLASS
  1
RTEXT
  2
RText
  3
RText|AutoCAD Express Tool|expresstools@autodesk.com
 90
        0
280
         0
281
         1
  0
CLASS
  1
ARCALIGNEDTEXT
  2
AcDbArcAlignedText
  3
ATEXT|AutoCAD Express Tool|expresstools@autodesk.com
 90
        0
280
         0
281
         1
  0
ENDSEC
  0
SECTION
  2
TABLES
  0
TABLE
  2
VPORT
  5
7
100
AcDbSymbolTable
 70
         1
  0
VPORT
  5
15
100
AcDbSymbolTableRecord
100
AcDbViewportTableRecord
  2
*ACTIVE
 70
         0
 10
0.0
 20
0.0
 11
1.0
 21
1.0
 12
297.0
 22
210.0
 13
0.0
 23
0.0
 14
1.0
 24
1.0
 15
0.0
 25
0.0
 16
0.0
 26
0.0
 36
1.0
 17
0.0
 27
0.0
 37
0.0
 40
420.0
 41
1.604229
 42
50.0
 43
0.0
 44
0.0
 50
0.0
 51
0.0
 71
         0
 72
       100
 73
         1
 74
         1
 75
         0
 76
         0
 77
         0
 78
         0
  0
ENDTAB
  0
TABLE
  2
LTYPE
  5
4
100
AcDbSymbolTable
 70
         7
  0
LTYPE
  5
11
100
AcDbSymbolTableRecord
100
AcDbLinetypeTableRecord
  2
ByBlock
 70
        64
  3

 72
        65
 73
         0
 40
0.0
  0
LTYPE
  5
12
100
AcDbSymbolTableRecord
100
AcDbLinetypeTableRecord
  2
ByLayer
 70
        64
  3

 72
        65
 73
         0
 40
0.0
  0
LTYPE
  5
13
100
AcDbSymbolTableRecord
100
AcDbLinetypeTableRecord
  2
CONTINUOUS
 70
         0
  3
Solid line
 72
        65
 73
         0
 40
0.0
  0
LTYPE
  5
28
100
AcDbSymbolTableRecord
100
AcDbLinetypeTableRecord
  2
HIDDEN2
 70
        64
  3
_ _ _ _ _ _ _ _ _ _ _ _ _ _ _ _ _ _ _ _ _ _ _ _
 72
        65
 73
         2
 40
0.1875
 49
0.125
 74
         0
 49
-0.0625
 74
         0
  0
LTYPE
  5
29
100
AcDbSymbolTableRecord
100
AcDbLinetypeTableRecord
  2
CENTER2
 70
        64
  3
___ _ ___ _ ___ _ ___ _ ___ _ ___ _ ___ _ ___ _
 72
        65
 73
         4
 40
1.125
 49
0.75
 74
         0
 49
-0.125
 74
         0
 49
0.125
 74
         0
 49
-0.125
 74
         0
  0
LTYPE
  5
2A
100
AcDbSymbolTableRecord
100
AcDbLinetypeTableRecord
  2
PHANTOM2
 70
        64
  3
___ _ _ ___ _ _ ___ _ _ ___ _ _ ___ _ _ ___ _ _
 72
        65
 73
         6
 40
1.25
 49
0.625
 74
         0
 49
-0.125
 74
         0
 49
0.125
 74
         0
 49
-0.125
 74
         0
 49
0.125
 74
         0
 49
-0.125
 74
         0
  0
LTYPE
  5
2B
100
AcDbSymbolTableRecord
100
AcDbLinetypeTableRecord
  2
DOT2
 70
        64
  3
...............................................
 72
        65
 73
         2
 40
0.125
 49
0.0
 74
         0
 49
-0.125
 74
         0
  0
ENDTAB
  0
TABLE
  2
LAYER
  5
2
100
AcDbSymbolTable
 70
         6
  0
LAYER
  5
14
100
AcDbSymbolTableRecord
100
AcDbLayerTableRecord
  2
0
 70
         0
 62
         7
  6
CONTINUOUS
  0
LAYER
  5
2D
100
AcDbSymbolTableRecord
100
AcDbLayerTableRecord
  2
DEFAULT
 70
         0
 62
         7
  6
CONTINUOUS
  0
LAYER
  5
33
100
AcDbSymbolTableRecord
100
AcDbLayerTableRecord
  2
AUTO_-_HIDE
 70
         0
 62
        -1
  6
CONTINUOUS
  0
LAYER
  5
36
100
AcDbSymbolTableRecord
100
AcDbLayerTableRecord
  2
MARK
 70
         0
 62
         7
  6
CONTINUOUS
  0
LAYER
  5
39
100
AcDbSymbolTableRecord
100
AcDbLayerTableRecord
  2
DV1_MARK
 70
         0
 62
         7
  6
CONTINUOUS
  0
LAYER
  5
3A
100
AcDbSymbolTableRecord
100
AcDbLayerTableRecord
  2
DV1_DEFAULT
 70
         0
 62
         7
  6
CONTINUOUS
  0
ENDTAB
  0
TABLE
  2
STYLE
  5
3
100
AcDbSymbolTable
 70
         1
  0
STYLE
  5
17
100
AcDbSymbolTableRecord
100
AcDbTextStyleTableRecord
  2
Standard
 70
         0
 40
0.0
 41
1.0
 50
0.0
 71
         0
 42
0.2
  3
txt
  4

  0
ENDTAB
  0
TABLE
  2
VIEW
  5
5
100
AcDbSymbolTable
 70
         0
  0
ENDTAB
  0
TABLE
  2
UCS
  5
6
100
AcDbSymbolTable
 70
         0
  0
ENDTAB
  0
TABLE
  2
APPID
  5
8
100
AcDbSymbolTable
 70
         1
  0
APPID
  5
16
100
AcDbSymbolTableRecord
100
AcDbRegAppTableRecord
  2
ACAD
 70
         0
  0
ENDTAB
  0
TABLE
  2
DIMSTYLE
  5
9
100
AcDbSymbolTable
 70
         1
  0
DIMSTYLE
105
18
100
AcDbSymbolTableRecord
100
AcDbDimStyleTableRecord
  2
Standard
 70
         0
  3

  4

  5

  6

  7

 40
1.0
 41
0.18
 42
0.0625
 43
0.38
 44
0.18
 45
0.0
 46
0.0
 47
0.0
 48
0.0
 71
         0
 72
         0
 73
         1
 74
         1
 75
         0
 76
         0
 77
         0
 78
         0
140
0.18
141
0.09
142
0.0
143
25.4
144
1.0
145
0.0
146
1.0
147
0.09
170
         0
171
         2
172
         0
173
         0
174
         0
175
         0
176
         0
177
         0
178
         0
270
         2
271
         4
272
         4
273
         2
274
         2
275
         0
280
         0
281
         0
282
         0
283
         1
284
         0
285
         0
286
         0
287
         0
288
         0
340
17
  0
ENDTAB
  0
TABLE
  2
BLOCK_RECORD
  5
1
100
AcDbSymbolTable
 70
         2
  0
BLOCK_RECORD
  5
A
100
AcDbSymbolTableRecord
100
AcDbBlockTableRecord
  2
*MODEL_SPACE
  0
BLOCK_RECORD
  5
B
100
AcDbSymbolTableRecord
100
AcDbBlockTableRecord
  2
*PAPER_SPACE
  0
BLOCK_RECORD
  5
37
100
AcDbSymbolTableRecord
100
AcDbBlockTableRecord
  2
SE0
  0
BLOCK_RECORD
  5
38
100
AcDbSymbolTableRecord
100
AcDbBlockTableRecord
  2
SE1
  0
ENDTAB
  0
ENDSEC
  0
SECTION
  2
BLOCKS
  0
BLOCK
  5
D
100
AcDbEntity
  8
0
100
AcDbBlockBegin
  2
*MODEL_SPACE
 70
         0
 10
0.0
 20
0.0
 30
0.0
  3
*MODEL_SPACE
  1

  0
ENDBLK
  5
E
100
AcDbEntity
  8
0
100
AcDbBlockEnd
  0
BLOCK
  5
F
100
AcDbEntity
 67
         1
  8
0
100
AcDbBlockBegin
  2
*PAPER_SPACE
 70
         0
 10
0.0
 20
0.0
 30
0.0
  3
*PAPER_SPACE
  1

  0
ENDBLK
  5
10
100
AcDbEntity
 67
         1
  8
0
100
AcDbBlockEnd
  0
BLOCK
  5
157
100
AcDbEntity
  8
0
 62
         1
 48
0.0
100
AcDbBlockBegin
  2
SE0
 70
         0
 10
0.0
 20
0.0
 30
0.0
  3
SE0
  1

  0
ENDBLK
  5
158
100
AcDbEntity
  8
0
 62
         1
 48
0.0
100
AcDbBlockEnd
  0
BLOCK
  5
40
100
AcDbEntity
  8
0
 62
         1
 48
0.0
100
AcDbBlockBegin
  2
SE1
 70
         0
 10
0.0
 20
0.0
 30
0.0
  3
SE1
  1

  0
LINE
  5
41
100
AcDbEntity
  8
DV1_MARK
  6
CONTINUOUS
 62
         7
100
AcDbLine
 10
89.5776293554
 20
72.8743866508
 30
0.0
 11
90.2539036273
 21
72.8743866508
 31
0.0
  0
LINE
  5
42
100
AcDbEntity
  8
DV1_MARK
  6
CONTINUOUS
 62
         7
100
AcDbLine
 10
90.2539036273
 20
72.8743866508
 30
0.0
 11
90.2539036273
 21
72.7114618935
 31
0.0
  0
SPLINE
  5
43
100
AcDbEntity
  8
DV1_MARK
  6
CONTINUOUS
 62
         7
100
AcDbSpline
210
0.0
220
0.0
230
1.0
 70
         8
 71
         3
 72
        24
 73
        20
 74
         0
 42
0.0
 43
0.0
 40
0.0
 40
0.0
 40
0.0
 40
0.0
 40
0.0001714314820893
 40
0.0001714314820893
 40
0.0001714314820893
 40
0.2394698841598492
 40
0.2394698841598492
 40
0.4998829061915326
 40
0.4998829061915326
 40
0.4998829061915326
 40
0.7709528099254307
 40
0.7709528099254307
 40
0.9995943809009759
 40
0.9995943809009759
 40
0.9995943809009759
 40
0.999856767329696
 40
0.999856767329696
 40
0.999856767329696
 40
1.0
 40
1.0
 40
1.0
 40
1.0
 10
89.377386637003056
 20
73.687190048855427
 30
0.0
 10
89.38830896710013
 20
73.815527427496207
 30
0.0
 10
89.433818675837998
 20
73.913828398369986
 30
0.0
 10
89.514825957391395
 20
73.982092961476781
 30
0.0
 10
89.595384726755469
 20
74.049979564873482
 30
0.0
 10
89.697774986517615
 20
74.084034709049604
 30
0.0
 10
89.956270132148688
 20
74.084034709049604
 30
0.0
 10
90.060942462245762
 20
74.04671674788456
 30
0.0
 10
90.136488578750615
 20
73.972991019729221
 30
0.0
 10
90.212023461632214
 20
73.899276254507427
 30
0.0
 10
90.248442462245762
 20
73.809156068272898
 30
0.0
 10
90.248442462245762
 20
73.616194903224368
 30
0.0
 10
90.217495860304012
 20
73.527906068272898
 30
0.0
 10
90.153782268071012
 20
73.437796844971942
 30
0.0
 10
90.090801115609949
 20
73.348723500777012
 30
0.0
 10
89.964461879721497
 20
73.228452184777765
 30
0.0
 10
89.776051685546733
 20
73.077359951768045
 30
0.0
 10
89.677022934244448
 20
72.997945590820336
 30
0.0
 10
89.611306539915674
 20
72.930818689632119
 30
0.0
 10
89.577629355449645
 20
72.874386650797177
 30
0.0
  0
LINE
  5
44
100
AcDbEntity
  8
DV1_MARK
  6
CONTINUOUS
 62
         7
100
AcDbLine
 10
90.2539036273
 20
72.7114618935
 30
0.0
 11
89.3437094525
 21
72.7114618935
 31
0.0
  0
SPLINE
  5
45
100
AcDbEntity
  8
DV1_MARK
  6
CONTINUOUS
 62
         7
100
AcDbSpline
210
0.0
220
0.0
230
1.0
 70
         8
 71
         3
 72
        26
 73
        22
 74
         0
 42
0.0
 43
0.0
 40
0.0
 40
0.0
 40
0.0
 40
0.0
 40
0.000127460310462
 40
0.000127460310462
 40
0.000127460310462
 40
0.0003408182338882
 40
0.0003408182338882
 40
0.0003408182338882
 40
0.1748638753899227
 40
0.1748638753899227
 40
0.3493869325459623
 40
0.3493869325459623
 40
0.5001113909989067
 40
0.5001113909989067
 40
0.5001113909989067
 40
0.7469860112804191
 40
0.7469860112804191
 40
0.9998819637639251
 40
0.9998819637639251
 40
0.9998819637639251
 40
1.0
 40
1.0
 40
1.0
 40
1.0
 10
89.343709452537027
 20
72.711461893515633
 30
0.0
 10
89.343709452537027
 20
72.787918204195236
 30
0.0
 10
89.371015277779748
 20
72.866194903224368
 30
0.0
 10
89.424716734090424
 20
72.945381796428251
 30
0.0
 10
89.478704922158784
 20
73.024991497478197
 30
0.0
 10
89.579449743799159
 20
73.123779854680677
 30
0.0
 10
89.727811394284601
 20
73.242105097399119
 30
0.0
 10
89.817939672008237
 20
73.313986545890373
 30
0.0
 10
89.898927899138968
 20
73.389556553709795
 30
0.0
 10
90.04273857875063
 20
73.547930340117574
 30
0.0
 10
90.078236151566159
 20
73.628027427496207
 30
0.0
 10
90.078236151566159
 20
73.777299272156398
 30
0.0
 10
90.053660908847718
 20
73.833731310991354
 30
0.0
 10
90.004510423410821
 20
73.879241019729221
 30
0.0
 10
89.955813690609048
 20
73.924330587138272
 30
0.0
 10
89.89255653991566
 20
73.946595388661265
 30
0.0
 10
89.741464306905968
 20
73.946595388661265
 30
0.0
 10
89.677750714672953
 20
73.923840534292324
 30
0.0
 10
89.626779840886542
 20
73.876510437204942
 30
0.0
 10
89.575774055542752
 20
73.829147922242853
 30
0.0
 10
89.549413336032174
 20
73.760915777010766
 30
0.0
 10
89.54850314185741
 20
73.668075971185516
 30
0.0
  0
LINE
  5
46
100
AcDbEntity
  8
DV1_MARK
  6
CONTINUOUS
 62
         7
100
AcDbLine
 10
89.5485031419
 20
73.6680759712
 30
0.0
 11
89.377386637
 21
73.6871900489
 31
0.0
  0
LINE
  5
47
100
AcDbEntity
  8
DV1_MARK
  6
CONTINUOUS
 62
         7
100
AcDbLine
 10
91.3197410059
 20
72.8743866508
 30
0.0
 11
91.3197410059
 21
72.7114618935
 31
0.0
  0
LINE
  5
48
100
AcDbEntity
  8
DV1_MARK
  6
CONTINUOUS
 62
         7
100
AcDbLine
 10
90.6434667341
 20
72.8743866508
 30
0.0
 11
91.3197410059
 21
72.8743866508
 31
0.0
  0
SPLINE
  5
49
100
AcDbEntity
  8
DV1_MARK
  6
CONTINUOUS
 62
         7
100
AcDbSpline
210
0.0
220
0.0
230
1.0
 70
         8
 71
         3
 72
        24
 73
        20
 74
         0
 42
0.0
 43
0.0
 40
0.0
 40
0.0
 40
0.0
 40
0.0
 40
0.0001713945149988
 40
0.0001713945149988
 40
0.0001713945149988
 40
0.2394698560404473
 40
0.2394698560404473
 40
0.499882887700489
 40
0.499882887700489
 40
0.499882887700489
 40
0.7709528014567663
 40
0.7709528014567663
 40
0.9995943808859787
 40
0.9995943808859787
 40
0.9995943808859787
 40
0.9998567673243998
 40
0.9998567673243998
 40
0.9998567673243998
 40
1.0
 40
1.0
 40
1.0
 40
1.0
 10
90.444134209818586
 20
73.687190048855427
 30
0.0
 10
90.454146345740909
 20
73.815527427496207
 30
0.0
 10
90.499656054478777
 20
73.913828398369986
 30
0.0
 10
90.580663336032174
 20
73.982092961476781
 30
0.0
 10
90.661222105396263
 20
74.049979564873482
 30
0.0
 10
90.76361236515838
 20
74.084034709049604
 30
0.0
 10
91.022107510789453
 20
74.084034709049604
 30
0.0
 10
91.126779840886542
 20
74.04671674788456
 30
0.0
 10
91.202325957391409
 20
73.972991019729221
 30
0.0
 10
91.277860840272979
 20
73.899276254507427
 30
0.0
 10
91.315190035061306
 20
73.809156068272898
 30
0.0
 10
91.315190035061306
 20
73.616194903224368
 30
0.0
 10
91.283333238944806
 20
73.527906068272898
 30
0.0
 10
91.219619646711777
 20
73.437796844971942
 30
0.0
 10
91.156638494250728
 20
73.348723500777012
 30
0.0
 10
91.030299258362277
 20
73.228452184777765
 30
0.0
 10
90.841889064187512
 20
73.077359951768045
 30
0.0
 10
90.742860312885242
 20
72.997945590820336
 30
0.0
 10
90.677143918556439
 20
72.930818689632119
 30
0.0
 10
90.643466734090438
 20
72.874386650797177
 30
0.0
  0
LINE
  5
4A
100
AcDbEntity
  8
DV1_MARK
  6
CONTINUOUS
 62
         7
100
AcDbLine
 10
91.3197410059
 20
72.7114618935
 30
0.0
 11
90.4104570254
 21
72.7114618935
 31
0.0
  0
SPLINE
  5
4B
100
AcDbEntity
  8
DV1_MARK
  6
CONTINUOUS
 62
         7
100
AcDbSpline
210
0.0
220
0.0
230
1.0
 70
         8
 71
         3
 72
        27
 73
        23
 74
         0
 42
0.0
 43
0.0
 40
0.0
 40
0.0
 40
0.0
 40
0.0
 40
0.000127291570955
 40
0.000127291570955
 40
0.000127291570955
 40
0.000340582698171
 40
0.000340582698171
 40
0.000340582698171
 40
0.0005070362257875
 40
0.0005070362257875
 40
0.0005070362257875
 40
0.2686320697787754
 40
0.2686320697787754
 40
0.5001945987563496
 40
0.5001945987563496
 40
0.5001945987563496
 40
0.7470282139822887
 40
0.7470282139822887
 40
0.999882161286912
 40
0.999882161286912
 40
0.999882161286912
 40
1.0
 40
1.0
 40
1.0
 40
1.0
 10
90.410457025352571
 20
72.711461893515633
 30
0.0
 10
90.410457025352571
 20
72.787918204195236
 30
0.0
 10
90.436852656420527
 20
72.866194903224368
 30
0.0
 10
90.490554112731203
 20
72.945381796428251
 30
0.0
 10
90.544542300799563
 20
73.024991497478197
 30
0.0
 10
90.646197316614703
 20
73.123779854680677
 30
0.0
 10
90.79364877292538
 20
73.242105097399119
 30
0.0
 10
90.884114192185152
 20
73.314700804212507
 30
0.0
 10
90.965675471954498
 20
73.389556553709795
 30
0.0
 10
91.036670617585585
 20
73.468743446913678
 30
0.0
 10
91.108071360620826
 20
73.548382737222227
 30
0.0
 10
91.144073530206924
 20
73.628027427496207
 30
0.0
 10
91.144073530206924
 20
73.777299272156398
 30
0.0
 10
91.119498287488483
 20
73.833731310991354
 30
0.0
 10
91.070347802051586
 20
73.879241019729221
 30
0.0
 10
91.021651069249828
 20
73.924330587138272
 30
0.0
 10
90.958393918556453
 20
73.946595388661265
 30
0.0
 10
90.807301685546733
 20
73.946595388661265
 30
0.0
 10
90.744498287488483
 20
73.923840534292324
 30
0.0
 10
90.692617219527321
 20
73.876510437204942
 30
0.0
 10
90.64168609888813
 20
73.830046958727095
 30
0.0
 10
90.615250714672953
 20
73.760915777010766
 30
0.0
 10
90.614340520498189
 20
73.668075971185516
 30
0.0
  0
LINE
  5
4C
100
AcDbEntity
  8
DV1_MARK
  6
CONTINUOUS
 62
         7
100
AcDbLine
 10
90.6143405205
 20
73.6680759712
 30
0.0
 11
90.4441342098
 21
73.6871900489
 31
0.0
  0
SPLINE
  5
4D
100
AcDbEntity
  8
DV1_MARK
  6
CONTINUOUS
 62
         7
100
AcDbSpline
210
0.0
220
0.0
230
1.0
 70
         8
 71
         3
 72
        24
 73
        20
 74
         0
 42
0.0
 43
0.0
 40
0.0
 40
0.0
 40
0.0
 40
0.0
 40
0.1249852188678273
 40
0.1249852188678273
 40
0.2499704377356565
 40
0.2499704377356565
 40
0.3749556566034832
 40
0.3749556566034832
 40
0.4999408754713097
 40
0.4999408754713097
 40
0.4999408754713097
 40
0.6660229290177155
 40
0.6660229290177155
 40
0.8321049825641149
 40
0.8321049825641149
 40
0.9998817509426193
 40
0.9998817509426193
 40
0.9998817509426193
 40
1.0
 40
1.0
 40
1.0
 40
1.0
 10
91.968709452537027
 20
72.82432597118553
 30
0.0
 10
92.046075957391395
 20
72.82432597118553
 30
0.0
 10
92.108879355449645
 20
72.85527257312728
 30
0.0
 10
92.205359937973924
 20
72.979058980894266
 30
0.0
 10
92.229024986517615
 20
73.054605097399119
 30
0.0
 10
92.229024986517615
 20
73.23118276730203
 30
0.0
 10
92.205359937973924
 20
73.303998301282618
 30
0.0
 10
92.108879355449645
 20
73.420503155651545
 30
0.0
 10
92.044255569041894
 20
73.44871917506903
 30
0.0
 10
91.963248287488483
 20
73.44962936924378
 30
0.0
 10
91.888632012116716
 20
73.450467754360318
 30
0.0
 10
91.82489877292538
 20
73.42232354400106
 30
0.0
 10
91.717495860304012
 20
73.313100243030192
 30
0.0
 10
91.690190035061306
 20
73.241194903224368
 30
0.0
 10
91.690190035061306
 20
73.061886650797177
 30
0.0
 10
91.716585666129262
 20
72.98452014594281
 30
0.0
 10
91.769376928265189
 20
72.919896359535045
 30
0.0
 10
91.821722243986869
 20
72.855818473048146
 30
0.0
 10
91.88861236515838
 20
72.82432597118553
 30
0.0
 10
91.968709452537027
 20
72.82432597118553
 30
0.0
  0
LINE
  5
4E
100
AcDbEntity
  8
DV1_MARK
  6
CONTINUOUS
 62
         7
100
AcDbLine
 10
91.6619740156
 20
73.4150419906
 30
0.0
 11
91.6665249865
 21
73.4150419906
 31
0.0
  0
SPLINE
  5
4F
100
AcDbEntity
  8
DV1_MARK
  6
CONTINUOUS
 62
         7
100
AcDbSpline
210
0.0
220
0.0
230
1.0
 70
         8
 71
         3
 72
        13
 73
         9
 74
         0
 42
0.0
 43
0.0
 40
0.0
 40
0.0
 40
0.0
 40
0.0
 40
0.5910515697558313
 40
0.5910515697558313
 40
0.9995725076752845
 40
0.9995725076752845
 40
0.9995725076752845
 40
1.0
 40
1.0
 40
1.0
 40
1.0
 10
92.207180326323439
 20
73.728148786719501
 30
0.0
 10
92.177143918556439
 20
73.873779854680677
 30
0.0
 10
92.099777413702085
 20
73.946595388661265
 30
0.0
 10
91.890432753507909
 20
73.946595388661265
 30
0.0
 10
91.816707025352571
 20
73.903816262447663
 30
0.0
 10
91.754813821469071
 20
73.819168204195236
 30
0.0
 10
91.692486950143319
 20
73.733927041940888
 30
0.0
 10
91.661974015643821
 20
73.598901213903972
 30
0.0
 10
91.661974015643821
 20
73.415041990603001
 30
0.0
  0
SPLINE
  5
50
100
AcDbEntity
  8
DV1_MARK
  6
CONTINUOUS
 62
         7
100
AcDbSpline
210
0.0
220
0.0
230
1.0
 70
         8
 71
         3
 72
        30
 73
        26
 74
         0
 42
0.0
 43
0.0
 40
0.0
 40
0.0
 40
0.0
 40
0.0
 40
0.1869047619047607
 40
0.1869047619047607
 40
0.3333333333333334
 40
0.3333333333333334
 40
0.3333333333333334
 40
0.4155011655011648
 40
0.4155011655011648
 40
0.4988344988344974
 40
0.4988344988344974
 40
0.5821678321678306
 40
0.5821678321678306
 40
0.6666666666666667
 40
0.6666666666666667
 40
0.6666666666666667
 40
0.7455369595536961
 40
0.7455369595536961
 40
0.8226738394102418
 40
0.8226738394102418
 40
0.899810719266787
 40
0.899810719266787
 40
0.9499053596333936
 40
0.9499053596333936
 40
1.0
 40
1.0
 40
1.0
 40
1.0
 10
91.666524986517615
 20
73.415041990603001
 30
0.0
 10
91.743891491371983
 20
73.535187621670971
 30
0.0
 10
91.853114792342851
 20
73.596170631379707
 30
0.0
 10
92.107969161274895
 20
73.596170631379707
 30
0.0
 10
92.203539549624409
 20
73.554301699340868
 30
0.0
 10
92.282726442828292
 20
73.471474029437957
 30
0.0
 10
92.361024044739409
 20
73.389576537783782
 30
0.0
 10
92.400141491371983
 20
73.283063835263206
 30
0.0
 10
92.400141491371983
 20
73.024568689632133
 30
0.0
 10
92.36100314185741
 20
72.914435194486501
 30
0.0
 10
92.204449743799174
 20
72.732396359535045
 30
0.0
 10
92.100687607876836
 20
72.686886650797177
 30
0.0
 10
91.838551685546733
 20
72.686886650797177
 30
0.0
 10
91.7265978020516
 20
72.73512694205931
 30
0.0
 10
91.634668190401115
 20
72.832517718758339
 30
0.0
 10
91.542764055779259
 20
72.929881504941889
 30
0.0
 10
91.495408481663233
 20
73.101935194486501
 30
0.0
 10
91.495408481663233
 20
73.593440048855427
 30
0.0
 10
91.537277413702071
 20
73.776389077981648
 30
0.0
 10
91.70475314185741
 20
74.022141505166104
 30
0.0
 10
91.826719161274895
 20
74.084034709049604
 30
0.0
 10
92.087944889430233
 20
74.084034709049604
 30
0.0
 10
92.175323530206938
 20
74.054908495457369
 30
0.0
 10
92.317313821469071
 20
73.940224029437957
 30
0.0
 10
92.360092947682659
 20
73.85557597118553
 30
0.0
 10
92.376476442828292
 20
73.742711893515619
 30
0.0
  0
LINE
  5
51
100
AcDbEntity
  8
DV1_MARK
  6
CONTINUOUS
 62
         7
100
AcDbLine
 10
92.3764764428
 20
73.7427118935
 30
0.0
 11
92.2071803263
 21
73.7281487867
 31
0.0
  0
LINE
  5
52
100
AcDbEntity
  8
DV1_MARK
  6
CONTINUOUS
 62
         7
100
AcDbLine
 10
93.1965613943
 20
74.0867652916
 30
0.0
 11
93.1965613943
 21
72.7114618935
 31
0.0
  0
SPLINE
  5
53
100
AcDbEntity
  8
DV1_MARK
  6
CONTINUOUS
 62
         7
100
AcDbSpline
210
0.0
220
0.0
230
1.0
 70
         8
 71
         3
 72
        11
 73
         7
 74
         0
 42
0.0
 43
0.0
 40
0.0
 40
0.0
 40
0.0
 40
0.0
 40
0.0005440767901484
 40
0.0005440767901484
 40
0.0005440767901484
 40
1.0
 40
1.0
 40
1.0
 40
1.0
 10
92.691403627294306
 20
73.742711893515619
 30
0.0
 10
92.885274986517601
 20
73.834641505166104
 30
0.0
 10
93.018163336032174
 20
73.94932597118553
 30
0.0
 10
93.088248287488483
 20
74.086765291573869
 30
0.0
 10
93.095699133412538
 20
74.10137669072364
 30
0.0
 10
93.160457025352571
 20
74.086765291573869
 30
0.0
 10
93.196561394284601
 20
74.086765291573869
 30
0.0
  0
LINE
  5
54
100
AcDbEntity
  8
DV1_MARK
  6
CONTINUOUS
 62
         7
100
AcDbLine
 10
92.6914036273
 20
73.5788769421
 30
0.0
 11
92.6914036273
 21
73.7427118935
 31
0.0
  0
LINE
  5
55
100
AcDbEntity
  8
DV1_MARK
  6
CONTINUOUS
 62
         7
100
AcDbLine
 10
93.1965613943
 20
72.7114618935
 30
0.0
 11
93.028175472
 21
72.7114618935
 31
0.0
  0
LINE
  5
56
100
AcDbEntity
  8
DV1_MARK
  6
CONTINUOUS
 62
         7
100
AcDbLine
 10
93.028175472
 20
72.7114618935
 30
0.0
 11
93.028175472
 21
73.7809400489
 31
0.0
  0
ARC
  5
57
100
AcDbEntity
  8
DV1_MARK
  6
CONTINUOUS
 62
         7
100
AcDbCircle
 10
92.3299918079
 20
74.5629047317
 30
0.0
 40
1.0482982372
100
AcDbArc
 50
290.1671761971
 51
311.760336867
  0
LINE
  5
58
100
AcDbEntity
  8
DV1_MARK
  6
CONTINUOUS
 62
         7
100
AcDbLine
 10
93.9065128506
 20
72.9035128644
 30
0.0
 11
93.9065128506
 21
72.7114618935
 31
0.0
  0
LINE
  5
59
100
AcDbEntity
  8
DV1_MARK
  6
CONTINUOUS
 62
         7
100
AcDbLine
 10
93.7135516855
 20
72.9035128644
 30
0.0
 11
93.9065128506
 21
72.9035128644
 31
0.0
  0
LINE
  5
5A
100
AcDbEntity
  8
DV1_MARK
  6
CONTINUOUS
 62
         7
100
AcDbLine
 10
93.9065128506
 20
72.7114618935
 30
0.0
 11
93.7135516855
 21
72.7114618935
 31
0.0
  0
LINE
  5
5B
100
AcDbEntity
  8
DV1_MARK
  6
CONTINUOUS
 62
         7
100
AcDbLine
 10
93.7135516855
 20
72.7114618935
 30
0.0
 11
93.7135516855
 21
72.9035128644
 31
0.0
  0
SPLINE
  5
5C
100
AcDbEntity
  8
DV1_MARK
  6
CONTINUOUS
 62
         7
100
AcDbSpline
210
0.0
220
0.0
230
1.0
 70
         8
 71
         3
 72
        24
 73
        20
 74
         0
 42
0.0
 43
0.0
 40
0.0
 40
0.0
 40
0.0
 40
0.0
 40
0.1249852188678216
 40
0.1249852188678216
 40
0.24997043773565
 40
0.24997043773565
 40
0.3749556566034833
 40
0.3749556566034833
 40
0.4999408754713097
 40
0.4999408754713097
 40
0.4999408754713097
 40
0.6660229290177107
 40
0.6660229290177107
 40
0.8321049825641116
 40
0.8321049825641116
 40
0.9998817509426193
 40
0.9998817509426193
 40
0.9998817509426193
 40
1.0
 40
1.0
 40
1.0
 40
1.0
 10
94.627386637003056
 20
72.82432597118553
 30
0.0
 10
94.705663336032174
 20
72.82432597118553
 30
0.0
 10
94.767556539915674
 20
72.85527257312728
 30
0.0
 10
94.864037122439939
 20
72.979058980894266
 30
0.0
 10
94.88861236515838
 20
73.054605097399119
 30
0.0
 10
94.88861236515838
 20
73.23118276730203
 30
0.0
 10
94.864037122439939
 20
73.303998301282618
 30
0.0
 10
94.767556539915674
 20
73.420503155651545
 30
0.0
 10
94.702932753507895
 20
73.44871917506903
 30
0.0
 10
94.621925471954498
 20
73.44962936924378
 30
0.0
 10
94.547309196582731
 20
73.450467754360318
 30
0.0
 10
94.483575957391409
 20
73.42232354400106
 30
0.0
 10
94.376173044770042
 20
73.313100243030192
 30
0.0
 10
94.348867219527321
 20
73.241194903224368
 30
0.0
 10
94.348867219527321
 20
73.061886650797177
 30
0.0
 10
94.375262850595277
 20
72.98452014594281
 30
0.0
 10
94.428054112731218
 20
72.919896359535045
 30
0.0
 10
94.480399428452884
 20
72.855818473048146
 30
0.0
 10
94.547289549624409
 20
72.82432597118553
 30
0.0
 10
94.627386637003056
 20
72.82432597118553
 30
0.0
  0
LINE
  5
5D
100
AcDbEntity
  8
DV1_MARK
  6
CONTINUOUS
 62
         7
100
AcDbLine
 10
94.3215613943
 20
73.4150419906
 30
0.0
 11
94.325202171
 21
73.4150419906
 31
0.0
  0
SPLINE
  5
5E
100
AcDbEntity
  8
DV1_MARK
  6
CONTINUOUS
 62
         7
100
AcDbSpline
210
0.0
220
0.0
230
1.0
 70
         8
 71
         3
 72
        13
 73
         9
 74
         0
 42
0.0
 43
0.0
 40
0.0
 40
0.0
 40
0.0
 40
0.0
 40
0.5910518834079787
 40
0.5910518834079787
 40
0.9995730381164389
 40
0.9995730381164389
 40
0.9995730381164389
 40
1.0
 40
1.0
 40
1.0
 40
1.0
 10
94.866767704964218
 20
73.728148786719501
 30
0.0
 10
94.835821103022468
 20
73.873779854680677
 30
0.0
 10
94.7584545981681
 20
73.946595388661265
 30
0.0
 10
94.549109937973924
 20
73.946595388661265
 30
0.0
 10
94.475384209818586
 20
73.903816262447663
 30
0.0
 10
94.413491005935086
 20
73.819168204195236
 30
0.0
 10
94.351481224782162
 20
73.734360709383154
 30
0.0
 10
94.321561394284601
 20
73.598901213903972
 30
0.0
 10
94.321561394284601
 20
73.415041990603001
 30
0.0
  0
SPLINE
  5
5F
100
AcDbEntity
  8
DV1_MARK
  6
CONTINUOUS
 62
         7
100
AcDbSpline
210
0.0
220
0.0
230
1.0
 70
         8
 71
         3
 72
        31
 73
        27
 74
         0
 42
0.0
 43
0.0
 40
0.0
 40
0.0
 40
0.0
 40
0.0
 40
0.1392857142857118
 40
0.1392857142857118
 40
0.25
 40
0.25
 40
0.25
 40
0.3117338003502616
 40
0.3117338003502616
 40
0.3743432574430804
 40
0.3743432574430804
 40
0.4369527145359
 40
0.4369527145359
 40
0.5
 40
0.5
 40
0.5
 40
0.6263888888888887
 40
0.6263888888888887
 40
0.75
 40
0.75
 40
0.75
 40
0.8587499999999999
 40
0.8587499999999999
 40
0.9293749999999994
 40
0.9293749999999994
 40
1.0
 40
1.0
 40
1.0
 40
1.0
 10
94.32520217098363
 20
73.415041990603001
 30
0.0
 10
94.402568675837998
 20
73.535187621670971
 30
0.0
 10
94.51270217098363
 20
73.596170631379707
 30
0.0
 10
94.767556539915674
 20
73.596170631379707
 30
0.0
 10
94.863126928265174
 20
73.554301699340868
 30
0.0
 10
94.941403627294306
 20
73.471474029437957
 30
0.0
 10
95.019225954976136
 20
73.389127147821142
 30
0.0
 10
95.058818675837998
 20
73.283063835263206
 30
0.0
 10
95.058818675837998
 20
73.024568689632133
 30
0.0
 10
95.019680326323439
 20
72.914435194486501
 30
0.0
 10
94.863126928265174
 20
72.732396359535045
 30
0.0
 10
94.759364792342851
 20
72.686886650797177
 30
0.0
 10
94.498139064187512
 20
72.686886650797177
 30
0.0
 10
94.38618518069238
 20
72.73512694205931
 30
0.0
 10
94.29334537486713
 20
72.832517718758339
 30
0.0
 10
94.200960145494705
 20
72.929431635845106
 30
0.0
 10
94.154085666129262
 20
73.101935194486501
 30
0.0
 10
94.154085666129262
 20
73.593440048855427
 30
0.0
 10
94.1959545981681
 20
73.776389077981648
 30
0.0
 10
94.279692462245762
 20
73.899265291573883
 30
0.0
 10
94.363718980206869
 20
74.022565073364632
 30
0.0
 10
94.485396345740909
 20
74.084034709049604
 30
0.0
 10
94.746622073896248
 20
74.084034709049604
 30
0.0
 10
94.834000714672953
 20
74.054908495457369
 30
0.0
 10
94.975991005935086
 20
73.940224029437957
 30
0.0
 10
95.019680326323439
 20
73.85557597118553
 30
0.0
 10
95.035153627294306
 20
73.742711893515619
 30
0.0
  0
LINE
  5
60
100
AcDbEntity
  8
DV1_MARK
  6
CONTINUOUS
 62
         7
100
AcDbLine
 10
95.0351536273
 20
73.7427118935
 30
0.0
 11
94.866767705
 21
73.7281487867
 31
0.0
  0
ARC
  5
61
100
AcDbEntity
  8
DV1_MARK
  6
CONTINUOUS
 62
         7
100
AcDbCircle
 10
86.4241260759
 20
70.4140272871
 30
0.0
 40
0.6241063016
100
AcDbArc
 50
49.4634754062
 51
76.2782717508
  0
SPLINE
  5
62
100
AcDbEntity
  8
DV1_MARK
  6
CONTINUOUS
 62
         7
100
AcDbSpline
210
0.0
220
0.0
230
1.0
 70
         8
 71
         3
 72
        24
 73
        20
 74
         0
 42
0.0
 43
0.0
 40
0.0
 40
0.0
 40
0.0
 40
0.0
 40
0.0908218740006418
 40
0.0908218740006418
 40
0.1718366911843109
 40
0.1718366911843109
 40
0.2528515083679788
 40
0.2528515083679788
 40
0.3333333333333334
 40
0.3333333333333334
 40
0.3333333333333334
 40
0.501692047377326
 40
0.501692047377326
 40
0.6666666666666667
 40
0.6666666666666667
 40
0.6666666666666667
 40
0.8893805309734519
 40
0.8893805309734519
 40
1.0
 40
1.0
 40
1.0
 40
1.0
 10
86.829753141857424
 20
70.888342961476795
 30
0.0
 10
86.937156054478777
 20
70.987554126525325
 30
0.0
 10
86.990857510789453
 20
71.133185194486501
 30
0.0
 10
86.990857510789453
 20
71.499993446913678
 30
0.0
 10
86.948078384575865
 20
71.63561237895253
 30
0.0
 10
86.775141491371983
 20
71.832214320700103
 30
0.0
 10
86.663187607876836
 20
71.881364806136986
 30
0.0
 10
86.38739877292538
 20
71.881364806136986
 30
0.0
 10
86.274534695255483
 20
71.834034709049604
 30
0.0
 10
86.187156054478777
 20
71.740284709049604
 30
0.0
 10
86.099746561218581
 20
71.646501606905844
 30
0.0
 10
86.056998287488483
 20
71.508185194486501
 30
0.0
 10
86.056998287488483
 20
71.149568689632119
 30
0.0
 10
86.100687607876836
 20
71.013039563418531
 30
0.0
 10
86.187156054478777
 20
70.91746917506903
 30
0.0
 10
86.274487029226364
 20
70.820945466137474
 30
0.0
 10
86.38739877292538
 20
70.772748301282618
 30
0.0
 10
86.593102656420527
 20
70.772748301282618
 30
0.0
 10
86.653175471954498
 20
70.784580825554457
 30
0.0
 10
86.705966734090424
 20
70.808245874098148
 30
0.0
  0
ARC
  5
63
100
AcDbEntity
  8
DV1_MARK
  6
CONTINUOUS
 62
         7
100
AcDbCircle
 10
87.5831637563
 20
71.599636008
 30
0.0
 40
1.0132581821
100
AcDbArc
 50
232.9492784734
 51
247.9043401452
  0
LINE
  5
64
100
AcDbEntity
  8
DV1_MARK
  6
CONTINUOUS
 62
         7
100
AcDbLine
 10
87.2020225593
 20
70.6607944178
 30
0.0
 11
87.148321103
 21
70.5351876217
 31
0.0
  0
ARC
  5
65
100
AcDbEntity
  8
DV1_MARK
  6
CONTINUOUS
 62
         7
100
AcDbCircle
 10
87.5265376586
 20
71.5409025046
 30
0.0
 40
1.074481358
100
AcDbArc
 50
231.2728216656
 51
249.3903573368
  0
SPLINE
  5
66
100
AcDbEntity
  8
DV1_MARK
  6
CONTINUOUS
 62
         7
100
AcDbSpline
210
0.0
220
0.0
230
1.0
 70
         8
 71
         3
 72
        25
 73
        21
 74
         0
 42
0.0
 43
0.0
 40
0.0
 40
0.0
 40
0.0
 40
0.0
 40
0.0972222222222219
 40
0.0972222222222219
 40
0.25
 40
0.25
 40
0.25
 40
0.3755506607929517
 40
0.3755506607929517
 40
0.5000000000000001
 40
0.5000000000000001
 40
0.5000000000000001
 40
0.6279069767441862
 40
0.6279069767441862
 40
0.75
 40
0.75
 40
0.75
 40
0.8705636743215028
 40
0.8705636743215028
 40
1.0
 40
1.0
 40
1.0
 40
1.0
 10
86.854328384575865
 20
70.70266334982631
 30
0.0
 10
86.753296831177806
 20
70.647141505166118
 30
0.0
 10
86.642253141857424
 20
70.618925485748633
 30
0.0
 10
86.330966734090424
 20
70.618925485748633
 30
0.0
 10
86.174413336032174
 20
70.685369660505913
 30
0.0
 10
86.052447316614703
 20
70.817347815845721
 30
0.0
 10
85.930027612765954
 20
70.949816898368624
 30
0.0
 10
85.869498287488483
 20
71.119532281865148
 30
0.0
 10
85.869498287488483
 20
71.532760437204942
 30
0.0
 10
85.928660908847704
 20
71.702056553709795
 30
0.0
 10
86.046986151566159
 20
71.835855097399119
 30
0.0
 10
86.164859712582157
 20
71.969142893317212
 30
0.0
 10
86.32459537486713
 20
72.035187621670971
 30
0.0
 10
86.715978870012762
 20
72.035187621670971
 30
0.0
 10
86.872532268071012
 20
71.970563835263192
 30
0.0
 10
86.995408481663247
 20
71.840406068272912
 30
0.0
 10
87.118310113099724
 20
71.710221377195737
 30
0.0
 10
87.178357510789453
 20
71.539131796428251
 30
0.0
 10
87.178357510789453
 20
71.103148786719515
 30
0.0
 10
87.110092947682659
 20
70.923840534292324
 30
0.0
 10
86.972653627294306
 20
70.790952184777765
 30
0.0
  0
LINE
  5
67
100
AcDbEntity
  8
DV1_MARK
  6
CONTINUOUS
 62
         7
100
AcDbLine
 10
86.52847887
 20
70.8883429615
 30
0.0
 11
86.5721681904
 21
71.0203211168
 31
0.0
  0
ARC
  5
68
100
AcDbEntity
  8
DV1_MARK
  6
CONTINUOUS
 62
         7
100
AcDbCircle
 10
86.4029186588
 20
70.3734159184
 30
0.0
 40
0.5300143642
100
AcDbArc
 50
55.1260220998
 51
76.2963735435
  0
LINE
  5
69
100
AcDbEntity
  8
DV1_MARK
  6
CONTINUOUS
 62
         7
100
AcDbLine
 10
87.8427992584
 20
71.2223842236
 30
0.0
 11
87.8427992584
 21
71.0539983013
 31
0.0
  0
LINE
  5
6A
100
AcDbEntity
  8
DV1_MARK
  6
CONTINUOUS
 62
         7
100
AcDbLine
 10
87.330359938
 20
71.0539983013
 30
0.0
 11
87.330359938
 21
71.2223842236
 31
0.0
  0
LINE
  5
6B
100
AcDbEntity
  8
DV1_MARK
  6
CONTINUOUS
 62
         7
100
AcDbLine
 10
87.330359938
 20
71.2223842236
 30
0.0
 11
87.8427992584
 21
71.2223842236
 31
0.0
  0
LINE
  5
6C
100
AcDbEntity
  8
DV1_MARK
  6
CONTINUOUS
 62
         7
100
AcDbLine
 10
87.8427992584
 20
71.0539983013
 30
0.0
 11
87.330359938
 21
71.0539983013
 31
0.0
  0
SPLINE
  5
6D
100
AcDbEntity
  8
DV1_MARK
  6
CONTINUOUS
 62
         7
100
AcDbSpline
210
0.0
220
0.0
230
1.0
 70
         8
 71
         3
 72
        29
 73
        25
 74
         0
 42
0.0
 43
0.0
 40
0.0
 40
0.0
 40
0.0
 40
0.0
 40
0.0929478494964823
 40
0.0929478494964823
 40
0.1858956989929632
 40
0.1858956989929632
 40
0.2499830290110841
 40
0.2499830290110841
 40
0.2499830290110841
 40
0.3749745435166262
 40
0.4999660580221683
 40
0.4999660580221683
 40
0.4999660580221683
 40
0.5000339419778318
 40
0.5000339419778318
 40
0.5000339419778318
 40
0.6475649099187989
 40
0.6475649099187989
 40
0.750016970988916
 40
0.750016970988916
 40
0.750016970988916
 40
0.8750084854944596
 40
0.8750084854944596
 40
1.0
 40
1.0
 40
1.0
 40
1.0
 10
88.437156054478777
 20
70.756364806136972
 30
0.0
 10
88.527265277779748
 20
70.756364806136972
 30
0.0
 10
88.595529840886542
 20
70.800054126525339
 30
0.0
 10
88.688369646711777
 20
70.974811408078736
 30
0.0
 10
88.711124501080718
 20
71.117711893515619
 30
0.0
 10
88.711124501080718
 20
71.45448373817581
 30
0.0
 10
88.701112365158394
 20
71.563707039146692
 30
0.0
 10
88.681088093313718
 20
71.642893932350574
 30
0.0
 10
88.661009117137681
 20
71.722297156319442
 30
0.0
 10
88.600080811760321
 20
71.840406068272912
 30
0.0
 10
88.496318675837998
 20
71.878634223612707
 30
0.0
 10
88.435335666129262
 20
71.879544417787471
 30
0.0
 10
88.344350102200792
 20
71.880902411278939
 30
0.0
 10
88.276961879721497
 20
71.834034709049604
 30
0.0
 10
88.23054197680888
 20
71.745745874098148
 30
0.0
 10
88.183944279097432
 20
71.657118880411659
 30
0.0
 10
88.162277413702085
 20
71.513646359535045
 30
0.0
 10
88.162277413702085
 20
71.180515291573869
 30
0.0
 10
88.173199743799174
 20
71.072202184777765
 30
0.0
 10
88.193224015643821
 20
70.992105097399119
 30
0.0
 10
88.213087664987057
 20
70.912650500026189
 30
0.0
 10
88.244194889430233
 20
70.853755582836001
 30
0.0
 10
88.326112365158394
 20
70.775478883806898
 30
0.0
 10
88.376173044770042
 20
70.756364806136972
 30
0.0
 10
88.437156054478777
 20
70.756364806136972
 30
0.0
  0
SPLINE
  5
6E
100
AcDbEntity
  8
DV1_MARK
  6
CONTINUOUS
 62
         7
100
AcDbSpline
210
0.0
220
0.0
230
1.0
 70
         8
 71
         3
 72
        19
 73
        15
 74
         0
 42
0.0
 43
0.0
 40
0.0
 40
0.0
 40
0.0
 40
0.0
 40
0.3320363164721142
 40
0.3320363164721142
 40
0.5
 40
0.5
 40
0.5
 40
0.597388984181436
 40
0.597388984181436
 40
0.7977144263267968
 40
0.7977144263267968
 40
0.8988572131633981
 40
0.8988572131633981
 40
1.0
 40
1.0
 40
1.0
 40
1.0
 10
88.436245860304012
 20
72.01607354400106
 30
0.0
 10
88.733879355449659
 20
72.01607354400106
 30
0.0
 10
88.882241005935086
 20
71.783063835263206
 30
0.0
 10
88.882241005935086
 20
71.081304126525325
 30
0.0
 10
88.844012850595277
 20
70.905636650797177
 30
0.0
 10
88.766646345740909
 20
70.790952184777765
 30
0.0
 10
88.689564510507452
 20
70.676689699608161
 30
0.0
 10
88.580056539915674
 20
70.618925485748633
 30
0.0
 10
88.140432753507895
 20
70.618925485748633
 30
0.0
 10
87.992071103022468
 20
70.851935194486501
 30
0.0
 10
87.992071103022468
 20
71.551874514874854
 30
0.0
 10
88.030299258362263
 20
71.727541990603015
 30
0.0
 10
88.183211879721497
 20
71.958731310991354
 30
0.0
 10
88.29334537486713
 20
72.01607354400106
 30
0.0
 10
88.436245860304012
 20
72.01607354400106
 30
0.0
  0
LINE
  5
6F
100
AcDbEntity
  8
DV1_MARK
  6
CONTINUOUS
 62
         7
100
AcDbLine
 10
89.1616706176
 20
71.1240832527
 30
0.0
 11
89.5921924622
 21
71.1240832527
 31
0.0
  0
LINE
  5
70
100
AcDbEntity
  8
DV1_MARK
  6
CONTINUOUS
 62
         7
100
AcDbLine
 10
89.5921924622
 20
71.1240832527
 30
0.0
 11
89.5921924622
 21
71.7393745149
 31
0.0
  0
LINE
  5
71
100
AcDbEntity
  8
DV1_MARK
  6
CONTINUOUS
 62
         7
100
AcDbLine
 10
89.9453478021
 20
70.9702604372
 30
0.0
 11
89.7605783846
 21
70.9702604372
 31
0.0
  0
LINE
  5
72
100
AcDbEntity
  8
DV1_MARK
  6
CONTINUOUS
 62
         7
100
AcDbLine
 10
89.9453478021
 20
71.1240832527
 30
0.0
 11
89.9453478021
 21
70.9702604372
 31
0.0
  0
LINE
  5
73
100
AcDbEntity
  8
DV1_MARK
  6
CONTINUOUS
 62
         7
100
AcDbLine
 10
89.7605783846
 20
71.1240832527
 30
0.0
 11
89.9453478021
 21
71.1240832527
 31
0.0
  0
LINE
  5
74
100
AcDbEntity
  8
DV1_MARK
  6
CONTINUOUS
 62
         7
100
AcDbLine
 10
89.7605783846
 20
70.9702604372
 30
0.0
 11
89.7605783846
 21
70.6435007285
 31
0.0
  0
LINE
  5
75
100
AcDbEntity
  8
DV1_MARK
  6
CONTINUOUS
 62
         7
100
AcDbLine
 10
89.7605783846
 20
70.6435007285
 30
0.0
 11
89.5921924622
 21
70.6435007285
 31
0.0
  0
LINE
  5
76
100
AcDbEntity
  8
DV1_MARK
  6
CONTINUOUS
 62
         7
100
AcDbLine
 10
89.5921924622
 20
70.6435007285
 30
0.0
 11
89.5921924622
 21
70.9702604372
 31
0.0
  0
LINE
  5
77
100
AcDbEntity
  8
DV1_MARK
  6
CONTINUOUS
 62
         7
100
AcDbLine
 10
89.5921924622
 20
70.9702604372
 30
0.0
 11
88.9978356661
 21
70.9702604372
 31
0.0
  0
LINE
  5
78
100
AcDbEntity
  8
DV1_MARK
  6
CONTINUOUS
 62
         7
100
AcDbLine
 10
89.5885516855
 20
71.7393745149
 30
0.0
 11
89.1616706176
 21
71.1240832527
 31
0.0
  0
LINE
  5
79
100
AcDbEntity
  8
DV1_MARK
  6
CONTINUOUS
 62
         7
100
AcDbLine
 10
89.62222887
 20
72.0115225731
 30
0.0
 11
89.7605783846
 21
72.0115225731
 31
0.0
  0
LINE
  5
7A
100
AcDbEntity
  8
DV1_MARK
  6
CONTINUOUS
 62
         7
100
AcDbLine
 10
89.7605783846
 20
72.0115225731
 30
0.0
 11
89.7605783846
 21
71.1240832527
 31
0.0
  0
LINE
  5
7B
100
AcDbEntity
  8
DV1_MARK
  6
CONTINUOUS
 62
         7
100
AcDbLine
 10
88.9978356661
 20
70.9702604372
 30
0.0
 11
88.9978356661
 21
71.1240832527
 31
0.0
  0
LINE
  5
7C
100
AcDbEntity
  8
DV1_MARK
  6
CONTINUOUS
 62
         7
100
AcDbLine
 10
88.9978356661
 20
71.1240832527
 30
0.0
 11
89.62222887
 21
72.0115225731
 31
0.0
  0
LINE
  5
7D
100
AcDbEntity
  8
DV1_MARK
  6
CONTINUOUS
 62
         7
100
AcDbLine
 10
89.5921924622
 20
71.7393745149
 30
0.0
 11
89.5885516855
 21
71.7393745149
 31
0.0
  0
SPLINE
  5
7E
100
AcDbEntity
  8
DV1_MARK
  6
CONTINUOUS
 62
         7
100
AcDbSpline
210
0.0
220
0.0
230
1.0
 70
         8
 71
         3
 72
        11
 73
         7
 74
         0
 42
0.0
 43
0.0
 40
0.0
 40
0.0
 40
0.0
 40
0.0
 40
0.0005436584944788
 40
0.0005436584944788
 40
0.0005436584944788
 40
1.0
 40
1.0
 40
1.0
 40
1.0
 10
90.246622073896248
 20
71.674750728467075
 30
0.0
 10
90.440493433119556
 20
71.767590534292324
 30
0.0
 10
90.573381782634115
 20
71.882275000311751
 30
0.0
 10
90.643466734090438
 20
72.018804126525339
 30
0.0
 10
90.650996467932572
 20
72.033472439204814
 30
0.0
 10
90.715675471954498
 20
72.018804126525339
 30
0.0
 10
90.751779840886542
 20
72.018804126525339
 30
0.0
  0
LINE
  5
7F
100
AcDbEntity
  8
DV1_MARK
  6
CONTINUOUS
 62
         7
100
AcDbLine
 10
90.7517798409
 20
72.0188041265
 30
0.0
 11
90.7517798409
 21
70.6435007285
 31
0.0
  0
LINE
  5
80
100
AcDbEntity
  8
DV1_MARK
  6
CONTINUOUS
 62
         7
100
AcDbLine
 10
90.2466220739
 20
71.510915777
 30
0.0
 11
90.2466220739
 21
71.6747507285
 31
0.0
  0
LINE
  5
81
100
AcDbEntity
  8
DV1_MARK
  6
CONTINUOUS
 62
         7
100
AcDbLine
 10
90.7517798409
 20
70.6435007285
 30
0.0
 11
90.5833939186
 21
70.6435007285
 31
0.0
  0
LINE
  5
82
100
AcDbEntity
  8
DV1_MARK
  6
CONTINUOUS
 62
         7
100
AcDbLine
 10
90.5833939186
 20
70.6435007285
 30
0.0
 11
90.5833939186
 21
71.7129788838
 31
0.0
  0
ARC
  5
83
100
AcDbEntity
  8
DV1_MARK
  6
CONTINUOUS
 62
         7
100
AcDbCircle
 10
89.8852102545
 20
72.4949435667
 30
0.0
 40
1.0482982372
100
AcDbArc
 50
290.1671761971
 51
311.760336867
  0
LINE
  5
84
100
AcDbEntity
  8
DV1_MARK
  6
CONTINUOUS
 62
         7
100
AcDbLine
 10
91.30972887
 20
71.510915777
 30
0.0
 11
91.30972887
 21
71.6747507285
 31
0.0
  0
LINE
  5
85
100
AcDbEntity
  8
DV1_MARK
  6
CONTINUOUS
 62
         7
100
AcDbLine
 10
91.8157968312
 20
72.0188041265
 30
0.0
 11
91.8157968312
 21
70.6435007285
 31
0.0
  0
SPLINE
  5
86
100
AcDbEntity
  8
DV1_MARK
  6
CONTINUOUS
 62
         7
100
AcDbSpline
210
0.0
220
0.0
230
1.0
 70
         8
 71
         3
 72
        11
 73
         7
 74
         0
 42
0.0
 43
0.0
 40
0.0
 40
0.0
 40
0.0
 40
0.0
 40
0.0005442089139883
 40
0.0005442089139883
 40
0.0005442089139883
 40
1.0
 40
1.0
 40
1.0
 40
1.0
 10
91.309728870012762
 20
71.674750728467075
 30
0.0
 10
91.504510423410821
 20
71.767590534292324
 30
0.0
 10
91.636488578750615
 20
71.882275000311751
 30
0.0
 10
91.707483724381689
 20
72.018804126525339
 30
0.0
 10
91.715168407441539
 20
72.03358236317888
 30
0.0
 10
91.779692462245762
 20
72.018804126525339
 30
0.0
 10
91.815796831177806
 20
72.018804126525339
 30
0.0
  0
LINE
  5
87
100
AcDbEntity
  8
DV1_MARK
  6
CONTINUOUS
 62
         7
100
AcDbLine
 10
91.8157968312
 20
70.6435007285
 30
0.0
 11
91.6465007147
 21
70.6435007285
 31
0.0
  0
LINE
  5
88
100
AcDbEntity
  8
DV1_MARK
  6
CONTINUOUS
 62
         7
100
AcDbLine
 10
91.6465007147
 20
70.6435007285
 30
0.0
 11
91.6465007147
 21
71.7129788838
 31
0.0
  0
ARC
  5
89
100
AcDbEntity
  8
DV1_MARK
  6
CONTINUOUS
 62
         7
100
AcDbCircle
 10
90.9529851969
 20
72.4871633228
 30
0.0
 40
1.0393869919
100
AcDbArc
 50
290.073485042
 51
311.8540280222
  0
LINE
  5
8A
100
AcDbEntity
  8
DV1_MARK
  6
CONTINUOUS
 62
         7
100
AcDbLine
 10
92.736913336
 20
71.2223842236
 30
0.0
 11
92.736913336
 21
71.0539983013
 31
0.0
  0
LINE
  5
8B
100
AcDbEntity
  8
DV1_MARK
  6
CONTINUOUS
 62
         7
100
AcDbLine
 10
92.2244740156
 20
71.0539983013
 30
0.0
 11
92.2244740156
 21
71.2223842236
 31
0.0
  0
LINE
  5
8C
100
AcDbEntity
  8
DV1_MARK
  6
CONTINUOUS
 62
         7
100
AcDbLine
 10
92.2244740156
 20
71.2223842236
 30
0.0
 11
92.736913336
 21
71.2223842236
 31
0.0
  0
LINE
  5
8D
100
AcDbEntity
  8
DV1_MARK
  6
CONTINUOUS
 62
         7
100
AcDbLine
 10
92.736913336
 20
71.0539983013
 30
0.0
 11
92.2244740156
 21
71.0539983013
 31
0.0
  0
SPLINE
  5
8E
100
AcDbEntity
  8
DV1_MARK
  6
CONTINUOUS
 62
         7
100
AcDbSpline
210
0.0
220
0.0
230
1.0
 70
         8
 71
         3
 72
        30
 73
        26
 74
         0
 42
0.0
 43
0.0
 40
0.0
 40
0.0
 40
0.0
 40
0.0
 40
0.0001352317064194
 40
0.0001352317064194
 40
0.0001352317064194
 40
0.1630069691259249
 40
0.1630069691259249
 40
0.2753066602233933
 40
0.2753066602233933
 40
0.38760635132086
 40
0.4999060424183269
 40
0.4999060424183269
 40
0.4999060424183269
 40
0.5000414724357795
 40
0.5000414724357795
 40
0.5000414724357795
 40
0.7949881803969054
 40
0.7949881803969054
 40
0.9998122831476869
 40
0.9998122831476869
 40
0.9998122831476869
 40
0.9999144584525316
 40
0.9999144584525316
 40
0.9999144584525316
 40
1.0
 40
1.0
 40
1.0
 40
1.0
 10
93.331270132148674
 20
70.756364806136972
 30
0.0
 10
93.422289549624409
 20
70.756364806136972
 30
0.0
 10
93.490554112731203
 20
70.800054126525339
 30
0.0
 10
93.536063821469057
 20
70.88743276730203
 30
0.0
 10
93.581767750541246
 20
70.975184311120628
 30
0.0
 10
93.60523857875063
 20
71.117711893515619
 30
0.0
 10
93.60523857875063
 20
71.45448373817581
 30
0.0
 10
93.595226442828292
 20
71.563707039146692
 30
0.0
 10
93.555177899138968
 20
71.722080825554471
 30
0.0
 10
93.493284695255468
 20
71.840406068272912
 30
0.0
 10
93.391342947682659
 20
71.878634223612707
 30
0.0
 10
93.329449743799174
 20
71.879544417787471
 30
0.0
 10
93.239373385887845
 20
71.880869070109696
 30
0.0
 10
93.171075957391395
 20
71.834034709049604
 30
0.0
 10
93.125566248653541
 20
71.745745874098148
 30
0.0
 10
93.079685858771356
 20
71.656737917726744
 30
0.0
 10
93.057301685546733
 20
71.513646359535045
 30
0.0
 10
93.057301685546733
 20
71.180515291573869
 30
0.0
 10
93.067313821469071
 20
71.072202184777765
 30
0.0
 10
93.088248287488483
 20
70.992105097399119
 30
0.0
 10
93.108901872844527
 20
70.913082683862982
 30
0.0
 10
93.139219161274895
 20
70.853755582836001
 30
0.0
 10
93.179267704964204
 20
70.814617233321457
 30
0.0
 10
93.219781806360885
 20
70.77502390695652
 30
0.0
 10
93.271197316614689
 20
70.756364806136972
 30
0.0
 10
93.331270132148674
 20
70.756364806136972
 30
0.0
  0
SPLINE
  5
8F
100
AcDbEntity
  8
DV1_MARK
  6
CONTINUOUS
 62
         7
100
AcDbSpline
210
0.0
220
0.0
230
1.0
 70
         8
 71
         3
 72
        20
 73
        16
 74
         0
 42
0.0
 43
0.0
 40
0.0
 40
0.0
 40
0.0
 40
0.0
 40
0.3319689832684933
 40
0.3319689832684933
 40
0.4998986056640792
 40
0.4998986056640792
 40
0.4998986056640792
 40
0.6210917769545439
 40
0.6210917769545439
 40
0.8727412918634084
 40
0.8727412918634084
 40
0.9997972113281585
 40
0.9997972113281585
 40
0.9997972113281585
 40
1.0
 40
1.0
 40
1.0
 40
1.0
 10
93.331270132148674
 20
72.01607354400106
 30
0.0
 10
93.627993433119556
 20
72.01607354400106
 30
0.0
 10
93.776355083604983
 20
71.783063835263206
 30
0.0
 10
93.776355083604983
 20
71.081304126525325
 30
0.0
 10
93.738126928265189
 20
70.905636650797177
 30
0.0
 10
93.661670617585571
 20
70.790952184777765
 30
0.0
 10
93.584934247159879
 20
70.675847629139227
 30
0.0
 10
93.474170617585571
 20
70.618925485748633
 30
0.0
 10
93.034546831177806
 20
70.618925485748633
 30
0.0
 10
92.88618518069238
 20
70.851935194486501
 30
0.0
 10
92.88618518069238
 20
71.551874514874854
 30
0.0
 10
92.924413336032174
 20
71.727541990603015
 30
0.0
 10
93.001779840886542
 20
71.843136650797177
 30
0.0
 10
93.078864760020579
 20
71.958310588797445
 30
0.0
 10
93.188369646711791
 20
72.01607354400106
 30
0.0
 10
93.331270132148674
 20
72.01607354400106
 30
0.0
  0
LINE
  5
90
100
AcDbEntity
  8
DV1_MARK
  6
CONTINUOUS
 62
         7
100
AcDbLine
 10
94.1322410059
 20
71.6292410197
 30
0.0
 11
93.9638550836
 21
71.6601876217
 31
0.0
  0
SPLINE
  5
91
100
AcDbEntity
  8
DV1_MARK
  6
CONTINUOUS
 62
         7
100
AcDbSpline
210
0.0
220
0.0
230
1.0
 70
         8
 71
         3
 72
        20
 73
        16
 74
         0
 42
0.0
 43
0.0
 40
0.0
 40
0.0
 40
0.0
 40
0.0
 40
0.1076487252124648
 40
0.1076487252124648
 40
0.2152974504249305
 40
0.2152974504249305
 40
0.3333333333333335
 40
0.3333333333333335
 40
0.3333333333333335
 40
0.4786666666666679
 40
0.4786666666666679
 40
0.6666666666666671
 40
0.6666666666666671
 40
0.6666666666666671
 40
1.0
 40
1.0
 40
1.0
 40
1.0
 10
93.963855083604997
 20
71.660187621670971
 30
0.0
 10
93.985699743799174
 20
71.778512864389413
 30
0.0
 10
94.033940035061292
 20
71.867711893515619
 30
0.0
 10
94.183211879721497
 20
71.986037136234074
 30
0.0
 10
94.271500714672953
 20
72.01607354400106
 30
0.0
 10
94.489037122439939
 20
72.01607354400106
 30
0.0
 10
94.584607510789453
 20
71.98148616536028
 30
0.0
 10
94.661063821469057
 20
71.913221602253486
 30
0.0
 10
94.73797232229937
 20
71.844553297940706
 30
0.0
 10
94.774838093313733
 20
71.760308980894266
 30
0.0
 10
94.774838093313733
 20
71.532760437204942
 30
0.0
 10
94.712944889430233
 20
71.440830825554457
 30
0.0
 10
94.587338093313718
 20
71.385308980894266
 30
0.0
 10
94.586889333400819
 20
71.385110616005221
 30
0.0
 10
94.587338093313718
 20
71.382881796428251
 30
0.0
 10
94.587338093313718
 20
71.381668204195236
 30
0.0
  0
SPLINE
  5
92
100
AcDbEntity
  8
DV1_MARK
  6
CONTINUOUS
 62
         7
100
AcDbSpline
210
0.0
220
0.0
230
1.0
 70
         8
 71
         3
 72
        30
 73
        26
 74
         0
 42
0.0
 43
0.0
 40
0.0
 40
0.0
 40
0.0
 40
0.0
 40
0.4998225586290599
 40
0.4998225586290599
 40
0.4998225586290599
 40
0.4998760378058287
 40
0.4998760378058287
 40
0.4998760378058287
 40
0.4999232145350352
 40
0.4999232145350352
 40
0.4999232145350352
 40
0.4999787590483827
 40
0.4999787590483827
 40
0.4999787590483827
 40
0.6267994082527751
 40
0.6267994082527751
 40
0.8133003629651099
 40
0.8133003629651099
 40
0.9998013176774426
 40
0.9998013176774426
 40
0.9998013176774426
 40
0.9998956611064924
 40
0.9998956611064924
 40
0.9998956611064924
 40
1.0
 40
1.0
 40
1.0
 40
1.0
 10
94.276961879721497
 20
71.289738592544751
 30
0.0
 10
94.283636637003056
 20
71.338889077981634
 30
0.0
 10
94.290311394284601
 20
71.388039563418531
 30
0.0
 10
94.296986151566159
 20
71.437190048855427
 30
0.0
 10
94.297672406916703
 20
71.442243383709538
 30
0.0
 10
94.377083238944792
 20
71.439010437204956
 30
0.0
 10
94.403478870012762
 20
71.443561408078722
 30
0.0
 10
94.429722101363225
 20
71.448086103139161
 30
0.0
 10
94.459000714672953
 20
71.458124514874854
 30
0.0
 10
94.491767704964218
 20
71.474508010020472
 30
0.0
 10
94.524898772925368
 20
71.491073544001054
 30
0.0
 10
94.550930326323439
 20
71.51546674788456
 30
0.0
 10
94.572774986517615
 20
71.54732354400106
 30
0.0
 10
94.594328546298314
 20
71.578755818681259
 30
0.0
 10
94.604631782634115
 20
71.618318689632133
 30
0.0
 10
94.604631782634115
 20
71.733003155651545
 30
0.0
 10
94.581876928265189
 20
71.785794417787471
 30
0.0
 10
94.490857510789468
 20
71.86043034011756
 30
0.0
 10
94.438976442828292
 20
71.878634223612707
 30
0.0
 10
94.379813821469071
 20
71.879544417787471
 30
0.0
 10
94.311579411505775
 20
71.88059417794075
 30
0.0
 10
94.256027413702085
 20
71.857699757593295
 30
0.0
 10
94.213248287488497
 20
71.814010437204956
 30
0.0
 10
94.170924157520901
 20
71.770785793833795
 30
0.0
 10
94.144073530206924
 20
71.709338107107868
 30
0.0
 10
94.132241005935086
 20
71.629241019729221
 30
0.0
  0
SPLINE
  5
93
100
AcDbEntity
  8
DV1_MARK
  6
CONTINUOUS
 62
         7
100
AcDbSpline
210
0.0
220
0.0
230
1.0
 70
         8
 71
         3
 72
        42
 73
        38
 74
         0
 42
0.0
 43
0.0
 40
0.0
 40
0.0
 40
0.0
 40
0.0
 40
0.0000401597024403
 40
0.0000401597024403
 40
0.0000401597024403
 40
0.0641341964932521
 40
0.0641341964932521
 40
0.1666846553585508
 40
0.1666846553585508
 40
0.1666846553585508
 40
0.2518448939475186
 40
0.2518448939475186
 40
0.3333291510146613
 40
0.3333291510146613
 40
0.3333291510146613
 40
0.3333836348423776
 40
0.3333836348423776
 40
0.3333836348423776
 40
0.500028130498488
 40
0.500028130498488
 40
0.500028130498488
 40
0.5000665130316685
 40
0.5000665130316685
 40
0.5000665130316685
 40
0.5803771133478669
 40
0.5803771133478669
 40
0.6667110086877789
 40
0.6667110086877789
 40
0.6667110086877789
 40
0.7524695795517434
 40
0.7524695795517434
 40
0.8333555043438894
 40
0.8333555043438894
 40
0.8333555043438894
 40
0.9512260012713825
 40
0.9512260012713825
 40
1.0
 40
1.0
 40
1.0
 40
1.0
 10
94.587338093313718
 20
71.381668204195236
 30
0.0
 10
94.671986151566159
 20
71.365284709049604
 30
0.0
 10
94.736609937973924
 20
71.32432597118553
 30
0.0
 10
94.779389064187527
 20
71.258791990603001
 30
0.0
 10
94.822440152924045
 20
71.192841386581094
 30
0.0
 10
94.844923044770042
 20
71.122262864389413
 30
0.0
 10
94.844923044770042
 20
70.921109951768045
 30
0.0
 10
94.799413336032174
 20
70.818258010020486
 30
0.0
 10
94.709304112731203
 20
70.739071116816604
 30
0.0
 10
94.618229989284345
 20
70.659036281060267
 30
0.0
 10
94.509971588459365
 20
70.618925485748633
 30
0.0
 10
94.26239877292538
 20
70.618925485748633
 30
0.0
 10
94.163187607876836
 20
70.654423058564163
 30
0.0
 10
94.084910908847718
 20
70.724508010020472
 30
0.0
 10
94.005676678716014
 20
70.795450285836054
 30
0.0
 10
93.960214306905954
 20
70.888342961476795
 30
0.0
 10
93.947471588459351
 20
71.004847815845721
 30
0.0
 10
93.947315314670618
 20
71.006276604771429
 30
0.0
 10
94.059728870012748
 20
71.020017718758353
 30
0.0
 10
94.115857510789468
 20
71.027602670214662
 30
0.0
 10
94.119867849829177
 20
71.028144607922727
 30
0.0
 10
94.163187607876836
 20
70.869228883806883
 30
0.0
 10
94.207787122439953
 20
70.823719175069016
 30
0.0
 10
94.251931632773676
 20
70.77867375636113
 30
0.0
 10
94.310639064187512
 20
70.756364806136972
 30
0.0
 10
94.461731297197218
 20
70.756364806136972
 30
0.0
 10
94.528175471954512
 20
70.783670631379707
 30
0.0
 10
94.582787122439953
 20
70.839192476039898
 30
0.0
 10
94.63694373800125
 20
70.894251701860554
 30
0.0
 10
94.6647045981681
 20
70.961158495457369
 30
0.0
 10
94.6647045981681
 20
71.116801699340868
 30
0.0
 10
94.639219161274895
 20
71.180515291573869
 30
0.0
 10
94.590068675837998
 20
71.23148616536028
 30
0.0
 10
94.540934433125969
 20
71.282440194839424
 30
0.0
 10
94.475384209818586
 20
71.307032281865133
 30
0.0
 10
94.363430326323439
 20
71.307032281865133
 30
0.0
 10
94.323381782634115
 20
71.301571116816589
 30
0.0
 10
94.276961879721497
 20
71.289738592544751
 30
0.0
  0
LINE
  5
94
100
AcDbEntity
  8
DV1_MARK
  6
CONTINUOUS
 62
         7
100
AcDbLine
 10
95.1198016855
 20
71.1240832527
 30
0.0
 11
95.5503235302
 21
71.1240832527
 31
0.0
  0
LINE
  5
95
100
AcDbEntity
  8
DV1_MARK
  6
CONTINUOUS
 62
         7
100
AcDbLine
 10
95.5503235302
 20
71.1240832527
 30
0.0
 11
95.5503235302
 21
71.7393745149
 31
0.0
  0
LINE
  5
96
100
AcDbEntity
  8
DV1_MARK
  6
CONTINUOUS
 62
         7
100
AcDbLine
 10
95.7187094525
 20
70.6435007285
 30
0.0
 11
95.5503235302
 21
70.6435007285
 31
0.0
  0
LINE
  5
97
100
AcDbEntity
  8
DV1_MARK
  6
CONTINUOUS
 62
         7
100
AcDbLine
 10
95.90347887
 20
71.1240832527
 30
0.0
 11
95.90347887
 21
70.9702604372
 31
0.0
  0
LINE
  5
98
100
AcDbEntity
  8
DV1_MARK
  6
CONTINUOUS
 62
         7
100
AcDbLine
 10
95.90347887
 20
70.9702604372
 30
0.0
 11
95.7187094525
 21
70.9702604372
 31
0.0
  0
LINE
  5
99
100
AcDbEntity
  8
DV1_MARK
  6
CONTINUOUS
 62
         7
100
AcDbLine
 10
95.7187094525
 20
70.9702604372
 30
0.0
 11
95.7187094525
 21
70.6435007285
 31
0.0
  0
LINE
  5
9A
100
AcDbEntity
  8
DV1_MARK
  6
CONTINUOUS
 62
         7
100
AcDbLine
 10
95.7187094525
 20
71.1240832527
 30
0.0
 11
95.90347887
 21
71.1240832527
 31
0.0
  0
LINE
  5
9B
100
AcDbEntity
  8
DV1_MARK
  6
CONTINUOUS
 62
         7
100
AcDbLine
 10
95.5503235302
 20
70.9702604372
 30
0.0
 11
94.9559667341
 21
70.9702604372
 31
0.0
  0
LINE
  5
9C
100
AcDbEntity
  8
DV1_MARK
  6
CONTINUOUS
 62
         7
100
AcDbLine
 10
94.9559667341
 20
70.9702604372
 30
0.0
 11
94.9559667341
 21
71.1240832527
 31
0.0
  0
LINE
  5
9D
100
AcDbEntity
  8
DV1_MARK
  6
CONTINUOUS
 62
         7
100
AcDbLine
 10
95.5503235302
 20
70.6435007285
 30
0.0
 11
95.5503235302
 21
70.9702604372
 31
0.0
  0
LINE
  5
9E
100
AcDbEntity
  8
DV1_MARK
  6
CONTINUOUS
 62
         7
100
AcDbLine
 10
94.9559667341
 20
71.1240832527
 30
0.0
 11
95.580359938
 21
72.0115225731
 31
0.0
  0
LINE
  5
9F
100
AcDbEntity
  8
DV1_MARK
  6
CONTINUOUS
 62
         7
100
AcDbLine
 10
95.580359938
 20
72.0115225731
 30
0.0
 11
95.7187094525
 21
72.0115225731
 31
0.0
  0
LINE
  5
A0
100
AcDbEntity
  8
DV1_MARK
  6
CONTINUOUS
 62
         7
100
AcDbLine
 10
95.5503235302
 20
71.7393745149
 30
0.0
 11
95.5457725593
 21
71.7393745149
 31
0.0
  0
LINE
  5
A1
100
AcDbEntity
  8
DV1_MARK
  6
CONTINUOUS
 62
         7
100
AcDbLine
 10
95.5457725593
 20
71.7393745149
 30
0.0
 11
95.1198016855
 21
71.1240832527
 31
0.0
  0
LINE
  5
A2
100
AcDbEntity
  8
DV1_MARK
  6
CONTINUOUS
 62
         7
100
AcDbLine
 10
95.7187094525
 20
72.0115225731
 30
0.0
 11
95.7187094525
 21
71.1240832527
 31
0.0
  0
LINE
  5
A3
100
AcDbEntity
  8
DV1_MARK
  6
CONTINUOUS
 62
         7
100
AcDbLine
 10
96.366767705
 20
71.828573544
 30
0.0
 11
96.2957725593
 21
71.4654060683
 31
0.0
  0
LINE
  5
A4
100
AcDbEntity
  8
DV1_MARK
  6
CONTINUOUS
 62
         7
100
AcDbLine
 10
96.9147045982
 20
71.828573544
 30
0.0
 11
96.366767705
 21
71.828573544
 31
0.0
  0
LINE
  5
A5
100
AcDbEntity
  8
DV1_MARK
  6
CONTINUOUS
 62
         7
100
AcDbLine
 10
96.9147045982
 20
71.9924084955
 30
0.0
 11
96.9147045982
 21
71.828573544
 31
0.0
  0
SPLINE
  5
A6
100
AcDbEntity
  8
DV1_MARK
  6
CONTINUOUS
 62
         7
100
AcDbSpline
210
0.0
220
0.0
230
1.0
 70
         8
 71
         3
 72
        29
 73
        25
 74
         0
 42
0.0
 43
0.0
 40
0.0
 40
0.0
 40
0.0
 40
0.0
 40
0.199991065955277
 40
0.199991065955277
 40
0.199991065955277
 40
0.2000357361788921
 40
0.2000357361788921
 40
0.2000357361788921
 40
0.2899725469043424
 40
0.2899725469043424
 40
0.4000268021341691
 40
0.4000268021341691
 40
0.4000268021341691
 40
0.4990608396024077
 40
0.4990608396024077
 40
0.6000178680894461
 40
0.6000178680894461
 40
0.6000178680894461
 40
0.6886931520507491
 40
0.6886931520507491
 40
0.8000089340447232
 40
0.8000089340447232
 40
0.8000089340447232
 40
1.0
 40
1.0
 40
1.0
 40
1.0
 10
96.071864792342851
 20
71.003027427496207
 30
0.0
 10
96.130420617585571
 20
71.007275000311751
 30
0.0
 10
96.188976442828292
 20
71.01152257312728
 30
0.0
 10
96.247532268071012
 20
71.01577014594281
 30
0.0
 10
96.25571397664811
 20
71.016363637756697
 30
0.0
 10
96.29304197680888
 20
70.863767718758339
 30
0.0
 10
96.339461879721497
 20
70.820988592544751
 30
0.0
 10
96.386335365885031
 20
70.777791458237175
 30
0.0
 10
96.443224015643821
 20
70.756364806136972
 30
0.0
 10
96.597046831177806
 20
70.756364806136972
 30
0.0
 10
96.666221588459365
 20
70.788221602253486
 30
0.0
 10
96.719012850595277
 20
70.852845388661251
 30
0.0
 10
96.772168406985088
 20
70.917915121483247
 30
0.0
 10
96.79910993797391
 20
70.996656068272912
 30
0.0
 10
96.79910993797391
 20
71.185976456622413
 30
0.0
 10
96.771804112731203
 20
71.26152257312728
 30
0.0
 10
96.718102656420527
 20
71.317044417787471
 30
0.0
 10
96.663961268712683
 20
71.37302110677355
 30
0.0
 10
96.594316248653527
 20
71.400782281865133
 30
0.0
 10
96.401355083604997
 20
71.400782281865133
 30
0.0
 10
96.318527413702071
 20
71.35618276730203
 30
0.0
 10
96.261185180692365
 20
71.267893932350574
 30
0.0
 10
96.248253388422199
 20
71.247983077585403
 30
0.0
 10
96.154389064187512
 20
71.280636650797177
 30
0.0
 10
96.100991005935086
 20
71.287008010020486
 30
0.0
  0
SPLINE
  5
A7
100
AcDbEntity
  8
DV1_MARK
  6
CONTINUOUS
 62
         7
100
AcDbSpline
210
0.0
220
0.0
230
1.0
 70
         8
 71
         3
 72
        24
 73
        20
 74
         0
 42
0.0
 43
0.0
 40
0.0
 40
0.0
 40
0.0
 40
0.0
 40
0.0001402486952707
 40
0.0001402486952707
 40
0.0001402486952707
 40
0.0003088200431344
 40
0.0003088200431344
 40
0.0003088200431344
 40
0.2485007333463635
 40
0.2485007333463635
 40
0.5000694073748081
 40
0.5000694073748081
 40
0.5000694073748081
 40
0.7751175004026687
 40
0.7751175004026687
 40
0.9998299947064816
 40
0.9998299947064816
 40
0.9998299947064816
 40
1.0
 40
1.0
 40
1.0
 40
1.0
 10
96.29577255933313
 20
71.465406068272912
 30
0.0
 10
96.379510423410807
 20
71.520927912933104
 30
0.0
 10
96.465978870012762
 20
71.549143932350574
 30
0.0
 10
96.555177899138982
 20
71.550054126525339
 30
0.0
 10
96.668931038937714
 20
71.551214872849812
 30
0.0
 10
96.768163336032174
 20
71.509095388661251
 30
0.0
 10
96.852811394284601
 20
71.428998301282618
 30
0.0
 10
96.937913855582607
 20
71.348471241129658
 30
0.0
 10
96.979328384575865
 20
71.240588107107854
 30
0.0
 10
96.979328384575865
 20
70.971170631379692
 30
0.0
 10
96.936549258362277
 20
70.85557597118553
 30
0.0
 10
96.850080811760336
 20
70.760915777010766
 30
0.0
 10
96.764026381711346
 20
70.666708822009781
 30
0.0
 10
96.651658481663233
 20
70.618925485748633
 30
0.0
 10
96.398624501080718
 20
70.618925485748633
 30
0.0
 10
96.299413336032174
 20
70.651692476039884
 30
0.0
 10
96.215675471954498
 20
70.715406068272912
 30
0.0
 10
96.132075458296598
 20
70.779014774316963
 30
0.0
 10
96.084607510789453
 20
70.875600243030192
 30
0.0
 10
96.071864792342851
 20
71.003027427496207
 30
0.0
  0
LINE
  5
A8
100
AcDbEntity
  8
DV1_MARK
  6
CONTINUOUS
 62
         7
100
AcDbLine
 10
96.1009910059
 20
71.28700801
 30
0.0
 11
96.2347895496
 21
71.9924084955
 31
0.0
  0
LINE
  5
A9
100
AcDbEntity
  8
DV1_MARK
  6
CONTINUOUS
 62
         7
100
AcDbLine
 10
96.2347895496
 20
71.9924084955
 30
0.0
 11
96.9147045982
 21
71.9924084955
 31
0.0
  0
LINE
  5
AA
100
AcDbEntity
  8
DV1_MARK
  6
CONTINUOUS
 62
         7
100
AcDbLine
 10
98.0333332389
 20
71.9924084955
 30
0.0
 11
98.0333332389
 21
71.8613405343
 31
0.0
  0
LINE
  5
AB
100
AcDbEntity
  8
DV1_MARK
  6
CONTINUOUS
 62
         7
100
AcDbLine
 10
97.1477143069
 20
71.828573544
 30
0.0
 11
97.1477143069
 21
71.9924084955
 31
0.0
  0
LINE
  5
AC
100
AcDbEntity
  8
DV1_MARK
  6
CONTINUOUS
 62
         7
100
AcDbLine
 10
97.1477143069
 20
71.9924084955
 30
0.0
 11
98.0333332389
 21
71.9924084955
 31
0.0
  0
ARC
  5
AD
100
AcDbEntity
  8
DV1_MARK
  6
CONTINUOUS
 62
         7
100
AcDbCircle
 10
99.3844746987
 20
70.5094687361
 30
0.0
 40
2.0481894088
100
AcDbArc
 50
139.9066697874
 51
176.2479256081
  0
SPLINE
  5
AE
100
AcDbEntity
  8
DV1_MARK
  6
CONTINUOUS
 62
         7
100
AcDbSpline
210
0.0
220
0.0
230
1.0
 70
         8
 71
         3
 72
        14
 73
        10
 74
         0
 42
0.0
 43
0.0
 40
0.0
 40
0.0
 40
0.0
 40
0.0
 40
0.0006511934310828
 40
0.0006511934310828
 40
0.0006511934310828
 40
0.0013522260227161
 40
0.0013522260227161
 40
0.0013522260227161
 40
1.0
 40
1.0
 40
1.0
 40
1.0
 10
98.033333238944792
 20
71.861340534292324
 30
0.0
 10
97.899534695255468
 20
71.714799272156398
 30
0.0
 10
97.783029840886542
 20
71.532760437204942
 30
0.0
 10
97.685639064187512
 20
71.316134223612721
 30
0.0
 10
97.587754847370391
 20
71.098410451626975
 30
0.0
 10
97.529085666129262
 20
70.874690048855427
 30
0.0
 10
97.510881782634115
 20
70.643500728467075
 30
0.0
 10
97.51053218970236
 20
70.639060898233893
 30
0.0
 10
97.397410908847704
 20
70.643500728467075
 30
0.0
 10
97.340675471954498
 20
70.643500728467075
 30
0.0
  0
LINE
  5
AF
100
AcDbEntity
  8
DV1_MARK
  6
CONTINUOUS
 62
         7
100
AcDbLine
 10
97.8176172195
 20
71.828573544
 30
0.0
 11
97.1477143069
 21
71.828573544
 31
0.0
  0
LINE
  5
B0
100
AcDbEntity
  8
DV1_MARK
  6
CONTINUOUS
 62
         7
100
AcDbLine
 10
85.9732604234
 20
68.9723842236
 30
0.0
 11
86.4037822681
 21
68.9723842236
 31
0.0
  0
LINE
  5
B1
100
AcDbEntity
  8
DV1_MARK
  6
CONTINUOUS
 62
         7
100
AcDbLine
 10
86.4037822681
 20
68.9723842236
 30
0.0
 11
86.4037822681
 21
69.5876754857
 31
0.0
  0
LINE
  5
B2
100
AcDbEntity
  8
DV1_MARK
  6
CONTINUOUS
 62
         7
100
AcDbLine
 10
86.7569376079
 20
68.9723842236
 30
0.0
 11
86.7569376079
 21
68.8185614081
 31
0.0
  0
LINE
  5
B3
100
AcDbEntity
  8
DV1_MARK
  6
CONTINUOUS
 62
         7
100
AcDbLine
 10
86.5721681904
 20
68.9723842236
 30
0.0
 11
86.7569376079
 21
68.9723842236
 31
0.0
  0
LINE
  5
B4
100
AcDbEntity
  8
DV1_MARK
  6
CONTINUOUS
 62
         7
100
AcDbLine
 10
86.5721681904
 20
68.8185614081
 30
0.0
 11
86.5721681904
 21
68.4908915052
 31
0.0
  0
LINE
  5
B5
100
AcDbEntity
  8
DV1_MARK
  6
CONTINUOUS
 62
         7
100
AcDbLine
 10
86.7569376079
 20
68.8185614081
 30
0.0
 11
86.5721681904
 21
68.8185614081
 31
0.0
  0
LINE
  5
B6
100
AcDbEntity
  8
DV1_MARK
  6
CONTINUOUS
 62
         7
100
AcDbLine
 10
86.5721681904
 20
68.4908915052
 30
0.0
 11
86.4037822681
 21
68.4908915052
 31
0.0
  0
LINE
  5
B7
100
AcDbEntity
  8
DV1_MARK
  6
CONTINUOUS
 62
         7
100
AcDbLine
 10
86.4338186758
 20
69.859823544
 30
0.0
 11
86.5721681904
 21
69.859823544
 31
0.0
  0
LINE
  5
B8
100
AcDbEntity
  8
DV1_MARK
  6
CONTINUOUS
 62
         7
100
AcDbLine
 10
86.4037822681
 20
68.4908915052
 30
0.0
 11
86.4037822681
 21
68.8185614081
 31
0.0
  0
LINE
  5
B9
100
AcDbEntity
  8
DV1_MARK
  6
CONTINUOUS
 62
         7
100
AcDbLine
 10
86.5721681904
 20
69.859823544
 30
0.0
 11
86.5721681904
 21
68.9723842236
 31
0.0
  0
LINE
  5
BA
100
AcDbEntity
  8
DV1_MARK
  6
CONTINUOUS
 62
         7
100
AcDbLine
 10
86.4037822681
 20
68.8185614081
 30
0.0
 11
85.809425472
 21
68.8185614081
 31
0.0
  0
LINE
  5
BB
100
AcDbEntity
  8
DV1_MARK
  6
CONTINUOUS
 62
         7
100
AcDbLine
 10
85.809425472
 20
68.9723842236
 30
0.0
 11
86.4338186758
 21
69.859823544
 31
0.0
  0
LINE
  5
BC
100
AcDbEntity
  8
DV1_MARK
  6
CONTINUOUS
 62
         7
100
AcDbLine
 10
85.809425472
 20
68.8185614081
 30
0.0
 11
85.809425472
 21
68.9723842236
 31
0.0
  0
LINE
  5
BD
100
AcDbEntity
  8
DV1_MARK
  6
CONTINUOUS
 62
         7
100
AcDbLine
 10
86.4001414914
 20
69.5876754857
 30
0.0
 11
85.9732604234
 21
68.9723842236
 31
0.0
  0
LINE
  5
BE
100
AcDbEntity
  8
DV1_MARK
  6
CONTINUOUS
 62
         7
100
AcDbLine
 10
86.4037822681
 20
69.5876754857
 30
0.0
 11
86.4001414914
 21
69.5876754857
 31
0.0
  0
LINE
  5
BF
100
AcDbEntity
  8
DV1_DEFAULT
  6
CONTINUOUS
 62
         7
100
AcDbLine
 10
97.6629229642
 20
67.3857840316
 30
0.0
 11
80.2029229642
 21
67.3857840316
 31
0.0
  0
ARC
  5
C0
100
AcDbEntity
  8
DV1_DEFAULT
  6
CONTINUOUS
 62
         7
100
AcDbCircle
 10
97.6629229642
 20
73.7357840316
 30
0.0
 40
6.35
100
AcDbArc
 50
270.0
 51
90.0
  0
LINE
  5
C1
100
AcDbEntity
  8
DV1_MARK
  6
CONTINUOUS
 62
         7
100
AcDbLine
 10
87.5606390642
 20
69.8661949032
 30
0.0
 11
87.5606390642
 21
68.4908915052
 31
0.0
  0
SPLINE
  5
C2
100
AcDbEntity
  8
DV1_MARK
  6
CONTINUOUS
 62
         7
100
AcDbSpline
210
0.0
220
0.0
230
1.0
 70
         8
 71
         3
 72
        11
 73
         7
 74
         0
 42
0.0
 43
0.0
 40
0.0
 40
0.0
 40
0.0
 40
0.0
 40
0.0005434019425244
 40
0.0005434019425244
 40
0.0005434019425244
 40
1.0
 40
1.0
 40
1.0
 40
1.0
 10
87.055481297197232
 20
69.523051699340868
 30
0.0
 10
87.250262850595277
 20
69.614981310991354
 30
0.0
 10
87.382241005935086
 20
69.729665777010766
 30
0.0
 10
87.452325957391395
 20
69.866194903224368
 30
0.0
 10
87.459855691233528
 20
69.880863215903858
 30
0.0
 10
87.524534695255483
 20
69.866194903224368
 30
0.0
 10
87.560639064187512
 20
69.866194903224368
 30
0.0
  0
LINE
  5
C3
100
AcDbEntity
  8
DV1_MARK
  6
CONTINUOUS
 62
         7
100
AcDbLine
 10
87.0554812972
 20
69.3592167479
 30
0.0
 11
87.0554812972
 21
69.5230516993
 31
0.0
  0
LINE
  5
C4
100
AcDbEntity
  8
DV1_MARK
  6
CONTINUOUS
 62
         7
100
AcDbLine
 10
87.5606390642
 20
68.4908915052
 30
0.0
 11
87.3922531419
 21
68.4908915052
 31
0.0
  0
LINE
  5
C5
100
AcDbEntity
  8
DV1_MARK
  6
CONTINUOUS
 62
         7
100
AcDbLine
 10
87.3922531419
 20
68.4908915052
 30
0.0
 11
87.3922531419
 21
69.5612798547
 31
0.0
  0
ARC
  5
C6
100
AcDbEntity
  8
DV1_MARK
  6
CONTINUOUS
 62
         7
100
AcDbCircle
 10
86.7071483454
 20
70.3214464248
 30
0.0
 40
1.0233385541
100
AcDbArc
 50
289.900561804
 51
312.0269512601
  0
SPLINE
  5
C7
100
AcDbEntity
  8
DV1_MARK
  6
CONTINUOUS
 62
         7
100
AcDbSpline
210
0.0
220
0.0
230
1.0
 70
         8
 71
         3
 72
        25
 73
        21
 74
         0
 42
0.0
 43
0.0
 40
0.0
 40
0.0
 40
0.0
 40
0.0
 40
0.0000749250592501
 40
0.0000749250592501
 40
0.0000749250592501
 40
0.1676601331498781
 40
0.1676601331498781
 40
0.3333832833728334
 40
0.3333832833728334
 40
0.3333832833728334
 40
0.4972128154252715
 40
0.4972128154252715
 40
0.6666916416864167
 40
0.6666916416864167
 40
0.6666916416864167
 40
0.7743359753052018
 40
0.7743359753052018
 40
0.8871679876526025
 40
0.8871679876526025
 40
1.0
 40
1.0
 40
1.0
 40
1.0
 10
88.439886637003042
 20
68.604665777010766
 30
0.0
 10
88.519963388056397
 20
68.605565515786651
 30
0.0
 10
88.585517704964218
 20
68.630151213903972
 30
0.0
 10
88.639219161274895
 20
68.681122087690383
 30
0.0
 10
88.692441792449969
 20
68.731638483381971
 30
0.0
 10
88.718406054478777
 20
68.798537136234074
 30
0.0
 10
88.718406054478777
 20
68.961461893515619
 30
0.0
 10
88.691100229236056
 20
69.028816262447663
 30
0.0
 10
88.636488578750615
 20
69.080697330408839
 30
0.0
 10
88.581422429202888
 20
69.133010172479175
 30
0.0
 10
88.515432753507895
 20
69.159884223612721
 30
0.0
 10
88.354328384575865
 20
69.159884223612721
 30
0.0
 10
88.287884209818571
 20
69.132578398369986
 30
0.0
 10
88.236913336032174
 20
69.07887694205931
 30
0.0
 10
88.185487984150953
 20
69.024696660613017
 30
0.0
 10
88.160457025352571
 20
68.959641505166104
 30
0.0
 10
88.160457025352571
 20
68.804908495457369
 30
0.0
 10
88.186852656420527
 20
68.738464320700089
 30
0.0
 10
88.292435180692365
 20
68.631061408078736
 30
0.0
 10
88.358879355449659
 20
68.603755582836015
 30
0.0
 10
88.439886637003042
 20
68.604665777010766
 30
0.0
  0
SPLINE
  5
C8
100
AcDbEntity
  8
DV1_MARK
  6
CONTINUOUS
 62
         7
100
AcDbSpline
210
0.0
220
0.0
230
1.0
 70
         8
 71
         3
 72
        25
 73
        21
 74
         0
 42
0.0
 43
0.0
 40
0.0
 40
0.0
 40
0.0
 40
0.0
 40
0.2010098690076924
 40
0.2010098690076924
 40
0.3333071807525499
 40
0.3333071807525499
 40
0.3333071807525499
 40
0.4224636142098511
 40
0.4224636142098511
 40
0.5122349196220314
 40
0.5122349196220314
 40
0.6020062250342126
 40
0.6020062250342126
 40
0.6666143615050998
 40
0.6666143615050998
 40
0.6666143615050998
 40
0.6666928192474502
 40
0.6666928192474502
 40
0.6666928192474502
 40
1.0
 40
1.0
 40
1.0
 40
1.0
 10
88.632847802051586
 20
69.23087936924378
 30
0.0
 10
88.803964306905954
 20
69.175357524583589
 30
0.0
 10
88.889522559333145
 20
69.058852670214648
 30
0.0
 10
88.889522559333145
 20
68.763039563418531
 30
0.0
 10
88.847653627294306
 20
68.664738592544751
 30
0.0
 10
88.763005569041894
 20
68.585551699340868
 30
0.0
 10
88.678842914009181
 20
68.50681889301994
 30
0.0
 10
88.571864792342865
 20
68.467226456622427
 30
0.0
 10
88.306998287488483
 20
68.467226456622427
 30
0.0
 10
88.198685180692365
 20
68.507275000311736
 30
0.0
 10
88.031209452537041
 20
68.665648786719501
 30
0.0
 10
87.989340520498203
 20
68.76577014594281
 30
0.0
 10
87.989340520498203
 20
68.972384223612707
 30
0.0
 10
88.013005569041894
 20
69.04793034011756
 30
0.0
 10
88.059425471954498
 20
69.112554126525339
 30
0.0
 10
88.106155164849923
 20
69.17760918918367
 30
0.0
 10
88.170469161274895
 20
69.216316262447663
 30
0.0
 10
88.249656054478777
 20
69.23087936924378
 30
0.0
 10
88.249871942068353
 20
69.230919072708517
 30
0.0
 10
88.249656054478777
 20
69.233306553709795
 30
0.0
 10
88.249656054478777
 20
69.23452014594281
 30
0.0
  0
SPLINE
  5
C9
100
AcDbEntity
  8
DV1_MARK
  6
CONTINUOUS
 62
         7
100
AcDbSpline
210
0.0
220
0.0
230
1.0
 70
         8
 71
         3
 72
        23
 73
        19
 74
         0
 42
0.0
 43
0.0
 40
0.0
 40
0.0
 40
0.0
 40
0.0
 40
0.147003745318353
 40
0.147003745318353
 40
0.2499999999999999
 40
0.2499999999999999
 40
0.2499999999999999
 40
0.3735521235521252
 40
0.3735521235521252
 40
0.4999999999999999
 40
0.4999999999999999
 40
0.4999999999999999
 40
0.6054687500000006
 40
0.6054687500000006
 40
0.7499999999999999
 40
0.7499999999999999
 40
0.7499999999999999
 40
1.0
 40
1.0
 40
1.0
 40
1.0
 10
88.249656054478777
 20
69.23452014594281
 30
0.0
 10
88.113126928265189
 20
69.276389077981648
 30
0.0
 10
88.044862365158394
 20
69.368318689632133
 30
0.0
 10
88.044862365158394
 20
69.611340534292324
 30
0.0
 10
88.080359937973924
 20
69.695078398370001
 30
0.0
 10
88.153175471954498
 20
69.763342961476795
 30
0.0
 10
88.225052427326602
 20
69.830727607138144
 30
0.0
 10
88.3197410059351
 20
69.864374514874839
 30
0.0
 10
88.555481297197218
 20
69.864374514874839
 30
0.0
 10
88.651051685546733
 20
69.828876942059324
 30
0.0
 10
88.723867219527321
 20
69.759702184777751
 30
0.0
 10
88.797615672635771
 20
69.689641154324732
 30
0.0
 10
88.834000714672953
 20
69.60587936924378
 30
0.0
 10
88.834000714672953
 20
69.372869660505913
 30
0.0
 10
88.76755653991566
 20
69.281850243030192
 30
0.0
 10
88.632847802051586
 20
69.23452014594281
 30
0.0
 10
88.632468258576907
 20
69.23438679283008
 30
0.0
 10
88.632847802051586
 20
69.232092961476781
 30
0.0
 10
88.632847802051586
 20
69.23087936924378
 30
0.0
  0
SPLINE
  5
CA
100
AcDbEntity
  8
DV1_MARK
  6
CONTINUOUS
 62
         7
100
AcDbSpline
210
0.0
220
0.0
230
1.0
 70
         8
 71
         3
 72
        25
 73
        21
 74
         0
 42
0.0
 43
0.0
 40
0.0
 40
0.0
 40
0.0
 40
0.0
 40
0.1099934679804063
 40
0.1099934679804063
 40
0.2199869359608138
 40
0.2199869359608138
 40
0.3333135393345676
 40
0.3333135393345676
 40
0.3333135393345676
 40
0.4975894980066059
 40
0.4975894980066059
 40
0.6666270786691353
 40
0.6666270786691353
 40
0.6666270786691353
 40
0.8199026478521854
 40
0.8199026478521854
 40
0.9999406180037029
 40
0.9999406180037029
 40
0.9999406180037029
 40
1.0
 40
1.0
 40
1.0
 40
1.0
 10
88.439886637003042
 20
69.29641334982631
 30
0.0
 10
88.502690035061292
 20
69.29641334982631
 30
0.0
 10
88.556391491371983
 20
69.316437621670957
 30
0.0
 10
88.641949743799159
 20
69.396534709049604
 30
0.0
 10
88.662884209818571
 20
69.447505582836001
 30
0.0
 10
88.662884209818571
 20
69.569471602253486
 30
0.0
 10
88.641039549624409
 20
69.621352670214662
 30
0.0
 10
88.598260423410821
 20
69.6632216022535
 30
0.0
 10
88.554561422344534
 20
69.705990837339641
 30
0.0
 10
88.500869646711791
 20
69.726935194486501
 30
0.0
 10
88.373442462245762
 20
69.726935194486501
 30
0.0
 10
88.32065120010985
 20
69.706000728467089
 30
0.0
 10
88.278782268071012
 20
69.664131796428251
 30
0.0
 10
88.237368433119556
 20
69.622717961476781
 30
0.0
 10
88.215068675837998
 20
69.57402257312728
 30
0.0
 10
88.215068675837998
 20
69.44932597118553
 30
0.0
 10
88.236913336032174
 20
69.395624514874854
 30
0.0
 10
88.280602656420527
 20
69.35557597118553
 30
0.0
 10
88.323344000989124
 20
69.316396405330977
 30
0.0
 10
88.376173044770042
 20
69.29641334982631
 30
0.0
 10
88.439886637003042
 20
69.29641334982631
 30
0.0
  0
LINE
  5
CB
100
AcDbEntity
  8
DV1_MARK
  6
CONTINUOUS
 62
         7
100
AcDbLine
 10
89.0360638215
 20
69.0706851945
 30
0.0
 11
89.5485031419
 21
69.0706851945
 31
0.0
  0
LINE
  5
CC
100
AcDbEntity
  8
DV1_MARK
  6
CONTINUOUS
 62
         7
100
AcDbLine
 10
89.0360638215
 20
68.9022992722
 30
0.0
 11
89.0360638215
 21
69.0706851945
 31
0.0
  0
LINE
  5
CD
100
AcDbEntity
  8
DV1_MARK
  6
CONTINUOUS
 62
         7
100
AcDbLine
 10
89.5485031419
 20
69.0706851945
 30
0.0
 11
89.5485031419
 21
68.9022992722
 31
0.0
  0
LINE
  5
CE
100
AcDbEntity
  8
DV1_MARK
  6
CONTINUOUS
 62
         7
100
AcDbLine
 10
89.5485031419
 20
68.9022992722
 30
0.0
 11
89.0360638215
 21
68.9022992722
 31
0.0
  0
SPLINE
  5
CF
100
AcDbEntity
  8
DV1_MARK
  6
CONTINUOUS
 62
         7
100
AcDbSpline
210
0.0
220
0.0
230
1.0
 70
         8
 71
         3
 72
        26
 73
        22
 74
         0
 42
0.0
 43
0.0
 40
0.0
 40
0.0
 40
0.0
 40
0.0
 40
0.0000592811566744
 40
0.0000592811566744
 40
0.0000592811566744
 40
0.1642188672812488
 40
0.1642188672812488
 40
0.3333529863186827
 40
0.3333529863186827
 40
0.3333529863186827
 40
0.499999838899688
 40
0.499999838899688
 40
0.666646691480691
 40
0.666646691480691
 40
0.666646691480691
 40
0.8199131398398639
 40
0.8199131398398639
 40
0.9999403966426993
 40
0.9999403966426993
 40
0.9999403966426993
 40
1.0
 40
1.0
 40
1.0
 40
1.0
 10
90.143770132148674
 20
69.29641334982631
 30
0.0
 10
90.206573530206938
 20
69.29641334982631
 30
0.0
 10
90.259364792342851
 20
69.316437621670957
 30
0.0
 10
90.302143918556439
 20
69.356486165360295
 30
0.0
 10
90.345408115682474
 20
69.396988817988913
 30
0.0
 10
90.366767704964218
 20
69.447505582836001
 30
0.0
 10
90.366767704964218
 20
69.569471602253486
 30
0.0
 10
90.344923044770042
 20
69.621352670214662
 30
0.0
 10
90.301233724381689
 20
69.6632216022535
 30
0.0
 10
90.257564172916602
 20
69.705071589074194
 30
0.0
 10
90.20475314185741
 20
69.726935194486501
 30
0.0
 10
90.077325957391409
 20
69.726935194486501
 30
0.0
 10
90.023624501080718
 20
69.706000728467089
 30
0.0
 10
89.98175556904188
 20
69.664131796428251
 30
0.0
 10
89.940341734090424
 20
69.622717961476781
 30
0.0
 10
89.91895217098363
 20
69.57402257312728
 30
0.0
 10
89.91895217098363
 20
69.44932597118553
 30
0.0
 10
89.940796831177806
 20
69.395624514874854
 30
0.0
 10
89.983575957391395
 20
69.35557597118553
 30
0.0
 10
90.026386045578121
 20
69.315498441819244
 30
0.0
 10
90.080056539915674
 20
69.29641334982631
 30
0.0
 10
90.143770132148674
 20
69.29641334982631
 30
0.0
  0
SPLINE
  5
D0
100
AcDbEntity
  8
DV1_MARK
  6
CONTINUOUS
 62
         7
100
AcDbSpline
210
0.0
220
0.0
230
1.0
 70
         8
 71
         3
 72
        26
 73
        22
 74
         0
 42
0.0
 43
0.0
 40
0.0
 40
0.0
 40
0.0
 40
0.0
 40
0.000074678549575
 40
0.000074678549575
 40
0.000074678549575
 40
0.1676471368280199
 40
0.1676471368280199
 40
0.3333576789033719
 40
0.3333576789033719
 40
0.3333576789033719
 40
0.497174746873882
 40
0.497174746873882
 40
0.6666406792571689
 40
0.6666406792571689
 40
0.6666406792571689
 40
0.8293612029593169
 40
0.8293612029593169
 40
0.9999236796109658
 40
0.9999236796109658
 40
0.9999236796109658
 40
1.0
 40
1.0
 40
1.0
 40
1.0
 10
90.143770132148674
 20
68.604665777010766
 30
0.0
 10
90.222936803921769
 20
68.605555290176753
 30
0.0
 10
90.28940120010985
 20
68.630151213903972
 30
0.0
 10
90.342192462245777
 20
68.681122087690383
 30
0.0
 10
90.395454784874602
 20
68.732547778504426
 30
0.0
 10
90.422289549624409
 20
68.798537136234074
 30
0.0
 10
90.422289549624409
 20
68.961461893515619
 30
0.0
 10
90.394983724381689
 20
69.028816262447663
 30
0.0
 10
90.340372073896248
 20
69.080697330408839
 30
0.0
 10
90.285305924348521
 20
69.133010172479175
 30
0.0
 10
90.219316248653541
 20
69.159884223612721
 30
0.0
 10
90.058211879721483
 20
69.159884223612721
 30
0.0
 10
89.991767704964218
 20
69.132578398369986
 30
0.0
 10
89.940796831177806
 20
69.07887694205931
 30
0.0
 10
89.889371479296585
 20
69.024696660613031
 30
0.0
 10
89.863430326323439
 20
68.959641505166104
 30
0.0
 10
89.863430326323439
 20
68.804908495457369
 30
0.0
 10
89.890736151566159
 20
68.738464320700089
 30
0.0
 10
89.942617219527321
 20
68.684762864389398
 30
0.0
 10
89.994937696236448
 20
68.630606581479952
 30
0.0
 10
90.062762850595277
 20
68.603755582836015
 30
0.0
 10
90.143770132148674
 20
68.604665777010766
 30
0.0
  0
SPLINE
  5
D1
100
AcDbEntity
  8
DV1_MARK
  6
CONTINUOUS
 62
         7
100
AcDbSpline
210
0.0
220
0.0
230
1.0
 70
         8
 71
         3
 72
        23
 73
        19
 74
         0
 42
0.0
 43
0.0
 40
0.0
 40
0.0
 40
0.0
 40
0.0
 40
0.1470037453183519
 40
0.1470037453183519
 40
0.2500000000000001
 40
0.2500000000000001
 40
0.2500000000000001
 40
0.373552123552122
 40
0.373552123552122
 40
0.5000000000000001
 40
0.5000000000000001
 40
0.5000000000000001
 40
0.6054687500000003
 40
0.6054687500000003
 40
0.7500000000000001
 40
0.7500000000000001
 40
0.7500000000000001
 40
1.0
 40
1.0
 40
1.0
 40
1.0
 10
89.953539549624409
 20
69.23452014594281
 30
0.0
 10
89.817010423410807
 20
69.276389077981648
 30
0.0
 10
89.748745860304012
 20
69.368318689632133
 30
0.0
 10
89.748745860304012
 20
69.611340534292324
 30
0.0
 10
89.784243433119556
 20
69.695078398370001
 30
0.0
 10
89.857058967100144
 20
69.763342961476795
 30
0.0
 10
89.928935922472235
 20
69.83072760713813
 30
0.0
 10
90.023624501080718
 20
69.864374514874839
 30
0.0
 10
90.259364792342851
 20
69.864374514874839
 30
0.0
 10
90.35493518069238
 20
69.828876942059324
 30
0.0
 10
90.427750714672953
 20
69.759702184777751
 30
0.0
 10
90.501499167781418
 20
69.689641154324732
 30
0.0
 10
90.537884209818571
 20
69.60587936924378
 30
0.0
 10
90.537884209818571
 20
69.372869660505913
 30
0.0
 10
90.470529840886542
 20
69.281850243030192
 30
0.0
 10
90.336731297197232
 20
69.23452014594281
 30
0.0
 10
90.336349744158554
 20
69.234385174799883
 30
0.0
 10
90.336731297197232
 20
69.232092961476781
 30
0.0
 10
90.336731297197232
 20
69.23087936924378
 30
0.0
  0
SPLINE
  5
D2
100
AcDbEntity
  8
DV1_MARK
  6
CONTINUOUS
 62
         7
100
AcDbSpline
210
0.0
220
0.0
230
1.0
 70
         8
 71
         3
 72
        25
 73
        21
 74
         0
 42
0.0
 43
0.0
 40
0.0
 40
0.0
 40
0.0
 40
0.0
 40
0.1117119283830679
 40
0.1117119283830679
 40
0.1852366159413111
 40
0.1852366159413111
 40
0.2587613034995553
 40
0.2587613034995553
 40
0.3333071672738872
 40
0.3333071672738872
 40
0.3333071672738872
 40
0.5271245508868973
 40
0.5271245508868973
 40
0.6666143345477744
 40
0.6666143345477744
 40
0.6666143345477744
 40
0.6666928327261129
 40
0.6666928327261129
 40
0.6666928327261129
 40
1.0
 40
1.0
 40
1.0
 40
1.0
 10
90.336731297197232
 20
69.23087936924378
 30
0.0
 10
90.5078478020516
 20
69.175357524583589
 30
0.0
 10
90.593406054478777
 20
69.058852670214648
 30
0.0
 10
90.593406054478777
 20
68.763039563418531
 30
0.0
 10
90.550626928265189
 20
68.664738592544751
 30
0.0
 10
90.383151200109836
 20
68.506364806136972
 30
0.0
 10
90.274838093313733
 20
68.467226456622427
 30
0.0
 10
90.010881782634115
 20
68.467226456622427
 30
0.0
 10
89.901658481663247
 20
68.507275000311736
 30
0.0
 10
89.818830811760321
 20
68.586461893515619
 30
0.0
 10
89.735527601292034
 20
68.666103424402877
 30
0.0
 10
89.693224015643821
 20
68.76577014594281
 30
0.0
 10
89.693224015643821
 20
68.972384223612707
 30
0.0
 10
89.716889064187512
 20
69.04793034011756
 30
0.0
 10
89.76330896710013
 20
69.112554126525339
 30
0.0
 10
89.810038659995556
 20
69.177609189183656
 30
0.0
 10
89.873442462245762
 20
69.216316262447663
 30
0.0
 10
89.953539549624409
 20
69.23087936924378
 30
0.0
 10
89.953753141857419
 20
69.230918204195234
 30
0.0
 10
89.953539549624409
 20
69.233306553709795
 30
0.0
 10
89.953539549624409
 20
69.23452014594281
 30
0.0
  0
LINE
  5
D3
100
AcDbEntity
  8
DV1_MARK
  6
CONTINUOUS
 62
         7
100
AcDbLine
 10
90.8682846953
 20
68.9723842236
 30
0.0
 11
91.2978963457
 21
68.9723842236
 31
0.0
  0
LINE
  5
D4
100
AcDbEntity
  8
DV1_MARK
  6
CONTINUOUS
 62
         7
100
AcDbLine
 10
91.2978963457
 20
68.9723842236
 30
0.0
 11
91.2978963457
 21
69.5876754857
 31
0.0
  0
LINE
  5
D5
100
AcDbEntity
  8
DV1_MARK
  6
CONTINUOUS
 62
         7
100
AcDbLine
 10
91.4662822681
 20
68.4908915052
 30
0.0
 11
91.2978963457
 21
68.4908915052
 31
0.0
  0
LINE
  5
D6
100
AcDbEntity
  8
DV1_MARK
  6
CONTINUOUS
 62
         7
100
AcDbLine
 10
91.4662822681
 20
68.8185614081
 30
0.0
 11
91.4662822681
 21
68.4908915052
 31
0.0
  0
LINE
  5
D7
100
AcDbEntity
  8
DV1_MARK
  6
CONTINUOUS
 62
         7
100
AcDbLine
 10
91.4662822681
 20
68.9723842236
 30
0.0
 11
91.6519618797
 21
68.9723842236
 31
0.0
  0
LINE
  5
D8
100
AcDbEntity
  8
DV1_MARK
  6
CONTINUOUS
 62
         7
100
AcDbLine
 10
91.6519618797
 20
68.8185614081
 30
0.0
 11
91.4662822681
 21
68.8185614081
 31
0.0
  0
LINE
  5
D9
100
AcDbEntity
  8
DV1_MARK
  6
CONTINUOUS
 62
         7
100
AcDbLine
 10
91.6519618797
 20
68.9723842236
 30
0.0
 11
91.6519618797
 21
68.8185614081
 31
0.0
  0
LINE
  5
DA
100
AcDbEntity
  8
DV1_MARK
  6
CONTINUOUS
 62
         7
100
AcDbLine
 10
91.2978963457
 20
68.4908915052
 30
0.0
 11
91.2978963457
 21
68.8185614081
 31
0.0
  0
LINE
  5
DB
100
AcDbEntity
  8
DV1_MARK
  6
CONTINUOUS
 62
         7
100
AcDbLine
 10
91.2978963457
 20
68.8185614081
 30
0.0
 11
90.7035395496
 21
68.8185614081
 31
0.0
  0
LINE
  5
DC
100
AcDbEntity
  8
DV1_MARK
  6
CONTINUOUS
 62
         7
100
AcDbLine
 10
90.7035395496
 20
68.9723842236
 30
0.0
 11
91.3279327535
 21
69.859823544
 31
0.0
  0
LINE
  5
DD
100
AcDbEntity
  8
DV1_MARK
  6
CONTINUOUS
 62
         7
100
AcDbLine
 10
91.3279327535
 20
69.859823544
 30
0.0
 11
91.4662822681
 21
69.859823544
 31
0.0
  0
LINE
  5
DE
100
AcDbEntity
  8
DV1_MARK
  6
CONTINUOUS
 62
         7
100
AcDbLine
 10
90.7035395496
 20
68.8185614081
 30
0.0
 11
90.7035395496
 21
68.9723842236
 31
0.0
  0
LINE
  5
DF
100
AcDbEntity
  8
DV1_MARK
  6
CONTINUOUS
 62
         7
100
AcDbLine
 10
91.294255569
 20
69.5876754857
 30
0.0
 11
90.8682846953
 21
68.9723842236
 31
0.0
  0
LINE
  5
E0
100
AcDbEntity
  8
DV1_MARK
  6
CONTINUOUS
 62
         7
100
AcDbLine
 10
91.2978963457
 20
69.5876754857
 30
0.0
 11
91.294255569
 21
69.5876754857
 31
0.0
  0
LINE
  5
E1
100
AcDbEntity
  8
DV1_MARK
  6
CONTINUOUS
 62
         7
100
AcDbLine
 10
91.4662822681
 20
69.859823544
 30
0.0
 11
91.4662822681
 21
68.9723842236
 31
0.0
  0
LINE
  5
E2
100
AcDbEntity
  8
DV1_MARK
  6
CONTINUOUS
 62
         7
100
AcDbLine
 10
92.1125201321
 20
69.6768745149
 30
0.0
 11
92.0415249865
 21
69.312796845
 31
0.0
  0
LINE
  5
E3
100
AcDbEntity
  8
DV1_MARK
  6
CONTINUOUS
 62
         7
100
AcDbLine
 10
92.6595468312
 20
69.6768745149
 30
0.0
 11
92.1125201321
 21
69.6768745149
 31
0.0
  0
LINE
  5
E4
100
AcDbEntity
  8
DV1_MARK
  6
CONTINUOUS
 62
         7
100
AcDbLine
 10
92.6595468312
 20
69.8397992722
 30
0.0
 11
92.6595468312
 21
69.6768745149
 31
0.0
  0
SPLINE
  5
E5
100
AcDbEntity
  8
DV1_MARK
  6
CONTINUOUS
 62
         7
100
AcDbSpline
210
0.0
220
0.0
230
1.0
 70
         8
 71
         3
 72
        23
 73
        19
 74
         0
 42
0.0
 43
0.0
 40
0.0
 40
0.0
 40
0.0
 40
0.0
 40
0.1473047699817464
 40
0.1473047699817464
 40
0.3332956411708112
 40
0.3332956411708112
 40
0.3332956411708112
 40
0.4988174629684777
 40
0.4988174629684777
 40
0.6665912823416225
 40
0.6665912823416225
 40
0.6665912823416225
 40
0.849366311370777
 40
0.849366311370777
 40
0.9998869235124337
 40
0.9998869235124337
 40
0.9998869235124337
 40
1.0
 40
1.0
 40
1.0
 40
1.0
 10
92.041524986517615
 20
69.312796844971942
 30
0.0
 10
92.124352656420527
 20
69.369228883806898
 30
0.0
 10
92.210821103022468
 20
69.397444903224354
 30
0.0
 10
92.4147045981681
 20
69.397444903224354
 30
0.0
 10
92.513915763216644
 20
69.357396359535045
 30
0.0
 10
92.598563821469071
 20
69.277299272156398
 30
0.0
 10
92.683186061366641
 20
69.197226615049033
 30
0.0
 10
92.725080811760321
 20
69.088889077981648
 30
0.0
 10
92.725080811760321
 20
68.819471602253486
 30
0.0
 10
92.682301685546733
 20
68.70387694205931
 30
0.0
 10
92.595833238944792
 20
68.60921674788456
 30
0.0
 10
92.509778808895817
 20
68.515009792883561
 30
0.0
 10
92.397410908847704
 20
68.467226456622427
 30
0.0
 10
92.143466734090424
 20
68.467226456622427
 30
0.0
 10
92.045165763216644
 20
68.499083252738927
 30
0.0
 10
91.961427899138968
 20
68.563707039146692
 30
0.0
 10
91.8782604818214
 20
68.627890589467867
 30
0.0
 10
91.830359937973924
 20
68.723901213903972
 30
0.0
 10
91.817617219527321
 20
68.850418204195236
 30
0.0
  0
SPLINE
  5
E6
100
AcDbEntity
  8
DV1_MARK
  6
CONTINUOUS
 62
         7
100
AcDbSpline
210
0.0
220
0.0
230
1.0
 70
         8
 71
         3
 72
        31
 73
        27
 74
         0
 42
0.0
 43
0.0
 40
0.0
 40
0.0
 40
0.0
 40
0.0
 40
0.3331992851249289
 40
0.3331992851249289
 40
0.3331992851249289
 40
0.3332740788422229
 40
0.3332740788422229
 40
0.3332740788422229
 40
0.3333383058688946
 40
0.3333383058688946
 40
0.3333383058688946
 40
0.3334201234659673
 40
0.3334201234659673
 40
0.3334201234659673
 40
0.4992226385520559
 40
0.4992226385520559
 40
0.6666194085908962
 40
0.6666194085908962
 40
0.6666194085908962
 40
0.6666986470265591
 40
0.6666986470265591
 40
0.6666986470265591
 40
0.6668007148750709
 40
0.6668007148750709
 40
0.6668007148750709
 40
1.0
 40
1.0
 40
1.0
 40
1.0
 10
91.817617219527321
 20
68.850418204195236
 30
0.0
 10
91.876173044770042
 20
68.854969175069016
 30
0.0
 10
91.934728870012762
 20
68.85952014594281
 30
0.0
 10
91.993284695255468
 20
68.864071116816604
 30
0.0
 10
92.001010051502476
 20
68.864671533105209
 30
0.0
 10
92.037884209818586
 20
68.711158495457369
 30
0.0
 10
92.085214306905954
 20
68.66837936924378
 30
0.0
 10
92.13204345446178
 20
68.626053024337551
 30
0.0
 10
92.188976442828292
 20
68.603755582836015
 30
0.0
 10
92.257241005935086
 20
68.604665777010766
 30
0.0
 10
92.342771916944656
 20
68.605806189157576
 30
0.0
 10
92.411974015643821
 20
68.63652257312728
 30
0.0
 10
92.464765277779748
 20
68.701146359535045
 30
0.0
 10
92.517474887755313
 20
68.765670192436161
 30
0.0
 10
92.544862365158394
 20
68.844046844971928
 30
0.0
 10
92.544862365158394
 20
69.034277427496207
 30
0.0
 10
92.517556539915674
 20
69.10982354400106
 30
0.0
 10
92.463855083604997
 20
69.165345388661265
 30
0.0
 10
92.409713695897153
 20
69.221322077647315
 30
0.0
 10
92.340068675837998
 20
69.248173058564163
 30
0.0
 10
92.254510423410821
 20
69.249083252738927
 30
0.0
 10
92.14712934638581
 20
69.250225604622173
 30
0.0
 10
92.064279840886542
 20
69.204483738175824
 30
0.0
 10
92.006937607876836
 20
69.116194903224368
 30
0.0
 10
91.99400581560667
 20
69.096284048459182
 30
0.0
 10
91.900141491371969
 20
69.128937621670971
 30
0.0
 10
91.846743433119542
 20
69.135308980894266
 30
0.0
  0
LINE
  5
E7
100
AcDbEntity
  8
DV1_MARK
  6
CONTINUOUS
 62
         7
100
AcDbLine
 10
91.9805419768
 20
69.8397992722
 30
0.0
 11
92.6595468312
 21
69.8397992722
 31
0.0
  0
LINE
  5
E8
100
AcDbEntity
  8
DV1_MARK
  6
CONTINUOUS
 62
         7
100
AcDbLine
 10
91.8467434331
 20
69.1353089809
 30
0.0
 11
91.9805419768
 21
69.8397992722
 31
0.0
  0
SPLINE
  5
E9
100
AcDbEntity
  8
DV1_MARK
  6
CONTINUOUS
 62
         7
100
AcDbSpline
210
0.0
220
0.0
230
1.0
 70
         8
 71
         3
 72
         8
 73
         4
 74
         0
 42
0.0
 43
0.0
 40
0.0
 40
0.0
 40
0.0
 40
0.0
 40
1.0
 40
1.0
 40
1.0
 40
1.0
 10
101.95109101410227
 20
76.075341248093821
 30
0.0
 10
101.81632098667257
 20
75.117558140535237
 30
0.0
 10
100.04092250847205
 20
74.528703015518815
 30
0.0
 10
97.62121618932531
 20
74.506838270820026
 30
0.0
  0
SPLINE
  5
EA
100
AcDbEntity
  8
DV1_MARK
  6
CONTINUOUS
 62
         7
100
AcDbSpline
210
0.0
220
0.0
230
1.0
 70
         8
 71
         3
 72
         8
 73
         4
 74
         0
 42
0.0
 43
0.0
 40
0.0
 40
0.0
 40
0.0
 40
0.0
 40
1.0
 40
1.0
 40
1.0
 40
1.0
 10
95.62699308728881
 20
79.334222424537856
 30
0.0
 10
99.300216312436618
 20
78.817294999637753
 30
0.0
 10
102.13161079587316
 20
77.358220431717271
 30
0.0
 10
101.95109101410227
 20
76.075341248093821
 30
0.0
  0
ARC
  5
EB
100
AcDbEntity
  8
DV1_MARK
  6
CONTINUOUS
 62
         7
100
AcDbCircle
 10
93.2510239985
 20
63.9014525416
 30
0.0
 40
15.6145962283
100
AcDbArc
 50
81.2476839485
 51
97.5988264133
  0
ELLIPSE
  5
EC
100
AcDbEntity
  8
DV1_MARK
  6
CONTINUOUS
 62
         7
100
AcDbEllipse
 10
94.3794234663
 20
76.9413732805
 30
0.0
 11
-6.7358205717610389
 21
0.9478717308657193
 31
0.0
210
0.0
220
0.0
230
1.0
 40
0.3376087283
 41
2.119761293918812
 42
5.253156560487251
  0
LINE
  5
ED
100
AcDbEntity
  8
DV1_MARK
  6
CONTINUOUS
 62
         7
100
AcDbLine
 10
92.8643405205
 20
69.0706851945
 30
0.0
 11
93.3767798409
 21
69.0706851945
 31
0.0
  0
LINE
  5
EE
100
AcDbEntity
  8
DV1_MARK
  6
CONTINUOUS
 62
         7
100
AcDbLine
 10
93.3767798409
 20
69.0706851945
 30
0.0
 11
93.3767798409
 21
68.9022992722
 31
0.0
  0
LINE
  5
EF
100
AcDbEntity
  8
DV1_MARK
  6
CONTINUOUS
 62
         7
100
AcDbLine
 10
92.8643405205
 20
68.9022992722
 30
0.0
 11
92.8643405205
 21
69.0706851945
 31
0.0
  0
LINE
  5
F0
100
AcDbEntity
  8
DV1_MARK
  6
CONTINUOUS
 62
         7
100
AcDbLine
 10
93.3767798409
 20
68.9022992722
 30
0.0
 11
92.8643405205
 21
68.9022992722
 31
0.0
  0
SPLINE
  5
F1
100
AcDbEntity
  8
DV1_MARK
  6
CONTINUOUS
 62
         7
100
AcDbSpline
210
0.0
220
0.0
230
1.0
 70
         8
 71
         3
 72
        24
 73
        20
 74
         0
 42
0.0
 43
0.0
 40
0.0
 40
0.0
 40
0.0
 40
0.0
 40
0.0001150749807651
 40
0.0001150749807651
 40
0.0001150749807651
 40
0.2488174167368191
 40
0.2488174167368191
 40
0.5000575374903826
 40
0.5000575374903826
 40
0.5000575374903826
 40
0.6034356317949674
 40
0.6034356317949674
 40
0.7056116552355516
 40
0.7056116552355516
 40
0.8077876786761343
 40
0.8077876786761343
 40
0.903893839338069
 40
0.903893839338069
 40
1.0
 40
1.0
 40
1.0
 40
1.0
 10
93.966585666129262
 20
69.101631796428236
 30
0.0
 10
94.049413336032174
 20
69.101631796428236
 30
0.0
 10
94.114947316614703
 20
69.130758010020472
 30
0.0
 10
94.163187607876836
 20
69.189010437204942
 30
0.0
 10
94.211798172192829
 20
69.247709986567656
 30
0.0
 10
94.23600314185741
 20
69.320988592544751
 30
0.0
 10
94.23600314185741
 20
69.500296844971928
 30
0.0
 10
94.211427899138968
 20
69.575842961476781
 30
0.0
 10
94.161367219527321
 20
69.635915777010766
 30
0.0
 10
94.111231933835782
 20
69.696078119840635
 30
0.0
 10
94.048503141857424
 20
69.726935194486501
 30
0.0
 10
93.892859937973924
 20
69.726935194486501
 30
0.0
 10
93.826415763216644
 20
69.695078398370001
 30
0.0
 10
93.719012850595277
 20
69.565830825554457
 30
0.0
 10
93.692617219527321
 20
69.488464320700089
 30
0.0
 10
93.692617219527321
 20
69.310066262447663
 30
0.0
 10
93.719012850595277
 20
69.239981310991354
 30
0.0
 10
93.824595374867116
 20
69.128937621670971
 30
0.0
 10
93.889219161274895
 20
69.101631796428236
 30
0.0
 10
93.966585666129262
 20
69.101631796428236
 30
0.0
  0
SPLINE
  5
F2
100
AcDbEntity
  8
DV1_MARK
  6
CONTINUOUS
 62
         7
100
AcDbSpline
210
0.0
220
0.0
230
1.0
 70
         8
 71
         3
 72
        14
 73
        10
 74
         0
 42
0.0
 43
0.0
 40
0.0
 40
0.0
 40
0.0
 40
0.0
 40
0.3459756944910511
 40
0.3459756944910511
 40
0.3459756944910511
 40
0.6268829147617714
 40
0.6268829147617714
 40
0.6268829147617714
 40
1.0
 40
1.0
 40
1.0
 40
1.0
 10
93.707180326323439
 20
68.820381796428236
 30
0.0
 10
93.73266576321663
 20
68.676571116816589
 30
0.0
 10
93.808211879721497
 20
68.603755582836015
 30
0.0
 10
93.933818675837998
 20
68.604665777010766
 30
0.0
 10
94.037568768235403
 20
68.605417589274523
 30
0.0
 10
94.116767704964218
 20
68.651085679923398
 30
0.0
 10
94.172289549624409
 20
68.745745874098148
 30
0.0
 10
94.227578414128843
 20
68.840008856204079
 30
0.0
 10
94.254207025352557
 20
68.969653641088442
 30
0.0
 10
94.254207025352557
 20
69.134398786719515
 30
0.0
  0
LINE
  5
F3
100
AcDbEntity
  8
DV1_MARK
  6
CONTINUOUS
 62
         7
100
AcDbLine
 10
94.2542070254
 20
69.1343987867
 30
0.0
 11
94.2505662487
 21
69.1343987867
 31
0.0
  0
LINE
  5
F4
100
AcDbEntity
  8
DV1_MARK
  6
CONTINUOUS
 62
         7
100
AcDbLine
 10
93.5451657632
 20
68.807639078
 30
0.0
 11
93.7071803263
 21
68.8203817964
 31
0.0
  0
SPLINE
  5
F5
100
AcDbEntity
  8
DV1_MARK
  6
CONTINUOUS
 62
         7
100
AcDbSpline
210
0.0
220
0.0
230
1.0
 70
         8
 71
         3
 72
        36
 73
        32
 74
         0
 42
0.0
 43
0.0
 40
0.0
 40
0.0
 40
0.0
 40
0.0
 40
0.0000385623989127
 40
0.0000385623989127
 40
0.0000385623989127
 40
0.0747786751139413
 40
0.0747786751139413
 40
0.2000188639877706
 40
0.2000188639877706
 40
0.2000188639877706
 40
0.2993288096747545
 40
0.2993288096747545
 40
0.3999991655766286
 40
0.3999991655766286
 40
0.3999991655766286
 40
0.4996309287338007
 40
0.4996309287338007
 40
0.5999794671654866
 40
0.5999794671654866
 40
0.5999794671654866
 40
0.6992261967644177
 40
0.6992261967644177
 40
0.7999597687543445
 40
0.7999597687543445
 40
0.7999597687543445
 40
0.9209268742608932
 40
0.9209268742608932
 40
0.9999400703432024
 40
0.9999400703432024
 40
0.9999400703432024
 40
1.0
 40
1.0
 40
1.0
 40
1.0
 10
94.250566248653541
 20
69.134398786719515
 30
0.0
 10
94.217799258362263
 20
69.080697330408839
 30
0.0
 10
94.172289549624409
 20
69.037008010020486
 30
0.0
 10
94.114037122439939
 20
69.004241019729207
 30
0.0
 10
94.056476118723552
 20
68.971862955138747
 30
0.0
 10
93.994801685546733
 20
68.955090534292324
 30
0.0
 10
93.814583238944806
 20
68.955090534292324
 30
0.0
 10
93.718102656420527
 20
68.996049272156398
 30
0.0
 10
93.639825957391395
 20
69.07887694205931
 30
0.0
 10
93.561574223820912
 20
69.161678195023427
 30
0.0
 10
93.521500714672953
 20
69.269107524583575
 30
0.0
 10
93.521500714672953
 20
69.536704611962222
 30
0.0
 10
93.561549258362277
 20
69.647748301282618
 30
0.0
 10
93.641646345740924
 20
69.73421674788456
 30
0.0
 10
93.722163764903769
 20
69.821138961753547
 30
0.0
 10
93.82550556904188
 20
69.864374514874839
 30
0.0
 10
94.079449743799174
 20
69.864374514874839
 30
0.0
 10
94.189583238944806
 20
69.814313835263192
 30
0.0
 10
94.282423044770042
 20
69.716012864389413
 30
0.0
 10
94.375717205273062
 20
69.617230812092103
 30
0.0
 10
94.421682753507895
 20
69.445685194486501
 30
0.0
 10
94.421682753507895
 20
68.956000728467075
 30
0.0
 10
94.378903627294321
 20
68.771231310991354
 30
0.0
 10
94.294255569041894
 20
68.650175485748633
 30
0.0
 10
94.209180060271294
 20
68.52850836030251
 30
0.0
 10
94.087641491371983
 20
68.467226456622427
 30
0.0
 10
93.827325957391409
 20
68.467226456622427
 30
0.0
 10
93.740857510789468
 20
68.495442476039898
 30
0.0
 10
93.671682753507895
 20
68.551874514874854
 30
0.0
 10
93.602953821065384
 20
68.607942854499001
 30
0.0
 10
93.560639064187512
 20
68.692954611962236
 30
0.0
 10
93.545165763216644
 20
68.807639077981634
 30
0.0
  0
LINE
  5
F6
100
AcDbEntity
  8
DV1_MARK
  6
CONTINUOUS
 62
         7
100
AcDbLine
 10
95.4829691613
 20
69.8397992722
 30
0.0
 11
95.4829691613
 21
69.7096415052
 31
0.0
  0
LINE
  5
F7
100
AcDbEntity
  8
DV1_MARK
  6
CONTINUOUS
 62
         7
100
AcDbLine
 10
94.5973502292
 20
69.8397992722
 30
0.0
 11
95.4829691613
 21
69.8397992722
 31
0.0
  0
LINE
  5
F8
100
AcDbEntity
  8
DV1_MARK
  6
CONTINUOUS
 62
         7
100
AcDbLine
 10
94.5973502292
 20
69.6768745149
 30
0.0
 11
94.5973502292
 21
69.8397992722
 31
0.0
  0
SPLINE
  5
F9
100
AcDbEntity
  8
DV1_MARK
  6
CONTINUOUS
 62
         7
100
AcDbSpline
210
0.0
220
0.0
230
1.0
 70
         8
 71
         3
 72
        14
 73
        10
 74
         0
 42
0.0
 43
0.0
 40
0.0
 40
0.0
 40
0.0
 40
0.0
 40
0.0006525203626061
 40
0.0006525203626061
 40
0.0006525203626061
 40
0.001353229856126
 40
0.001353229856126
 40
0.001353229856126
 40
1.0
 40
1.0
 40
1.0
 40
1.0
 10
95.482969161274895
 20
69.709641505166104
 30
0.0
 10
95.348260423410807
 20
69.563100243030178
 30
0.0
 10
95.23266576321663
 20
69.381061408078736
 30
0.0
 10
95.134364792342851
 20
69.163525000311736
 30
0.0
 10
95.036559720820577
 20
68.94708599944299
 30
0.0
 10
94.978721588459365
 20
68.722080825554457
 30
0.0
 10
94.960517704964218
 20
68.490891505166118
 30
0.0
 10
94.960166242551551
 20
68.486427932525274
 30
0.0
 10
94.846440035061306
 20
68.490891505166118
 30
0.0
 10
94.789401200109836
 20
68.490891505166118
 30
0.0
  0
ARC
  5
FA
100
AcDbEntity
  8
DV1_MARK
  6
CONTINUOUS
 62
         7
100
AcDbCircle
 10
96.8485470197
 20
68.3517006066
 30
0.0
 40
2.0638448615
100
AcDbArc
 50
140.0521659869
 51
176.1328928675
  0
LINE
  5
FB
100
AcDbEntity
  8
DV1_MARK
  6
CONTINUOUS
 62
         7
100
AcDbLine
 10
95.2663429477
 20
69.6768745149
 30
0.0
 11
94.5973502292
 21
69.6768745149
 31
0.0
  0
LINE
  5
FC
100
AcDbEntity
  8
DV1_MARK
  6
CONTINUOUS
 62
         7
100
AcDbLine
 10
96.5369740156
 20
68.6547264566
 30
0.0
 11
96.5369740156
 21
68.4908915052
 31
0.0
  0
LINE
  5
FD
100
AcDbEntity
  8
DV1_MARK
  6
CONTINUOUS
 62
         7
100
AcDbLine
 10
95.8606997438
 20
68.6547264566
 30
0.0
 11
96.5369740156
 21
68.6547264566
 31
0.0
  0
SPLINE
  5
FE
100
AcDbEntity
  8
DV1_MARK
  6
CONTINUOUS
 62
         7
100
AcDbSpline
210
0.0
220
0.0
230
1.0
 70
         8
 71
         3
 72
        24
 73
        20
 74
         0
 42
0.0
 43
0.0
 40
0.0
 40
0.0
 40
0.0
 40
0.0
 40
0.0001714314784168
 40
0.0001714314784168
 40
0.0001714314784168
 40
0.2394698790298797
 40
0.2394698790298797
 40
0.4998828954829375
 40
0.4998828954829375
 40
0.4998828954829375
 40
0.7733099229571079
 40
0.7733099229571079
 40
0.9995943594874583
 40
0.9995943594874583
 40
0.9995943594874583
 40
0.9998566797720219
 40
0.9998566797720219
 40
0.9998566797720219
 40
1.0
 40
1.0
 40
1.0
 40
1.0
 10
95.660457025352557
 20
69.467529854680677
 30
0.0
 10
95.671379355449659
 20
69.595867233321457
 30
0.0
 10
95.716889064187512
 20
69.694168204195236
 30
0.0
 10
95.797896345740909
 20
69.76243276730203
 30
0.0
 10
95.877922880640341
 20
69.829870858509409
 30
0.0
 10
95.980845374867116
 20
69.864374514874839
 30
0.0
 10
96.239340520498189
 20
69.864374514874839
 30
0.0
 10
96.344012850595277
 20
69.827056553709795
 30
0.0
 10
96.419558967100144
 20
69.753330825554457
 30
0.0
 10
96.495093849981714
 20
69.679616060332663
 30
0.0
 10
96.531512850595277
 20
69.589495874098162
 30
0.0
 10
96.531512850595277
 20
69.396534709049604
 30
0.0
 10
96.500566248653541
 20
69.308245874098148
 30
0.0
 10
96.436852656420513
 20
69.218136650797177
 30
0.0
 10
96.373568126539112
 20
69.128634244250634
 30
0.0
 10
96.247532268071012
 20
69.008791990603001
 30
0.0
 10
96.059122073896248
 20
68.857699757593295
 30
0.0
 10
95.960093322593977
 20
68.778285396645572
 30
0.0
 10
95.893466734090424
 20
68.711158495457369
 30
0.0
 10
95.860699743799174
 20
68.654726456622413
 30
0.0
  0
LINE
  5
FF
100
AcDbEntity
  8
DV1_MARK
  6
CONTINUOUS
 62
         7
100
AcDbLine
 10
95.8315735302
 20
69.448415777
 30
0.0
 11
95.6604570254
 21
69.4675298547
 31
0.0
  0
LINE
  5
100
100
AcDbEntity
  8
DV1_MARK
  6
CONTINUOUS
 62
         7
100
AcDbLine
 10
96.5369740156
 20
68.4908915052
 30
0.0
 11
95.6267798409
 21
68.4908915052
 31
0.0
  0
SPLINE
  5
101
100
AcDbEntity
  8
DV1_MARK
  6
CONTINUOUS
 62
         7
100
AcDbSpline
210
0.0
220
0.0
230
1.0
 70
         8
 71
         3
 72
        26
 73
        22
 74
         0
 42
0.0
 43
0.0
 40
0.0
 40
0.0
 40
0.0
 40
0.0
 40
0.1666350508337375
 40
0.1666350508337375
 40
0.3332701016674733
 40
0.3332701016674733
 40
0.3332701016674733
 40
0.3333810846508997
 40
0.3333810846508997
 40
0.3333810846508997
 40
0.5122089440822268
 40
0.5122089440822268
 40
0.6666511863183731
 40
0.6666511863183731
 40
0.6666511863183731
 40
0.8332862371521155
 40
0.8332862371521155
 40
0.9999212879858466
 40
0.9999212879858466
 40
0.9999212879858466
 40
1.0
 40
1.0
 40
1.0
 40
1.0
 10
95.626779840886556
 20
68.490891505166118
 30
0.0
 10
95.626779840886556
 20
68.568258010020472
 30
0.0
 10
95.654085666129262
 20
68.646534709049604
 30
0.0
 10
95.76148857875063
 20
68.804908495457369
 30
0.0
 10
95.862520132148674
 20
68.904119660505913
 30
0.0
 10
96.010881782634115
 20
69.022444903224354
 30
0.0
 10
96.101010060357765
 20
69.094326351715608
 30
0.0
 10
96.181998287488483
 20
69.169896359535045
 30
0.0
 10
96.253903627294306
 20
69.249083252738927
 30
0.0
 10
96.325397633150487
 20
69.327817157922311
 30
0.0
 10
96.361306539915674
 20
69.408367233321442
 30
0.0
 10
96.361306539915674
 20
69.557639077981634
 30
0.0
 10
96.336731297197218
 20
69.614071116816604
 30
0.0
 10
96.286670617585571
 20
69.659580825554457
 30
0.0
 10
96.237561317405451
 20
69.704225643900031
 30
0.0
 10
96.175626928265189
 20
69.726935194486501
 30
0.0
 10
96.024534695255468
 20
69.726935194486501
 30
0.0
 10
95.960821103022468
 20
69.70418034011756
 30
0.0
 10
95.909850229236071
 20
69.656850243030192
 30
0.0
 10
95.858844443892266
 20
69.609487728068089
 30
0.0
 10
95.832483724381689
 20
69.541255582836015
 30
0.0
 10
95.831573530206938
 20
69.44841577701078
 30
0.0
  0
SPLINE
  5
102
100
AcDbEntity
  8
DV1_MARK
  6
CONTINUOUS
 62
         7
100
AcDbSpline
210
0.0
220
0.0
230
1.0
 70
         8
 71
         3
 72
        29
 73
        25
 74
         0
 42
0.0
 43
0.0
 40
0.0
 40
0.0
 40
0.0
 40
0.0
 40
0.000135411294065
 40
0.000135411294065
 40
0.000135411294065
 40
0.2946346138190069
 40
0.2946346138190069
 40
0.4999735073226356
 40
0.4999735073226356
 40
0.4999735073226356
 40
0.5843657867265865
 40
0.6687580661305392
 40
0.6687580661305392
 40
0.7916232964392407
 40
0.7916232964392407
 40
0.9144885267479416
 40
0.9144885267479416
 40
0.9998116033512061
 40
0.9998116033512061
 40
0.9998116033512061
 40
0.9999141526924699
 40
0.9999141526924699
 40
0.9999141526924699
 40
1.0
 40
1.0
 40
1.0
 40
1.0
 10
97.16500799622635
 20
68.604665777010766
 30
0.0
 10
97.255083568695909
 20
68.606010188540168
 30
0.0
 10
97.323381782634115
 20
68.647444903224354
 30
0.0
 10
97.369801685546733
 20
68.735733738175824
 30
0.0
 10
97.415846673340084
 20
68.823309499272952
 30
0.0
 10
97.438976442828277
 20
68.966012864389413
 30
0.0
 10
97.438976442828277
 20
69.302784709049604
 30
0.0
 10
97.428964306905954
 20
69.412008010020486
 30
0.0
 10
97.408940035061306
 20
69.491194903224368
 30
0.0
 10
97.388861058885269
 20
69.570598127193236
 30
0.0
 10
97.327932753507895
 20
69.688707039146692
 30
0.0
 10
97.224170617585571
 20
69.726935194486501
 30
0.0
 10
97.072168190401101
 20
69.726935194486501
 30
0.0
 10
97.003903627294306
 20
69.682335679923398
 30
0.0
 10
96.912884209818586
 20
69.503937621670971
 30
0.0
 10
96.890129355449645
 20
69.36103713623406
 30
0.0
 10
96.890129355449645
 20
69.027906068272898
 30
0.0
 10
96.901051685546733
 20
68.920503155651545
 30
0.0
 10
96.921075957391395
 20
68.840406068272912
 30
0.0
 10
96.941153770069874
 20
68.760094817559022
 30
0.0
 10
96.972046831177806
 20
68.701146359535045
 30
0.0
 10
97.01300556904188
 20
68.662918204195236
 30
0.0
 10
97.053931877184766
 20
68.624720316595202
 30
0.0
 10
97.104024986517615
 20
68.603755582836015
 30
0.0
 10
97.16500799622635
 20
68.604665777010766
 30
0.0
  0
SPLINE
  5
103
100
AcDbEntity
  8
DV1_MARK
  6
CONTINUOUS
 62
         7
100
AcDbSpline
210
0.0
220
0.0
230
1.0
 70
         8
 71
         3
 72
        20
 73
        16
 74
         0
 42
0.0
 43
0.0
 40
0.0
 40
0.0
 40
0.0
 40
0.0
 40
0.3319690389102618
 40
0.3319690389102618
 40
0.4998986894527577
 40
0.4998986894527577
 40
0.4998986894527577
 40
0.6215561035589359
 40
0.6215561035589359
 40
0.8725707681071208
 40
0.8725707681071208
 40
0.9997973789055155
 40
0.9997973789055155
 40
0.9997973789055155
 40
1.0
 40
1.0
 40
1.0
 40
1.0
 10
97.1640978020516
 20
69.864374514874839
 30
0.0
 10
97.461731297197218
 20
69.864374514874839
 30
0.0
 10
97.610092947682659
 20
69.630454611962222
 30
0.0
 10
97.610092947682659
 20
68.928694903224368
 30
0.0
 10
97.571864792342851
 20
68.753937621670971
 30
0.0
 10
97.494498287488497
 20
68.639253155651545
 30
0.0
 10
97.417416452255011
 20
68.524990670481955
 30
0.0
 10
97.307908481663233
 20
68.467226456622427
 30
0.0
 10
96.867374501080704
 20
68.467226456622427
 30
0.0
 10
96.719012850595277
 20
68.69932597118553
 30
0.0
 10
96.719012850595277
 20
69.400175485748633
 30
0.0
 10
96.75815120010985
 20
69.575842961476781
 30
0.0
 10
96.834607510789453
 20
69.691437621670957
 30
0.0
 10
96.910645018300798
 20
69.806399091360731
 30
0.0
 10
97.021197316614703
 20
69.864374514874839
 30
0.0
 10
97.1640978020516
 20
69.864374514874839
 30
0.0
  0
CIRCLE
  5
104
100
AcDbEntity
  8
DV1_DEFAULT
  6
CONTINUOUS
 62
         7
100
AcDbCircle
 10
81.7929229642
 20
73.7357840316
 30
0.0
 40
1.59
  0
LINE
  5
105
100
AcDbEntity
  8
DV1_DEFAULT
  6
CONTINUOUS
 62
         7
100
AcDbLine
 10
80.2029229642
 20
80.0857840316
 30
0.0
 11
97.6629229642
 21
80.0857840316
 31
0.0
  0
ARC
  5
106
100
AcDbEntity
  8
DV1_DEFAULT
  6
CONTINUOUS
 62
         7
100
AcDbCircle
 10
80.2029229642
 20
78.4957840316
 30
0.0
 40
1.59
100
AcDbArc
 50
90.0
 51
180.0
  0
LINE
  5
107
100
AcDbEntity
  8
DV1_DEFAULT
  6
CONTINUOUS
 62
         7
100
AcDbLine
 10
78.6129229642
 20
68.9757840316
 30
0.0
 11
78.6129229642
 21
78.4957840316
 31
0.0
  0
ARC
  5
108
100
AcDbEntity
  8
DV1_DEFAULT
  6
CONTINUOUS
 62
         7
100
AcDbCircle
 10
80.2029229642
 20
68.9757840316
 30
0.0
 40
1.59
100
AcDbArc
 50
180.0
 51
270.0
  0
SPLINE
  5
109
100
AcDbEntity
  8
DV1_MARK
  6
CONTINUOUS
 62
         7
100
AcDbSpline
210
0.0
220
0.0
230
1.0
 70
         8
 71
         3
 72
        25
 73
        21
 74
         0
 42
0.0
 43
0.0
 40
0.0
 40
0.0
 40
0.0
 40
0.0
 40
0.0002946789749548
 40
0.0002946789749548
 40
0.0002946789749548
 40
0.0005778950227712
 40
0.0005778950227712
 40
0.0005778950227712
 40
0.0008619478403281
 40
0.0008619478403281
 40
0.0008619478403281
 40
0.2001135964754267
 40
0.2001135964754267
 40
0.4009218986154869
 40
0.4009218986154869
 40
0.601730200755546
 40
0.601730200755546
 40
0.8008651003777724
 40
0.8008651003777724
 40
1.0
 40
1.0
 40
1.0
 40
1.0
 10
90.097442073665263
 20
76.460907862784552
 30
0.0
 10
90.097442073665263
 20
76.353705182717547
 30
0.0
 10
90.129267869310169
 20
76.265765484225071
 30
0.0
 10
90.193756981537959
 20
76.197088767307164
 30
0.0
 10
90.258664026841146
 20
76.127966978802476
 30
0.0
 10
90.340323145692068
 20
76.093236170992256
 30
0.0
 10
90.43998813731686
 20
76.094073691930276
 30
0.0
 10
90.540476515752843
 20
76.094918132085198
 30
0.0
 10
90.622567701805977
 20
76.127574529451209
 30
0.0
 10
90.687056814033767
 20
76.197088767307164
 30
0.0
 10
90.751128341902472
 20
76.266152881763048
 30
0.0
 10
90.783371721906477
 20
76.353705182717547
 30
0.0
 10
90.783371721906477
 20
76.568948063789563
 30
0.0
 10
90.751545926261585
 20
76.656887762282039
 30
0.0
 10
90.622567701805977
 20
76.795916237993922
 30
0.0
 10
90.540490649879672
 20
76.830254596452889
 30
0.0
 10
90.340323145692068
 20
76.830254596452889
 30
0.0
 10
90.258246093765777
 20
76.795916237993922
 30
0.0
 10
90.129267869310169
 20
76.656887762282039
 30
0.0
 10
90.097442073665263
 20
76.568948063789563
 30
0.0
 10
90.097442073665263
 20
76.460907862784552
 30
0.0
  0
SPLINE
  5
10A
100
AcDbEntity
  8
DV1_MARK
  6
CONTINUOUS
 62
         7
100
AcDbSpline
210
0.0
220
0.0
230
1.0
 70
         8
 71
         3
 72
        31
 73
        27
 74
         0
 42
0.0
 43
0.0
 40
0.0
 40
0.0
 40
0.0
 40
0.0
 40
0.0000409711151377
 40
0.0000409711151377
 40
0.0000409711151377
 40
0.1762832108280147
 40
0.1762832108280147
 40
0.2499845110715814
 40
0.2499845110715814
 40
0.2499845110715814
 40
0.2499990424519169
 40
0.2499990424519169
 40
0.2499990424519169
 40
0.4999425824083606
 40
0.4999425824083606
 40
0.4999425824083606
 40
0.7498861223648042
 40
0.7498861223648042
 40
0.7498861223648042
 40
0.9998296623212478
 40
0.9998296623212478
 40
0.9998296623212478
 40
0.999910704853223
 40
0.999910704853223
 40
0.999910704853223
 40
1.0
 40
1.0
 40
1.0
 40
1.0
 10
90.676169041839472
 20
75.877155768982206
 30
0.0
 10
90.72474525624483
 20
75.849517578027417
 30
0.0
 10
90.774996512526243
 20
75.827742033638813
 30
0.0
 10
90.826085289745677
 20
75.812666656754402
 30
0.0
 10
90.87771716150661
 20
75.797431022464281
 30
0.0
 10
90.926587802308489
 20
75.790891112365784
 30
0.0
 10
90.991914435474314
 20
75.790891112365784
 30
0.0
 10
91.011177417048856
 20
75.79256615424184
 30
0.0
 10
91.028765356747343
 20
75.795916237993922
 30
0.0
 10
91.047315437567192
 20
75.799449586721522
 30
0.0
 10
91.065616278020372
 20
75.80596648925021
 30
0.0
 10
91.084041738656893
 20
75.813504177692423
 30
0.0
 10
91.086781099176306
 20
75.814624825177631
 30
0.0
 10
91.099117115541318
 20
75.792286980595833
 30
0.0
 10
91.106654803983531
 20
75.781678382047517
 30
0.0
 10
91.113769299609373
 20
75.771665388203729
 30
0.0
 10
90.962042855351484
 20
75.648791726547799
 30
0.0
 10
90.889736881035446
 20
75.582348398797947
 30
0.0
 10
90.886709643638341
 20
75.579566613081681
 30
0.0
 10
90.878569935195131
 20
75.582348398797947
 30
0.0
 10
90.87298646227498
 20
75.582348398797947
 30
0.0
 10
90.770808907836127
 20
75.582348398797947
 30
0.0
 10
90.666956311521218
 20
75.606636506000626
 30
0.0
 10
90.56226619426829
 20
75.655212720405984
 30
0.0
 10
90.457256311530031
 20
75.703937305996533
 30
0.0
 10
90.362098690080671
 20
75.772465651729263
 30
0.0
 10
90.274996512526243
 20
75.861242871159746
 30
0.0
  0
SPLINE
  5
10B
100
AcDbEntity
  8
DV1_MARK
  6
CONTINUOUS
 62
         7
100
AcDbSpline
210
0.0
220
0.0
230
1.0
 70
         8
 71
         3
 72
        37
 73
        33
 74
         0
 42
0.0
 43
0.0
 40
0.0
 40
0.0
 40
0.0
 40
0.0
 40
0.1284201453233358
 40
0.1284201453233358
 40
0.2568402906466724
 40
0.2568402906466724
 40
0.3331789325888778
 40
0.3331789325888778
 40
0.3331789325888778
 40
0.3332627477647143
 40
0.3332627477647143
 40
0.3332627477647143
 40
0.3333449356899851
 40
0.3333449356899851
 40
0.3333449356899851
 40
0.4984730908765785
 40
0.4984730908765785
 40
0.6665238682788629
 40
0.6665238682788629
 40
0.6665238682788629
 40
0.6666059111628477
 40
0.6666059111628477
 40
0.6666059111628477
 40
0.6666882229068122
 40
0.6666882229068122
 40
0.6666882229068122
 40
0.7870703919808958
 40
0.7870703919808958
 40
0.9998671554956901
 40
0.9998671554956901
 40
0.9998671554956901
 40
1.0
 40
1.0
 40
1.0
 40
1.0
 10
90.274996512526243
 20
75.861242871159746
 30
0.0
 10
90.119217618053867
 20
75.901443876184885
 30
0.0
 10
89.998614602978506
 20
75.973470676854888
 30
0.0
 10
89.829435373497759
 20
76.182850911360759
 30
0.0
 10
89.787559326596579
 20
76.310154093940312
 30
0.0
 10
89.787559326596579
 20
76.550522603153055
 30
0.0
 10
89.803472224419039
 20
76.633437176017381
 30
0.0
 10
89.834460499125896
 20
76.708814060439494
 30
0.0
 10
89.865864394372196
 20
76.785201913741275
 30
0.0
 10
89.913187467300105
 20
76.852867661779527
 30
0.0
 10
89.976001537651868
 20
76.91233164837918
 30
0.0
 10
90.036236144023306
 20
76.969353742410817
 30
0.0
 10
90.105817283045511
 20
77.011996640003986
 30
0.0
 10
90.18286920934365
 20
77.040472351896781
 30
0.0
 10
90.25964881074637
 20
77.068847421980394
 30
0.0
 10
90.345348271320205
 20
77.082348398797947
 30
0.0
 10
90.536303045189555
 20
77.082348398797947
 30
0.0
 10
90.622567701805977
 20
77.068110542851556
 30
0.0
 10
90.700457149042151
 20
77.039634830958761
 30
0.0
 10
90.777607818247432
 20
77.011429209958976
 30
0.0
 10
90.84702331319626
 20
76.969283072164785
 30
0.0
 10
90.907324820733947
 20
76.91233164837918
 30
0.0
 10
90.968487075728333
 20
76.854567296440052
 30
0.0
 10
91.015365021738972
 20
76.788378549551709
 30
0.0
 10
91.04719081738385
 20
76.71300166512961
 30
0.0
 10
91.07914332931486
 20
76.637324663187783
 30
0.0
 10
91.095767031789222
 20
76.558897812533289
 30
0.0
 10
91.095767031789222
 20
76.329417075514868
 30
0.0
 10
91.060591152392234
 20
76.205463976687398
 30
0.0
 10
90.988564351722218
 20
76.104123943186551
 30
0.0
 10
90.916423155352987
 20
76.002622957597296
 30
0.0
 10
90.812684954737293
 20
75.926569504325585
 30
0.0
 10
90.676169041839472
 20
75.877155768982206
 30
0.0
  0
SPLINE
  5
10C
100
AcDbEntity
  8
DV1_MARK
  6
CONTINUOUS
 62
         7
100
AcDbSpline
210
0.0
220
0.0
230
1.0
 70
         8
 71
         3
 72
        21
 73
        17
 74
         0
 42
0.0
 43
0.0
 40
0.0
 40
0.0
 40
0.0
 40
0.0
 40
0.3333065825060393
 40
0.3333065825060393
 40
0.3333065825060393
 40
0.3333868349879214
 40
0.3333868349879214
 40
0.3333868349879214
 40
0.4452058175060771
 40
0.4452058175060771
 40
0.5559496175000189
 40
0.5559496175000189
 40
0.6666934174939607
 40
0.6666934174939607
 40
0.6666934174939607
 40
1.0
 40
1.0
 40
1.0
 40
1.0
 10
91.565616278020372
 20
77.063085417223405
 30
0.0
 10
91.565616278020372
 20
76.837792284895102
 30
0.0
 10
91.565616278020372
 20
76.612499152566798
 30
0.0
 10
91.565616278020372
 20
76.38720602023848
 30
0.0
 10
91.565616278020372
 20
76.290891112365784
 30
0.0
 10
91.58822934334701
 20
76.218026790757747
 30
0.0
 10
91.634292994938306
 20
76.167775534476348
 30
0.0
 10
91.68039141154965
 20
76.117486352718487
 30
0.0
 10
91.746520800633448
 20
76.091561129116201
 30
0.0
 10
91.919887634804297
 20
76.091561129116201
 30
0.0
 10
91.986051788908142
 20
76.116686757256915
 30
0.0
 10
92.07650405021468
 20
76.217189269819727
 30
0.0
 10
92.099117115541318
 20
76.290891112365784
 30
0.0
 10
92.099117115541318
 20
76.38720602023848
 30
0.0
 10
92.099117115541318
 20
76.612499152566798
 30
0.0
 10
92.099117115541318
 20
76.837792284895102
 30
0.0
 10
92.099117115541318
 20
77.063085417223405
 30
0.0
  0
LINE
  5
10D
100
AcDbEntity
  8
DV1_MARK
  6
CONTINUOUS
 62
         7
100
AcDbLine
 10
92.0991171155
 20
77.0630854172
 30
0.0
 11
92.3997871323
 21
77.0630854172
 31
0.0
  0
LINE
  5
10E
100
AcDbEntity
  8
DV1_MARK
  6
CONTINUOUS
 62
         7
100
AcDbLine
 10
91.2615961775
 20
77.0630854172
 30
0.0
 11
91.565616278
 21
77.0630854172
 31
0.0
  0
SPLINE
  5
10F
100
AcDbEntity
  8
DV1_MARK
  6
CONTINUOUS
 62
         7
100
AcDbSpline
210
0.0
220
0.0
230
1.0
 70
         8
 71
         3
 72
        22
 73
        18
 74
         0
 42
0.0
 43
0.0
 40
0.0
 40
0.0
 40
0.0
 40
0.0
 40
0.3332340278417981
 40
0.3332340278417981
 40
0.3332340278417981
 40
0.3333829366265679
 40
0.3333829366265679
 40
0.3333829366265679
 40
0.5007785347246674
 40
0.5007785347246674
 40
0.6666169644683661
 40
0.6666169644683661
 40
0.6666169644683661
 40
0.666765972158202
 40
0.666765972158202
 40
0.666765972158202
 40
1.0
 40
1.0
 40
1.0
 40
1.0
 10
92.399787132291735
 20
77.063085417223405
 30
0.0
 10
92.399787132291735
 20
76.833604680204971
 30
0.0
 10
92.399787132291735
 20
76.604123943186551
 30
0.0
 10
92.399787132291735
 20
76.37464320616813
 30
0.0
 10
92.399787132291735
 20
76.206301497625418
 30
0.0
 10
92.350373396948342
 20
76.074810710355734
 30
0.0
 10
92.24987088438553
 20
75.98017084435908
 30
0.0
 10
92.150230276398787
 20
75.886342605171563
 30
0.0
 10
92.010339896110835
 20
75.839467326771143
 30
0.0
 10
91.651880934636793
 20
75.839467326771143
 30
0.0
 10
91.512014937986876
 20
75.88636849930046
 30
0.0
 10
91.412349946362085
 20
75.98017084435908
 30
0.0
 10
91.311822846028605
 20
76.074784585849414
 30
0.0
 10
91.261596177517859
 20
76.206301497625418
 30
0.0
 10
91.261596177517859
 20
76.37464320616813
 30
0.0
 10
91.261596177517859
 20
76.604123943186551
 30
0.0
 10
91.261596177517859
 20
76.833604680204971
 30
0.0
 10
91.261596177517859
 20
77.063085417223405
 30
0.0
  0
LINE
  5
110
100
AcDbEntity
  8
DV1_MARK
  6
CONTINUOUS
 62
         7
100
AcDbLine
 10
93.1652812696
 20
76.7573902748
 30
0.0
 11
92.9793516214
 21
76.3017788846
 31
0.0
  0
LINE
  5
111
100
AcDbEntity
  8
DV1_MARK
  6
CONTINUOUS
 62
         7
100
AcDbLine
 10
93.3336229782
 20
76.3017788846
 30
0.0
 11
93.1652812696
 21
76.7573902748
 31
0.0
  0
LINE
  5
112
100
AcDbEntity
  8
DV1_MARK
  6
CONTINUOUS
 62
         7
100
AcDbLine
 10
92.9793516214
 20
76.3017788846
 30
0.0
 11
93.3336229782
 21
76.3017788846
 31
0.0
  0
LINE
  5
113
100
AcDbEntity
  8
DV1_MARK
  6
CONTINUOUS
 62
         7
100
AcDbLine
 10
92.795934536
 20
75.8612428712
 30
0.0
 11
92.4751640167
 21
75.8612428712
 31
0.0
  0
LINE
  5
114
100
AcDbEntity
  8
DV1_MARK
  6
CONTINUOUS
 62
         7
100
AcDbLine
 10
92.4751640167
 20
75.8612428712
 30
0.0
 11
92.9994521239
 21
77.0630854172
 31
0.0
  0
LINE
  5
115
100
AcDbEntity
  8
DV1_MARK
  6
CONTINUOUS
 62
         7
100
AcDbLine
 10
92.9994521239
 20
77.0630854172
 30
0.0
 11
93.3470233132
 21
77.0630854172
 31
0.0
  0
LINE
  5
116
100
AcDbEntity
  8
DV1_MARK
  6
CONTINUOUS
 62
         7
100
AcDbLine
 10
92.8922494438
 20
76.0957487338
 30
0.0
 11
92.795934536
 21
75.8612428712
 31
0.0
  0
LINE
  5
117
100
AcDbEntity
  8
DV1_MARK
  6
CONTINUOUS
 62
         7
100
AcDbLine
 10
93.3470233132
 20
77.0630854172
 30
0.0
 11
93.8151975176
 21
75.8612428712
 31
0.0
  0
LINE
  5
118
100
AcDbEntity
  8
DV1_MARK
  6
CONTINUOUS
 62
         7
100
AcDbLine
 10
93.8151975176
 20
75.8612428712
 30
0.0
 11
93.4961020402
 21
75.8612428712
 31
0.0
  0
LINE
  5
119
100
AcDbEntity
  8
DV1_MARK
  6
CONTINUOUS
 62
         7
100
AcDbLine
 10
93.4961020402
 20
75.8612428712
 30
0.0
 11
93.4106749045
 21
76.0957487338
 31
0.0
  0
LINE
  5
11A
100
AcDbEntity
  8
DV1_MARK
  6
CONTINUOUS
 62
         7
100
AcDbLine
 10
93.4106749045
 20
76.0957487338
 30
0.0
 11
92.8922494438
 21
76.0957487338
 31
0.0
  0
LINE
  5
11B
100
AcDbEntity
  8
DV1_MARK
  6
CONTINUOUS
 62
         7
100
AcDbLine
 10
94.7163700469
 20
76.0940736919
 30
0.0
 11
94.7163700469
 21
75.8612428712
 31
0.0
  0
LINE
  5
11C
100
AcDbEntity
  8
DV1_MARK
  6
CONTINUOUS
 62
         7
100
AcDbLine
 10
94.7163700469
 20
75.8612428712
 30
0.0
 11
93.8972745695
 21
75.8612428712
 31
0.0
  0
LINE
  5
11D
100
AcDbEntity
  8
DV1_MARK
  6
CONTINUOUS
 62
         7
100
AcDbLine
 10
94.1979445862
 20
76.0940736919
 30
0.0
 11
94.7163700469
 21
76.0940736919
 31
0.0
  0
LINE
  5
11E
100
AcDbEntity
  8
DV1_MARK
  6
CONTINUOUS
 62
         7
100
AcDbLine
 10
93.8972745695
 20
75.8612428712
 30
0.0
 11
93.8972745695
 21
77.0630854172
 31
0.0
  0
LINE
  5
11F
100
AcDbEntity
  8
DV1_MARK
  6
CONTINUOUS
 62
         7
100
AcDbLine
 10
93.8972745695
 20
77.0630854172
 30
0.0
 11
94.1979445862
 21
77.0630854172
 31
0.0
  0
LINE
  5
120
100
AcDbEntity
  8
DV1_MARK
  6
CONTINUOUS
 62
         7
100
AcDbLine
 10
94.1979445862
 20
77.0630854172
 30
0.0
 11
94.1979445862
 21
76.0940736919
 31
0.0
  0
LINE
  5
121
100
AcDbEntity
  8
DV1_MARK
  6
CONTINUOUS
 62
         7
100
AcDbLine
 10
95.4600886398
 20
75.8612428712
 30
0.0
 11
95.1435057253
 21
75.8612428712
 31
0.0
  0
LINE
  5
122
100
AcDbEntity
  8
DV1_MARK
  6
CONTINUOUS
 62
         7
100
AcDbLine
 10
95.4600886398
 20
76.8394673268
 30
0.0
 11
95.4600886398
 21
75.8612428712
 31
0.0
  0
LINE
  5
123
100
AcDbEntity
  8
DV1_MARK
  6
CONTINUOUS
 62
         7
100
AcDbLine
 10
95.8587486063
 20
76.8394673268
 30
0.0
 11
95.4600886398
 21
76.8394673268
 31
0.0
  0
LINE
  5
124
100
AcDbEntity
  8
DV1_MARK
  6
CONTINUOUS
 62
         7
100
AcDbLine
 10
95.1435057253
 20
75.8612428712
 30
0.0
 11
95.1435057253
 21
76.8394673268
 31
0.0
  0
LINE
  5
125
100
AcDbEntity
  8
DV1_MARK
  6
CONTINUOUS
 62
         7
100
AcDbLine
 10
95.1435057253
 20
76.8394673268
 30
0.0
 11
94.7448457588
 21
76.8394673268
 31
0.0
  0
LINE
  5
126
100
AcDbEntity
  8
DV1_MARK
  6
CONTINUOUS
 62
         7
100
AcDbLine
 10
94.7448457588
 20
76.8394673268
 30
0.0
 11
94.7448457588
 21
77.0630854172
 31
0.0
  0
LINE
  5
127
100
AcDbEntity
  8
DV1_MARK
  6
CONTINUOUS
 62
         7
100
AcDbLine
 10
94.7448457588
 20
77.0630854172
 30
0.0
 11
95.8587486063
 21
77.0630854172
 31
0.0
  0
LINE
  5
128
100
AcDbEntity
  8
DV1_MARK
  6
CONTINUOUS
 62
         7
100
AcDbLine
 10
95.8587486063
 20
77.0630854172
 30
0.0
 11
95.8587486063
 21
76.8394673268
 31
0.0
  0
LINE
  5
129
100
AcDbEntity
  8
DV1_MARK
  6
CONTINUOUS
 62
         7
100
AcDbLine
 10
96.80849735
 20
76.0873735244
 30
0.0
 11
96.80849735
 21
75.8612428712
 31
0.0
  0
LINE
  5
12A
100
AcDbEntity
  8
DV1_MARK
  6
CONTINUOUS
 62
         7
100
AcDbLine
 10
96.80849735
 20
75.8612428712
 30
0.0
 11
95.9894018727
 21
75.8612428712
 31
0.0
  0
LINE
  5
12B
100
AcDbEntity
  8
DV1_MARK
  6
CONTINUOUS
 62
         7
100
AcDbLine
 10
96.2900718894
 20
76.0873735244
 30
0.0
 11
96.80849735
 21
76.0873735244
 31
0.0
  0
LINE
  5
12C
100
AcDbEntity
  8
DV1_MARK
  6
CONTINUOUS
 62
         7
100
AcDbLine
 10
95.9894018727
 20
75.8612428712
 30
0.0
 11
95.9894018727
 21
77.0630854172
 31
0.0
  0
LINE
  5
12D
100
AcDbEntity
  8
DV1_MARK
  6
CONTINUOUS
 62
         7
100
AcDbLine
 10
95.9894018727
 20
77.0630854172
 30
0.0
 11
96.7934219732
 21
77.0630854172
 31
0.0
  0
LINE
  5
12E
100
AcDbEntity
  8
DV1_MARK
  6
CONTINUOUS
 62
         7
100
AcDbLine
 10
96.7934219732
 20
77.0630854172
 30
0.0
 11
96.7934219732
 21
76.8411423686
 31
0.0
  0
LINE
  5
12F
100
AcDbEntity
  8
DV1_MARK
  6
CONTINUOUS
 62
         7
100
AcDbLine
 10
96.7934219732
 20
76.8411423686
 30
0.0
 11
96.2900718894
 21
76.8411423686
 31
0.0
  0
LINE
  5
130
100
AcDbEntity
  8
DV1_MARK
  6
CONTINUOUS
 62
         7
100
AcDbLine
 10
96.2900718894
 20
76.8411423686
 30
0.0
 11
96.2900718894
 21
76.5957487338
 31
0.0
  0
LINE
  5
131
100
AcDbEntity
  8
DV1_MARK
  6
CONTINUOUS
 62
         7
100
AcDbLine
 10
96.2900718894
 20
76.5957487338
 30
0.0
 11
96.7708089078
 21
76.5957487338
 31
0.0
  0
LINE
  5
132
100
AcDbEntity
  8
DV1_MARK
  6
CONTINUOUS
 62
         7
100
AcDbLine
 10
96.7708089078
 20
76.5957487338
 30
0.0
 11
96.7708089078
 21
76.3721306434
 31
0.0
  0
LINE
  5
133
100
AcDbEntity
  8
DV1_MARK
  6
CONTINUOUS
 62
         7
100
AcDbLine
 10
96.7708089078
 20
76.3721306434
 30
0.0
 11
96.2900718894
 21
76.3721306434
 31
0.0
  0
LINE
  5
134
100
AcDbEntity
  8
DV1_MARK
  6
CONTINUOUS
 62
         7
100
AcDbLine
 10
96.2900718894
 20
76.3721306434
 30
0.0
 11
96.2900718894
 21
76.0873735244
 31
0.0
  0
SPLINE
  5
135
100
AcDbEntity
  8
DV1_MARK
  6
CONTINUOUS
 62
         7
100
AcDbSpline
210
0.0
220
0.0
230
1.0
 70
         8
 71
         3
 72
        24
 73
        20
 74
         0
 42
0.0
 43
0.0
 40
0.0
 40
0.0
 40
0.0
 40
0.0
 40
0.0001117325657571
 40
0.0001117325657571
 40
0.0001117325657571
 40
0.177869646776292
 40
0.177869646776292
 40
0.5000558662828784
 40
0.5000558662828784
 40
0.5000558662828784
 40
0.619419690595962
 40
0.619419690595962
 40
0.7353236939144652
 40
0.7353236939144652
 40
0.851227697232967
 40
0.851227697232967
 40
0.9256138486164829
 40
0.9256138486164829
 40
1.0
 40
1.0
 40
1.0
 40
1.0
 10
98.039653128941652
 20
76.702113892935301
 30
0.0
 10
97.973488974837792
 20
76.744827460774488
 30
0.0
 10
97.906487299795927
 20
76.7774907773574
 30
0.0
 10
97.839485624754047
 20
76.798428800807997
 30
0.0
 10
97.77324695811123
 20
76.819128384133876
 30
0.0
 10
97.706319795608309
 20
76.830254596452889
 30
0.0
 10
97.517877584553034
 20
76.830254596452889
 30
0.0
 10
97.423237718556393
 20
76.797591279869977
 30
0.0
 10
97.353723480700438
 20
76.731427125766118
 30
0.0
 10
97.284627493018959
 20
76.665661065201817
 30
0.0
 10
97.249033363447509
 20
76.575648231293755
 30
0.0
 10
97.249033363447509
 20
76.34784253615139
 30
0.0
 10
97.282534200968456
 20
76.258227795782872
 30
0.0
 10
97.414862509176146
 20
76.124224445699127
 30
0.0
 10
97.504477249544664
 20
76.091561129116201
 30
0.0
 10
97.688731855909822
 20
76.091561129116201
 30
0.0
 10
97.760758656579839
 20
76.104123943186551
 30
0.0
 10
97.906487299795927
 20
76.154375199467964
 30
0.0
 10
97.978514100465929
 20
76.192063641679013
 30
0.0
 10
98.050540901135946
 20
76.241477377022406
 30
0.0
  0
LINE
  5
136
100
AcDbEntity
  8
DV1_MARK
  6
CONTINUOUS
 62
         7
100
AcDbLine
 10
98.0505409011
 20
76.241477377
 30
0.0
 11
98.0505409011
 21
75.9617453837
 31
0.0
  0
SPLINE
  5
137
100
AcDbEntity
  8
DV1_MARK
  6
CONTINUOUS
 62
         7
100
AcDbSpline
210
0.0
220
0.0
230
1.0
 70
         8
 71
         3
 72
        34
 73
        30
 74
         0
 42
0.0
 43
0.0
 40
0.0
 40
0.0
 40
0.0
 40
0.0
 40
0.0000602558430302
 40
0.0000602558430302
 40
0.0000602558430302
 40
0.0772070297002774
 40
0.0772070297002774
 40
0.1636114164203943
 40
0.1636114164203943
 40
0.2500158031405104
 40
0.2500158031405104
 40
0.2500158031405104
 40
0.2500782159871083
 40
0.2500782159871083
 40
0.2500782159871083
 40
0.3306110063017981
 40
0.3306110063017981
 40
0.5000337632845885
 40
0.5000337632845885
 40
0.5000337632845885
 40
0.6842910247365066
 40
0.6842910247365066
 40
0.7499893105820688
 40
0.7499893105820688
 40
0.7499893105820688
 40
0.75004445270252
 40
0.75004445270252
 40
0.75004445270252
 40
1.0
 40
1.0
 40
1.0
 40
1.0
 10
98.050540901135946
 20
75.961745383722558
 30
0.0
 10
97.978514100465929
 20
75.919869336821392
 30
0.0
 10
97.904812257919872
 20
75.888881062114521
 30
0.0
 10
97.829435373497773
 20
75.869618080539993
 30
0.0
 10
97.753071400428098
 20
75.850102842977748
 30
0.0
 10
97.674493999963417
 20
75.839467326771143
 30
0.0
 10
97.496939561102451
 20
75.839467326771143
 30
0.0
 10
97.410674904486029
 20
75.853705182717547
 30
0.0
 10
97.253220968137626
 20
75.910656606503153
 30
0.0
 10
97.184544251219705
 20
75.952532653404305
 30
0.0
 10
97.125917785558073
 20
76.008646556251875
 30
0.0
 10
97.065561686177361
 20
76.066415965659132
 30
0.0
 10
97.018715105491069
 20
76.133437176017381
 30
0.0
 10
96.986889309846163
 20
76.211326623253555
 30
0.0
 10
96.955356766851125
 20
76.288498373215091
 30
0.0
 10
96.939150616378839
 20
76.371293122416049
 30
0.0
 10
96.939150616378839
 20
76.646837511025765
 30
0.0
 10
97.001127165792568
 20
76.796753758931956
 30
0.0
 10
97.125917785558073
 20
76.911494127441159
 30
0.0
 10
97.250291116699984
 20
77.025850814464263
 30
0.0
 10
97.414862509176146
 20
77.082348398797947
 30
0.0
 10
97.692081939661918
 20
77.082348398797947
 30
0.0
 10
97.764108740331935
 20
77.074810710355734
 30
0.0
 10
97.832785457249855
 20
77.058060291595268
 30
0.0
 10
97.902059865976995
 20
77.041164094344751
 30
0.0
 10
97.971813932961751
 20
77.017859286570143
 30
0.0
 10
98.039653128941652
 20
76.984358449049196
 30
0.0
 10
98.077004448706745
 20
76.965913352868895
 30
0.0
 10
98.039653128941652
 20
76.796195411639928
 30
0.0
 10
98.039653128941652
 20
76.702113892935301
 30
0.0
  0
LINE
  5
138
100
AcDbEntity
  8
DV1_MARK
  6
CONTINUOUS
 62
         7
100
AcDbLine
 10
98.5312779196
 20
75.8612428712
 30
0.0
 11
98.2297703819
 21
75.8612428712
 31
0.0
  0
LINE
  5
139
100
AcDbEntity
  8
DV1_MARK
  6
CONTINUOUS
 62
         7
100
AcDbLine
 10
98.5312779196
 20
76.3478425362
 30
0.0
 11
98.5312779196
 21
75.8612428712
 31
0.0
  0
LINE
  5
13A
100
AcDbEntity
  8
DV1_MARK
  6
CONTINUOUS
 62
         7
100
AcDbLine
 10
99.0672913199
 20
76.3478425362
 30
0.0
 11
98.5312779196
 21
76.3478425362
 31
0.0
  0
LINE
  5
13B
100
AcDbEntity
  8
DV1_MARK
  6
CONTINUOUS
 62
         7
100
AcDbLine
 10
98.2297703819
 20
75.8612428712
 30
0.0
 11
98.2297703819
 21
77.0630854172
 31
0.0
  0
LINE
  5
13C
100
AcDbEntity
  8
DV1_MARK
  6
CONTINUOUS
 62
         7
100
AcDbLine
 10
98.2297703819
 20
77.0630854172
 30
0.0
 11
98.5312779196
 21
77.0630854172
 31
0.0
  0
LINE
  5
13D
100
AcDbEntity
  8
DV1_MARK
  6
CONTINUOUS
 62
         7
100
AcDbLine
 10
98.5312779196
 20
77.0630854172
 30
0.0
 11
98.5312779196
 21
76.5806733569
 31
0.0
  0
LINE
  5
13E
100
AcDbEntity
  8
DV1_MARK
  6
CONTINUOUS
 62
         7
100
AcDbLine
 10
98.5312779196
 20
76.5806733569
 30
0.0
 11
99.0672913199
 21
76.5806733569
 31
0.0
  0
LINE
  5
13F
100
AcDbEntity
  8
DV1_MARK
  6
CONTINUOUS
 62
         7
100
AcDbLine
 10
99.0672913199
 20
76.5806733569
 30
0.0
 11
99.0672913199
 21
77.0630854172
 31
0.0
  0
LINE
  5
140
100
AcDbEntity
  8
DV1_MARK
  6
CONTINUOUS
 62
         7
100
AcDbLine
 10
99.0672913199
 20
77.0630854172
 30
0.0
 11
99.3679613366
 21
77.0630854172
 31
0.0
  0
LINE
  5
141
100
AcDbEntity
  8
DV1_MARK
  6
CONTINUOUS
 62
         7
100
AcDbLine
 10
99.3679613366
 20
77.0630854172
 30
0.0
 11
99.3679613366
 21
75.8612428712
 31
0.0
  0
LINE
  5
142
100
AcDbEntity
  8
DV1_MARK
  6
CONTINUOUS
 62
         7
100
AcDbLine
 10
99.3679613366
 20
75.8612428712
 30
0.0
 11
99.0672913199
 21
75.8612428712
 31
0.0
  0
LINE
  5
143
100
AcDbEntity
  8
DV1_MARK
  6
CONTINUOUS
 62
         7
100
AcDbLine
 10
99.0672913199
 20
75.8612428712
 30
0.0
 11
99.0672913199
 21
76.3478425362
 31
0.0
  0
SPLINE
  5
144
100
AcDbEntity
  8
DV1_MARK
  6
CONTINUOUS
 62
         7
100
AcDbSpline
210
0.0
220
0.0
230
1.0
 70
         8
 71
         3
 72
        27
 73
        23
 74
         0
 42
0.0
 43
0.0
 40
0.0
 40
0.0
 40
0.0
 40
0.0
 40
0.000195717873463
 40
0.000195717873463
 40
0.000195717873463
 40
0.0004181729565459
 40
0.0004181729565459
 40
0.0004181729565459
 40
0.0006446796481868
 40
0.0006446796481868
 40
0.0006446796481868
 40
0.2479114875921938
 40
0.2479114875921938
 40
0.5002245569228142
 40
0.5002245569228142
 40
0.5002245569228142
 40
0.7744784586225455
 40
0.7744784586225455
 40
0.9998044341974416
 40
0.9998044341974416
 40
0.9998044341974416
 40
1.0
 40
1.0
 40
1.0
 40
1.0
 10
86.523017704964218
 20
72.840709466331163
 30
0.0
 10
86.662277413702085
 20
72.840709466331163
 30
0.0
 10
86.774231297197218
 20
72.889859951768059
 30
0.0
 10
86.860699743799159
 20
72.987250728467089
 30
0.0
 10
86.946315077857705
 20
73.083680631038277
 30
0.0
 10
86.989947316614703
 20
73.219350243030178
 30
0.0
 10
86.990857510789453
 20
73.393197330408839
 30
0.0
 10
86.991791506434595
 20
73.571590498631693
 30
0.0
 10
86.947168190401101
 20
73.709034709049604
 30
0.0
 10
86.858879355449659
 20
73.805515291573883
 30
0.0
 10
86.771043832026649
 20
73.901500502737164
 30
0.0
 10
86.660457025352557
 20
73.94932597118553
 30
0.0
 10
86.390129355449659
 20
73.94932597118553
 30
0.0
 10
86.278175471954498
 20
73.901995874098148
 30
0.0
 10
86.189886637003056
 20
73.808245874098148
 30
0.0
 10
86.101143523402385
 20
73.714013495738669
 30
0.0
 10
86.056998287488483
 20
73.568864806136986
 30
0.0
 10
86.056998287488483
 20
73.215709466331163
 30
0.0
 10
86.100687607876836
 20
73.086461893515633
 30
0.0
 10
86.186245860304012
 20
72.988160922641839
 30
0.0
 10
86.27219642862039
 20
72.889409205852829
 30
0.0
 10
86.385578384575865
 20
72.840709466331163
 30
0.0
 10
86.523017704964218
 20
72.840709466331163
 30
0.0
  0
SPLINE
  5
145
100
AcDbEntity
  8
DV1_MARK
  6
CONTINUOUS
 62
         7
100
AcDbSpline
210
0.0
220
0.0
230
1.0
 70
         8
 71
         3
 72
        24
 73
        20
 74
         0
 42
0.0
 43
0.0
 40
0.0
 40
0.0
 40
0.0
 40
0.0
 40
0.0996613999302803
 40
0.0996613999302803
 40
0.1993227998605603
 40
0.1993227998605603
 40
0.298558296372337
 40
0.298558296372337
 40
0.3977937928841141
 40
0.3977937928841141
 40
0.4998645892962277
 40
0.4998645892962277
 40
0.4998645892962277
 40
0.7318278954402283
 40
0.7318278954402283
 40
0.9997291785924555
 40
0.9997291785924555
 40
0.9997291785924555
 40
1.0
 40
1.0
 40
1.0
 40
1.0
 10
86.524838093313718
 20
74.103148786719501
 30
0.0
 10
86.716889064187512
 20
74.103148786719501
 30
0.0
 10
86.873442462245762
 20
74.037614806136972
 30
0.0
 10
87.117374501080718
 20
73.777299272156398
 30
0.0
 10
87.178357510789453
 20
73.60618276730203
 30
0.0
 10
87.178357510789453
 20
73.181122087690383
 30
0.0
 10
87.117374501080718
 20
73.010005582836015
 30
0.0
 10
86.871622073896262
 20
72.751510437204942
 30
0.0
 10
86.715978870012762
 20
72.686886650797177
 30
0.0
 10
86.328236151566145
 20
72.686886650797177
 30
0.0
 10
86.16895217098363
 20
72.753330825554457
 30
0.0
 10
86.049716734090424
 20
72.888039563418531
 30
0.0
 10
85.930533185138529
 20
73.022689679791668
 30
0.0
 10
85.869498287488483
 20
73.184762864389413
 30
0.0
 10
85.869498287488483
 20
73.602541990603001
 30
0.0
 10
85.930481297197232
 20
73.780029854680677
 30
0.0
 10
86.051537122439939
 20
73.909277427496207
 30
0.0
 10
86.17301828846827
 20
74.038979123556516
 30
0.0
 10
86.330966734090424
 20
74.103148786719501
 30
0.0
 10
86.524838093313718
 20
74.103148786719501
 30
0.0
  0
LINE
  5
146
100
AcDbEntity
  8
DV1_MARK
  6
CONTINUOUS
 62
         7
100
AcDbLine
 10
88.4944982875
 20
74.0794837382
 30
0.0
 11
88.4944982875
 21
72.7114618935
 31
0.0
  0
LINE
  5
147
100
AcDbEntity
  8
DV1_MARK
  6
CONTINUOUS
 62
         7
100
AcDbLine
 10
88.3142798409
 20
73.5169837382
 30
0.0
 11
88.3142798409
 21
74.0794837382
 31
0.0
  0
LINE
  5
148
100
AcDbEntity
  8
DV1_MARK
  6
CONTINUOUS
 62
         7
100
AcDbLine
 10
88.3142798409
 20
74.0794837382
 30
0.0
 11
88.4944982875
 21
74.0794837382
 31
0.0
  0
LINE
  5
149
100
AcDbEntity
  8
DV1_MARK
  6
CONTINUOUS
 62
         7
100
AcDbLine
 10
88.4944982875
 20
72.7114618935
 30
0.0
 11
88.3142798409
 21
72.7114618935
 31
0.0
  0
LINE
  5
14A
100
AcDbEntity
  8
DV1_MARK
  6
CONTINUOUS
 62
         7
100
AcDbLine
 10
88.3142798409
 20
72.7114618935
 30
0.0
 11
88.3142798409
 21
73.3531487867
 31
0.0
  0
LINE
  5
14B
100
AcDbEntity
  8
DV1_MARK
  6
CONTINUOUS
 62
         7
100
AcDbLine
 10
88.3142798409
 20
73.3531487867
 30
0.0
 11
87.6015978021
 21
73.3531487867
 31
0.0
  0
LINE
  5
14C
100
AcDbEntity
  8
DV1_MARK
  6
CONTINUOUS
 62
         7
100
AcDbLine
 10
87.6015978021
 20
73.3531487867
 30
0.0
 11
87.6015978021
 21
72.7114618935
 31
0.0
  0
LINE
  5
14D
100
AcDbEntity
  8
DV1_MARK
  6
CONTINUOUS
 62
         7
100
AcDbLine
 10
87.6015978021
 20
72.7114618935
 30
0.0
 11
87.4213793554
 21
72.7114618935
 31
0.0
  0
LINE
  5
14E
100
AcDbEntity
  8
DV1_MARK
  6
CONTINUOUS
 62
         7
100
AcDbLine
 10
87.4213793554
 20
72.7114618935
 30
0.0
 11
87.4213793554
 21
74.0794837382
 31
0.0
  0
LINE
  5
14F
100
AcDbEntity
  8
DV1_MARK
  6
CONTINUOUS
 62
         7
100
AcDbLine
 10
87.4213793554
 20
74.0794837382
 30
0.0
 11
87.6015978021
 21
74.0794837382
 31
0.0
  0
LINE
  5
150
100
AcDbEntity
  8
DV1_MARK
  6
CONTINUOUS
 62
         7
100
AcDbLine
 10
87.6015978021
 20
74.0794837382
 30
0.0
 11
87.6015978021
 21
73.5169837382
 31
0.0
  0
LINE
  5
151
100
AcDbEntity
  8
DV1_MARK
  6
CONTINUOUS
 62
         7
100
AcDbLine
 10
87.6015978021
 20
73.5169837382
 30
0.0
 11
88.3142798409
 21
73.5169837382
 31
0.0
  0
LINE
  5
152
100
AcDbEntity
  8
DV1_MARK
  6
CONTINUOUS
 62
         7
100
AcDbLine
 10
88.7111245011
 20
73.1219594663
 30
0.0
 11
88.7111245011
 21
73.2903453887
 31
0.0
  0
LINE
  5
153
100
AcDbEntity
  8
DV1_MARK
  6
CONTINUOUS
 62
         7
100
AcDbLine
 10
89.2235638215
 20
73.2903453887
 30
0.0
 11
89.2235638215
 21
73.1219594663
 31
0.0
  0
LINE
  5
154
100
AcDbEntity
  8
DV1_MARK
  6
CONTINUOUS
 62
         7
100
AcDbLine
 10
88.7111245011
 20
73.2903453887
 30
0.0
 11
89.2235638215
 21
73.2903453887
 31
0.0
  0
LINE
  5
155
100
AcDbEntity
  8
DV1_MARK
  6
CONTINUOUS
 62
         7
100
AcDbLine
 10
89.2235638215
 20
73.1219594663
 30
0.0
 11
88.7111245011
 21
73.1219594663
 31
0.0
  0
ENDBLK
  5
156
100
AcDbEntity
  8
DV1_MARK
  6
CONTINUOUS
 62
         7
100
AcDbBlockEnd
  0
ENDSEC
  0
SECTION
  2
ENTITIES
  0
INSERT
  5
3B
102
{ACAD_XDICTIONARY
360
3C
102
}
100
AcDbEntity
  8
0
 62
         0
 48
0.0
100
AcDbBlockReference
  2
SE1
 10
0.0
 20
0.0
 30
0.0
  0
INSERT
  5
3F
100
AcDbEntity
  8
0
 62
         0
 48
0.0
100
AcDbBlockReference
  2
SE0
 10
0.0
 20
0.0
 30
0.0
  0
ENDSEC
  0
SECTION
  2
OBJECTS
  0
DICTIONARY
  5
19
100
AcDbDictionary
  3
ACAD_GROUP
350
1A
  3
ACAD_MLINESTYLE
350
1B
  3
ACDBVARIABLEDICTIONARY
350
159
  0
DICTIONARY
  5
1A
102
{ACAD_REACTORS
330
19
102
}
100
AcDbDictionary
  0
DICTIONARY
  5
1B
102
{ACAD_REACTORS
330
19
102
}
100
AcDbDictionary
  3
STANDARD
350
1C
  0
MLINESTYLE
  5
1C
102
{ACAD_REACTORS
330
1B
102
}
100
AcDbMlineStyle
  2
Standard
 70
         0
  3

 62
         0
 51
90.0
 52
90.0
 71
         2
 49
0.5
 62
       256
  6
ByLayer
 49
-0.5
 62
       256
  6
ByLayer
  0
DICTIONARY
  5
22
102
{ACAD_REACTORS
330
19
102
}
100
AcDbDictionary
  0
DICTIONARY
  5
3C
100
AcDbDictionary
  3
ACAD_FILTER
350
3D
  0
DICTIONARY
  5
3D
100
AcDbDictionary
  3
SPATIAL
350
3E
  0
SPATIAL_FILTER
  5
3E
100
AcDbFilter
100
AcDbSpatialFilter
 70
         2
 10
72.2629229642
 20
61.0357840316
 10
110.3629229642
 20
86.4357840316
210
0.0
220
0.0
230
1.0
 11
0.0
 21
0.0
 31
0.0
 71
         1
 72
         0
 73
         0
 40
1.0
 40
0.0
 40
0.0
 40
0.0
 40
0.0
 40
1.0
 40
0.0
 40
0.0
 40
0.0
 40
0.0
 40
1.0
 40
0.0
 40
1.0
 40
0.0
 40
0.0
 40
0.0
 40
0.0
 40
1.0
 40
0.0
 40
0.0
 40
0.0
 40
0.0
 40
1.0
 40
0.0
  0
DICTIONARY
  5
159
100
AcDbDictionary
  3
DIMASSOC
350
15A
  0
DICTIONARYVAR
  5
15A
100
DictionaryVariables
280
         0
  1
2
  0
ENDSEC
  0
EOF
