 0
SECTION
 2
HEADER
 9
$ACADVER
 1
AC1009
 9
$EXTMIN
 10
-22
 20
36.2
 30
0
 9
$EXTMAX
 10
160.3
 20
146.6296
 30
0
 9
$VIEWCTR
 10
69.1500015258789
 20
91.414794921875
 9
$VIEWSIZE
 40
121.473
 9
$CLAYER
 8
0
 0
ENDSEC
 0
SECTION
 2
TABLES
 0
TABLE
 2
LAYER
 70
1
 0
LAYER
 2
0
 70
0
 62
0
 6
CONTINUOUS
 0
ENDTAB
 0
ENDSEC
 0
SECTION
 2
ENTITIES
 0
POLYLINE
 8
0
 66
1
 10
0
 20
0
 70
0
 0
VERTEX
 8
0
 10
75.02801678766129
 20
146.62959900002846
 42
-0.2473504645036549
 0
VERTEX
 8
0
 10
112.82523499023405
 20
123.1
 0
VERTEX
 8
0
 10
160.3
 20
123.1
 0
VERTEX
 8
0
 10
160.3
 20
36.2
 0
VERTEX
 8
0
 10
-22
 20
36.2
 0
VERTEX
 8
0
 10
-22
 20
123.1
 0
VERTEX
 8
0
 10
30.37476500976595
 20
123.1
 42
-0.1781507011000828
 0
VERTEX
 8
0
 10
55.829212846763
 20
144.07340981740006 
 0
SEQEND
 8
0
 0
ENDSEC
 0
EOF
